<?xml version="1.0" encoding="UTF-8" standalone="no"?>
<svg xmlns:rdf="http://www.w3.org/1999/02/22-rdf-syntax-ns#" xmlns="http://www.w3.org/2000/svg" version="1.1" xmlns:cc="http://creativecommons.org/ns#" xmlns:xlink="http://www.w3.org/1999/xlink" viewBox="0 0 110.46 39.156" xmlns:dc="http://purl.org/dc/elements/1.1/">
<defs>
<radialGradient id="a" gradientUnits="userSpaceOnUse" cy="132.29" cx="61.519" gradientTransform="matrix(0 -0.0509 .22373 8.043e-8 744.65 635.42)" r="29.037">
<stop stop-color="#b8b8b8" stop-opacity=".49804" offset="0"/>
<stop stop-color="#7f7f7f" stop-opacity="0" offset="1"/>
</radialGradient>
</defs>
<g transform="translate(-756.95 -597.99)">
<g>
<path d="m800.38 616.97c0-3.089-0.88081-4.6749-2.6424-4.7618-0.70093-0.0331-1.3853 0.0786-2.0511 0.33702-0.53138 0.19023-0.88908 0.37838-1.0772 0.5686v7.3732c1.1269 0.70714 2.1276 1.0359 3.0002 0.9842 1.8464-0.12199 2.7706-1.621 2.7706-4.5012zm2.1731 0.12819c0 1.5693-0.36804 2.872-1.1082 3.9078-0.82499 1.1724-1.9684 1.7761-3.4302 1.8092-1.102 0.0352-2.2372-0.31014-3.4054-1.0338v6.7012l-1.8898-0.67405v-14.875c0.31015-0.38044 0.7092-0.70713 1.193-0.9842 1.1248-0.65544 2.4915-0.99246 4.1001-1.009l0.0269 0.0269c1.4701-0.0186 2.6032 0.58514 3.3992 1.8092 0.74228 1.1227 1.1145 2.5618 1.1145 4.3214z" fill="#646464"/>
<path d="m814.1 621.5c0 2.1049-0.2109 3.5625-0.6327 4.373-0.42387 0.81052-1.2302 1.4577-2.4212 1.9394-0.96558 0.38044-2.0097 0.58721-3.1304 0.62236l-0.31221-1.191c1.1393-0.15507 1.9415-0.31015 2.4067-0.46522 0.91596-0.31015 1.5445-0.7857 1.8898-1.4225 0.27706-0.51897 0.41353-1.5094 0.41353-2.9753v-0.49209c-1.2923 0.58721-2.6466 0.87874-4.0629 0.87874-0.93044 0-1.7513-0.29153-2.4584-0.87874-0.79398-0.63891-1.191-1.4494-1.191-2.4316v-7.8653l1.8898-0.64717v7.917c0 0.84567 0.27293 1.497 0.81878 1.9539 0.54586 0.45695 1.253 0.67612 2.1193 0.65958 0.86634-0.0186 1.7947-0.35357 2.781-1.009v-9.2361h1.8898v10.27z" fill="#646464"/>
<path d="m821.48 622.72c-0.22537 0.0186-0.43214 0.0269-0.62236 0.0269-1.069 0-1.9022-0.25432-2.4977-0.76503-0.59341-0.5107-0.89115-1.2158-0.89115-2.1152v-7.4435h-1.2943v-1.1889h1.2943v-3.1573l1.8878-0.67199v3.8293h2.1235v1.1889h-2.1235v7.3918c0 0.7092 0.19022 1.2116 0.57066 1.5052 0.32669 0.24191 0.84567 0.38045 1.5528 0.4156v0.98419z" fill="#646464"/>
<path d="m832.92 622.56h-1.8898v-7.2946c0-0.74228-0.17369-1.3812-0.51898-1.9146-0.39905-0.60375-0.95318-0.90563-1.6644-0.90563-0.86634 0-1.9498 0.45695-3.2503 1.3708v8.744h-1.8898v-17.436l1.8898-0.59548v7.9418c1.2075-0.87874 2.5266-1.3192 3.9595-1.3192 1.0007 0 1.8112 0.33703 2.4315 1.009 0.62236 0.67198 0.93251 1.5094 0.93251 2.5101v7.8901z" fill="#646464"/>
<path d="m842.97 616.68c0-1.1868-0.22537-2.1669-0.67405-2.9422-0.53344-0.94491-1.3626-1.4432-2.4832-1.4949-2.0718 0.11992-3.1056 1.6045-3.1056 4.4496 0 1.3047 0.21503 2.3943 0.64924 3.2689 0.55412 1.1145 1.3853 1.6644 2.4936 1.6458 2.08-0.0165 3.1201-1.6582 3.1201-4.9272zm2.0697 0.0124c0 1.6893-0.43213 3.0952-1.2943 4.218-0.94904 1.2571-2.2599 1.8878-3.9326 1.8878-1.6582 0-2.9505-0.63063-3.883-1.8878-0.84567-1.1227-1.2675-2.5287-1.2675-4.218 0-1.588 0.45695-2.9236 1.3708-4.0112 0.96559-1.1537 2.2351-1.7327 3.8044-1.7327s2.8471 0.57894 3.8313 1.7327c0.91389 1.0876 1.3708 2.4233 1.3708 4.0112z" fill="#646464"/>
<path d="m855.87 622.56h-1.8898v-7.7082c0-0.84566-0.25432-1.5052-0.76295-1.9808-0.50864-0.47348-1.1868-0.70299-2.0325-0.68438-0.89736 0.0165-1.7513 0.31014-2.5618 0.87874v9.4946h-1.8898v-9.7282c1.0876-0.7919 2.0883-1.3088 3.0022-1.5507 0.86221-0.22537 1.6231-0.33702 2.2785-0.33702 0.44868 0 0.87048 0.0434 1.2675 0.13026 0.74229 0.17161 1.346 0.49003 1.8112 0.95732 0.51898 0.5169 0.77743 1.1372 0.77743 1.8629v8.6655z" fill="#646464"/>
<path d="m774.05 605.19c-0.97232 0.005-1.9009 0.0874-2.7179 0.23202-2.4069 0.42521-2.8439 1.3152-2.8439 2.9565v2.1677h5.6877v0.72256h-5.6877-2.1345c-1.653 0-3.1004 0.99355-3.5532 2.8836-0.52222 2.1665-0.54539 3.5184 0 5.7805 0.4043 1.6838 1.3698 2.8836 3.0228 2.8836h1.9556v-2.5986c0-1.8773 1.6243-3.5333 3.5532-3.5333h5.6811c1.5814 0 2.8438-1.3021 2.8438-2.8902v-5.4159c0-1.5414-1.3004-2.6993-2.8438-2.9565-0.97706-0.16264-1.9908-0.23653-2.9632-0.23202zm-3.0759 1.7434c0.5875 0 1.0673 0.48761 1.0673 1.0872 0 0.59742-0.47977 1.0805-1.0673 1.0805-0.58961 0-1.0673-0.48311-1.0673-1.0805 0-0.59955 0.47767-1.0872 1.0673-1.0872z" fill="#4d4d4d"/>
<path d="m780.57 611.27v2.5257c0 1.9581-1.6601 3.6062-3.5532 3.6062h-5.6811c-1.5562 0-2.8439 1.3318-2.8439 2.8902v5.4159c0 1.5414 1.3404 2.448 2.8439 2.8903 1.8004 0.52939 3.5269 0.62506 5.6811 0 1.4319-0.41458 2.8438-1.2489 2.8438-2.8903v-2.1677h-5.6811v-0.72256h5.6811 2.8438c1.653 0 2.269-1.153 2.8438-2.8836 0.59382-1.7816 0.56855-3.495 0-5.7805-0.40851-1.6456-1.1887-2.8836-2.8438-2.8836h-2.1345zm-3.1952 13.715c0.5896 0 1.0673 0.48311 1.0673 1.0805 0 0.59955-0.47767 1.0872-1.0673 1.0872-0.58751 0-1.0673-0.48761-1.0673-1.0872 0-0.59742 0.47977-1.0805 1.0673-1.0805z" fill="#999"/>
<path d="m859.55 609.55h0.33134v-2.0781h0.7849v-0.24769h-1.9011v0.24769h0.7849v2.0781m1.41 0h0.28308v-1.8979l0.61441 1.8977h0.31516l0.64024-1.8912v1.8915h0.30881v-2.3258h-0.40854l-0.69966 1.9925-0.59671-1.9925h-0.45679v2.3258" fill="#646464"/>
<path opacity=".44382" d="m781.87 632.28a7.622 1.478 0 0 1 -15.244 0 7.622 1.478 0 1 1 15.244 0z" fill="url(#a)"/>
</g>
</g>
</svg>
