<?xml version="1.0" encoding="UTF-8" standalone="no"?>
<svg xmlns:rdf="http://www.w3.org/1999/02/22-rdf-syntax-ns#" xmlns="http://www.w3.org/2000/svg" version="1.1" xmlns:cc="http://creativecommons.org/ns#" xmlns:xlink="http://www.w3.org/1999/xlink" viewBox="0 0 50.256 58.527" xmlns:dc="http://purl.org/dc/elements/1.1/">
<g transform="translate(-802.01 -583.27)">
<g transform="translate(39.464 -1.875)">
<path d="m775.87 588.93c-0.25095 0.008-0.52123 0.10049-0.82776 0.34235-0.75094-0.28958-1.479-0.39018-2.1301 0.19936-1.0054-0.13041-1.3321 0.13869-1.5797 0.45286-0.2207-0.004-1.6516-0.22688-2.3077 0.75191-1.6489-0.19513-2.1701 0.9699-1.5796 2.0563-0.33677 0.52135-0.68572 1.0364 0.10184 2.0303-0.27859 0.55357-0.1059 1.1541 0.55038 1.8808-0.1732 0.77819 0.16725 1.3272 0.77791 1.7551-0.11421 1.0649 0.97656 1.684 1.3022 1.9047 0.12507 0.62049 0.38573 1.206 1.6316 1.5298 0.20547 0.92469 0.95424 1.0844 1.6793 1.2785-2.3965 1.393-4.4516 3.2258-4.4377 7.7229l-0.35102 0.6262c-2.7479 1.6711-5.2202 7.042-1.3542 11.408 0.25252 1.3665 0.67602 2.3481 1.0531 3.4344 0.56398 4.3774 4.2448 6.4271 5.2156 6.6695 1.4226 1.0836 2.9377 2.1118 4.9881 2.8321 1.9328 1.9934 4.0268 2.7532 6.1322 2.7519 0.0309-0.00002 0.0623 0.00067 0.0932 0 2.1054 0.001 4.1993-0.75843 6.1322-2.7519 2.0503-0.72021 3.5654-1.7484 4.9881-2.8321 0.9708-0.2424 4.6516-2.2921 5.2156-6.6695 0.37706-1.0863 0.80058-2.0679 1.0531-3.4344 3.8659-4.3659 1.3937-9.7372-1.3542-11.408l-0.35155-0.62613c0.0139-4.4967-2.0412-6.3296-4.4377-7.7229 0.72508-0.19404 1.4739-0.35373 1.6793-1.2785 1.2459-0.3238 1.5066-0.90931 1.6316-1.5298 0.32573-0.22058 1.4164-0.83976 1.3022-1.9046 0.61065-0.42793 0.95112-0.97698 0.77791-1.7551 0.65628-0.72674 0.82901-1.3272 0.55038-1.8808 0.78768-0.99349 0.43821-1.5085 0.10192-2.0299 0.59007-1.0864 0.0693-2.2514-1.5802-2.0563-0.65594-0.97878-2.0864-0.75648-2.3076-0.75191-0.24753-0.31416-0.57412-0.58327-1.5795-0.45286-0.65109-0.58953-1.3792-0.48893-2.1301-0.19935-0.8917-0.70364-1.4818-0.13959-2.1557 0.0737-1.0796-0.35278-1.3264 0.13043-1.8569 0.32719-1.1774-0.24879-1.5352 0.29289-2.0996 0.86459l-0.65654-0.013c-1.7758 1.0465-2.658 3.1775-2.9707 4.273-0.31287-1.0957-1.193-3.2267-2.9685-4.273l-0.65655 0.013c-0.56511-0.5717-0.9229-1.1134-2.1003-0.86459-0.53043-0.19676-0.77659-0.67997-1.8569-0.32719-0.44236-0.13996-0.84918-0.4309-1.3282-0.41603z"/>
<path fill="#b3b3b3" d="m772.33 593.54c4.7114 2.429 7.4504 4.3939 8.9509 6.0674-0.76841 3.0799-4.7772 3.2204-6.243 3.134 0.30013-0.13969 0.55055-0.30701 0.63934-0.56411-0.3678-0.2614-1.672-0.0276-2.5824-0.53905 0.34975-0.0725 0.51335-0.14305 0.67694-0.40116-0.86021-0.27435-1.7868-0.51077-2.3317-0.96526 0.29409 0.004 0.56866 0.0658 0.95271-0.20058-0.77049-0.4152-1.5926-0.74427-2.2314-1.3789 0.39836-0.01 0.82783-0.004 0.95271-0.15042-0.70517-0.43689-1.3002-0.92276-1.7927-1.4542 0.55749 0.0673 0.79289 0.009 0.92768-0.0878-0.53305-0.54598-1.2077-1.007-1.5294-1.6798 0.41392 0.14267 0.7926 0.19727 1.0656-0.0126-0.18114-0.40864-0.95722-0.64967-1.404-1.6046 0.43576 0.0423 0.89794 0.0951 0.99037 0-0.20226-0.82402-0.5493-1.2873-0.88969-1.7672 0.93261-0.0139 2.3456 0.004 2.2816-0.0752l-0.57666-0.58919c0.91097-0.24527 1.8431 0.0394 2.5198 0.25071 0.30383-0.23974-0.005-0.54292-0.37608-0.85244 0.77416 0.10335 1.4737 0.28134 2.106 0.52652 0.33785-0.30505-0.21938-0.61009-0.4889-0.91513 1.196 0.22691 1.7027 0.54574 2.2063 0.865 0.36538-0.35022 0.0209-0.64786-0.22564-0.95272 0.90181 0.33401 1.3663 0.76522 1.8554 1.1909 0.16581-0.22376 0.42123-0.38777 0.11283-0.92768 0.64029 0.36907 1.1225 0.80398 1.4793 1.2912 0.39616-0.25224 0.23602-0.59721 0.23819-0.91513 0.66541 0.5413 1.0877 1.1173 1.6046 1.6798 0.10414-0.0758 0.1953-0.33293 0.2758-0.73963 1.5875 1.5402 3.8307 5.4194 0.57665 6.9574-2.7694-2.284-6.0768-3.9442-9.742-5.1896z"/>
<path fill="#b3b3b3" d="m797.33 593.54c-4.7108 2.4292-7.4497 4.3936-8.9502 6.0674 0.76841 3.0799 4.7771 3.2204 6.243 3.134-0.30013-0.13969-0.55055-0.30701-0.63934-0.56411 0.3678-0.2614 1.672-0.0276 2.5824-0.53905-0.34975-0.0725-0.51334-0.14305-0.67694-0.40116 0.86021-0.27435 1.7868-0.51077 2.3317-0.96526-0.29409 0.004-0.56866 0.0658-0.95271-0.20058 0.77049-0.4152 1.5926-0.74427 2.2314-1.3789-0.39837-0.01-0.82783-0.004-0.95271-0.15042 0.70517-0.43689 1.3002-0.92276 1.7927-1.4542-0.55749 0.0673-0.79289 0.009-0.92768-0.0878 0.53306-0.54598 1.2077-1.007 1.5294-1.6798-0.41392 0.14267-0.7926 0.19727-1.0656-0.0126 0.18114-0.40864 0.95722-0.64967 1.404-1.6046-0.43576 0.0423-0.89794 0.0951-0.99037 0 0.20263-0.82437 0.54968-1.2876 0.89003-1.7676-0.9326-0.0138-2.3456 0.004-2.2816-0.0752l0.57665-0.58919c-0.91097-0.24526-1.8431 0.0394-2.5198 0.25072-0.30383-0.23975 0.005-0.54291 0.37609-0.85244-0.77417 0.10336-1.4737 0.28133-2.106 0.52651-0.33784-0.30504 0.21939-0.61009 0.48891-0.91513-1.196 0.22692-1.7027 0.54575-2.2063 0.865-0.36538-0.35022-0.0209-0.64785 0.22564-0.95271-0.90182 0.334-1.3663 0.76522-1.8554 1.1909-0.1658-0.22375-0.42122-0.38776-0.11282-0.92767-0.64029 0.36906-1.1225 0.80398-1.4793 1.2912-0.39616-0.25225-0.23602-0.59722-0.23819-0.91513-0.66541 0.54129-1.0877 1.1173-1.6046 1.6798-0.10413-0.0758-0.19531-0.33295-0.2758-0.73964-1.5875 1.5401-3.8307 5.4194-0.57666 6.9574 2.7679-2.2845 6.0752-3.9445 9.7407-5.1899z"/>
<path fill="#4d4d4d" d="m790.54 624.9a5.6435 5.2039 0 1 1 -11.287 0 5.6435 5.2039 0 1 1 11.287 0z"/>
<path fill="#4d4d4d" d="m781.63 610.03a5.0616 5.9721 34.034 0 1 -6.5849 9.9648 5.0616 5.9721 34.034 0 1 6.5849 -9.9648z"/>
<path fill="#4d4d4d" d="m787.94 609.75a5.9721 5.0616 55.966 0 0 6.5849 9.9648 5.9721 5.0616 55.966 1 0 -6.5849 -9.9648z"/>
<path fill="#4d4d4d" d="m769.94 612.54c2.5246-0.67674 0.85231 10.444-1.2018 9.532-2.2595-1.8174-2.9873-7.1398 1.2018-9.532z"/>
<path fill="#4d4d4d" d="m799.12 612.4c-2.5249-0.67652-0.85232 10.445 1.2018 9.5326 2.2595-1.8176 2.9873-7.1405-1.2018-9.5326z"/>
<path fill="#4d4d4d" d="m790.54 604.12c4.3569-0.73568 7.9822 1.8529 7.8359 6.5773-0.14331 1.8112-9.4411-6.3076-7.8359-6.5773z"/>
<path fill="#4d4d4d" d="m778.5 603.98c-4.3572-0.73568-7.9822 1.8534-7.8359 6.5774 0.14332 1.8111 9.4411-6.3077 7.8359-6.5774z"/>
<path fill="#4d4d4d" d="m784.76 602.88c-2.6004-0.0676-5.096 1.93-5.102 3.0886-0.007 1.4078 2.0559 2.8493 5.1197 2.8859 3.1288 0.0224 5.1252-1.1538 5.1353-2.6067 0.0114-1.6461-2.8456-3.3932-5.153-3.3678z"/>
<path fill="#4d4d4d" d="m784.92 631.75c2.2672-0.099 5.3093 0.73027 5.3153 1.8303 0.0377 1.0682-2.759 3.4816-5.4657 3.4349-2.8032 0.12092-5.5519-2.2962-5.5159-3.134-0.042-1.2284 3.4133-2.1875 5.6663-2.1311z"/>
<path fill="#4d4d4d" d="m776.55 625.23c1.6141 1.9447 2.3499 5.3612 1.0029 6.3683-1.2744 0.76882-4.3692 0.4522-6.5688-2.7078-1.4835-2.6516-1.2923-5.35-0.25072-6.1426 1.5576-0.94883 3.9643 0.33276 5.8167 2.4821z"/>
<path fill="#4d4d4d" d="m792.97 624.61c-1.7464 2.0456-2.7189 5.7766-1.4449 6.9782 1.2181 0.93357 4.4882 0.80308 6.9038-2.5486 1.754-2.2511 1.1663-6.0104 0.16438-7.0087-1.4883-1.1512-3.6248 0.32207-5.6233 2.5786z"/>
</g>
<text style="word-spacing:0px;letter-spacing:0px" xml:space="preserve" transform="translate(802.01 583.27)" line-height="125%" font-size="9px" y="16.562735" x="39.19643" font-family="Open Sans" fill="#000000"><tspan x="39.19643" y="16.562735"/></text>
<g transform="matrix(1.4426 0 0 1.4426 841.1 594.39)">
<g>
<path d="m6.1318 6.1847c0 0.3684-0.0685 0.7131-0.2055 1.0343s-0.3245 0.5997-0.5626 0.8356c-0.2381 0.2358-0.5189 0.4222-0.8423 0.5593-0.3235 0.137-0.6694 0.2055-1.0377 0.2055-0.3818 0-0.7334-0.0663-1.0545-0.1988-0.3212-0.1325-0.5975-0.3145-0.8289-0.5458-0.2313-0.2313-0.4121-0.5065-0.5424-0.8254-0.13026-0.319-0.1954-0.6694-0.1954-1.0512 0-0.3684 0.0685-0.712 0.2055-1.031 0.137-0.3189 0.3246-0.5963 0.5627-0.8322 0.238-0.2358 0.5177-0.4211 0.8389-0.5559 0.3212-0.1347 0.6682-0.2021 1.041-0.2021 0.38183 0.0000095 0.73335 0.065146 1.0545 0.19541 0.32119 0.13028 0.59746 0.31109 0.82881 0.54243 0.23134 0.23136 0.41215 0.5065 0.54243 0.82544 0.13027 0.31895 0.1954 0.6671 0.19541 1.0444zm-0.60645 0.04043c0-0.3189-0.0506-0.6086-0.1516-0.8692-0.1011-0.2605-0.2415-0.484-0.4212-0.6705-0.1797-0.1864-0.393-0.329-0.6401-0.4278-0.2471-0.0989-0.5144-0.1483-0.8019-0.1483-0.3099 0-0.5896 0.0539-0.8389 0.1617-0.2493 0.1079-0.4638 0.2561-0.6435 0.4448-0.1797 0.1886-0.3178 0.4076-0.4144 0.6569-0.0966 0.2494-0.1449 0.5155-0.1449 0.7985 0 0.3145 0.0506 0.602 0.1517 0.8625 0.101 0.2606 0.2414 0.4841 0.4211 0.6705s0.3931 0.3302 0.6401 0.4312c0.2471 0.1011 0.5144 0.1517 0.8019 0.1517 0.3099 0 0.5907-0.0551 0.8423-0.1651 0.2515-0.1101 0.466-0.2583 0.6435-0.4448 0.1774-0.1864 0.3144-0.4043 0.411-0.6536s0.1449-0.5154 0.1449-0.7985zm-0.7951 1.2331c-0.0000047 0.017974-0.00337 0.03482-0.010107 0.050537-0.00674 0.015728-0.023589 0.026959-0.050537 0.033691-0.026958 0.00674-0.065141 0.012359-0.11455 0.016846-0.049419 0.0045-0.1168 0.00674-0.20215 0.00674-0.076371 0.0000055-0.13814-0.00224-0.1853-0.00674-0.0472-0.0045-0.0854-0.0123-0.1146-0.0236-0.0292-0.0112-0.0517-0.0269-0.0674-0.0471s-0.0281-0.0483-0.0371-0.0843l-0.1415-0.4649c-0.0539-0.1662-0.1179-0.2819-0.192-0.347-0.0741-0.0652-0.1853-0.0977-0.3336-0.0977h-0.18193v0.94336c-0.0000031 0.04942-0.019095 0.083111-0.057275 0.10107-0.038187 0.017974-0.12691 0.026959-0.26616 0.026953-0.13926 0.0000055-0.23135-0.00898-0.27627-0.026953-0.044924-0.017963-0.067385-0.051654-0.067383-0.10107v-2.419c-0.0000025-0.09882 0.024704-0.17631 0.074121-0.23247 0.049411-0.056144 0.12353-0.08422 0.22236-0.084229h0.7749c0.17968 0.0000084 0.33803 0.015731 0.47505 0.047168 0.13701 0.031454 0.2538 0.080868 0.35039 0.14824 0.096578 0.067391 0.16958 0.15162 0.21899 0.25269 0.049409 0.10108 0.074116 0.22125 0.074121 0.3605 0.0001 0.2155-0.0583 0.3828-0.1751 0.5019-0.1168 0.119-0.2741 0.2033-0.4717 0.2527 0.10781 0.035944 0.20888 0.096589 0.30322 0.18193 0.094332 0.085358 0.17519 0.21339 0.24258 0.38408l0.16172 0.43125c0.031441 0.10333 0.047163 0.16846 0.047168 0.19541zm-0.8356-1.8665c0-0.0494-0.0067-0.0965-0.0202-0.1415-0.0135-0.0449-0.0393-0.0842-0.0775-0.1179s-0.0887-0.0595-0.1516-0.0775c-0.0629-0.0179-0.1415-0.0269-0.2358-0.0269h-0.30996v0.75469h0.29648c0.18867 0.000007 0.31894-0.03593 0.39082-0.10781 0.071871-0.071868 0.10781-0.1662 0.10781-0.28301z"/>
</g>
</g>
</g>
</svg>
