<?xml version="1.0" encoding="UTF-8" standalone="no"?>
<svg xmlns:rdf="http://www.w3.org/1999/02/22-rdf-syntax-ns#" xmlns="http://www.w3.org/2000/svg" version="1.1" xmlns:cc="http://creativecommons.org/ns#" xmlns:xlink="http://www.w3.org/1999/xlink" viewBox="0 0 170.92 56.708" xmlns:dc="http://purl.org/dc/elements/1.1/">
<g transform="translate(-730.76 -600.79)">
<g fill="#1a1a1a">
<path style="" d="m790.19 635.76v-14.281h5.387c0.94817 0.00002 1.6723 0.0455 2.1724 0.13638 0.70138 0.11692 1.2891 0.33935 1.7632 0.6673 0.47407 0.32797 0.85561 0.78744 1.1446 1.3784 0.28899 0.591 0.43349 1.2404 0.4335 1.9483-0.00001 1.2144-0.38643 2.2422-1.1592 3.0832-0.77283 0.84102-2.1691 1.2615-4.1888 1.2615h-3.6628v5.8059zm1.8898-7.4912h3.692c1.2209 0.00001 2.0879-0.22729 2.601-0.6819 0.51304-0.45459 0.76956-1.0943 0.76957-1.9191-0.00001-0.59747-0.151-1.1089-0.45298-1.5343-0.30199-0.42537-0.69977-0.70625-1.1933-0.84264-0.31823-0.0844-0.90596-0.12663-1.7632-0.12664h-3.6531z"/>
<path style="" d="m802.64 630.59c0-1.9158 0.53254-3.3348 1.5976-4.257 0.88972-0.76632 1.9743-1.1495 3.2537-1.1495 1.4222 0.00001 2.5847 0.46598 3.4874 1.3979 0.9027 0.93194 1.354 2.2194 1.3541 3.8625-0.00001 1.3313-0.19971 2.3786-0.5991 3.1416-0.39941 0.76308-0.98065 1.3557-1.7437 1.7778-0.76309 0.42213-1.596 0.63319-2.4987 0.63319-1.4482 0-2.6188-0.46434-3.5118-1.393-0.89297-0.92868-1.3395-2.2665-1.3395-4.0135zm1.8022 0c-0.00001 1.3248 0.28899 2.3168 0.86699 2.976 0.57799 0.65918 1.3054 0.98877 2.1821 0.98876 0.87023 0.00001 1.5944-0.3312 2.1724-0.99363 0.57798-0.66241 0.86698-1.6723 0.86699-3.0296-0.00001-1.2794-0.29063-2.2486-0.87186-2.9078-0.58125-0.65916-1.3037-0.98875-2.1675-0.98876-0.87674 0.00001-1.6041 0.32798-2.1821 0.98389-0.578 0.65594-0.867 1.6463-0.86699 2.9712z"/>
<path style="" d="m813.69 632.67 1.734-0.27276c0.0974 0.69489 0.36855 1.2274 0.81341 1.5976 0.44486 0.37018 1.0667 0.55527 1.8655 0.55526 0.80529 0.00001 1.4028-0.16398 1.7924-0.49194 0.38965-0.32796 0.58448-0.71275 0.58449-1.1544-0.00001-0.39615-0.17211-0.70787-0.5163-0.93518-0.2403-0.15586-0.83777-0.35393-1.7924-0.59423-1.2859-0.32471-2.1772-0.60559-2.674-0.84263-0.49682-0.23704-0.87349-0.565-1.13-0.98389-0.25653-0.41888-0.38479-0.8816-0.38479-1.3882 0-0.46109 0.10553-0.88809 0.3166-1.281 0.21106-0.3929 0.49844-0.71923 0.86212-0.97902 0.27276-0.20131 0.64456-0.37179 1.1154-0.51142 0.47083-0.13962 0.97577-0.20944 1.5148-0.20945 0.81178 0.00001 1.5245 0.11691 2.1382 0.3507 0.61371 0.2338 1.0667 0.5504 1.3589 0.94979 0.29224 0.39941 0.49356 0.93357 0.60397 1.6025l-1.7145 0.2338c-0.0779-0.53253-0.30362-0.94816-0.67703-1.2469-0.37343-0.29873-0.90109-0.4481-1.583-0.44811-0.8053 0.00001-1.38 0.13315-1.7242 0.3994-0.3442 0.26628-0.5163 0.57801-0.5163 0.93518 0 0.22731 0.0714 0.43188 0.21431 0.61372 0.14287 0.18834 0.36693 0.3442 0.67216 0.46759 0.17535 0.065 0.69164 0.21432 1.5489 0.44811 1.2404 0.33121 2.1058 0.60235 2.5961 0.81341 0.49031 0.21107 0.8751 0.51793 1.1544 0.92057 0.27924 0.40265 0.41887 0.90271 0.41888 1.5002-0.00001 0.58449-0.17048 1.1349-0.51143 1.6512-0.34096 0.5163-0.8329 0.9157-1.4758 1.1982-0.64295 0.2825-1.3703 0.42375-2.1821 0.42375-1.3443 0-2.3688-0.27925-3.0734-0.83776-0.70463-0.55851-1.1544-1.3865-1.3492-2.4841z"/>
<path style="" d="m828.2 634.19 0.25328 1.5489c-0.49357 0.10391-0.93518 0.15587-1.3248 0.15587-0.63645 0-1.13-0.10066-1.4807-0.30199-0.3507-0.20132-0.59748-0.46596-0.74036-0.79393-0.14287-0.32796-0.21431-1.018-0.21431-2.0701v-5.952h-1.2859v-1.3638h1.2859v-2.562l1.7437-1.0521v3.6141h1.7632v1.3638h-1.7632v6.0494c-0.00001 0.50007 0.0308 0.82154 0.0925 0.96441 0.0617 0.14288 0.16235 0.25653 0.30199 0.34095 0.13962 0.0844 0.33932 0.12664 0.5991 0.12664 0.19482 0 0.45135-0.0227 0.76957-0.0682z"/>
<path style="" d="m829.58 636.62 1.7048 0.25328c0.0714 0.52603 0.26952 0.9092 0.59423 1.1495 0.43512 0.32471 1.0294 0.48707 1.7827 0.48707 0.81179 0 1.4385-0.16236 1.8801-0.48707 0.44161-0.32472 0.74034-0.77932 0.89622-1.3638 0.0909-0.35719 0.13312-1.1073 0.12663-2.2503-0.76633 0.90271-1.721 1.3541-2.864 1.3541-1.4223 0-2.523-0.51305-3.3024-1.5392-0.77932-1.0261-1.169-2.2568-1.169-3.692 0-0.98713 0.1786-1.898 0.53578-2.7325 0.35719-0.83451 0.87511-1.4791 1.5538-1.9337 0.67865-0.45459 1.4758-0.6819 2.3915-0.68191 1.2209 0.00001 2.2276 0.49358 3.0199 1.4807v-1.2469h1.6171v8.9427c-0.00001 1.6106-0.16399 2.752-0.49194 3.4241-0.32797 0.67216-0.84752 1.2031-1.5586 1.5927-0.71113 0.38966-1.5862 0.58449-2.6253 0.58449-1.2339 0-2.2308-0.27763-2.9906-0.83289-0.75983-0.55527-1.1268-1.3914-1.1008-2.5084zm1.4515-6.2151c-0.00001 1.3573 0.26951 2.3477 0.80854 2.9712 0.53902 0.62345 1.2144 0.93518 2.0262 0.93518 0.80528 0 1.4807-0.3101 2.0262-0.93031 0.54552-0.62021 0.81828-1.5927 0.81829-2.9176-0.00001-1.2664-0.28089-2.221-0.84264-2.864-0.56177-0.64293-1.2388-0.9644-2.0311-0.96441-0.77932 0.00001-1.4417 0.31661-1.9873 0.9498-0.54553 0.6332-0.81829 1.5732-0.81828 2.8202z"/>
<path style="" d="m840.99 635.76v-10.345h1.5781v1.5684c0.40265-0.73385 0.77445-1.2177 1.1154-1.4515 0.34095-0.23379 0.716-0.35069 1.1251-0.3507 0.59098 0.00001 1.1917 0.18835 1.8022 0.56501l-0.60398 1.6268c-0.42863-0.25327-0.85725-0.37991-1.2859-0.37992-0.38317 0.00001-0.72737 0.11528-1.0326 0.34582-0.30523 0.23056-0.52279 0.5504-0.65268 0.95954-0.19483 0.62346-0.29224 1.3054-0.29224 2.0457v5.4163z"/>
<path style="" d="m854.75 632.43 1.8119 0.22406c-0.28576 1.0586-0.81504 1.8801-1.5879 2.4646-0.77283 0.58449-1.76 0.87673-2.9614 0.87673-1.5132 0-2.713-0.46596-3.5995-1.3979-0.88648-0.93193-1.3297-2.2389-1.3297-3.9209 0-1.7405 0.4481-3.0913 1.3443-4.0525 0.89621-0.96115 2.0587-1.4417 3.4874-1.4417 1.3833 0.00001 2.5133 0.47085 3.39 1.4125 0.87673 0.94168 1.3151 2.2665 1.3151 3.9745-0.00001 0.10391-0.003 0.25978-0.01 0.46759h-7.7152c0.0649 1.1365 0.38641 2.0068 0.96441 2.6107 0.57799 0.60397 1.2989 0.90596 2.1626 0.90595 0.64293 0.00001 1.1917-0.16885 1.6463-0.50655 0.45459-0.33771 0.81502-0.87673 1.0813-1.6171zm-5.7572-2.8348h5.7767c-0.0779-0.87023-0.29874-1.5229-0.66242-1.958-0.55852-0.6754-1.2826-1.0131-2.1724-1.0131-0.8053 0.00001-1.4823 0.26953-2.0311 0.80855-0.54878 0.53903-0.85239 1.2599-0.91083 2.1626z"/>
<path style="" d="m858.36 631.17 1.7827-0.15586c0.0844 0.71438 0.28088 1.3005 0.58936 1.7583 0.30847 0.45786 0.78743 0.82803 1.4369 1.1105 0.64942 0.28251 1.38 0.42376 2.1918 0.42376 0.72086 0 1.3573-0.10716 1.9093-0.32147s0.96277-0.50818 1.2323-0.88161c0.26951-0.37342 0.40426-0.78093 0.40428-1.2226-0.00002-0.4481-0.1299-0.83939-0.38966-1.1738-0.25979-0.33445-0.68841-0.61533-1.2859-0.84264-0.38317-0.14936-1.2307-0.38153-2.5425-0.69651-1.3119-0.31497-2.2308-0.61208-2.7568-0.89135-0.68191-0.35718-1.1901-0.80041-1.5245-1.3297-0.33446-0.52928-0.50169-1.1219-0.50169-1.7778 0-0.72086 0.20457-1.3946 0.61371-2.0214 0.40914-0.62669 1.0066-1.1024 1.7924-1.4271s1.6593-0.48706 2.6204-0.48707c1.0586 0.00001 1.9921 0.17049 2.8007 0.51142 0.80853 0.34097 1.4304 0.84265 1.8655 1.5051 0.43511 0.66243 0.6689 1.4125 0.70139 2.2503l-1.8119 0.13638c-0.0974-0.9027-0.42701-1.5846-0.98876-2.0457-0.56177-0.46108-1.3914-0.69163-2.489-0.69164-1.143 0.00001-1.9759 0.20945-2.4987 0.62832-0.5228 0.4189-0.7842 0.92383-0.78419 1.5148-0.00001 0.51306 0.18508 0.9352 0.55526 1.2664 0.36368 0.33121 1.3135 0.67054 2.8494 1.018 1.5359 0.34745 2.5896 0.65106 3.1611 0.91083 0.83126 0.38317 1.445 0.86862 1.8411 1.4564 0.39614 0.58774 0.59422 1.2648 0.59423 2.0311-0.00001 0.75983-0.21757 1.4758-0.65268 2.148-0.43513 0.67216-1.0602 1.195-1.8752 1.5684-0.81505 0.37342-1.7324 0.56013-2.752 0.56013-1.2924 0-2.3753-0.18833-3.2488-0.565-0.87349-0.37667-1.5586-0.9433-2.0554-1.6999-0.49682-0.75658-0.75821-1.6122-0.78419-2.5669z"/>
<path style="" d="m883.15 634.23c0.87672 0.60397 1.6853 1.0456 2.4256 1.3248l-0.55527 1.3151c-1.0261-0.37018-2.049-0.95467-3.0686-1.7535-1.0586 0.59098-2.2276 0.88647-3.5069 0.88647-1.2924 0-2.4646-0.31172-3.5167-0.93518-1.0521-0.62345-1.8622-1.5002-2.4305-2.6302-0.56825-1.13-0.85238-2.4029-0.85237-3.8186-0.00001-1.4093 0.28574-2.6919 0.85724-3.8479s1.3849-2.036 2.4402-2.6399c1.0553-0.60395 2.2357-0.90594 3.541-0.90595 1.3183 0.00001 2.5068 0.31336 3.5654 0.94005 1.0586 0.62671 1.8655 1.5034 2.4208 2.6302 0.55525 1.1268 0.83288 2.398 0.83289 3.8138-0.00001 1.1755-0.1786 2.2324-0.53578 3.1708-0.3572 0.93844-0.89623 1.7551-1.6171 2.45zm-4.1596-2.4159c1.091 0.30524 1.9905 0.75984 2.6984 1.3638 1.1105-1.0131 1.6658-2.536 1.6658-4.5688-0.00001-1.156-0.19647-2.1658-0.58936-3.0296-0.39292-0.86373-0.96766-1.5343-1.7242-2.0116-0.7566-0.47732-1.6057-0.71599-2.5474-0.716-1.4093 0.00001-2.5782 0.48222-3.5069 1.4466-0.92869 0.96442-1.393 2.4045-1.393 4.3204 0 1.8574 0.45947 3.2829 1.3784 4.2765 0.91894 0.99364 2.0928 1.4904 3.5215 1.4904 0.6754 0 1.3118-0.12664 1.9093-0.37992-0.59099-0.38316-1.2144-0.65592-1.8704-0.81828z"/>
<path style="" d="m887.76 635.76v-14.281h1.8898v12.596h7.0334v1.6853z"/>
</g>
<g stroke-linejoin="round" transform="matrix(.10493 0 0 .10493 735.76 605.79)" stroke="#fff" stroke-linecap="round" stroke-width="12.465" fill="none">
<path stroke-linejoin="miter" d="m323.2 324.23c2.833-23.601 1.984-27.062 19.563-23.239l4.463 0.392c13.517 0.615 31.199-2.174 41.587-7 22.362-10.376 35.622-27.7 13.572-23.148-50.297 10.376-53.755-6.655-53.755-6.655 53.13-78.81 75.33-178.84 56.16-203.32-52.27-66.794-142.74-35.211-144.26-34.391l-0.482 0.089c-9.938-2.062-21.06-3.294-33.554-3.496-22.761-0.374-40.032 5.967-53.133 15.904 0 0-161.41-66.498-153.9 83.628 1.597 31.936 45.777 241.66 98.47 178.31 19.259-23.163 37.871-42.748 37.871-42.748 9.242 6.14 20.307 9.272 31.912 8.147l0.897-0.765c-0.281 2.876-0.157 5.689 0.359 9.019-13.572 15.167-9.584 17.83-36.723 23.416-27.457 5.659-11.326 15.734-0.797 18.367 12.768 3.193 42.305 7.716 62.268-20.224l-0.795 3.188c5.325 4.26 4.965 30.619 5.72 49.452 0.756 18.834 2.017 36.409 5.856 46.771 3.839 10.36 8.369 37.05 44.036 29.406 29.809-6.388 52.6-15.582 54.677-101.11" stroke="#000" stroke-linecap="butt" stroke-width="37.395" fill="#000"/>
<path fill="#666" d="m402.4 271.23c-50.302 10.376-53.76-6.655-53.76-6.655 53.111-78.808 75.313-178.84 56.153-203.33-52.27-66.785-142.75-35.2-144.26-34.38l-0.486 0.087c-9.938-2.063-21.06-3.292-33.56-3.496-22.761-0.373-40.026 5.967-53.127 15.902 0 0-161.41-66.495-153.9 83.63 1.597 31.938 45.776 241.66 98.471 178.31 19.26-23.163 37.869-42.748 37.869-42.748 9.243 6.14 20.308 9.272 31.908 8.147l0.901-0.765c-0.28 2.876-0.152 5.689 0.361 9.019-13.575 15.167-9.586 17.83-36.723 23.416-27.459 5.659-11.328 15.734-0.796 18.367 12.768 3.193 42.307 7.716 62.266-20.224l-0.796 3.188c5.319 4.26 9.054 27.711 8.428 48.969-0.626 21.259-1.044 35.854 3.147 47.254s8.368 37.05 44.042 29.406c29.809-6.388 45.256-22.942 47.405-50.555 1.525-19.631 4.976-16.729 5.194-34.28l2.768-8.309c3.192-26.611 0.507-35.196 18.872-31.203l4.463 0.392c13.517 0.615 31.208-2.174 41.591-7 22.358-10.376 35.618-27.7 13.573-23.148z"/>
<path d="m215.87 286.48c-1.385 49.516 0.348 99.377 5.193 111.5 4.848 12.118 15.223 35.688 50.9 28.045 29.806-6.39 40.651-18.756 45.357-46.051 3.466-20.082 10.148-75.854 11.005-87.281"/>
<path d="m173.1 38.256s-161.52-66.016-154.01 84.109c1.597 31.938 45.779 241.66 98.473 178.32 19.256-23.166 36.671-41.335 36.671-41.335"/>
<path d="m260.35 26.207c-5.591 1.753 89.848-34.889 144.09 34.417 19.159 24.484-3.043 124.52-56.153 203.33"/>
<path stroke-linejoin="bevel" d="m348.28 263.95s3.461 17.036 53.764 6.653c22.04-4.552 8.776 12.774-13.577 23.155-18.345 8.514-59.474 10.696-60.146-1.069-1.729-30.355 21.647-21.133 19.96-28.739-1.525-6.85-11.979-13.573-18.894-30.338-6.037-14.633-82.796-126.85 21.287-110.18 3.813-0.789-27.146-99.002-124.55-100.6-97.385-1.597-94.19 119.76-94.19 119.76"/>
<path d="m188.6 274.33c-13.577 15.166-9.584 17.829-36.723 23.417-27.459 5.66-11.326 15.733-0.797 18.365 12.768 3.195 42.307 7.718 62.266-20.229 6.078-8.509-0.036-22.086-8.385-25.547-4.034-1.671-9.428-3.765-16.361 3.994z"/>
<path d="m187.72 274.07c-1.368-8.917 2.93-19.528 7.536-31.942 6.922-18.626 22.893-37.255 10.117-96.339-9.523-44.029-73.396-9.163-73.436-3.193-0.039 5.968 2.889 30.26-1.067 58.548-5.162 36.913 23.488 68.132 56.479 64.938"/>
<path stroke-linejoin="miter" d="m172.52 141.7c-0.288 2.039 3.733 7.48 8.976 8.207 5.234 0.73 9.714-3.522 9.998-5.559 0.284-2.039-3.732-4.285-8.977-5.015-5.237-0.731-9.719 0.333-9.996 2.367z" stroke-linecap="butt" stroke-width="4.155" fill="#fff"/>
<path stroke-linejoin="miter" d="m331.94 137.54c0.284 2.039-3.732 7.48-8.976 8.207-5.238 0.73-9.718-3.522-10.005-5.559-0.277-2.039 3.74-4.285 8.979-5.015s9.718 0.333 10.002 2.368z" stroke-linecap="butt" stroke-width="2.0775" fill="#fff"/>
<path d="m350.68 123.43c0.863 15.994-3.445 26.888-3.988 43.914-0.804 24.748 11.799 53.074-7.191 81.435"/>
<path stroke-width="3" d="m0 60.232"/>
</g>
</g>
</svg>
