<?xml version="1.0" encoding="UTF-8" standalone="no"?>
<svg xmlns:rdf="http://www.w3.org/1999/02/22-rdf-syntax-ns#" xmlns="http://www.w3.org/2000/svg" version="1.1" xmlns:cc="http://creativecommons.org/ns#" xmlns:dc="http://purl.org/dc/elements/1.1/" viewBox="0 0 82.298 67.587">
<g transform="translate(-390.28 -487.13)">
<g stroke="#808080" transform="translate(1033.6 1867.5)">
<path style="block-progression:tb;text-indent:0;color:#000000;text-transform:none" d="m-611.37-1375c-0.19363 0-0.39464 0.048-0.57776 0.1501-0.58154 0.3223-0.79482 1.0696-0.47271 1.6506l1.3131 2.3711c-3.1636 1.9576-5.2599 5.3009-5.2599 9.1168 0 0.016-0.00004 0.041 0 0.064 0.00002 0.013-0.00007 0.013 0 0.022v0.034 0.589c-0.60758-0.699-1.5007-1.1405-2.4986-1.1405-1.8282 0-3.3128 1.4845-3.3128 3.3127v10.205c0 1.8282 1.4845 3.3127 3.3128 3.3127 0.9979 0 1.891-0.4413 2.4986-1.1404v1.4293c0 1.9272 1.5769 3.5042 3.5041 3.5042h0.88916v4.5395c0 1.8283 1.4845 3.3127 3.3127 3.3127s3.3128-1.4844 3.3128-3.3127v-4.5395h1.5382v4.5395c0 1.8283 1.4845 3.3127 3.3127 3.3127s3.3128-1.4844 3.3128-3.3127v-4.5395h0.88916c1.9271 0 3.5041-1.577 3.5041-3.5042v-1.4293c0.60759 0.6991 1.5007 1.1404 2.4986 1.1404 1.8282 0 3.3128-1.4845 3.3128-3.3127v-10.205c0-1.8282-1.4846-3.3127-3.3128-3.3127-0.9979 0-1.891 0.4415-2.4986 1.1405v-0.5778-0.013c0.00008-0.018 0.00001-0.037 0-0.034 0.00023-0.037 0-0.064 0-0.086 0-3.8153-2.101-7.1554-5.2636-9.1129l1.3168-2.3749c0.3221-0.581 0.10884-1.3284-0.47271-1.6507-0.18312-0.1019-0.38412-0.1482-0.57777-0.15-0.42944-0.013-0.85093 0.2221-1.073 0.6227l-1.3769 2.4874c-1.3463-0.4968-2.8112-0.7691-4.3407-0.7691-1.528 0-2.9955 0.2694-4.3407 0.7654l-1.3769-2.4837c-0.22203-0.4006-0.64354-0.6269-1.073-0.6227z" stroke-width=".85285" fill="#808080"/>
<path d="m-618.86-1361.2c-1.3643 0-2.4499 1.0856-2.4499 2.4498v10.205c0 1.3644 1.0856 2.4499 2.4499 2.4499s2.4498-1.0855 2.4498-2.4499v-10.205c0-1.3642-1.0856-2.4498-2.4498-2.4498zm28.573 0c-1.3643 0-2.4499 1.0856-2.4499 2.4498v10.205c0 1.3644 1.0856 2.4499 2.4499 2.4499s2.4499-1.0855 2.4499-2.4499v-10.205c0-1.3642-1.0856-2.4498-2.4499-2.4498z" stroke-width=".11845" fill="#fff"/>
<path d="m-608.66-1349.6c-1.3643 0-2.4498 1.0857-2.4498 2.4499v10.205c0 1.3642 1.0856 2.4499 2.4498 2.4499 1.3643 0 2.4499-1.0857 2.4499-2.4499v-10.205c0-1.3642-1.0856-2.4499-2.4499-2.4499zm8.1637 0c-1.3643 0-2.4499 1.0857-2.4499 2.4499v10.205c0 1.3642 1.0856 2.4499 2.4499 2.4499s2.4499-1.0857 2.4499-2.4499v-10.205c0-1.3642-1.0856-2.4499-2.4499-2.4499z" stroke-width=".11845" fill="#fff"/>
<path d="m-611.36-1374.1c-0.0579 0-0.11184 0.016-0.16507 0.046-0.17469 0.097-0.23214 0.2976-0.13505 0.4727l1.7258 3.1177c-3.3203 1.7276-5.563 5.0109-5.5675 8.779h21.85c-0.005-3.7681-2.2472-7.0514-5.5675-8.779l1.7258-3.1177c0.0971-0.1751 0.0396-0.3759-0.13506-0.4727-0.0532-0.029-0.10714-0.044-0.16508-0.046-0.12399 0-0.24148 0.06-0.30764 0.1801l-1.7483 3.1514c-1.4302-0.6345-3.0343-0.9905-4.7272-0.9905-1.6928 0-3.297 0.356-4.7272 0.9905l-1.7483-3.1514c-0.0661-0.1189-0.18367-0.1813-0.30764-0.1801zm-4.1419 13.277v15.836c0 1.4632 1.178 2.6412 2.6412 2.6412h16.568c1.4632 0 2.6412-1.178 2.6412-2.6412v-15.836h-21.85z" stroke-width=".11845" fill="#fff"/>
<path style="block-progression:tb;text-indent:0;color:#000000;text-transform:none" d="m-609.62-1367.5c-0.4988 0-0.91166 0.4129-0.91166 0.9118 0 0.4987 0.41286 0.9116 0.91166 0.9116 0.49879 0 0.91167-0.4129 0.91167-0.9116 0-0.4989-0.41288-0.9118-0.91167-0.9118zm10.085 0c-0.49879 0-0.91166 0.4129-0.91166 0.9118 0 0.4987 0.41287 0.9116 0.91166 0.9116 0.4988 0 0.91167-0.4129 0.91167-0.9116 0-0.4989-0.41287-0.9118-0.91167-0.9118z" stroke-width=".85285" fill="#808080"/>
</g>
<g fill="none" transform="translate(143.85 166.86)">
<g transform="matrix(.13555 0 0 .13555 246.4 301.32)" stroke="#666" stroke-linecap="square" stroke-width="15" fill="#fff">
<path d="m72.5 587.5c-16.569 0-30-13.431-30-30 0-16.568 13.431-30 30-30h30v60"/>
<path d="m132.5 587.5v-30c0-16.568 13.431-30 30-30s30 13.432 30 30v30"/>
<path d="m222.5 587.5h30c16.569 0 30-13.431 30-30 0-16.568-13.431-30-30-30h-30"/>
<path d="m312.5 565h41.25c10.355 0 18.75-8.392 18.75-18.75 0-10.355-8.395-18.75-18.75-18.75h-41.25m60 60c0-12.42-10.07-22.5-22.5-22.5"/>
<path d="m432.5 527.5c16.569 0 30 13.432 30 30 0 16.569-13.431 30-30 30-16.568 0-30-13.431-30-30 0-16.568 13.432-30 30-30z"/>
<path d="m492.5 587.5v-60"/>
<path d="m522.5 587.5h30c16.569 0 30-13.431 30-30 0-16.568-13.431-30-30-30h-30"/>
</g>
</g>
</g>
</svg>
