<?xml version="1.0" encoding="UTF-8" standalone="no"?>
<svg xmlns:rdf="http://www.w3.org/1999/02/22-rdf-syntax-ns#" xmlns="http://www.w3.org/2000/svg" version="1.1" xmlns:cc="http://creativecommons.org/ns#" xmlns:xlink="http://www.w3.org/1999/xlink" viewBox="0 0 64.869 68.448" xmlns:dc="http://purl.org/dc/elements/1.1/">
<defs>
<linearGradient id="f" y2="574.3" xlink:href="#c" gradientUnits="userSpaceOnUse" x2="331.35" y1="452.03" x1="331.35"/>
<linearGradient id="c">
<stop stop-color="#fff" offset="0"/>
<stop stop-color="#838383" offset="1"/>
</linearGradient>
<filter id="g" color-interpolation-filters="sRGB">
<feGaussianBlur stdDeviation="0.40603442"/>
</filter>
<linearGradient id="e" y2="567.32" xlink:href="#b" gradientUnits="userSpaceOnUse" x2="346.11" y1="520.73" x1="346.11"/>
<linearGradient id="b">
<stop stop-color="#fff" stop-opacity="0" offset="0"/>
<stop stop-opacity=".53846" offset="1"/>
</linearGradient>
<filter id="j" color-interpolation-filters="sRGB" width="1.0118" y="-.21105" x="-.0059035" height="1.4221">
<feGaussianBlur stdDeviation="0.13315193"/>
</filter>
<filter id="i" color-interpolation-filters="sRGB" width="1.0137" y="-.42210" x="-.0068634" height="1.8442">
<feGaussianBlur stdDeviation="0.13315193"/>
</filter>
<filter id="h" color-interpolation-filters="sRGB">
<feGaussianBlur stdDeviation="0.13315193"/>
</filter>
<radialGradient id="a" xlink:href="#d" gradientUnits="userSpaceOnUse" cy="494.1" cx="363.85" gradientTransform="matrix(4.397 -.78136 .27345 1.5388 -1379.4 111.9)" r="88.392"/>
<linearGradient id="d">
<stop stop-color="#fff" offset="0"/>
<stop offset=".5"/>
<stop stop-color="#fff" offset=".51028"/>
<stop offset="1"/>
</linearGradient>
</defs>
<g transform="translate(-317.57 -498.14)">
<g transform="matrix(.30459 0 0 .30459 323.37 503.61)">
<g transform="translate(-250.39 -470.22)">
<g transform="matrix(1 0 0 1.0396 -2.3785 -20.684)" filter="url(#g)" fill="url(#f)">
<rect height="66.382" width="15.257" y="498.42" x="253.22"/>
<path d="m322.41 472.12c-22.692 0-41.094 16.918-41.094 47.5s18.401 47.5 41.094 47.5c22.692 0 40.774-20.418 40.774-47.458 0-30.072-18.082-47.542-40.774-47.542zm0.0937 13.25c13.139 0 24.283 18.154 24.031 36.281-0.2517 18.127-10.893 32.219-24.031 32.219-13.139 0-24.656-12.206-24.656-34.25s11.518-34.25 24.656-34.25z"/>
<path d="m271.31 480.71c0 5.463-4.8666 9.8916-10.87 9.8916-6.0033 0-10.87-4.4286-10.87-9.8916s4.8666-9.8916 10.87-9.8916c6.0033 0 10.87 4.4286 10.87 9.8916z" transform="matrix(.91 0 0 .93407 23.983 31.913)"/>
<path d="m373.93 546.26s9.5655 6.0872 22.175 5.8698c12.609-0.2174 15-7.6089 14.783-13.913-0.2174-6.3046-8.8974-11.452-20.218-15-14.566-4.5654-20.435-20.001-18.696-31.088 1.7392-11.087 16.087-20.001 32.175-19.348 16.087 0.65219 19.783 4.7828 19.783 4.7828l-3.6958 13.696s-8.2611-5.8698-15-5.6524c-6.7393 0.2174-16.522 3.6958-17.174 9.5655-0.6522 5.8698 4.7828 11.74 12.174 15.218 7.3915 3.4784 28.697 11.305 27.61 29.566s-16.087 22.827-23.044 25.001c-6.9568 2.174-19.131 0.21739-24.566-1.3044s-10.87-3.261-10.87-3.261z"/>
</g>
</g>
<g transform="translate(-250.39 -470.22)">
<g opacity=".54673" transform="matrix(1 0 0 -1 0 1132.7)" fill="url(#e)">
<rect height="66.382" width="15.257" y="499.93" x="253.22"/>
<path d="m322.41 472.12c-22.692 0-41.094 16.918-41.094 47.5s18.401 47.5 41.094 47.5c22.692 0 40.774-20.418 40.774-47.458 0-30.072-18.082-47.542-40.774-47.542zm0.0937 13.25c13.139 0 24.283 18.154 24.031 36.281-0.2517 18.127-10.893 32.219-24.031 32.219-13.139 0-24.656-12.206-24.656-34.25s11.518-34.25 24.656-34.25z"/>
<path d="m373.93 546.26s9.5655 6.0872 22.175 5.8698c12.609-0.2174 15-7.6089 14.783-13.913-0.2174-6.3046-8.8974-11.452-20.218-15-14.566-4.5654-20.435-20.001-18.696-31.088 1.7392-11.087 16.087-20.001 32.175-19.348 16.087 0.65219 19.783 4.7828 19.783 4.7828l-3.6958 13.696s-8.2611-5.8698-15-5.6524c-6.7393 0.2174-16.522 3.6958-17.174 9.5655-0.6522 5.8698 4.7828 11.74 12.174 15.218 7.3915 3.4784 28.697 11.305 27.61 29.566s-16.087 22.827-23.044 25.001c-6.9568 2.174-19.131 0.21739-24.566-1.3044s-10.87-3.261-10.87-3.261z"/>
</g>
</g>
<g transform="translate(-250.39 -470.22)" stroke="#000" stroke-width=".5" fill="none">
<path opacity=".55607" d="m372.11 567.45 54.131-1.5142" filter="url(#j)"/>
<path opacity=".55607" d="m299.43 567.07 46.561-0.75708" filter="url(#i)"/>
<path opacity=".55607" d="m250.97 565.18h19.306" filter="url(#h)"/>
</g>
<g transform="translate(-250.39 -470.22)">
<g fill="url(#a)">
<rect height="66.382" width="15.257" y="498.42" x="253.22"/>
<path d="m322.41 472.12c-22.692 0-41.094 16.918-41.094 47.5s18.401 47.5 41.094 47.5c22.692 0 40.774-20.418 40.774-47.458 0-30.072-18.082-47.542-40.774-47.542zm0.0937 13.25c13.139 0 24.283 18.154 24.031 36.281-0.2517 18.127-10.893 32.219-24.031 32.219-13.139 0-24.656-12.206-24.656-34.25s11.518-34.25 24.656-34.25z"/>
<path d="m271.31 480.71c0 5.463-4.8666 9.8916-10.87 9.8916-6.0033 0-10.87-4.4286-10.87-9.8916s4.8666-9.8916 10.87-9.8916c6.0033 0 10.87 4.4286 10.87 9.8916z" transform="matrix(.91 0 0 .93407 23.983 31.913)"/>
<path d="m373.93 546.26s9.5655 6.0872 22.175 5.8698c12.609-0.2174 15-7.6089 14.783-13.913-0.2174-6.3046-8.8974-11.452-20.218-15-14.566-4.5654-20.435-20.001-18.696-31.088 1.7392-11.087 16.087-20.001 32.175-19.348 16.087 0.65219 19.783 4.7828 19.783 4.7828l-3.6958 13.696s-8.2611-5.8698-15-5.6524c-6.7393 0.2174-16.522 3.6958-17.174 9.5655-0.6522 5.8698 4.7828 11.74 12.174 15.218 7.3915 3.4784 28.697 11.305 27.61 29.566s-16.087 22.827-23.044 25.001c-6.9568 2.174-19.131 0.21739-24.566-1.3044s-10.87-3.261-10.87-3.261z"/>
</g>
</g>
</g>
</g>
</svg>
