<?xml version="1.0" encoding="UTF-8" standalone="no"?>
<!-- Created with Inkscape (http://www.inkscape.org/) -->

<svg
   xmlns:dc="http://purl.org/dc/elements/1.1/"
   xmlns:cc="http://creativecommons.org/ns#"
   xmlns:rdf="http://www.w3.org/1999/02/22-rdf-syntax-ns#"
   xmlns:svg="http://www.w3.org/2000/svg"
   xmlns="http://www.w3.org/2000/svg"
   xmlns:xlink="http://www.w3.org/1999/xlink"
   xmlns:sodipodi="http://sodipodi.sourceforge.net/DTD/sodipodi-0.dtd"
   xmlns:inkscape="http://www.inkscape.org/namespaces/inkscape"
   width="170.92491"
   height="56.707954"
   id="svg6718"
   version="1.1"
   inkscape:version="0.48.4 r9939"
   sodipodi:docname="crossbar_arch_postgresql.svg">
  <defs
     id="defs6720">
    <filter
       id="filter5034-4"
       inkscape:label="Desaturate"
       x="0"
       y="0"
       width="1"
       height="1"
       inkscape:menu="Color"
       inkscape:menu-tooltip="Render in shades of gray by reducing saturation to zero"
       color-interpolation-filters="sRGB">
      <feColorMatrix
         id="feColorMatrix5036-8"
         type="saturate"
         values="0" />
    </filter>
    <filter
       id="filter6583"
       inkscape:label="Desaturate"
       x="0"
       y="0"
       width="1"
       height="1"
       inkscape:menu="Color"
       inkscape:menu-tooltip="Render in shades of gray by reducing saturation to zero"
       color-interpolation-filters="sRGB">
      <feColorMatrix
         id="feColorMatrix6585"
         type="saturate"
         values="0" />
    </filter>
    <filter
       id="filter6587"
       inkscape:label="Desaturate"
       x="0"
       y="0"
       width="1"
       height="1"
       inkscape:menu="Color"
       inkscape:menu-tooltip="Render in shades of gray by reducing saturation to zero"
       color-interpolation-filters="sRGB">
      <feColorMatrix
         id="feColorMatrix6589"
         type="saturate"
         values="0" />
    </filter>
    <filter
       id="filter6591"
       inkscape:label="Desaturate"
       x="0"
       y="0"
       width="1"
       height="1"
       inkscape:menu="Color"
       inkscape:menu-tooltip="Render in shades of gray by reducing saturation to zero"
       color-interpolation-filters="sRGB">
      <feColorMatrix
         id="feColorMatrix6593"
         type="saturate"
         values="0" />
    </filter>
    <filter
       id="filter6595"
       inkscape:label="Desaturate"
       x="0"
       y="0"
       width="1"
       height="1"
       inkscape:menu="Color"
       inkscape:menu-tooltip="Render in shades of gray by reducing saturation to zero"
       color-interpolation-filters="sRGB">
      <feColorMatrix
         id="feColorMatrix6597"
         type="saturate"
         values="0" />
    </filter>
    <filter
       id="filter6599"
       inkscape:label="Desaturate"
       x="0"
       y="0"
       width="1"
       height="1"
       inkscape:menu="Color"
       inkscape:menu-tooltip="Render in shades of gray by reducing saturation to zero"
       color-interpolation-filters="sRGB">
      <feColorMatrix
         id="feColorMatrix6601"
         type="saturate"
         values="0" />
    </filter>
    <filter
       id="filter6603"
       inkscape:label="Desaturate"
       x="0"
       y="0"
       width="1"
       height="1"
       inkscape:menu="Color"
       inkscape:menu-tooltip="Render in shades of gray by reducing saturation to zero"
       color-interpolation-filters="sRGB">
      <feColorMatrix
         id="feColorMatrix6605"
         type="saturate"
         values="0" />
    </filter>
    <filter
       id="filter4592"
       inkscape:label="Desaturate"
       x="0"
       y="0"
       width="1"
       height="1"
       inkscape:menu="Color"
       inkscape:menu-tooltip="Render in shades of gray by reducing saturation to zero"
       color-interpolation-filters="sRGB">
      <feColorMatrix
         id="feColorMatrix4594"
         type="saturate"
         values="0" />
    </filter>
    <linearGradient
       inkscape:collect="always"
       xlink:href="#linearGradient6056"
       id="linearGradient3539"
       gradientUnits="userSpaceOnUse"
       x1="331.34576"
       y1="452.02783"
       x2="331.34576"
       y2="574.2973" />
    <linearGradient
       id="linearGradient6056">
      <stop
         style="stop-color:#ffffff;stop-opacity:1;"
         offset="0"
         id="stop6062" />
      <stop
         style="stop-color:#838383;stop-opacity:1;"
         offset="1"
         id="stop6064" />
    </linearGradient>
    <filter
       id="filter6207"
       inkscape:collect="always"
       color-interpolation-filters="sRGB">
      <feGaussianBlur
         id="feGaussianBlur6209"
         stdDeviation="0.40603442"
         inkscape:collect="always" />
    </filter>
    <linearGradient
       inkscape:collect="always"
       xlink:href="#linearGradient6056"
       id="linearGradient3531"
       gradientUnits="userSpaceOnUse"
       x1="331.34576"
       y1="452.02783"
       x2="331.34576"
       y2="574.2973" />
    <linearGradient
       id="linearGradient6858">
      <stop
         style="stop-color:#ffffff;stop-opacity:1;"
         offset="0"
         id="stop6860" />
      <stop
         style="stop-color:#838383;stop-opacity:1;"
         offset="1"
         id="stop6862" />
    </linearGradient>
    <linearGradient
       inkscape:collect="always"
       xlink:href="#linearGradient6056"
       id="linearGradient3533"
       gradientUnits="userSpaceOnUse"
       x1="331.34576"
       y1="452.02783"
       x2="331.34576"
       y2="574.2973" />
    <linearGradient
       id="linearGradient6865">
      <stop
         style="stop-color:#ffffff;stop-opacity:1;"
         offset="0"
         id="stop6867" />
      <stop
         style="stop-color:#838383;stop-opacity:1;"
         offset="1"
         id="stop6869" />
    </linearGradient>
    <linearGradient
       inkscape:collect="always"
       xlink:href="#linearGradient6056"
       id="linearGradient3535"
       gradientUnits="userSpaceOnUse"
       x1="331.34576"
       y1="452.02783"
       x2="331.34576"
       y2="574.2973" />
    <linearGradient
       id="linearGradient6872">
      <stop
         style="stop-color:#ffffff;stop-opacity:1;"
         offset="0"
         id="stop6874" />
      <stop
         style="stop-color:#838383;stop-opacity:1;"
         offset="1"
         id="stop6876" />
    </linearGradient>
    <linearGradient
       inkscape:collect="always"
       xlink:href="#linearGradient6056"
       id="linearGradient3537"
       gradientUnits="userSpaceOnUse"
       x1="331.34576"
       y1="452.02783"
       x2="331.34576"
       y2="574.2973" />
    <linearGradient
       id="linearGradient6879">
      <stop
         style="stop-color:#ffffff;stop-opacity:1;"
         offset="0"
         id="stop6881" />
      <stop
         style="stop-color:#838383;stop-opacity:1;"
         offset="1"
         id="stop6883" />
    </linearGradient>
    <linearGradient
       inkscape:collect="always"
       xlink:href="#linearGradient6114"
       id="linearGradient3547"
       gradientUnits="userSpaceOnUse"
       x1="346.11499"
       y1="520.72614"
       x2="346.11499"
       y2="567.32123" />
    <linearGradient
       id="linearGradient6114">
      <stop
         id="stop6116"
         offset="0"
         style="stop-color:#ffffff;stop-opacity:0;" />
      <stop
         id="stop6118"
         offset="1"
         style="stop-color:#000000;stop-opacity:0.53846157;" />
    </linearGradient>
    <linearGradient
       inkscape:collect="always"
       xlink:href="#linearGradient6114"
       id="linearGradient3541"
       gradientUnits="userSpaceOnUse"
       x1="346.11499"
       y1="520.72614"
       x2="346.11499"
       y2="567.32123" />
    <linearGradient
       id="linearGradient6890">
      <stop
         id="stop6892"
         offset="0"
         style="stop-color:#ffffff;stop-opacity:0;" />
      <stop
         id="stop6894"
         offset="1"
         style="stop-color:#000000;stop-opacity:0.53846157;" />
    </linearGradient>
    <linearGradient
       inkscape:collect="always"
       xlink:href="#linearGradient6114"
       id="linearGradient3543"
       gradientUnits="userSpaceOnUse"
       x1="346.11499"
       y1="520.72614"
       x2="346.11499"
       y2="567.32123" />
    <linearGradient
       id="linearGradient6897">
      <stop
         id="stop6899"
         offset="0"
         style="stop-color:#ffffff;stop-opacity:0;" />
      <stop
         id="stop6901"
         offset="1"
         style="stop-color:#000000;stop-opacity:0.53846157;" />
    </linearGradient>
    <linearGradient
       inkscape:collect="always"
       xlink:href="#linearGradient6114"
       id="linearGradient3545"
       gradientUnits="userSpaceOnUse"
       x1="346.11499"
       y1="520.72614"
       x2="346.11499"
       y2="567.32123" />
    <linearGradient
       id="linearGradient6904">
      <stop
         id="stop6906"
         offset="0"
         style="stop-color:#ffffff;stop-opacity:0;" />
      <stop
         id="stop6908"
         offset="1"
         style="stop-color:#000000;stop-opacity:0.53846157;" />
    </linearGradient>
    <filter
       color-interpolation-filters="sRGB"
       height="1.4221015"
       y="-0.21105076"
       width="1.011807"
       x="-0.0059034964"
       id="filter6177"
       inkscape:collect="always">
      <feGaussianBlur
         id="feGaussianBlur6179"
         stdDeviation="0.13315193"
         inkscape:collect="always" />
    </filter>
    <filter
       color-interpolation-filters="sRGB"
       height="1.8442031"
       y="-0.42210156"
       width="1.0137268"
       x="-0.0068634148"
       id="filter6181"
       inkscape:collect="always">
      <feGaussianBlur
         id="feGaussianBlur6183"
         stdDeviation="0.13315193"
         inkscape:collect="always" />
    </filter>
    <filter
       color-interpolation-filters="sRGB"
       id="filter6185"
       inkscape:collect="always">
      <feGaussianBlur
         id="feGaussianBlur6187"
         stdDeviation="0.13315193"
         inkscape:collect="always" />
    </filter>
    <radialGradient
       inkscape:collect="always"
       xlink:href="#linearGradient6030"
       id="radialGradient3557"
       gradientUnits="userSpaceOnUse"
       gradientTransform="matrix(4.39697,-0.781364,0.273452,1.5388,-1379.4,111.904)"
       cx="363.84866"
       cy="494.10422"
       fx="363.84866"
       fy="494.10422"
       r="88.392456" />
    <linearGradient
       id="linearGradient6030">
      <stop
         id="stop6032"
         offset="0"
         style="stop-color:#ffffff;stop-opacity:1;" />
      <stop
         style="stop-color:#000000;stop-opacity:1;"
         offset="0.5"
         id="stop6038" />
      <stop
         id="stop6040"
         offset="0.51028222"
         style="stop-color:#ffffff;stop-opacity:1;" />
      <stop
         id="stop6034"
         offset="1"
         style="stop-color:#000000;stop-opacity:1;" />
    </linearGradient>
    <radialGradient
       inkscape:collect="always"
       xlink:href="#linearGradient6030"
       id="radialGradient3549"
       gradientUnits="userSpaceOnUse"
       gradientTransform="matrix(4.39697,-0.781364,0.273452,1.5388,-1379.4,111.904)"
       cx="363.84866"
       cy="494.10422"
       fx="363.84866"
       fy="494.10422"
       r="88.392456" />
    <linearGradient
       id="linearGradient6923">
      <stop
         id="stop6925"
         offset="0"
         style="stop-color:#ffffff;stop-opacity:1;" />
      <stop
         style="stop-color:#000000;stop-opacity:1;"
         offset="0.5"
         id="stop6927" />
      <stop
         id="stop6929"
         offset="0.51028222"
         style="stop-color:#ffffff;stop-opacity:1;" />
      <stop
         id="stop6931"
         offset="1"
         style="stop-color:#000000;stop-opacity:1;" />
    </linearGradient>
    <radialGradient
       inkscape:collect="always"
       xlink:href="#linearGradient6030"
       id="radialGradient3551"
       gradientUnits="userSpaceOnUse"
       gradientTransform="matrix(4.39697,-0.781364,0.273452,1.5388,-1379.4,111.904)"
       cx="363.84866"
       cy="494.10422"
       fx="363.84866"
       fy="494.10422"
       r="88.392456" />
    <linearGradient
       id="linearGradient6934">
      <stop
         id="stop6936"
         offset="0"
         style="stop-color:#ffffff;stop-opacity:1;" />
      <stop
         style="stop-color:#000000;stop-opacity:1;"
         offset="0.5"
         id="stop6938" />
      <stop
         id="stop6940"
         offset="0.51028222"
         style="stop-color:#ffffff;stop-opacity:1;" />
      <stop
         id="stop6942"
         offset="1"
         style="stop-color:#000000;stop-opacity:1;" />
    </linearGradient>
    <radialGradient
       inkscape:collect="always"
       xlink:href="#linearGradient6030"
       id="radialGradient3553"
       gradientUnits="userSpaceOnUse"
       gradientTransform="matrix(4.39697,-0.781364,0.273452,1.5388,-1379.4,111.904)"
       cx="363.84866"
       cy="494.10422"
       fx="363.84866"
       fy="494.10422"
       r="88.392456" />
    <linearGradient
       id="linearGradient6945">
      <stop
         id="stop6947"
         offset="0"
         style="stop-color:#ffffff;stop-opacity:1;" />
      <stop
         style="stop-color:#000000;stop-opacity:1;"
         offset="0.5"
         id="stop6949" />
      <stop
         id="stop6951"
         offset="0.51028222"
         style="stop-color:#ffffff;stop-opacity:1;" />
      <stop
         id="stop6953"
         offset="1"
         style="stop-color:#000000;stop-opacity:1;" />
    </linearGradient>
    <radialGradient
       inkscape:collect="always"
       xlink:href="#linearGradient6030"
       id="radialGradient3555"
       gradientUnits="userSpaceOnUse"
       gradientTransform="matrix(4.39697,-0.781364,0.273452,1.5388,-1379.4,111.904)"
       cx="363.84866"
       cy="494.10422"
       fx="363.84866"
       fy="494.10422"
       r="88.392456" />
    <linearGradient
       id="linearGradient6956">
      <stop
         id="stop6958"
         offset="0"
         style="stop-color:#ffffff;stop-opacity:1;" />
      <stop
         style="stop-color:#000000;stop-opacity:1;"
         offset="0.5"
         id="stop6960" />
      <stop
         id="stop6962"
         offset="0.51028222"
         style="stop-color:#ffffff;stop-opacity:1;" />
      <stop
         id="stop6964"
         offset="1"
         style="stop-color:#000000;stop-opacity:1;" />
    </linearGradient>
    <filter
       id="filter4726"
       inkscape:label="Desaturate"
       x="0"
       y="0"
       width="1"
       height="1"
       inkscape:menu="Color"
       inkscape:menu-tooltip="Render in shades of gray by reducing saturation to zero"
       color-interpolation-filters="sRGB">
      <feColorMatrix
         id="feColorMatrix4728"
         type="saturate"
         values="0" />
    </filter>
    <filter
       id="filter5670"
       inkscape:label="Desaturate"
       x="0"
       y="0"
       width="1"
       height="1"
       inkscape:menu="Color"
       inkscape:menu-tooltip="Render in shades of gray by reducing saturation to zero"
       color-interpolation-filters="sRGB">
      <feColorMatrix
         id="feColorMatrix5672"
         type="saturate"
         values="0" />
    </filter>
    <filter
       id="filter5579"
       inkscape:label="Desaturate"
       x="0"
       y="0"
       width="1"
       height="1"
       inkscape:menu="Color"
       inkscape:menu-tooltip="Render in shades of gray by reducing saturation to zero"
       color-interpolation-filters="sRGB">
      <feColorMatrix
         id="feColorMatrix5581"
         type="saturate"
         values="0" />
    </filter>
    <linearGradient
       inkscape:collect="always"
       xlink:href="#linearGradient4689"
       id="linearGradient3559"
       gradientUnits="userSpaceOnUse"
       gradientTransform="matrix(0.562541,0,0,0.567972,-9.399749,-5.305317)"
       x1="26.648937"
       y1="20.603781"
       x2="135.66525"
       y2="114.39767" />
    <linearGradient
       id="linearGradient4689">
      <stop
         id="stop4691"
         offset="0"
         style="stop-color:#5a9fd4;stop-opacity:1" />
      <stop
         id="stop4693"
         offset="1"
         style="stop-color:#306998;stop-opacity:1" />
    </linearGradient>
    <linearGradient
       inkscape:collect="always"
       xlink:href="#linearGradient4671"
       id="linearGradient3561"
       gradientUnits="userSpaceOnUse"
       gradientTransform="matrix(0.562541,0,0,0.567972,-9.399749,-5.305317)"
       x1="150.96111"
       y1="192.35176"
       x2="112.03144"
       y2="137.27299" />
    <linearGradient
       id="linearGradient4671">
      <stop
         id="stop4673"
         offset="0"
         style="stop-color:#ffd43b;stop-opacity:1" />
      <stop
         id="stop4675"
         offset="1"
         style="stop-color:#ffe873;stop-opacity:1" />
    </linearGradient>
    <radialGradient
       inkscape:collect="always"
       xlink:href="#linearGradient2795"
       id="radialGradient3563"
       gradientUnits="userSpaceOnUse"
       gradientTransform="matrix(2.382716e-8,-0.296405,1.43676,4.683673e-7,-128.544,150.5202)"
       cx="61.518883"
       cy="132.28575"
       fx="61.518883"
       fy="132.28575"
       r="29.036913" />
    <linearGradient
       id="linearGradient2795">
      <stop
         id="stop2797"
         offset="0"
         style="stop-color:#b8b8b8;stop-opacity:0.49803922" />
      <stop
         id="stop2799"
         offset="1"
         style="stop-color:#7f7f7f;stop-opacity:0" />
    </linearGradient>
    <radialGradient
       r="29.036913"
       fy="132.28575"
       fx="61.518883"
       cy="132.28575"
       cx="61.518883"
       gradientTransform="matrix(2.382716e-8,-0.296405,1.43676,4.683673e-7,-128.544,150.5202)"
       gradientUnits="userSpaceOnUse"
       id="radialGradient7344"
       xlink:href="#linearGradient2795"
       inkscape:collect="always" />
    <filter
       id="filter5618"
       inkscape:label="Desaturate"
       x="0"
       y="0"
       width="1"
       height="1"
       inkscape:menu="Color"
       inkscape:menu-tooltip="Render in shades of gray by reducing saturation to zero"
       color-interpolation-filters="sRGB">
      <feColorMatrix
         id="feColorMatrix5620"
         type="saturate"
         values="0" />
    </filter>
    <clipPath
       id="clipPath18">
      <path
         id="path20-6"
         inkscape:connector-curvature="0"
         d="M 0,501.602 0,0 l 1863.85,0 0,501.602 -1863.85,0 z" />
    </clipPath>
    <filter
       id="filter5283"
       inkscape:label="Desaturate"
       x="0"
       y="0"
       width="1"
       height="1"
       inkscape:menu="Color"
       inkscape:menu-tooltip="Render in shades of gray by reducing saturation to zero"
       color-interpolation-filters="sRGB">
      <feColorMatrix
         id="feColorMatrix5285"
         type="saturate"
         values="0" />
    </filter>
    <filter
       id="filter5247"
       inkscape:label="Desaturate"
       x="0"
       y="0"
       width="1"
       height="1"
       inkscape:menu="Color"
       inkscape:menu-tooltip="Render in shades of gray by reducing saturation to zero"
       color-interpolation-filters="sRGB">
      <feColorMatrix
         id="feColorMatrix5249"
         type="saturate"
         values="0" />
    </filter>
  </defs>
  <sodipodi:namedview
     id="base"
     pagecolor="#ffffff"
     bordercolor="#666666"
     borderopacity="1.0"
     inkscape:pageopacity="0.0"
     inkscape:pageshadow="2"
     inkscape:zoom="1.4"
     inkscape:cx="69.822546"
     inkscape:cy="83.82449"
     inkscape:document-units="px"
     inkscape:current-layer="layer1"
     showgrid="false"
     fit-margin-top="5"
     fit-margin-right="5"
     fit-margin-left="5"
     fit-margin-bottom="5"
     inkscape:window-width="505"
     inkscape:window-height="423"
     inkscape:window-x="1892"
     inkscape:window-y="454"
     inkscape:window-maximized="0" />
  <metadata
     id="metadata6723">
    <rdf:RDF>
      <cc:Work
         rdf:about="">
        <dc:format>image/svg+xml</dc:format>
        <dc:type
           rdf:resource="http://purl.org/dc/dcmitype/StillImage" />
        <dc:title></dc:title>
      </cc:Work>
    </rdf:RDF>
  </metadata>
  <g
     inkscape:label="Ebene 1"
     inkscape:groupmode="layer"
     id="layer1"
     transform="translate(-730.75685,-600.78968)">
    <g
       id="g7658">
      <g
         id="text5389-2-6-9-9"
         style="font-size:19.95054245px;font-style:normal;font-variant:normal;font-weight:normal;font-stretch:normal;text-align:start;line-height:125%;letter-spacing:0px;word-spacing:0px;writing-mode:lr-tb;text-anchor:start;fill:#1a1a1a;fill-opacity:1;stroke:none;font-family:Sans;-inkscape-font-specification:Sans">
        <path
           id="path7638"
           style=""
           d="m 790.18796,635.76221 0,-14.28101 5.38703,0 c 0.94817,2e-5 1.67228,0.0455 2.17235,0.13638 0.70138,0.11692 1.28911,0.33935 1.76321,0.6673 0.47407,0.32797 0.85561,0.78744 1.14462,1.37841 0.28899,0.591 0.43349,1.24043 0.4335,1.9483 -10e-6,1.21445 -0.38643,2.24217 -1.15924,3.08318 -0.77283,0.84102 -2.16911,1.26152 -4.18883,1.26152 l -3.6628,0 0,5.80592 z m 1.88984,-7.4912 3.69202,0 c 1.22093,10e-6 2.08792,-0.22729 2.60098,-0.6819 0.51304,-0.45459 0.76956,-1.09428 0.76957,-1.91907 -10e-6,-0.59747 -0.151,-1.1089 -0.45298,-1.53428 -0.30199,-0.42537 -0.69977,-0.70625 -1.19333,-0.84264 -0.31823,-0.0844 -0.90596,-0.12663 -1.7632,-0.12664 l -3.65306,0 z" />
        <path
           id="path7640"
           style=""
           d="m 802.63756,630.58948 c 0,-1.91581 0.53254,-3.33482 1.5976,-4.25702 0.88972,-0.76632 1.97427,-1.14949 3.25366,-1.1495 1.42225,10e-6 2.58473,0.46598 3.48745,1.39791 0.9027,0.93194 1.35405,2.21944 1.35406,3.86249 -10e-6,1.33134 -0.19971,2.37855 -0.5991,3.14163 -0.39941,0.76308 -0.98065,1.35569 -1.74372,1.77782 -0.76309,0.42213 -1.59599,0.63319 -2.49869,0.63319 -1.44824,0 -2.61884,-0.46434 -3.5118,-1.39303 -0.89297,-0.92868 -1.33946,-2.26651 -1.33946,-4.01349 z m 1.80218,0 c -10e-6,1.32485 0.28899,2.31685 0.86699,2.97602 0.57799,0.65918 1.30535,0.98877 2.18209,0.98876 0.87023,10e-6 1.59435,-0.3312 2.17235,-0.99363 0.57798,-0.66241 0.86698,-1.67228 0.86699,-3.0296 -10e-6,-1.27937 -0.29063,-2.24865 -0.87186,-2.90783 -0.58125,-0.65916 -1.30374,-0.98875 -2.16748,-0.98876 -0.87674,10e-6 -1.6041,0.32798 -2.18209,0.98389 -0.578,0.65594 -0.867,1.64632 -0.86699,2.97115 z" />
        <path
           id="path7642"
           style=""
           d="m 813.69414,632.67416 1.73398,-0.27276 c 0.0974,0.69489 0.36855,1.22743 0.81341,1.5976 0.44486,0.37018 1.06669,0.55527 1.8655,0.55526 0.80529,10e-6 1.40276,-0.16398 1.79243,-0.49194 0.38965,-0.32796 0.58448,-0.71275 0.58449,-1.15437 -1e-5,-0.39615 -0.17211,-0.70787 -0.5163,-0.93518 -0.2403,-0.15586 -0.83777,-0.35393 -1.79243,-0.59423 -1.28588,-0.32471 -2.17723,-0.60559 -2.67404,-0.84263 -0.49682,-0.23704 -0.87349,-0.565 -1.13001,-0.98389 -0.25653,-0.41888 -0.38479,-0.8816 -0.38479,-1.38816 0,-0.46109 0.10553,-0.88809 0.3166,-1.28101 0.21106,-0.3929 0.49844,-0.71923 0.86212,-0.97902 0.27276,-0.20131 0.64456,-0.37179 1.1154,-0.51142 0.47083,-0.13962 0.97577,-0.20944 1.5148,-0.20945 0.81178,10e-6 1.52453,0.11691 2.13825,0.3507 0.61371,0.2338 1.06669,0.5504 1.35894,0.94979 0.29224,0.39941 0.49356,0.93357 0.60397,1.60247 l -1.7145,0.2338 c -0.0779,-0.53253 -0.30362,-0.94816 -0.67703,-1.24691 -0.37343,-0.29873 -0.90109,-0.4481 -1.58299,-0.44811 -0.8053,1e-5 -1.38005,0.13315 -1.72424,0.3994 -0.3442,0.26628 -0.5163,0.57801 -0.5163,0.93518 0,0.22731 0.0714,0.43188 0.21431,0.61372 0.14287,0.18834 0.36693,0.3442 0.67216,0.46759 0.17535,0.065 0.69164,0.21432 1.5489,0.44811 1.24041,0.33121 2.10577,0.60235 2.5961,0.81341 0.49031,0.21107 0.8751,0.51793 1.15437,0.92057 0.27924,0.40265 0.41887,0.90271 0.41888,1.50019 -10e-6,0.58449 -0.17048,1.13488 -0.51143,1.65118 -0.34096,0.5163 -0.8329,0.9157 -1.47583,1.1982 -0.64295,0.2825 -1.37031,0.42375 -2.18209,0.42375 -1.34433,0 -2.36881,-0.27925 -3.07344,-0.83776 -0.70463,-0.55851 -1.15436,-1.38654 -1.34919,-2.48408 z" />
        <path
           id="path7644"
           style=""
           d="m 828.19919,634.19383 0.25328,1.54889 c -0.49357,0.10391 -0.93518,0.15587 -1.32484,0.15587 -0.63645,0 -1.13001,-0.10066 -1.4807,-0.30199 -0.3507,-0.20132 -0.59748,-0.46596 -0.74036,-0.79393 -0.14287,-0.32796 -0.21431,-1.01798 -0.21431,-2.07006 l 0,-5.95204 -1.28587,0 0,-1.36381 1.28587,0 0,-2.56201 1.74373,-1.05208 0,3.61409 1.7632,0 0,1.36381 -1.7632,0 0,6.04945 c -10e-6,0.50007 0.0308,0.82154 0.0925,0.96441 0.0617,0.14288 0.16235,0.25653 0.30199,0.34095 0.13962,0.0844 0.33932,0.12664 0.5991,0.12664 0.19482,0 0.45135,-0.0227 0.76957,-0.0682 z" />
        <path
           id="path7646"
           style=""
           d="m 829.58249,636.61946 1.70475,0.25328 c 0.0714,0.52603 0.26952,0.9092 0.59423,1.14949 0.43512,0.32471 1.02935,0.48707 1.78269,0.48707 0.81179,0 1.43849,-0.16236 1.88011,-0.48707 0.44161,-0.32472 0.74034,-0.77932 0.89622,-1.36381 0.0909,-0.35719 0.13312,-1.10728 0.12663,-2.25028 -0.76633,0.90271 -1.721,1.35407 -2.86399,1.35407 -1.42226,0 -2.52304,-0.51305 -3.30236,-1.53916 -0.77932,-1.0261 -1.16898,-2.25677 -1.16898,-3.69202 0,-0.98713 0.1786,-1.89795 0.53578,-2.73248 0.35719,-0.83451 0.87511,-1.47907 1.55377,-1.93368 0.67865,-0.45459 1.47583,-0.6819 2.39153,-0.68191 1.22093,10e-6 2.22755,0.49358 3.01986,1.48071 l 0,-1.24691 1.61708,0 0,8.94267 c -1e-5,1.61059 -0.16399,2.75197 -0.49194,3.42413 -0.32797,0.67216 -0.84752,1.20307 -1.55864,1.59273 -0.71113,0.38966 -1.58624,0.58449 -2.62532,0.58449 -1.23393,0 -2.2308,-0.27763 -2.99064,-0.83289 -0.75983,-0.55527 -1.12676,-1.39141 -1.10078,-2.50843 z m 1.45148,-6.21506 c -10e-6,1.35731 0.26951,2.34769 0.80854,2.97115 0.53902,0.62345 1.21443,0.93518 2.02623,0.93518 0.80528,0 1.48069,-0.3101 2.02622,-0.93031 0.54552,-0.62021 0.81828,-1.59273 0.81829,-2.91758 -10e-6,-1.26638 -0.28089,-2.22104 -0.84264,-2.86399 -0.56177,-0.64293 -1.2388,-0.9644 -2.0311,-0.96441 -0.77932,10e-6 -1.44174,0.31661 -1.98726,0.9498 -0.54553,0.6332 -0.81829,1.57325 -0.81828,2.82016 z" />
        <path
           id="path7648"
           style=""
           d="m 840.98975,635.76221 0,-10.34545 1.57812,0 0,1.56838 c 0.40265,-0.73385 0.77445,-1.21768 1.1154,-1.45148 0.34095,-0.23379 0.716,-0.35069 1.12514,-0.3507 0.59098,10e-6 1.1917,0.18835 1.80218,0.56501 l -0.60398,1.62683 c -0.42863,-0.25327 -0.85725,-0.37991 -1.28587,-0.37992 -0.38317,1e-5 -0.72737,0.11528 -1.0326,0.34582 -0.30523,0.23056 -0.52279,0.5504 -0.65268,0.95954 -0.19483,0.62346 -0.29224,1.30536 -0.29224,2.04571 l 0,5.41626 z" />
        <path
           id="path7650"
           style=""
           d="m 854.75446,632.43062 1.81191,0.22406 c -0.28576,1.05857 -0.81504,1.8801 -1.58786,2.46459 -0.77283,0.58449 -1.75996,0.87673 -2.96141,0.87673 -1.51318,0 -2.713,-0.46596 -3.59947,-1.3979 -0.88648,-0.93193 -1.32971,-2.23891 -1.32971,-3.92094 0,-1.74047 0.4481,-3.09129 1.34432,-4.05246 0.89621,-0.96115 2.0587,-1.44173 3.48745,-1.44174 1.38328,10e-6 2.51329,0.47085 3.39003,1.41252 0.87673,0.94168 1.31509,2.26652 1.3151,3.97452 -10e-6,0.10391 -0.003,0.25978 -0.01,0.46759 l -7.71525,0 c 0.0649,1.13651 0.38641,2.00675 0.96441,2.61072 0.57799,0.60397 1.29886,0.90596 2.16261,0.90595 0.64293,10e-6 1.1917,-0.16885 1.64631,-0.50655 0.45459,-0.33771 0.81502,-0.87673 1.0813,-1.61709 z m -5.75721,-2.83477 5.77669,0 c -0.0779,-0.87023 -0.29874,-1.52291 -0.66242,-1.95803 -0.55852,-0.6754 -1.28263,-1.01311 -2.17235,-1.01312 -0.8053,1e-5 -1.48233,0.26953 -2.03109,0.80855 -0.54878,0.53903 -0.85239,1.2599 -0.91083,2.1626 z" />
        <path
           id="path7652"
           style=""
           d="m 858.35881,631.17397 1.78269,-0.15586 c 0.0844,0.71438 0.28088,1.30049 0.58936,1.75833 0.30847,0.45786 0.78743,0.82803 1.43687,1.11053 0.64942,0.28251 1.38003,0.42376 2.19183,0.42376 0.72086,0 1.3573,-0.10716 1.90933,-0.32147 0.552,-0.21431 0.96277,-0.50818 1.23229,-0.88161 0.26951,-0.37342 0.40426,-0.78093 0.40428,-1.22255 -2e-5,-0.4481 -0.1299,-0.83939 -0.38966,-1.17385 -0.25979,-0.33445 -0.68841,-0.61533 -1.28588,-0.84264 -0.38317,-0.14936 -1.23068,-0.38153 -2.54252,-0.69651 -1.31186,-0.31497 -2.23081,-0.61208 -2.75684,-0.89135 -0.68191,-0.35718 -1.19009,-0.80041 -1.52454,-1.32971 -0.33446,-0.52928 -0.50169,-1.12188 -0.50169,-1.77782 0,-0.72086 0.20457,-1.39464 0.61371,-2.02135 0.40914,-0.62669 1.00662,-1.1024 1.79244,-1.42713 0.7858,-0.3247 1.65929,-0.48706 2.62045,-0.48707 1.05857,10e-6 1.99213,0.17049 2.80068,0.51142 0.80853,0.34097 1.43036,0.84265 1.86549,1.50506 0.43511,0.66243 0.6689,1.41253 0.70139,2.25028 l -1.81192,0.13638 c -0.0974,-0.9027 -0.42701,-1.5846 -0.98876,-2.04571 -0.56177,-0.46108 -1.39141,-0.69163 -2.48895,-0.69164 -1.143,10e-6 -1.9759,0.20945 -2.49868,0.62832 -0.5228,0.4189 -0.7842,0.92383 -0.78419,1.5148 -10e-6,0.51306 0.18508,0.9352 0.55526,1.2664 0.36368,0.33121 1.31347,0.67054 2.84938,1.01798 1.5359,0.34745 2.5896,0.65106 3.16111,0.91083 0.83126,0.38317 1.44498,0.86862 1.84114,1.45635 0.39614,0.58774 0.59422,1.26477 0.59423,2.0311 -1e-5,0.75983 -0.21757,1.47583 -0.65268,2.14799 -0.43513,0.67216 -1.06021,1.19496 -1.87523,1.56838 -0.81505,0.37342 -1.73237,0.56013 -2.75197,0.56013 -1.29237,0 -2.3753,-0.18833 -3.24878,-0.565 -0.87349,-0.37667 -1.55864,-0.9433 -2.05545,-1.69989 -0.49682,-0.75658 -0.75821,-1.61221 -0.78419,-2.56688 z" />
        <path
           id="path7654"
           style=""
           d="m 883.15086,634.2328 c 0.87672,0.60397 1.68526,1.04558 2.42563,1.32484 l -0.55527,1.3151 c -1.02611,-0.37018 -2.04897,-0.95467 -3.06856,-1.75347 -1.05859,0.59098 -2.22756,0.88647 -3.50693,0.88647 -1.29238,0 -2.4646,-0.31172 -3.51668,-0.93518 -1.05208,-0.62345 -1.86225,-1.50018 -2.4305,-2.6302 -0.56825,-1.13 -0.85238,-2.40289 -0.85237,-3.81865 -10e-6,-1.40926 0.28574,-2.69189 0.85724,-3.84789 0.5715,-1.15597 1.38491,-2.03595 2.44024,-2.63994 1.05533,-0.60395 2.23567,-0.90594 3.54103,-0.90595 1.31834,10e-6 2.5068,0.31336 3.56538,0.94005 1.05856,0.62671 1.86548,1.50344 2.42076,2.6302 0.55525,1.12677 0.83288,2.39803 0.83289,3.81378 -10e-6,1.17548 -0.1786,2.23243 -0.53578,3.17085 -0.3572,0.93844 -0.89623,1.7551 -1.61708,2.44999 z m -4.15961,-2.41589 c 1.09103,0.30524 1.9905,0.75984 2.69839,1.36381 1.11051,-1.01311 1.66578,-2.53603 1.66579,-4.56876 -10e-6,-1.15598 -0.19647,-2.16584 -0.58936,-3.0296 -0.39292,-0.86373 -0.96766,-1.53427 -1.72424,-2.01161 -0.7566,-0.47732 -1.60573,-0.71599 -2.5474,-0.716 -1.40927,1e-5 -2.57825,0.48222 -3.50693,1.44661 -0.92869,0.96442 -1.39303,2.40453 -1.39303,4.32035 0,1.85738 0.45947,3.28288 1.37842,4.2765 0.91894,0.99364 2.09279,1.49045 3.52154,1.49045 0.6754,0 1.31185,-0.12664 1.90933,-0.37992 -0.59099,-0.38316 -1.21444,-0.65592 -1.87036,-0.81828 z" />
        <path
           id="path7656"
           style=""
           d="m 887.75858,635.76221 0,-14.28101 1.88984,0 0,12.59573 7.03335,0 0,1.68528 z" />
      </g>
      <g
         id="g3779"
         style="fill:none;stroke:#ffffff;stroke-width:12.46510029;stroke-linecap:round;stroke-linejoin:round;stroke-miterlimit:4"
         transform="matrix(0.10492932,0,0,0.10492932,735.75685,605.79099)">
        <path
           style="fill:#000000;stroke:#000000;stroke-width:37.39530182;stroke-linecap:butt;stroke-linejoin:miter"
           d="m 323.205,324.227 c 2.833,-23.601 1.984,-27.062 19.563,-23.239 l 4.463,0.392 c 13.517,0.615 31.199,-2.174 41.587,-7 22.362,-10.376 35.622,-27.7 13.572,-23.148 -50.297,10.376 -53.755,-6.655 -53.755,-6.655 C 401.746,185.774 423.948,85.741 404.784,61.255 352.514,-5.534 262.036,26.049 260.522,26.869 l -0.482,0.089 c -9.938,-2.062 -21.06,-3.294 -33.554,-3.496 -22.761,-0.374 -40.032,5.967 -53.133,15.904 0,0 -161.408,-66.498 -153.899,83.628 1.597,31.936 45.777,241.655 98.47,178.31 19.259,-23.163 37.871,-42.748 37.871,-42.748 9.242,6.14 20.307,9.272 31.912,8.147 l 0.897,-0.765 c -0.281,2.876 -0.157,5.689 0.359,9.019 -13.572,15.167 -9.584,17.83 -36.723,23.416 -27.457,5.659 -11.326,15.734 -0.797,18.367 12.768,3.193 42.305,7.716 62.268,-20.224 l -0.795,3.188 c 5.325,4.26 4.965,30.619 5.72,49.452 0.756,18.834 2.017,36.409 5.856,46.771 3.839,10.36 8.369,37.05 44.036,29.406 29.809,-6.388 52.6,-15.582 54.677,-101.107"
           id="path6-9"
           inkscape:connector-curvature="0" />
        <path
           style="fill:#666666;stroke:none"
           d="m 402.395,271.23 c -50.302,10.376 -53.76,-6.655 -53.76,-6.655 53.111,-78.808 75.313,-178.843 56.153,-203.326 -52.27,-66.785 -142.752,-35.2 -144.262,-34.38 l -0.486,0.087 c -9.938,-2.063 -21.06,-3.292 -33.56,-3.496 -22.761,-0.373 -40.026,5.967 -53.127,15.902 0,0 -161.411,-66.495 -153.904,83.63 1.597,31.938 45.776,241.657 98.471,178.312 19.26,-23.163 37.869,-42.748 37.869,-42.748 9.243,6.14 20.308,9.272 31.908,8.147 l 0.901,-0.765 c -0.28,2.876 -0.152,5.689 0.361,9.019 -13.575,15.167 -9.586,17.83 -36.723,23.416 -27.459,5.659 -11.328,15.734 -0.796,18.367 12.768,3.193 42.307,7.716 62.266,-20.224 l -0.796,3.188 c 5.319,4.26 9.054,27.711 8.428,48.969 -0.626,21.259 -1.044,35.854 3.147,47.254 4.191,11.4 8.368,37.05 44.042,29.406 29.809,-6.388 45.256,-22.942 47.405,-50.555 1.525,-19.631 4.976,-16.729 5.194,-34.28 l 2.768,-8.309 c 3.192,-26.611 0.507,-35.196 18.872,-31.203 l 4.463,0.392 c 13.517,0.615 31.208,-2.174 41.591,-7 22.358,-10.376 35.618,-27.7 13.573,-23.148 z"
           id="path8"
           inkscape:connector-curvature="0" />
        <path
           d="m 215.866,286.484 c -1.385,49.516 0.348,99.377 5.193,111.495 4.848,12.118 15.223,35.688 50.9,28.045 29.806,-6.39 40.651,-18.756 45.357,-46.051 3.466,-20.082 10.148,-75.854 11.005,-87.281"
           id="path10"
           inkscape:connector-curvature="0" />
        <path
           d="m 173.104,38.256 c 0,0 -161.521,-66.016 -154.012,84.109 1.597,31.938 45.779,241.664 98.473,178.316 19.256,-23.166 36.671,-41.335 36.671,-41.335"
           id="path12"
           inkscape:connector-curvature="0" />
        <path
           d="m 260.349,26.207 c -5.591,1.753 89.848,-34.889 144.087,34.417 19.159,24.484 -3.043,124.519 -56.153,203.329"
           id="path14-9"
           inkscape:connector-curvature="0" />
        <path
           style="stroke-linejoin:bevel"
           d="m 348.282,263.953 c 0,0 3.461,17.036 53.764,6.653 22.04,-4.552 8.776,12.774 -13.577,23.155 -18.345,8.514 -59.474,10.696 -60.146,-1.069 -1.729,-30.355 21.647,-21.133 19.96,-28.739 -1.525,-6.85 -11.979,-13.573 -18.894,-30.338 -6.037,-14.633 -82.796,-126.849 21.287,-110.183 3.813,-0.789 -27.146,-99.002 -124.553,-100.599 -97.385,-1.597 -94.19,119.762 -94.19,119.762"
           id="path16-2"
           inkscape:connector-curvature="0" />
        <path
           d="m 188.604,274.334 c -13.577,15.166 -9.584,17.829 -36.723,23.417 -27.459,5.66 -11.326,15.733 -0.797,18.365 12.768,3.195 42.307,7.718 62.266,-20.229 6.078,-8.509 -0.036,-22.086 -8.385,-25.547 -4.034,-1.671 -9.428,-3.765 -16.361,3.994 z"
           id="path18-5"
           inkscape:connector-curvature="0" />
        <path
           d="m 187.715,274.069 c -1.368,-8.917 2.93,-19.528 7.536,-31.942 6.922,-18.626 22.893,-37.255 10.117,-96.339 -9.523,-44.029 -73.396,-9.163 -73.436,-3.193 -0.039,5.968 2.889,30.26 -1.067,58.548 -5.162,36.913 23.488,68.132 56.479,64.938"
           id="path20-5"
           inkscape:connector-curvature="0" />
        <path
           style="fill:#ffffff;stroke-width:4.15500021;stroke-linecap:butt;stroke-linejoin:miter"
           d="m 172.517,141.7 c -0.288,2.039 3.733,7.48 8.976,8.207 5.234,0.73 9.714,-3.522 9.998,-5.559 0.284,-2.039 -3.732,-4.285 -8.977,-5.015 -5.237,-0.731 -9.719,0.333 -9.996,2.367 z"
           id="path22-3"
           inkscape:connector-curvature="0" />
        <path
           style="fill:#ffffff;stroke-width:2.0775001;stroke-linecap:butt;stroke-linejoin:miter"
           d="m 331.941,137.543 c 0.284,2.039 -3.732,7.48 -8.976,8.207 -5.238,0.73 -9.718,-3.522 -10.005,-5.559 -0.277,-2.039 3.74,-4.285 8.979,-5.015 5.239,-0.73 9.718,0.333 10.002,2.368 z"
           id="path24-3"
           inkscape:connector-curvature="0" />
        <path
           d="m 350.676,123.432 c 0.863,15.994 -3.445,26.888 -3.988,43.914 -0.804,24.748 11.799,53.074 -7.191,81.435"
           id="path26-3"
           inkscape:connector-curvature="0" />
        <path
           style="stroke-width:3"
           d="M 0,60.232"
           id="path28-7"
           inkscape:connector-curvature="0" />
      </g>
    </g>
  </g>
</svg>
