<?xml version="1.0" encoding="UTF-8" standalone="no"?>
<!-- Created with Inkscape (http://www.inkscape.org/) -->

<svg
   xmlns:dc="http://purl.org/dc/elements/1.1/"
   xmlns:cc="http://creativecommons.org/ns#"
   xmlns:rdf="http://www.w3.org/1999/02/22-rdf-syntax-ns#"
   xmlns:svg="http://www.w3.org/2000/svg"
   xmlns="http://www.w3.org/2000/svg"
   xmlns:sodipodi="http://sodipodi.sourceforge.net/DTD/sodipodi-0.dtd"
   xmlns:inkscape="http://www.inkscape.org/namespaces/inkscape"
   width="530"
   height="101.93259"
   id="svg4124"
   version="1.1"
   inkscape:version="0.48.4 r9939"
   sodipodi:docname="crossbar_hiw_call_stored_procedure.svg">
  <defs
     id="defs4126" />
  <sodipodi:namedview
     id="base"
     pagecolor="#ffffff"
     bordercolor="#666666"
     borderopacity="1.0"
     inkscape:pageopacity="0.0"
     inkscape:pageshadow="2"
     inkscape:zoom="2.8"
     inkscape:cx="217.04649"
     inkscape:cy="70.712888"
     inkscape:document-units="px"
     inkscape:current-layer="layer1"
     showgrid="false"
     fit-margin-top="5"
     fit-margin-left="5"
     fit-margin-right="5"
     fit-margin-bottom="5"
     inkscape:window-width="1858"
     inkscape:window-height="1178"
     inkscape:window-x="1016"
     inkscape:window-y="-8"
     inkscape:window-maximized="1" />
  <metadata
     id="metadata4129">
    <rdf:RDF>
      <cc:Work
         rdf:about="">
        <dc:format>image/svg+xml</dc:format>
        <dc:type
           rdf:resource="http://purl.org/dc/dcmitype/StillImage" />
        <dc:title />
      </cc:Work>
    </rdf:RDF>
  </metadata>
  <g
     inkscape:label="Ebene 1"
     inkscape:groupmode="layer"
     id="layer1"
     transform="translate(576.68379,545.32873)">
    <path
       inkscape:export-ydpi="300"
       inkscape:export-xdpi="300"
       inkscape:export-filename="C:\Users\AG\scm\wwwcrossbar\design\hiw_crossbar_call.png"
       inkscape:connector-curvature="0"
       style="fill:#2a2a2a;fill-opacity:1;stroke:#2a2a2a;stroke-width:2.39769959;stroke-linecap:round;stroke-linejoin:round;stroke-miterlimit:4;stroke-opacity:1;stroke-dasharray:none"
       d="m -372.25342,-485.03573 -101.73219,-0.36356"
       id="path6872-5-8-1-5-4-1-02-9-6-2-6-6-18" />
    <path
       inkscape:transform-center-y="-19.284559"
       inkscape:transform-center-x="-3.9816936"
       inkscape:export-ydpi="300"
       inkscape:export-xdpi="300"
       inkscape:export-filename="C:\Users\AG\scm\wwwcrossbar\design\hiw_crossbar_call.png"
       inkscape:connector-curvature="0"
       style="fill:#2a2a2a;fill-opacity:1;fill-rule:evenodd;stroke:#2a2a2a;stroke-width:1.60683107;stroke-opacity:1"
       d="m -482.18315,-485.53176 9.53955,5.64319 c -1.50546,-3.51823 -1.47858,-7.70451 0.0719,-11.20325 l 0,0 -9.61148,5.56006 z"
       id="path6874-4-6-2-7-8-1-5-3-9-5-0-0-9" />
    <text
       inkscape:export-ydpi="300"
       inkscape:export-xdpi="300"
       inkscape:export-filename="C:\Users\AG\scm\wwwcrossbar\design\hiw_crossbar_call.png"
       sodipodi:linespacing="125%"
       id="text7599-7-1-8-4-2-5-6-1-8"
       y="-511.76785"
       x="-443.01202"
       style="font-size:15.98466301px;font-style:normal;font-variant:normal;font-weight:normal;font-stretch:normal;line-height:125%;letter-spacing:0px;word-spacing:0px;fill:#1a1a1f;fill-opacity:0.94117647;stroke:none;font-family:Open Sans;-inkscape-font-specification:Open Sans"
       xml:space="preserve"><tspan
         id="tspan5129-4-0-76-9-6-4"
         y="-511.76785"
         x="-443.01202"
         sodipodi:role="line">Call</tspan></text>
    <g
       id="g5018-4-9-0"
       transform="matrix(0.70841119,0,0,0.70841119,-1339.1305,-1952.0842)"
       inkscape:export-filename="C:\Users\AG\scm\wwwcrossbar\design\hiw_crossbar_call.png"
       inkscape:export-xdpi="300"
       inkscape:export-ydpi="300">
      <path
         inkscape:connector-curvature="0"
         style="fill:#999999;fill-opacity:1;fill-rule:nonzero;stroke:none"
         d="m 1083.3351,2008 110,0 0,110 -110,0 z"
         id="path5214-4-5-0-7-5-7-61-9-9-8-7" />
      <text
         sodipodi:linespacing="125%"
         id="text5011-1-0-6-1-3"
         y="2034.1614"
         x="1092.5861"
         style="font-size:25.50540543px;font-style:normal;font-variant:normal;font-weight:normal;font-stretch:normal;line-height:125%;letter-spacing:0px;word-spacing:0px;fill:#ffffff;fill-opacity:1;stroke:none;font-family:Open Sans;-inkscape-font-specification:Open Sans"
         xml:space="preserve"><tspan
           style="font-size:20px;font-style:normal;font-variant:normal;font-weight:normal;font-stretch:normal;font-family:Open Sans;-inkscape-font-specification:Open Sans"
           id="tspan5015-4-2-3-8-4"
           y="2034.1614"
           x="1092.5861"
           sodipodi:role="line">Client</tspan></text>
    </g>
    <rect
       y="-497.62515"
       x="-571.68378"
       height="45.955906"
       width="77.925232"
       id="rect5567-4-0-0-6-7-2-9"
       style="fill:#3cc33c;fill-opacity:1;fill-rule:nonzero;stroke:none"
       inkscape:export-filename="C:\Users\AG\scm\wwwcrossbar\design\hiw_crossbar_call.png"
       inkscape:export-xdpi="300"
       inkscape:export-ydpi="300" />
    <text
       inkscape:export-ydpi="300"
       inkscape:export-xdpi="300"
       inkscape:export-filename="C:\Users\AG\scm\wwwcrossbar\design\hiw_crossbar_call.png"
       sodipodi:linespacing="125%"
       id="text7599-7-1-8-4-2-7-5-9-9-6-8-6-6"
       y="-479.87488"
       x="-566.57202"
       style="font-size:11.98849678px;font-style:normal;font-variant:normal;font-weight:normal;font-stretch:normal;line-height:125%;letter-spacing:0px;word-spacing:0px;fill:#ffffff;fill-opacity:1;stroke:none;font-family:Open Sans;-inkscape-font-specification:Open Sans"
       xml:space="preserve"><tspan
         id="tspan5129-4-0-7-0-4-0-1-8-6-5"
         y="-479.87488"
         x="-566.57202"
         sodipodi:role="line"
         style="font-weight:bold;-inkscape-font-specification:Open Sans Bold">Call</tspan><tspan
         id="tspan5561-6-6-0-8-2-0-1"
         y="-464.88925"
         x="-566.57202"
         sodipodi:role="line"
         style="font-style:normal;font-variant:normal;font-weight:normal;font-stretch:normal;font-family:Open Sans;-inkscape-font-specification:Open Sans">Procedure A</tspan></text>
    <g
       id="g5018-7-4-4"
       transform="matrix(0.70841119,0,0,0.70841119,-897.0558,-1953.3331)"
       inkscape:export-filename="C:\Users\AG\scm\wwwcrossbar\design\hiw_crossbar_call.png"
       inkscape:export-xdpi="300"
       inkscape:export-ydpi="300">
      <path
         inkscape:connector-curvature="0"
         style="fill:#999999;fill-opacity:1;fill-rule:nonzero;stroke:none"
         d="m 1083.3351,2008 110,0 0,110 -110,0 z"
         id="path5214-4-5-0-7-5-7-61-9-17-7-9" />
      <text
         sodipodi:linespacing="125%"
         id="text5011-1-0-7-8-9"
         y="2034.1614"
         x="1092.5861"
         style="font-size:25.50540543px;font-style:normal;font-variant:normal;font-weight:normal;font-stretch:normal;line-height:125%;letter-spacing:0px;word-spacing:0px;fill:#ffffff;fill-opacity:1;stroke:none;font-family:Open Sans;-inkscape-font-specification:Open Sans"
         xml:space="preserve"><tspan
           style="font-size:20px;font-style:normal;font-variant:normal;font-weight:normal;font-stretch:normal;font-family:Open Sans;-inkscape-font-specification:Open Sans"
           id="tspan5015-4-2-7-3-2"
           y="2034.1614"
           x="1092.5861"
           sodipodi:role="line">Database</tspan></text>
    </g>
    <rect
       y="-498.87396"
       x="-129.60905"
       height="45.955906"
       width="77.925232"
       id="rect5567-4-0-0-6-73-5-5"
       style="fill:#3cc33c;fill-opacity:1;fill-rule:nonzero;stroke:none"
       inkscape:export-filename="C:\Users\AG\scm\wwwcrossbar\design\hiw_crossbar_call.png"
       inkscape:export-xdpi="300"
       inkscape:export-ydpi="300" />
    <text
       inkscape:export-ydpi="300"
       inkscape:export-xdpi="300"
       inkscape:export-filename="C:\Users\AG\scm\wwwcrossbar\design\hiw_crossbar_call.png"
       sodipodi:linespacing="125%"
       id="text7599-7-1-8-4-2-7-5-9-9-6-3-1-5"
       y="-481.12366"
       x="-124.49727"
       style="font-size:11.98849678px;font-style:normal;font-variant:normal;font-weight:normal;font-stretch:normal;line-height:125%;letter-spacing:0px;word-spacing:0px;fill:#ffffff;fill-opacity:1;stroke:none;font-family:Open Sans;-inkscape-font-specification:Open Sans"
       xml:space="preserve"><tspan
         id="tspan5129-4-0-7-0-4-0-1-5-2-3"
         y="-481.12366"
         x="-124.49727"
         sodipodi:role="line"
         style="font-weight:bold;-inkscape-font-specification:Open Sans Bold">Implements</tspan><tspan
         id="tspan5561-6-6-0-8-9-0-3"
         y="-466.13803"
         x="-124.49727"
         sodipodi:role="line"
         style="font-style:normal;font-variant:normal;font-weight:normal;font-stretch:normal;font-family:Open Sans;-inkscape-font-specification:Open Sans">Procedure A</tspan></text>
    <path
       inkscape:export-ydpi="300"
       inkscape:export-xdpi="300"
       inkscape:export-filename="C:\Users\AG\scm\wwwcrossbar\design\hiw_crossbar_call.png"
       inkscape:connector-curvature="0"
       style="fill:#2a2a2a;fill-opacity:1;stroke:#2a2a2a;stroke-width:2.39769959;stroke-linecap:round;stroke-linejoin:round;stroke-miterlimit:4;stroke-opacity:1;stroke-dasharray:none"
       d="m -139.81465,-486.75838 -101.73229,-0.36355"
       id="path6872-5-8-1-5-4-1-02-9-6-2-6-6-1-3" />
    <path
       inkscape:transform-center-y="-19.284559"
       inkscape:transform-center-x="-3.9816936"
       inkscape:export-ydpi="300"
       inkscape:export-xdpi="300"
       inkscape:export-filename="C:\Users\AG\scm\wwwcrossbar\design\hiw_crossbar_call.png"
       inkscape:connector-curvature="0"
       style="fill:#1a1a1a;fill-opacity:1;fill-rule:evenodd;stroke:#000000;stroke-width:1.60683107;stroke-opacity:1"
       d="m -249.74447,-487.25441 9.53955,5.64319 c -1.50546,-3.51822 -1.47859,-7.70451 0.0719,-11.20325 l 0,0 -9.61148,5.56006 z"
       id="path6874-4-6-2-7-8-1-5-3-9-5-0-0-6-7" />
    <text
       inkscape:export-ydpi="300"
       inkscape:export-xdpi="300"
       inkscape:export-filename="C:\Users\AG\scm\wwwcrossbar\design\hiw_crossbar_call.png"
       sodipodi:linespacing="125%"
       id="text7599-7-1-8-4-2-5-6-1-4-4"
       y="-517.48676"
       x="-227.26439"
       style="font-size:15.98466301px;font-style:normal;font-variant:normal;font-weight:normal;font-stretch:normal;line-height:125%;letter-spacing:0px;word-spacing:0px;fill:#1a1a1a;fill-opacity:1;stroke:none;font-family:Open Sans;-inkscape-font-specification:Open Sans"
       xml:space="preserve"><tspan
         id="tspan5129-4-0-76-9-6-0-3"
         y="-517.48676"
         x="-227.26439"
         sodipodi:role="line">Forward</tspan></text>
    <path
       inkscape:export-ydpi="300"
       inkscape:export-xdpi="300"
       inkscape:export-filename="C:\Users\AG\scm\wwwcrossbar\design\hiw_crossbar_call.png"
       inkscape:connector-curvature="0"
       style="fill:#2a2a2a;fill-opacity:1;stroke:#2a2a2a;stroke-width:2.39769959;stroke-linecap:round;stroke-linejoin:round;stroke-miterlimit:4;stroke-opacity:1;stroke-dasharray:none"
       d="m -249.75007,-506.02559 101.73219,-0.36356"
       id="path6872-5-8-1-5-4-1-02-9-6-2-6-6-18-8" />
    <path
       inkscape:transform-center-y="-19.284559"
       inkscape:transform-center-x="3.9817072"
       inkscape:export-ydpi="300"
       inkscape:export-xdpi="300"
       inkscape:export-filename="C:\Users\AG\scm\wwwcrossbar\design\hiw_crossbar_call.png"
       inkscape:connector-curvature="0"
       style="fill:#2a2a2a;fill-opacity:1;fill-rule:evenodd;stroke:#2a2a2a;stroke-width:1.60683107;stroke-opacity:1"
       d="m -139.82034,-506.52162 -9.53955,5.64319 c 1.50546,-3.51823 1.47858,-7.70451 -0.0719,-11.20325 l 0,0 9.61148,5.56006 z"
       id="path6874-4-6-2-7-8-1-5-3-9-5-0-0-9-0" />
    <path
       inkscape:export-ydpi="300"
       inkscape:export-xdpi="300"
       inkscape:export-filename="C:\Users\AG\scm\wwwcrossbar\design\hiw_crossbar_call.png"
       inkscape:connector-curvature="0"
       style="fill:#2a2a2a;fill-opacity:1;stroke:#2a2a2a;stroke-width:2.39769959;stroke-linecap:round;stroke-linejoin:round;stroke-miterlimit:4;stroke-opacity:1;stroke-dasharray:none"
       d="m -482.18884,-503.75208 101.73229,-0.36355"
       id="path6872-5-8-1-5-4-1-02-9-6-2-6-6-1-3-0" />
    <path
       inkscape:transform-center-y="-19.284559"
       inkscape:transform-center-x="3.9817072"
       inkscape:export-ydpi="300"
       inkscape:export-xdpi="300"
       inkscape:export-filename="C:\Users\AG\scm\wwwcrossbar\design\hiw_crossbar_call.png"
       inkscape:connector-curvature="0"
       style="fill:#2a2a2a;fill-opacity:1;fill-rule:evenodd;stroke:#2a2a2a;stroke-width:1.60683107;stroke-opacity:1"
       d="m -372.25902,-504.2481 -9.53955,5.64319 c 1.50546,-3.51823 1.47859,-7.70451 -0.0719,-11.20326 l 0,0 9.61148,5.56007 z"
       id="path6874-4-6-2-7-8-1-5-3-9-5-0-0-6-7-6" />
    <text
       inkscape:export-ydpi="300"
       inkscape:export-xdpi="300"
       inkscape:export-filename="C:\Users\AG\scm\wwwcrossbar\design\hiw_crossbar_call.png"
       sodipodi:linespacing="125%"
       id="text7599-7-1-8-4-2-5-6-1-8-9"
       y="-462.56555"
       x="-461.7301"
       style="font-size:15.98466301px;font-style:normal;font-variant:normal;font-weight:normal;font-stretch:normal;line-height:125%;letter-spacing:0px;word-spacing:0px;fill:#1a1a1f;fill-opacity:0.94117647;stroke:none;font-family:Open Sans;-inkscape-font-specification:Open Sans"
       xml:space="preserve"><tspan
         id="tspan5129-4-0-76-9-6-4-8"
         y="-462.56555"
         x="-461.7301"
         sodipodi:role="line">Call Result</tspan></text>
    <text
       inkscape:export-ydpi="300"
       inkscape:export-xdpi="300"
       inkscape:export-filename="C:\Users\AG\scm\wwwcrossbar\design\hiw_crossbar_call.png"
       sodipodi:linespacing="125%"
       id="text7599-7-1-8-4-2-5-6-1-4-4-9"
       y="-464.28827"
       x="-219.30095"
       style="font-size:15.98466301px;font-style:normal;font-variant:normal;font-weight:normal;font-stretch:normal;line-height:125%;letter-spacing:0px;word-spacing:0px;fill:#1a1a1a;fill-opacity:1;stroke:none;font-family:Open Sans;-inkscape-font-specification:Open Sans"
       xml:space="preserve"><tspan
         id="tspan5129-4-0-76-9-6-0-3-7"
         y="-464.28827"
         x="-219.30095"
         sodipodi:role="line">Return</tspan></text>
    <path
       style="fill:#1a1a1a"
       inkscape:connector-curvature="0"
       d="m -354.7628,-540.32873 91.93146,0 0,91.93259 -91.93146,0 z"
       id="rect3842-15-6-1-76" />
    <path
       inkscape:connector-curvature="0"
       d="m -354.7628,-515.03485 0,9.19328 21.66595,-0.0659 14.42405,14.42426 6.64319,-6.64332 -17.05788,-17.05804 z"
       style="text-indent:0;text-align:start;text-transform:none;direction:ltr;block-progression:tb;baseline-shift:baseline;color:#000000;fill:#ffde00;enable-background:accumulate"
       id="path3902-18" />
    <path
       inkscape:connector-curvature="0"
       d="m -299.01212,-485.09927 -6.64319,6.64322 16.48905,16.48928 26.33435,0 0,-9.21736 -22.26466,0 z"
       style="text-indent:0;text-align:start;text-transform:none;direction:ltr;block-progression:tb;baseline-shift:baseline;color:#000000;fill:#ffde00;enable-background:accumulate"
       id="path5387-7-4-4-2-1-6-9" />
    <path
       inkscape:connector-curvature="0"
       d="m -288.50895,-515.14974 -43.86394,44.06732 -22.39106,0 0,9.19328 26.25161,0 44.01333,-43.9835 21.66595,0 0,-9.2771 z"
       style="text-indent:0;text-align:start;text-transform:none;direction:ltr;block-progression:tb;baseline-shift:baseline;color:#000000;fill:#ffde00;enable-background:accumulate"
       id="path5387-7-4-4-5-7-4-8-2" />
    <g
       style="font-size:21.29887199px;font-style:normal;font-variant:normal;font-weight:normal;font-stretch:normal;line-height:125%;letter-spacing:0px;word-spacing:0px;fill:#ffffff;fill-opacity:1;stroke:none;font-family:Play;-inkscape-font-specification:Play"
       id="text5011-1-0-1-7">
      <path
         d="m -342.84636,-524.38909 c -1.22462,0.24499 -2.39368,0.36749 -3.50717,0.36749 -0.44547,0 -0.86579,-0.0195 -1.26096,-0.0586 -0.39519,-0.0391 -0.83496,-0.12258 -1.31933,-0.25051 -0.48438,-0.12793 -0.89638,-0.30046 -1.236,-0.51759 -0.33962,-0.21712 -0.62632,-0.52336 -0.86009,-0.91871 -0.23378,-0.39535 -0.35067,-0.86027 -0.35067,-1.39476 l 0,-4.75998 c 0,-2.18213 1.67568,-3.2732 5.02705,-3.27321 0.82399,1e-5 1.97079,0.1225 3.4404,0.36748 l 0,1.95414 c -1.32486,-0.31192 -2.46044,-0.46788 -3.40676,-0.46789 -0.37853,10e-6 -0.68749,0.0111 -0.92687,0.0334 -0.23938,0.0223 -0.48998,0.0779 -0.75178,0.16692 -0.26182,0.089 -0.45669,0.23098 -0.58462,0.42584 -0.12793,0.19488 -0.1919,0.44828 -0.19189,0.7602 l 0,4.60962 c -10e-6,0.97962 0.89619,1.46943 2.6886,1.46943 0.79069,0 1.87072,-0.1614 3.24009,-0.4842 z"
         style="font-weight:bold;fill:#ffffff;-inkscape-font-specification:Play Bold"
         id="path3248"
         inkscape:connector-curvature="0" />
      <path
         d="m -335.97067,-530.41819 -0.83538,0 c -0.66804,10e-6 -1.17186,0.10296 -1.51148,0.30887 -0.33963,0.20592 -0.50944,0.55948 -0.50943,1.06066 l 0,4.85988 -2.43835,0 0,-8.08365 2.32163,0 0,1.41999 c 0.0112,-0.40095 0.24227,-0.76563 0.69317,-1.09405 0.4509,-0.3284 0.92134,-0.4926 1.41133,-0.49261 l 0.86851,0 z"
         style="font-weight:bold;fill:#ffffff;-inkscape-font-specification:Play Bold"
         id="path3250"
         inkscape:connector-curvature="0" />
      <path
         d="m -326.6602,-529.34937 0,2.3884 c -1e-5,0.52328 -0.0835,0.97138 -0.25051,1.3443 -0.16702,0.37292 -0.37302,0.66234 -0.618,0.86825 -0.245,0.20592 -0.56508,0.3646 -0.96025,0.47605 -0.39519,0.11145 -0.75698,0.18111 -1.08538,0.20897 -0.32842,0.0279 -0.72648,0.0418 -1.1942,0.0418 -0.46773,0 -0.8658,-0.0139 -1.1942,-0.0418 -0.32841,-0.0279 -0.69029,-0.0975 -1.08564,-0.20897 -0.39535,-0.11145 -0.71552,-0.27013 -0.9605,-0.47605 -0.245,-0.20591 -0.45099,-0.49533 -0.618,-0.86825 -0.16701,-0.37292 -0.25051,-0.82102 -0.25051,-1.3443 l 0,-2.3884 c 0,-0.55692 0.0863,-1.03296 0.25892,-1.42815 0.17261,-0.39517 0.38422,-0.69852 0.63482,-0.91005 0.25059,-0.21151 0.57628,-0.3758 0.97707,-0.49286 0.40078,-0.11705 0.75985,-0.18943 1.07722,-0.21713 0.31736,-0.0277 0.7043,-0.0415 1.16082,-0.0415 0.4565,1e-5 0.84344,0.0139 1.16081,0.0415 0.31736,0.0277 0.67644,0.10008 1.07723,0.21713 0.40077,0.11706 0.72638,0.28135 0.97681,0.49286 0.25042,0.21153 0.46194,0.51488 0.63457,0.91005 0.1726,0.39519 0.25891,0.87123 0.25892,1.42815 z m -2.43835,2.67229 0,-3.0566 c -1e-5,-0.43425 -0.11137,-0.7432 -0.3341,-0.92686 -0.22274,-0.18366 -0.66812,-0.27548 -1.33615,-0.27549 -0.66803,10e-6 -1.11333,0.0918 -1.33589,0.27549 -0.22257,0.18366 -0.33385,0.49261 -0.33385,0.92686 l 0,3.0566 c 0,0.42304 0.10848,0.71807 0.32544,0.88507 0.21695,0.16701 0.66505,0.25052 1.3443,0.25052 0.67924,0 1.12743,-0.0835 1.34456,-0.25052 0.21712,-0.167 0.32568,-0.46203 0.32569,-0.88507 z"
         style="font-weight:bold;fill:#ffffff;-inkscape-font-specification:Play Bold"
         id="path3252"
         inkscape:connector-curvature="0" />
      <path
         d="m -317.7952,-527.34528 0,1.01887 c -10e-6,0.40061 -0.0751,0.74567 -0.22528,1.03517 -0.1502,0.28951 -0.33946,0.51504 -0.56779,0.67661 -0.22835,0.16158 -0.52626,0.28687 -0.89374,0.3759 -0.36749,0.089 -0.72096,0.14747 -1.06041,0.17533 -0.33946,0.0279 -0.73752,0.0418 -1.1942,0.0418 -0.87972,0 -1.9431,-0.0836 -3.19013,-0.25077 l 0,-1.61979 c 1.54775,0.23378 2.62234,0.35067 3.22377,0.35067 0.47876,0 0.84897,-0.0473 1.11061,-0.14195 0.26164,-0.0946 0.39246,-0.28109 0.39246,-0.55938 l 0,-0.50154 c 0,-0.25586 -0.0724,-0.44784 -0.21712,-0.57594 -0.14476,-0.1281 -0.45652,-0.19215 -0.93528,-0.19216 l -1.05251,0 c -0.84608,1e-5 -1.5057,-0.1698 -1.97886,-0.50943 -0.47316,-0.33962 -0.70974,-0.83784 -0.70974,-1.49466 l 0,-0.98523 c 0,-0.73496 0.35075,-1.24159 1.05225,-1.51989 0.7015,-0.27828 1.69241,-0.41742 2.97275,-0.41743 0.53449,1e-5 1.49202,0.0501 2.87261,0.15036 l 0,1.55302 c -1.73703,-0.13354 -2.71682,-0.2003 -2.93938,-0.20031 -0.67924,10e-6 -1.10798,0.0473 -1.28619,0.14195 -0.17823,0.0946 -0.26734,0.27549 -0.26733,0.54256 l 0,0.43425 c -10e-6,0.13355 0.0697,0.25604 0.20897,0.36749 0.13931,0.11146 0.35372,0.16718 0.64322,0.16718 l 1.06882,0 c 1.98166,0 2.97249,0.64578 2.9725,1.93732 z"
         style="font-weight:bold;fill:#ffffff;-inkscape-font-specification:Play Bold"
         id="path3254"
         inkscape:connector-curvature="0" />
      <path
         d="m -309.02041,-527.34528 0,1.01887 c -10e-6,0.40061 -0.0751,0.74567 -0.22528,1.03517 -0.1502,0.28951 -0.33946,0.51504 -0.5678,0.67661 -0.22834,0.16158 -0.52626,0.28687 -0.89373,0.3759 -0.3675,0.089 -0.72096,0.14747 -1.06041,0.17533 -0.33946,0.0279 -0.73752,0.0418 -1.1942,0.0418 -0.87972,0 -1.9431,-0.0836 -3.19014,-0.25077 l 0,-1.61979 c 1.54775,0.23378 2.62235,0.35067 3.22378,0.35067 0.47876,0 0.84897,-0.0473 1.11061,-0.14195 0.26163,-0.0946 0.39245,-0.28109 0.39246,-0.55938 l 0,-0.50154 c -1e-5,-0.25586 -0.0724,-0.44784 -0.21713,-0.57594 -0.14475,-0.1281 -0.45651,-0.19215 -0.93527,-0.19216 l -1.05251,0 c -0.84608,1e-5 -1.50571,-0.1698 -1.97886,-0.50943 -0.47316,-0.33962 -0.70974,-0.83784 -0.70974,-1.49466 l 0,-0.98523 c 0,-0.73496 0.35075,-1.24159 1.05225,-1.51989 0.70149,-0.27828 1.69241,-0.41742 2.97275,-0.41743 0.53449,1e-5 1.49202,0.0501 2.8726,0.15036 l 0,1.55302 c -1.73702,-0.13354 -2.71681,-0.2003 -2.93937,-0.20031 -0.67925,10e-6 -1.10798,0.0473 -1.28619,0.14195 -0.17823,0.0946 -0.26734,0.27549 -0.26734,0.54256 l 0,0.43425 c 0,0.13355 0.0697,0.25604 0.20898,0.36749 0.13931,0.11146 0.35372,0.16718 0.64322,0.16718 l 1.06882,0 c 1.98166,0 2.97249,0.64578 2.9725,1.93732 z"
         style="font-weight:bold;fill:#ffffff;-inkscape-font-specification:Play Bold"
         id="path3256"
         inkscape:connector-curvature="0" />
      <path
         d="m -298.92604,-529.71686 0,2.65548 c -10e-6,1.10228 -0.33122,1.88448 -0.99364,2.3466 -0.66243,0.46212 -1.72861,0.69318 -3.19855,0.69318 -1.54741,0 -2.61623,-0.24219 -3.20644,-0.72656 -0.59022,-0.48438 -0.88533,-1.25545 -0.88533,-2.31322 l 0,-8.81862 2.43835,0 0,4.40931 c 0.14474,-0.36731 0.41479,-0.62054 0.81015,-0.75969 0.39534,-0.13914 0.9994,-0.20871 1.81219,-0.20872 0.69011,1e-5 1.2523,0.0557 1.68656,0.16692 0.43425,0.11129 0.76274,0.29223 0.98548,0.54282 0.22273,0.2506 0.37028,0.52617 0.44266,0.82671 0.0724,0.30056 0.10856,0.69582 0.10857,1.18579 z m -2.43835,2.9725 0,-2.98932 c -10e-6,-0.52327 -0.0974,-0.85448 -0.29231,-0.99363 -0.19487,-0.13914 -0.67644,-0.20871 -1.44471,-0.20872 -0.69046,10e-6 -1.14145,0.089 -1.35296,0.26708 -0.21153,0.17805 -0.31729,0.48981 -0.31728,0.93527 l 0,2.98932 c -10e-6,0.47911 0.10304,0.79937 0.30912,0.96076 0.20608,0.16141 0.6654,0.24211 1.37794,0.24211 0.71254,0 1.17738,-0.0807 1.39451,-0.24211 0.21712,-0.16139 0.32568,-0.48165 0.32569,-0.96076 z"
         style="font-weight:bold;fill:#ffffff;-inkscape-font-specification:Play Bold"
         id="path3258"
         inkscape:connector-curvature="0" />
      <path
         d="m -289.75064,-524.18878 -2.38839,0 0,-0.73497 c -0.17806,0.3228 -0.43409,0.55386 -0.7681,0.69317 -0.33402,0.13932 -0.9465,0.20898 -1.83743,0.20898 -1.09107,0 -1.81474,-0.16701 -2.17102,-0.50103 -0.35627,-0.33401 -0.5344,-1.02991 -0.5344,-2.08768 0,-0.95753 0.18374,-1.62284 0.55122,-1.99594 0.36749,-0.37308 1.02439,-0.55963 1.97071,-0.55963 l 2.73907,0 0,-0.55098 c -10e-6,-0.48997 -0.11418,-0.81566 -0.34251,-0.97707 -0.22835,-0.16139 -0.70983,-0.24209 -1.44446,-0.2421 -0.69046,10e-6 -1.63695,0.0668 -2.83947,0.20031 l 0,-1.53671 c 0.92423,-0.11111 1.95414,-0.16666 3.08973,-0.16667 1.49202,1e-5 2.52753,0.18095 3.10655,0.54282 0.57899,0.36188 0.8685,1.07714 0.8685,2.14578 z m -2.43834,-2.07086 0,-1.56984 -1.67025,0 c -0.5345,0 -0.86851,0.0612 -1.00205,0.18348 -0.13354,0.12233 -0.20031,0.45074 -0.2003,0.98523 -1e-5,0.52328 0.0696,0.84065 0.20871,0.9521 0.13914,0.11145 0.49261,0.16718 1.06041,0.16718 0.27828,0 0.48428,-0.003 0.61799,-0.008 0.13371,-0.006 0.27846,-0.0195 0.43426,-0.0418 0.15579,-0.0223 0.26435,-0.0584 0.32569,-0.10856 0.0613,-0.0501 0.11425,-0.11969 0.15877,-0.20872 0.0445,-0.089 0.0668,-0.20591 0.0668,-0.35066 z"
         style="font-weight:bold;fill:#ffffff;-inkscape-font-specification:Play Bold"
         id="path3260"
         inkscape:connector-curvature="0" />
      <path
         d="m -282.31072,-530.41819 -0.83538,0 c -0.66804,10e-6 -1.17186,0.10296 -1.51148,0.30887 -0.33962,0.20592 -0.50944,0.55948 -0.50943,1.06066 l 0,4.85988 -2.43835,0 0,-8.08365 2.32163,0 0,1.41999 c 0.0112,-0.40095 0.24227,-0.76563 0.69317,-1.09405 0.4509,-0.3284 0.92135,-0.4926 1.41133,-0.49261 l 0.86851,0 z"
         style="font-weight:bold;fill:#ffffff;-inkscape-font-specification:Play Bold"
         id="path3262"
         inkscape:connector-curvature="0" />
      <path
         d="m -278.94576,-524.18878 -1.93732,0 0,-1.80379 1.93732,0 z"
         style="font-size:16.70145607px;fill:#ffffff;font-family:Play;-inkscape-font-specification:Play"
         id="path3264"
         inkscape:connector-curvature="0" />
      <path
         d="m -274.97325,-533.62515 -1.50307,0 0,-1.56983 1.50307,0 z m 0,9.43637 -1.50307,0 0,-8.08365 1.50307,0 z"
         style="font-size:16.70145607px;fill:#ffffff;font-family:Play;-inkscape-font-specification:Play"
         id="path3266"
         inkscape:connector-curvature="0" />
      <path
         d="m -265.21782,-529.55019 0,2.80583 c -10e-6,0.5012 -0.0613,0.92441 -0.18375,1.26964 -0.1225,0.34523 -0.27838,0.61247 -0.46764,0.80173 -0.18927,0.18927 -0.45932,0.33402 -0.81014,0.43426 -0.35085,0.10024 -0.68495,0.16148 -1.00231,0.18374 -0.31737,0.0223 -0.73769,0.0334 -1.26096,0.0334 -0.66804,0 -1.18851,-0.0223 -1.56143,-0.0668 -0.37293,-0.0445 -0.74593,-0.15308 -1.11902,-0.32569 -0.3731,-0.17262 -0.64034,-0.44819 -0.80174,-0.82672 -0.1614,-0.37852 -0.2421,-0.87972 -0.2421,-1.50358 l 0,-2.80583 c 0,-0.53415 0.064,-0.98497 0.19215,-1.35246 0.1281,-0.36747 0.28398,-0.65146 0.46764,-0.85194 0.18365,-0.20047 0.45362,-0.35355 0.80989,-0.45923 0.35627,-0.10567 0.68748,-0.16963 0.99364,-0.1919 0.30615,-0.0222 0.72647,-0.0334 1.26097,-0.0334 0.53448,10e-6 0.95481,0.0111 1.26096,0.0334 0.30615,0.0223 0.63745,0.0862 0.9939,0.1919 0.35643,0.10568 0.62648,0.25876 0.81014,0.45923 0.18365,0.20048 0.33953,0.48447 0.46764,0.85194 0.1281,0.36749 0.19215,0.81831 0.19216,1.35246 z m -1.53671,3.02296 0,-3.27322 c -1e-5,-0.74617 -0.15037,-1.20829 -0.45108,-1.38635 -0.30072,-0.17804 -0.87972,-0.26707 -1.73701,-0.26707 -0.8573,0 -1.43622,0.089 -1.73677,0.26707 -0.30054,0.17806 -0.45082,0.64018 -0.45081,1.38635 l 0,3.27322 c -10e-6,0.35644 0.0389,0.64042 0.11671,0.85194 0.0778,0.21153 0.22256,0.3646 0.43426,0.45923 0.21169,0.0946 0.42881,0.15308 0.65138,0.17533 0.22256,0.0223 0.55097,0.0334 0.98523,0.0334 0.43425,0 0.76274,-0.0111 0.98548,-0.0334 0.22273,-0.0222 0.43985,-0.0807 0.65138,-0.17533 0.21151,-0.0946 0.35626,-0.2477 0.43425,-0.45923 0.078,-0.21152 0.11697,-0.4955 0.11698,-0.85194 z"
         style="font-size:16.70145607px;fill:#ffffff;font-family:Play;-inkscape-font-specification:Play"
         id="path3268"
         inkscape:connector-curvature="0" />
    </g>
    <flowRoot
       xml:space="preserve"
       id="flowRoot4457"
       style="font-size:40px;font-style:normal;font-variant:normal;font-weight:normal;font-stretch:normal;line-height:125%;letter-spacing:0px;word-spacing:0px;fill:#000000;fill-opacity:1;stroke:none;font-family:Open Sans;-inkscape-font-specification:Open Sans"><flowRegion
         id="flowRegion4459"><rect
           id="rect4461"
           width="567.85712"
           height="320.71429"
           x="309.28571"
           y="-70.189613" /></flowRegion><flowPara
         id="flowPara4463" /></flowRoot>  </g>
</svg>
