<?xml version="1.0" encoding="UTF-8" standalone="no"?>
<!-- Created with Inkscape (http://www.inkscape.org/) -->

<svg
   xmlns:dc="http://purl.org/dc/elements/1.1/"
   xmlns:cc="http://creativecommons.org/ns#"
   xmlns:rdf="http://www.w3.org/1999/02/22-rdf-syntax-ns#"
   xmlns:svg="http://www.w3.org/2000/svg"
   xmlns="http://www.w3.org/2000/svg"
   xmlns:xlink="http://www.w3.org/1999/xlink"
   xmlns:sodipodi="http://sodipodi.sourceforge.net/DTD/sodipodi-0.dtd"
   xmlns:inkscape="http://www.inkscape.org/namespaces/inkscape"
   width="55.380928"
   height="94.403214"
   id="svg6718"
   version="1.1"
   inkscape:version="0.48.4 r9939"
   sodipodi:docname="crossbar_arch_java.svg">
  <defs
     id="defs6720">
    <filter
       id="filter5034-4"
       inkscape:label="Desaturate"
       x="0"
       y="0"
       width="1"
       height="1"
       inkscape:menu="Color"
       inkscape:menu-tooltip="Render in shades of gray by reducing saturation to zero"
       color-interpolation-filters="sRGB">
      <feColorMatrix
         id="feColorMatrix5036-8"
         type="saturate"
         values="0" />
    </filter>
    <filter
       id="filter6583"
       inkscape:label="Desaturate"
       x="0"
       y="0"
       width="1"
       height="1"
       inkscape:menu="Color"
       inkscape:menu-tooltip="Render in shades of gray by reducing saturation to zero"
       color-interpolation-filters="sRGB">
      <feColorMatrix
         id="feColorMatrix6585"
         type="saturate"
         values="0" />
    </filter>
    <filter
       id="filter6587"
       inkscape:label="Desaturate"
       x="0"
       y="0"
       width="1"
       height="1"
       inkscape:menu="Color"
       inkscape:menu-tooltip="Render in shades of gray by reducing saturation to zero"
       color-interpolation-filters="sRGB">
      <feColorMatrix
         id="feColorMatrix6589"
         type="saturate"
         values="0" />
    </filter>
    <filter
       id="filter6591"
       inkscape:label="Desaturate"
       x="0"
       y="0"
       width="1"
       height="1"
       inkscape:menu="Color"
       inkscape:menu-tooltip="Render in shades of gray by reducing saturation to zero"
       color-interpolation-filters="sRGB">
      <feColorMatrix
         id="feColorMatrix6593"
         type="saturate"
         values="0" />
    </filter>
    <filter
       id="filter6595"
       inkscape:label="Desaturate"
       x="0"
       y="0"
       width="1"
       height="1"
       inkscape:menu="Color"
       inkscape:menu-tooltip="Render in shades of gray by reducing saturation to zero"
       color-interpolation-filters="sRGB">
      <feColorMatrix
         id="feColorMatrix6597"
         type="saturate"
         values="0" />
    </filter>
    <filter
       id="filter6599"
       inkscape:label="Desaturate"
       x="0"
       y="0"
       width="1"
       height="1"
       inkscape:menu="Color"
       inkscape:menu-tooltip="Render in shades of gray by reducing saturation to zero"
       color-interpolation-filters="sRGB">
      <feColorMatrix
         id="feColorMatrix6601"
         type="saturate"
         values="0" />
    </filter>
    <filter
       id="filter6603"
       inkscape:label="Desaturate"
       x="0"
       y="0"
       width="1"
       height="1"
       inkscape:menu="Color"
       inkscape:menu-tooltip="Render in shades of gray by reducing saturation to zero"
       color-interpolation-filters="sRGB">
      <feColorMatrix
         id="feColorMatrix6605"
         type="saturate"
         values="0" />
    </filter>
    <filter
       id="filter4592"
       inkscape:label="Desaturate"
       x="0"
       y="0"
       width="1"
       height="1"
       inkscape:menu="Color"
       inkscape:menu-tooltip="Render in shades of gray by reducing saturation to zero"
       color-interpolation-filters="sRGB">
      <feColorMatrix
         id="feColorMatrix4594"
         type="saturate"
         values="0" />
    </filter>
    <linearGradient
       inkscape:collect="always"
       xlink:href="#linearGradient6056"
       id="linearGradient3539"
       gradientUnits="userSpaceOnUse"
       x1="331.34576"
       y1="452.02783"
       x2="331.34576"
       y2="574.2973" />
    <linearGradient
       id="linearGradient6056">
      <stop
         style="stop-color:#ffffff;stop-opacity:1;"
         offset="0"
         id="stop6062" />
      <stop
         style="stop-color:#838383;stop-opacity:1;"
         offset="1"
         id="stop6064" />
    </linearGradient>
    <linearGradient
       inkscape:collect="always"
       xlink:href="#linearGradient6056"
       id="linearGradient3531"
       gradientUnits="userSpaceOnUse"
       x1="331.34576"
       y1="452.02783"
       x2="331.34576"
       y2="574.2973" />
    <linearGradient
       id="linearGradient6858">
      <stop
         style="stop-color:#ffffff;stop-opacity:1;"
         offset="0"
         id="stop6860" />
      <stop
         style="stop-color:#838383;stop-opacity:1;"
         offset="1"
         id="stop6862" />
    </linearGradient>
    <linearGradient
       inkscape:collect="always"
       xlink:href="#linearGradient6056"
       id="linearGradient3533"
       gradientUnits="userSpaceOnUse"
       x1="331.34576"
       y1="452.02783"
       x2="331.34576"
       y2="574.2973" />
    <linearGradient
       id="linearGradient6865">
      <stop
         style="stop-color:#ffffff;stop-opacity:1;"
         offset="0"
         id="stop6867" />
      <stop
         style="stop-color:#838383;stop-opacity:1;"
         offset="1"
         id="stop6869" />
    </linearGradient>
    <linearGradient
       inkscape:collect="always"
       xlink:href="#linearGradient6056"
       id="linearGradient3535"
       gradientUnits="userSpaceOnUse"
       x1="331.34576"
       y1="452.02783"
       x2="331.34576"
       y2="574.2973" />
    <linearGradient
       id="linearGradient6872">
      <stop
         style="stop-color:#ffffff;stop-opacity:1;"
         offset="0"
         id="stop6874" />
      <stop
         style="stop-color:#838383;stop-opacity:1;"
         offset="1"
         id="stop6876" />
    </linearGradient>
    <linearGradient
       inkscape:collect="always"
       xlink:href="#linearGradient6056"
       id="linearGradient3537"
       gradientUnits="userSpaceOnUse"
       x1="331.34576"
       y1="452.02783"
       x2="331.34576"
       y2="574.2973" />
    <linearGradient
       id="linearGradient6879">
      <stop
         style="stop-color:#ffffff;stop-opacity:1;"
         offset="0"
         id="stop6881" />
      <stop
         style="stop-color:#838383;stop-opacity:1;"
         offset="1"
         id="stop6883" />
    </linearGradient>
    <linearGradient
       inkscape:collect="always"
       xlink:href="#linearGradient6114"
       id="linearGradient3547"
       gradientUnits="userSpaceOnUse"
       x1="346.11499"
       y1="520.72614"
       x2="346.11499"
       y2="567.32123" />
    <linearGradient
       id="linearGradient6114">
      <stop
         id="stop6116"
         offset="0"
         style="stop-color:#ffffff;stop-opacity:0;" />
      <stop
         id="stop6118"
         offset="1"
         style="stop-color:#000000;stop-opacity:0.53846157;" />
    </linearGradient>
    <linearGradient
       inkscape:collect="always"
       xlink:href="#linearGradient6114"
       id="linearGradient3541"
       gradientUnits="userSpaceOnUse"
       x1="346.11499"
       y1="520.72614"
       x2="346.11499"
       y2="567.32123" />
    <linearGradient
       id="linearGradient6890">
      <stop
         id="stop6892"
         offset="0"
         style="stop-color:#ffffff;stop-opacity:0;" />
      <stop
         id="stop6894"
         offset="1"
         style="stop-color:#000000;stop-opacity:0.53846157;" />
    </linearGradient>
    <linearGradient
       inkscape:collect="always"
       xlink:href="#linearGradient6114"
       id="linearGradient3543"
       gradientUnits="userSpaceOnUse"
       x1="346.11499"
       y1="520.72614"
       x2="346.11499"
       y2="567.32123" />
    <linearGradient
       id="linearGradient6897">
      <stop
         id="stop6899"
         offset="0"
         style="stop-color:#ffffff;stop-opacity:0;" />
      <stop
         id="stop6901"
         offset="1"
         style="stop-color:#000000;stop-opacity:0.53846157;" />
    </linearGradient>
    <linearGradient
       inkscape:collect="always"
       xlink:href="#linearGradient6114"
       id="linearGradient3545"
       gradientUnits="userSpaceOnUse"
       x1="346.11499"
       y1="520.72614"
       x2="346.11499"
       y2="567.32123" />
    <linearGradient
       id="linearGradient6904">
      <stop
         id="stop6906"
         offset="0"
         style="stop-color:#ffffff;stop-opacity:0;" />
      <stop
         id="stop6908"
         offset="1"
         style="stop-color:#000000;stop-opacity:0.53846157;" />
    </linearGradient>
    <radialGradient
       inkscape:collect="always"
       xlink:href="#linearGradient6030"
       id="radialGradient3557"
       gradientUnits="userSpaceOnUse"
       gradientTransform="matrix(4.39697,-0.781364,0.273452,1.5388,-1379.4,111.904)"
       cx="363.84866"
       cy="494.10422"
       fx="363.84866"
       fy="494.10422"
       r="88.392456" />
    <linearGradient
       id="linearGradient6030">
      <stop
         id="stop6032"
         offset="0"
         style="stop-color:#ffffff;stop-opacity:1;" />
      <stop
         style="stop-color:#000000;stop-opacity:1;"
         offset="0.5"
         id="stop6038" />
      <stop
         id="stop6040"
         offset="0.51028222"
         style="stop-color:#ffffff;stop-opacity:1;" />
      <stop
         id="stop6034"
         offset="1"
         style="stop-color:#000000;stop-opacity:1;" />
    </linearGradient>
    <radialGradient
       inkscape:collect="always"
       xlink:href="#linearGradient6030"
       id="radialGradient3549"
       gradientUnits="userSpaceOnUse"
       gradientTransform="matrix(4.39697,-0.781364,0.273452,1.5388,-1379.4,111.904)"
       cx="363.84866"
       cy="494.10422"
       fx="363.84866"
       fy="494.10422"
       r="88.392456" />
    <linearGradient
       id="linearGradient6923">
      <stop
         id="stop6925"
         offset="0"
         style="stop-color:#ffffff;stop-opacity:1;" />
      <stop
         style="stop-color:#000000;stop-opacity:1;"
         offset="0.5"
         id="stop6927" />
      <stop
         id="stop6929"
         offset="0.51028222"
         style="stop-color:#ffffff;stop-opacity:1;" />
      <stop
         id="stop6931"
         offset="1"
         style="stop-color:#000000;stop-opacity:1;" />
    </linearGradient>
    <radialGradient
       inkscape:collect="always"
       xlink:href="#linearGradient6030"
       id="radialGradient3551"
       gradientUnits="userSpaceOnUse"
       gradientTransform="matrix(4.39697,-0.781364,0.273452,1.5388,-1379.4,111.904)"
       cx="363.84866"
       cy="494.10422"
       fx="363.84866"
       fy="494.10422"
       r="88.392456" />
    <linearGradient
       id="linearGradient6934">
      <stop
         id="stop6936"
         offset="0"
         style="stop-color:#ffffff;stop-opacity:1;" />
      <stop
         style="stop-color:#000000;stop-opacity:1;"
         offset="0.5"
         id="stop6938" />
      <stop
         id="stop6940"
         offset="0.51028222"
         style="stop-color:#ffffff;stop-opacity:1;" />
      <stop
         id="stop6942"
         offset="1"
         style="stop-color:#000000;stop-opacity:1;" />
    </linearGradient>
    <radialGradient
       inkscape:collect="always"
       xlink:href="#linearGradient6030"
       id="radialGradient3553"
       gradientUnits="userSpaceOnUse"
       gradientTransform="matrix(4.39697,-0.781364,0.273452,1.5388,-1379.4,111.904)"
       cx="363.84866"
       cy="494.10422"
       fx="363.84866"
       fy="494.10422"
       r="88.392456" />
    <linearGradient
       id="linearGradient6945">
      <stop
         id="stop6947"
         offset="0"
         style="stop-color:#ffffff;stop-opacity:1;" />
      <stop
         style="stop-color:#000000;stop-opacity:1;"
         offset="0.5"
         id="stop6949" />
      <stop
         id="stop6951"
         offset="0.51028222"
         style="stop-color:#ffffff;stop-opacity:1;" />
      <stop
         id="stop6953"
         offset="1"
         style="stop-color:#000000;stop-opacity:1;" />
    </linearGradient>
    <radialGradient
       inkscape:collect="always"
       xlink:href="#linearGradient6030"
       id="radialGradient3555"
       gradientUnits="userSpaceOnUse"
       gradientTransform="matrix(4.39697,-0.781364,0.273452,1.5388,-1379.4,111.904)"
       cx="363.84866"
       cy="494.10422"
       fx="363.84866"
       fy="494.10422"
       r="88.392456" />
    <linearGradient
       id="linearGradient6956">
      <stop
         id="stop6958"
         offset="0"
         style="stop-color:#ffffff;stop-opacity:1;" />
      <stop
         style="stop-color:#000000;stop-opacity:1;"
         offset="0.5"
         id="stop6960" />
      <stop
         id="stop6962"
         offset="0.51028222"
         style="stop-color:#ffffff;stop-opacity:1;" />
      <stop
         id="stop6964"
         offset="1"
         style="stop-color:#000000;stop-opacity:1;" />
    </linearGradient>
    <filter
       id="filter4726"
       inkscape:label="Desaturate"
       x="0"
       y="0"
       width="1"
       height="1"
       inkscape:menu="Color"
       inkscape:menu-tooltip="Render in shades of gray by reducing saturation to zero"
       color-interpolation-filters="sRGB">
      <feColorMatrix
         id="feColorMatrix4728"
         type="saturate"
         values="0" />
    </filter>
    <filter
       id="filter5670"
       inkscape:label="Desaturate"
       x="0"
       y="0"
       width="1"
       height="1"
       inkscape:menu="Color"
       inkscape:menu-tooltip="Render in shades of gray by reducing saturation to zero"
       color-interpolation-filters="sRGB">
      <feColorMatrix
         id="feColorMatrix5672"
         type="saturate"
         values="0" />
    </filter>
  </defs>
  <sodipodi:namedview
     id="base"
     pagecolor="#ffffff"
     bordercolor="#666666"
     borderopacity="1.0"
     inkscape:pageopacity="0.0"
     inkscape:pageshadow="2"
     inkscape:zoom="3.959798"
     inkscape:cx="40.553356"
     inkscape:cy="36.396447"
     inkscape:document-units="px"
     inkscape:current-layer="layer1"
     showgrid="false"
     fit-margin-top="5"
     fit-margin-right="5"
     fit-margin-left="5"
     fit-margin-bottom="5"
     inkscape:window-width="931"
     inkscape:window-height="671"
     inkscape:window-x="1517"
     inkscape:window-y="226"
     inkscape:window-maximized="0" />
  <metadata
     id="metadata6723">
    <rdf:RDF>
      <cc:Work
         rdf:about="">
        <dc:format>image/svg+xml</dc:format>
        <dc:type
           rdf:resource="http://purl.org/dc/dcmitype/StillImage" />
        <dc:title />
      </cc:Work>
    </rdf:RDF>
  </metadata>
  <g
     inkscape:label="Ebene 1"
     inkscape:groupmode="layer"
     id="layer1"
     transform="translate(-800.03251,-568.87853)">
    <g
       id="Ebene_x0020_1"
       transform="matrix(0.18162934,0,0,0.18162934,805.75094,574.24233)"
       style="fill:#808080">
      <metadata
         id="CorelCorpID_0Corel-Layer" />
      <g
         id="_198302696"
         style="fill:#808080">
        <path
           inkscape:connector-curvature="0"
           d="m 82.6262,243.321 c 0,0 -11.9391,7.2672 8.30525,9.34351 24.3967,3.11437 37.3741,2.59576 64.3663,-2.59534 0,0 7.2672,4.67165 17.1297,8.30546 -60.7327,25.9542 -137.557,-1.5577 -89.8013,-15.0536 l 5e-5,-3e-5 z m -7.78643,-33.7402 c 0,0 -12.9769,9.86233 7.2672,11.9386 26.4735,2.59576 47.2368,3.11437 83.0534,-4.15263 0,0 4.67186,5.19089 12.4579,7.78643 -73.1906,21.8016 -155.206,2.07631 -102.778,-15.5725 l -5e-4,1e-4 z m 143.267,59.1754 c 0,0 8.82449,7.26741 -9.86254,12.9769 -34.7787,10.3818 -145.863,13.4961 -177.008,0 -10.9006,-4.67144 9.86275,-11.4198 16.6105,-12.4579 6.74817,-1.55708 10.3816,-1.55708 10.3816,-1.55708 -11.9384,-8.30546 -79.4195,17.1295 -34.2595,24.3967 124.061,20.2443 226.321,-8.82428 194.137,-23.3587 l 9.4e-4,8e-5 z M 88.33577,174.283 c 0,0 -56.5799,13.4961 -20.2439,18.1678 15.5725,2.0761 46.1983,1.5575 74.7481,-0.51903 23.3585,-2.07631 46.7176,-6.22894 46.7176,-6.22894 0,0 -8.30546,3.63339 -14.0156,7.26741 -57.6179,15.053 -168.183,8.30504 -136.519,-7.26741 26.9923,-12.9773 49.3125,-11.4198 49.3125,-11.4198 l 3e-4,-3e-5 z m 101.222,56.5799 c 58.1372,-30.1069 31.1451,-59.1754 12.4579,-55.5416 -4.67186,1.03805 -6.74817,2.07631 -6.74817,2.07631 0,0 1.55729,-3.11457 5.19068,-4.15263 36.8552,-12.9773 65.9238,38.9309 -11.9384,59.1752 0,0 0.51861,-0.51903 1.03805,-1.55729 l -6e-5,1e-5 z m -95.5117,82.0153 c 56.0613,3.63381 141.71,-2.07631 143.786,-28.5494 0,0 -4.15242,10.3818 -46.1981,18.1676 -47.7558,8.8247 -106.931,7.78643 -141.71,2.07631 0,0 7.26699,6.22915 44.122,8.30546 l 1e-4,3e-5 z"
           id="_227268128"
           style="fill:#808080" />
        <path
           inkscape:connector-curvature="0"
           d="m 154.26,2.98539 c 0,0 32.1832,32.7022 -30.6261,82.0153 -50.3512,39.9692 -11.4198,62.8088 0,88.7629 -29.5878,-26.4728 -50.8702,-49.8319 -36.336,-71.6335 21.2828,-32.1832 79.939,-47.7554 66.9621,-99.1446 l 0,-10e-5 z m -16.6105,148.977 c 15.053,17.1299 -4.15283,32.7026 -4.15283,32.7026 0,0 38.4121,-19.7253 20.7633,-44.1224 -16.0919,-23.3585 -28.5498,-34.7783 38.9311,-73.7098 0,0 -106.412,26.4735 -55.5416,85.1297 l 3e-5,-1e-4 z m -38.4123,278.748 0,-50.8702 c 0,-12.9775 -7.2672,-21.8016 -25.4354,-21.8016 -10.3816,0 -19.2061,2.59534 -26.9925,5.7097 l 2.59576,9.34351 c 5.7097,-2.07631 12.9769,-4.15283 20.7633,-4.15283 9.86254,0 14.5342,4.15283 14.5342,12.4583 l 0,6.74817 -5.19068,0 c -24.9162,0 -36.336,9.34351 -36.336,24.3967 0,12.4581 7.78623,19.7253 21.8016,19.7253 8.82428,0 15.5727,-4.15283 21.8016,-9.34351 l 1.03826,7.78643 11.4198,0 6e-5,3e-5 z m -14.5346,-16.6109 c -5.19068,4.67165 -10.9008,7.26741 -16.0917,7.26741 -6.74776,0 -10.9004,-4.15263 -10.9004,-11.4198 0,-7.26741 4.15263,-12.4581 20.7633,-12.4581 l 6.22873,0 0,16.6105 7e-5,-10e-6 z m 63.3285,16.6109 -18.1684,0 -21.8014,-71.1147 15.5727,0 13.4961,43.603 3.11437,12.9771 c 6.74817,-18.6868 11.9393,-37.8933 14.0156,-56.5801 l 15.5725,0 c -4.15263,23.3589 -11.4196,48.7937 -21.8014,71.1147 l -7e-5,0 z m 84.0914,0 0,-50.8702 c 0,-12.9775 -7.2672,-21.8016 -25.4352,-21.8016 -10.3818,0 -19.2061,2.59534 -26.9925,5.7097 l 2.07652,9.34351 c 6.22894,-2.07631 13.4961,-4.15283 21.2826,-4.15283 9.86254,0 14.5342,4.15283 14.5342,12.4583 l 0,6.74817 -5.19068,0 c -24.9162,0 -36.336,9.34351 -36.336,24.3967 0,12.4581 7.2672,19.7253 21.2824,19.7253 9.34351,0 16.0917,-4.15283 22.3208,-9.34351 l 1.03826,7.78643 11.4196,0 0,3e-5 z m -14.5344,-16.6109 c -5.19068,4.67165 -10.9008,7.26741 -16.0919,7.26741 -6.74776,0 -10.9004,-4.15263 -10.9004,-11.4198 0,-7.26741 4.15263,-12.4581 20.7633,-12.4581 l 6.22894,0 0,16.6105 6e-5,-10e-6 z m -190.504,28.5496 c -4.15263,6.22894 -10.3818,10.901 -18.1676,13.4961 l -6.74838,-8.30546 c 5.19068,-3.11437 10.3818,-7.78581 12.4579,-11.9386 2.07631,-3.6336 2.59576,-8.8247 2.59576,-20.7633 l 0,-80.977 15.5725,0 0,79.9388 c 0,16.0915 -1.55729,22.3204 -5.71012,28.5496 l -6e-5,-1.4e-4 z"
           id="_230367536"
           style="fill:#808080" />
      </g>
    </g>
  </g>
</svg>
