<?xml version="1.0" encoding="UTF-8" standalone="no"?>
<!-- Created with Inkscape (http://www.inkscape.org/) -->

<svg
   xmlns:dc="http://purl.org/dc/elements/1.1/"
   xmlns:cc="http://creativecommons.org/ns#"
   xmlns:rdf="http://www.w3.org/1999/02/22-rdf-syntax-ns#"
   xmlns:svg="http://www.w3.org/2000/svg"
   xmlns="http://www.w3.org/2000/svg"
   xmlns:xlink="http://www.w3.org/1999/xlink"
   xmlns:sodipodi="http://sodipodi.sourceforge.net/DTD/sodipodi-0.dtd"
   xmlns:inkscape="http://www.inkscape.org/namespaces/inkscape"
   width="113.18871"
   height="37.770023"
   id="svg6718"
   version="1.1"
   inkscape:version="0.48.4 r9939"
   sodipodi:docname="crossbar_arch_node.svg">
  <defs
     id="defs6720">
    <filter
       id="filter5034-4"
       inkscape:label="Desaturate"
       x="0"
       y="0"
       width="1"
       height="1"
       inkscape:menu="Color"
       inkscape:menu-tooltip="Render in shades of gray by reducing saturation to zero"
       color-interpolation-filters="sRGB">
      <feColorMatrix
         id="feColorMatrix5036-8"
         type="saturate"
         values="0" />
    </filter>
    <filter
       id="filter6583"
       inkscape:label="Desaturate"
       x="0"
       y="0"
       width="1"
       height="1"
       inkscape:menu="Color"
       inkscape:menu-tooltip="Render in shades of gray by reducing saturation to zero"
       color-interpolation-filters="sRGB">
      <feColorMatrix
         id="feColorMatrix6585"
         type="saturate"
         values="0" />
    </filter>
    <filter
       id="filter6587"
       inkscape:label="Desaturate"
       x="0"
       y="0"
       width="1"
       height="1"
       inkscape:menu="Color"
       inkscape:menu-tooltip="Render in shades of gray by reducing saturation to zero"
       color-interpolation-filters="sRGB">
      <feColorMatrix
         id="feColorMatrix6589"
         type="saturate"
         values="0" />
    </filter>
    <filter
       id="filter6591"
       inkscape:label="Desaturate"
       x="0"
       y="0"
       width="1"
       height="1"
       inkscape:menu="Color"
       inkscape:menu-tooltip="Render in shades of gray by reducing saturation to zero"
       color-interpolation-filters="sRGB">
      <feColorMatrix
         id="feColorMatrix6593"
         type="saturate"
         values="0" />
    </filter>
    <filter
       id="filter6595"
       inkscape:label="Desaturate"
       x="0"
       y="0"
       width="1"
       height="1"
       inkscape:menu="Color"
       inkscape:menu-tooltip="Render in shades of gray by reducing saturation to zero"
       color-interpolation-filters="sRGB">
      <feColorMatrix
         id="feColorMatrix6597"
         type="saturate"
         values="0" />
    </filter>
    <filter
       id="filter6599"
       inkscape:label="Desaturate"
       x="0"
       y="0"
       width="1"
       height="1"
       inkscape:menu="Color"
       inkscape:menu-tooltip="Render in shades of gray by reducing saturation to zero"
       color-interpolation-filters="sRGB">
      <feColorMatrix
         id="feColorMatrix6601"
         type="saturate"
         values="0" />
    </filter>
    <filter
       id="filter6603"
       inkscape:label="Desaturate"
       x="0"
       y="0"
       width="1"
       height="1"
       inkscape:menu="Color"
       inkscape:menu-tooltip="Render in shades of gray by reducing saturation to zero"
       color-interpolation-filters="sRGB">
      <feColorMatrix
         id="feColorMatrix6605"
         type="saturate"
         values="0" />
    </filter>
    <filter
       id="filter4592"
       inkscape:label="Desaturate"
       x="0"
       y="0"
       width="1"
       height="1"
       inkscape:menu="Color"
       inkscape:menu-tooltip="Render in shades of gray by reducing saturation to zero"
       color-interpolation-filters="sRGB">
      <feColorMatrix
         id="feColorMatrix4594"
         type="saturate"
         values="0" />
    </filter>
    <linearGradient
       inkscape:collect="always"
       xlink:href="#linearGradient6056"
       id="linearGradient3539"
       gradientUnits="userSpaceOnUse"
       x1="331.34576"
       y1="452.02783"
       x2="331.34576"
       y2="574.2973" />
    <linearGradient
       id="linearGradient6056">
      <stop
         style="stop-color:#ffffff;stop-opacity:1;"
         offset="0"
         id="stop6062" />
      <stop
         style="stop-color:#838383;stop-opacity:1;"
         offset="1"
         id="stop6064" />
    </linearGradient>
    <linearGradient
       inkscape:collect="always"
       xlink:href="#linearGradient6056"
       id="linearGradient3531"
       gradientUnits="userSpaceOnUse"
       x1="331.34576"
       y1="452.02783"
       x2="331.34576"
       y2="574.2973" />
    <linearGradient
       id="linearGradient6858">
      <stop
         style="stop-color:#ffffff;stop-opacity:1;"
         offset="0"
         id="stop6860" />
      <stop
         style="stop-color:#838383;stop-opacity:1;"
         offset="1"
         id="stop6862" />
    </linearGradient>
    <linearGradient
       inkscape:collect="always"
       xlink:href="#linearGradient6056"
       id="linearGradient3533"
       gradientUnits="userSpaceOnUse"
       x1="331.34576"
       y1="452.02783"
       x2="331.34576"
       y2="574.2973" />
    <linearGradient
       id="linearGradient6865">
      <stop
         style="stop-color:#ffffff;stop-opacity:1;"
         offset="0"
         id="stop6867" />
      <stop
         style="stop-color:#838383;stop-opacity:1;"
         offset="1"
         id="stop6869" />
    </linearGradient>
    <linearGradient
       inkscape:collect="always"
       xlink:href="#linearGradient6056"
       id="linearGradient3535"
       gradientUnits="userSpaceOnUse"
       x1="331.34576"
       y1="452.02783"
       x2="331.34576"
       y2="574.2973" />
    <linearGradient
       id="linearGradient6872">
      <stop
         style="stop-color:#ffffff;stop-opacity:1;"
         offset="0"
         id="stop6874" />
      <stop
         style="stop-color:#838383;stop-opacity:1;"
         offset="1"
         id="stop6876" />
    </linearGradient>
    <linearGradient
       inkscape:collect="always"
       xlink:href="#linearGradient6056"
       id="linearGradient3537"
       gradientUnits="userSpaceOnUse"
       x1="331.34576"
       y1="452.02783"
       x2="331.34576"
       y2="574.2973" />
    <linearGradient
       id="linearGradient6879">
      <stop
         style="stop-color:#ffffff;stop-opacity:1;"
         offset="0"
         id="stop6881" />
      <stop
         style="stop-color:#838383;stop-opacity:1;"
         offset="1"
         id="stop6883" />
    </linearGradient>
    <linearGradient
       inkscape:collect="always"
       xlink:href="#linearGradient6114"
       id="linearGradient3547"
       gradientUnits="userSpaceOnUse"
       x1="346.11499"
       y1="520.72614"
       x2="346.11499"
       y2="567.32123" />
    <linearGradient
       id="linearGradient6114">
      <stop
         id="stop6116"
         offset="0"
         style="stop-color:#ffffff;stop-opacity:0;" />
      <stop
         id="stop6118"
         offset="1"
         style="stop-color:#000000;stop-opacity:0.53846157;" />
    </linearGradient>
    <linearGradient
       inkscape:collect="always"
       xlink:href="#linearGradient6114"
       id="linearGradient3541"
       gradientUnits="userSpaceOnUse"
       x1="346.11499"
       y1="520.72614"
       x2="346.11499"
       y2="567.32123" />
    <linearGradient
       id="linearGradient6890">
      <stop
         id="stop6892"
         offset="0"
         style="stop-color:#ffffff;stop-opacity:0;" />
      <stop
         id="stop6894"
         offset="1"
         style="stop-color:#000000;stop-opacity:0.53846157;" />
    </linearGradient>
    <linearGradient
       inkscape:collect="always"
       xlink:href="#linearGradient6114"
       id="linearGradient3543"
       gradientUnits="userSpaceOnUse"
       x1="346.11499"
       y1="520.72614"
       x2="346.11499"
       y2="567.32123" />
    <linearGradient
       id="linearGradient6897">
      <stop
         id="stop6899"
         offset="0"
         style="stop-color:#ffffff;stop-opacity:0;" />
      <stop
         id="stop6901"
         offset="1"
         style="stop-color:#000000;stop-opacity:0.53846157;" />
    </linearGradient>
    <linearGradient
       inkscape:collect="always"
       xlink:href="#linearGradient6114"
       id="linearGradient3545"
       gradientUnits="userSpaceOnUse"
       x1="346.11499"
       y1="520.72614"
       x2="346.11499"
       y2="567.32123" />
    <linearGradient
       id="linearGradient6904">
      <stop
         id="stop6906"
         offset="0"
         style="stop-color:#ffffff;stop-opacity:0;" />
      <stop
         id="stop6908"
         offset="1"
         style="stop-color:#000000;stop-opacity:0.53846157;" />
    </linearGradient>
    <radialGradient
       inkscape:collect="always"
       xlink:href="#linearGradient6030"
       id="radialGradient3557"
       gradientUnits="userSpaceOnUse"
       gradientTransform="matrix(4.39697,-0.781364,0.273452,1.5388,-1379.4,111.904)"
       cx="363.84866"
       cy="494.10422"
       fx="363.84866"
       fy="494.10422"
       r="88.392456" />
    <linearGradient
       id="linearGradient6030">
      <stop
         id="stop6032"
         offset="0"
         style="stop-color:#ffffff;stop-opacity:1;" />
      <stop
         style="stop-color:#000000;stop-opacity:1;"
         offset="0.5"
         id="stop6038" />
      <stop
         id="stop6040"
         offset="0.51028222"
         style="stop-color:#ffffff;stop-opacity:1;" />
      <stop
         id="stop6034"
         offset="1"
         style="stop-color:#000000;stop-opacity:1;" />
    </linearGradient>
    <radialGradient
       inkscape:collect="always"
       xlink:href="#linearGradient6030"
       id="radialGradient3549"
       gradientUnits="userSpaceOnUse"
       gradientTransform="matrix(4.39697,-0.781364,0.273452,1.5388,-1379.4,111.904)"
       cx="363.84866"
       cy="494.10422"
       fx="363.84866"
       fy="494.10422"
       r="88.392456" />
    <linearGradient
       id="linearGradient6923">
      <stop
         id="stop6925"
         offset="0"
         style="stop-color:#ffffff;stop-opacity:1;" />
      <stop
         style="stop-color:#000000;stop-opacity:1;"
         offset="0.5"
         id="stop6927" />
      <stop
         id="stop6929"
         offset="0.51028222"
         style="stop-color:#ffffff;stop-opacity:1;" />
      <stop
         id="stop6931"
         offset="1"
         style="stop-color:#000000;stop-opacity:1;" />
    </linearGradient>
    <radialGradient
       inkscape:collect="always"
       xlink:href="#linearGradient6030"
       id="radialGradient3551"
       gradientUnits="userSpaceOnUse"
       gradientTransform="matrix(4.39697,-0.781364,0.273452,1.5388,-1379.4,111.904)"
       cx="363.84866"
       cy="494.10422"
       fx="363.84866"
       fy="494.10422"
       r="88.392456" />
    <linearGradient
       id="linearGradient6934">
      <stop
         id="stop6936"
         offset="0"
         style="stop-color:#ffffff;stop-opacity:1;" />
      <stop
         style="stop-color:#000000;stop-opacity:1;"
         offset="0.5"
         id="stop6938" />
      <stop
         id="stop6940"
         offset="0.51028222"
         style="stop-color:#ffffff;stop-opacity:1;" />
      <stop
         id="stop6942"
         offset="1"
         style="stop-color:#000000;stop-opacity:1;" />
    </linearGradient>
    <radialGradient
       inkscape:collect="always"
       xlink:href="#linearGradient6030"
       id="radialGradient3553"
       gradientUnits="userSpaceOnUse"
       gradientTransform="matrix(4.39697,-0.781364,0.273452,1.5388,-1379.4,111.904)"
       cx="363.84866"
       cy="494.10422"
       fx="363.84866"
       fy="494.10422"
       r="88.392456" />
    <linearGradient
       id="linearGradient6945">
      <stop
         id="stop6947"
         offset="0"
         style="stop-color:#ffffff;stop-opacity:1;" />
      <stop
         style="stop-color:#000000;stop-opacity:1;"
         offset="0.5"
         id="stop6949" />
      <stop
         id="stop6951"
         offset="0.51028222"
         style="stop-color:#ffffff;stop-opacity:1;" />
      <stop
         id="stop6953"
         offset="1"
         style="stop-color:#000000;stop-opacity:1;" />
    </linearGradient>
    <radialGradient
       inkscape:collect="always"
       xlink:href="#linearGradient6030"
       id="radialGradient3555"
       gradientUnits="userSpaceOnUse"
       gradientTransform="matrix(4.39697,-0.781364,0.273452,1.5388,-1379.4,111.904)"
       cx="363.84866"
       cy="494.10422"
       fx="363.84866"
       fy="494.10422"
       r="88.392456" />
    <linearGradient
       id="linearGradient6956">
      <stop
         id="stop6958"
         offset="0"
         style="stop-color:#ffffff;stop-opacity:1;" />
      <stop
         style="stop-color:#000000;stop-opacity:1;"
         offset="0.5"
         id="stop6960" />
      <stop
         id="stop6962"
         offset="0.51028222"
         style="stop-color:#ffffff;stop-opacity:1;" />
      <stop
         id="stop6964"
         offset="1"
         style="stop-color:#000000;stop-opacity:1;" />
    </linearGradient>
    <filter
       id="filter4726"
       inkscape:label="Desaturate"
       x="0"
       y="0"
       width="1"
       height="1"
       inkscape:menu="Color"
       inkscape:menu-tooltip="Render in shades of gray by reducing saturation to zero"
       color-interpolation-filters="sRGB">
      <feColorMatrix
         id="feColorMatrix4728"
         type="saturate"
         values="0" />
    </filter>
    <filter
       id="filter5670"
       inkscape:label="Desaturate"
       x="0"
       y="0"
       width="1"
       height="1"
       inkscape:menu="Color"
       inkscape:menu-tooltip="Render in shades of gray by reducing saturation to zero"
       color-interpolation-filters="sRGB">
      <feColorMatrix
         id="feColorMatrix5672"
         type="saturate"
         values="0" />
    </filter>
    <filter
       id="filter5579"
       inkscape:label="Desaturate"
       x="0"
       y="0"
       width="1"
       height="1"
       inkscape:menu="Color"
       inkscape:menu-tooltip="Render in shades of gray by reducing saturation to zero"
       color-interpolation-filters="sRGB">
      <feColorMatrix
         id="feColorMatrix5581"
         type="saturate"
         values="0" />
    </filter>
    <linearGradient
       inkscape:collect="always"
       xlink:href="#linearGradient4689"
       id="linearGradient3559"
       gradientUnits="userSpaceOnUse"
       gradientTransform="matrix(0.562541,0,0,0.567972,-9.399749,-5.305317)"
       x1="26.648937"
       y1="20.603781"
       x2="135.66525"
       y2="114.39767" />
    <linearGradient
       id="linearGradient4689">
      <stop
         id="stop4691"
         offset="0"
         style="stop-color:#5a9fd4;stop-opacity:1" />
      <stop
         id="stop4693"
         offset="1"
         style="stop-color:#306998;stop-opacity:1" />
    </linearGradient>
    <linearGradient
       inkscape:collect="always"
       xlink:href="#linearGradient4671"
       id="linearGradient3561"
       gradientUnits="userSpaceOnUse"
       gradientTransform="matrix(0.562541,0,0,0.567972,-9.399749,-5.305317)"
       x1="150.96111"
       y1="192.35176"
       x2="112.03144"
       y2="137.27299" />
    <linearGradient
       id="linearGradient4671">
      <stop
         id="stop4673"
         offset="0"
         style="stop-color:#ffd43b;stop-opacity:1" />
      <stop
         id="stop4675"
         offset="1"
         style="stop-color:#ffe873;stop-opacity:1" />
    </linearGradient>
    <radialGradient
       inkscape:collect="always"
       xlink:href="#linearGradient2795"
       id="radialGradient3563"
       gradientUnits="userSpaceOnUse"
       gradientTransform="matrix(2.382716e-8,-0.296405,1.43676,4.683673e-7,-128.544,150.5202)"
       cx="61.518883"
       cy="132.28575"
       fx="61.518883"
       fy="132.28575"
       r="29.036913" />
    <linearGradient
       id="linearGradient2795">
      <stop
         id="stop2797"
         offset="0"
         style="stop-color:#b8b8b8;stop-opacity:0.49803922" />
      <stop
         id="stop2799"
         offset="1"
         style="stop-color:#7f7f7f;stop-opacity:0" />
    </linearGradient>
    <radialGradient
       r="29.036913"
       fy="132.28575"
       fx="61.518883"
       cy="132.28575"
       cx="61.518883"
       gradientTransform="matrix(2.382716e-8,-0.296405,1.43676,4.683673e-7,-128.544,150.5202)"
       gradientUnits="userSpaceOnUse"
       id="radialGradient7344"
       xlink:href="#linearGradient2795"
       inkscape:collect="always" />
    <filter
       id="filter5618"
       inkscape:label="Desaturate"
       x="0"
       y="0"
       width="1"
       height="1"
       inkscape:menu="Color"
       inkscape:menu-tooltip="Render in shades of gray by reducing saturation to zero"
       color-interpolation-filters="sRGB">
      <feColorMatrix
         id="feColorMatrix5620"
         type="saturate"
         values="0" />
    </filter>
    <clipPath
       id="clipPath18">
      <path
         id="path20-6"
         inkscape:connector-curvature="0"
         d="M 0,501.602 0,0 l 1863.85,0 0,501.602 -1863.85,0 z" />
    </clipPath>
  </defs>
  <sodipodi:namedview
     id="base"
     pagecolor="#ffffff"
     bordercolor="#666666"
     borderopacity="1.0"
     inkscape:pageopacity="0.0"
     inkscape:pageshadow="2"
     inkscape:zoom="5.6"
     inkscape:cx="95.883631"
     inkscape:cy="-14.751831"
     inkscape:document-units="px"
     inkscape:current-layer="layer1"
     showgrid="false"
     fit-margin-top="5"
     fit-margin-right="5"
     fit-margin-left="5"
     fit-margin-bottom="5"
     inkscape:window-width="1858"
     inkscape:window-height="1178"
     inkscape:window-x="1016"
     inkscape:window-y="-8"
     inkscape:window-maximized="1" />
  <metadata
     id="metadata6723">
    <rdf:RDF>
      <cc:Work
         rdf:about="">
        <dc:format>image/svg+xml</dc:format>
        <dc:type
           rdf:resource="http://purl.org/dc/dcmitype/StillImage" />
        <dc:title />
      </cc:Work>
    </rdf:RDF>
  </metadata>
  <g
     inkscape:label="Ebene 1"
     inkscape:groupmode="layer"
     id="layer1"
     transform="translate(-763.20906,-608.26067)">
    <path
       style="fill:#4d4d4d;fill-opacity:1;fill-rule:evenodd;stroke:none"
       id="path22-7"
       d="m 820.70573,613.23272 c -0.0727,8.8e-4 -0.14617,0.0182 -0.21102,0.0563 -0.12949,0.076 -0.21103,0.21564 -0.21103,0.36577 l 0,10.76221 c 0,0.10574 -0.0492,0.20024 -0.14068,0.25327 -0.0917,0.0532 -0.20354,0.0532 -0.29543,0 l -1.75854,-1.01292 c -0.262,-0.15108 -0.58203,-0.15099 -0.84409,0 l -7.02007,4.05167 c -0.26245,0.15139 -0.42205,0.44266 -0.42205,0.74559 l 0,8.10332 c 0,0.30271 0.15982,0.57989 0.42205,0.73155 l 7.02007,4.05166 c 0.26246,0.15145 0.58164,0.15145 0.84409,0 l 7.02007,-4.05166 c 0.26223,-0.15166 0.42205,-0.42884 0.42205,-0.73155 l 0,-20.20203 c 0,-0.30731 -0.1677,-0.5957 -0.43612,-0.74562 l -4.17827,-2.33533 c -0.0656,-0.0366 -0.13836,-0.043 -0.21103,-0.0422 z m -45.15914,10.11506 c -0.13387,0.005 -0.25964,0.0288 -0.37984,0.0985 l -7.02007,4.05166 c -0.26157,0.15122 -0.42204,0.42664 -0.42204,0.73155 l 0.014,10.87475 c 0,0.15126 0.078,0.29172 0.21102,0.36582 0.13035,0.078 0.29214,0.078 0.42205,0 l 4.16421,-2.39165 c 0.26378,-0.15671 0.43611,-0.4293 0.43611,-0.73155 l 0,-5.07862 c 0,-0.30293 0.15936,-0.58097 0.42205,-0.73156 l 1.7726,-1.02695 c 0.1323,-0.0765 0.27434,-0.11255 0.42205,-0.11255 0.14468,0 0.29341,0.036 0.42205,0.11255 l 1.7726,1.02695 c 0.26268,0.15059 0.42205,0.42863 0.42205,0.73156 l 0,5.07862 c 0,0.30225 0.17405,0.57659 0.43611,0.73155 l 4.16421,2.39165 c 0.13078,0.078 0.29234,0.078 0.42205,0 0.12926,-0.0741 0.21102,-0.21456 0.21102,-0.36582 l 0.014,-10.87475 c 0,-0.30491 -0.15869,-0.58033 -0.42205,-0.73155 l -7.02005,-4.05166 c -0.11873,-0.0697 -0.24506,-0.093 -0.37984,-0.0985 l -0.0844,0 z m 63.08212,0.0985 c -0.14667,-1.8e-4 -0.29038,0.0369 -0.42205,0.11254 l -7.02007,4.05167 c -0.26223,0.15144 -0.42205,0.42862 -0.42205,0.73155 l 0,8.10332 c 0,0.30468 0.17164,0.58096 0.43612,0.73155 l 6.96379,3.96725 c 0.25717,0.14685 0.57117,0.15783 0.83003,0.0139 l 4.22048,-2.34943 c 0.13393,-0.0743 0.22453,-0.21302 0.22509,-0.36577 8.9e-4,-0.15279 -0.0788,-0.28974 -0.21102,-0.36578 l -7.06227,-4.05166 c -0.13224,-0.0754 -0.22509,-0.22819 -0.22509,-0.37986 l 0,-2.53229 c 0,-0.1514 0.094,-0.29014 0.22509,-0.36573 l 2.19465,-1.26619 c 0.13055,-0.0755 0.29093,-0.0755 0.42204,0 l 2.19466,1.26619 c 0.13111,0.0756 0.21102,0.21433 0.21102,0.36573 l 0,1.99774 c 0,0.15162 0.0799,0.29014 0.21102,0.36573 0.13168,0.0758 0.29094,0.0761 0.42205,0 l 4.20641,-2.44784 c 0.26111,-0.15166 0.42205,-0.42956 0.42205,-0.73154 l 0,-1.95552 c 0,-0.30203 -0.16038,-0.57988 -0.42205,-0.73155 l -6.97786,-4.05166 c -0.1314,-0.0762 -0.27538,-0.11236 -0.42204,-0.11254 z m -20.98986,6.04935 c 0.0366,0 0.0797,0.009 0.11255,0.0279 l 2.40567,1.39279 c 0.0653,0.0378 0.11255,0.10746 0.11255,0.18286 l 0,2.78552 c 0,0.0756 -0.0468,0.14532 -0.11255,0.18291 l -2.40567,1.39273 c -0.0655,0.0374 -0.14553,0.0374 -0.21103,0 l -2.40567,-1.39273 c -0.0655,-0.0378 -0.11255,-0.10728 -0.11255,-0.18291 l 0,-2.78552 c 0,-0.0754 0.0473,-0.14487 0.11255,-0.18286 l 2.40567,-1.39256 c 0.0329,-0.0189 0.0619,-0.0279 0.0985,-0.0279 z"
       inkscape:connector-curvature="0" />
    <path
       style="fill:#b3b3b3;fill-opacity:1;fill-rule:evenodd;stroke:none"
       id="path28-4"
       d="m 859.66076,623.24932 c -0.24338,0 -0.48,0.0503 -0.68934,0.16882 l -6.62616,3.82657 c -0.4288,0.24688 -0.68934,0.71354 -0.68934,1.20987 l 0,7.63909 c 0,0.49606 0.26054,0.96218 0.68934,1.20983 l 1.7304,0.99887 c 0.84072,0.41435 1.15079,0.40796 1.53344,0.40796 1.24476,0 1.95549,-0.75528 1.95549,-2.06802 l 0,-7.54059 c 0,-0.1066 -0.0923,-0.18291 -0.19695,-0.18291 l -0.83003,0 c -0.10636,0 -0.19696,0.0763 -0.19696,0.18291 l 0,7.54059 c 0,0.58187 -0.60606,1.16702 -1.58971,0.67528 l -1.80074,-1.0551 c -0.0636,-0.0347 -0.11255,-0.0958 -0.11255,-0.16882 l 0,-7.63909 c 0,-0.0725 0.0484,-0.14617 0.11255,-0.18286 l 6.61209,-3.81253 c 0.0619,-0.0356 0.13561,-0.0356 0.19695,0 l 6.61209,3.81253 c 0.063,0.0378 0.11254,0.10813 0.11254,0.18286 l 0,7.63909 c 0,0.073 -0.0366,0.14771 -0.0985,0.18287 l -6.62616,3.81252 c -0.0568,0.0338 -0.13505,0.0338 -0.19695,0 L 857.86,639.07615 c -0.0507,-0.0297 -0.11987,-0.0275 -0.16882,0 -0.46988,0.26637 -0.55823,0.29734 -0.99885,0.45018 -0.10861,0.0378 -0.27349,0.0967 0.0563,0.28137 l 2.22279,1.30832 c 0.21159,0.12245 0.44737,0.18287 0.68934,0.18287 0.24535,0 0.47776,-0.0604 0.68935,-0.18287 l 6.62615,-3.81252 c 0.4288,-0.2494 0.68935,-0.71377 0.68935,-1.20983 l 0,-7.63909 c 0,-0.49633 -0.26055,-0.96195 -0.68935,-1.20987 l -6.62615,-3.82657 c -0.20765,-0.11849 -0.44596,-0.16882 -0.68935,-0.16882 z m -63.02583,0.15473 c -0.14629,0 -0.29105,0.0369 -0.42205,0.11255 l -7.02007,4.03761 c -0.26245,0.15126 -0.42205,0.44294 -0.42205,0.7456 l 0,8.10332 c 0,0.30302 0.15977,0.57997 0.42205,0.73155 l 7.02007,4.05166 c 0.26246,0.15158 0.58164,0.15158 0.8441,0 l 7.02006,-4.05166 c 0.26201,-0.15158 0.42205,-0.42853 0.42205,-0.73155 l 0,-8.10332 c 0,-0.30311 -0.15959,-0.59434 -0.42205,-0.7456 l -7.02006,-4.03761 c -0.13101,-0.0756 -0.27577,-0.11255 -0.42205,-0.11255 z m 72.85955,0.0423 0,0.19695 0.54867,0 0,1.44901 0.22509,0 0,-1.44901 0.56273,0 0,-0.19695 -1.33649,0 z m 1.53344,0 0,1.64596 0.21103,0 0,-0.97068 c 0,-0.0396 0.002,-0.10089 0,-0.18287 -0.003,-0.0835 0,-0.1563 0,-0.197 l 0,-0.0423 0.46425,1.39274 0.22509,0 0.47832,-1.39274 c 0,0.0886 -0.0118,0.17413 -0.014,0.25323 -8.9e-4,0.077 0,0.13479 0,0.16882 l 0,0.97069 0.21102,0 0,-1.64597 -0.3095,0 -0.47832,1.39278 -0.46426,-1.39278 -0.32357,0 z m -9.59455,5.26153 c -1.88684,0 -3.01061,0.80299 -3.01061,2.13838 0,1.44865 1.11533,1.84665 2.9262,2.02583 2.16651,0.21208 2.33533,0.53018 2.33533,0.95664 0,0.7397 -0.58974,1.0551 -1.98363,1.0551 -1.75121,0 -2.13612,-0.43718 -2.26499,-1.30833 -0.0152,-0.0934 -0.0872,-0.16882 -0.18288,-0.16882 l -0.85817,0 c -0.10579,0 -0.19696,0.091 -0.19696,0.19696 0,1.1151 0.60663,2.43383 3.503,2.43383 2.09674,0 3.30605,-0.82303 3.30605,-2.26501 0,-1.42952 -0.9769,-1.81321 -3.01061,-2.08211 -2.0551,-0.27191 -2.25093,-0.40498 -2.25093,-0.88627 0,-0.39729 0.16601,-0.92856 1.6882,-0.92856 1.35955,0 1.86207,0.29321 2.06803,1.20992 0.018,0.0862 0.094,0.15473 0.18289,0.15473 l 0.85816,0 c 0.0529,0 0.10411,-0.0324 0.14069,-0.0704 0.036,-0.0405 0.0613,-0.0862 0.0563,-0.14063 -0.13281,-1.57876 -1.18568,-2.32129 -3.30604,-2.32129 z m -22.81873,1.92738 c -0.0281,0 -0.0591,0 -0.0844,0.014 l -1.35056,0.78782 c -0.0506,0.0288 -0.0844,0.0824 -0.0844,0.14068 l 0,1.54751 c 0,0.0583 0.0338,0.11165 0.0844,0.14068 l 1.35056,0.77373 c 0.0506,0.0293 0.10467,0.0293 0.15475,0 l 1.35055,-0.77373 c 0.0501,-0.0288 0.0844,-0.0824 0.0844,-0.14068 l 0,-1.54751 c 0,-0.0582 -0.0343,-0.11169 -0.0844,-0.14068 l -1.35055,-0.78782 c -0.025,-0.0149 -0.0423,-0.014 -0.0703,-0.014 z"
       inkscape:connector-curvature="0" />
  </g>
</svg>
