<?xml version="1.0" encoding="UTF-8" standalone="no"?>
<!-- Created with Inkscape (http://www.inkscape.org/) -->

<svg
   xmlns:dc="http://purl.org/dc/elements/1.1/"
   xmlns:cc="http://creativecommons.org/ns#"
   xmlns:rdf="http://www.w3.org/1999/02/22-rdf-syntax-ns#"
   xmlns:svg="http://www.w3.org/2000/svg"
   xmlns="http://www.w3.org/2000/svg"
   xmlns:xlink="http://www.w3.org/1999/xlink"
   xmlns:sodipodi="http://sodipodi.sourceforge.net/DTD/sodipodi-0.dtd"
   xmlns:inkscape="http://www.inkscape.org/namespaces/inkscape"
   width="82.292358"
   height="59.041561"
   id="svg6718"
   version="1.1"
   inkscape:version="0.48.4 r9939"
   sodipodi:docname="crossbar_arch_ios.svg">
  <defs
     id="defs6720">
    <filter
       id="filter5034-4"
       inkscape:label="Desaturate"
       x="0"
       y="0"
       width="1"
       height="1"
       inkscape:menu="Color"
       inkscape:menu-tooltip="Render in shades of gray by reducing saturation to zero"
       color-interpolation-filters="sRGB">
      <feColorMatrix
         id="feColorMatrix5036-8"
         type="saturate"
         values="0" />
    </filter>
    <filter
       id="filter6583"
       inkscape:label="Desaturate"
       x="0"
       y="0"
       width="1"
       height="1"
       inkscape:menu="Color"
       inkscape:menu-tooltip="Render in shades of gray by reducing saturation to zero"
       color-interpolation-filters="sRGB">
      <feColorMatrix
         id="feColorMatrix6585"
         type="saturate"
         values="0" />
    </filter>
    <filter
       id="filter6587"
       inkscape:label="Desaturate"
       x="0"
       y="0"
       width="1"
       height="1"
       inkscape:menu="Color"
       inkscape:menu-tooltip="Render in shades of gray by reducing saturation to zero"
       color-interpolation-filters="sRGB">
      <feColorMatrix
         id="feColorMatrix6589"
         type="saturate"
         values="0" />
    </filter>
    <filter
       id="filter6591"
       inkscape:label="Desaturate"
       x="0"
       y="0"
       width="1"
       height="1"
       inkscape:menu="Color"
       inkscape:menu-tooltip="Render in shades of gray by reducing saturation to zero"
       color-interpolation-filters="sRGB">
      <feColorMatrix
         id="feColorMatrix6593"
         type="saturate"
         values="0" />
    </filter>
    <filter
       id="filter6595"
       inkscape:label="Desaturate"
       x="0"
       y="0"
       width="1"
       height="1"
       inkscape:menu="Color"
       inkscape:menu-tooltip="Render in shades of gray by reducing saturation to zero"
       color-interpolation-filters="sRGB">
      <feColorMatrix
         id="feColorMatrix6597"
         type="saturate"
         values="0" />
    </filter>
    <filter
       id="filter6599"
       inkscape:label="Desaturate"
       x="0"
       y="0"
       width="1"
       height="1"
       inkscape:menu="Color"
       inkscape:menu-tooltip="Render in shades of gray by reducing saturation to zero"
       color-interpolation-filters="sRGB">
      <feColorMatrix
         id="feColorMatrix6601"
         type="saturate"
         values="0" />
    </filter>
    <filter
       id="filter6603"
       inkscape:label="Desaturate"
       x="0"
       y="0"
       width="1"
       height="1"
       inkscape:menu="Color"
       inkscape:menu-tooltip="Render in shades of gray by reducing saturation to zero"
       color-interpolation-filters="sRGB">
      <feColorMatrix
         id="feColorMatrix6605"
         type="saturate"
         values="0" />
    </filter>
    <filter
       id="filter4592"
       inkscape:label="Desaturate"
       x="0"
       y="0"
       width="1"
       height="1"
       inkscape:menu="Color"
       inkscape:menu-tooltip="Render in shades of gray by reducing saturation to zero"
       color-interpolation-filters="sRGB">
      <feColorMatrix
         id="feColorMatrix4594"
         type="saturate"
         values="0" />
    </filter>
    <linearGradient
       inkscape:collect="always"
       xlink:href="#linearGradient6056"
       id="linearGradient3539"
       gradientUnits="userSpaceOnUse"
       x1="331.34576"
       y1="452.02783"
       x2="331.34576"
       y2="574.2973" />
    <linearGradient
       id="linearGradient6056">
      <stop
         style="stop-color:#ffffff;stop-opacity:1;"
         offset="0"
         id="stop6062" />
      <stop
         style="stop-color:#838383;stop-opacity:1;"
         offset="1"
         id="stop6064" />
    </linearGradient>
    <filter
       id="filter6207"
       inkscape:collect="always"
       color-interpolation-filters="sRGB">
      <feGaussianBlur
         id="feGaussianBlur6209"
         stdDeviation="0.40603442"
         inkscape:collect="always" />
    </filter>
    <linearGradient
       inkscape:collect="always"
       xlink:href="#linearGradient6056"
       id="linearGradient3531"
       gradientUnits="userSpaceOnUse"
       x1="331.34576"
       y1="452.02783"
       x2="331.34576"
       y2="574.2973" />
    <linearGradient
       id="linearGradient6858">
      <stop
         style="stop-color:#ffffff;stop-opacity:1;"
         offset="0"
         id="stop6860" />
      <stop
         style="stop-color:#838383;stop-opacity:1;"
         offset="1"
         id="stop6862" />
    </linearGradient>
    <linearGradient
       inkscape:collect="always"
       xlink:href="#linearGradient6056"
       id="linearGradient3533"
       gradientUnits="userSpaceOnUse"
       x1="331.34576"
       y1="452.02783"
       x2="331.34576"
       y2="574.2973" />
    <linearGradient
       id="linearGradient6865">
      <stop
         style="stop-color:#ffffff;stop-opacity:1;"
         offset="0"
         id="stop6867" />
      <stop
         style="stop-color:#838383;stop-opacity:1;"
         offset="1"
         id="stop6869" />
    </linearGradient>
    <linearGradient
       inkscape:collect="always"
       xlink:href="#linearGradient6056"
       id="linearGradient3535"
       gradientUnits="userSpaceOnUse"
       x1="331.34576"
       y1="452.02783"
       x2="331.34576"
       y2="574.2973" />
    <linearGradient
       id="linearGradient6872">
      <stop
         style="stop-color:#ffffff;stop-opacity:1;"
         offset="0"
         id="stop6874" />
      <stop
         style="stop-color:#838383;stop-opacity:1;"
         offset="1"
         id="stop6876" />
    </linearGradient>
    <linearGradient
       inkscape:collect="always"
       xlink:href="#linearGradient6056"
       id="linearGradient3537"
       gradientUnits="userSpaceOnUse"
       x1="331.34576"
       y1="452.02783"
       x2="331.34576"
       y2="574.2973" />
    <linearGradient
       id="linearGradient6879">
      <stop
         style="stop-color:#ffffff;stop-opacity:1;"
         offset="0"
         id="stop6881" />
      <stop
         style="stop-color:#838383;stop-opacity:1;"
         offset="1"
         id="stop6883" />
    </linearGradient>
    <linearGradient
       inkscape:collect="always"
       xlink:href="#linearGradient6114"
       id="linearGradient3547"
       gradientUnits="userSpaceOnUse"
       x1="346.11499"
       y1="520.72614"
       x2="346.11499"
       y2="567.32123" />
    <linearGradient
       id="linearGradient6114">
      <stop
         id="stop6116"
         offset="0"
         style="stop-color:#ffffff;stop-opacity:0;" />
      <stop
         id="stop6118"
         offset="1"
         style="stop-color:#000000;stop-opacity:0.53846157;" />
    </linearGradient>
    <linearGradient
       inkscape:collect="always"
       xlink:href="#linearGradient6114"
       id="linearGradient3541"
       gradientUnits="userSpaceOnUse"
       x1="346.11499"
       y1="520.72614"
       x2="346.11499"
       y2="567.32123" />
    <linearGradient
       id="linearGradient6890">
      <stop
         id="stop6892"
         offset="0"
         style="stop-color:#ffffff;stop-opacity:0;" />
      <stop
         id="stop6894"
         offset="1"
         style="stop-color:#000000;stop-opacity:0.53846157;" />
    </linearGradient>
    <linearGradient
       inkscape:collect="always"
       xlink:href="#linearGradient6114"
       id="linearGradient3543"
       gradientUnits="userSpaceOnUse"
       x1="346.11499"
       y1="520.72614"
       x2="346.11499"
       y2="567.32123" />
    <linearGradient
       id="linearGradient6897">
      <stop
         id="stop6899"
         offset="0"
         style="stop-color:#ffffff;stop-opacity:0;" />
      <stop
         id="stop6901"
         offset="1"
         style="stop-color:#000000;stop-opacity:0.53846157;" />
    </linearGradient>
    <linearGradient
       inkscape:collect="always"
       xlink:href="#linearGradient6114"
       id="linearGradient3545"
       gradientUnits="userSpaceOnUse"
       x1="346.11499"
       y1="520.72614"
       x2="346.11499"
       y2="567.32123" />
    <linearGradient
       id="linearGradient6904">
      <stop
         id="stop6906"
         offset="0"
         style="stop-color:#ffffff;stop-opacity:0;" />
      <stop
         id="stop6908"
         offset="1"
         style="stop-color:#000000;stop-opacity:0.53846157;" />
    </linearGradient>
    <filter
       color-interpolation-filters="sRGB"
       height="1.4221015"
       y="-0.21105076"
       width="1.011807"
       x="-0.0059034964"
       id="filter6177"
       inkscape:collect="always">
      <feGaussianBlur
         id="feGaussianBlur6179"
         stdDeviation="0.13315193"
         inkscape:collect="always" />
    </filter>
    <filter
       color-interpolation-filters="sRGB"
       height="1.8442031"
       y="-0.42210156"
       width="1.0137268"
       x="-0.0068634148"
       id="filter6181"
       inkscape:collect="always">
      <feGaussianBlur
         id="feGaussianBlur6183"
         stdDeviation="0.13315193"
         inkscape:collect="always" />
    </filter>
    <filter
       color-interpolation-filters="sRGB"
       id="filter6185"
       inkscape:collect="always">
      <feGaussianBlur
         id="feGaussianBlur6187"
         stdDeviation="0.13315193"
         inkscape:collect="always" />
    </filter>
    <radialGradient
       inkscape:collect="always"
       xlink:href="#linearGradient6030"
       id="radialGradient3557"
       gradientUnits="userSpaceOnUse"
       gradientTransform="matrix(4.39697,-0.781364,0.273452,1.5388,-1379.4,111.904)"
       cx="363.84866"
       cy="494.10422"
       fx="363.84866"
       fy="494.10422"
       r="88.392456" />
    <linearGradient
       id="linearGradient6030">
      <stop
         id="stop6032"
         offset="0"
         style="stop-color:#ffffff;stop-opacity:1;" />
      <stop
         style="stop-color:#000000;stop-opacity:1;"
         offset="0.5"
         id="stop6038" />
      <stop
         id="stop6040"
         offset="0.51028222"
         style="stop-color:#ffffff;stop-opacity:1;" />
      <stop
         id="stop6034"
         offset="1"
         style="stop-color:#000000;stop-opacity:1;" />
    </linearGradient>
    <radialGradient
       inkscape:collect="always"
       xlink:href="#linearGradient6030"
       id="radialGradient3549"
       gradientUnits="userSpaceOnUse"
       gradientTransform="matrix(4.39697,-0.781364,0.273452,1.5388,-1379.4,111.904)"
       cx="363.84866"
       cy="494.10422"
       fx="363.84866"
       fy="494.10422"
       r="88.392456" />
    <linearGradient
       id="linearGradient6923">
      <stop
         id="stop6925"
         offset="0"
         style="stop-color:#ffffff;stop-opacity:1;" />
      <stop
         style="stop-color:#000000;stop-opacity:1;"
         offset="0.5"
         id="stop6927" />
      <stop
         id="stop6929"
         offset="0.51028222"
         style="stop-color:#ffffff;stop-opacity:1;" />
      <stop
         id="stop6931"
         offset="1"
         style="stop-color:#000000;stop-opacity:1;" />
    </linearGradient>
    <radialGradient
       inkscape:collect="always"
       xlink:href="#linearGradient6030"
       id="radialGradient3551"
       gradientUnits="userSpaceOnUse"
       gradientTransform="matrix(4.39697,-0.781364,0.273452,1.5388,-1379.4,111.904)"
       cx="363.84866"
       cy="494.10422"
       fx="363.84866"
       fy="494.10422"
       r="88.392456" />
    <linearGradient
       id="linearGradient6934">
      <stop
         id="stop6936"
         offset="0"
         style="stop-color:#ffffff;stop-opacity:1;" />
      <stop
         style="stop-color:#000000;stop-opacity:1;"
         offset="0.5"
         id="stop6938" />
      <stop
         id="stop6940"
         offset="0.51028222"
         style="stop-color:#ffffff;stop-opacity:1;" />
      <stop
         id="stop6942"
         offset="1"
         style="stop-color:#000000;stop-opacity:1;" />
    </linearGradient>
    <radialGradient
       inkscape:collect="always"
       xlink:href="#linearGradient6030"
       id="radialGradient3553"
       gradientUnits="userSpaceOnUse"
       gradientTransform="matrix(4.39697,-0.781364,0.273452,1.5388,-1379.4,111.904)"
       cx="363.84866"
       cy="494.10422"
       fx="363.84866"
       fy="494.10422"
       r="88.392456" />
    <linearGradient
       id="linearGradient6945">
      <stop
         id="stop6947"
         offset="0"
         style="stop-color:#ffffff;stop-opacity:1;" />
      <stop
         style="stop-color:#000000;stop-opacity:1;"
         offset="0.5"
         id="stop6949" />
      <stop
         id="stop6951"
         offset="0.51028222"
         style="stop-color:#ffffff;stop-opacity:1;" />
      <stop
         id="stop6953"
         offset="1"
         style="stop-color:#000000;stop-opacity:1;" />
    </linearGradient>
    <radialGradient
       inkscape:collect="always"
       xlink:href="#linearGradient6030"
       id="radialGradient3555"
       gradientUnits="userSpaceOnUse"
       gradientTransform="matrix(4.39697,-0.781364,0.273452,1.5388,-1379.4,111.904)"
       cx="363.84866"
       cy="494.10422"
       fx="363.84866"
       fy="494.10422"
       r="88.392456" />
    <linearGradient
       id="linearGradient6956">
      <stop
         id="stop6958"
         offset="0"
         style="stop-color:#ffffff;stop-opacity:1;" />
      <stop
         style="stop-color:#000000;stop-opacity:1;"
         offset="0.5"
         id="stop6960" />
      <stop
         id="stop6962"
         offset="0.51028222"
         style="stop-color:#ffffff;stop-opacity:1;" />
      <stop
         id="stop6964"
         offset="1"
         style="stop-color:#000000;stop-opacity:1;" />
    </linearGradient>
  </defs>
  <sodipodi:namedview
     id="base"
     pagecolor="#ffffff"
     bordercolor="#666666"
     borderopacity="1.0"
     inkscape:pageopacity="0.0"
     inkscape:pageshadow="2"
     inkscape:zoom="1.4"
     inkscape:cx="-7.2714628"
     inkscape:cy="76.714916"
     inkscape:document-units="px"
     inkscape:current-layer="layer1"
     showgrid="false"
     fit-margin-top="5"
     fit-margin-right="5"
     fit-margin-left="5"
     fit-margin-bottom="5"
     inkscape:window-width="505"
     inkscape:window-height="423"
     inkscape:window-x="401"
     inkscape:window-y="539"
     inkscape:window-maximized="0" />
  <metadata
     id="metadata6723">
    <rdf:RDF>
      <cc:Work
         rdf:about="">
        <dc:format>image/svg+xml</dc:format>
        <dc:type
           rdf:resource="http://purl.org/dc/dcmitype/StillImage" />
        <dc:title></dc:title>
      </cc:Work>
    </rdf:RDF>
  </metadata>
  <g
     inkscape:label="Ebene 1"
     inkscape:groupmode="layer"
     id="layer1"
     transform="translate(-807.85085,-591.34649)">
    <g
       transform="translate(1374.5696,2147.0965)"
       id="g6652">
      <path
         inkscape:connector-curvature="0"
         d="m -544.12713,-1547.7386 a 14.573855,14.018661 0 1 0 0,28.0373 c 19.02533,1.0014 17.02266,-28.0373 37.04932,-28.0373 a 14.573855,14.018661 0 0 1 0,28.0373 c -19.02533,1.0014 -17.02266,-28.0373 -37.04932,-28.0373"
         id="path6"
         style="fill:none;stroke:#666666;stroke-width:6.00799751;stroke-opacity:1" />
      <g
         transform="matrix(0.10013329,0,0,0.10013329,-561.55032,-1549.7413)"
         style="font-size:167px;text-anchor:middle;fill:#00979c;stroke:#666666;stroke-width:20;font-family:sans-serif"
         id="text10">
        <path
           inkscape:connector-curvature="0"
           d="m 528.06885,194.67432 0,-32.78028 -32.53565,0 0,-13.69922 32.53565,0 0,-32.53564 13.8623,0 0,32.53564 32.53565,0 0,13.69922 -32.53565,0 0,32.78028 z"
           style="stroke:#666666"
           id="path3075" />
      </g>
      <g
         transform="matrix(0.10013329,0,0,0.10013329,-561.55032,-1550.7426)"
         style="font-size:40px;text-anchor:middle;fill:#666666;stroke:#666666;font-family:Arial"
         id="text16">
        <path
           inkscape:connector-curvature="0"
           d="m 681.55078,29.285156 0,-13.554687 -5.15625,0 0,-2.363281 13.00781,0 0,2.363281 -5.19531,0 0,13.554687 z m 9.62891,0 0,-15.917968 3.90625,0 4.02343,12.714843 3.88672,-12.714843 3.82813,0 0,15.917968 -2.42188,0 0,-13.359375 -4.10156,13.359375 -2.40234,0 -4.27735,-13.554687 0,13.554687 z"
           style="fill:#666666;stroke:#666666"
           id="path3072" />
      </g>
      <g
         transform="matrix(0.10185197,0,0,0.09844361,-561.55032,-1550.7426)"
         style="font-size:182.28144836px;font-weight:bold;letter-spacing:0.08338753em;fill:#666666;stroke:#666666;stroke-width:2.39844012;font-family:Consolas"
         id="text20">
        <path
           inkscape:connector-curvature="0"
           d="m 83.275567,494.84543 -6.408332,-22.96319 -40.586104,0 -6.586341,22.96319 -21.7171256,0 34.4447856,-116.32903 30.617587,0 34.444783,116.32903 z m -26.43437,-94.96792 -15.308793,54.1148 30.439577,0 z"
           style="font-size:182.28144836px;fill:#666666;stroke:#666666;stroke-width:2.39844012"
           id="path3057" />
        <path
           inkscape:connector-curvature="0"
           d="m 178.15448,494.84543 -16.37685,-37.38194 c -1.54279,-3.56014 -3.69374,-6.24511 -6.45283,-8.05492 -2.75919,-1.80971 -6.00785,-2.71459 -9.74601,-2.71464 l -4.18321,0 0,48.1515 -21.89514,0 0,-116.32903 33.91076,0 c 6.40828,1.2e-4 12.22324,0.54898 17.4449,1.64658 5.22154,1.09784 9.67177,2.92243 13.3507,5.47379 3.67877,2.55157 6.51208,5.87441 8.49994,9.96851 1.98768,4.09431 2.98156,9.10823 2.98165,15.04178 -9e-5,4.27231 -0.62312,8.06983 -1.8691,11.39259 -1.24614,3.32291 -2.99657,6.18589 -5.25127,8.58895 -2.25486,2.40319 -4.93983,4.34645 -8.05491,5.8298 -3.11524,1.48347 -6.51224,2.52186 -10.19103,3.11516 2.84808,0.59342 5.45888,2.21034 7.8324,4.85075 2.37339,2.64052 4.74684,6.45288 7.12037,11.4371 l 18.60197,38.98402 z m -5.42928,-82.06226 c -6e-5,-5.6962 -1.80982,-9.79041 -5.42928,-12.28263 -3.61958,-2.49203 -9.04885,-3.7381 -16.28784,-3.7382 l -9.6125,0 0,32.84271 8.90046,0 c 3.38213,6e-5 6.45278,-0.35596 9.21198,-1.06806 2.75909,-0.71197 5.11771,-1.78002 7.07586,-3.20416 1.95804,-1.42401 3.47112,-3.18926 4.53924,-5.29578 1.06799,-2.10636 1.60202,-4.52432 1.60208,-7.25388 z"
           style="font-size:182.28144836px;fill:#666666;stroke:#666666;stroke-width:2.39844012"
           id="path3059" />
        <path
           inkscape:connector-curvature="0"
           d="m 303.918,435.21234 c -1e-4,9.01918 -1.11265,17.2076 -3.33767,24.56527 -2.22521,7.35774 -5.69639,13.63256 -10.41354,18.82448 -4.71733,5.19194 -10.7548,9.19715 -18.11244,12.01562 -7.35777,2.81848 -16.16922,4.22772 -26.43437,4.22772 l -29.54953,0 0,-116.32903 34.44478,0 c 8.90041,1.2e-4 16.68831,1.11267 23.36371,3.33767 6.67528,2.22523 12.23806,5.6519 16.68837,10.28003 4.45014,4.62834 7.78781,10.50264 10.01302,17.62292 2.22502,7.12045 3.33757,15.60554 3.33767,25.45532 z m -23.49722,1.42407 c -7e-5,-6.28959 -0.50443,-11.89688 -1.51308,-16.82187 -1.00879,-4.92484 -2.71471,-9.09322 -5.11776,-12.50515 -2.40319,-3.41175 -5.62219,-6.00772 -9.657,-7.7879 -4.03493,-1.78 -9.04885,-2.67004 -15.04178,-2.67014 l -11.12558,0 0,79.65913 9.6125,0 c 10.73984,2e-5 18.89859,-3.20415 24.47627,-9.6125 5.57755,-6.4083 8.36636,-16.49548 8.36643,-30.26157 z"
           style="font-size:182.28144836px;fill:#666666;stroke:#666666;stroke-width:2.39844012"
           id="path3061" />
        <path
           inkscape:connector-curvature="0"
           d="m 401.28903,452.03421 c -9e-5,7.41709 -0.99398,13.92925 -2.98166,19.53651 -1.98785,5.60731 -4.836,10.28005 -8.54444,14.01823 -3.7086,3.7382 -8.233,6.55667 -13.5732,8.45544 -5.34034,1.89876 -11.33331,2.84814 -17.97893,2.84814 -7.47643,0 -13.88476,-0.94938 -19.225,-2.84814 -5.3403,-1.89877 -9.67186,-4.62824 -12.99467,-8.18843 -3.32286,-3.56017 -5.72598,-7.89172 -7.20938,-12.99467 -1.48342,-5.10291 -2.22512,-10.82886 -2.22511,-17.17789 l 0,-77.167 21.89513,0 0,75.83193 c -3e-5,3.91624 0.34116,7.38742 1.02355,10.41354 0.68234,3.02618 1.86907,5.59248 3.56019,7.6989 1.69105,2.10646 3.81233,3.69371 6.36383,4.76175 2.55142,1.06807 5.75558,1.60209 9.6125,1.60208 3.61946,1e-5 6.67529,-0.45984 9.16747,-1.37957 2.49207,-0.9197 4.56884,-2.40311 6.23033,-4.45023 1.66135,-2.04709 2.90741,-4.67272 3.73819,-7.87691 0.83064,-3.20414 1.24599,-7.09067 1.24606,-11.65961 l 0,-74.94188 21.89514,0 z"
           style="font-size:182.28144836px;fill:#666666;stroke:#666666;stroke-width:2.39844012"
           id="path3063" />
        <path
           inkscape:connector-curvature="0"
           d="m 422.56114,396.40633 0,-17.88993 73.51781,0 0,17.88993 -25.63332,0 0,80.37116 25.63332,0 0,18.06794 -73.51781,0 0,-18.06794 25.63333,0 0,-80.37116 z"
           style="font-size:182.28144836px;fill:#666666;stroke:#666666;stroke-width:2.39844012"
           id="path3065" />
        <path
           inkscape:connector-curvature="0"
           d="m 575.47108,494.84543 -31.15161,-69.4236 -6.40833,-14.95278 0,48.24051 0,36.13587 -19.93704,0 0,-116.32903 26.8794,0 31.77464,69.86862 5.60729,13.61771 0,-51.35567 0,-32.13066 19.93704,0 0,116.32903 z"
           style="font-size:182.28144836px;fill:#666666;stroke:#666666;stroke-width:2.39844012"
           id="path3067" />
        <path
           inkscape:connector-curvature="0"
           d="m 706.93085,436.19139 c -10e-5,10.56193 -1.23133,19.67006 -3.69369,27.32441 -2.46255,7.65442 -5.84473,13.94408 -10.14653,18.86898 -4.30197,4.92493 -9.34556,8.57412 -15.13078,10.94757 -5.78537,2.37346 -11.97118,3.56018 -18.55746,3.56018 -15.30883,0 -26.82008,-5.08809 -34.53379,-15.26429 -7.71375,-10.17617 -11.57061,-24.96575 -11.5706,-44.3688 -10e-6,-10.56181 1.23122,-19.66994 3.69369,-27.32441 2.46245,-7.65431 5.84462,-13.94396 10.14652,-18.86898 4.30187,-4.92481 9.34546,-8.574 15.13079,-10.94757 5.78526,-2.37334 11.97107,-3.56006 18.55746,-3.56018 15.30873,1.2e-4 26.81998,5.07337 34.53379,15.21979 7.71364,10.14661 11.5705,24.95103 11.5706,44.4133 z m -23.1412,1.06805 c -7e-5,-13.76597 -1.8395,-24.03116 -5.51829,-30.79559 -3.67892,-6.76426 -9.73123,-10.14643 -18.15694,-10.14653 -4.21293,1e-4 -7.80278,0.87531 -10.76956,2.62564 -2.96685,1.75052 -5.41448,4.31681 -7.34288,7.6989 -1.92846,3.38226 -3.3377,7.55064 -4.22772,12.50514 -0.89007,4.95467 -1.33509,10.63612 -1.33507,17.04439 -2e-5,13.76609 1.85424,24.03128 5.56279,30.79559 3.70849,6.76438 9.74597,10.14655 18.11244,10.14653 4.21283,2e-5 7.81752,-0.87519 10.81406,-2.62564 2.99643,-1.7504 5.44405,-4.31669 7.34288,-7.69889 1.8987,-3.38215 3.2931,-7.55053 4.18322,-12.50515 0.88997,-4.95455 1.335,-10.636 1.33507,-17.04439 z"
           style="font-size:182.28144836px;fill:#666666;stroke:#666666;stroke-width:2.39844012"
           id="path3069" />
      </g>
      <g
         transform="matrix(0.15666829,0,0,0.0639994,-598.17852,-1550.6898)"
         style="font-size:197.21893311px;text-anchor:middle;fill:#00979c;stroke:#666666;stroke-width:23.61903381;font-family:sans-serif"
         id="text10-7">
        <path
           inkscape:connector-curvature="0"
           d="m 321.41756,266.30877 0,-17.43 53.25297,0 0,17.43 z"
           style="font-size:197.21893311px;stroke:#666666;stroke-width:23.61903381"
           id="path3078" />
      </g>
    </g>
  </g>
</svg>
