<?xml version="1.0" encoding="UTF-8" standalone="no"?>
<!-- Created with Inkscape (http://www.inkscape.org/) -->

<svg
   xmlns:dc="http://purl.org/dc/elements/1.1/"
   xmlns:cc="http://creativecommons.org/ns#"
   xmlns:rdf="http://www.w3.org/1999/02/22-rdf-syntax-ns#"
   xmlns:svg="http://www.w3.org/2000/svg"
   xmlns="http://www.w3.org/2000/svg"
   xmlns:sodipodi="http://sodipodi.sourceforge.net/DTD/sodipodi-0.dtd"
   xmlns:inkscape="http://www.inkscape.org/namespaces/inkscape"
   id="svg2"
   height="80"
   width="473.1734"
   version="1.1"
   inkscape:version="0.48.4 r9939"
   sodipodi:docname="crossbar_icon_and_text_vectorized.svg"
   inkscape:export-filename="C:\Users\AG\scm\wwwcrossbar\design\crossbar_icon_and_text.png"
   inkscape:export-xdpi="49.5"
   inkscape:export-ydpi="49.5">
  <defs
     id="defs11" />
  <sodipodi:namedview
     pagecolor="#ffffff"
     bordercolor="#666666"
     borderopacity="1"
     objecttolerance="10"
     gridtolerance="10"
     guidetolerance="10"
     inkscape:pageopacity="0"
     inkscape:pageshadow="2"
     inkscape:window-width="1680"
     inkscape:window-height="988"
     id="namedview9"
     showgrid="false"
     inkscape:zoom="2.085965"
     inkscape:cx="329.59584"
     inkscape:cy="82.270673"
     inkscape:window-x="-8"
     inkscape:window-y="320"
     inkscape:window-maximized="1"
     inkscape:current-layer="svg2"
     showguides="true"
     inkscape:guide-bbox="true"
     fit-margin-top="0"
     fit-margin-left="0"
     fit-margin-right="0"
     fit-margin-bottom="0">
    <sodipodi:guide
       orientation="0,1"
       position="186.10169,16.949153"
       id="guide2992" />
    <sodipodi:guide
       orientation="0,1"
       position="461.69492,109.83051"
       id="guide2994" />
    <sodipodi:guide
       orientation="1,0"
       position="79.999998,122.37288"
       id="guide3007" />
    <sodipodi:guide
       orientation="1,0"
       position="100.33898,16.610169"
       id="guide3009" />
    <sodipodi:guide
       orientation="0,1"
       position="194.57627,-38.983051"
       id="guide3011" />
    <sodipodi:guide
       orientation="0,1"
       position="228.13559,-86.101695"
       id="guide3013" />
  </sodipodi:namedview>
  <metadata
     id="metadata7">
    <rdf:RDF>
      <cc:Work
         rdf:about="">
        <dc:format>image/svg+xml</dc:format>
        <dc:type
           rdf:resource="http://purl.org/dc/dcmitype/StillImage" />
        <dc:title />
      </cc:Work>
    </rdf:RDF>
  </metadata>
  <g
     id="layer1"
     transform="matrix(0.49999375,0,0,0.5,140.96924,873.95)">
    <path
       id="rect3842-15-6-1"
       d="m -281.94,-1747.9 160,0 0,160 -160,0 z"
       inkscape:connector-curvature="0"
       style="fill:#1a1a1a" />
    <path
       id="path3902"
       style="text-indent:0;text-align:start;text-transform:none;direction:ltr;block-progression:tb;baseline-shift:baseline;color:#000000;fill:#ffde00;enable-background:accumulate"
       d="m -281.94,-1714 0,16 37.708,-0.1145 25.104,25.104 11.562,-11.562 -29.688,-29.688 z"
       inkscape:connector-curvature="0" />
    <path
       id="path5387-7-4-4-2-1-6"
       style="text-indent:0;text-align:start;text-transform:none;direction:ltr;block-progression:tb;baseline-shift:baseline;color:#000000;fill:#ffde00;enable-background:accumulate"
       d="m -184.91,-1661.9 -11.562,11.562 28.698,28.698 45.833,0 0,-16.042 -38.75,0 z"
       inkscape:connector-curvature="0" />
    <path
       id="path5387-7-4-4-5-7-4-8"
       style="text-indent:0;text-align:start;text-transform:none;direction:ltr;block-progression:tb;baseline-shift:baseline;color:#000000;fill:#ffde00;enable-background:accumulate"
       d="m -166.63,-1714.2 -76.342,76.695 -38.97,0 0,16 45.689,0 76.602,-76.549 37.708,0 0,-16.146 z"
       inkscape:connector-curvature="0" />
  </g>
  <path
     inkscape:connector-curvature="0"
     id="path2996"
     style="font-size:72.20912933px;font-style:normal;font-variant:normal;font-weight:bold;font-stretch:normal;line-height:125%;letter-spacing:0px;word-spacing:0px;fill:#1a1a1a;fill-opacity:1;stroke:none;font-family:Play;-inkscape-font-specification:Sans Bold"
     d="m 137.54465,60.489897 c -5.29466,1.05922 -10.34909,1.588829 -15.1633,1.58883 -1.92601,-10e-7 -3.74328,-0.08447 -5.45182,-0.25342 -1.70858,-0.168946 -3.60996,-0.529977 -5.70414,-1.083093 -2.09422,-0.553114 -3.8755,-1.299048 -5.34385,-2.237804 -1.46837,-0.93875 -2.70792,-2.262774 -3.71866,-3.972075 -1.01074,-1.709287 -1.51611,-3.719379 -1.51611,-6.030282 l 0,-20.579866 c 0,-9.434508 7.24485,-14.151779 21.73458,-14.151826 3.56254,4.7e-5 8.52074,0.529657 14.87462,1.58883 l 0,8.448785 c -5.72805,-1.348593 -10.63777,-2.022909 -14.72918,-2.022948 -1.6366,3.9e-5 -2.97237,0.04815 -4.00733,0.144339 -1.035,0.09627 -2.11846,0.33683 -3.25038,0.721694 -1.13196,0.384942 -1.97449,0.998658 -2.52758,1.841148 -0.55314,0.842564 -0.82969,1.938143 -0.82968,3.286741 l 0,19.92979 c -1e-5,4.23542 3.87473,6.353124 11.62424,6.353116 3.41857,8e-6 8.08809,-0.697814 14.00859,-2.093465 z" />
  <path
     inkscape:connector-curvature="0"
     id="path2998"
     style="font-size:72.20912933px;font-style:normal;font-variant:normal;font-weight:bold;font-stretch:normal;line-height:125%;letter-spacing:0px;word-spacing:0px;fill:#1a1a1a;fill-opacity:1;stroke:none;font-family:Play;-inkscape-font-specification:Sans Bold"
     d="m 167.27186,34.422948 -3.61178,0 c -2.88827,2.7e-5 -5.06657,0.445163 -6.53491,1.33541 -1.46838,0.890299 -2.20257,2.418894 -2.20255,4.585791 l 0,21.011781 -10.54225,0 0,-34.949853 10.03761,0 0,6.139363 c 0.0485,-1.733506 1.04746,-3.310214 2.99697,-4.73013 1.94947,-1.419849 3.98343,-2.12979 6.1019,-2.129826 l 3.75501,0 z" />
  <path
     inkscape:connector-curvature="0"
     id="path3000"
     style="font-size:72.20912933px;font-style:normal;font-variant:normal;font-weight:bold;font-stretch:normal;line-height:125%;letter-spacing:0px;word-spacing:0px;fill:#1a1a1a;fill-opacity:1;stroke:none;font-family:Play;-inkscape-font-specification:Sans Bold"
     d="m 207.52589,39.043997 0,10.326293 c -4e-5,2.262422 -0.36107,4.199793 -1.08309,5.812121 -0.7221,1.61234 -1.61274,2.863644 -2.67193,3.753914 -1.05925,0.890275 -2.44314,1.576344 -4.15167,2.058207 -1.70859,0.481864 -3.27281,0.783029 -4.69267,0.903496 -1.4199,0.120465 -3.14095,0.180698 -5.16314,0.180699 -2.02224,-10e-7 -3.74328,-0.06023 -5.16315,-0.180699 -1.4199,-0.120467 -2.98449,-0.421632 -4.69377,-0.903496 -1.7093,-0.481863 -3.09356,-1.167932 -4.15277,-2.058207 -1.05923,-0.89027 -1.94987,-2.141574 -2.67193,-3.753914 -0.72206,-1.612328 -1.08309,-3.549699 -1.08309,-5.812121 l 0,-10.326293 c 0,-2.407828 0.37315,-4.466033 1.11945,-6.174621 0.7463,-1.708531 1.66118,-3.020068 2.74465,-3.934613 1.08345,-0.914481 2.49158,-1.624789 4.22439,-2.130928 1.73279,-0.506069 3.28526,-0.818987 4.65741,-0.938753 1.37212,-0.119696 3.04505,-0.179562 5.01881,-0.179598 1.97371,3.6e-5 3.64664,0.0599 5.01881,0.179598 1.37211,0.119766 2.92457,0.432684 4.65741,0.938753 1.73276,0.506139 3.14053,1.216447 4.22329,2.130928 1.08269,0.914545 1.9972,2.226082 2.74354,3.934613 0.74626,1.708588 1.11941,3.766793 1.11945,6.174621 z m -10.54225,11.553725 0,-13.215275 c -3e-5,-1.877483 -0.48153,-3.213259 -1.44449,-4.007334 -0.96302,-0.794019 -2.88864,-1.191042 -5.77686,-1.191072 -2.88827,3e-5 -4.81352,0.397053 -5.77576,1.191072 -0.96228,0.794075 -1.44341,2.129851 -1.44339,4.007334 l 0,13.215275 c -2e-5,1.829037 0.46899,3.10458 1.40703,3.826634 0.938,0.722068 2.87537,1.083099 5.81212,1.083093 2.9367,6e-6 4.87444,-0.361025 5.81322,-1.083093 0.93872,-0.722054 1.4081,-1.997597 1.40813,-3.826634 z" />
  <path
     inkscape:connector-curvature="0"
     id="path3002"
     style="font-size:72.20912933px;font-style:normal;font-variant:normal;font-weight:bold;font-stretch:normal;line-height:125%;letter-spacing:0px;word-spacing:0px;fill:#1a1a1a;fill-opacity:1;stroke:none;font-family:Play;-inkscape-font-specification:Sans Bold"
     d="m 245.85394,47.70874 0,4.405092 c -4e-5,1.732074 -0.32471,3.223942 -0.97401,4.475608 -0.64938,1.251676 -1.46767,2.226789 -2.45487,2.925343 -0.98726,0.698557 -2.27529,1.240287 -3.86409,1.62519 -1.58886,0.384903 -3.11709,0.637588 -4.58469,0.758055 -1.46765,0.120465 -3.1887,0.180698 -5.16315,0.180699 -3.80351,-10e-7 -8.40105,-0.361399 -13.79263,-1.084195 l 0,-7.003192 c 6.69173,1.010746 11.33775,1.516115 13.93807,1.516109 2.06994,6e-6 3.67052,-0.204566 4.80175,-0.613716 1.13118,-0.409137 1.69678,-1.215304 1.69681,-2.418503 l 0,-2.168389 c -3e-5,-1.106219 -0.31294,-1.936259 -0.93876,-2.490122 -0.62585,-0.553836 -1.97375,-0.830761 -4.04369,-0.830776 l -4.55053,0 c -3.65807,1.5e-5 -6.50995,-0.734166 -8.55566,-2.202546 -2.04573,-1.468345 -3.06859,-3.622409 -3.06858,-6.462197 l 0,-4.259651 c -1e-5,-3.177629 1.51647,-5.368053 4.54943,-6.571277 3.03294,-1.203157 7.31719,-1.804752 12.85277,-1.804788 2.31087,3.6e-5 6.45079,0.216728 12.41976,0.650076 l 0,6.714515 c -7.51006,-0.577327 -11.7462,-0.866004 -12.70844,-0.866034 -2.93674,3e-5 -4.79037,0.204601 -5.5609,0.613716 -0.77056,0.409172 -1.15583,1.191099 -1.15581,2.345783 l 0,1.877508 c -2e-5,0.57738 0.30115,1.106989 0.90349,1.58883 0.60232,0.481887 1.52932,0.722819 2.781,0.722797 l 4.62105,0 c 8.56776,2.2e-5 12.85164,2.792041 12.85168,8.376065 z" />
  <path
     inkscape:connector-curvature="0"
     id="path3004"
     style="font-size:72.20912933px;font-style:normal;font-variant:normal;font-weight:bold;font-stretch:normal;line-height:125%;letter-spacing:0px;word-spacing:0px;fill:#1a1a1a;fill-opacity:1;stroke:none;font-family:Play;-inkscape-font-specification:Sans Bold"
     d="m 283.79194,47.70874 0,4.405092 c -3e-5,1.732074 -0.3247,3.223942 -0.97401,4.475608 -0.64938,1.251676 -1.46766,2.226789 -2.45486,2.925343 -0.98727,0.698557 -2.2753,1.240287 -3.8641,1.62519 -1.58886,0.384903 -3.11708,0.637588 -4.58469,0.758055 -1.46765,0.120465 -3.1887,0.180698 -5.16315,0.180699 -3.80351,-10e-7 -8.40105,-0.361399 -13.79263,-1.084195 l 0,-7.003192 c 6.69174,1.010746 11.33775,1.516115 13.93807,1.516109 2.06994,6e-6 3.67053,-0.204566 4.80175,-0.613716 1.13118,-0.409137 1.69679,-1.215304 1.69681,-2.418503 l 0,-2.168389 c -2e-5,-1.106219 -0.31294,-1.936259 -0.93875,-2.490122 -0.62586,-0.553836 -1.97376,-0.830761 -4.0437,-0.830776 l -4.55053,0 c -3.65807,1.5e-5 -6.50995,-0.734166 -8.55566,-2.202546 -2.04572,-1.468345 -3.06858,-3.622409 -3.06858,-6.462197 l 0,-4.259651 c 0,-3.177629 1.51647,-5.368053 4.54943,-6.571277 3.03294,-1.203157 7.3172,-1.804752 12.85278,-1.804788 2.31086,3.6e-5 6.45078,0.216728 12.41975,0.650076 l 0,6.714515 c -7.51005,-0.577327 -11.74619,-0.866004 -12.70843,-0.866034 -2.93675,3e-5 -4.79038,0.204601 -5.56091,0.613716 -0.77055,0.409172 -1.15582,1.191099 -1.15581,2.345783 l 0,1.877508 c -1e-5,0.57738 0.30115,1.106989 0.9035,1.58883 0.60231,0.481887 1.52931,0.722819 2.781,0.722797 l 4.62105,0 c 8.56775,2.2e-5 12.85164,2.792041 12.85167,8.376065 z" />
  <path
     inkscape:connector-curvature="0"
     id="path3006"
     style="font-size:72.20912933px;font-style:normal;font-variant:normal;font-weight:bold;font-stretch:normal;line-height:125%;letter-spacing:0px;word-spacing:0px;fill:#1a1a1a;fill-opacity:1;stroke:none;font-family:Play;-inkscape-font-specification:Sans Bold"
     d="m 327.43519,37.455167 0,11.481005 c -4e-5,4.765763 -1.43204,8.147624 -4.29601,10.145594 -2.86404,1.997974 -7.4737,2.99696 -13.82899,2.996961 -6.69029,-10e-7 -11.31134,-1.0471 -13.86315,-3.1413 -2.55183,-2.094195 -3.82774,-5.427944 -3.82774,-10.001255 l 0,-38.127514 10.54225,0 0,19.063757 c 0.62582,-1.588062 1.79339,-2.682907 3.5027,-3.284537 1.70928,-0.60156 4.32096,-0.902358 7.83507,-0.902394 2.98371,3.6e-5 5.41433,0.240601 7.29187,0.721695 1.87747,0.481164 3.29772,1.263458 4.26075,2.346885 0.96296,1.083491 1.60091,2.274929 1.91387,3.574316 0.31288,1.299446 0.46934,3.008373 0.46938,5.126787 z m -10.54225,12.851674 0,-12.924394 c -3e-5,-2.262386 -0.4213,-3.694388 -1.26379,-4.296012 -0.84256,-0.601567 -2.92464,-0.902364 -6.24624,-0.902394 -2.98523,3e-5 -4.93509,0.384933 -5.84959,1.154712 -0.91453,0.769835 -1.37178,2.117731 -1.37177,4.043694 l 0,12.924394 c -10e-6,2.071437 0.44549,3.456061 1.33652,4.153876 0.89099,0.697828 2.87684,1.046738 5.95756,1.046732 3.08067,6e-6 5.0904,-0.348904 6.02918,-1.046732 0.93872,-0.697815 1.4081,-2.082439 1.40813,-4.153876 z" />
  <path
     inkscape:connector-curvature="0"
     id="path3008"
     style="font-size:72.20912933px;font-style:normal;font-variant:normal;font-weight:bold;font-stretch:normal;line-height:125%;letter-spacing:0px;word-spacing:0px;fill:#1a1a1a;fill-opacity:1;stroke:none;font-family:Play;-inkscape-font-specification:Sans Bold"
     d="m 367.10524,61.35593 -10.32629,0 0,-3.17766 c -0.76983,1.395646 -1.8768,2.394632 -3.3209,2.996961 -1.44414,0.60233 -4.09219,0.903495 -7.94415,0.903496 -4.71728,-10e-7 -7.84609,-0.722062 -9.38643,-2.166186 -1.54036,-1.444121 -2.31053,-4.452832 -2.31053,-9.026141 0,-4.139905 0.79441,-7.016397 2.38325,-8.629485 1.58882,-1.613049 4.42895,-2.419583 8.5204,-2.419605 l 11.8424,0 0,-2.382143 c -2e-5,-2.118414 -0.49364,-3.526544 -1.48085,-4.224393 -0.98726,-0.697793 -3.06897,-1.046703 -6.24514,-1.046733 -2.98522,3e-5 -7.07739,0.288707 -12.27652,0.866034 l 0,-6.643998 c 3.99594,-0.48036 8.44877,-0.720557 13.35851,-0.720593 6.45079,3.6e-5 10.92786,0.78233 13.43124,2.346885 2.50331,1.564622 3.75498,4.657071 3.75501,9.277357 z m -10.54225,-8.95342 0,-6.787236 -7.22135,0 c -2.31091,1.6e-5 -3.75503,0.264454 -4.33237,0.793314 -0.57737,0.52889 -0.86605,1.948772 -0.86604,4.259651 -1e-5,2.26242 0.30079,3.634556 0.9024,4.116414 0.60158,0.48187 2.12981,0.722802 4.58469,0.722796 1.20317,6e-6 2.09381,-0.01211 2.67192,-0.03636 0.57807,-0.02423 1.2039,-0.08447 1.87751,-0.180699 0.67356,-0.09622 1.14293,-0.252679 1.40813,-0.469377 0.26515,-0.216685 0.49396,-0.517483 0.68644,-0.902394 0.19242,-0.384896 0.28865,-0.890265 0.28867,-1.516109 z" />
  <path
     inkscape:connector-curvature="0"
     id="path3010"
     style="font-size:72.20912933px;font-style:normal;font-variant:normal;font-weight:bold;font-stretch:normal;line-height:125%;letter-spacing:0px;word-spacing:0px;fill:#1a1a1a;fill-opacity:1;stroke:none;font-family:Play;-inkscape-font-specification:Sans Bold"
     d="m 399.2719,34.422948 -3.61178,0 c -2.88826,2.7e-5 -5.06657,0.445163 -6.53491,1.33541 -1.46838,0.890299 -2.20256,2.418894 -2.20255,4.585791 l 0,21.011781 -10.54225,0 0,-34.949853 10.03762,0 0,6.139363 c 0.0485,-1.733506 1.04745,-3.310214 2.99696,-4.73013 1.94947,-1.419849 3.98344,-2.12979 6.1019,-2.129826 l 3.75501,0 z" />
  <path
     inkscape:connector-curvature="0"
     id="path3012"
     style="font-size:72.20912933px;font-style:normal;font-variant:normal;font-weight:normal;font-stretch:normal;line-height:125%;letter-spacing:0px;word-spacing:0px;fill:#808080;fill-opacity:1;stroke:none;font-family:Play;-inkscape-font-specification:Play"
     d="m 413.82039,61.35593 -8.37607,0 0,-7.798709 8.37607,0 z" />
  <path
     inkscape:connector-curvature="0"
     id="path3014"
     style="font-size:72.20912933px;font-style:normal;font-variant:normal;font-weight:normal;font-stretch:normal;line-height:125%;letter-spacing:0px;word-spacing:0px;fill:#808080;fill-opacity:1;stroke:none;font-family:Play;-inkscape-font-specification:Play"
     d="m 430.99561,20.557596 -6.49856,0 0,-6.787235 6.49856,0 z m 0,40.798334 -6.49856,0 0,-34.949853 6.49856,0 z" />
  <path
     inkscape:connector-curvature="0"
     id="path3016"
     style="font-size:72.20912933px;font-style:normal;font-variant:normal;font-weight:normal;font-stretch:normal;line-height:125%;letter-spacing:0px;word-spacing:0px;fill:#808080;fill-opacity:1;stroke:none;font-family:Play;-inkscape-font-specification:Play"
     d="m 473.17341,38.17576 0,12.131081 c -4e-5,2.166929 -0.26484,3.996689 -0.79441,5.489286 -0.52965,1.492608 -1.2036,2.648053 -2.02185,3.466338 -0.81832,0.818289 -1.98589,1.444124 -3.5027,1.877508 -1.51687,0.433384 -2.96136,0.698188 -4.33347,0.794415 -1.37216,0.09623 -3.18944,0.144338 -5.45183,0.144339 -2.88826,-10e-7 -5.13855,-0.09623 -6.75087,-0.288678 -1.61235,-0.192452 -3.22505,-0.661829 -4.83811,-1.408131 -1.61308,-0.7463 -2.76852,-1.937738 -3.46634,-3.574317 -0.69782,-1.636569 -1.04674,-3.803487 -1.04673,-6.50076 l 0,-12.131081 c -1e-5,-2.309398 0.27692,-4.258522 0.83077,-5.84738 0.55385,-1.588799 1.2278,-2.816597 2.02185,-3.683397 0.79404,-0.866734 1.96124,-1.528563 3.5016,-1.985486 1.54033,-0.456855 2.97234,-0.733412 4.29601,-0.829674 1.32364,-0.09619 3.14091,-0.144303 5.45182,-0.144339 2.31087,3.6e-5 4.12815,0.04815 5.45183,0.144339 1.32363,0.09626 2.756,0.372819 4.29711,0.829674 1.54105,0.456923 2.70862,1.118752 3.5027,1.985486 0.79401,0.8668 1.46796,2.094598 2.02185,3.683397 0.55381,1.588858 0.83073,3.537982 0.83077,5.84738 z m -6.644,13.069834 0,-14.151825 c -3e-5,-3.226113 -0.6501,-5.224085 -1.95023,-5.993922 -1.30017,-0.769777 -3.80352,-1.15468 -7.51003,-1.154712 -3.70655,3.2e-5 -6.20952,0.384935 -7.50893,1.154712 -1.29943,0.769837 -1.94913,2.767809 -1.94912,5.993922 l 0,14.151825 c -1e-5,1.541093 0.1682,2.768891 0.50463,3.683398 0.33641,0.914519 0.96225,1.576347 1.87751,1.985486 0.91523,0.409148 1.85399,0.661833 2.81626,0.758055 0.96224,0.09623 2.38213,0.144343 4.25965,0.144339 1.87749,4e-6 3.29774,-0.04811 4.26076,-0.144339 0.96296,-0.09622 1.90172,-0.348907 2.81626,-0.758055 0.91448,-0.409139 1.54032,-1.070967 1.87751,-1.985486 0.33712,-0.914507 0.5057,-2.142305 0.50573,-3.683398 z" />
</svg>
