<?xml version="1.0" encoding="UTF-8" standalone="no"?>
<!-- Created with Inkscape (http://www.inkscape.org/) -->

<svg
   xmlns:dc="http://purl.org/dc/elements/1.1/"
   xmlns:cc="http://creativecommons.org/ns#"
   xmlns:rdf="http://www.w3.org/1999/02/22-rdf-syntax-ns#"
   xmlns:svg="http://www.w3.org/2000/svg"
   xmlns="http://www.w3.org/2000/svg"
   xmlns:xlink="http://www.w3.org/1999/xlink"
   xmlns:sodipodi="http://sodipodi.sourceforge.net/DTD/sodipodi-0.dtd"
   xmlns:inkscape="http://www.inkscape.org/namespaces/inkscape"
   width="50.255772"
   height="58.52702"
   id="svg6718"
   version="1.1"
   inkscape:version="0.48.4 r9939"
   sodipodi:docname="crossbar_arch_raspberry.svg">
  <defs
     id="defs6720">
    <filter
       id="filter5034-4"
       inkscape:label="Desaturate"
       x="0"
       y="0"
       width="1"
       height="1"
       inkscape:menu="Color"
       inkscape:menu-tooltip="Render in shades of gray by reducing saturation to zero"
       color-interpolation-filters="sRGB">
      <feColorMatrix
         id="feColorMatrix5036-8"
         type="saturate"
         values="0" />
    </filter>
    <filter
       id="filter6583"
       inkscape:label="Desaturate"
       x="0"
       y="0"
       width="1"
       height="1"
       inkscape:menu="Color"
       inkscape:menu-tooltip="Render in shades of gray by reducing saturation to zero"
       color-interpolation-filters="sRGB">
      <feColorMatrix
         id="feColorMatrix6585"
         type="saturate"
         values="0" />
    </filter>
    <filter
       id="filter6587"
       inkscape:label="Desaturate"
       x="0"
       y="0"
       width="1"
       height="1"
       inkscape:menu="Color"
       inkscape:menu-tooltip="Render in shades of gray by reducing saturation to zero"
       color-interpolation-filters="sRGB">
      <feColorMatrix
         id="feColorMatrix6589"
         type="saturate"
         values="0" />
    </filter>
    <filter
       id="filter6591"
       inkscape:label="Desaturate"
       x="0"
       y="0"
       width="1"
       height="1"
       inkscape:menu="Color"
       inkscape:menu-tooltip="Render in shades of gray by reducing saturation to zero"
       color-interpolation-filters="sRGB">
      <feColorMatrix
         id="feColorMatrix6593"
         type="saturate"
         values="0" />
    </filter>
    <filter
       id="filter6595"
       inkscape:label="Desaturate"
       x="0"
       y="0"
       width="1"
       height="1"
       inkscape:menu="Color"
       inkscape:menu-tooltip="Render in shades of gray by reducing saturation to zero"
       color-interpolation-filters="sRGB">
      <feColorMatrix
         id="feColorMatrix6597"
         type="saturate"
         values="0" />
    </filter>
    <filter
       id="filter6599"
       inkscape:label="Desaturate"
       x="0"
       y="0"
       width="1"
       height="1"
       inkscape:menu="Color"
       inkscape:menu-tooltip="Render in shades of gray by reducing saturation to zero"
       color-interpolation-filters="sRGB">
      <feColorMatrix
         id="feColorMatrix6601"
         type="saturate"
         values="0" />
    </filter>
    <filter
       id="filter6603"
       inkscape:label="Desaturate"
       x="0"
       y="0"
       width="1"
       height="1"
       inkscape:menu="Color"
       inkscape:menu-tooltip="Render in shades of gray by reducing saturation to zero"
       color-interpolation-filters="sRGB">
      <feColorMatrix
         id="feColorMatrix6605"
         type="saturate"
         values="0" />
    </filter>
    <filter
       id="filter4592"
       inkscape:label="Desaturate"
       x="0"
       y="0"
       width="1"
       height="1"
       inkscape:menu="Color"
       inkscape:menu-tooltip="Render in shades of gray by reducing saturation to zero"
       color-interpolation-filters="sRGB">
      <feColorMatrix
         id="feColorMatrix4594"
         type="saturate"
         values="0" />
    </filter>
    <linearGradient
       inkscape:collect="always"
       xlink:href="#linearGradient6056"
       id="linearGradient3539"
       gradientUnits="userSpaceOnUse"
       x1="331.34576"
       y1="452.02783"
       x2="331.34576"
       y2="574.2973" />
    <linearGradient
       id="linearGradient6056">
      <stop
         style="stop-color:#ffffff;stop-opacity:1;"
         offset="0"
         id="stop6062" />
      <stop
         style="stop-color:#838383;stop-opacity:1;"
         offset="1"
         id="stop6064" />
    </linearGradient>
    <linearGradient
       inkscape:collect="always"
       xlink:href="#linearGradient6056"
       id="linearGradient3531"
       gradientUnits="userSpaceOnUse"
       x1="331.34576"
       y1="452.02783"
       x2="331.34576"
       y2="574.2973" />
    <linearGradient
       id="linearGradient6858">
      <stop
         style="stop-color:#ffffff;stop-opacity:1;"
         offset="0"
         id="stop6860" />
      <stop
         style="stop-color:#838383;stop-opacity:1;"
         offset="1"
         id="stop6862" />
    </linearGradient>
    <linearGradient
       inkscape:collect="always"
       xlink:href="#linearGradient6056"
       id="linearGradient3533"
       gradientUnits="userSpaceOnUse"
       x1="331.34576"
       y1="452.02783"
       x2="331.34576"
       y2="574.2973" />
    <linearGradient
       id="linearGradient6865">
      <stop
         style="stop-color:#ffffff;stop-opacity:1;"
         offset="0"
         id="stop6867" />
      <stop
         style="stop-color:#838383;stop-opacity:1;"
         offset="1"
         id="stop6869" />
    </linearGradient>
    <linearGradient
       inkscape:collect="always"
       xlink:href="#linearGradient6056"
       id="linearGradient3535"
       gradientUnits="userSpaceOnUse"
       x1="331.34576"
       y1="452.02783"
       x2="331.34576"
       y2="574.2973" />
    <linearGradient
       id="linearGradient6872">
      <stop
         style="stop-color:#ffffff;stop-opacity:1;"
         offset="0"
         id="stop6874" />
      <stop
         style="stop-color:#838383;stop-opacity:1;"
         offset="1"
         id="stop6876" />
    </linearGradient>
    <linearGradient
       inkscape:collect="always"
       xlink:href="#linearGradient6056"
       id="linearGradient3537"
       gradientUnits="userSpaceOnUse"
       x1="331.34576"
       y1="452.02783"
       x2="331.34576"
       y2="574.2973" />
    <linearGradient
       id="linearGradient6879">
      <stop
         style="stop-color:#ffffff;stop-opacity:1;"
         offset="0"
         id="stop6881" />
      <stop
         style="stop-color:#838383;stop-opacity:1;"
         offset="1"
         id="stop6883" />
    </linearGradient>
    <linearGradient
       inkscape:collect="always"
       xlink:href="#linearGradient6114"
       id="linearGradient3547"
       gradientUnits="userSpaceOnUse"
       x1="346.11499"
       y1="520.72614"
       x2="346.11499"
       y2="567.32123" />
    <linearGradient
       id="linearGradient6114">
      <stop
         id="stop6116"
         offset="0"
         style="stop-color:#ffffff;stop-opacity:0;" />
      <stop
         id="stop6118"
         offset="1"
         style="stop-color:#000000;stop-opacity:0.53846157;" />
    </linearGradient>
    <linearGradient
       inkscape:collect="always"
       xlink:href="#linearGradient6114"
       id="linearGradient3541"
       gradientUnits="userSpaceOnUse"
       x1="346.11499"
       y1="520.72614"
       x2="346.11499"
       y2="567.32123" />
    <linearGradient
       id="linearGradient6890">
      <stop
         id="stop6892"
         offset="0"
         style="stop-color:#ffffff;stop-opacity:0;" />
      <stop
         id="stop6894"
         offset="1"
         style="stop-color:#000000;stop-opacity:0.53846157;" />
    </linearGradient>
    <linearGradient
       inkscape:collect="always"
       xlink:href="#linearGradient6114"
       id="linearGradient3543"
       gradientUnits="userSpaceOnUse"
       x1="346.11499"
       y1="520.72614"
       x2="346.11499"
       y2="567.32123" />
    <linearGradient
       id="linearGradient6897">
      <stop
         id="stop6899"
         offset="0"
         style="stop-color:#ffffff;stop-opacity:0;" />
      <stop
         id="stop6901"
         offset="1"
         style="stop-color:#000000;stop-opacity:0.53846157;" />
    </linearGradient>
    <linearGradient
       inkscape:collect="always"
       xlink:href="#linearGradient6114"
       id="linearGradient3545"
       gradientUnits="userSpaceOnUse"
       x1="346.11499"
       y1="520.72614"
       x2="346.11499"
       y2="567.32123" />
    <linearGradient
       id="linearGradient6904">
      <stop
         id="stop6906"
         offset="0"
         style="stop-color:#ffffff;stop-opacity:0;" />
      <stop
         id="stop6908"
         offset="1"
         style="stop-color:#000000;stop-opacity:0.53846157;" />
    </linearGradient>
    <radialGradient
       inkscape:collect="always"
       xlink:href="#linearGradient6030"
       id="radialGradient3557"
       gradientUnits="userSpaceOnUse"
       gradientTransform="matrix(4.39697,-0.781364,0.273452,1.5388,-1379.4,111.904)"
       cx="363.84866"
       cy="494.10422"
       fx="363.84866"
       fy="494.10422"
       r="88.392456" />
    <linearGradient
       id="linearGradient6030">
      <stop
         id="stop6032"
         offset="0"
         style="stop-color:#ffffff;stop-opacity:1;" />
      <stop
         style="stop-color:#000000;stop-opacity:1;"
         offset="0.5"
         id="stop6038" />
      <stop
         id="stop6040"
         offset="0.51028222"
         style="stop-color:#ffffff;stop-opacity:1;" />
      <stop
         id="stop6034"
         offset="1"
         style="stop-color:#000000;stop-opacity:1;" />
    </linearGradient>
    <radialGradient
       inkscape:collect="always"
       xlink:href="#linearGradient6030"
       id="radialGradient3549"
       gradientUnits="userSpaceOnUse"
       gradientTransform="matrix(4.39697,-0.781364,0.273452,1.5388,-1379.4,111.904)"
       cx="363.84866"
       cy="494.10422"
       fx="363.84866"
       fy="494.10422"
       r="88.392456" />
    <linearGradient
       id="linearGradient6923">
      <stop
         id="stop6925"
         offset="0"
         style="stop-color:#ffffff;stop-opacity:1;" />
      <stop
         style="stop-color:#000000;stop-opacity:1;"
         offset="0.5"
         id="stop6927" />
      <stop
         id="stop6929"
         offset="0.51028222"
         style="stop-color:#ffffff;stop-opacity:1;" />
      <stop
         id="stop6931"
         offset="1"
         style="stop-color:#000000;stop-opacity:1;" />
    </linearGradient>
    <radialGradient
       inkscape:collect="always"
       xlink:href="#linearGradient6030"
       id="radialGradient3551"
       gradientUnits="userSpaceOnUse"
       gradientTransform="matrix(4.39697,-0.781364,0.273452,1.5388,-1379.4,111.904)"
       cx="363.84866"
       cy="494.10422"
       fx="363.84866"
       fy="494.10422"
       r="88.392456" />
    <linearGradient
       id="linearGradient6934">
      <stop
         id="stop6936"
         offset="0"
         style="stop-color:#ffffff;stop-opacity:1;" />
      <stop
         style="stop-color:#000000;stop-opacity:1;"
         offset="0.5"
         id="stop6938" />
      <stop
         id="stop6940"
         offset="0.51028222"
         style="stop-color:#ffffff;stop-opacity:1;" />
      <stop
         id="stop6942"
         offset="1"
         style="stop-color:#000000;stop-opacity:1;" />
    </linearGradient>
    <radialGradient
       inkscape:collect="always"
       xlink:href="#linearGradient6030"
       id="radialGradient3553"
       gradientUnits="userSpaceOnUse"
       gradientTransform="matrix(4.39697,-0.781364,0.273452,1.5388,-1379.4,111.904)"
       cx="363.84866"
       cy="494.10422"
       fx="363.84866"
       fy="494.10422"
       r="88.392456" />
    <linearGradient
       id="linearGradient6945">
      <stop
         id="stop6947"
         offset="0"
         style="stop-color:#ffffff;stop-opacity:1;" />
      <stop
         style="stop-color:#000000;stop-opacity:1;"
         offset="0.5"
         id="stop6949" />
      <stop
         id="stop6951"
         offset="0.51028222"
         style="stop-color:#ffffff;stop-opacity:1;" />
      <stop
         id="stop6953"
         offset="1"
         style="stop-color:#000000;stop-opacity:1;" />
    </linearGradient>
    <radialGradient
       inkscape:collect="always"
       xlink:href="#linearGradient6030"
       id="radialGradient3555"
       gradientUnits="userSpaceOnUse"
       gradientTransform="matrix(4.39697,-0.781364,0.273452,1.5388,-1379.4,111.904)"
       cx="363.84866"
       cy="494.10422"
       fx="363.84866"
       fy="494.10422"
       r="88.392456" />
    <linearGradient
       id="linearGradient6956">
      <stop
         id="stop6958"
         offset="0"
         style="stop-color:#ffffff;stop-opacity:1;" />
      <stop
         style="stop-color:#000000;stop-opacity:1;"
         offset="0.5"
         id="stop6960" />
      <stop
         id="stop6962"
         offset="0.51028222"
         style="stop-color:#ffffff;stop-opacity:1;" />
      <stop
         id="stop6964"
         offset="1"
         style="stop-color:#000000;stop-opacity:1;" />
    </linearGradient>
    <filter
       id="filter4726"
       inkscape:label="Desaturate"
       x="0"
       y="0"
       width="1"
       height="1"
       inkscape:menu="Color"
       inkscape:menu-tooltip="Render in shades of gray by reducing saturation to zero"
       color-interpolation-filters="sRGB">
      <feColorMatrix
         id="feColorMatrix4728"
         type="saturate"
         values="0" />
    </filter>
  </defs>
  <sodipodi:namedview
     id="base"
     pagecolor="#ffffff"
     bordercolor="#666666"
     borderopacity="1.0"
     inkscape:pageopacity="0.0"
     inkscape:pageshadow="2"
     inkscape:zoom="11.2"
     inkscape:cx="-9.734829"
     inkscape:cy="29.013331"
     inkscape:document-units="px"
     inkscape:current-layer="layer1"
     showgrid="false"
     fit-margin-top="5"
     fit-margin-right="5"
     fit-margin-left="5"
     fit-margin-bottom="5"
     inkscape:window-width="1858"
     inkscape:window-height="1178"
     inkscape:window-x="1016"
     inkscape:window-y="-8"
     inkscape:window-maximized="1" />
  <metadata
     id="metadata6723">
    <rdf:RDF>
      <cc:Work
         rdf:about="">
        <dc:format>image/svg+xml</dc:format>
        <dc:type
           rdf:resource="http://purl.org/dc/dcmitype/StillImage" />
        <dc:title />
      </cc:Work>
    </rdf:RDF>
  </metadata>
  <g
     inkscape:label="Ebene 1"
     inkscape:groupmode="layer"
     id="layer1"
     transform="translate(-802.00868,-583.2674)">
    <g
       id="g3141"
       transform="translate(39.464286,-1.875)">
      <path
         id="path4"
         d="m 775.87016,588.93113 c -0.25095,0.008 -0.52123,0.10049 -0.82776,0.34235 -0.75094,-0.28958 -1.47899,-0.39018 -2.13008,0.19936 -1.00541,-0.13041 -1.33213,0.13869 -1.57967,0.45286 -0.2207,-0.004 -1.65157,-0.22688 -2.30772,0.75191 -1.64894,-0.19513 -2.17008,0.9699 -1.5796,2.0563 -0.33677,0.52135 -0.68572,1.0364 0.10184,2.03029 -0.27859,0.55357 -0.1059,1.15407 0.55038,1.88081 -0.1732,0.77819 0.16725,1.32721 0.77791,1.75509 -0.11421,1.06491 0.97656,1.68402 1.30224,1.90466 0.12507,0.62049 0.38573,1.20601 1.6316,1.52975 0.20547,0.92469 0.95424,1.08438 1.67932,1.27846 -2.39648,1.39301 -4.4516,3.22583 -4.43767,7.72292 l -0.35102,0.6262 c -2.74789,1.67106 -5.22015,7.04202 -1.35418,11.40756 0.25252,1.36653 0.67602,2.34808 1.05311,3.43441 0.56398,4.3774 4.24476,6.42711 5.21557,6.66952 1.42261,1.08363 2.93773,2.11185 4.98807,2.83206 1.93281,1.99342 4.02676,2.75316 6.13215,2.75191 0.0309,-2e-5 0.0623,6.7e-4 0.0932,0 2.10539,10e-4 4.19928,-0.75843 6.13216,-2.75191 2.05026,-0.72021 3.56544,-1.74843 4.98807,-2.83206 0.9708,-0.2424 4.65156,-2.29212 5.21556,-6.66952 0.37706,-1.08633 0.80058,-2.06788 1.05311,-3.43441 3.86589,-4.36589 1.3937,-9.73719 -1.35424,-11.40825 l -0.35155,-0.62613 c 0.0139,-4.49673 -2.04119,-6.32955 -4.43767,-7.72291 0.72508,-0.19404 1.47386,-0.35373 1.67932,-1.27846 1.24587,-0.3238 1.50658,-0.90931 1.6316,-1.52975 0.32573,-0.22058 1.41644,-0.83976 1.30224,-1.90465 0.61065,-0.42793 0.95112,-0.97698 0.77791,-1.7551 0.65628,-0.72674 0.82901,-1.32721 0.55038,-1.8808 0.78768,-0.99349 0.43821,-1.50854 0.10192,-2.02989 0.59007,-1.08639 0.0693,-2.25142 -1.58022,-2.0563 -0.65594,-0.97878 -2.0864,-0.75648 -2.30759,-0.75191 -0.24753,-0.31416 -0.57412,-0.58327 -1.57952,-0.45286 -0.65109,-0.58953 -1.37915,-0.48893 -2.13008,-0.19935 -0.8917,-0.70364 -1.48176,-0.13959 -2.15573,0.0737 -1.07961,-0.35278 -1.32645,0.13043 -1.85689,0.32719 -1.17736,-0.24879 -1.53515,0.29289 -2.09957,0.86459 l -0.65654,-0.013 c -1.77584,1.04652 -2.65803,3.1775 -2.97074,4.27298 -0.31287,-1.09568 -1.19304,-3.22666 -2.96852,-4.27298 l -0.65655,0.013 c -0.56511,-0.5717 -0.9229,-1.11337 -2.10027,-0.86459 -0.53043,-0.19676 -0.77659,-0.67997 -1.85688,-0.32719 -0.44236,-0.13996 -0.84918,-0.4309 -1.32825,-0.41603 z"
         inkscape:connector-curvature="0"
         style="fill:#000000" />
      <path
         id="path6"
         d="m 772.33459,593.53518 c 4.71141,2.429 7.45042,4.39391 8.95091,6.06739 -0.76841,3.07988 -4.77715,3.22043 -6.24297,3.13403 0.30013,-0.13969 0.55055,-0.30701 0.63934,-0.56411 -0.3678,-0.2614 -1.67196,-0.0276 -2.58244,-0.53905 0.34975,-0.0725 0.51335,-0.14305 0.67694,-0.40116 -0.86021,-0.27435 -1.78677,-0.51077 -2.33171,-0.96526 0.29409,0.004 0.56866,0.0658 0.95271,-0.20058 -0.77049,-0.4152 -1.59263,-0.74427 -2.23138,-1.37893 0.39836,-0.01 0.82783,-0.004 0.95271,-0.15042 -0.70517,-0.43689 -1.30017,-0.92276 -1.79268,-1.45417 0.55749,0.0673 0.79289,0.009 0.92768,-0.0878 -0.53305,-0.54598 -1.20773,-1.007 -1.52939,-1.67979 0.41392,0.14267 0.7926,0.19727 1.06559,-0.0126 -0.18114,-0.40864 -0.95722,-0.64967 -1.40404,-1.60462 0.43576,0.0423 0.89794,0.0951 0.99037,0 -0.20226,-0.82402 -0.5493,-1.28727 -0.88969,-1.76724 0.93261,-0.0139 2.34559,0.004 2.28159,-0.0752 l -0.57666,-0.58919 c 0.91097,-0.24527 1.84309,0.0394 2.51977,0.25071 0.30383,-0.23974 -0.005,-0.54292 -0.37608,-0.85244 0.77416,0.10335 1.47372,0.28134 2.10601,0.52652 0.33785,-0.30505 -0.21938,-0.61009 -0.4889,-0.91513 1.19602,0.22691 1.70274,0.54574 2.20634,0.865 0.36538,-0.35022 0.0209,-0.64786 -0.22564,-0.95272 0.90181,0.33401 1.36631,0.76522 1.85535,1.19089 0.16581,-0.22376 0.42123,-0.38777 0.11283,-0.92768 0.64029,0.36907 1.12252,0.80398 1.47927,1.29122 0.39616,-0.25224 0.23602,-0.59721 0.23819,-0.91513 0.66541,0.5413 1.08771,1.11732 1.60462,1.67979 0.10414,-0.0758 0.1953,-0.33293 0.2758,-0.73963 1.5875,1.54015 3.83067,5.41936 0.57665,6.95742 -2.76938,-2.28401 -6.07682,-3.94418 -9.74205,-5.18957 z"
         inkscape:connector-curvature="0"
         style="fill:#b3b3b3" />
      <path
         id="path8"
         d="m 797.33318,593.53518 c -4.71085,2.4292 -7.44972,4.39356 -8.9502,6.06739 0.76841,3.07988 4.77714,3.22043 6.24296,3.13403 -0.30013,-0.13969 -0.55055,-0.30701 -0.63934,-0.56411 0.3678,-0.2614 1.67196,-0.0276 2.58244,-0.53905 -0.34975,-0.0725 -0.51334,-0.14305 -0.67694,-0.40116 0.86021,-0.27435 1.78678,-0.51077 2.33171,-0.96526 -0.29409,0.004 -0.56866,0.0658 -0.95271,-0.20058 0.77049,-0.4152 1.59263,-0.74427 2.23138,-1.37893 -0.39837,-0.01 -0.82783,-0.004 -0.95271,-0.15042 0.70517,-0.43689 1.30017,-0.92276 1.79268,-1.45417 -0.55749,0.0673 -0.79289,0.009 -0.92768,-0.0878 0.53306,-0.54598 1.20773,-1.007 1.52939,-1.67979 -0.41392,0.14267 -0.7926,0.19727 -1.06559,-0.0126 0.18114,-0.40864 0.95722,-0.64967 1.40404,-1.60462 -0.43576,0.0423 -0.89794,0.0951 -0.99037,0 0.20263,-0.82437 0.54968,-1.28762 0.89003,-1.76758 -0.9326,-0.0138 -2.34558,0.004 -2.28158,-0.0752 l 0.57665,-0.58919 c -0.91097,-0.24526 -1.84308,0.0394 -2.51976,0.25072 -0.30383,-0.23975 0.005,-0.54291 0.37609,-0.85244 -0.77417,0.10336 -1.47372,0.28133 -2.10603,0.52651 -0.33784,-0.30504 0.21939,-0.61009 0.48891,-0.91513 -1.19602,0.22692 -1.70274,0.54575 -2.20634,0.865 -0.36538,-0.35022 -0.0209,-0.64785 0.22564,-0.95271 -0.90182,0.334 -1.36632,0.76522 -1.85536,1.19088 -0.1658,-0.22375 -0.42122,-0.38776 -0.11282,-0.92767 -0.64029,0.36906 -1.12253,0.80398 -1.47927,1.29122 -0.39616,-0.25225 -0.23602,-0.59722 -0.23819,-0.91513 -0.66541,0.54129 -1.08771,1.11732 -1.60462,1.6798 -0.10413,-0.0758 -0.19531,-0.33295 -0.2758,-0.73964 -1.5875,1.54014 -3.83067,5.41936 -0.57666,6.95742 2.76793,-2.28449 6.07516,-3.94453 9.74067,-5.18992 z"
         inkscape:connector-curvature="0"
         style="fill:#b3b3b3" />
      <path
         id="path10"
         d="m 790.53948,624.89736 a 5.6434513,5.2039474 0 1 1 -11.28675,0 5.6434513,5.2039474 0 1 1 11.28675,0 z"
         inkscape:connector-curvature="0"
         style="fill:#4d4d4d" />
      <path
         id="path12"
         d="m 781.63068,610.03154 a 5.0616295,5.972102 34.034226 0 1 -6.58493,9.96479 5.0616295,5.972102 34.034226 0 1 6.58493,-9.96479 z"
         inkscape:connector-curvature="0"
         style="fill:#4d4d4d" />
      <path
         id="path14"
         d="m 787.94212,609.75419 a 5.9720976,5.0616258 55.965774 0 0 6.58492,9.96478 5.9720976,5.0616258 55.965774 1 0 -6.58492,-9.96478 z"
         inkscape:connector-curvature="0"
         style="fill:#4d4d4d" />
      <path
         id="path16"
         d="m 769.9438,612.53627 c 2.52462,-0.67674 0.85231,10.44445 -1.20184,9.53196 -2.25953,-1.81736 -2.9873,-7.13978 1.20184,-9.53196 z"
         inkscape:connector-curvature="0"
         style="fill:#4d4d4d" />
      <path
         id="path18"
         d="m 799.11935,612.39759 c -2.5249,-0.67652 -0.85232,10.44515 1.20184,9.53265 2.25953,-1.81756 2.9873,-7.14047 -1.20184,-9.53265 z"
         inkscape:connector-curvature="0"
         style="fill:#4d4d4d" />
      <path
         id="path20"
         d="m 790.54148,604.11581 c 4.35689,-0.73568 7.98225,1.85286 7.83594,6.57731 -0.14331,1.81119 -9.44112,-6.30765 -7.83594,-6.57731 z"
         inkscape:connector-curvature="0"
         style="fill:#4d4d4d" />
      <path
         id="path22"
         d="m 778.50364,603.97714 c -4.35723,-0.73568 -7.98225,1.85341 -7.83594,6.57744 0.14332,1.81112 9.44112,-6.30772 7.83594,-6.57744 z"
         inkscape:connector-curvature="0"
         style="fill:#4d4d4d" />
      <path
         id="path24"
         d="m 784.76212,602.87535 c -2.60039,-0.0676 -5.09602,1.92996 -5.10205,3.08861 -0.007,1.40785 2.05594,2.84932 5.11973,2.88587 3.12876,0.0224 5.12523,-1.1538 5.13528,-2.60672 0.0114,-1.64609 -2.84558,-3.39321 -5.15302,-3.36783 z"
         inkscape:connector-curvature="0"
         style="fill:#4d4d4d" />
      <path
         id="path26"
         d="m 784.92091,631.7451 c 2.26716,-0.099 5.30931,0.73027 5.31528,1.83026 0.0377,1.06815 -2.75898,3.48155 -5.46567,3.43489 -2.80315,0.12092 -5.55187,-2.29622 -5.51588,-3.13403 -0.042,-1.2284 3.41326,-2.18749 5.66627,-2.13112 z"
         inkscape:connector-curvature="0"
         style="fill:#4d4d4d" />
      <path
         id="path28"
         d="m 776.54691,625.2259 c 1.61412,1.94466 2.34994,5.36118 1.00291,6.36832 -1.27437,0.76882 -4.36916,0.4522 -6.56885,-2.7078 -1.4835,-2.65164 -1.29233,-5.34995 -0.25072,-6.14263 1.55762,-0.94883 3.96428,0.33276 5.81673,2.48211 z"
         inkscape:connector-curvature="0"
         style="fill:#4d4d4d" />
      <path
         id="path30"
         d="m 792.9718,624.60948 c -1.74643,2.04562 -2.7189,5.77658 -1.44488,6.97822 1.21814,0.93357 4.48821,0.80308 6.90376,-2.5486 1.75398,-2.25107 1.16627,-6.0104 0.16438,-7.00873 -1.48828,-1.15116 -3.62481,0.32207 -5.62328,2.57856 z"
         inkscape:connector-curvature="0"
         style="fill:#4d4d4d" />
    </g>
    <text
       xml:space="preserve"
       style="font-size:9px;font-style:normal;font-variant:normal;font-weight:normal;font-stretch:normal;line-height:125%;letter-spacing:0px;word-spacing:0px;fill:#000000;fill-opacity:1;stroke:none;font-family:Open Sans;-inkscape-font-specification:Open Sans"
       x="39.19643"
       y="16.562735"
       id="text3157"
       sodipodi:linespacing="125%"
       transform="translate(802.00868,583.2674)"><tspan
         sodipodi:role="line"
         id="tspan3159"
         x="39.19643"
         y="16.562735" /></text>
    <g
       id="g3165"
       transform="matrix(1.4426257,0,0,1.4426257,841.10281,594.39378)">
      <g
         style="font-size:13.80000019px;font-style:normal;font-weight:normal;text-align:start;text-anchor:start;fill:#000000;font-family:Calibri"
         id="text3167">
        <path
           d="M 6.131836,6.1847066 C 6.1318299,6.5530725 6.0633241,6.8978475 5.9263184,7.2190328 5.7893009,7.5402297 5.6017523,7.8187451 5.3636719,8.0545797 5.1255809,8.2904243 4.8448194,8.4768499 4.5213868,8.613857 4.1979451,8.750873 3.852047,8.8193788 3.4836915,8.8193746 3.1018524,8.8193788 2.7503391,8.7531191 2.4291504,8.6205953 2.1079569,8.4880803 1.8316876,8.3061469 1.6003418,8.0747945 1.3689928,7.8434521 1.1881824,7.5683059 1.0579102,7.249355 0.9276358,6.9304159 0.86249915,6.5800256 0.86250001,6.1981832 0.86249915,5.829831 0.93100494,5.486179 1.0680176,5.1672261 1.2050281,4.848289 1.3925768,4.5708967 1.6306641,4.3350484 1.8687482,4.0992175 2.1483866,3.9139149 2.4695801,3.7791402 2.7907687,3.6443839 3.1377899,3.5770012 3.5106446,3.5769917 c 0.381832,9.5e-6 0.7333454,0.065146 1.054541,0.1954102 0.3211865,0.1302826 0.5974558,0.3110929 0.8288086,0.5424316 0.231342,0.2313562 0.4121524,0.5065024 0.5424317,0.8254395 0.1302673,0.3189529 0.195404,0.6670971 0.1954101,1.0444336 z m -0.6064453,0.04043 C 5.5253852,5.9061981 5.4748481,5.6164523 5.3737794,5.355898 5.2726999,5.0953591 5.1323192,4.871873 4.9526368,4.685439 4.7729445,4.4990218 4.5595658,4.356395 4.3125001,4.2575581 4.0654257,4.1587389 3.7981408,4.1093249 3.5106446,4.1093159 3.2006804,4.1093249 2.921042,4.1632311 2.6717286,4.2710347 2.4224097,4.3788559 2.207908,4.5270979 2.0282227,4.7157613 1.8485333,4.9044413 1.7103987,5.1234352 1.6138184,5.3727437 1.5172348,5.6220675 1.4689439,5.8882294 1.4689453,6.17123 1.4689439,6.4856897 1.5194809,6.7731894 1.6205567,7.03373 1.7216292,7.2942827 1.8620099,7.5177688 2.0416992,7.704189 2.2213845,7.89062 2.4347632,8.0343698 2.681836,8.135439 2.9289034,8.2365181 3.1961883,8.2870551 3.4836915,8.2870504 3.7936486,8.2870551 4.07441,8.2320259 4.3259766,8.1219625 4.5775345,8.0119089 4.7920363,7.8636669 4.9694825,7.6772359 5.1469188,7.4908157 5.2839303,7.2729448 5.3805177,7.0236226 5.4770942,6.7743125 5.5253852,6.5081506 5.5253907,6.2251363 z M 4.7302735,7.4582418 c -4.7e-6,0.017974 -0.00337,0.03482 -0.010107,0.050537 -0.00674,0.015728 -0.023589,0.026959 -0.050537,0.033691 -0.026958,0.00674 -0.065141,0.012359 -0.1145508,0.016846 -0.049419,0.0045 -0.1168013,0.00674 -0.2021485,0.00674 -0.076371,5.5e-6 -0.1381389,-0.00224 -0.1853027,-0.00674 C 4.1204549,7.5548293 4.0822714,7.546968 4.0530762,7.535732 4.023873,7.5245071 4.0014121,7.5087844 3.9856934,7.488564 3.9699668,7.4683548 3.9576133,7.4402786 3.9486329,7.4043355 L 3.807129,6.9393941 C 3.753219,6.7731894 3.6892053,6.6575157 3.6150879,6.5923726 3.5409633,6.5272424 3.4297818,6.4946741 3.281543,6.4946675 l -0.1819336,0 0,0.9433594 c -3.1e-6,0.04942 -0.019095,0.083111 -0.057275,0.1010742 -0.038187,0.017974 -0.1269072,0.026959 -0.2661621,0.026953 -0.1392604,5.5e-6 -0.2313502,-0.00898 -0.2762695,-0.026953 -0.044924,-0.017963 -0.067385,-0.051654 -0.067383,-0.1010742 l 0,-2.419043 c -2.5e-6,-0.09882 0.024704,-0.1763101 0.074121,-0.2324707 0.049411,-0.056144 0.1235325,-0.08422 0.2223632,-0.084229 l 0.7749024,0 c 0.1796838,8.4e-6 0.3380333,0.015731 0.4750488,0.047168 0.1370076,0.031454 0.2538044,0.080868 0.3503907,0.1482422 0.096578,0.067391 0.1695755,0.1516193 0.2189941,0.2526855 0.049409,0.101082 0.074116,0.2212479 0.074121,0.3604981 C 4.6224564,5.7265108 4.564058,5.8938446 4.4472657,6.0128804 4.3304645,6.1319303 4.1732381,6.2161587 3.975586,6.265566 c 0.1078084,0.035944 0.2088825,0.096589 0.3032227,0.1819336 0.094332,0.085358 0.1751908,0.2133853 0.2425781,0.384082 l 0.1617187,0.43125 c 0.031441,0.103326 0.047163,0.1684627 0.047168,0.1954102 z M 3.8947266,5.5917378 C 3.8947227,5.5423313 3.8879844,5.4951634 3.8745118,5.4502339 3.8610313,5.4053197 3.8352013,5.3660131 3.7970215,5.332314 3.7588342,5.2986304 3.7082971,5.2728003 3.6454102,5.2548238 3.582516,5.2368628 3.5039028,5.2278785 3.4095704,5.2278706 l -0.309961,0 0,0.7546876 0.2964844,0 c 0.1886683,7e-6 0.3189416,-0.03593 0.3908203,-0.1078125 0.071871,-0.071868 0.1078086,-0.1662036 0.1078125,-0.2830079 z"
           style="font-size:13.80000019px;font-style:normal;font-weight:normal;text-align:start;text-anchor:start;fill:#000000;font-family:Calibri"
           id="path3179" />
      </g>
      <g
         style="font-size:13.80000019px;font-style:normal;font-weight:normal;text-align:start;text-anchor:start;fill:#000000;font-family:Calibri"
         id="text3169" />
    </g>
  </g>
</svg>
