<?xml version="1.0" encoding="UTF-8" standalone="no"?>
<!-- Created with Inkscape (http://www.inkscape.org/) -->

<svg
   xmlns:dc="http://purl.org/dc/elements/1.1/"
   xmlns:cc="http://creativecommons.org/ns#"
   xmlns:rdf="http://www.w3.org/1999/02/22-rdf-syntax-ns#"
   xmlns:svg="http://www.w3.org/2000/svg"
   xmlns="http://www.w3.org/2000/svg"
   xmlns:sodipodi="http://sodipodi.sourceforge.net/DTD/sodipodi-0.dtd"
   xmlns:inkscape="http://www.inkscape.org/namespaces/inkscape"
   width="940.00525"
   height="645.41675"
   id="svg2"
   version="1.1"
   inkscape:version="0.48.4 r9939"
   sodipodi:docname="Neues Dokument 1">
  <defs
     id="defs4" />
  <sodipodi:namedview
     id="base"
     pagecolor="#ffffff"
     bordercolor="#666666"
     borderopacity="1.0"
     inkscape:pageopacity="0.0"
     inkscape:pageshadow="2"
     inkscape:zoom="1"
     inkscape:cx="556.12651"
     inkscape:cy="332.85862"
     inkscape:document-units="px"
     inkscape:current-layer="layer1"
     showgrid="false"
     fit-margin-top="10"
     fit-margin-left="10"
     fit-margin-bottom="10"
     fit-margin-right="10"
     inkscape:window-width="1680"
     inkscape:window-height="988"
     inkscape:window-x="-8"
     inkscape:window-y="320"
     inkscape:window-maximized="1" />
  <metadata
     id="metadata7">
    <rdf:RDF>
      <cc:Work
         rdf:about="">
        <dc:format>image/svg+xml</dc:format>
        <dc:type
           rdf:resource="http://purl.org/dc/dcmitype/StillImage" />
        <dc:title></dc:title>
      </cc:Work>
    </rdf:RDF>
  </metadata>
  <g
     inkscape:label="Ebene 1"
     inkscape:groupmode="layer"
     id="layer1"
     transform="translate(694.5892,-452.19325)">
    <g
       id="g3376"
       transform="matrix(0.74325362,0,0,0.74325362,-175.7658,279.23993)">
      <path
         id="path2991"
         d="m 210.32366,633.76118 c 13.05422,0 23.60702,-10.55281 23.60702,-23.60702 l 0,-9.45844 c 0,-13.05421 -10.5528,-23.60702 -23.60702,-23.60702 l 0,0 -165.48365,0 c -13.05422,0 -23.60702,10.55281 -23.60702,23.60702 l 0,0 0,9.45844 c 0,13.05421 10.5528,23.60702 23.60702,23.60702 l 0,0 165.48365,0 z"
         style="fill:#fa72c6;fill-opacity:1;fill-rule:evenodd;stroke:none"
         inkscape:connector-curvature="0" />
      <text
         id="text2993"
         style="font-size:26.26476479px;font-style:normal;font-weight:bold;text-align:start;text-anchor:start;fill:#ffffff;font-family:Arial"
         y="613.35913"
         x="74.622353"
         xml:space="preserve">WAMP </text>
      <text
         id="text2995"
         style="font-size:26.26476479px;font-style:normal;font-weight:normal;text-align:start;text-anchor:start;fill:#ffffff;font-family:Arial"
         y="613.35913"
         x="167.17441"
         xml:space="preserve">v</text>
      <text
         id="text2997"
         style="font-size:26.26476479px;font-style:normal;font-weight:normal;text-align:start;text-anchor:start;fill:#ffffff;font-family:Arial"
         y="613.35913"
         x="179.68143"
         xml:space="preserve">2</text>
      <path
         id="path2999"
         d="m -503.43696,560.9859 c 27.04645,-148.83367 169.70477,-247.48288 318.46027,-220.35826 148.83367,27.12463 247.48288,169.70478 220.43642,318.53845 0,0 0,0 0,0 C 8.33511,807.92159 -134.32321,906.57084 -283.07871,879.52434 -431.91238,852.39974 -530.56159,709.81956 -503.43696,560.9859"
         style="fill:#262626;fill-opacity:1;fill-rule:evenodd;stroke:none"
         inkscape:connector-curvature="0" />
      <path
         id="path3001"
         d="m -503.43696,560.9859 c 27.04645,-148.83367 169.70477,-247.48288 318.46027,-220.35826 148.83367,27.12463 247.48288,169.70478 220.43642,318.53845 0,0 0,0 0,0 C 8.33511,807.92159 -134.32321,906.57084 -283.07871,879.52434 -431.91238,852.39974 -530.56159,709.81956 -503.43696,560.9859"
         style="fill:none;stroke:#fa72c6;stroke-width:20.16758728px;stroke-linecap:round;stroke-linejoin:round;stroke-opacity:1;stroke-dasharray:none"
         inkscape:connector-curvature="0" />
      <path
         id="path3033"
         d="m -404.1624,917.43624 c 0,-26.1084 21.10561,-47.2922 47.21404,-47.2922 26.10843,0 47.29221,21.1838 47.29221,47.2922 0,0 0,0 0,0 0,26.1085 -21.18378,47.2141 -47.29221,47.2141 -26.10843,0 -47.21404,-21.1056 -47.21404,-47.2141"
         style="fill:#262626;fill-opacity:1;fill-rule:evenodd;stroke:none"
         inkscape:connector-curvature="0" />
      <path
         id="path3035"
         d="m -404.1624,917.43624 c 0,-26.1084 21.10561,-47.2922 47.21404,-47.2922 26.10843,0 47.29221,21.1838 47.29221,47.2922 0,0 0,0 0,0 0,26.1085 -21.18378,47.2141 -47.29221,47.2141 -26.10843,0 -47.21404,-21.1056 -47.21404,-47.2141"
         style="fill:none;stroke:#fa72c6;stroke-width:6.80069828px;stroke-linecap:round;stroke-linejoin:round;stroke-opacity:1;stroke-dasharray:none"
         inkscape:connector-curvature="0" />
      <text
         id="text3037"
         style="font-size:30.01687431px;font-style:normal;font-weight:normal;text-align:start;text-anchor:start;fill:#ffffff;font-family:Arial"
         y="926.03491"
         x="-384.38568"
         xml:space="preserve">now</text>
      <path
         id="path3039"
         d="m -148.9408,912.66794 c 0,-26.1084 21.18378,-47.2922 47.29221,-47.2922 26.10843,0 47.29221,21.1838 47.29221,47.2922 0,0 0,0 0,0 0,26.1085 -21.18378,47.2922 -47.29221,47.2922 -26.10843,0 -47.29221,-21.1837 -47.29221,-47.2922"
         style="fill:#bfbfbf;fill-opacity:1;fill-rule:evenodd;stroke:none"
         inkscape:connector-curvature="0" />
      <path
         id="path3041"
         d="m -148.9408,912.66794 c 0,-26.1084 21.18378,-47.2922 47.29221,-47.2922 26.10843,0 47.29221,21.1838 47.29221,47.2922 0,0 0,0 0,0 0,26.1085 -21.18378,47.2922 -47.29221,47.2922 -26.10843,0 -47.29221,-21.1837 -47.29221,-47.2922"
         style="fill:none;stroke:#fa72c6;stroke-width:6.80069828px;stroke-linecap:round;stroke-linejoin:round;stroke-opacity:1;stroke-dasharray:none"
         inkscape:connector-curvature="0" />
      <text
         id="text3043"
         style="font-size:30.01687431px;font-style:normal;font-weight:normal;text-align:start;text-anchor:start;fill:#ffffff;font-family:Arial"
         y="921.0321"
         x="-121.738"
         xml:space="preserve">Q</text>
      <text
         id="text3045"
         style="font-size:30.01687431px;font-style:normal;font-weight:normal;text-align:start;text-anchor:start;fill:#ffffff;font-family:Arial"
         y="921.0321"
         x="-97.974632"
         xml:space="preserve">3</text>
      <path
         id="path3047"
         d="m -583.79464,482.50428 c 0,-26.10843 21.10562,-47.29221 47.21405,-47.29221 26.10842,0 47.29221,21.18378 47.29221,47.29221 0,0 0,0 0,0 0,26.10842 -21.18379,47.29221 -47.29221,47.29221 -26.10843,0 -47.21405,-21.18379 -47.21405,-47.29221"
         style="fill:#bfbfbf;fill-opacity:1;fill-rule:evenodd;stroke:none"
         inkscape:connector-curvature="0" />
      <path
         id="path3049"
         d="m -583.79464,482.50428 c 0,-26.10843 21.10562,-47.29221 47.21405,-47.29221 26.10842,0 47.29221,21.18378 47.29221,47.29221 0,0 0,0 0,0 0,26.10842 -21.18379,47.29221 -47.29221,47.29221 -26.10843,0 -47.21405,-21.18379 -47.21405,-47.29221"
         style="fill:none;stroke:#fa72c6;stroke-width:6.80069828px;stroke-linecap:round;stroke-linejoin:round;stroke-opacity:1;stroke-dasharray:none"
         inkscape:connector-curvature="0" />
      <text
         id="text3051"
         style="font-size:30.01687431px;font-style:normal;font-weight:normal;text-align:start;text-anchor:start;fill:#ffffff;font-family:Arial"
         y="492.04086"
         x="-556.98267"
         xml:space="preserve">Q</text>
      <text
         id="text3053"
         style="font-size:30.01687431px;font-style:normal;font-weight:normal;text-align:start;text-anchor:start;fill:#ffffff;font-family:Arial"
         y="492.04086"
         x="-533.2193"
         xml:space="preserve">3</text>
      <path
         id="path3055"
         d="m -588.56294,733.03574 c 0,-26.10843 21.18378,-47.29221 47.29221,-47.29221 26.10843,0 47.29221,21.18378 47.29221,47.29221 0,0 0,0 0,0 0,26.10843 -21.18378,47.29221 -47.29221,47.29221 -26.10843,0 -47.29221,-21.18378 -47.29221,-47.29221"
         style="fill:#808080;fill-opacity:1;fill-rule:evenodd;stroke:none"
         inkscape:connector-curvature="0" />
      <path
         id="path3057"
         d="m -588.56294,733.03574 c 0,-26.10843 21.18378,-47.29221 47.29221,-47.29221 26.10843,0 47.29221,21.18378 47.29221,47.29221 0,0 0,0 0,0 0,26.10843 -21.18378,47.29221 -47.29221,47.29221 -26.10843,0 -47.29221,-21.18378 -47.29221,-47.29221"
         style="fill:none;stroke:#fa72c6;stroke-width:6.80069828px;stroke-linecap:round;stroke-linejoin:round;stroke-opacity:1;stroke-dasharray:none"
         inkscape:connector-curvature="0" />
      <text
         id="text3059"
         style="font-size:30.01687431px;font-style:normal;font-weight:normal;text-align:start;text-anchor:start;fill:#ffffff;font-family:Arial"
         y="742.18152"
         x="-560.7348"
         xml:space="preserve">Q</text>
      <text
         id="text3061"
         style="font-size:30.01687431px;font-style:normal;font-weight:normal;text-align:start;text-anchor:start;fill:#ffffff;font-family:Arial"
         y="742.18152"
         x="-538.22217"
         xml:space="preserve">2</text>
      <path
         id="path3063"
         d="m 21.23299,482.50428 c 0,-26.10843 21.18378,-47.29221 47.29221,-47.29221 26.10843,0 47.29221,21.18378 47.29221,47.29221 0,0 0,0 0,0 0,26.10842 -21.18378,47.29221 -47.29221,47.29221 -26.10843,0 -47.29221,-21.18379 -47.29221,-47.29221"
         style="fill:#262626;fill-opacity:1;fill-rule:evenodd;stroke:none"
         inkscape:connector-curvature="0" />
      <path
         id="path3065"
         d="m 21.23299,482.50428 c 0,-26.10843 21.18378,-47.29221 47.29221,-47.29221 26.10843,0 47.29221,21.18378 47.29221,47.29221 0,0 0,0 0,0 0,26.10842 -21.18378,47.29221 -47.29221,47.29221 -26.10843,0 -47.29221,-21.18379 -47.29221,-47.29221"
         style="fill:none;stroke:#fa72c6;stroke-width:6.80069828px;stroke-linecap:round;stroke-linejoin:round;stroke-opacity:1;stroke-dasharray:none"
         inkscape:connector-curvature="0" />
      <text
         id="text3067"
         style="font-size:30.01687431px;font-style:normal;font-weight:normal;text-align:start;text-anchor:start;fill:#ffffff;font-family:Arial"
         y="492.04086"
         x="40.853371"
         xml:space="preserve">now</text>
      <path
         id="path3069"
         d="m 26.00129,733.03574 c 0,-26.10843 21.10562,-47.29221 47.21404,-47.29221 26.10843,0 47.29222,21.18378 47.29222,47.29221 0,0 0,0 0,0 0,26.10843 -21.18379,47.29221 -47.29222,47.29221 -26.10842,0 -47.21404,-21.18378 -47.21404,-47.29221"
         style="fill:#595959;fill-opacity:1;fill-rule:evenodd;stroke:none"
         inkscape:connector-curvature="0" />
      <path
         id="path3071"
         d="m 26.00129,733.03574 c 0,-26.10843 21.10562,-47.29221 47.21404,-47.29221 26.10843,0 47.29222,21.18378 47.29222,47.29221 0,0 0,0 0,0 0,26.10843 -21.18379,47.29221 -47.29222,47.29221 -26.10842,0 -47.21404,-21.18378 -47.21404,-47.29221"
         style="fill:none;stroke:#fa72c6;stroke-width:6.80069828px;stroke-linecap:round;stroke-linejoin:round;stroke-opacity:1;stroke-dasharray:none"
         inkscape:connector-curvature="0" />
      <text
         id="text3073"
         style="font-size:30.01687431px;font-style:normal;font-weight:normal;text-align:start;text-anchor:start;fill:#ffffff;font-family:Arial"
         y="742.18152"
         x="53.360451"
         xml:space="preserve">Q</text>
      <text
         id="text3075"
         style="font-size:30.01687431px;font-style:normal;font-weight:normal;text-align:start;text-anchor:start;fill:#ffffff;font-family:Arial"
         y="742.18152"
         x="77.123756"
         xml:space="preserve">2</text>
      <path
         id="path3077"
         d="m -404.1624,302.87204 c 0,-26.10842 21.10561,-47.29221 47.21404,-47.29221 26.10843,0 47.29221,21.18379 47.29221,47.29221 0,0 0,0 0,0 0,26.10843 -21.18378,47.29221 -47.29221,47.29221 -26.10843,0 -47.21404,-21.18378 -47.21404,-47.29221"
         style="fill:#262626;fill-opacity:1;fill-rule:evenodd;stroke:none"
         inkscape:connector-curvature="0" />
      <path
         id="path3079"
         d="m -404.1624,302.87204 c 0,-26.10842 21.10561,-47.29221 47.21404,-47.29221 26.10843,0 47.29221,21.18379 47.29221,47.29221 0,0 0,0 0,0 0,26.10843 -21.18378,47.29221 -47.29221,47.29221 -26.10843,0 -47.21404,-21.18378 -47.21404,-47.29221"
         style="fill:none;stroke:#fa72c6;stroke-width:6.80069828px;stroke-linecap:round;stroke-linejoin:round;stroke-opacity:1;stroke-dasharray:none"
         inkscape:connector-curvature="0" />
      <text
         id="text3081"
         style="font-size:30.01687431px;font-style:normal;font-weight:normal;text-align:start;text-anchor:start;fill:#ffffff;font-family:Arial"
         y="311.93964"
         x="-384.38568"
         xml:space="preserve">now</text>
      <path
         id="path3083"
         d="m -158.39924,302.87204 c 0,-26.10842 21.18378,-47.29221 47.29221,-47.29221 26.10842,0 47.29221,21.18379 47.29221,47.29221 0,0 0,0 0,0 0,26.10843 -21.18379,47.29221 -47.29221,47.29221 -26.10843,0 -47.29221,-21.18378 -47.29221,-47.29221"
         style="fill:#262626;fill-opacity:1;fill-rule:evenodd;stroke:none"
         inkscape:connector-curvature="0" />
      <path
         id="path3085"
         d="m -158.39924,302.87204 c 0,-26.10842 21.18378,-47.29221 47.29221,-47.29221 26.10842,0 47.29221,21.18379 47.29221,47.29221 0,0 0,0 0,0 0,26.10843 -21.18379,47.29221 -47.29221,47.29221 -26.10843,0 -47.29221,-21.18378 -47.29221,-47.29221"
         style="fill:none;stroke:#fa72c6;stroke-width:6.80069828px;stroke-linecap:round;stroke-linejoin:round;stroke-opacity:1;stroke-dasharray:none"
         inkscape:connector-curvature="0" />
      <text
         id="text3087"
         style="font-size:30.01687431px;font-style:normal;font-weight:normal;text-align:start;text-anchor:start;fill:#ffffff;font-family:Arial"
         y="311.93964"
         x="-139.24783"
         xml:space="preserve">now</text>
      <path
         id="path3089"
         d="m -340.14204,693.95127 c -4.14295,0.85986 -8.0514,1.2507 -11.80351,1.2507 -1.48521,0 -2.97042,0 -4.29929,-0.15634 -1.32887,-0.15633 -2.81408,-0.39084 -4.45563,-0.85985 -1.56338,-0.39085 -2.97042,-1.0162 -4.14295,-1.71972 -1.17254,-0.78169 -2.11057,-1.79789 -2.89226,-3.12676 -0.78169,-1.32887 -1.17253,-2.89225 -1.17253,-4.69014 l 0,-16.1028 c 0,-7.34788 5.62816,-11.09999 16.96266,-11.09999 2.73591,0 6.64436,0.46902 11.64717,1.2507 l 0,6.64437 c -4.5338,-1.09437 -8.36407,-1.64155 -11.569,-1.64155 -1.2507,0 -2.2669,0.0782 -3.12676,0.15634 -0.78169,0.0782 -1.64155,0.2345 -2.5014,0.54718 -0.93803,0.31267 -1.56338,0.78169 -1.95423,1.40704 -0.46901,0.70352 -0.70352,1.56338 -0.70352,2.57957 l 0,15.63379 c 0,3.2831 3.04859,4.92465 9.0676,4.92465 2.73591,0 6.33168,-0.54719 10.94365,-1.64155 l 0,6.64436 z"
         style="fill:#ffffff;fill-opacity:1;fill-rule:evenodd;stroke:none"
         inkscape:connector-curvature="0" />
      <path
         id="path3091"
         d="m -316.92586,673.62734 -2.81408,0 c -2.2669,0 -3.90845,0.31268 -5.08099,1.0162 -1.17253,0.70352 -1.71971,1.95422 -1.71971,3.59577 l 0,16.41548 -8.20774,0 0,-27.28096 7.81689,0 0,4.7683 c 0,-1.32887 0.85986,-2.57957 2.34507,-3.67394 1.48521,-1.09436 3.12676,-1.71971 4.76831,-1.71971 l 2.89225,0 0,6.87886 z"
         style="fill:#ffffff;fill-opacity:1;fill-rule:evenodd;stroke:none"
         inkscape:connector-curvature="0" />
      <path
         id="path3093"
         d="m -285.50195,677.22311 0,8.12957 c 0,1.71972 -0.2345,3.20493 -0.78169,4.5338 -0.62535,1.25071 -1.2507,2.18873 -2.11056,2.89225 -0.85986,0.70352 -1.87605,1.25071 -3.20492,1.64155 -1.40705,0.31268 -2.57958,0.62535 -3.75211,0.70352 -1.09437,0.0782 -2.42324,0.0782 -3.98662,0.0782 -1.56338,0 -2.89225,0 -4.06479,-0.0782 -1.09436,-0.0782 -2.26689,-0.39084 -3.67394,-0.70352 -1.32887,-0.39084 -2.34506,-0.93803 -3.20492,-1.64155 -0.85986,-0.70352 -1.48521,-1.64154 -2.11056,-2.89225 -0.54719,-1.32887 -0.85986,-2.81408 -0.85986,-4.5338 l 0,-8.12957 c 0,-1.87605 0.31267,-3.5176 0.93803,-4.84647 0.54718,-1.32887 1.2507,-2.34507 2.11056,-3.04859 0.85986,-0.70352 1.95422,-1.2507 3.28309,-1.64155 1.40704,-0.46901 2.57958,-0.62535 3.67394,-0.78169 1.09437,-0.0782 2.34507,-0.15633 3.90845,-0.15633 1.56338,0 2.81408,0.0782 3.90845,0.15633 1.09436,0.15634 2.2669,0.31268 3.67394,0.78169 1.32887,0.39085 2.42323,0.93803 3.28309,1.64155 0.85986,0.70352 1.56338,1.71972 2.11056,3.04859 0.62536,1.32887 0.85986,2.97042 0.85986,4.84647 z m -8.20774,9.0676 0,-10.39647 c 0,-1.40704 -0.39084,-2.5014 -1.09436,-3.12676 -0.78169,-0.54718 -2.2669,-0.85985 -4.5338,-0.85985 -2.2669,0 -3.75211,0.31267 -4.5338,0.85985 -0.70352,0.62536 -1.09436,1.71972 -1.09436,3.12676 l 0,10.39647 c 0,1.40704 0.39084,2.42324 1.09436,2.97042 0.70352,0.54718 2.2669,0.85986 4.5338,0.85986 2.2669,0 3.83028,-0.31268 4.5338,-0.85986 0.70352,-0.54718 1.09436,-1.56338 1.09436,-2.97042 z"
         style="fill:#ffffff;fill-opacity:1;fill-rule:evenodd;stroke:none"
         inkscape:connector-curvature="0" />
      <path
         id="path3095"
         d="m -255.56324,684.02381 0,3.43944 c 0,1.32887 -0.23451,2.5014 -0.70352,3.43943 -0.54718,1.0162 -1.17254,1.79789 -1.95423,2.34507 -0.78169,0.54718 -1.79788,0.93803 -2.97042,1.2507 -1.2507,0.31268 -2.5014,0.54718 -3.59577,0.62535 -1.17253,0.0782 -2.5014,0.0782 -4.06478,0.0782 -2.97042,0 -6.56619,-0.23451 -10.78732,-0.78169 l 0,-5.47182 c 5.23732,0.78169 8.83309,1.17253 10.94366,1.17253 1.56337,0 2.81408,-0.15634 3.67394,-0.54718 0.93802,-0.23451 1.32887,-0.93803 1.32887,-1.87606 l 0,-1.64154 c 0,-0.85986 -0.23451,-1.56338 -0.70352,-1.95423 -0.46902,-0.46901 -1.56338,-0.70352 -3.12676,-0.70352 l -3.59577,0 c -2.81408,0 -5.08098,-0.54718 -6.64436,-1.71972 -1.64155,-1.09436 -2.42324,-2.81408 -2.42324,-5.00281 l 0,-3.36126 c 0,-2.42324 1.17254,-4.14296 3.5176,-5.08098 2.42324,-1.0162 5.78451,-1.48521 10.0838,-1.48521 1.79788,0 5.00281,0.2345 9.69295,0.54718 l 0,5.23732 c -5.86267,-0.46902 -9.14577,-0.62535 -9.92746,-0.62535 -2.2669,0 -3.75211,0.0782 -4.37746,0.46901 -0.54718,0.31268 -0.85986,0.85986 -0.85986,1.79789 l 0,1.48521 c 0,0.46901 0.23451,0.85985 0.70352,1.2507 0.46902,0.31267 1.17254,0.54718 2.18873,0.54718 l 3.59577,0 c 6.72253,0 10.00563,2.18873 10.00563,6.56619 z"
         style="fill:#ffffff;fill-opacity:1;fill-rule:evenodd;stroke:none"
         inkscape:connector-curvature="0" />
      <path
         id="path3097"
         d="m -225.93721,684.02381 0,3.43944 c 0,1.32887 -0.23451,2.5014 -0.70352,3.43943 -0.54719,1.0162 -1.17254,1.79789 -1.95423,2.34507 -0.78169,0.54718 -1.79788,0.93803 -3.04859,1.2507 -1.17253,0.31268 -2.42323,0.54718 -3.5176,0.62535 -1.17253,0.0782 -2.5014,0.0782 -4.06478,0.0782 -2.97042,0 -6.56619,-0.23451 -10.78732,-0.78169 l 0,-5.47182 c 5.23732,0.78169 8.91126,1.17253 10.86549,1.17253 1.64154,0 2.89225,-0.15634 3.83027,-0.54718 0.85986,-0.23451 1.32888,-0.93803 1.32888,-1.87606 l 0,-1.64154 c 0,-0.85986 -0.31268,-1.56338 -0.78169,-1.95423 -0.46902,-0.46901 -1.56338,-0.70352 -3.12676,-0.70352 l -3.59577,0 c -2.81408,0 -5.08098,-0.54718 -6.64436,-1.71972 -1.64155,-1.09436 -2.42324,-2.81408 -2.42324,-5.00281 l 0,-3.36126 c 0,-2.42324 1.17253,-4.14296 3.59577,-5.08098 2.34507,-1.0162 5.70633,-1.48521 10.00563,-1.48521 1.79788,0 5.00281,0.2345 9.69295,0.54718 l 0,5.23732 c -5.86267,-0.46902 -9.14577,-0.62535 -9.92746,-0.62535 -2.2669,0 -3.75211,0.0782 -4.29929,0.46901 -0.62535,0.31268 -0.93803,0.85986 -0.93803,1.79789 l 0,1.48521 c 0,0.46901 0.23451,0.85985 0.70352,1.2507 0.46901,0.31267 1.17254,0.54718 2.18873,0.54718 l 3.59577,0 c 6.64436,0 10.00563,2.18873 10.00563,6.56619 z"
         style="fill:#ffffff;fill-opacity:1;fill-rule:evenodd;stroke:none"
         inkscape:connector-curvature="0" />
      <path
         id="path3099"
         d="m -191.85555,675.97241 0,8.98943 c 0,3.75211 -1.09437,6.33168 -3.36127,7.97323 -2.18873,1.48521 -5.7845,2.2669 -10.78731,2.2669 -5.15915,0 -8.83309,-0.78169 -10.78732,-2.42324 -2.03239,-1.64154 -3.04858,-4.22112 -3.04858,-7.81689 l 0,-29.78237 8.2859,0 0,14.8521 c 0.46902,-1.2507 1.40704,-2.03239 2.73592,-2.5014 1.32887,-0.46902 3.36126,-0.78169 6.09717,-0.78169 2.34507,0 4.22113,0.2345 5.70634,0.62535 1.48521,0.39084 2.57957,0.93802 3.36126,1.79788 0.70352,0.85986 1.2507,1.79789 1.48521,2.81409 0.23451,1.01619 0.31268,2.34506 0.31268,3.98661 z m -8.20774,10.0838 0,-10.16197 c 0,-1.71971 -0.31268,-2.81408 -1.0162,-3.28309 -0.62535,-0.54719 -2.2669,-0.70352 -4.84647,-0.70352 -2.34507,0 -3.83028,0.2345 -4.61197,0.85985 -0.62535,0.62536 -1.0162,1.64155 -1.0162,3.12676 l 0,10.16197 c 0,1.56337 0.31268,2.65774 1.0162,3.20492 0.70352,0.54718 2.2669,0.85986 4.69014,0.85986 2.34506,0 3.90844,-0.31268 4.69013,-0.85986 0.70352,-0.54718 1.09437,-1.64155 1.09437,-3.20492 z"
         style="fill:#ffffff;fill-opacity:1;fill-rule:evenodd;stroke:none"
         inkscape:connector-curvature="0" />
      <path
         id="path3101"
         d="m -160.82248,694.65479 -8.12957,0 0,-2.50141 c -0.54718,1.17254 -1.40704,1.87606 -2.57958,2.42324 -1.09436,0.46901 -3.20492,0.62535 -6.17534,0.62535 -3.67394,0 -6.09718,-0.54718 -7.34788,-1.64155 -1.17254,-1.17253 -1.79789,-3.5176 -1.79789,-7.11337 0,-3.20493 0.62535,-5.47183 1.87605,-6.72253 1.25071,-1.2507 3.43944,-1.87605 6.64436,-1.87605 l 9.22394,0 0,-1.87606 c 0,-1.64155 -0.39084,-2.73591 -1.17253,-3.28309 -0.70352,-0.54719 -2.34507,-0.78169 -4.84648,-0.78169 -2.34507,0 -5.54999,0.15633 -9.61478,0.62535 l 0,-5.15915 c 3.12676,-0.39085 6.64436,-0.62535 10.47464,-0.62535 5.08098,0 8.52041,0.62535 10.47464,1.87605 1.95422,1.2507 2.97042,3.67394 2.97042,7.26971 l 0,18.76055 z m -8.28591,-6.95704 0,-5.31549 -5.62816,0 c -1.79789,0 -2.89226,0.15634 -3.36127,0.62536 -0.46901,0.39084 -0.70352,1.48521 -0.70352,3.28309 0,1.79789 0.23451,2.89225 0.70352,3.20493 0.46901,0.39084 1.64155,0.62535 3.59577,0.62535 0.93803,0 1.64155,-0.0782 2.11056,-0.0782 0.39085,0 0.93803,-0.0782 1.48521,-0.0782 0.46902,-0.0782 0.85986,-0.2345 1.0162,-0.39084 0.23451,-0.15634 0.39085,-0.39085 0.54718,-0.70352 0.15634,-0.31268 0.23451,-0.70352 0.23451,-1.17254 z"
         style="fill:#ffffff;fill-opacity:1;fill-rule:evenodd;stroke:none"
         inkscape:connector-curvature="0" />
      <path
         id="path3103"
         d="m -135.73025,673.62734 -2.81408,0 c -2.2669,0 -3.98662,0.31268 -5.08098,1.0162 -1.17254,0.70352 -1.71972,1.95422 -1.71972,3.59577 l 0,16.41548 -8.28591,0 0,-27.28096 7.89506,0 0,4.7683 c 0,-1.32887 0.78169,-2.57957 2.2669,-3.67394 1.56338,-1.09436 3.12676,-1.71971 4.76831,-1.71971 l 2.97042,0 0,6.87886 z"
         style="fill:#ffffff;fill-opacity:1;fill-rule:evenodd;stroke:none"
         inkscape:connector-curvature="0" />
      <path
         id="path3105"
         d="m -130.88378,688.55761 0,6.09718 6.48803,0 0,-6.09718 -6.48803,0 z"
         style="fill:#ffffff;fill-opacity:1;fill-rule:evenodd;stroke:none"
         inkscape:connector-curvature="0" />
      <path
         id="path3107"
         d="m -110.9507,662.76186 -5.08098,0 0,-5.31549 5.08098,0 0,5.31549 z m 0,31.89293 -5.08098,0 0,-27.28096 5.08098,0 0,27.28096 z"
         style="fill:#ffffff;fill-opacity:1;fill-rule:evenodd;stroke:none"
         inkscape:connector-curvature="0" />
      <path
         id="path3109"
         d="m -78.04157,676.59776 0,9.45845 c 0,1.64154 -0.15634,3.12675 -0.62535,4.29929 -0.39085,1.17253 -0.93803,2.03239 -1.56338,2.65774 -0.62535,0.70352 -1.56338,1.17254 -2.73591,1.48521 -1.17254,0.31268 -2.34507,0.54718 -3.36127,0.62535 -1.09436,0.0782 -2.50141,0.0782 -4.29929,0.0782 -2.2669,0 -3.98662,0 -5.23732,-0.15634 -1.2507,-0.15633 -2.50141,-0.54718 -3.83028,-1.17253 -1.2507,-0.54718 -2.11056,-1.48521 -2.65774,-2.73591 -0.54719,-1.32888 -0.85986,-2.97042 -0.85986,-5.08098 l 0,-9.45845 c 0,-1.87605 0.23451,-3.36126 0.70352,-4.61196 0.39084,-1.25071 0.93803,-2.18874 1.56338,-2.89226 0.62535,-0.70352 1.56338,-1.17253 2.73591,-1.56337 1.17254,-0.31268 2.34507,-0.54719 3.36127,-0.62536 1.01619,-0.0782 2.42323,-0.15633 4.22112,-0.15633 1.79788,0 3.28309,0.0782 4.29929,0.15633 1.0162,0.0782 2.11056,0.31268 3.36127,0.62536 1.17253,0.39084 2.11056,0.85985 2.73591,1.56337 0.62535,0.70352 1.09436,1.64155 1.56338,2.89226 0.39084,1.2507 0.62535,2.73591 0.62535,4.61196 z m -5.15915,10.16197 0,-11.02183 c 0,-2.57957 -0.54718,-4.14295 -1.56338,-4.69013 -1.0162,-0.62535 -2.97042,-0.93803 -5.86267,-0.93803 -2.89225,0 -4.84648,0.31268 -5.86267,0.93803 -1.0162,0.54718 -1.48521,2.11056 -1.48521,4.69013 l 0,11.02183 c 0,1.2507 0.0782,2.18873 0.39084,2.89225 0.23451,0.70352 0.70352,1.2507 1.48521,1.56338 0.70352,0.31267 1.40704,0.46901 2.18873,0.54718 0.70352,0.15634 1.87606,0.15634 3.2831,0.15634 1.48521,0 2.57957,0 3.36126,-0.15634 0.78169,-0.0782 1.48521,-0.23451 2.18873,-0.54718 0.70352,-0.31268 1.25071,-0.85986 1.48521,-1.56338 0.23451,-0.70352 0.39085,-1.64155 0.39085,-2.89225 z"
         style="fill:#ffffff;fill-opacity:1;fill-rule:evenodd;stroke:none"
         inkscape:connector-curvature="0" />
      <text
         id="text3111"
         style="font-size:23.76335907px;font-style:normal;font-weight:normal;text-align:start;text-anchor:start;fill:#262626;font-family:Arial"
         y="936.04053"
         x="-37.94088"
         xml:space="preserve">Java </text>
      <text
         id="text3113"
         style="font-size:23.76335907px;font-style:normal;font-weight:normal;text-align:start;text-anchor:start;fill:#262626;font-family:Arial"
         y="936.04053"
         x="17.090002"
         xml:space="preserve">&amp;</text>
      <text
         id="text3115"
         style="font-size:23.76335907px;font-style:normal;font-weight:normal;text-align:start;text-anchor:start;fill:#262626;font-family:Arial"
         y="964.80664"
         x="-37.94088"
         xml:space="preserve">Oracle Database</text>
      <text
         id="text3117"
         style="font-size:23.76335907px;font-style:normal;font-weight:normal;text-align:start;text-anchor:start;fill:#262626;font-family:Arial"
         y="742.18152"
         x="140.90964"
         xml:space="preserve">PostgreSQL</text>
      <text
         id="text3119"
         style="font-size:23.76335907px;font-style:normal;font-weight:normal;text-align:start;text-anchor:start;fill:#262626;font-family:Arial"
         y="266.91434"
         x="-47.946556"
         xml:space="preserve">NodeJS</text>
      <text
         id="text3121"
         style="font-size:23.76335907px;font-style:normal;font-weight:normal;text-align:start;text-anchor:start;fill:#262626;font-family:Arial"
         y="263.16223"
         x="-496.94894"
         xml:space="preserve">HTML</text>
      <text
         id="text3123"
         style="font-size:23.76335907px;font-style:normal;font-weight:normal;text-align:start;text-anchor:start;fill:#262626;font-family:Arial"
         y="263.16223"
         x="-433.16309"
         xml:space="preserve">5</text>
      <text
         id="text3125"
         style="font-size:23.76335907px;font-style:normal;font-weight:normal;text-align:start;text-anchor:start;fill:#262626;font-family:Arial"
         y="489.53946"
         x="-684.55438"
         xml:space="preserve">Android</text>
      <text
         id="text3127"
         style="font-size:23.76335907px;font-style:normal;font-weight:normal;text-align:start;text-anchor:start;fill:#262626;font-family:Arial"
         y="739.68011"
         x="-684.55438"
         xml:space="preserve">Arduino</text>
      <text
         id="text3129"
         style="font-size:23.76335907px;font-style:normal;font-weight:normal;text-align:start;text-anchor:start;fill:#262626;font-family:Arial"
         y="492.04086"
         x="140.90964"
         xml:space="preserve">Python</text>
      <text
         id="text3131"
         style="font-size:23.76335907px;font-style:normal;font-weight:normal;text-align:start;text-anchor:start;fill:#262626;font-family:Arial"
         y="967.30811"
         x="-536.97144"
         xml:space="preserve">RaspberryPi</text>
      <text
         id="text3133"
         style="font-size:23.76335907px;font-style:normal;font-weight:normal;text-align:start;text-anchor:start;fill:#ffffff;font-family:Arial"
         y="739.68011"
         x="-364.37442"
         xml:space="preserve">Polyglot Application Router</text>
      <path
         id="path3135"
         d="m -290.81744,501.18665 0,123.11609 122.95975,0 0,-123.11609 -122.95975,0 z"
         style="fill:#ffe100;fill-opacity:1;fill-rule:evenodd;stroke:none"
         inkscape:connector-curvature="0" />
      <path
         id="path3137"
         d="m -290.81744,527.29508 0,12.27252 29.00068,0 19.22956,19.30773 8.98943,-8.91126 -22.82533,-22.82533 -34.39434,0.15634 z"
         style="fill:#262626;fill-opacity:1;fill-rule:evenodd;stroke:none"
         inkscape:connector-curvature="0" />
      <path
         id="path3139"
         d="m -216.24426,567.39575 -8.91126,8.91126 22.04364,22.04364 35.25419,0 0,-12.27252 -29.78236,0 -18.60421,-18.68238 z"
         style="fill:#262626;fill-opacity:1;fill-rule:evenodd;stroke:none"
         inkscape:connector-curvature="0" />
      <path
         id="path3141"
         d="m -202.17385,527.13874 -58.70488,59.01756 -29.93871,0 0,12.35069 35.09786,0 58.93938,-58.93939 28.92251,0 0,-12.42886 -34.31616,0 z"
         style="fill:#262626;fill-opacity:1;fill-rule:evenodd;stroke:none"
         inkscape:connector-curvature="0" />
      <path
         id="path3143"
         d="m -446.76448,1059.2347 14.22675,-28.3753 14.14858,0 -7.34788,14.1486 186.98011,0 0,28.3753 -186.98011,0 7.34788,14.2267 -14.14858,0 -14.22675,-28.3753 z"
         style="fill:#fa72c6;fill-opacity:1;fill-rule:evenodd;stroke:none"
         inkscape:connector-curvature="0" />
      <text
         id="text3145"
         style="font-size:20.01124954px;font-style:normal;font-weight:normal;text-align:start;text-anchor:start;fill:#ffffff;font-family:Arial"
         y="1064.8629"
         x="-414.40253"
         xml:space="preserve">Frontend </text>
      <text
         id="text3147"
         style="font-size:20.01124954px;font-style:normal;font-weight:normal;text-align:start;text-anchor:start;fill:#ffffff;font-family:Arial"
         y="1064.8629"
         x="-329.35474"
         xml:space="preserve">/ </text>
      <text
         id="text3149"
         style="font-size:20.01124954px;font-style:normal;font-weight:normal;text-align:start;text-anchor:start;fill:#ffffff;font-family:Arial"
         y="1064.8629"
         x="-318.09842"
         xml:space="preserve">Edge</text>
      <path
         id="path3151"
         d="m -40.2078,1059.2347 -14.14858,-28.3753 -14.22675,0 7.34788,14.1486 -177.52167,0 0,28.3753 177.52167,0 -7.34788,14.2267 14.22675,0 14.14858,-28.3753 z"
         style="fill:#fa72c6;fill-opacity:1;fill-rule:evenodd;stroke:none"
         inkscape:connector-curvature="0" />
      <text
         id="text3153"
         style="font-size:20.01124954px;font-style:normal;font-weight:normal;text-align:start;text-anchor:start;fill:#ffffff;font-family:Arial"
         y="1064.8629"
         x="-178.01965"
         xml:space="preserve">Backend</text>
      <path
         id="path3155"
         d="m 529.40929,964.65034 c 13.0542,0 23.607,-10.5528 23.607,-23.607 l 0,0 0,-118.19148 c 0,-13.05422 -10.5528,-23.60702 -23.607,-23.60702 l -259.98991,0 c -13.05421,0 -23.60702,10.5528 -23.60702,23.60702 l 0,0 0,118.19148 c 0,13.0542 10.55281,23.607 23.60702,23.607 l 0,0 259.98991,0 z"
         style="fill:#262626;fill-opacity:1;fill-rule:evenodd;stroke:none"
         inkscape:connector-curvature="0" />
      <path
         id="path3157"
         d="m 529.40929,964.65034 c 13.0542,0 23.607,-10.5528 23.607,-23.607 l 0,0 0,-118.19148 c 0,-13.05422 -10.5528,-23.60702 -23.607,-23.60702 l -259.98991,0 c -13.05421,0 -23.60702,10.5528 -23.60702,23.60702 l 0,0 0,118.19148 c 0,13.0542 10.55281,23.607 23.60702,23.607 l 0,0 259.98991,0 z"
         style="fill:none;stroke:#000000;stroke-width:0.3908447px;stroke-linecap:round;stroke-linejoin:round;stroke-opacity:1;stroke-dasharray:none"
         inkscape:connector-curvature="0" />
      <text
         id="text3159"
         style="font-size:20.01124954px;font-style:normal;font-weight:normal;text-align:start;text-anchor:start;fill:#ffffff;font-family:Arial"
         y="839.73639"
         x="265.97995"
         xml:space="preserve">Unified application messaging </text>
      <text
         id="text3161"
         style="font-size:20.01124954px;font-style:normal;font-weight:normal;text-align:start;text-anchor:start;fill:#ffffff;font-family:Arial"
         y="863.49976"
         x="265.97995"
         xml:space="preserve">protocol provides </text>
      <text
         id="text3163"
         style="font-size:20.01124954px;font-style:normal;font-weight:bold;text-align:start;text-anchor:start;fill:#ffffff;font-family:Arial"
         y="863.49976"
         x="423.56845"
         xml:space="preserve">seamless </text>
      <text
         id="text3165"
         style="font-size:20.01124954px;font-style:normal;font-weight:bold;text-align:start;text-anchor:start;fill:#ffffff;font-family:Arial"
         y="888.51379"
         x="265.97995"
         xml:space="preserve">integration</text>
      <text
         id="text3167"
         style="font-size:20.01124954px;font-style:normal;font-weight:normal;text-align:start;text-anchor:start;fill:#ffffff;font-family:Arial"
         y="888.51379"
         x="374.79111"
         xml:space="preserve">of diverse </text>
      <text
         id="text3169"
         style="font-size:20.01124954px;font-style:normal;font-weight:normal;text-align:start;text-anchor:start;fill:#ffffff;font-family:Arial"
         y="912.27722"
         x="265.97995"
         xml:space="preserve">application components </text>
      <text
         id="text3171"
         style="font-size:20.01124954px;font-style:normal;font-weight:normal;text-align:start;text-anchor:start;fill:#ffffff;font-family:Arial"
         y="912.27722"
         x="481.10092"
         xml:space="preserve">-</text>
      <text
         id="text3173"
         style="font-size:20.01124954px;font-style:normal;font-weight:normal;text-align:start;text-anchor:start;fill:#ffffff;font-family:Arial"
         y="936.04053"
         x="265.97995"
         xml:space="preserve">from frontend to backend</text>
      <text
         id="text3175"
         style="font-size:20.01124954px;font-style:normal;font-weight:normal;text-align:start;text-anchor:start;fill:#ffffff;font-family:Arial"
         y="936.04053"
         x="488.60507"
         xml:space="preserve">.</text>
      <path
         id="path3177"
         d="m 233.93068,605.38586 165.48361,0 0,193.85898"
         style="fill:none;stroke:#000000;stroke-width:0.3908447px;stroke-linecap:round;stroke-linejoin:round;stroke-opacity:1;stroke-dasharray:none"
         inkscape:connector-curvature="0" />
      <path
         id="path3179"
         d="m -40.36414,1059.0002 439.77843,0 0,-94.34986"
         style="fill:none;stroke:#000000;stroke-width:0.3908447px;stroke-linecap:round;stroke-linejoin:round;stroke-opacity:1;stroke-dasharray:none"
         inkscape:connector-curvature="0" />
    </g>
  </g>
</svg>
