<?xml version="1.0" encoding="UTF-8" standalone="no"?>
<!-- Created with Inkscape (http://www.inkscape.org/) -->

<svg
   xmlns:dc="http://purl.org/dc/elements/1.1/"
   xmlns:cc="http://creativecommons.org/ns#"
   xmlns:rdf="http://www.w3.org/1999/02/22-rdf-syntax-ns#"
   xmlns:svg="http://www.w3.org/2000/svg"
   xmlns="http://www.w3.org/2000/svg"
   xmlns:sodipodi="http://sodipodi.sourceforge.net/DTD/sodipodi-0.dtd"
   xmlns:inkscape="http://www.inkscape.org/namespaces/inkscape"
   width="92.350677"
   height="22.83634"
   id="svg7696"
   version="1.1"
   inkscape:version="0.48.4 r9939"
   sodipodi:docname="crossbar_arch_frontends.svg">
  <defs
     id="defs7698" />
  <sodipodi:namedview
     id="base"
     pagecolor="#ffffff"
     bordercolor="#666666"
     borderopacity="1.0"
     inkscape:pageopacity="0.0"
     inkscape:pageshadow="2"
     inkscape:zoom="0.35"
     inkscape:cx="46.17533"
     inkscape:cy="11.418187"
     inkscape:document-units="px"
     inkscape:current-layer="layer1"
     showgrid="false"
     inkscape:window-width="505"
     inkscape:window-height="423"
     inkscape:window-x="1509"
     inkscape:window-y="582"
     inkscape:window-maximized="0"
     fit-margin-top="5"
     fit-margin-left="5"
     fit-margin-right="5"
     fit-margin-bottom="5" />
  <metadata
     id="metadata7701">
    <rdf:RDF>
      <cc:Work
         rdf:about="">
        <dc:format>image/svg+xml</dc:format>
        <dc:type
           rdf:resource="http://purl.org/dc/dcmitype/StillImage" />
        <dc:title></dc:title>
      </cc:Work>
    </rdf:RDF>
  </metadata>
  <g
     inkscape:label="Ebene 1"
     inkscape:groupmode="layer"
     id="layer1"
     transform="translate(-303.82467,-520.94403)">
    <g
       style="font-size:17.64349747px;font-style:normal;font-variant:normal;font-weight:normal;font-stretch:normal;text-align:start;line-height:125%;letter-spacing:0px;word-spacing:0px;writing-mode:lr-tb;text-anchor:start;fill:#808080;fill-opacity:1;stroke:none;font-family:Sans;-inkscape-font-specification:Sans"
       id="text5389-2-6-9-9-0-8-2">
      <path
         d="m 308.82467,538.57361 0,-12.62958 4.35057,0 c 0.9821,2e-5 1.7316,0.0603 2.24851,0.18092 0.72365,0.16657 1.34106,0.46809 1.85222,0.90457 0.66622,0.56286 1.16445,1.28221 1.4947,2.15806 0.33023,0.87586 0.49535,1.87664 0.49537,3.00232 -2e-5,0.95914 -0.11201,1.80915 -0.33599,2.55004 -0.224,0.74089 -0.51117,1.35399 -0.8615,1.8393 -0.35035,0.48531 -0.73372,0.86724 -1.1501,1.14579 -0.4164,0.27855 -0.91894,0.48962 -1.50762,0.6332 -0.5887,0.14359 -1.26498,0.21538 -2.02883,0.21538 z m 1.67131,-1.49039 2.69649,0 c 0.83277,0 1.48608,-0.0775 1.95991,-0.23261 0.47381,-0.15507 0.85144,-0.37331 1.13287,-0.65474 0.39628,-0.39629 0.70498,-0.92898 0.92611,-1.59808 0.22111,-0.66909 0.33167,-1.48034 0.33168,-2.43373 -1e-5,-1.32096 -0.21682,-2.33609 -0.65043,-3.0454 -0.43363,-0.70929 -0.96058,-1.18455 -1.58085,-1.42578 -0.44799,-0.17229 -1.16878,-0.25844 -2.16237,-0.25845 l -2.65341,0 z"
         id="path7754"
         inkscape:connector-curvature="0" />
      <path
         d="m 327.3469,537.44504 c -0.57434,0.48819 -1.12714,0.83279 -1.65839,1.0338 -0.53126,0.20102 -1.10129,0.30153 -1.71007,0.30153 -1.00509,0 -1.77757,-0.24553 -2.31744,-0.73658 -0.53987,-0.49106 -0.80981,-1.11851 -0.80981,-1.88238 0,-0.44798 0.10195,-0.85719 0.30584,-1.22763 0.20388,-0.37044 0.47095,-0.66766 0.80119,-0.89166 0.33024,-0.22398 0.70212,-0.39341 1.11564,-0.50828 0.30439,-0.0804 0.76386,-0.15794 1.3784,-0.2326 1.25204,-0.14933 2.17384,-0.32737 2.76541,-0.53413 0.006,-0.2125 0.009,-0.34747 0.009,-0.40491 -1e-5,-0.63176 -0.14647,-1.07687 -0.43937,-1.33532 -0.39629,-0.35034 -0.98498,-0.52551 -1.76607,-0.52552 -0.72941,10e-6 -1.26784,0.1278 -1.61531,0.38337 -0.34748,0.25559 -0.60449,0.70787 -0.77104,1.35686 l -1.51624,-0.20676 c 0.13784,-0.64899 0.3647,-1.17306 0.68058,-1.57223 0.31588,-0.39916 0.77248,-0.70642 1.36979,-0.92181 0.5973,-0.21536 1.28937,-0.32305 2.07621,-0.32306 0.78109,1e-5 1.41572,0.0919 1.90391,0.27568 0.48818,0.1838 0.84713,0.41496 1.07687,0.69351 0.22973,0.27856 0.39054,0.63033 0.48244,1.05533 0.0517,0.2642 0.0775,0.7409 0.0775,1.43009 l 0,2.0676 c -10e-6,1.44158 0.033,2.35333 0.0991,2.73526 0.066,0.38193 0.1967,0.74807 0.39198,1.09841 l -1.61961,0 c -0.16082,-0.32163 -0.2642,-0.69782 -0.31014,-1.12857 z m -0.12923,-3.46322 c -0.56285,0.22974 -1.40712,0.42501 -2.53281,0.58582 -0.63751,0.0919 -1.08836,0.19528 -1.35255,0.31014 -0.26419,0.11487 -0.46808,0.28286 -0.61166,0.50397 -0.14359,0.22113 -0.21538,0.46665 -0.21538,0.73659 0,0.41352 0.15651,0.75812 0.46952,1.0338 0.31301,0.27568 0.77104,0.41352 1.37409,0.41351 0.5973,10e-6 1.12856,-0.13065 1.59377,-0.39198 0.46521,-0.26132 0.80693,-0.61884 1.02519,-1.07256 0.16655,-0.35034 0.24982,-0.86724 0.24983,-1.5507 z"
         id="path7756"
         inkscape:connector-curvature="0" />
      <path
         d="m 334.58349,537.1866 0.22399,1.36978 c -0.4365,0.0919 -0.82705,0.13784 -1.17164,0.13784 -0.56285,0 -0.99934,-0.089 -1.30948,-0.26707 -0.31014,-0.17804 -0.52839,-0.41208 -0.65474,-0.70212 -0.12635,-0.29003 -0.18953,-0.90026 -0.18953,-1.83068 l 0,-5.26376 -1.13718,0 0,-1.2061 1.13718,0 0,-2.26574 1.54208,-0.93042 0,3.19616 1.55932,0 0,1.2061 -1.55932,0 0,5.34991 c 0,0.44223 0.0273,0.72653 0.0818,0.85288 0.0546,0.12636 0.14358,0.22686 0.26706,0.30153 0.12348,0.0747 0.30009,0.11199 0.52982,0.11199 0.1723,0 0.39916,-0.0201 0.68059,-0.0603 z"
         id="path7758"
         inkscape:connector-curvature="0" />
      <path
         d="m 342.0613,537.44504 c -0.57434,0.48819 -1.12714,0.83279 -1.65839,1.0338 -0.53126,0.20102 -1.10128,0.30153 -1.71007,0.30153 -1.00509,0 -1.77756,-0.24553 -2.31743,-0.73658 -0.53988,-0.49106 -0.80981,-1.11851 -0.80981,-1.88238 0,-0.44798 0.10194,-0.85719 0.30583,-1.22763 0.20389,-0.37044 0.47095,-0.66766 0.80119,-0.89166 0.33024,-0.22398 0.70212,-0.39341 1.11564,-0.50828 0.3044,-0.0804 0.76386,-0.15794 1.3784,-0.2326 1.25204,-0.14933 2.17384,-0.32737 2.76541,-0.53413 0.006,-0.2125 0.009,-0.34747 0.009,-0.40491 -1e-5,-0.63176 -0.14646,-1.07687 -0.43937,-1.33532 -0.39629,-0.35034 -0.98498,-0.52551 -1.76607,-0.52552 -0.72941,10e-6 -1.26784,0.1278 -1.61531,0.38337 -0.34747,0.25559 -0.60449,0.70787 -0.77104,1.35686 l -1.51624,-0.20676 c 0.13784,-0.64899 0.3647,-1.17306 0.68059,-1.57223 0.31588,-0.39916 0.77247,-0.70642 1.36978,-0.92181 0.5973,-0.21536 1.28937,-0.32305 2.07621,-0.32306 0.78109,1e-5 1.41572,0.0919 1.90391,0.27568 0.48818,0.1838 0.84714,0.41496 1.07688,0.69351 0.22972,0.27856 0.39053,0.63033 0.48244,1.05533 0.0517,0.2642 0.0775,0.7409 0.0775,1.43009 l 0,2.0676 c -1e-5,1.44158 0.033,2.35333 0.0991,2.73526 0.066,0.38193 0.1967,0.74807 0.39199,1.09841 l -1.61962,0 c -0.16082,-0.32163 -0.2642,-0.69782 -0.31014,-1.12857 z m -0.12923,-3.46322 c -0.56285,0.22974 -1.40712,0.42501 -2.5328,0.58582 -0.63752,0.0919 -1.08837,0.19528 -1.35256,0.31014 -0.26419,0.11487 -0.46808,0.28286 -0.61166,0.50397 -0.14359,0.22113 -0.21538,0.46665 -0.21538,0.73659 0,0.41352 0.15651,0.75812 0.46952,1.0338 0.31301,0.27568 0.77104,0.41352 1.37409,0.41351 0.5973,10e-6 1.12856,-0.13065 1.59377,-0.39198 0.46521,-0.26132 0.80694,-0.61884 1.02519,-1.07256 0.16655,-0.35034 0.24983,-0.86724 0.24983,-1.5507 z"
         id="path7760"
         inkscape:connector-curvature="0" />
      <path
         d="m 347.34229,538.57361 -1.43871,0 0,-12.62958 1.5507,0 0,4.50564 c 0.65474,-0.82128 1.49039,-1.23193 2.50696,-1.23194 0.56284,1e-5 1.09554,0.11344 1.59808,0.34029 0.50254,0.22687 0.91606,0.54563 1.24056,0.95627 0.32449,0.41065 0.57863,0.90601 0.76243,1.48608 0.18378,0.58008 0.27567,1.20036 0.27568,1.86084 -10e-6,1.56793 -0.38768,2.77977 -1.16302,3.63552 -0.77536,0.85576 -1.70578,1.28364 -2.79126,1.28364 -1.07975,0 -1.92689,-0.45085 -2.54142,-1.35256 z m -0.0172,-4.64348 c 0,1.09698 0.14932,1.88956 0.44798,2.37774 0.48818,0.79832 1.14866,1.19748 1.98144,1.19748 0.67771,0 1.26353,-0.29434 1.75746,-0.88304 0.49392,-0.58868 0.74088,-1.46598 0.74089,-2.63188 -10e-6,-1.1946 -0.23692,-2.0762 -0.71074,-2.6448 -0.47383,-0.56858 -1.04672,-0.85287 -1.71869,-0.85288 -0.67771,10e-6 -1.26353,0.29435 -1.75745,0.88304 -0.49393,0.58869 -0.74089,1.44014 -0.74089,2.55434 z"
         id="path7762"
         inkscape:connector-curvature="0" />
      <path
         d="m 361.70347,537.44504 c -0.57434,0.48819 -1.12713,0.83279 -1.65838,1.0338 -0.53126,0.20102 -1.10129,0.30153 -1.71008,0.30153 -1.00508,0 -1.77756,-0.24553 -2.31743,-0.73658 -0.53987,-0.49106 -0.80981,-1.11851 -0.80981,-1.88238 0,-0.44798 0.10195,-0.85719 0.30583,-1.22763 0.20389,-0.37044 0.47096,-0.66766 0.8012,-0.89166 0.33024,-0.22398 0.70212,-0.39341 1.11564,-0.50828 0.30439,-0.0804 0.76386,-0.15794 1.3784,-0.2326 1.25204,-0.14933 2.17384,-0.32737 2.76541,-0.53413 0.006,-0.2125 0.009,-0.34747 0.009,-0.40491 0,-0.63176 -0.14646,-1.07687 -0.43936,-1.33532 -0.3963,-0.35034 -0.98499,-0.52551 -1.76607,-0.52552 -0.72941,10e-6 -1.26785,0.1278 -1.61531,0.38337 -0.34748,0.25559 -0.60449,0.70787 -0.77105,1.35686 l -1.51623,-0.20676 c 0.13784,-0.64899 0.3647,-1.17306 0.68058,-1.57223 0.31588,-0.39916 0.77248,-0.70642 1.36978,-0.92181 0.59731,-0.21536 1.28938,-0.32305 2.07622,-0.32306 0.78108,1e-5 1.41572,0.0919 1.90391,0.27568 0.48817,0.1838 0.84713,0.41496 1.07687,0.69351 0.22973,0.27856 0.39054,0.63033 0.48244,1.05533 0.0517,0.2642 0.0775,0.7409 0.0775,1.43009 l 0,2.0676 c -1e-5,1.44158 0.033,2.35333 0.0991,2.73526 0.066,0.38193 0.1967,0.74807 0.39198,1.09841 l -1.61962,0 c -0.16082,-0.32163 -0.2642,-0.69782 -0.31014,-1.12857 z m -0.12922,-3.46322 c -0.56285,0.22974 -1.40712,0.42501 -2.53281,0.58582 -0.63751,0.0919 -1.08836,0.19528 -1.35255,0.31014 -0.2642,0.11487 -0.46808,0.28286 -0.61167,0.50397 -0.14358,0.22113 -0.21537,0.46665 -0.21537,0.73659 0,0.41352 0.1565,0.75812 0.46952,1.0338 0.31301,0.27568 0.77103,0.41352 1.37409,0.41351 0.5973,10e-6 1.12856,-0.13065 1.59377,-0.39198 0.4652,-0.26132 0.80693,-0.61884 1.02518,-1.07256 0.16655,-0.35034 0.24983,-0.86724 0.24984,-1.5507 z"
         id="path7764"
         inkscape:connector-curvature="0" />
      <path
         d="m 364.93409,535.84266 1.53347,-0.24122 c 0.0862,0.61454 0.32593,1.08549 0.71935,1.41286 0.39342,0.32737 0.94334,0.49105 1.64977,0.49105 0.71217,0 1.24056,-0.14502 1.58516,-0.43506 0.3446,-0.29003 0.51689,-0.63033 0.5169,-1.02087 -10e-6,-0.35034 -0.1522,-0.62602 -0.45659,-0.82704 -0.21251,-0.13784 -0.7409,-0.31301 -1.58516,-0.52552 -1.13718,-0.28716 -1.92545,-0.53556 -2.36482,-0.74519 -0.43936,-0.20963 -0.77247,-0.49967 -0.99933,-0.87012 -0.22687,-0.37044 -0.3403,-0.77965 -0.3403,-1.22763 0,-0.40777 0.0933,-0.7854 0.27999,-1.13287 0.18666,-0.34747 0.4408,-0.63607 0.76243,-0.86581 0.24122,-0.17803 0.57002,-0.3288 0.98641,-0.45229 0.41639,-0.12347 0.86293,-0.18521 1.33963,-0.18522 0.71792,1e-5 1.34824,0.10339 1.89099,0.31014 0.54274,0.20677 0.94334,0.48676 1.2018,0.83996 0.25844,0.35322 0.43648,0.82561 0.53412,1.41717 l -1.51623,0.20676 c -0.0689,-0.47095 -0.26851,-0.83852 -0.59874,-1.10272 -0.33025,-0.26419 -0.7969,-0.39628 -1.39994,-0.39629 -0.71218,10e-6 -1.22046,0.11774 -1.52485,0.35321 -0.3044,0.23549 -0.4566,0.51117 -0.4566,0.82704 0,0.20103 0.0632,0.38194 0.18953,0.54275 0.12635,0.16656 0.3245,0.3044 0.59444,0.41352 0.15506,0.0574 0.61166,0.18953 1.36978,0.39629 1.09697,0.29291 1.86227,0.53269 2.29589,0.71935 0.43362,0.18666 0.77391,0.45803 1.02088,0.81411 0.24695,0.35609 0.37044,0.79833 0.37044,1.32671 0,0.5169 -0.15077,1.00365 -0.45228,1.46024 -0.30153,0.4566 -0.73659,0.80981 -1.30517,1.05965 -0.5686,0.24983 -1.21185,0.37475 -1.92976,0.37475 -1.18887,0 -2.09488,-0.24696 -2.71803,-0.74089 -0.62315,-0.49393 -1.02088,-1.2262 -1.19318,-2.19682 z"
         id="path7766"
         inkscape:connector-curvature="0" />
      <path
         d="m 380.63922,535.62728 1.60239,0.19815 c -0.25272,0.93616 -0.7208,1.66269 -1.40425,2.17959 -0.68346,0.5169 -1.55645,0.77535 -2.61895,0.77535 -1.3382,0 -2.39928,-0.41209 -3.18324,-1.23625 -0.78397,-0.82417 -1.17595,-1.98001 -1.17595,-3.46754 0,-1.5392 0.39629,-2.73381 1.18887,-3.58383 0.79258,-0.85 1.82063,-1.27501 3.08417,-1.27502 1.22332,1e-5 2.22266,0.4164 2.99801,1.24917 0.77534,0.83279 1.16302,2.00443 1.16303,3.51492 -10e-6,0.0919 -0.003,0.22974 -0.009,0.41352 l -6.82307,0 c 0.0574,1.00508 0.34172,1.77469 0.85288,2.30882 0.51116,0.53413 1.14866,0.80119 1.91253,0.80119 0.56858,0 1.05389,-0.14933 1.45593,-0.44798 0.40203,-0.29865 0.72078,-0.77535 0.95627,-1.43009 z m -5.09146,-2.50696 5.10869,0 c -0.0689,-0.7696 -0.2642,-1.3468 -0.58582,-1.73161 -0.49393,-0.5973 -1.13431,-0.89595 -1.92114,-0.89596 -0.71218,10e-6 -1.31092,0.23835 -1.79623,0.71504 -0.48531,0.47671 -0.75381,1.11421 -0.8055,1.91253 z"
         id="path7768"
         inkscape:connector-curvature="0" />
      <path
         d="m 383.57693,535.84266 1.53347,-0.24122 c 0.0861,0.61454 0.32593,1.08549 0.71935,1.41286 0.39342,0.32737 0.94334,0.49105 1.64977,0.49105 0.71217,0 1.24055,-0.14502 1.58516,-0.43506 0.34459,-0.29003 0.51689,-0.63033 0.5169,-1.02087 -10e-6,-0.35034 -0.15221,-0.62602 -0.4566,-0.82704 -0.2125,-0.13784 -0.74089,-0.31301 -1.58515,-0.52552 -1.13719,-0.28716 -1.92546,-0.53556 -2.36482,-0.74519 -0.43936,-0.20963 -0.77248,-0.49967 -0.99934,-0.87012 -0.22686,-0.37044 -0.34029,-0.77965 -0.34029,-1.22763 0,-0.40777 0.0933,-0.7854 0.27999,-1.13287 0.18666,-0.34747 0.4408,-0.63607 0.76242,-0.86581 0.24122,-0.17803 0.57003,-0.3288 0.98642,-0.45229 0.41639,-0.12347 0.86293,-0.18521 1.33963,-0.18522 0.71791,1e-5 1.34824,0.10339 1.89099,0.31014 0.54274,0.20677 0.94334,0.48676 1.20179,0.83996 0.25845,0.35322 0.43649,0.82561 0.53413,1.41717 l -1.51624,0.20676 c -0.0689,-0.47095 -0.2685,-0.83852 -0.59874,-1.10272 -0.33024,-0.26419 -0.79689,-0.39628 -1.39993,-0.39629 -0.71218,10e-6 -1.22046,0.11774 -1.52486,0.35321 -0.30439,0.23549 -0.45659,0.51117 -0.45659,0.82704 0,0.20103 0.0632,0.38194 0.18953,0.54275 0.12635,0.16656 0.32449,0.3044 0.59443,0.41352 0.15507,0.0574 0.61166,0.18953 1.36979,0.39629 1.09697,0.29291 1.86226,0.53269 2.29589,0.71935 0.43362,0.18666 0.77391,0.45803 1.02088,0.81411 0.24695,0.35609 0.37043,0.79833 0.37044,1.32671 -10e-6,0.5169 -0.15077,1.00365 -0.45229,1.46024 -0.30153,0.4566 -0.73658,0.80981 -1.30517,1.05965 -0.56859,0.24983 -1.21184,0.37475 -1.92975,0.37475 -1.18888,0 -2.09488,-0.24696 -2.71803,-0.74089 -0.62315,-0.49393 -1.02088,-1.2262 -1.19318,-2.19682 z"
         id="path7770"
         inkscape:connector-curvature="0" />
    </g>
  </g>
</svg>
