<?xml version="1.0" encoding="UTF-8" standalone="no"?>
<!-- Created with Inkscape (http://www.inkscape.org/) -->

<svg
   xmlns:dc="http://purl.org/dc/elements/1.1/"
   xmlns:cc="http://creativecommons.org/ns#"
   xmlns:rdf="http://www.w3.org/1999/02/22-rdf-syntax-ns#"
   xmlns:svg="http://www.w3.org/2000/svg"
   xmlns="http://www.w3.org/2000/svg"
   xmlns:sodipodi="http://sodipodi.sourceforge.net/DTD/sodipodi-0.dtd"
   xmlns:inkscape="http://www.inkscape.org/namespaces/inkscape"
   width="382.52664"
   height="61.270069"
   id="svg3008"
   version="1.1"
   inkscape:version="0.48.4 r9939"
   sodipodi:docname="crossbar_name.svg">
  <defs
     id="defs3010" />
  <sodipodi:namedview
     id="base"
     pagecolor="#ffffff"
     bordercolor="#666666"
     borderopacity="1.0"
     inkscape:pageopacity="0.0"
     inkscape:pageshadow="2"
     inkscape:zoom="1.4"
     inkscape:cx="146.83598"
     inkscape:cy="-2.7836771"
     inkscape:document-units="px"
     inkscape:current-layer="text2986"
     showgrid="false"
     fit-margin-top="5"
     fit-margin-left="5"
     fit-margin-right="5"
     fit-margin-bottom="5"
     inkscape:window-width="1858"
     inkscape:window-height="1178"
     inkscape:window-x="1016"
     inkscape:window-y="-8"
     inkscape:window-maximized="1" />
  <metadata
     id="metadata3013">
    <rdf:RDF>
      <cc:Work
         rdf:about="">
        <dc:format>image/svg+xml</dc:format>
        <dc:type
           rdf:resource="http://purl.org/dc/dcmitype/StillImage" />
        <dc:title></dc:title>
      </cc:Work>
    </rdf:RDF>
  </metadata>
  <g
     inkscape:label="Ebene 1"
     inkscape:groupmode="layer"
     id="layer1"
     transform="translate(-158.73669,-501.72714)">
    <g
       style="font-size:72.20912933px;font-style:normal;font-variant:normal;font-weight:bold;font-stretch:normal;line-height:125%;letter-spacing:0px;word-spacing:0px;fill:#1a1a1a;fill-opacity:1;stroke:none;font-family:Play;-inkscape-font-specification:Sans Bold"
       id="text2986">
      <path
         d="m 200.63456,556.40838 c -5.29466,1.05922 -10.34909,1.58883 -15.1633,1.58883 -1.92601,0 -3.74328,-0.0845 -5.45182,-0.25342 -1.70858,-0.16895 -3.60996,-0.52998 -5.70414,-1.08309 -2.09421,-0.55312 -3.87549,-1.29905 -5.34385,-2.23781 -1.46837,-0.93875 -2.70792,-2.26277 -3.71865,-3.97207 -1.01075,-1.70929 -1.51612,-3.71938 -1.51611,-6.03028 l 0,-20.57987 c -1e-5,-9.43451 7.24484,-14.15178 21.73457,-14.15183 3.56254,5e-5 8.52074,0.52966 14.87463,1.58883 l 0,8.44879 c -5.72805,-1.34859 -10.63778,-2.02291 -14.72918,-2.02295 -1.6366,4e-5 -2.97238,0.0481 -4.00734,0.14434 -1.035,0.0963 -2.11846,0.33683 -3.25038,0.7217 -1.13196,0.38494 -1.97448,0.99865 -2.52758,1.84114 -0.55313,0.84257 -0.82969,1.93815 -0.82968,3.28674 l 0,19.92979 c -1e-5,4.23542 3.87473,6.35313 11.62425,6.35312 3.41856,1e-5 8.08808,-0.69781 14.00858,-2.09347 z"
         style="fill:#a2a2a2;fill-opacity:1"
         id="path3028" />
      <path
         d="m 230.36177,530.34143 -3.61177,0 c -2.88827,3e-5 -5.06658,0.44516 -6.53492,1.33541 -1.46838,0.8903 -2.20256,2.4189 -2.20255,4.58579 l 0,21.01178 -10.54225,0 0,-34.94985 10.03762,0 0,6.13936 c 0.0485,-1.7335 1.04745,-3.31021 2.99696,-4.73013 1.94947,-1.41985 3.98344,-2.12979 6.1019,-2.12982 l 3.75501,0 z"
         style="fill:#a2a2a2;fill-opacity:1"
         id="path3030" />
      <path
         d="m 270.6158,534.96248 0,10.32629 c -4e-5,2.26243 -0.36107,4.1998 -1.08309,5.81212 -0.7221,1.61235 -1.61274,2.86365 -2.67192,3.75392 -1.05926,0.89027 -2.44315,1.57634 -4.15167,2.05821 -1.7086,0.48186 -3.27282,0.78302 -4.69267,0.90349 -1.41991,0.12047 -3.14096,0.1807 -5.16315,0.1807 -2.02223,0 -3.74328,-0.0602 -5.16315,-0.1807 -1.41989,-0.12047 -2.98448,-0.42163 -4.69377,-0.90349 -1.7093,-0.48187 -3.09356,-1.16794 -4.15277,-2.05821 -1.05923,-0.89027 -1.94987,-2.14157 -2.67192,-3.75392 -0.72207,-1.61232 -1.0831,-3.54969 -1.0831,-5.81212 l 0,-10.32629 c 0,-2.40783 0.37315,-4.46603 1.11946,-6.17462 0.74629,-1.70853 1.66117,-3.02007 2.74464,-3.93461 1.08345,-0.91448 2.49158,-1.62479 4.22439,-2.13093 1.73279,-0.50607 3.28526,-0.81899 4.65741,-0.93875 1.37212,-0.1197 3.04506,-0.17957 5.01881,-0.1796 1.97371,3e-5 3.64665,0.0599 5.01881,0.1796 1.37211,0.11976 2.92458,0.43268 4.65741,0.93875 1.73277,0.50614 3.14053,1.21645 4.22329,2.13093 1.08269,0.91454 1.9972,2.22608 2.74354,3.93461 0.74626,1.70859 1.11941,3.76679 1.11945,6.17462 z m -10.54225,11.55373 0,-13.21528 c -3e-5,-1.87748 -0.48152,-3.21326 -1.44449,-4.00733 -0.96302,-0.79402 -2.88864,-1.19105 -5.77686,-1.19107 -2.88827,2e-5 -4.81352,0.39705 -5.77576,1.19107 -0.96228,0.79407 -1.44341,2.12985 -1.44339,4.00733 l 0,13.21528 c -2e-5,1.82903 0.46899,3.10458 1.40703,3.82663 0.938,0.72207 2.87537,1.0831 5.81212,1.08309 2.9367,10e-6 4.87444,-0.36102 5.81322,-1.08309 0.93873,-0.72205 1.4081,-1.9976 1.40813,-3.82663 z"
         style="fill:#a2a2a2;fill-opacity:1"
         id="path3032" />
      <path
         d="m 308.94385,543.62722 0,4.4051 c -3e-5,1.73207 -0.3247,3.22394 -0.97401,4.4756 -0.64938,1.25168 -1.46766,2.22679 -2.45487,2.92535 -0.98726,0.69855 -2.27529,1.24028 -3.86409,1.62519 -1.58886,0.3849 -3.11709,0.63758 -4.58469,0.75805 -1.46765,0.12047 -3.1887,0.1807 -5.16315,0.1807 -3.80351,0 -8.40105,-0.3614 -13.79263,-1.08419 l 0,-7.0032 c 6.69173,1.01075 11.33775,1.51612 13.93807,1.51611 2.06994,10e-6 3.67052,-0.20456 4.80175,-0.61371 1.13118,-0.40914 1.69679,-1.21531 1.69681,-2.41851 l 0,-2.16839 c -2e-5,-1.10621 -0.31294,-1.93625 -0.93875,-2.49012 -0.62586,-0.55383 -1.97376,-0.83076 -4.0437,-0.83077 l -4.55053,0 c -3.65807,10e-6 -6.50995,-0.73417 -8.55566,-2.20255 -2.04573,-1.46834 -3.06858,-3.62241 -3.06858,-6.4622 l 0,-4.25965 c 0,-3.17763 1.51647,-5.36805 4.54943,-6.57127 3.03294,-1.20316 7.3172,-1.80476 12.85277,-1.80479 2.31087,3e-5 6.45079,0.21673 12.41976,0.65007 l 0,6.71452 c -7.51005,-0.57733 -11.7462,-0.86601 -12.70843,-0.86603 -2.93675,2e-5 -4.79038,0.2046 -5.56091,0.61371 -0.77055,0.40917 -1.15583,1.1911 -1.15581,2.34578 l 0,1.87751 c -2e-5,0.57738 0.30115,1.10699 0.90349,1.58883 0.60232,0.48189 1.52932,0.72282 2.78101,0.7228 l 4.62105,0 c 8.56775,2e-5 12.85164,2.79204 12.85167,8.37606 z"
         style="fill:#a2a2a2;fill-opacity:1"
         id="path3034" />
      <path
         d="m 346.88185,543.62722 0,4.4051 c -3e-5,1.73207 -0.3247,3.22394 -0.97401,4.4756 -0.64937,1.25168 -1.46766,2.22679 -2.45486,2.92535 -0.98727,0.69855 -2.2753,1.24028 -3.8641,1.62519 -1.58885,0.3849 -3.11708,0.63758 -4.58469,0.75805 -1.46765,0.12047 -3.1887,0.1807 -5.16314,0.1807 -3.80351,0 -8.40105,-0.3614 -13.79264,-1.08419 l 0,-7.0032 c 6.69174,1.01075 11.33776,1.51612 13.93808,1.51611 2.06994,10e-6 3.67052,-0.20456 4.80175,-0.61371 1.13118,-0.40914 1.69678,-1.21531 1.6968,-2.41851 l 0,-2.16839 c -2e-5,-1.10621 -0.31294,-1.93625 -0.93875,-2.49012 -0.62586,-0.55383 -1.97376,-0.83076 -4.04369,-0.83077 l -4.55054,0 c -3.65806,10e-6 -6.50995,-0.73417 -8.55566,-2.20255 -2.04572,-1.46834 -3.06858,-3.62241 -3.06858,-6.4622 l 0,-4.25965 c 0,-3.17763 1.51647,-5.36805 4.54943,-6.57127 3.03295,-1.20316 7.3172,-1.80476 12.85278,-1.80479 2.31087,3e-5 6.45078,0.21673 12.41976,0.65007 l 0,6.71452 c -7.51006,-0.57733 -11.7462,-0.86601 -12.70844,-0.86603 -2.93675,2e-5 -4.79038,0.2046 -5.5609,0.61371 -0.77056,0.40917 -1.15583,1.1911 -1.15582,2.34578 l 0,1.87751 c -10e-6,0.57738 0.30115,1.10699 0.9035,1.58883 0.60231,0.48189 1.52931,0.72282 2.781,0.7228 l 4.62105,0 c 8.56775,2e-5 12.85164,2.79204 12.85167,8.37606 z"
         style="fill:#a2a2a2;fill-opacity:1"
         id="path3036" />
      <path
         d="m 390.5251,533.37365 0,11.48101 c -4e-5,4.76576 -1.43204,8.14762 -4.29601,10.14559 -2.86404,1.99797 -7.4737,2.99696 -13.82899,2.99696 -6.69029,0 -11.31134,-1.0471 -13.86315,-3.1413 -2.55183,-2.09419 -3.82774,-5.42794 -3.82774,-10.00125 l 0,-38.12752 10.54226,0 0,19.06376 c 0.62582,-1.58806 1.79338,-2.68291 3.50269,-3.28454 1.70928,-0.60156 4.32097,-0.90236 7.83507,-0.90239 2.98371,3e-5 5.41433,0.2406 7.29187,0.72169 1.87748,0.48117 3.29773,1.26346 4.26076,2.34689 0.96295,1.08349 1.60091,2.27493 1.91386,3.57431 0.31288,1.29945 0.46934,3.00838 0.46938,5.12679 z m -10.54225,12.85167 0,-12.92439 c -3e-5,-2.26239 -0.42129,-3.69439 -1.26379,-4.29601 -0.84256,-0.60157 -2.92463,-0.90237 -6.24624,-0.90239 -2.98523,2e-5 -4.93509,0.38493 -5.84958,1.15471 -0.91453,0.76983 -1.37179,2.11773 -1.37177,4.04369 l 0,12.92439 c -2e-5,2.07144 0.44548,3.45607 1.33651,4.15388 0.89099,0.69783 2.87684,1.04674 5.95756,1.04673 3.08067,10e-6 5.0904,-0.3489 6.02918,-1.04673 0.93872,-0.69781 1.4081,-2.08244 1.40813,-4.15388 z"
         style="fill:#a2a2a2;fill-opacity:1"
         id="path3038" />
      <path
         d="m 430.19516,557.27441 -10.3263,0 0,-3.17766 c -0.76983,1.39565 -1.87679,2.39464 -3.32089,2.99696 -1.44415,0.60233 -4.0922,0.9035 -7.94415,0.9035 -4.71729,0 -7.8461,-0.72206 -9.38644,-2.16619 -1.54036,-1.44412 -2.31053,-4.45283 -2.31053,-9.02614 0,-4.1399 0.79441,-7.01639 2.38325,-8.62948 1.58882,-1.61305 4.42895,-2.41958 8.5204,-2.41961 l 11.84241,0 0,-2.38214 c -3e-5,-2.11841 -0.49365,-3.52654 -1.48086,-4.22439 -0.98725,-0.6978 -3.06896,-1.04671 -6.24513,-1.04673 -2.98523,2e-5 -7.0774,0.2887 -12.27653,0.86603 l 0,-6.644 c 3.99594,-0.48036 8.44878,-0.72056 13.35852,-0.72059 6.45078,3e-5 10.92786,0.78233 13.43123,2.34688 2.50331,1.56462 3.75498,4.65707 3.75502,9.27736 z m -10.54225,-8.95342 0,-6.78723 -7.22136,0 c -2.31091,10e-6 -3.75503,0.26445 -4.33237,0.79331 -0.57737,0.52889 -0.86605,1.94877 -0.86603,4.25965 -2e-5,2.26242 0.30078,3.63456 0.90239,4.11642 0.60158,0.48187 2.12981,0.7228 4.58469,0.72279 1.20317,10e-6 2.09381,-0.0121 2.67192,-0.0364 0.57807,-0.0242 1.20391,-0.0845 1.87751,-0.1807 0.67356,-0.0962 1.14293,-0.25267 1.40813,-0.46937 0.26515,-0.21669 0.49396,-0.51749 0.68644,-0.9024 0.19242,-0.38489 0.28865,-0.89026 0.28868,-1.51611 z"
         style="fill:#a2a2a2;fill-opacity:1"
         id="path3040" />
      <path
         d="m 462.36182,530.34143 -3.61178,0 c -2.88827,3e-5 -5.06658,0.44516 -6.53492,1.33541 -1.46838,0.8903 -2.20256,2.4189 -2.20255,4.58579 l 0,21.01178 -10.54225,0 0,-34.94985 10.03762,0 0,6.13936 c 0.0485,-1.7335 1.04745,-3.31021 2.99696,-4.73013 1.94947,-1.41985 3.98344,-2.12979 6.1019,-2.12982 l 3.75502,0 z"
         style="fill:#a2a2a2;fill-opacity:1"
         id="path3042" />
      <path
         d="m 476.9103,557.27441 -8.37607,0 0,-7.79871 8.37607,0 z"
         style="font-weight:normal;fill:#f0f0f0;-inkscape-font-specification:Play;fill-opacity:1"
         id="path3044" />
      <path
         d="m 494.08552,516.47608 -6.49856,0 0,-6.78724 6.49856,0 z m 0,40.79833 -6.49856,0 0,-34.94985 6.49856,0 z"
         style="font-weight:normal;fill:#f0f0f0;-inkscape-font-specification:Play;fill-opacity:1"
         id="path3046" />
      <path
         d="m 536.26332,534.09424 0,12.13108 c -3e-5,2.16693 -0.26484,3.99669 -0.79441,5.48929 -0.52965,1.49261 -1.2036,2.64805 -2.02185,3.46634 -0.81832,0.81829 -1.98588,1.44412 -3.5027,1.87751 -1.51687,0.43338 -2.96136,0.69819 -4.33347,0.79441 -1.37216,0.0962 -3.18944,0.14434 -5.45182,0.14434 -2.88827,0 -5.13856,-0.0962 -6.75088,-0.28868 -1.61235,-0.19245 -3.22505,-0.66183 -4.83811,-1.40813 -1.61308,-0.7463 -2.76852,-1.93774 -3.46634,-3.57431 -0.69782,-1.63657 -1.04673,-3.80349 -1.04673,-6.50077 l 0,-12.13108 c 0,-2.30939 0.27692,-4.25852 0.83078,-5.84738 0.55384,-1.5888 1.22779,-2.81659 2.02184,-3.68339 0.79404,-0.86674 1.96124,-1.52857 3.5016,-1.98549 1.54034,-0.45685 2.97234,-0.73341 4.29601,-0.82967 1.32364,-0.0962 3.14092,-0.14431 5.45183,-0.14434 2.31086,3e-5 4.12814,0.0481 5.45182,0.14434 1.32363,0.0963 2.756,0.37282 4.29711,0.82967 1.54106,0.45692 2.70862,1.11875 3.5027,1.98549 0.79401,0.8668 1.46796,2.09459 2.02185,3.68339 0.55381,1.58886 0.83074,3.53799 0.83077,5.84738 z m -6.64399,13.06984 0,-14.15183 c -3e-5,-3.22611 -0.65011,-5.22408 -1.95023,-5.99392 -1.30018,-0.76978 -3.80352,-1.15468 -7.51003,-1.15471 -3.70656,3e-5 -6.20953,0.38493 -7.50893,1.15471 -1.29943,0.76984 -1.94914,2.76781 -1.94913,5.99392 l 0,14.15183 c -10e-6,1.54109 0.1682,2.76889 0.50463,3.6834 0.33642,0.91451 0.96225,1.57634 1.87751,1.98548 0.91524,0.40915 1.85399,0.66183 2.81626,0.75806 0.96225,0.0962 2.38213,0.14434 4.25966,0.14434 1.87748,0 3.29773,-0.0481 4.26075,-0.14434 0.96297,-0.0962 1.90172,-0.34891 2.81626,-0.75806 0.91449,-0.40914 1.54032,-1.07097 1.87751,-1.98548 0.33713,-0.91451 0.50571,-2.14231 0.50574,-3.6834 z"
         style="font-weight:normal;fill:#f0f0f0;-inkscape-font-specification:Play;fill-opacity:1"
         id="path3048" />
    </g>
  </g>
</svg>
