<?xml version="1.0" encoding="UTF-8" standalone="no"?>
<!-- Created with Inkscape (http://www.inkscape.org/) -->

<svg
   xmlns:dc="http://purl.org/dc/elements/1.1/"
   xmlns:cc="http://creativecommons.org/ns#"
   xmlns:rdf="http://www.w3.org/1999/02/22-rdf-syntax-ns#"
   xmlns:svg="http://www.w3.org/2000/svg"
   xmlns="http://www.w3.org/2000/svg"
   xmlns:xlink="http://www.w3.org/1999/xlink"
   xmlns:sodipodi="http://sodipodi.sourceforge.net/DTD/sodipodi-0.dtd"
   xmlns:inkscape="http://www.inkscape.org/namespaces/inkscape"
   width="110.45819"
   height="39.156437"
   id="svg6718"
   version="1.1"
   inkscape:version="0.48.4 r9939"
   sodipodi:docname="crossbar_arch_python.svg">
  <defs
     id="defs6720">
    <filter
       id="filter5034-4"
       inkscape:label="Desaturate"
       x="0"
       y="0"
       width="1"
       height="1"
       inkscape:menu="Color"
       inkscape:menu-tooltip="Render in shades of gray by reducing saturation to zero"
       color-interpolation-filters="sRGB">
      <feColorMatrix
         id="feColorMatrix5036-8"
         type="saturate"
         values="0" />
    </filter>
    <filter
       id="filter6583"
       inkscape:label="Desaturate"
       x="0"
       y="0"
       width="1"
       height="1"
       inkscape:menu="Color"
       inkscape:menu-tooltip="Render in shades of gray by reducing saturation to zero"
       color-interpolation-filters="sRGB">
      <feColorMatrix
         id="feColorMatrix6585"
         type="saturate"
         values="0" />
    </filter>
    <filter
       id="filter6587"
       inkscape:label="Desaturate"
       x="0"
       y="0"
       width="1"
       height="1"
       inkscape:menu="Color"
       inkscape:menu-tooltip="Render in shades of gray by reducing saturation to zero"
       color-interpolation-filters="sRGB">
      <feColorMatrix
         id="feColorMatrix6589"
         type="saturate"
         values="0" />
    </filter>
    <filter
       id="filter6591"
       inkscape:label="Desaturate"
       x="0"
       y="0"
       width="1"
       height="1"
       inkscape:menu="Color"
       inkscape:menu-tooltip="Render in shades of gray by reducing saturation to zero"
       color-interpolation-filters="sRGB">
      <feColorMatrix
         id="feColorMatrix6593"
         type="saturate"
         values="0" />
    </filter>
    <filter
       id="filter6595"
       inkscape:label="Desaturate"
       x="0"
       y="0"
       width="1"
       height="1"
       inkscape:menu="Color"
       inkscape:menu-tooltip="Render in shades of gray by reducing saturation to zero"
       color-interpolation-filters="sRGB">
      <feColorMatrix
         id="feColorMatrix6597"
         type="saturate"
         values="0" />
    </filter>
    <filter
       id="filter6599"
       inkscape:label="Desaturate"
       x="0"
       y="0"
       width="1"
       height="1"
       inkscape:menu="Color"
       inkscape:menu-tooltip="Render in shades of gray by reducing saturation to zero"
       color-interpolation-filters="sRGB">
      <feColorMatrix
         id="feColorMatrix6601"
         type="saturate"
         values="0" />
    </filter>
    <filter
       id="filter6603"
       inkscape:label="Desaturate"
       x="0"
       y="0"
       width="1"
       height="1"
       inkscape:menu="Color"
       inkscape:menu-tooltip="Render in shades of gray by reducing saturation to zero"
       color-interpolation-filters="sRGB">
      <feColorMatrix
         id="feColorMatrix6605"
         type="saturate"
         values="0" />
    </filter>
    <filter
       id="filter4592"
       inkscape:label="Desaturate"
       x="0"
       y="0"
       width="1"
       height="1"
       inkscape:menu="Color"
       inkscape:menu-tooltip="Render in shades of gray by reducing saturation to zero"
       color-interpolation-filters="sRGB">
      <feColorMatrix
         id="feColorMatrix4594"
         type="saturate"
         values="0" />
    </filter>
    <linearGradient
       inkscape:collect="always"
       xlink:href="#linearGradient6056"
       id="linearGradient3539"
       gradientUnits="userSpaceOnUse"
       x1="331.34576"
       y1="452.02783"
       x2="331.34576"
       y2="574.2973" />
    <linearGradient
       id="linearGradient6056">
      <stop
         style="stop-color:#ffffff;stop-opacity:1;"
         offset="0"
         id="stop6062" />
      <stop
         style="stop-color:#838383;stop-opacity:1;"
         offset="1"
         id="stop6064" />
    </linearGradient>
    <linearGradient
       inkscape:collect="always"
       xlink:href="#linearGradient6056"
       id="linearGradient3531"
       gradientUnits="userSpaceOnUse"
       x1="331.34576"
       y1="452.02783"
       x2="331.34576"
       y2="574.2973" />
    <linearGradient
       id="linearGradient6858">
      <stop
         style="stop-color:#ffffff;stop-opacity:1;"
         offset="0"
         id="stop6860" />
      <stop
         style="stop-color:#838383;stop-opacity:1;"
         offset="1"
         id="stop6862" />
    </linearGradient>
    <linearGradient
       inkscape:collect="always"
       xlink:href="#linearGradient6056"
       id="linearGradient3533"
       gradientUnits="userSpaceOnUse"
       x1="331.34576"
       y1="452.02783"
       x2="331.34576"
       y2="574.2973" />
    <linearGradient
       id="linearGradient6865">
      <stop
         style="stop-color:#ffffff;stop-opacity:1;"
         offset="0"
         id="stop6867" />
      <stop
         style="stop-color:#838383;stop-opacity:1;"
         offset="1"
         id="stop6869" />
    </linearGradient>
    <linearGradient
       inkscape:collect="always"
       xlink:href="#linearGradient6056"
       id="linearGradient3535"
       gradientUnits="userSpaceOnUse"
       x1="331.34576"
       y1="452.02783"
       x2="331.34576"
       y2="574.2973" />
    <linearGradient
       id="linearGradient6872">
      <stop
         style="stop-color:#ffffff;stop-opacity:1;"
         offset="0"
         id="stop6874" />
      <stop
         style="stop-color:#838383;stop-opacity:1;"
         offset="1"
         id="stop6876" />
    </linearGradient>
    <linearGradient
       inkscape:collect="always"
       xlink:href="#linearGradient6056"
       id="linearGradient3537"
       gradientUnits="userSpaceOnUse"
       x1="331.34576"
       y1="452.02783"
       x2="331.34576"
       y2="574.2973" />
    <linearGradient
       id="linearGradient6879">
      <stop
         style="stop-color:#ffffff;stop-opacity:1;"
         offset="0"
         id="stop6881" />
      <stop
         style="stop-color:#838383;stop-opacity:1;"
         offset="1"
         id="stop6883" />
    </linearGradient>
    <linearGradient
       inkscape:collect="always"
       xlink:href="#linearGradient6114"
       id="linearGradient3547"
       gradientUnits="userSpaceOnUse"
       x1="346.11499"
       y1="520.72614"
       x2="346.11499"
       y2="567.32123" />
    <linearGradient
       id="linearGradient6114">
      <stop
         id="stop6116"
         offset="0"
         style="stop-color:#ffffff;stop-opacity:0;" />
      <stop
         id="stop6118"
         offset="1"
         style="stop-color:#000000;stop-opacity:0.53846157;" />
    </linearGradient>
    <linearGradient
       inkscape:collect="always"
       xlink:href="#linearGradient6114"
       id="linearGradient3541"
       gradientUnits="userSpaceOnUse"
       x1="346.11499"
       y1="520.72614"
       x2="346.11499"
       y2="567.32123" />
    <linearGradient
       id="linearGradient6890">
      <stop
         id="stop6892"
         offset="0"
         style="stop-color:#ffffff;stop-opacity:0;" />
      <stop
         id="stop6894"
         offset="1"
         style="stop-color:#000000;stop-opacity:0.53846157;" />
    </linearGradient>
    <linearGradient
       inkscape:collect="always"
       xlink:href="#linearGradient6114"
       id="linearGradient3543"
       gradientUnits="userSpaceOnUse"
       x1="346.11499"
       y1="520.72614"
       x2="346.11499"
       y2="567.32123" />
    <linearGradient
       id="linearGradient6897">
      <stop
         id="stop6899"
         offset="0"
         style="stop-color:#ffffff;stop-opacity:0;" />
      <stop
         id="stop6901"
         offset="1"
         style="stop-color:#000000;stop-opacity:0.53846157;" />
    </linearGradient>
    <linearGradient
       inkscape:collect="always"
       xlink:href="#linearGradient6114"
       id="linearGradient3545"
       gradientUnits="userSpaceOnUse"
       x1="346.11499"
       y1="520.72614"
       x2="346.11499"
       y2="567.32123" />
    <linearGradient
       id="linearGradient6904">
      <stop
         id="stop6906"
         offset="0"
         style="stop-color:#ffffff;stop-opacity:0;" />
      <stop
         id="stop6908"
         offset="1"
         style="stop-color:#000000;stop-opacity:0.53846157;" />
    </linearGradient>
    <radialGradient
       inkscape:collect="always"
       xlink:href="#linearGradient6030"
       id="radialGradient3557"
       gradientUnits="userSpaceOnUse"
       gradientTransform="matrix(4.39697,-0.781364,0.273452,1.5388,-1379.4,111.904)"
       cx="363.84866"
       cy="494.10422"
       fx="363.84866"
       fy="494.10422"
       r="88.392456" />
    <linearGradient
       id="linearGradient6030">
      <stop
         id="stop6032"
         offset="0"
         style="stop-color:#ffffff;stop-opacity:1;" />
      <stop
         style="stop-color:#000000;stop-opacity:1;"
         offset="0.5"
         id="stop6038" />
      <stop
         id="stop6040"
         offset="0.51028222"
         style="stop-color:#ffffff;stop-opacity:1;" />
      <stop
         id="stop6034"
         offset="1"
         style="stop-color:#000000;stop-opacity:1;" />
    </linearGradient>
    <radialGradient
       inkscape:collect="always"
       xlink:href="#linearGradient6030"
       id="radialGradient3549"
       gradientUnits="userSpaceOnUse"
       gradientTransform="matrix(4.39697,-0.781364,0.273452,1.5388,-1379.4,111.904)"
       cx="363.84866"
       cy="494.10422"
       fx="363.84866"
       fy="494.10422"
       r="88.392456" />
    <linearGradient
       id="linearGradient6923">
      <stop
         id="stop6925"
         offset="0"
         style="stop-color:#ffffff;stop-opacity:1;" />
      <stop
         style="stop-color:#000000;stop-opacity:1;"
         offset="0.5"
         id="stop6927" />
      <stop
         id="stop6929"
         offset="0.51028222"
         style="stop-color:#ffffff;stop-opacity:1;" />
      <stop
         id="stop6931"
         offset="1"
         style="stop-color:#000000;stop-opacity:1;" />
    </linearGradient>
    <radialGradient
       inkscape:collect="always"
       xlink:href="#linearGradient6030"
       id="radialGradient3551"
       gradientUnits="userSpaceOnUse"
       gradientTransform="matrix(4.39697,-0.781364,0.273452,1.5388,-1379.4,111.904)"
       cx="363.84866"
       cy="494.10422"
       fx="363.84866"
       fy="494.10422"
       r="88.392456" />
    <linearGradient
       id="linearGradient6934">
      <stop
         id="stop6936"
         offset="0"
         style="stop-color:#ffffff;stop-opacity:1;" />
      <stop
         style="stop-color:#000000;stop-opacity:1;"
         offset="0.5"
         id="stop6938" />
      <stop
         id="stop6940"
         offset="0.51028222"
         style="stop-color:#ffffff;stop-opacity:1;" />
      <stop
         id="stop6942"
         offset="1"
         style="stop-color:#000000;stop-opacity:1;" />
    </linearGradient>
    <radialGradient
       inkscape:collect="always"
       xlink:href="#linearGradient6030"
       id="radialGradient3553"
       gradientUnits="userSpaceOnUse"
       gradientTransform="matrix(4.39697,-0.781364,0.273452,1.5388,-1379.4,111.904)"
       cx="363.84866"
       cy="494.10422"
       fx="363.84866"
       fy="494.10422"
       r="88.392456" />
    <linearGradient
       id="linearGradient6945">
      <stop
         id="stop6947"
         offset="0"
         style="stop-color:#ffffff;stop-opacity:1;" />
      <stop
         style="stop-color:#000000;stop-opacity:1;"
         offset="0.5"
         id="stop6949" />
      <stop
         id="stop6951"
         offset="0.51028222"
         style="stop-color:#ffffff;stop-opacity:1;" />
      <stop
         id="stop6953"
         offset="1"
         style="stop-color:#000000;stop-opacity:1;" />
    </linearGradient>
    <radialGradient
       inkscape:collect="always"
       xlink:href="#linearGradient6030"
       id="radialGradient3555"
       gradientUnits="userSpaceOnUse"
       gradientTransform="matrix(4.39697,-0.781364,0.273452,1.5388,-1379.4,111.904)"
       cx="363.84866"
       cy="494.10422"
       fx="363.84866"
       fy="494.10422"
       r="88.392456" />
    <linearGradient
       id="linearGradient6956">
      <stop
         id="stop6958"
         offset="0"
         style="stop-color:#ffffff;stop-opacity:1;" />
      <stop
         style="stop-color:#000000;stop-opacity:1;"
         offset="0.5"
         id="stop6960" />
      <stop
         id="stop6962"
         offset="0.51028222"
         style="stop-color:#ffffff;stop-opacity:1;" />
      <stop
         id="stop6964"
         offset="1"
         style="stop-color:#000000;stop-opacity:1;" />
    </linearGradient>
    <filter
       id="filter4726"
       inkscape:label="Desaturate"
       x="0"
       y="0"
       width="1"
       height="1"
       inkscape:menu="Color"
       inkscape:menu-tooltip="Render in shades of gray by reducing saturation to zero"
       color-interpolation-filters="sRGB">
      <feColorMatrix
         id="feColorMatrix4728"
         type="saturate"
         values="0" />
    </filter>
    <filter
       id="filter5670"
       inkscape:label="Desaturate"
       x="0"
       y="0"
       width="1"
       height="1"
       inkscape:menu="Color"
       inkscape:menu-tooltip="Render in shades of gray by reducing saturation to zero"
       color-interpolation-filters="sRGB">
      <feColorMatrix
         id="feColorMatrix5672"
         type="saturate"
         values="0" />
    </filter>
    <filter
       id="filter5579"
       inkscape:label="Desaturate"
       x="0"
       y="0"
       width="1"
       height="1"
       inkscape:menu="Color"
       inkscape:menu-tooltip="Render in shades of gray by reducing saturation to zero"
       color-interpolation-filters="sRGB">
      <feColorMatrix
         id="feColorMatrix5581"
         type="saturate"
         values="0" />
    </filter>
    <linearGradient
       inkscape:collect="always"
       xlink:href="#linearGradient4689"
       id="linearGradient3559"
       gradientUnits="userSpaceOnUse"
       gradientTransform="matrix(0.562541,0,0,0.567972,-9.399749,-5.305317)"
       x1="26.648937"
       y1="20.603781"
       x2="135.66525"
       y2="114.39767" />
    <linearGradient
       id="linearGradient4689">
      <stop
         id="stop4691"
         offset="0"
         style="stop-color:#5a9fd4;stop-opacity:1" />
      <stop
         id="stop4693"
         offset="1"
         style="stop-color:#306998;stop-opacity:1" />
    </linearGradient>
    <linearGradient
       inkscape:collect="always"
       xlink:href="#linearGradient4671"
       id="linearGradient3561"
       gradientUnits="userSpaceOnUse"
       gradientTransform="matrix(0.562541,0,0,0.567972,-9.399749,-5.305317)"
       x1="150.96111"
       y1="192.35176"
       x2="112.03144"
       y2="137.27299" />
    <linearGradient
       id="linearGradient4671">
      <stop
         id="stop4673"
         offset="0"
         style="stop-color:#ffd43b;stop-opacity:1" />
      <stop
         id="stop4675"
         offset="1"
         style="stop-color:#ffe873;stop-opacity:1" />
    </linearGradient>
    <radialGradient
       inkscape:collect="always"
       xlink:href="#linearGradient2795"
       id="radialGradient3563"
       gradientUnits="userSpaceOnUse"
       gradientTransform="matrix(2.382716e-8,-0.296405,1.43676,4.683673e-7,-128.544,150.5202)"
       cx="61.518883"
       cy="132.28575"
       fx="61.518883"
       fy="132.28575"
       r="29.036913" />
    <linearGradient
       id="linearGradient2795">
      <stop
         id="stop2797"
         offset="0"
         style="stop-color:#b8b8b8;stop-opacity:0.49803922" />
      <stop
         id="stop2799"
         offset="1"
         style="stop-color:#7f7f7f;stop-opacity:0" />
    </linearGradient>
    <radialGradient
       r="29.036913"
       fy="132.28575"
       fx="61.518883"
       cy="132.28575"
       cx="61.518883"
       gradientTransform="matrix(2.382716e-8,-0.296405,1.43676,4.683673e-7,-128.544,150.5202)"
       gradientUnits="userSpaceOnUse"
       id="radialGradient7344"
       xlink:href="#linearGradient2795"
       inkscape:collect="always" />
    <linearGradient
       x1="26.648937"
       y1="20.603781"
       x2="135.66525"
       y2="114.39767"
       id="linearGradient1478"
       xlink:href="#linearGradient4689-1"
       gradientUnits="userSpaceOnUse"
       gradientTransform="matrix(0.562541,0,0,0.567972,-9.399749,-5.305317)" />
    <linearGradient
       id="linearGradient4689-1">
      <stop
         style="stop-color:#5a9fd4;stop-opacity:1"
         offset="0"
         id="stop4691-7" />
      <stop
         style="stop-color:#306998;stop-opacity:1"
         offset="1"
         id="stop4693-4" />
    </linearGradient>
    <linearGradient
       x1="150.96111"
       y1="192.35176"
       x2="112.03144"
       y2="137.27299"
       id="linearGradient1475"
       xlink:href="#linearGradient4671-0"
       gradientUnits="userSpaceOnUse"
       gradientTransform="matrix(0.562541,0,0,0.567972,-9.399749,-5.305317)" />
    <linearGradient
       id="linearGradient4671-0">
      <stop
         style="stop-color:#ffd43b;stop-opacity:1"
         offset="0"
         id="stop4673-9" />
      <stop
         style="stop-color:#ffe873;stop-opacity:1"
         offset="1"
         id="stop4675-4" />
    </linearGradient>
    <radialGradient
       cx="61.518883"
       cy="132.28575"
       r="29.036913"
       fx="61.518883"
       fy="132.28575"
       id="radialGradient1480"
       xlink:href="#linearGradient2795-8"
       gradientUnits="userSpaceOnUse"
       gradientTransform="matrix(2.382716e-8,-0.296405,1.43676,4.683673e-7,-128.544,150.5202)" />
    <linearGradient
       id="linearGradient2795-8">
      <stop
         style="stop-color:#b8b8b8;stop-opacity:0.49803922"
         offset="0"
         id="stop2797-8" />
      <stop
         style="stop-color:#7f7f7f;stop-opacity:0"
         offset="1"
         id="stop2799-2" />
    </linearGradient>
    <radialGradient
       r="29.036913"
       fy="132.28575"
       fx="61.518883"
       cy="132.28575"
       cx="61.518883"
       gradientTransform="matrix(2.382716e-8,-0.296405,1.43676,4.683673e-7,-128.544,150.5202)"
       gradientUnits="userSpaceOnUse"
       id="radialGradient3055"
       xlink:href="#linearGradient2795-8"
       inkscape:collect="always" />
    <radialGradient
       inkscape:collect="always"
       xlink:href="#linearGradient2795-8"
       id="radialGradient3156"
       gradientUnits="userSpaceOnUse"
       gradientTransform="matrix(0,-0.05089965,0.22372543,8.0429592e-8,744.64778,635.41502)"
       cx="61.518883"
       cy="132.28575"
       fx="61.518883"
       fy="132.28575"
       r="29.036913" />
  </defs>
  <sodipodi:namedview
     id="base"
     pagecolor="#ffffff"
     bordercolor="#666666"
     borderopacity="1.0"
     inkscape:pageopacity="0.0"
     inkscape:pageshadow="2"
     inkscape:zoom="3.959798"
     inkscape:cx="93.984784"
     inkscape:cy="-17.413469"
     inkscape:document-units="px"
     inkscape:current-layer="layer1"
     showgrid="false"
     fit-margin-top="5"
     fit-margin-right="5"
     fit-margin-left="5"
     fit-margin-bottom="5"
     inkscape:window-width="1858"
     inkscape:window-height="1178"
     inkscape:window-x="1016"
     inkscape:window-y="-8"
     inkscape:window-maximized="1" />
  <metadata
     id="metadata6723">
    <rdf:RDF>
      <cc:Work
         rdf:about="">
        <dc:format>image/svg+xml</dc:format>
        <dc:type
           rdf:resource="http://purl.org/dc/dcmitype/StillImage" />
        <dc:title />
      </cc:Work>
    </rdf:RDF>
  </metadata>
  <g
     inkscape:label="Ebene 1"
     inkscape:groupmode="layer"
     id="layer1"
     transform="translate(-756.94627,-597.98924)">
    <g
       id="g3171">
      <path
         inkscape:connector-curvature="0"
         id="path46-5"
         style="fill:#646464;fill-opacity:1"
         d="m 800.37886,616.97473 c 0,-3.08905 -0.88081,-4.67493 -2.64244,-4.76177 -0.70093,-0.0331 -1.38532,0.0786 -2.0511,0.33702 -0.53138,0.19023 -0.88908,0.37838 -1.07724,0.5686 l 0,7.3732 c 1.12687,0.70714 2.1276,1.03589 3.00015,0.9842 1.8464,-0.12199 2.77063,-1.62103 2.77063,-4.50125 z m 2.17309,0.12819 c 0,1.56934 -0.36804,2.87195 -1.10825,3.90784 -0.82499,1.17235 -1.9684,1.7761 -3.43022,1.80918 -1.10205,0.0352 -2.23718,-0.31014 -3.4054,-1.03382 l 0,6.70122 -1.88982,-0.67405 0,-14.87459 c 0.31015,-0.38044 0.7092,-0.70713 1.19303,-0.9842 1.12479,-0.65544 2.4915,-0.99246 4.10013,-1.009 l 0.0269,0.0269 c 1.4701,-0.0186 2.60316,0.58514 3.3992,1.80918 0.74228,1.12273 1.11446,2.5618 1.11446,4.32136 z" />
      <path
         inkscape:connector-curvature="0"
         id="path48-5"
         style="fill:#646464;fill-opacity:1"
         d="m 814.10178,621.50079 c 0,2.10486 -0.2109,3.56254 -0.6327,4.37305 -0.42387,0.81052 -1.23024,1.45769 -2.42121,1.93945 -0.96558,0.38044 -2.00974,0.58721 -3.1304,0.62236 l -0.31221,-1.19096 c 1.13926,-0.15507 1.94151,-0.31015 2.40673,-0.46522 0.91596,-0.31015 1.54452,-0.7857 1.88982,-1.42254 0.27706,-0.51897 0.41353,-1.50937 0.41353,-2.97533 l 0,-0.49209 c -1.29228,0.58721 -2.64658,0.87874 -4.06291,0.87874 -0.93044,0 -1.75129,-0.29153 -2.45842,-0.87874 -0.79398,-0.63891 -1.19096,-1.44942 -1.19096,-2.43155 l 0,-7.86529 1.88982,-0.64717 0,7.91698 c 0,0.84567 0.27293,1.49697 0.81878,1.95392 0.54586,0.45695 1.25299,0.67612 2.11933,0.65958 0.86634,-0.0186 1.79471,-0.35357 2.78097,-1.00901 l 0,-9.23614 1.88983,0 0,10.26996 z" />
      <path
         inkscape:connector-curvature="0"
         id="path50-1"
         style="fill:#646464;fill-opacity:1"
         d="m 821.47911,622.71656 c -0.22537,0.0186 -0.43214,0.0269 -0.62236,0.0269 -1.06897,0 -1.90223,-0.25432 -2.49771,-0.76503 -0.59341,-0.5107 -0.89115,-1.21577 -0.89115,-2.11519 l 0,-7.4435 -1.29434,0 0,-1.18889 1.29434,0 0,-3.15728 1.88776,-0.67199 0,3.82927 2.12346,0 0,1.18889 -2.12346,0 0,7.39181 c 0,0.7092 0.19022,1.21163 0.57066,1.50524 0.32669,0.24191 0.84567,0.38045 1.5528,0.4156 l 0,0.98419 z" />
      <path
         inkscape:connector-curvature="0"
         id="path52-7"
         style="fill:#646464;fill-opacity:1"
         d="m 832.92142,622.56149 -1.88982,0 0,-7.29463 c 0,-0.74228 -0.17369,-1.38118 -0.51898,-1.91463 -0.39905,-0.60375 -0.95318,-0.90563 -1.66445,-0.90563 -0.86634,0 -1.94978,0.45695 -3.25032,1.37085 l 0,8.74404 -1.88983,0 0,-17.43639 1.88983,-0.59548 0,7.94179 c 1.2075,-0.87874 2.52665,-1.31915 3.95952,-1.31915 1.00074,0 1.81125,0.33703 2.43154,1.00901 0.62236,0.67198 0.93251,1.50937 0.93251,2.51011 l 0,7.89011 0,0 z" />
      <path
         inkscape:connector-curvature="0"
         id="path54-1"
         style="fill:#646464;fill-opacity:1"
         d="m 842.966,616.67699 c 0,-1.18682 -0.22537,-2.16688 -0.67405,-2.94225 -0.53344,-0.94491 -1.36257,-1.44321 -2.48323,-1.4949 -2.07177,0.11992 -3.10559,1.60449 -3.10559,4.44956 0,1.30468 0.21503,2.39432 0.64924,3.26893 0.55412,1.11446 1.38532,1.66445 2.49357,1.64584 2.08004,-0.0165 3.12006,-1.65824 3.12006,-4.92718 z m 2.06971,0.0124 c 0,1.68926 -0.43213,3.09525 -1.29434,4.21798 -0.94904,1.25712 -2.25993,1.88775 -3.93265,1.88775 -1.65824,0 -2.95052,-0.63063 -3.88302,-1.88775 -0.84567,-1.12273 -1.26747,-2.52872 -1.26747,-4.21798 0,-1.58795 0.45695,-2.92364 1.37085,-4.01122 0.96559,-1.15374 2.23512,-1.73268 3.80445,-1.73268 1.56934,0 2.84714,0.57894 3.83134,1.73268 0.91389,1.08758 1.37084,2.42327 1.37084,4.01122 z" />
      <path
         inkscape:connector-curvature="0"
         id="path56-1"
         style="fill:#646464;fill-opacity:1"
         d="m 855.87013,622.56149 -1.88982,0 0,-7.70816 c 0,-0.84566 -0.25432,-1.50524 -0.76295,-1.9808 -0.50864,-0.47348 -1.18683,-0.70299 -2.03249,-0.68438 -0.89736,0.0165 -1.75129,0.31014 -2.56181,0.87874 l 0,9.4946 -1.88982,0 0,-9.72824 c 1.08758,-0.7919 2.08832,-1.30881 3.00221,-1.55073 0.86221,-0.22537 1.6231,-0.33702 2.27854,-0.33702 0.44868,0 0.87048,0.0434 1.26746,0.13026 0.74229,0.17161 1.34603,0.49003 1.81125,0.95732 0.51898,0.5169 0.77743,1.1372 0.77743,1.86294 l 0,8.66547 z" />
      <path
         inkscape:connector-curvature="0"
         id="path1948-5"
         style="fill:#4d4d4d;fill-opacity:1"
         d="m 774.05298,605.19492 c -0.97232,0.005 -1.90087,0.0874 -2.71789,0.23202 -2.40686,0.42521 -2.84386,1.31522 -2.84386,2.95654 l 0,2.1677 5.68771,0 0,0.72256 -5.68771,0 -2.13454,0 c -1.65301,0 -3.10042,0.99355 -3.55316,2.88362 -0.52222,2.16647 -0.54539,3.51838 0,5.78051 0.4043,1.68385 1.36983,2.88363 3.02284,2.88363 l 1.95556,0 0,-2.59858 c 0,-1.87732 1.6243,-3.53327 3.55316,-3.53327 l 5.68107,0 c 1.58141,0 2.84385,-1.30208 2.84385,-2.89025 l 0,-5.41592 c 0,-1.54139 -1.30035,-2.69929 -2.84385,-2.95654 -0.97706,-0.16264 -1.99085,-0.23653 -2.96318,-0.23202 z m -3.07586,1.74344 c 0.5875,0 1.06727,0.48761 1.06727,1.08716 0,0.59742 -0.47977,1.08053 -1.06727,1.08053 -0.58961,0 -1.06728,-0.48311 -1.06728,-1.08053 0,-0.59955 0.47767,-1.08716 1.06728,-1.08716 z" />
      <path
         inkscape:connector-curvature="0"
         id="path1950-2"
         style="fill:#999999;fill-opacity:1"
         d="m 780.56932,611.27374 0,2.52566 c 0,1.95811 -1.6601,3.60619 -3.55316,3.60619 l -5.68107,0 c -1.55615,0 -2.84386,1.33184 -2.84386,2.89025 l 0,5.41591 c 0,1.5414 1.34036,2.44804 2.84386,2.89026 1.8004,0.52939 3.5269,0.62506 5.68107,0 1.4319,-0.41458 2.84385,-1.24893 2.84385,-2.89026 l 0,-2.16769 -5.68107,0 0,-0.72256 5.68107,0 2.84385,0 c 1.65301,0 2.26898,-1.15301 2.84385,-2.88363 0.59382,-1.78164 0.56855,-3.49498 0,-5.78051 -0.40851,-1.64557 -1.18874,-2.88362 -2.84385,-2.88362 l -2.13454,0 z m -3.19519,13.71545 c 0.5896,0 1.06727,0.48311 1.06727,1.08053 0,0.59955 -0.47767,1.08716 -1.06727,1.08716 -0.58751,0 -1.06728,-0.48761 -1.06728,-1.08716 0,-0.59742 0.47977,-1.08053 1.06728,-1.08053 z" />
      <path
         inkscape:connector-curvature="0"
         id="text3004-7"
         style="font-size:15.16445827px;font-style:normal;font-weight:normal;line-height:125%;fill:#646464;fill-opacity:1;stroke:none;font-family:Bitstream Vera Sans"
         d="m 859.55026,609.54598 0.33134,0 0,-2.07806 0.7849,0 0,-0.24769 -1.90114,0 0,0.24769 0.7849,0 0,2.07806 m 1.41003,0 0.28308,0 0,-1.89792 0.61441,1.89769 0.31516,0 0.64024,-1.89125 0,1.89148 0.30881,0 0,-2.32575 -0.40854,0 -0.69966,1.99249 -0.59671,-1.99249 -0.45679,0 0,2.32575" />
      <path
         inkscape:connector-curvature="0"
         id="path1894-6"
         style="opacity:0.44382019;fill:url(#radialGradient3156);fill-opacity:1;fill-rule:nonzero;stroke:none"
         d="m 781.86546,632.28374 a 7.621994,1.4779675 0 0 1 -15.24399,0 7.621994,1.4779675 0 1 1 15.24399,0 z" />
    </g>
  </g>
</svg>
