<?xml version="1.0" encoding="UTF-8" standalone="no"?>
<!-- Created with Inkscape (http://www.inkscape.org/) -->

<svg
   xmlns:dc="http://purl.org/dc/elements/1.1/"
   xmlns:cc="http://creativecommons.org/ns#"
   xmlns:rdf="http://www.w3.org/1999/02/22-rdf-syntax-ns#"
   xmlns:svg="http://www.w3.org/2000/svg"
   xmlns="http://www.w3.org/2000/svg"
   xmlns:sodipodi="http://sodipodi.sourceforge.net/DTD/sodipodi-0.dtd"
   xmlns:inkscape="http://www.inkscape.org/namespaces/inkscape"
   width="87.371223"
   height="22.83634"
   id="svg7696"
   version="1.1"
   inkscape:version="0.48.4 r9939"
   sodipodi:docname="crossbar_arch_frontends.svg">
  <defs
     id="defs7698" />
  <sodipodi:namedview
     id="base"
     pagecolor="#ffffff"
     bordercolor="#666666"
     borderopacity="1.0"
     inkscape:pageopacity="0.0"
     inkscape:pageshadow="2"
     inkscape:zoom="0.35"
     inkscape:cx="156.54275"
     inkscape:cy="331.41819"
     inkscape:document-units="px"
     inkscape:current-layer="layer1"
     showgrid="false"
     inkscape:window-width="505"
     inkscape:window-height="423"
     inkscape:window-x="1509"
     inkscape:window-y="582"
     inkscape:window-maximized="0"
     fit-margin-top="5"
     fit-margin-left="5"
     fit-margin-right="5"
     fit-margin-bottom="5" />
  <metadata
     id="metadata7701">
    <rdf:RDF>
      <cc:Work
         rdf:about="">
        <dc:format>image/svg+xml</dc:format>
        <dc:type
           rdf:resource="http://purl.org/dc/dcmitype/StillImage" />
        <dc:title></dc:title>
      </cc:Work>
    </rdf:RDF>
  </metadata>
  <g
     inkscape:label="Ebene 1"
     inkscape:groupmode="layer"
     id="layer1"
     transform="translate(-193.45725,-840.94403)">
    <g
       style="font-size:17.64349747px;font-style:normal;font-variant:normal;font-weight:normal;font-stretch:normal;text-align:start;line-height:125%;letter-spacing:0px;word-spacing:0px;writing-mode:lr-tb;text-anchor:start;fill:#808080;fill-opacity:1;stroke:none;font-family:Sans;-inkscape-font-specification:Sans"
       id="text5389-2-6-9-9-0-8">
      <path
         d="m 198.45725,858.57361 0,-12.62958 8.52023,0 0,1.4904 -6.84892,0 0,3.9112 5.92711,0 0,1.4904 -5.92711,0 0,5.73758 z"
         id="path7714"
         inkscape:connector-curvature="0" />
      <path
         d="m 208.94169,858.57361 0,-9.14912 1.39563,0 0,1.38701 c 0.35608,-0.64898 0.68489,-1.07686 0.98642,-1.28363 0.30152,-0.20675 0.63319,-0.31013 0.99503,-0.31014 0.52264,1e-5 1.05389,0.16657 1.59377,0.49967 l -0.53413,1.4387 c -0.37906,-0.22398 -0.75812,-0.33597 -1.13718,-0.33598 -0.33886,10e-6 -0.64325,0.10195 -0.91319,0.30583 -0.26993,0.2039 -0.46234,0.48675 -0.5772,0.84858 -0.1723,0.55136 -0.25845,1.15441 -0.25845,1.80914 l 0,4.78994 z"
         id="path7716"
         inkscape:connector-curvature="0" />
      <path
         d="m 214.27437,853.99905 c 0,-1.69428 0.47095,-2.94919 1.41286,-3.76475 0.78683,-0.6777 1.74597,-1.01656 2.87741,-1.01657 1.25778,1e-5 2.28583,0.41209 3.08416,1.23625 0.79832,0.82418 1.19748,1.96279 1.19749,3.41584 -1e-5,1.17739 -0.17662,2.1035 -0.52983,2.77834 -0.35322,0.67484 -0.86725,1.19892 -1.54208,1.57223 -0.67485,0.37332 -1.41143,0.55998 -2.20974,0.55998 -1.28077,0 -2.316,-0.41065 -3.10571,-1.23195 -0.78971,-0.82129 -1.18456,-2.00441 -1.18456,-3.54937 z m 1.59378,0 c -1e-5,1.17164 0.25557,2.04893 0.76673,2.63188 0.51115,0.58295 1.1544,0.87442 1.92976,0.87442 0.7696,0 1.40998,-0.29291 1.92114,-0.87873 0.51115,-0.58582 0.76673,-1.4789 0.76673,-2.67926 0,-1.13143 -0.25702,-1.98862 -0.77104,-2.57157 -0.51403,-0.58294 -1.15298,-0.87442 -1.91683,-0.87443 -0.77536,10e-6 -1.41861,0.29005 -1.92976,0.87012 -0.51116,0.58008 -0.76674,1.45594 -0.76673,2.62757 z"
         id="path7718"
         inkscape:connector-curvature="0" />
      <path
         d="m 224.67266,858.57361 0,-9.14912 1.39563,0 0,1.30086 c 0.67197,-1.00507 1.64259,-1.50761 2.91187,-1.50762 0.55135,1e-5 1.0582,0.0991 1.52054,0.29722 0.46233,0.19815 0.80837,0.45804 1.03811,0.77965 0.22972,0.32164 0.39054,0.70357 0.48244,1.1458 0.0574,0.28717 0.0861,0.78971 0.0862,1.50762 l 0,5.62559 -1.5507,0 0,-5.56528 c -1e-5,-0.63176 -0.0603,-1.10415 -0.18091,-1.41717 -0.12062,-0.313 -0.33456,-0.56284 -0.64182,-0.7495 -0.30727,-0.18665 -0.66767,-0.27998 -1.08118,-0.27999 -0.66049,10e-6 -1.23051,0.20964 -1.71008,0.62889 -0.47957,0.41927 -0.71935,1.21472 -0.71935,2.38635 l 0,4.9967 z"
         id="path7720"
         inkscape:connector-curvature="0" />
      <path
         d="m 237.87944,857.1866 0.22399,1.36978 c -0.4365,0.0919 -0.82704,0.13784 -1.17164,0.13784 -0.56285,0 -0.99934,-0.089 -1.30948,-0.26707 -0.31014,-0.17804 -0.52838,-0.41208 -0.65474,-0.70212 -0.12635,-0.29003 -0.18953,-0.90026 -0.18953,-1.83068 l 0,-5.26376 -1.13717,0 0,-1.2061 1.13717,0 0,-2.26574 1.54209,-0.93042 0,3.19616 1.55931,0 0,1.2061 -1.55931,0 0,5.34991 c -1e-5,0.44223 0.0273,0.72653 0.0818,0.85288 0.0546,0.12636 0.14358,0.22686 0.26706,0.30153 0.12348,0.0747 0.30009,0.11199 0.52983,0.11199 0.17229,0 0.39915,-0.0201 0.68058,-0.0603 z"
         id="path7722"
         inkscape:connector-curvature="0" />
      <path
         d="m 245.65016,855.62728 1.60239,0.19815 c -0.25272,0.93616 -0.7208,1.66269 -1.40424,2.17959 -0.68347,0.5169 -1.55645,0.77535 -2.61896,0.77535 -1.3382,0 -2.39928,-0.41209 -3.18324,-1.23625 -0.78396,-0.82417 -1.17595,-1.98001 -1.17594,-3.46754 -1e-5,-1.5392 0.39628,-2.73381 1.18886,-3.58383 0.79258,-0.85 1.82063,-1.27501 3.08417,-1.27502 1.22332,1e-5 2.22266,0.4164 2.99802,1.24917 0.77534,0.83279 1.16301,2.00443 1.16302,3.51492 -1e-5,0.0919 -0.003,0.22974 -0.009,0.41352 l -6.82307,0 c 0.0574,1.00508 0.34173,1.77469 0.85289,2.30882 0.51115,0.53413 1.14866,0.80119 1.91252,0.80119 0.56859,0 1.0539,-0.14933 1.45594,-0.44798 0.40202,-0.29865 0.72078,-0.77535 0.95626,-1.43009 z m -5.09146,-2.50696 5.10869,0 c -0.0689,-0.7696 -0.2642,-1.3468 -0.58582,-1.73161 -0.49393,-0.5973 -1.13431,-0.89595 -1.92114,-0.89596 -0.71218,10e-6 -1.31092,0.23835 -1.79623,0.71504 -0.48531,0.47671 -0.75381,1.11421 -0.8055,1.91253 z"
         id="path7724"
         inkscape:connector-curvature="0" />
      <path
         d="m 249.20815,858.57361 0,-9.14912 1.39563,0 0,1.30086 c 0.67197,-1.00507 1.64259,-1.50761 2.91187,-1.50762 0.55135,1e-5 1.0582,0.0991 1.52054,0.29722 0.46233,0.19815 0.80837,0.45804 1.03811,0.77965 0.22972,0.32164 0.39054,0.70357 0.48244,1.1458 0.0574,0.28717 0.0861,0.78971 0.0862,1.50762 l 0,5.62559 -1.5507,0 0,-5.56528 c -1e-5,-0.63176 -0.0603,-1.10415 -0.18092,-1.41717 -0.12061,-0.313 -0.33455,-0.56284 -0.64181,-0.7495 -0.30728,-0.18665 -0.66767,-0.27998 -1.08118,-0.27999 -0.66049,10e-6 -1.23052,0.20964 -1.71008,0.62889 -0.47957,0.41927 -0.71935,1.21472 -0.71935,2.38635 l 0,4.9967 z"
         id="path7726"
         inkscape:connector-curvature="0" />
      <path
         d="m 264.96497,858.57361 0,-1.15441 c -0.58008,0.90745 -1.43297,1.36117 -2.55865,1.36117 -0.72941,0 -1.39994,-0.20102 -2.0116,-0.60305 -0.61167,-0.40203 -1.08549,-0.96344 -1.42148,-1.68423 -0.33598,-0.72079 -0.50397,-1.54926 -0.50397,-2.48543 0,-0.91318 0.1522,-1.74165 0.45659,-2.48542 0.3044,-0.74375 0.76099,-1.31378 1.36979,-1.71008 0.60878,-0.39628 1.28937,-0.59442 2.04175,-0.59443 0.55135,1e-5 1.04241,0.11631 1.47316,0.34891 0.43074,0.23261 0.78109,0.53557 1.05103,0.90888 l 0,-4.53149 1.54208,0 0,12.62958 z m -4.90193,-4.56595 c 0,1.17165 0.24696,2.0475 0.74089,2.62758 0.49392,0.58007 1.07687,0.87011 1.74884,0.87011 0.67771,0 1.25348,-0.27711 1.72731,-0.83135 0.47382,-0.55423 0.71073,-1.39993 0.71073,-2.53711 0,-1.25204 -0.24122,-2.17097 -0.72365,-2.7568 -0.48245,-0.58581 -1.07688,-0.87872 -1.78331,-0.87873 -0.6892,10e-6 -1.26497,0.28143 -1.7273,0.84427 -0.46234,0.56286 -0.69351,1.4502 -0.69351,2.66203 z"
         id="path7728"
         inkscape:connector-curvature="0" />
      <path
         d="m 268.23005,855.84266 1.53346,-0.24122 c 0.0861,0.61454 0.32594,1.08549 0.71936,1.41286 0.39341,0.32737 0.94333,0.49105 1.64977,0.49105 0.71216,0 1.24055,-0.14502 1.58515,-0.43506 0.3446,-0.29003 0.5169,-0.63033 0.5169,-1.02087 0,-0.35034 -0.1522,-0.62602 -0.45659,-0.82704 -0.21251,-0.13784 -0.7409,-0.31301 -1.58516,-0.52552 -1.13718,-0.28716 -1.92545,-0.53556 -2.36481,-0.74519 -0.43937,-0.20963 -0.77248,-0.49967 -0.99934,-0.87012 -0.22686,-0.37044 -0.3403,-0.77965 -0.34029,-1.22763 -10e-6,-0.40777 0.0933,-0.7854 0.27998,-1.13287 0.18666,-0.34747 0.4408,-0.63607 0.76243,-0.86581 0.24122,-0.17803 0.57002,-0.3288 0.98642,-0.45229 0.41638,-0.12347 0.86293,-0.18521 1.33963,-0.18522 0.71791,1e-5 1.34824,0.10339 1.89099,0.31014 0.54273,0.20677 0.94333,0.48676 1.20179,0.83996 0.25844,0.35322 0.43648,0.82561 0.53413,1.41717 l -1.51624,0.20676 c -0.0689,-0.47095 -0.26851,-0.83852 -0.59874,-1.10272 -0.33025,-0.26419 -0.79689,-0.39628 -1.39994,-0.39629 -0.71217,10e-6 -1.22046,0.11774 -1.52485,0.35321 -0.3044,0.23549 -0.4566,0.51117 -0.4566,0.82704 0,0.20103 0.0632,0.38194 0.18953,0.54275 0.12635,0.16656 0.3245,0.3044 0.59444,0.41352 0.15506,0.0574 0.61166,0.18953 1.36978,0.39629 1.09697,0.29291 1.86227,0.53269 2.2959,0.71935 0.43361,0.18666 0.7739,0.45803 1.02087,0.81411 0.24696,0.35609 0.37044,0.79833 0.37045,1.32671 -10e-6,0.5169 -0.15077,1.00365 -0.45229,1.46024 -0.30153,0.4566 -0.73659,0.80981 -1.30517,1.05965 -0.5686,0.24983 -1.21185,0.37475 -1.92976,0.37475 -1.18887,0 -2.09488,-0.24696 -2.71803,-0.74089 -0.62315,-0.49393 -1.02087,-1.2262 -1.19317,-2.19682 z"
         id="path7730"
         inkscape:connector-curvature="0" />
    </g>
  </g>
</svg>
