<?xml version="1.0" encoding="UTF-8" standalone="no"?>
<!-- Created with Inkscape (http://www.inkscape.org/) -->

<svg
   xmlns:dc="http://purl.org/dc/elements/1.1/"
   xmlns:cc="http://creativecommons.org/ns#"
   xmlns:rdf="http://www.w3.org/1999/02/22-rdf-syntax-ns#"
   xmlns:svg="http://www.w3.org/2000/svg"
   xmlns="http://www.w3.org/2000/svg"
   xmlns:sodipodi="http://sodipodi.sourceforge.net/DTD/sodipodi-0.dtd"
   xmlns:inkscape="http://www.inkscape.org/namespaces/inkscape"
   width="132.32999"
   height="132.83507"
   id="svg2"
   version="1.1"
   inkscape:version="0.48.4 r9939"
   sodipodi:docname="github_path.svg"
   inkscape:export-filename="C:\Users\oberstet\scm\svn\oberstet\projects\tavendo_visuals\rotor\github.png"
   inkscape:export-xdpi="90"
   inkscape:export-ydpi="90">
  <defs
     id="defs4">
    <filter
       id="filter3001"
       inkscape:label="Drop Shadow"
       style="color-interpolation-filters:sRGB;">
      <feFlood
         id="feFlood3003"
         flood-opacity="0.4"
         flood-color="rgb(0,0,0)"
         result="flood" />
      <feComposite
         id="feComposite3005"
         in2="SourceGraphic"
         in="flood"
         operator="in"
         result="composite1" />
      <feGaussianBlur
         id="feGaussianBlur3007"
         stdDeviation="3"
         result="blur"
         in="composite" />
      <feOffset
         id="feOffset3009"
         dx="0"
         dy="0"
         result="offset" />
      <feComposite
         id="feComposite3011"
         in2="offset"
         in="SourceGraphic"
         operator="over"
         result="composite2" />
    </filter>
  </defs>
  <sodipodi:namedview
     id="base"
     pagecolor="#ffffff"
     bordercolor="#666666"
     borderopacity="1.0"
     inkscape:pageopacity="0.0"
     inkscape:pageshadow="2"
     inkscape:zoom="2.8"
     inkscape:cx="-120.5518"
     inkscape:cy="39.465959"
     inkscape:document-units="px"
     inkscape:current-layer="layer1"
     showgrid="false"
     fit-margin-top="0"
     fit-margin-left="0"
     fit-margin-right="0"
     fit-margin-bottom="0"
     inkscape:window-width="1858"
     inkscape:window-height="1178"
     inkscape:window-x="1016"
     inkscape:window-y="-8"
     inkscape:window-maximized="1" />
  <metadata
     id="metadata7">
    <rdf:RDF>
      <cc:Work
         rdf:about="">
        <dc:format>image/svg+xml</dc:format>
        <dc:type
           rdf:resource="http://purl.org/dc/dcmitype/StillImage" />
        <dc:title />
      </cc:Work>
    </rdf:RDF>
  </metadata>
  <g
     inkscape:label="Ebene 1"
     inkscape:groupmode="layer"
     id="layer1"
     transform="translate(128.79445,121.43508)">
    <path
       style="fill:#ffde00;fill-opacity:1;stroke:none;stroke-opacity:1"
       d="m -128.79445,-121.43508 40.911179,0 91.4188049,91.41881 0,41.416254"
       id="path2996"
       inkscape:connector-curvature="0" />
    <g
       transform="matrix(0.70710678,0.70710678,-0.70710678,0.70710678,0,0)"
       style="font-size:12.82513523px;font-style:normal;font-variant:normal;font-weight:bold;font-stretch:normal;text-align:start;line-height:125%;letter-spacing:0px;word-spacing:0px;writing-mode:lr-tb;text-anchor:start;opacity:0.5;fill:#000000;fill-opacity:1;stroke:none;font-family:Sans;-inkscape-font-specification:Sans Bold"
       id="text3766">
      <path
         d="m -133.08025,-4.6922841 0,-9.1804919 6.29359,0 0,1.553043 -4.43995,0 0,2.173009 3.83251,0 0,1.5530438 -3.83251,0 0,3.9013961 z"
         style=""
         id="path3760" />
      <path
         d="m -125.67198,-8.1114852 c 0,-0.5844748 0.14404,-1.1501662 0.4321,-1.697076 0.28806,-0.5468998 0.69616,-0.9643838 1.22428,-1.2524548 0.52811,-0.288058 1.11781,-0.43209 1.76909,-0.432097 1.00613,7e-6 1.83066,0.326689 2.4736,0.980046 0.64291,0.6533691 0.96438,1.4789446 0.96439,2.4767291 -1e-5,1.0061409 -0.32461,1.840066 -0.97379,2.5017781 -0.64919,0.6617137 -1.46642,0.9925701 -2.45168,0.9925702 -0.60953,-1e-7 -1.19088,-0.13777 -1.74404,-0.41331 -0.55317,-0.2755395 -0.97379,-0.6794557 -1.26185,-1.2117498 -0.28806,-0.5322912 -0.4321,-1.1804358 -0.4321,-1.9444358 z m 1.80354,0.093934 c 0,0.6596288 0.15655,1.1647849 0.46967,1.5154701 0.31311,0.3506887 0.69928,0.5260322 1.15852,0.5260309 0.45923,1.3e-6 0.84436,-0.1753422 1.15539,-0.5260309 0.31102,-0.3506852 0.46653,-0.8600162 0.46654,-1.5279946 -1e-5,-0.6512725 -0.15552,-1.1522538 -0.46654,-1.5029456 -0.31103,-0.3506821 -0.69616,-0.5260258 -1.15539,-0.5260308 -0.45924,5e-6 -0.84541,0.1753487 -1.15852,0.5260308 -0.31312,0.3506918 -0.46967,0.855848 -0.46967,1.5154701 z"
         style=""
         id="path3762" />
      <path
         d="m -115.74001,-4.6922841 -1.7597,0 0,-6.6505339 1.63445,0 0,0.945603 c 0.27972,-0.446703 0.53125,-0.741029 0.75461,-0.88298 0.22335,-0.141938 0.47697,-0.212911 0.76086,-0.212918 0.40078,7e-6 0.78696,0.110641 1.15852,0.331901 l -0.54481,1.5342567 c -0.29642,-0.1920379 -0.57196,-0.2880593 -0.82662,-0.2880645 -0.24632,5.2e-6 -0.45507,0.067846 -0.62623,0.2035238 -0.17117,0.1356875 -0.30581,0.3809596 -0.40392,0.7358171 -0.0981,0.3548661 -0.14716,1.0979884 -0.14716,2.2293692 z"
         style=""
         id="path3764" />
      <path
         d="m -112.50242,-4.6922841 0,-9.1804919 1.7597,0 0,4.872048 2.06029,-2.34209 2.16675,0 -2.27321,2.4297618 2.43603,4.2207721 -1.89747,0 -1.67203,-2.9871043 -0.82036,0.8579315 0,2.1291728 z"
         style=""
         id="path3766" />
      <path
         d="m -97.366502,-4.6922841 0,-0.9957014 c -0.242146,0.3548628 -0.560478,0.6345773 -0.954996,0.8391446 -0.394528,0.2045675 -0.810968,0.3068512 -1.249324,0.3068513 -0.446708,-1e-7 -0.847498,-0.098109 -1.202358,-0.2943268 -0.35486,-0.1962175 -0.61161,-0.4717573 -0.77026,-0.82662 -0.15864,-0.3548608 -0.23797,-0.8454051 -0.23796,-1.4716342 l 0,-4.2082474 1.75969,0 0,3.0559892 c 0,0.9351687 0.03236,1.5081661 0.09707,1.7189939 0.06471,0.2108315 0.182646,0.3778253 0.353818,0.5009819 0.171166,0.1231592 0.388257,0.1847382 0.651276,0.184737 0.300586,1.2e-6 0.569863,-0.082452 0.807834,-0.2473598 0.237961,-0.1649049 0.40078,-0.3694723 0.488457,-0.6137027 0.08767,-0.2442264 0.131503,-0.8422729 0.131508,-1.7941413 l 0,-2.8054982 1.759698,0 0,6.6505339 z"
         style=""
         id="path3768" />
      <path
         d="m -94.523431,-6.5897528 1.765961,-0.2692778 c 0.07514,0.3423394 0.227527,0.6022235 0.457146,0.779653 0.229614,0.1774323 0.551077,0.2661477 0.96439,0.2661466 0.455054,1.1e-6 0.797392,-0.083496 1.027012,-0.2504909 0.154465,-0.1168943 0.2317,-0.273451 0.231705,-0.4696705 -5e-6,-0.1335932 -0.04175,-0.2442266 -0.125246,-0.3319005 -0.08768,-0.083495 -0.283894,-0.1607293 -0.588654,-0.2317041 -1.419451,-0.3131109 -2.31913,-0.5990877 -2.699039,-0.8579314 -0.526032,-0.3590333 -0.789047,-0.8579273 -0.789047,-1.4966832 0,-0.5761234 0.227529,-1.0604054 0.682588,-1.4528474 0.455057,-0.392429 1.160606,-0.588647 2.116648,-0.588654 0.910113,7e-6 1.586438,0.148214 2.028977,0.444622 0.442528,0.29642 0.747292,0.734779 0.914292,1.3150771 l -1.659503,0.3068514 c -0.07098,-0.2588357 -0.205615,-0.4571408 -0.403916,-0.5949155 -0.19831,-0.137765 -0.481155,-0.20665 -0.848538,-0.206655 -0.463411,5e-6 -0.795311,0.06471 -0.995702,0.19413 -0.133597,0.091852 -0.200395,0.210835 -0.200392,0.3569495 -3e-6,0.1252504 0.05845,0.2317089 0.175343,0.319376 0.158642,0.1169003 0.70659,0.2818066 1.643847,0.4947195 0.937249,0.2129213 1.591655,0.4738491 1.963223,0.7827842 0.36738,0.3131167 0.551073,0.7493879 0.55108,1.308815 -7e-6,0.6095294 -0.254672,1.1334724 -0.763998,1.5718306 -0.509336,0.4383592 -1.262896,0.6575385 -2.26068,0.6575386 -0.905945,-1e-7 -1.622975,-0.1836933 -2.151091,-0.55108 -0.528119,-0.3673859 -0.873588,-0.8662798 -1.036406,-1.4966832 z"
         style=""
         id="path3770" />
      <path
         d="m -83.614549,-8.1114852 c -10e-7,-0.5844748 0.144031,-1.1501662 0.432097,-1.697076 0.288063,-0.5468998 0.696154,-0.9643838 1.224274,-1.2524548 0.528116,-0.288058 1.117812,-0.43209 1.769092,-0.432097 1.006134,7e-6 1.830666,0.326689 2.473598,0.980046 0.64292,0.6533691 0.964383,1.4789446 0.96439,2.4767291 -7e-6,1.0061409 -0.324601,1.840066 -0.973783,2.5017781 -0.649195,0.6617137 -1.466421,0.9925701 -2.45168,0.9925702 -0.609532,-1e-7 -1.190879,-0.13777 -1.744043,-0.41331 -0.553169,-0.2755395 -0.973785,-0.6794557 -1.261848,-1.2117498 -0.288066,-0.5322912 -0.432098,-1.1804358 -0.432097,-1.9444358 z m 1.803534,0.093934 c -2e-6,0.6596288 0.156555,1.1647849 0.469671,1.5154701 0.31311,0.3506887 0.699284,0.5260322 1.15852,0.5260309 0.459229,1.3e-6 0.844359,-0.1753422 1.15539,-0.5260309 0.311021,-0.3506852 0.466534,-0.8600162 0.466539,-1.5279946 -5e-6,-0.6512725 -0.155518,-1.1522538 -0.466539,-1.5029456 -0.311031,-0.3506821 -0.696161,-0.5260258 -1.15539,-0.5260308 -0.459236,5e-6 -0.84541,0.1753487 -1.15852,0.5260308 -0.313116,0.3506918 -0.469673,0.855848 -0.469671,1.5154701 z"
         style=""
         id="path3772" />
      <path
         d="m -69.317779,-4.6922841 -1.759699,0 0,-3.394152 c -5e-6,-0.7180699 -0.03758,-1.1825213 -0.112721,-1.3933558 -0.07515,-0.2108248 -0.197266,-0.3746875 -0.366343,-0.4915884 -0.169086,-0.1168907 -0.37261,-0.1753377 -0.610572,-0.1753437 -0.304767,6e-6 -0.57822,0.0835 -0.820357,0.250491 -0.242145,0.166999 -0.408095,0.3882657 -0.497851,0.6638009 -0.08976,0.2755443 -0.134642,0.7848753 -0.134639,1.5279946 l 0,3.0121534 -1.759699,0 0,-6.6505339 1.634454,0 0,0.976914 c 0.580301,-0.751466 1.310898,-1.127202 2.191795,-1.127209 0.388256,7e-6 0.743118,0.06994 1.064587,0.209786 0.321457,0.139864 0.564642,0.318339 0.729554,0.535425 0.1649,0.217098 0.279709,0.463414 0.344425,0.738948 0.0647,0.2755451 0.09706,0.6700679 0.09707,1.1835697 z"
         style=""
         id="path3774" />
      <path
         d="m -59.686401,-8.0676493 0,-1.5467814 3.99533,0 0,3.6571674 c -0.38827,0.3757373 -0.95083,0.7065937 -1.687683,0.9925703 -0.736867,0.2859771 -1.483121,0.4289656 -2.238762,0.4289657 -0.96022,-1e-7 -1.797276,-0.2014364 -2.511172,-0.6043093 -0.713901,-0.4028721 -1.250369,-0.9790006 -1.609404,-1.7283874 -0.359038,-0.7493824 -0.538556,-1.5645208 -0.538556,-2.4454176 0,-0.9560344 0.200392,-1.8056154 0.601179,-2.5487454 0.400783,-0.743115 0.987349,-1.312981 1.759698,-1.7096 0.58865,-0.304755 1.321336,-0.457137 2.198058,-0.457146 1.139728,9e-6 2.030013,0.239019 2.67086,0.71703 0.64083,0.478028 1.053096,1.138697 1.236799,1.982009 l -1.841109,0.344425 c -0.129427,-0.450876 -0.372612,-0.806782 -0.729554,-1.067717 -0.356956,-0.260921 -0.802621,-0.391384 -1.336996,-0.391392 -0.809925,8e-6 -1.453895,0.256761 -1.931911,0.770259 -0.478023,0.513513 -0.717033,1.275422 -0.71703,2.2857301 -3e-6,1.0896391 0.242138,1.9068649 0.726423,2.4516799 0.484279,0.5448195 1.118855,0.8172281 1.903731,0.8172266 0.388256,1.5e-6 0.77756,-0.076189 1.167914,-0.2285729 0.390342,-0.1523802 0.725373,-0.3371171 1.005095,-0.5542112 l 0,-1.1647828 z"
         style=""
         id="path3776" />
      <path
         d="m -54.00026,-12.244585 0,-1.628191 1.759698,0 0,1.628191 z m 0,7.5523009 0,-6.6505339 1.759698,0 0,6.6505339 z"
         style=""
         id="path3778" />
      <path
         d="m -47.393565,-11.342818 0,1.4027491 -1.202356,0 0,2.6802528 c -3e-6,0.5427324 0.01148,0.8589769 0.03444,0.9487344 0.02296,0.089761 0.07514,0.1638643 0.156557,0.2223107 0.08141,0.058449 0.180559,0.087673 0.297458,0.087672 0.162816,1.3e-6 0.398695,-0.056359 0.707637,-0.1690813 l 0.150295,1.3651755 c -0.409139,0.1753436 -0.872547,0.2630153 -1.390225,0.2630154 -0.317291,-1e-7 -0.603268,-0.053229 -0.857931,-0.1596879 -0.254668,-0.1064585 -0.441492,-0.2442284 -0.560474,-0.41331 -0.118984,-0.1690808 -0.201437,-0.3976536 -0.24736,-0.6857189 -0.03757,-0.2045663 -0.05636,-0.6178759 -0.05636,-1.2399301 l 0,-2.8994324 -0.807833,0 0,-1.4027491 0.807833,0 0,-1.32134 1.765961,-1.027012 0,2.348352 z"
         style=""
         id="path3780" />
      <path
         d="m -46.141111,-4.6922841 0,-9.1804919 1.853633,0 0,3.613331 3.632118,0 0,-3.613331 1.853633,0 0,9.1804919 -1.853633,0 0,-4.014117 -3.632118,0 0,4.014117 z"
         style=""
         id="path3782" />
      <path
         d="m -32.514403,-4.6922841 0,-0.9957014 c -0.242147,0.3548628 -0.560479,0.6345773 -0.954997,0.8391446 -0.394527,0.2045675 -0.810968,0.3068512 -1.249323,0.3068513 -0.446712,-1e-7 -0.847497,-0.098109 -1.202357,-0.2943268 -0.354864,-0.1962175 -0.611617,-0.4717573 -0.770259,-0.82662 -0.158646,-0.3548608 -0.237968,-0.8454051 -0.237967,-1.4716342 l 0,-4.2082474 1.759699,0 0,3.0559892 c -3e-6,0.9351687 0.03235,1.5081661 0.09707,1.7189939 0.06471,0.2108315 0.182647,0.3778253 0.353819,0.5009819 0.171165,0.1231592 0.388257,0.1847382 0.651276,0.184737 0.300585,1.2e-6 0.569862,-0.082452 0.807833,-0.2473598 0.237962,-0.1649049 0.400781,-0.3694723 0.488457,-0.6137027 0.08767,-0.2442264 0.131503,-0.8422729 0.131508,-1.7941413 l 0,-2.8054982 1.759699,0 0,6.6505339 z"
         style=""
         id="path3784" />
      <path
         d="m -29.126509,-4.6922841 0,-9.1804919 1.759698,0 0,3.30648 c 0.542728,-0.617871 1.185654,-0.92681 1.92878,-0.926817 0.809916,7e-6 1.479978,0.29329 2.01019,0.87985 0.530199,0.586571 0.795301,1.4288462 0.795309,2.5268269 -8e-6,1.1355611 -0.270329,2.010191 -0.810965,2.6238924 -0.540648,0.6137029 -1.197143,0.920554 -1.969484,0.9205541 -0.379916,-1e-7 -0.754608,-0.094978 -1.124078,-0.2849334 -0.369478,-0.1899553 -0.687809,-0.4707136 -0.954997,-0.8422757 l 0,0.9769146 z m 1.747174,-3.4692993 c -3e-6,0.6888528 0.108543,1.1981839 0.325638,1.5279946 0.304761,0.4675846 0.709721,0.7013759 1.214881,0.7013746 0.388256,1.3e-6 0.719113,-0.1659488 0.99257,-0.4978507 0.273447,-0.3318984 0.410174,-0.8547977 0.410179,-1.5686994 -5e-6,-0.7598184 -0.137775,-1.3077667 -0.41331,-1.6438467 -0.275545,-0.33607 -0.628319,-0.504107 -1.058324,-0.504113 -0.421663,6e-6 -0.77235,0.1638682 -1.052062,0.4915885 -0.279717,0.3277302 -0.419575,0.8255805 -0.419572,1.4935521 z"
         style=""
         id="path3786" />
    </g>
    <rect
       style="fill:none;fill-opacity:1;stroke:none"
       id="rect3004"
       width="133.0876"
       height="133.84521"
       x="-0.25253814"
       y="-0.25252914"
       transform="translate(-128.79445,-121.43508)"
       ry="14.285714" />
  </g>
</svg>
