<?xml version="1.0" encoding="UTF-8" standalone="no"?>
<!-- Created with Inkscape (http://www.inkscape.org/) -->

<svg
   xmlns:dc="http://purl.org/dc/elements/1.1/"
   xmlns:cc="http://creativecommons.org/ns#"
   xmlns:rdf="http://www.w3.org/1999/02/22-rdf-syntax-ns#"
   xmlns:svg="http://www.w3.org/2000/svg"
   xmlns="http://www.w3.org/2000/svg"
   xmlns:sodipodi="http://sodipodi.sourceforge.net/DTD/sodipodi-0.dtd"
   xmlns:inkscape="http://www.inkscape.org/namespaces/inkscape"
   width="458.40207"
   height="459.21121"
   id="svg3225"
   version="1.1"
   inkscape:version="0.48.4 r9939"
   sodipodi:docname="Neues Dokument 1">
  <defs
     id="defs3227">
    <filter
       color-interpolation-filters="sRGB"
       id="filter3405"
       inkscape:label="Drop Shadow">
      <feFlood
         id="feFlood3407"
         flood-opacity="0.5"
         flood-color="rgb(0,0,0)"
         result="flood" />
      <feComposite
         id="feComposite3409"
         in2="SourceGraphic"
         in="flood"
         operator="in"
         result="composite1" />
      <feGaussianBlur
         id="feGaussianBlur3411"
         stdDeviation="5"
         result="blur" />
      <feOffset
         id="feOffset3413"
         dx="0"
         dy="0"
         result="offset" />
      <feComposite
         id="feComposite3415"
         in2="offset"
         in="SourceGraphic"
         operator="over"
         result="composite2" />
    </filter>
  </defs>
  <sodipodi:namedview
     id="base"
     pagecolor="#ffffff"
     bordercolor="#666666"
     borderopacity="1.0"
     inkscape:pageopacity="0.0"
     inkscape:pageshadow="2"
     inkscape:zoom="1.4"
     inkscape:cx="106.6313"
     inkscape:cy="233.43256"
     inkscape:document-units="px"
     inkscape:current-layer="layer1"
     showgrid="false"
     fit-margin-top="10"
     fit-margin-left="10"
     fit-margin-right="10"
     fit-margin-bottom="10"
     inkscape:window-width="1858"
     inkscape:window-height="1178"
     inkscape:window-x="1016"
     inkscape:window-y="-8"
     inkscape:window-maximized="1" />
  <metadata
     id="metadata3230">
    <rdf:RDF>
      <cc:Work
         rdf:about="">
        <dc:format>image/svg+xml</dc:format>
        <dc:type
           rdf:resource="http://purl.org/dc/dcmitype/StillImage" />
        <dc:title></dc:title>
      </cc:Work>
    </rdf:RDF>
  </metadata>
  <g
     inkscape:label="Ebene 1"
     inkscape:groupmode="layer"
     id="layer1"
     transform="translate(-101.28543,-433.25934)">
    <path
       inkscape:connector-curvature="0"
       style="fill:none;stroke:#1a1a1a;stroke-width:1.15804005px;stroke-linecap:round;stroke-linejoin:round;stroke-opacity:1;stroke-dasharray:none"
       d="m 364.27264,595.90016 0,-26.9467 88.54553,0 0,-20.53294"
       id="path3116" />
    <path
       inkscape:connector-curvature="0"
       style="fill:#595959;fill-opacity:1;fill-rule:evenodd;stroke:none"
       d="m 252.38816,813.70078 c 7.43818,0 13.45108,-6.0129 13.45108,-13.45108 l 0,0 0,-45.07449 c 0,-7.43818 -6.0129,-13.49562 -13.45108,-13.49562 l -63.11318,0 c -7.43819,0 -13.45109,6.05744 -13.45109,13.49562 l 0,0 0,45.07449 c 0,7.43818 6.0129,13.45108 13.45109,13.45108 l 0,0 63.11318,0 z"
       id="path3118" />
    <path
       inkscape:connector-curvature="0"
       style="fill:none;stroke:#000000;stroke-width:2.04884028px;stroke-linecap:round;stroke-linejoin:round;stroke-opacity:1;stroke-dasharray:none"
       d="m 252.38816,813.70078 c 7.43818,0 13.45108,-6.0129 13.45108,-13.45108 l 0,0 0,-45.07449 c 0,-7.43818 -6.0129,-13.49562 -13.45108,-13.49562 l -63.11318,0 c -7.43819,0 -13.45109,6.05744 -13.45109,13.49562 l 0,0 0,45.07449 c 0,7.43818 6.0129,13.45108 13.45109,13.45108 l 0,0 63.11318,0 z"
       id="path3120" />
    <text
       xml:space="preserve"
       x="198.40565"
       y="774.72827"
       style="font-size:13.54016113px;font-style:normal;font-weight:bold;text-align:start;text-anchor:start;fill:#ffffff;font-family:Arial"
       id="text3122">Python</text>
    <text
       xml:space="preserve"
       x="179.87703"
       y="788.98108"
       style="font-size:11.40224075px;font-style:normal;font-weight:normal;text-align:start;text-anchor:start;fill:#ffffff;font-family:Arial"
       id="text3124">App Component</text>
    <path
       inkscape:connector-curvature="0"
       style="fill:#595959;fill-opacity:1;fill-rule:evenodd;stroke:none"
       d="m 395.89605,813.70078 c 7.43818,0 13.49561,-6.0129 13.49561,-13.45108 l 0,0 0,-45.07449 c 0,-7.43818 -6.05743,-13.49562 -13.49561,-13.49562 l -63.06865,0 c -7.43818,0 -13.45108,6.05744 -13.45108,13.49562 l 0,45.07449 c 0,7.43818 6.0129,13.45108 13.45108,13.45108 l 0,0 63.06865,0 z"
       id="path3126" />
    <path
       inkscape:connector-curvature="0"
       style="fill:none;stroke:#000000;stroke-width:2.04884028px;stroke-linecap:round;stroke-linejoin:round;stroke-opacity:1;stroke-dasharray:none"
       d="m 395.89605,813.70078 c 7.43818,0 13.49561,-6.0129 13.49561,-13.45108 l 0,0 0,-45.07449 c 0,-7.43818 -6.05743,-13.49562 -13.49561,-13.49562 l -63.06865,0 c -7.43818,0 -13.45108,6.05744 -13.45108,13.49562 l 0,45.07449 c 0,7.43818 6.0129,13.45108 13.45108,13.45108 l 0,0 63.06865,0 z"
       id="path3128" />
    <text
       xml:space="preserve"
       x="339.50839"
       y="774.72827"
       style="font-size:13.54016113px;font-style:normal;font-weight:bold;text-align:start;text-anchor:start;fill:#ffffff;font-family:Arial"
       id="text3130">NodeJS</text>
    <text
       xml:space="preserve"
       x="323.11771"
       y="788.98108"
       style="font-size:11.40224075px;font-style:normal;font-weight:normal;text-align:start;text-anchor:start;fill:#ffffff;font-family:Arial"
       id="text3132">App Component</text>
    <path
       inkscape:connector-curvature="0"
       style="fill:#595959;fill-opacity:1;fill-rule:evenodd;stroke:none"
       d="m 535.1726,813.70078 c 7.4382,0 13.4957,-6.0129 13.4957,-13.45108 l 0,0 0,-45.07449 c 0,-7.43818 -6.0575,-13.49562 -13.4957,-13.49562 l -63.06861,0 c -7.43818,0 -13.45108,6.05744 -13.45108,13.49562 l 0,45.07449 c 0,7.43818 6.0129,13.45108 13.45108,13.45108 l 0,0 63.06861,0 z"
       id="path3134" />
    <path
       inkscape:connector-curvature="0"
       style="fill:none;stroke:#000000;stroke-width:2.04884028px;stroke-linecap:round;stroke-linejoin:round;stroke-opacity:1;stroke-dasharray:none"
       d="m 535.1726,813.70078 c 7.4382,0 13.4957,-6.0129 13.4957,-13.45108 l 0,0 0,-45.07449 c 0,-7.43818 -6.0575,-13.49562 -13.4957,-13.49562 l -63.06861,0 c -7.43818,0 -13.45108,6.05744 -13.45108,13.49562 l 0,45.07449 c 0,7.43818 6.0129,13.45108 13.45108,13.45108 l 0,0 63.06861,0 z"
       id="path3136" />
    <text
       xml:space="preserve"
       x="491.30066"
       y="774.72827"
       style="font-size:13.54016113px;font-style:normal;font-weight:bold;text-align:start;text-anchor:start;fill:#ffffff;font-family:Arial"
       id="text3138">C</text>
    <text
       xml:space="preserve"
       x="500.56506"
       y="774.72827"
       style="font-size:13.54016113px;font-style:normal;font-weight:bold;text-align:start;text-anchor:start;fill:#ffffff;font-family:Arial"
       id="text3140">++</text>
    <text
       xml:space="preserve"
       x="462.08246"
       y="788.98108"
       style="font-size:11.40224075px;font-style:normal;font-weight:normal;text-align:start;text-anchor:start;fill:#ffffff;font-family:Arial"
       id="text3142">App Component</text>
    <path
       inkscape:connector-curvature="0"
       style="fill:none;stroke:#ffc000;stroke-width:2.04884028px;stroke-linecap:round;stroke-linejoin:round;stroke-opacity:1;stroke-dasharray:none"
       d="m 131.15027,752.54735 0,-235.21575"
       id="path3144" />
    <path
       inkscape:connector-curvature="0"
       style="fill:#ffc000;fill-opacity:1;fill-rule:evenodd;stroke:none"
       d="m 134.93617,751.61201 -3.7859,11.26863 -3.74136,-11.26863 7.52726,0 z"
       id="path3146" />
    <path
       inkscape:connector-curvature="0"
       style="fill:#ffc000;fill-opacity:1;fill-rule:evenodd;stroke:none"
       d="m 127.40891,518.31148 3.74136,-11.31316 3.7859,11.31316 -7.52726,0 z"
       id="path3148" />
    <path
       inkscape:connector-curvature="0"
       style="fill:#ffffff;fill-opacity:1;fill-rule:evenodd;stroke:none"
       d="m 111.28543,560.17909 0,149.56532 18.21686,0 0,-149.56532 -18.21686,0 z"
       id="path3150" />
    <text
       xml:space="preserve"
       x="-709.87805"
       y="125.00374"
       transform="matrix(0,-1,1,0,0,0)"
       style="font-size:14.9654417px;font-style:normal;font-weight:normal;text-align:start;text-anchor:start;fill:#262626;font-family:Arial"
       id="text3152">c</text>
    <text
       xml:space="preserve"
       x="-702.039"
       y="125.00374"
       transform="matrix(0,-1,1,0,0,0)"
       style="font-size:14.9654417px;font-style:normal;font-weight:normal;text-align:start;text-anchor:start;fill:#262626;font-family:Arial"
       id="text3154">r</text>
    <text
       xml:space="preserve"
       x="-697.05054"
       y="125.00374"
       transform="matrix(0,-1,1,0,0,0)"
       style="font-size:14.9654417px;font-style:normal;font-weight:normal;text-align:start;text-anchor:start;fill:#262626;font-family:Arial"
       id="text3156">o</text>
    <text
       xml:space="preserve"
       x="-688.49884"
       y="125.00374"
       transform="matrix(0,-1,1,0,0,0)"
       style="font-size:14.9654417px;font-style:normal;font-weight:normal;text-align:start;text-anchor:start;fill:#262626;font-family:Arial"
       id="text3158">s</text>
    <text
       xml:space="preserve"
       x="-680.65979"
       y="125.00374"
       transform="matrix(0,-1,1,0,0,0)"
       style="font-size:14.9654417px;font-style:normal;font-weight:normal;text-align:start;text-anchor:start;fill:#262626;font-family:Arial"
       id="text3160">s</text>
    <text
       xml:space="preserve"
       x="-673.53339"
       y="125.00374"
       transform="matrix(0,-1,1,0,0,0)"
       style="font-size:14.9654417px;font-style:normal;font-weight:normal;text-align:start;text-anchor:start;fill:#262626;font-family:Arial"
       id="text3162">-</text>
    <text
       xml:space="preserve"
       x="-668.54492"
       y="125.00374"
       transform="matrix(0,-1,1,0,0,0)"
       style="font-size:14.9654417px;font-style:normal;font-weight:normal;text-align:start;text-anchor:start;fill:#262626;font-family:Arial"
       id="text3164">l</text>
    <text
       xml:space="preserve"
       x="-664.98169"
       y="125.00374"
       transform="matrix(0,-1,1,0,0,0)"
       style="font-size:14.9654417px;font-style:normal;font-weight:normal;text-align:start;text-anchor:start;fill:#262626;font-family:Arial"
       id="text3166">a</text>
    <text
       xml:space="preserve"
       x="-656.43005"
       y="125.00374"
       transform="matrix(0,-1,1,0,0,0)"
       style="font-size:14.9654417px;font-style:normal;font-weight:normal;text-align:start;text-anchor:start;fill:#262626;font-family:Arial"
       id="text3168">y</text>
    <text
       xml:space="preserve"
       x="-648.591"
       y="125.00374"
       transform="matrix(0,-1,1,0,0,0)"
       style="font-size:14.9654417px;font-style:normal;font-weight:normal;text-align:start;text-anchor:start;fill:#262626;font-family:Arial"
       id="text3170">e</text>
    <text
       xml:space="preserve"
       x="-640.75195"
       y="125.00374"
       transform="matrix(0,-1,1,0,0,0)"
       style="font-size:14.9654417px;font-style:normal;font-weight:normal;text-align:start;text-anchor:start;fill:#262626;font-family:Arial"
       id="text3172">r</text>
    <text
       xml:space="preserve"
       x="-635.05084"
       y="125.00374"
       transform="matrix(0,-1,1,0,0,0)"
       style="font-size:14.9654417px;font-style:normal;font-weight:normal;text-align:start;text-anchor:start;fill:#262626;font-family:Arial"
       id="text3174"> </text>
    <text
       xml:space="preserve"
       x="-631.48761"
       y="125.00374"
       transform="matrix(0,-1,1,0,0,0)"
       style="font-size:14.9654417px;font-style:normal;font-weight:normal;text-align:start;text-anchor:start;fill:#262626;font-family:Arial"
       id="text3176">i</text>
    <text
       xml:space="preserve"
       x="-627.92444"
       y="125.00374"
       transform="matrix(0,-1,1,0,0,0)"
       style="font-size:14.9654417px;font-style:normal;font-weight:normal;text-align:start;text-anchor:start;fill:#262626;font-family:Arial"
       id="text3178">n</text>
    <text
       xml:space="preserve"
       x="-619.37274"
       y="125.00374"
       transform="matrix(0,-1,1,0,0,0)"
       style="font-size:14.9654417px;font-style:normal;font-weight:normal;text-align:start;text-anchor:start;fill:#262626;font-family:Arial"
       id="text3180">t</text>
    <text
       xml:space="preserve"
       x="-615.09692"
       y="125.00374"
       transform="matrix(0,-1,1,0,0,0)"
       style="font-size:14.9654417px;font-style:normal;font-weight:normal;text-align:start;text-anchor:start;fill:#262626;font-family:Arial"
       id="text3182">e</text>
    <text
       xml:space="preserve"
       x="-606.54523"
       y="125.00374"
       transform="matrix(0,-1,1,0,0,0)"
       style="font-size:14.9654417px;font-style:normal;font-weight:normal;text-align:start;text-anchor:start;fill:#262626;font-family:Arial"
       id="text3184">g</text>
    <text
       xml:space="preserve"
       x="-597.99353"
       y="125.00374"
       transform="matrix(0,-1,1,0,0,0)"
       style="font-size:14.9654417px;font-style:normal;font-weight:normal;text-align:start;text-anchor:start;fill:#262626;font-family:Arial"
       id="text3186">r</text>
    <text
       xml:space="preserve"
       x="-593.00507"
       y="125.00374"
       transform="matrix(0,-1,1,0,0,0)"
       style="font-size:14.9654417px;font-style:normal;font-weight:normal;text-align:start;text-anchor:start;fill:#262626;font-family:Arial"
       id="text3188">a</text>
    <text
       xml:space="preserve"
       x="-584.45337"
       y="125.00374"
       transform="matrix(0,-1,1,0,0,0)"
       style="font-size:14.9654417px;font-style:normal;font-weight:normal;text-align:start;text-anchor:start;fill:#262626;font-family:Arial"
       id="text3190">t</text>
    <text
       xml:space="preserve"
       x="-580.17755"
       y="125.00374"
       transform="matrix(0,-1,1,0,0,0)"
       style="font-size:14.9654417px;font-style:normal;font-weight:normal;text-align:start;text-anchor:start;fill:#262626;font-family:Arial"
       id="text3192">i</text>
    <text
       xml:space="preserve"
       x="-577.32697"
       y="125.00374"
       transform="matrix(0,-1,1,0,0,0)"
       style="font-size:14.9654417px;font-style:normal;font-weight:normal;text-align:start;text-anchor:start;fill:#262626;font-family:Arial"
       id="text3194">o</text>
    <text
       xml:space="preserve"
       x="-568.77533"
       y="125.00374"
       transform="matrix(0,-1,1,0,0,0)"
       style="font-size:14.9654417px;font-style:normal;font-weight:normal;text-align:start;text-anchor:start;fill:#262626;font-family:Arial"
       id="text3196">n</text>
    <path
       inkscape:connector-curvature="0"
       style="fill:none;stroke:#ffc000;stroke-width:2.04884028px;stroke-linecap:round;stroke-linejoin:round;stroke-opacity:1;stroke-dasharray:none"
       d="m 208.82803,878.68464 324.07307,0"
       id="path3198" />
    <path
       inkscape:connector-curvature="0"
       style="fill:#ffc000;fill-opacity:1;fill-rule:evenodd;stroke:none"
       d="m 209.80791,882.47054 -11.31316,-3.7859 11.31316,-3.74135 0,7.52725 z"
       id="path3200" />
    <path
       inkscape:connector-curvature="0"
       style="fill:#ffc000;fill-opacity:1;fill-rule:evenodd;stroke:none"
       d="m 531.9658,874.94329 11.3131,3.74135 -11.3131,3.7859 0,-7.52725 z"
       id="path3202" />
    <path
       inkscape:connector-curvature="0"
       style="fill:#ffffff;fill-opacity:1;fill-rule:evenodd;stroke:none"
       d="m 281.29462,858.8198 0,18.21686 179.18443,0 0,-18.21686 -179.18443,0 z"
       id="path3204" />
    <text
       xml:space="preserve"
       x="281.07193"
       y="872.35992"
       style="font-size:14.9654417px;font-style:normal;font-weight:normal;text-align:start;text-anchor:start;fill:#262626;font-family:Arial"
       id="text3206">cross</text>
    <text
       xml:space="preserve"
       x="317.4166"
       y="872.35992"
       style="font-size:14.9654417px;font-style:normal;font-weight:normal;text-align:start;text-anchor:start;fill:#262626;font-family:Arial"
       id="text3208">-</text>
    <text
       xml:space="preserve"
       x="322.40506"
       y="872.35992"
       style="font-size:14.9654417px;font-style:normal;font-weight:normal;text-align:start;text-anchor:start;fill:#262626;font-family:Arial"
       id="text3210">language integration</text>
    <path
       inkscape:connector-curvature="0"
       style="fill:#595959;fill-opacity:1;fill-rule:evenodd;stroke:none"
       d="m 310.82464,546.68346 c 7.43818,0 13.49562,-6.0129 13.49562,-13.45108 l 0,0 0,-45.07448 c 0,-7.43818 -6.05744,-13.45108 -13.49562,-13.45108 l 0,0 -63.06864,0 c -7.43819,0 -13.45108,6.0129 -13.45108,13.45108 l 0,0 0,45.07448 c 0,7.43818 6.01289,13.45108 13.45108,13.45108 l 0,0 63.06864,0 z"
       id="path3212" />
    <path
       inkscape:connector-curvature="0"
       style="fill:none;stroke:#000000;stroke-width:2.04884028px;stroke-linecap:round;stroke-linejoin:round;stroke-opacity:1;stroke-dasharray:none"
       d="m 310.82464,546.68346 c 7.43818,0 13.49562,-6.0129 13.49562,-13.45108 l 0,0 0,-45.07448 c 0,-7.43818 -6.05744,-13.45108 -13.49562,-13.45108 l 0,0 -63.06864,0 c -7.43819,0 -13.45108,6.0129 -13.45108,13.45108 l 0,0 0,45.07448 c 0,7.43818 6.01289,13.45108 13.45108,13.45108 l 0,0 63.06864,0 z"
       id="path3214" />
    <text
       xml:space="preserve"
       x="256.84219"
       y="507.48825"
       style="font-size:13.54016113px;font-style:normal;font-weight:bold;text-align:start;text-anchor:start;fill:#ffffff;font-family:Arial"
       id="text3216">HTML</text>
    <text
       xml:space="preserve"
       x="293.89944"
       y="507.48825"
       style="font-size:13.54016113px;font-style:normal;font-weight:bold;text-align:start;text-anchor:start;fill:#ffffff;font-family:Arial"
       id="text3218">5</text>
    <text
       xml:space="preserve"
       x="238.31349"
       y="521.74103"
       style="font-size:11.40224075px;font-style:normal;font-weight:normal;text-align:start;text-anchor:start;fill:#ffffff;font-family:Arial"
       id="text3220">App Component</text>
    <path
       inkscape:connector-curvature="0"
       style="fill:#595959;fill-opacity:1;fill-rule:evenodd;stroke:none"
       d="m 484.3525,548.42052 c 7.4382,0 13.4511,-6.05744 13.4511,-13.49562 l 0,0 0,-45.07449 c 0,-7.43818 -6.0129,-13.45108 -13.4511,-13.45108 l 0,0 -63.06865,0 c -7.43819,0 -13.49562,6.0129 -13.49562,13.45108 l 0,0 0,45.07449 c 0,7.43818 6.05743,13.49562 13.49562,13.49562 l 63.06865,0 z"
       id="path3222" />
    <path
       inkscape:connector-curvature="0"
       style="fill:none;stroke:#000000;stroke-width:2.04884028px;stroke-linecap:round;stroke-linejoin:round;stroke-opacity:1;stroke-dasharray:none"
       d="m 484.3525,548.42052 c 7.4382,0 13.4511,-6.05744 13.4511,-13.49562 l 0,0 0,-45.07449 c 0,-7.43818 -6.0129,-13.45108 -13.4511,-13.45108 l 0,0 -63.06865,0 c -7.43819,0 -13.49562,6.0129 -13.49562,13.45108 l 0,0 0,45.07449 c 0,7.43818 6.05743,13.49562 13.49562,13.49562 l 63.06865,0 z"
       id="path3224" />
    <text
       xml:space="preserve"
       x="427.16315"
       y="509.62619"
       style="font-size:13.54016113px;font-style:normal;font-weight:bold;text-align:start;text-anchor:start;fill:#ffffff;font-family:Arial"
       id="text3226">Android</text>
    <text
       xml:space="preserve"
       x="411.48505"
       y="523.87897"
       style="font-size:11.40224075px;font-style:normal;font-weight:normal;text-align:start;text-anchor:start;fill:#ffffff;font-family:Arial"
       id="text3228">App Component</text>
    <path
       inkscape:connector-curvature="0"
       style="fill:none;stroke:#1a1a1a;stroke-width:1.15804005px;stroke-linecap:round;stroke-linejoin:round;stroke-opacity:1;stroke-dasharray:none"
       d="m 364.27264,595.90016 0,-26.9467 -84.98232,0 0,-22.27"
       id="path3230" />
    <path
       inkscape:connector-curvature="0"
       style="fill:none;stroke:#1a1a1a;stroke-width:1.15804005px;stroke-linecap:round;stroke-linejoin:round;stroke-opacity:1;stroke-dasharray:none"
       d="m 220.8093,741.67959 0,-25.07602 143.46334,0 0,-24.76424"
       id="path3232" />
    <path
       inkscape:connector-curvature="0"
       style="fill:#1a1a1a;stroke:#1a1a1a;stroke-width:1.15804005px;stroke-linecap:round;stroke-linejoin:round;stroke-opacity:1;stroke-dasharray:none"
       d="m 364.36173,741.67959 -0.0891,-49.84026"
       id="path3234" />
    <path
       inkscape:connector-curvature="0"
       style="fill:none;stroke:#1a1a1a;stroke-width:1.15804005px;stroke-linecap:round;stroke-linejoin:round;stroke-opacity:1;stroke-dasharray:none"
       d="m 503.6383,741.67959 0,-24.58608 -139.36566,0 0,-25.25418"
       id="path3236" />
    <path
       inkscape:connector-curvature="0"
       style="fill:#ffe100;fill-opacity:1;fill-rule:evenodd;stroke:none"
       d="m 413.40027,691.83933 c 7.43818,0 13.49562,-6.0129 13.49562,-13.45108 l 0,0 0,-69.03701 c 0,-7.43818 -6.05744,-13.45108 -13.49562,-13.45108 l -98.29979,0 c -7.43819,0 -13.45108,6.0129 -13.45108,13.45108 l 0,0 0,69.03701 c 0,7.43818 6.01289,13.45108 13.45108,13.45108 l 0,0 98.29979,0 z"
       id="path3238" />
    <path
       inkscape:connector-curvature="0"
       style="fill:none;stroke:#ffc000;stroke-width:2.98418021px;stroke-linecap:round;stroke-linejoin:round;stroke-opacity:1;stroke-dasharray:none"
       d="m 413.40027,691.83933 c 7.43818,0 13.49562,-6.0129 13.49562,-13.45108 l 0,0 0,-69.03701 c 0,-7.43818 -6.05744,-13.45108 -13.49562,-13.45108 l -98.29979,0 c -7.43819,0 -13.45108,6.0129 -13.45108,13.45108 l 0,0 0,69.03701 c 0,7.43818 6.01289,13.45108 13.45108,13.45108 l 0,0 98.29979,0 z"
       id="path3240" />
    <path
       inkscape:connector-curvature="0"
       style="fill:#000000;fill-opacity:1;fill-rule:evenodd;stroke:none"
       d="m 329.88776,672.28627 c -1.24712,0.22269 -2.40516,0.35632 -3.5632,0.35632 -0.4454,0 -0.89079,0 -1.29166,-0.0446 -0.35632,-0.0445 -0.84625,-0.13363 -1.3362,-0.26725 -0.48994,-0.13361 -0.8908,-0.31177 -1.24712,-0.53448 -0.31178,-0.17816 -0.62356,-0.53448 -0.84626,-0.93534 -0.26724,-0.40085 -0.35632,-0.84626 -0.35632,-1.38074 l 0,-4.85486 c 0,-2.227 1.69252,-3.29596 5.07756,-3.29596 0.84626,0 2.0043,0.0891 3.51867,0.35632 l 0,1.95976 c -1.38075,-0.31177 -2.53879,-0.44539 -3.47413,-0.44539 -0.40086,0 -0.71264,0 -0.93533,0.0445 -0.26725,0 -0.48995,0.0446 -0.75719,0.13362 -0.26724,0.0891 -0.48993,0.26724 -0.62356,0.4454 -0.13362,0.17816 -0.17816,0.4454 -0.17816,0.75718 l 0,4.72124 c 0,0.97989 0.8908,1.46982 2.71694,1.46982 0.80172,0 1.91522,-0.17816 3.29596,-0.48993 l 0,2.00429 z"
       id="path3242" />
    <path
       inkscape:connector-curvature="0"
       style="fill:#000000;fill-opacity:1;fill-rule:evenodd;stroke:none"
       d="m 336.88054,666.13975 -0.84626,0 c -0.71264,0 -1.20257,0.13362 -1.55889,0.31178 -0.35632,0.2227 -0.48995,0.57902 -0.48995,1.1135 l 0,4.8994 -2.49424,0 0,-8.19536 2.36062,0 0,1.46982 c 0,-0.4454 0.26725,-0.80172 0.71264,-1.1135 0.44541,-0.35632 0.93534,-0.53448 1.42528,-0.53448 l 0.8908,0 0,2.04884 z"
       id="path3244" />
    <path
       inkscape:connector-curvature="0"
       style="fill:#000000;fill-opacity:1;fill-rule:evenodd;stroke:none"
       d="m 346.32302,667.25326 0,2.40515 c 0,0.53448 -0.0891,0.97989 -0.26724,1.38074 -0.17816,0.35632 -0.35632,0.66811 -0.62356,0.8908 -0.26724,0.17816 -0.57902,0.35632 -0.97988,0.48995 -0.40086,0.0891 -0.75718,0.17816 -1.1135,0.17816 -0.31177,0.0446 -0.71263,0.0446 -1.20257,0.0446 -0.48995,0 -0.8908,0 -1.20259,-0.0446 -0.35632,0 -0.71264,-0.0891 -1.11349,-0.17816 -0.40086,-0.13363 -0.71264,-0.31179 -0.97989,-0.48995 -0.2227,-0.22269 -0.44539,-0.53448 -0.62355,-0.8908 -0.17816,-0.40085 -0.26725,-0.84626 -0.26725,-1.38074 l 0,-2.40515 c 0,-0.57903 0.13362,-1.06896 0.26725,-1.46983 0.17816,-0.40086 0.40085,-0.71264 0.6681,-0.8908 0.26723,-0.2227 0.57902,-0.40086 0.97987,-0.53448 0.40086,-0.0891 0.75718,-0.17816 1.11349,-0.2227 0.31179,0 0.71264,-0.0446 1.15806,-0.0446 0.44539,0 0.84625,0.0446 1.20257,0.0446 0.31178,0.0446 0.6681,0.13362 1.06896,0.2227 0.40086,0.13362 0.75718,0.31178 0.97988,0.53448 0.26724,0.17816 0.48994,0.48994 0.6681,0.8908 0.17816,0.40087 0.26724,0.8908 0.26724,1.46983 z m -2.49424,2.71693 0,-3.1178 c 0,-0.4454 -0.0891,-0.75718 -0.31178,-0.93534 -0.26724,-0.17816 -0.71264,-0.26724 -1.38073,-0.26724 -0.66811,0 -1.1135,0.0891 -1.33621,0.26724 -0.2227,0.17816 -0.35632,0.48994 -0.35632,0.93534 l 0,3.1178 c 0,0.40086 0.13362,0.71264 0.31178,0.8908 0.22269,0.17816 0.71264,0.26724 1.38075,0.26724 0.66809,0 1.15803,-0.0891 1.38073,-0.26724 0.22271,-0.17816 0.31178,-0.48994 0.31178,-0.8908 z"
       id="path3246" />
    <path
       inkscape:connector-curvature="0"
       style="fill:#000000;fill-opacity:1;fill-rule:evenodd;stroke:none"
       d="m 355.3201,669.30209 0,1.02442 c 0,0.40086 -0.0891,0.75718 -0.26724,1.02443 -0.13362,0.31177 -0.31178,0.53448 -0.53448,0.71264 -0.26724,0.17816 -0.53448,0.26722 -0.93533,0.35632 -0.35632,0.0891 -0.71264,0.17816 -1.06896,0.17816 -0.35632,0.0446 -0.75719,0.0446 -1.20259,0.0446 -0.8908,0 -1.95976,-0.0891 -3.25142,-0.2227 l 0,-1.64799 c 1.5589,0.22271 2.67241,0.35632 3.29596,0.35632 0.44541,0 0.84626,-0.0446 1.1135,-0.17816 0.26724,-0.0891 0.40087,-0.26723 0.40087,-0.53448 l 0,-0.53448 c 0,-0.26723 -0.0891,-0.44539 -0.22271,-0.57902 -0.13361,-0.13362 -0.48993,-0.17816 -0.93534,-0.17816 l -1.06896,0 c -0.8908,0 -1.5589,-0.17816 -2.0043,-0.53448 -0.48994,-0.35632 -0.75718,-0.84626 -0.75718,-1.51435 l 0,-0.97989 c 0,-0.75717 0.35632,-1.29165 1.06896,-1.55889 0.71264,-0.26724 1.73706,-0.4454 3.02873,-0.4454 0.53448,0 1.51435,0.0445 2.89509,0.17816 l 0,1.5589 c -1.73706,-0.13362 -2.71693,-0.17816 -2.98418,-0.17816 -0.6681,0 -1.1135,0.0446 -1.29166,0.13362 -0.17816,0.0891 -0.26724,0.26724 -0.26724,0.53448 l 0,0.4454 c 0,0.13362 0.0891,0.26723 0.22271,0.40085 0.13361,0.0891 0.35632,0.13363 0.62355,0.13363 l 1.1135,0 c 2.00431,0 3.02872,0.6681 3.02872,2.00429 z"
       id="path3248" />
    <path
       inkscape:connector-curvature="0"
       style="fill:#000000;fill-opacity:1;fill-rule:evenodd;stroke:none"
       d="m 364.18357,669.30209 0,1.02442 c 0,0.40086 -0.0446,0.75718 -0.22271,1.02443 -0.13362,0.31177 -0.35632,0.53448 -0.57902,0.71264 -0.22269,0.17816 -0.53448,0.26722 -0.8908,0.35632 -0.35632,0.0891 -0.75717,0.17816 -1.06896,0.17816 -0.35632,0.0446 -0.75717,0.0446 -1.20258,0.0446 -0.8908,0 -2.00429,-0.0891 -3.25141,-0.2227 l 0,-1.64799 c 1.5589,0.22271 2.67239,0.35632 3.25141,0.35632 0.48994,0 0.8908,-0.0446 1.15805,-0.17816 0.26723,-0.0891 0.40085,-0.26723 0.40085,-0.53448 l 0,-0.53448 c 0,-0.26723 -0.0891,-0.44539 -0.22269,-0.57902 -0.17816,-0.13362 -0.48995,-0.17816 -0.97989,-0.17816 l -1.06896,0 c -0.84626,0 -1.51435,-0.17816 -2.00429,-0.53448 -0.44541,-0.35632 -0.71264,-0.84626 -0.71264,-1.51435 l 0,-0.97989 c 0,-0.75717 0.35632,-1.29165 1.06896,-1.55889 0.71264,-0.26724 1.73706,-0.4454 3.02871,-0.4454 0.53448,0 1.51436,0.0445 2.8951,0.17816 l 0,1.5589 c -1.73706,-0.13362 -2.76147,-0.17816 -2.98418,-0.17816 -0.66809,0 -1.1135,0.0446 -1.29166,0.13362 -0.17816,0.0891 -0.26723,0.26724 -0.26723,0.53448 l 0,0.4454 c 0,0.13362 0.0891,0.26723 0.22269,0.40085 0.13363,0.0891 0.35632,0.13363 0.62356,0.13363 l 1.11351,0 c 2.00429,0 2.98418,0.6681 2.98418,2.00429 z"
       id="path3250" />
    <path
       inkscape:connector-curvature="0"
       style="fill:#000000;fill-opacity:1;fill-rule:evenodd;stroke:none"
       d="m 374.42776,666.85239 0,2.71695 c 0,1.11349 -0.31177,1.91521 -0.97987,2.40515 -0.6681,0.44541 -1.7816,0.6681 -3.25143,0.6681 -1.55889,0 -2.6724,-0.22269 -3.25142,-0.71264 -0.62355,-0.48994 -0.8908,-1.29165 -0.8908,-2.36061 l 0,-8.95255 2.44971,0 0,4.454 c 0.13362,-0.35632 0.44539,-0.62356 0.84626,-0.75718 0.40086,-0.13362 0.97987,-0.2227 1.82614,-0.2227 0.71264,0 1.24712,0.0891 1.69252,0.17816 0.4454,0.13362 0.80172,0.31178 1.02441,0.57902 0.22271,0.2227 0.35632,0.53448 0.44541,0.80172 0.0891,0.31178 0.0891,0.71265 0.0891,1.20258 z m -2.44969,3.02872 0,-3.02872 c 0,-0.53448 -0.0891,-0.84625 -0.31178,-1.02442 -0.17816,-0.13362 -0.6681,-0.17816 -1.46983,-0.17816 -0.71264,0 -1.15803,0.0891 -1.38073,0.26724 -0.17816,0.17816 -0.31178,0.48994 -0.31178,0.93534 l 0,3.02872 c 0,0.48994 0.0891,0.84626 0.31178,0.97988 0.2227,0.17816 0.66809,0.26724 1.42528,0.26724 0.71264,0 1.15803,-0.0891 1.38074,-0.26724 0.2227,-0.13362 0.35632,-0.48994 0.35632,-0.97988 z"
       id="path3252" />
    <path
       inkscape:connector-curvature="0"
       style="fill:#000000;fill-opacity:1;fill-rule:evenodd;stroke:none"
       d="m 383.73662,672.46443 -2.40516,0 0,-0.71264 c -0.17816,0.31179 -0.4454,0.53448 -0.80172,0.71264 -0.31178,0.13363 -0.93533,0.17816 -1.87068,0.17816 -1.06895,0 -1.82614,-0.17816 -2.18246,-0.48995 -0.35631,-0.35631 -0.53447,-1.06895 -0.53447,-2.13791 0,-0.93534 0.17816,-1.64798 0.53447,-2.0043 0.40087,-0.40085 1.06896,-0.57901 2.0043,-0.57901 l 2.80602,0 0,-0.57903 c 0,-0.48993 -0.13362,-0.80172 -0.35632,-0.97988 -0.2227,-0.17816 -0.71264,-0.2227 -1.46982,-0.2227 -0.71264,0 -1.64797,0.0446 -2.8951,0.17816 l 0,-1.5589 c 0.93534,-0.0891 2.0043,-0.17816 3.16234,-0.17816 1.51436,0 2.53879,0.17816 3.16234,0.57902 0.57902,0.35632 0.84626,1.06896 0.84626,2.18246 l 0,5.61204 z m -2.4497,-2.09338 0,-1.5589 -1.69251,0 c -0.57903,0 -0.8908,0.0446 -1.02443,0.17816 -0.13362,0.0891 -0.22269,0.4454 -0.22269,0.97988 0,0.53448 0.0891,0.84627 0.22269,0.97988 0.13363,0.0891 0.48995,0.17816 1.06896,0.17816 0.26724,0 0.48995,-0.0445 0.62356,-0.0445 0.13362,0 0.31178,0 0.4454,0 0.17816,-0.0446 0.26724,-0.0891 0.31179,-0.13362 0.0891,-0.0446 0.13361,-0.13361 0.17816,-0.2227 0.0445,-0.0891 0.0891,-0.17816 0.0891,-0.35632 z"
       id="path3254" />
    <path
       inkscape:connector-curvature="0"
       style="fill:#000000;fill-opacity:1;fill-rule:evenodd;stroke:none"
       d="m 391.30843,666.13975 -0.84626,0 c -0.71264,0 -1.20259,0.13362 -1.55891,0.31178 -0.31178,0.2227 -0.48994,0.57902 -0.48994,1.1135 l 0,4.8994 -2.49424,0 0,-8.19536 2.36063,0 0,1.46982 c 0,-0.4454 0.2227,-0.80172 0.71264,-1.1135 0.44539,-0.35632 0.93534,-0.53448 1.42528,-0.53448 l 0.8908,0 0,2.04884 z"
       id="path3256" />
    <path
       inkscape:connector-curvature="0"
       style="fill:#000000;fill-opacity:1;fill-rule:evenodd;stroke:none"
       d="m 392.73371,670.6383 0,1.82613 1.95976,0 0,-1.82613 -1.95976,0 z"
       id="path3258" />
    <path
       inkscape:connector-curvature="0"
       style="fill:#000000;fill-opacity:1;fill-rule:evenodd;stroke:none"
       d="m 398.74661,662.88833 -1.5589,0 0,-1.5589 1.5589,0 0,1.5589 z m 0,9.5761 -1.5589,0 0,-8.19536 1.5589,0 0,8.19536 z"
       id="path3260" />
    <path
       inkscape:connector-curvature="0"
       style="fill:#000000;fill-opacity:1;fill-rule:evenodd;stroke:none"
       d="m 408.63449,667.03055 0,2.85056 c 0,0.53448 -0.0446,0.93535 -0.17816,1.29167 -0.13363,0.35632 -0.31179,0.62355 -0.48994,0.80171 -0.17816,0.2227 -0.4454,0.35631 -0.80172,0.44541 -0.35632,0.13361 -0.71264,0.17816 -1.02442,0.17816 -0.31178,0.0446 -0.75718,0.0446 -1.29166,0.0446 -0.66811,0 -1.20259,0 -1.55891,-0.0446 -0.40085,-0.0445 -0.75717,-0.17816 -1.15803,-0.35632 -0.35632,-0.17816 -0.6681,-0.44541 -0.80173,-0.84627 -0.17816,-0.35632 -0.26723,-0.8908 -0.26723,-1.51436 l 0,-2.85056 c 0,-0.53448 0.0891,-0.97988 0.2227,-1.38074 0.13362,-0.35632 0.26724,-0.62356 0.4454,-0.84626 0.17816,-0.2227 0.48993,-0.35632 0.84625,-0.4454 0.35632,-0.13362 0.66811,-0.17816 0.97989,-0.2227 0.31178,0 0.75718,-0.0446 1.29166,-0.0446 0.53448,0 0.97988,0.0446 1.29166,0.0446 0.31178,0.0446 0.62356,0.0891 0.97988,0.2227 0.40086,0.0891 0.6681,0.2227 0.84626,0.4454 0.17815,0.2227 0.35631,0.48994 0.48994,0.84626 0.0891,0.40086 0.17816,0.84626 0.17816,1.38074 z m -1.5589,3.07327 0,-3.29597 c 0,-0.75718 -0.17816,-1.24712 -0.4454,-1.42528 -0.31178,-0.17816 -0.8908,-0.26724 -1.7816,-0.26724 -0.84627,0 -1.46982,0.0891 -1.73707,0.26724 -0.31177,0.17816 -0.48993,0.6681 -0.48993,1.42528 l 0,3.29597 c 0,0.35632 0.0446,0.66809 0.13361,0.84625 0.0891,0.22271 0.22271,0.40087 0.44541,0.48994 0.2227,0.0891 0.44539,0.17816 0.6681,0.17816 0.2227,0.0445 0.53448,0.0445 0.97988,0.0445 0.4454,0 0.80172,0 1.02442,-0.0445 0.2227,0 0.40086,-0.0891 0.62356,-0.17816 0.2227,-0.0891 0.40086,-0.26723 0.4454,-0.48994 0.0891,-0.17816 0.13362,-0.48993 0.13362,-0.84625 z"
       id="path3262" />
    <path
       inkscape:connector-curvature="0"
       style="fill:#000000;fill-opacity:1;fill-rule:evenodd;stroke:none"
       d="m 344.71958,614.38427 0,36.9682 36.92366,0 0,-36.9682 -36.92366,0 z"
       id="path3264" />
    <path
       inkscape:connector-curvature="0"
       style="fill:#ffe100;fill-opacity:1;fill-rule:evenodd;stroke:none"
       d="m 344.71958,622.22331 0,3.65228 8.68531,0 5.79019,5.7902 2.6724,-2.67241 -6.85915,-6.85915 -10.28875,0.0891 z"
       id="path3266" />
    <path
       inkscape:connector-curvature="0"
       style="fill:#ffe100;fill-opacity:1;fill-rule:evenodd;stroke:none"
       d="m 367.07867,634.24911 -2.62787,2.6724 6.59192,6.63646 10.60052,0 0,-3.69682 -8.95253,0 -5.61204,-5.61204 z"
       id="path3268" />
    <path
       inkscape:connector-curvature="0"
       style="fill:#ffe100;fill-opacity:1;fill-rule:evenodd;stroke:none"
       d="m 371.30997,622.17877 -17.59331,17.72691 -8.99708,0 0,3.69683 10.51144,0 17.72693,-17.72692 8.68529,0 0,-3.69682 -10.33327,0 z"
       id="path3270" />
    <g
       id="g3038-5-3"
       transform="matrix(0.18018609,0,0,0.18018609,445.1545,328.19172)"
       style="fill:#333333"
       inkscape:export-filename="F:\svnwork\tavendo\oberstet\projects\tavendo_visuals\autobahn\wamp\logo_tiny_white.png"
       inkscape:export-xdpi="90"
       inkscape:export-ydpi="90">
      <path
         d="m 198.76762,1796.0999 c -8.04143,-22.5816 -16.39465,-44.9826 -25.05966,-67.2032 3.15092,0.066 5.71103,0.099 7.68036,0.099 2.16624,10e-5 4.72638,-0.033 7.68038,-0.099 l 13.78529,40.765 5.76026,16.05 c 1.24721,-2.4288 3.12627,-6.3264 5.6372,-11.6928 2.51086,-5.3664 4.30787,-9.3297 5.39103,-11.8899 -1.50985,-4.595 -3.42175,-10.1584 -5.73566,-16.69 -2.31399,-6.5316 -4.34076,-12.0456 -6.0803,-16.5423 2.78985,0.066 5.23509,0.099 7.33575,0.099 2.33032,10e-5 4.77556,-0.033 7.33575,-0.099 1.54259,5.9408 3.24933,11.816 5.12025,17.6254 2.75698,-5.9407 5.2843,-11.8159 7.5819,-17.6254 2.85547,0.066 5.15299,0.099 6.89263,0.099 2.0021,10e-5 4.29962,-0.033 6.89265,-0.099 -2.10068,4.2013 -4.70183,9.5676 -7.80344,16.0992 -3.10177,6.5316 -5.60446,11.9801 -7.50807,16.3454 0.72201,2.3632 2.06773,6.3675 4.03711,12.0129 1.96928,5.6454 3.41343,9.6333 4.33252,11.9637 l 13.24373,-28.1614 9.60045,-21.0718 3.15093,-7.188 c 3.15082,0.066 5.67814,0.099 7.5819,0.099 2.10053,10e-5 4.64423,-0.033 7.63115,-0.099 l -9.25584,18.3639 -19.34863,39.6819 -4.33252,9.1574 c -3.51204,-0.066 -6.51525,-0.099 -9.00967,-0.099 -2.62583,0 -5.64545,0.033 -9.0589,0.099 -1.93656,-6.63 -4.06999,-13.1452 -6.40031,-19.5455 -3.11815,6.4003 -6.07213,12.9155 -8.86195,19.5455 -3.51202,-0.066 -6.54805,-0.099 -9.10816,-0.099 -2.69144,0 -5.72747,0.033 -9.10813,0.099 z"
         style="font-size:40px;font-style:normal;font-variant:normal;font-weight:normal;font-stretch:normal;text-align:start;line-height:125%;letter-spacing:0px;word-spacing:0px;writing-mode:lr-tb;text-anchor:start;fill:#333333;fill-opacity:1;stroke:none;font-family:Eras Demi ITC;-inkscape-font-specification:Eras Demi ITC"
         id="path3176-4-1-9-3-1-8-1-0-5"
         inkscape:connector-curvature="0" />
      <path
         d="m 264.32536,1796.0999 c 3.4135,-6.0393 7.4178,-13.5063 12.0129,-22.4011 l 12.94832,-24.8627 c 4.03709,-7.6803 7.38493,-14.3268 10.04356,-19.9394 4.26685,0.066 7.28647,0.099 9.0589,0.099 3.11807,10e-5 6.17051,-0.033 9.15738,-0.099 l 7.04032,20.1363 15.31152,41.6513 2.11704,5.4156 -7.38498,-0.099 c -1.70682,0 -4.57874,0.033 -8.61581,0.099 -0.78778,-2.9211 -2.02682,-6.8598 -3.7171,-11.816 -1.69038,-4.9561 -3.12635,-8.9768 -4.30789,-12.0621 l -25.89665,0 c -3.84022,7.8117 -7.58192,15.7711 -11.22517,23.8781 l -8.025,-0.099 c -1.50982,0 -4.34893,0.033 -8.51734,0.099 z m 32.14926,-34.1186 18.8563,0 -7.72961,-22.7457 -3.98789,8.2712 z"
         style="font-size:40px;font-style:normal;font-variant:normal;font-weight:normal;font-stretch:normal;text-align:start;line-height:125%;letter-spacing:0px;word-spacing:0px;writing-mode:lr-tb;text-anchor:start;fill:#333333;fill-opacity:1;stroke:none;font-family:Eras Demi ITC;-inkscape-font-specification:Eras Demi ITC"
         id="path3178-2-6-3-8-3-01-1-9-1"
         inkscape:connector-curvature="0" />
      <path
         d="m 348.02174,1796.0999 1.28005,-11.1267 3.24939,-39.0911 1.13236,-16.9854 c 4.69357,0.066 8.12346,0.099 10.28973,0.099 1.73956,10e-5 4.90689,-0.033 9.50202,-0.099 0.52512,2.6586 0.91899,4.5459 1.1816,5.6618 0.26253,1.116 0.77127,2.9048 1.5262,5.3664 0.75489,2.4617 1.72313,5.4485 2.90477,8.9604 1.73954,5.3172 3.29859,10.5688 4.67716,15.7546 l 3.7417,14.0807 6.59725,-18.0686 9.60046,-23.4842 c 0.32818,-0.7876 0.66459,-1.6985 1.00928,-2.7324 0.34458,-1.0339 0.92718,-2.8801 1.74778,-5.5387 3.90578,0.066 7.3849,0.099 10.43744,0.099 2.03489,10e-5 5.28427,-0.033 9.74817,-0.099 -0.4596,9.4528 -0.80424,19.8984 -1.0339,31.3369 -0.2299,11.4385 -0.34472,19.9804 -0.34464,25.6258 -8e-5,2.7242 0.0328,6.1378 0.0986,10.2405 -3.24946,-0.066 -5.46496,-0.099 -6.64648,-0.099 -1.70681,0 -3.97152,0.033 -6.79417,0.099 0.19687,-3.3478 0.32815,-6.1049 0.39387,-8.2712 l 0.83696,-29.2937 c 0.0983,-4.1355 0.14771,-8.2055 0.14771,-12.2098 l -0.0491,-3.9879 -18.16706,47.9039 -2.11701,5.8587 c -3.1838,-0.066 -5.36645,-0.099 -6.54802,-0.099 -1.47703,0 -3.79099,0.033 -6.94186,0.099 l -8.46812,-30.3276 c -0.2954,-1.0831 -0.98468,-3.3478 -2.06779,-6.7942 l -3.05246,-10.0435 c -0.2954,-0.9518 -0.51695,-1.7314 -0.66464,-2.3386 -0.14772,-0.6072 -0.46772,-1.9611 -0.96005,-4.0618 l -0.64001,6.3019 c -0.1641,2.0022 -0.41031,5.35 -0.73851,10.0436 l -1.92009,30.5245 c -0.0655,1.5098 -0.11495,3.7417 -0.14772,6.6957 l -6.35107,-0.099 c -1.08314,0 -3.23297,0.033 -6.44954,0.099 z"
         style="font-size:40px;font-style:normal;font-variant:normal;font-weight:normal;font-stretch:normal;text-align:start;line-height:125%;letter-spacing:0px;word-spacing:0px;writing-mode:lr-tb;text-anchor:start;fill:#333333;fill-opacity:1;stroke:none;font-family:Eras Demi ITC;-inkscape-font-specification:Eras Demi ITC"
         id="path3180-3-8-1-9-5-2-5-4-2"
         inkscape:connector-curvature="0" />
      <path
         d="m 438.75844,1796.0999 0.88622,-11.6682 1.23082,-25.8475 0.59079,-18.7578 c 0.0328,-1.7067 0.0491,-3.4298 0.0491,-5.1695 0,-1.28 -0.0176,-3.2001 -0.0491,-5.7602 4.20121,0.066 7.61472,0.099 10.24049,0.099 2.10061,10e-5 5.02177,-0.049 8.7635,-0.1477 3.74171,-0.098 6.71209,-0.1477 8.91121,-0.1477 4.52941,10e-5 7.86085,0.3283 9.99432,0.9847 2.26468,0.7221 4.25042,1.8545 5.95724,3.397 1.70669,1.5428 3.00315,3.3972 3.88939,5.5634 0.98463,2.4289 1.47695,5.0382 1.477,7.8281 -5e-5,4.2341 -1.05855,8.0825 -3.17552,11.5451 -2.11709,3.4628 -5.04647,6.0475 -8.78812,7.7543 -3.74176,1.7067 -7.89377,2.5601 -12.456,2.5601 -2.23194,0 -4.61154,-0.2296 -7.13881,-0.6893 -0.72211,-3.4134 -1.54266,-6.6136 -2.46165,-9.6004 2.03494,0.4267 4.0535,0.64 6.05567,0.64 2.72421,0 5.0874,-0.4102 7.08958,-1.2308 2.00212,-0.8205 3.59399,-2.158 4.77561,-4.0126 1.18157,-1.8543 1.77235,-3.9467 1.7724,-6.2772 -5e-5,-1.3784 -0.24627,-2.6421 -0.7385,-3.7909 -0.49237,-1.1487 -1.20624,-2.0678 -2.14164,-2.7571 -0.93547,-0.6892 -1.96935,-1.1569 -3.10169,-1.4031 -1.13239,-0.2461 -2.74889,-0.3692 -4.84947,-0.3693 -1.83807,10e-5 -3.69251,0.033 -5.56335,0.099 -1.87089,0.066 -3.5284,0.099 -4.97253,0.099 -0.39389,6.4332 -0.6893,12.5873 -0.88622,18.4624 l -0.59078,18.8071 c -0.19687,6.6629 -0.29543,11.5534 -0.29541,14.6714 -2e-5,1.1816 0.0151,2.8884 0.0492,5.1203 l -7.13881,-0.099 c -0.91903,0 -3.38068,0.033 -7.38498,0.099 z"
         style="font-size:40px;font-style:normal;font-variant:normal;font-weight:normal;font-stretch:normal;text-align:start;line-height:125%;letter-spacing:0px;word-spacing:0px;writing-mode:lr-tb;text-anchor:start;fill:#333333;fill-opacity:1;stroke:none;font-family:Eras Demi ITC;-inkscape-font-specification:Eras Demi ITC"
         id="path3182-2-5-9-3-9-5-2-7-0"
         inkscape:connector-curvature="0" />
      <path
         sodipodi:end="7.3673838"
         sodipodi:start="5.1488609"
         transform="matrix(-1.0182655,0,0,1.0182655,682.72958,1288.5394)"
         d="m 515.64189,431.44914 c 17.33521,9.10555 24.83278,32.31097 16.74629,51.83075 -3.18923,7.69843 -8.52352,14.01382 -15.19198,17.98618 L 501,466.79285 z"
         sodipodi:ry="39"
         sodipodi:rx="34.635284"
         sodipodi:cy="466.79285"
         sodipodi:cx="501"
         id="path4649-1-0-7-8-1"
         style="fill:#333333;fill-opacity:1;stroke:none"
         sodipodi:type="arc" />
    </g>
    <path
       style="fill:none;stroke:#000000;stroke-width:1.06687856;stroke-linecap:butt;stroke-linejoin:miter;stroke-miterlimit:4;stroke-opacity:1;stroke-dasharray:4.2675143, 4.2675143;stroke-dashoffset:0"
       d="M 498.05913,635.05544 448.14632,571.02079"
       id="path5219"
       inkscape:connector-curvature="0" />
    <path
       style="fill:none;stroke:#000000;stroke-width:1.17094612;stroke-linecap:butt;stroke-linejoin:miter;stroke-miterlimit:4;stroke-opacity:1;stroke-dasharray:4.68378443, 4.68378443;stroke-dashoffset:0"
       d="m 498.99695,654.04237 -9.83921,62.7085"
       id="path5989"
       inkscape:connector-curvature="0" />
    <text
       xml:space="preserve"
       x="337.57007"
       y="840.89197"
       style="font-size:13.54016113px;font-style:normal;font-weight:bold;text-align:start;text-anchor:start;fill:#333333;font-family:Arial"
       id="text3122-1">Backend</text>
    <text
       xml:space="preserve"
       x="335.12155"
       y="452.95166"
       style="font-size:13.54016113px;font-style:normal;font-weight:bold;text-align:start;text-anchor:start;fill:#333333;font-family:Arial"
       id="text3122-1-7">Frontend</text>
    <flowRoot
       xml:space="preserve"
       id="flowRoot3578"
       style="font-size:24px;font-style:normal;font-variant:normal;font-weight:normal;font-stretch:normal;line-height:125%;letter-spacing:0px;word-spacing:0px;fill:#000000;fill-opacity:1;stroke:none;font-family:MS UI Gothic;-inkscape-font-specification:MS UI Gothic"
       transform="translate(101.28543,463.6875)"><flowRegion
         id="flowRegion3580"><rect
           id="rect3582"
           width="690.71429"
           height="586.42859"
           x="-30.714285"
           y="-45.502663" /></flowRegion><flowPara
         id="flowPara3584"></flowPara></flowRoot>  </g>
</svg>
