<?xml version="1.0" encoding="UTF-8" standalone="no"?>
<!-- Created with Inkscape (http://www.inkscape.org/) -->

<svg
   xmlns:dc="http://purl.org/dc/elements/1.1/"
   xmlns:cc="http://creativecommons.org/ns#"
   xmlns:rdf="http://www.w3.org/1999/02/22-rdf-syntax-ns#"
   xmlns:svg="http://www.w3.org/2000/svg"
   xmlns="http://www.w3.org/2000/svg"
   xmlns:sodipodi="http://sodipodi.sourceforge.net/DTD/sodipodi-0.dtd"
   xmlns:inkscape="http://www.inkscape.org/namespaces/inkscape"
   width="1047.375"
   height="822.6875"
   id="svg3569"
   version="1.1"
   inkscape:version="0.48.5 r10040"
   sodipodi:docname="iot_draft.svg">
  <defs
     id="defs3571" />
  <sodipodi:namedview
     id="base"
     pagecolor="#ffffff"
     bordercolor="#666666"
     borderopacity="1.0"
     inkscape:pageopacity="0.0"
     inkscape:pageshadow="2"
     inkscape:zoom="0.22425739"
     inkscape:cx="478.74931"
     inkscape:cy="404.41933"
     inkscape:document-units="px"
     inkscape:current-layer="layer1"
     showgrid="false"
     fit-margin-top="10"
     fit-margin-right="10"
     fit-margin-bottom="10"
     fit-margin-left="10"
     inkscape:window-width="463"
     inkscape:window-height="423"
     inkscape:window-x="1179"
     inkscape:window-y="327"
     inkscape:window-maximized="0" />
  <metadata
     id="metadata3574">
    <rdf:RDF>
      <cc:Work
         rdf:about="">
        <dc:format>image/svg+xml</dc:format>
        <dc:type
           rdf:resource="http://purl.org/dc/dcmitype/StillImage" />
        <dc:title></dc:title>
      </cc:Work>
    </rdf:RDF>
  </metadata>
  <g
     inkscape:label="Layer 1"
     inkscape:groupmode="layer"
     id="layer1"
     transform="translate(-85.293015,-343.45153)">
    <g
       id="g3796"
       transform="translate(93.324265,351.48278)">
      <path
         id="path3798"
         d="m 639.18745,536.47346 c 13.05421,0 23.60702,-10.63098 23.60702,-23.68519 l 0,0 0,-183.30617 c 0,-13.05422 -10.55281,-23.60702 -23.60702,-23.60702 l -253.73639,0 c -13.05421,0 -23.68519,10.5528 -23.68519,23.60702 l 0,0 0,183.30617 c 0,13.05421 10.63098,23.68519 23.68519,23.68519 l 0,0 253.73639,0 z"
         style="fill:#ffe100;fill-opacity:1;fill-rule:evenodd;stroke:none"
         inkscape:connector-curvature="0" />
      <path
         id="path3800"
         d="m 639.18745,536.47346 c 13.05421,0 23.60702,-10.63098 23.60702,-23.68519 l 0,0 0,-183.30617 c 0,-13.05422 -10.55281,-23.60702 -23.60702,-23.60702 l -253.73639,0 c -13.05421,0 -23.68519,10.5528 -23.68519,23.60702 l 0,0 0,183.30617 c 0,13.05421 10.63098,23.68519 23.68519,23.68519 l 0,0 253.73639,0 z"
         style="fill:none;stroke:#ffc000;stroke-width:5.23731899px;stroke-linecap:round;stroke-linejoin:round;stroke-opacity:1;stroke-dasharray:none"
         inkscape:connector-curvature="0" />
      <path
         id="path3802"
         d="m 420.78342,500.51575 c -3.5176,0.70352 -6.87886,1.09436 -10.08379,1.09436 -1.2507,0 -2.50141,-0.0782 -3.59577,-0.15634 -1.09437,-0.15634 -2.42324,-0.39084 -3.75211,-0.70352 -1.40704,-0.39084 -2.57958,-0.93803 -3.59577,-1.56338 -0.93803,-0.62535 -1.79789,-1.48521 -2.42324,-2.57957 -0.70352,-1.17254 -1.0162,-2.50141 -1.0162,-4.06479 l 0,-13.67956 c 0,-6.25352 4.76831,-9.38028 14.38309,-9.38028 2.34507,0 5.70633,0.39085 9.92746,1.09437 l 0,5.55 c -3.83028,-0.85986 -7.11338,-1.32888 -9.77112,-1.32888 -1.09437,0 -2.0324,0.0782 -2.65775,0.0782 -0.70352,0.0782 -1.48521,0.23451 -2.18873,0.46902 -0.78169,0.31267 -1.32887,0.70352 -1.71971,1.2507 -0.31268,0.54718 -0.54719,1.32887 -0.54719,2.18873 l 0,13.28872 c 0,2.81408 2.57958,4.22112 7.73873,4.22112 2.2669,0 5.39366,-0.46901 9.3021,-1.40704 l 0,5.62817 z"
         style="fill:#000000;fill-opacity:1;fill-rule:evenodd;stroke:none"
         inkscape:connector-curvature="0" />
      <path
         id="path3804"
         d="m 440.56017,483.24041 -2.42324,0 c -1.95423,0 -3.36127,0.23451 -4.37746,0.85986 -0.93803,0.62535 -1.40704,1.64155 -1.40704,3.04859 l 0,13.99224 -7.03521,0 0,-23.29435 6.64436,0 0,4.14296 c 0.0782,-1.17254 0.70352,-2.18873 2.03239,-3.20493 1.25071,-0.93803 2.65775,-1.40704 4.06479,-1.40704 l 2.50141,0 0,5.86267 z"
         style="fill:#000000;fill-opacity:1;fill-rule:evenodd;stroke:none"
         inkscape:connector-curvature="0" />
      <path
         id="path3806"
         d="m 467.21578,486.289 0,6.87886 c 0,1.48521 -0.23451,2.73592 -0.70353,3.83028 -0.46901,1.09437 -1.09436,1.87606 -1.79788,2.50141 -0.70352,0.62535 -1.56338,1.0162 -2.73591,1.40704 -1.17254,0.31268 -2.18873,0.46901 -3.12676,0.54718 -0.93803,0.0782 -2.03239,0.15634 -3.36127,0.15634 -1.40704,0 -2.5014,-0.0782 -3.43943,-0.15634 -0.93803,-0.0782 -2.03239,-0.2345 -3.12676,-0.54718 -1.17253,-0.39084 -2.11056,-0.78169 -2.81408,-1.40704 -0.70352,-0.62535 -1.2507,-1.40704 -1.71972,-2.50141 -0.46901,-1.09436 -0.70352,-2.34507 -0.70352,-3.83028 l 0,-6.87886 c 0,-1.64155 0.23451,-2.97042 0.70352,-4.06479 0.46902,-1.17253 1.09437,-2.03239 1.79789,-2.65774 0.78169,-0.62535 1.71972,-1.09437 2.81408,-1.40704 1.17254,-0.31268 2.18873,-0.54719 3.12676,-0.62535 0.93803,-0.0782 2.03239,-0.15634 3.36126,-0.15634 1.25071,0 2.34507,0.0782 3.2831,0.15634 0.93803,0.0782 1.95422,0.31267 3.12676,0.62535 1.09436,0.31267 2.03239,0.78169 2.81408,1.40704 0.70352,0.62535 1.2507,1.48521 1.79788,2.65774 0.46902,1.09437 0.70353,2.42324 0.70353,4.06479 z m -6.95704,7.66055 0,-8.75492 c 0,-1.2507 -0.31268,-2.11056 -0.93803,-2.65774 -0.70352,-0.54718 -1.95422,-0.78169 -3.83028,-0.78169 -1.95422,0 -3.20492,0.23451 -3.83027,0.78169 -0.70352,0.54718 -1.0162,1.40704 -1.0162,2.65774 l 0,8.75492 c 0,1.25071 0.31268,2.11057 0.93803,2.57958 0.62535,0.46901 1.95422,0.70352 3.90844,0.70352 1.87606,0 3.20493,-0.23451 3.83028,-0.70352 0.62535,-0.46901 0.93803,-1.32887 0.93803,-2.57958 z"
         style="fill:#000000;fill-opacity:1;fill-rule:evenodd;stroke:none"
         inkscape:connector-curvature="0" />
      <path
         id="path3808"
         d="m 492.69885,492.0735 0,2.89225 c 0,1.17253 -0.23451,2.18873 -0.70352,2.97042 -0.39084,0.85986 -0.93803,1.48521 -1.56338,1.95422 -0.70352,0.46902 -1.56338,0.85986 -2.57957,1.09437 -1.09437,0.23451 -2.11056,0.39084 -3.04859,0.46901 -1.0162,0.0782 -2.11056,0.15634 -3.43944,0.15634 -2.5014,0 -5.54999,-0.23451 -9.14576,-0.70352 l 0,-4.69014 c 4.45563,0.70352 7.50422,1.0162 9.22393,1.0162 1.40704,0 2.42324,-0.15634 3.20493,-0.39084 0.78169,-0.31268 1.09437,-0.85986 1.09437,-1.64155 l 0,-1.40704 c 0,-0.78169 -0.15634,-1.32888 -0.54719,-1.64155 -0.46901,-0.39085 -1.32887,-0.62535 -2.73591,-0.62535 l -3.04859,0 c -2.42324,0 -4.29929,-0.46902 -5.62816,-1.40704 -1.32888,-1.0162 -2.0324,-2.42324 -2.0324,-4.2993 l 0,-2.81408 c 0,-2.11056 1.0162,-3.59577 2.97042,-4.37746 2.0324,-0.78169 4.92465,-1.2507 8.59859,-1.2507 1.48521,0 4.22112,0.15634 8.20774,0.46901 l 0,4.45563 c -5.00282,-0.39084 -7.8169,-0.54718 -8.44225,-0.54718 -1.95422,0 -3.20493,0.0782 -3.67394,0.39084 -0.54718,0.23451 -0.78169,0.78169 -0.78169,1.56338 l 0,1.25071 c 0,0.39084 0.23451,0.70352 0.62535,1.01619 0.39085,0.31268 1.0162,0.46902 1.79789,0.46902 l 3.12676,0 c 5.62816,0 8.52041,1.87605 8.52041,5.62816 z"
         style="fill:#000000;fill-opacity:1;fill-rule:evenodd;stroke:none"
         inkscape:connector-curvature="0" />
      <path
         id="path3810"
         d="m 517.86925,492.0735 0,2.89225 c 0,1.17253 -0.23451,2.18873 -0.62535,2.97042 -0.46901,0.85986 -1.0162,1.48521 -1.64155,1.95422 -0.70352,0.46902 -1.56338,0.85986 -2.57957,1.09437 -1.0162,0.23451 -2.11057,0.39084 -3.04859,0.46901 -0.93803,0.0782 -2.11056,0.15634 -3.43944,0.15634 -2.5014,0 -5.54999,-0.23451 -9.14576,-0.70352 l 0,-4.69014 c 4.45563,0.70352 7.50422,1.0162 9.22393,1.0162 1.40704,0 2.50141,-0.15634 3.20493,-0.39084 0.78169,-0.31268 1.17253,-0.85986 1.17253,-1.64155 l 0,-1.40704 c 0,-0.78169 -0.2345,-1.32888 -0.62535,-1.64155 -0.46901,-0.39085 -1.32887,-0.62535 -2.73591,-0.62535 l -2.97042,0 c -2.42324,0 -4.37746,-0.46902 -5.70633,-1.40704 -1.32888,-1.0162 -2.0324,-2.42324 -2.0324,-4.2993 l 0,-2.81408 c 0,-2.11056 1.0162,-3.59577 3.04859,-4.37746 1.95423,-0.78169 4.84648,-1.2507 8.52042,-1.2507 1.48521,0 4.29929,0.15634 8.20774,0.46901 l 0,4.45563 c -5.00282,-0.39084 -7.8169,-0.54718 -8.44225,-0.54718 -1.95422,0 -3.12676,0.0782 -3.67394,0.39084 -0.54718,0.23451 -0.78169,0.78169 -0.78169,1.56338 l 0,1.25071 c 0,0.39084 0.23451,0.70352 0.62535,1.01619 0.39085,0.31268 1.0162,0.46902 1.79789,0.46902 l 3.12676,0 c 5.62816,0 8.52041,1.87605 8.52041,5.62816 z"
         style="fill:#000000;fill-opacity:1;fill-rule:evenodd;stroke:none"
         inkscape:connector-curvature="0" />
      <path
         id="path3812"
         d="m 546.79176,485.19463 0,7.66056 c 0,3.20493 -0.93803,5.39366 -2.81408,6.72253 -1.87606,1.32887 -4.92465,2.03239 -9.22394,2.03239 -4.37746,0 -7.50422,-0.70352 -9.14576,-2.11056 -1.71972,-1.40704 -2.57958,-3.59577 -2.57958,-6.64436 l 0,-25.32674 7.03521,0 0,12.66337 c 0.39084,-1.09437 1.17253,-1.79789 2.34506,-2.18873 1.09437,-0.39085 2.81409,-0.62535 5.15915,-0.62535 2.0324,0 3.59578,0.2345 4.84648,0.46901 1.2507,0.39085 2.18873,0.85986 2.81408,1.64155 0.62535,0.70352 1.09437,1.48521 1.32887,2.34507 0.15634,0.85986 0.23451,2.03239 0.23451,3.36126 z m -6.95704,8.59859 0,-8.59859 c 0,-1.48521 -0.2345,-2.5014 -0.85985,-2.89225 -0.54719,-0.39084 -1.95423,-0.54718 -4.14296,-0.54718 -1.95422,0 -3.28309,0.23451 -3.90845,0.70352 -0.54718,0.54718 -0.85985,1.48521 -0.85985,2.73591 l 0,8.59859 c 0,1.32887 0.31267,2.2669 0.85985,2.73591 0.62536,0.46901 1.95423,0.70352 3.98662,0.70352 2.03239,0 3.36127,-0.23451 3.98662,-0.70352 0.62535,-0.46901 0.93802,-1.40704 0.93802,-2.73591 z"
         style="fill:#000000;fill-opacity:1;fill-rule:evenodd;stroke:none"
         inkscape:connector-curvature="0" />
      <path
         id="path3814"
         d="m 573.13469,501.1411 -6.80069,0 0,-2.11056 c -0.54719,0.93802 -1.25071,1.56337 -2.2669,1.95422 -0.93803,0.39084 -2.65775,0.62535 -5.23732,0.62535 -3.12676,0 -5.23732,-0.46901 -6.25352,-1.48521 -1.01619,-0.93803 -1.48521,-2.97042 -1.48521,-5.94084 0,-2.73591 0.46902,-4.69014 1.56338,-5.7845 1.0162,-1.0162 2.89225,-1.56338 5.62816,-1.56338 l 7.89507,0 0,-1.64155 c 0,-1.32887 -0.31268,-2.2669 -1.0162,-2.73591 -0.62535,-0.46901 -2.03239,-0.70352 -4.14295,-0.70352 -1.95423,0 -4.69014,0.15634 -8.12957,0.54718 l 0,-4.45563 c 2.65774,-0.23451 5.62816,-0.46901 8.83309,-0.46901 4.29929,0 7.26971,0.54718 8.98943,1.56338 1.64154,1.09436 2.42323,3.12675 2.42323,6.17534 l 0,16.02464 z m -6.95703,-5.94084 0,-4.5338 -4.84648,0 c -1.48521,0 -2.42323,0.15634 -2.81408,0.54718 -0.39084,0.31268 -0.62535,1.2507 -0.62535,2.81408 0,1.48521 0.23451,2.42324 0.62535,2.73592 0.39085,0.31267 1.40704,0.46901 3.04859,0.46901 0.78169,0 1.40704,0 1.79789,0 0.39084,-0.0782 0.78169,-0.0782 1.2507,-0.15634 0.39084,-0.0782 0.70352,-0.15634 0.85986,-0.31267 0.2345,-0.15634 0.39084,-0.31268 0.46901,-0.62536 0.15634,-0.2345 0.23451,-0.54718 0.23451,-0.93802 z"
         style="fill:#000000;fill-opacity:1;fill-rule:evenodd;stroke:none"
         inkscape:connector-curvature="0" />
      <path
         id="path3816"
         d="m 594.47482,483.24041 -2.34507,0 c -1.95423,0 -3.36127,0.23451 -4.37746,0.85986 -0.93803,0.62535 -1.40704,1.64155 -1.40704,3.04859 l 0,13.99224 -7.03521,0 0,-23.29435 6.64436,0 0,4.14296 c 0.0782,-1.17254 0.70352,-2.18873 2.03239,-3.20493 1.25071,-0.93803 2.65775,-1.40704 3.98662,-1.40704 l 2.50141,0 0,5.86267 z"
         style="fill:#000000;fill-opacity:1;fill-rule:evenodd;stroke:none"
         inkscape:connector-curvature="0" />
      <path
         id="path3818"
         d="m 598.61777,495.90378 0,5.23732 5.54999,0 0,-5.23732 -5.54999,0 z"
         style="fill:#000000;fill-opacity:1;fill-rule:evenodd;stroke:none"
         inkscape:connector-curvature="0" />
      <path
         id="path3820"
         d="m 615.58043,474.01647 -4.29929,0 0,-4.5338 4.29929,0 0,4.5338 z m 0,27.12463 -4.29929,0 0,-23.29435 4.29929,0 0,23.29435 z"
         style="fill:#000000;fill-opacity:1;fill-rule:evenodd;stroke:none"
         inkscape:connector-curvature="0" />
      <path
         id="path3822"
         d="m 643.56491,485.74182 0,8.0514 c 0,1.40704 -0.15634,2.65774 -0.54718,3.59577 -0.31268,1.01619 -0.78169,1.79788 -1.32887,2.34507 -0.54719,0.54718 -1.32887,0.93802 -2.34507,1.2507 -1.0162,0.31267 -1.95422,0.46901 -2.89225,0.54718 -0.85986,0 -2.11056,0.0782 -3.59577,0.0782 -1.87606,0 -3.43944,-0.0782 -4.45563,-0.23451 -1.09437,-0.0782 -2.11056,-0.39084 -3.20493,-0.93802 -1.09436,-0.46902 -1.87605,-1.25071 -2.2669,-2.34507 -0.54718,-1.09437 -0.78169,-2.50141 -0.78169,-4.29929 l 0,-8.0514 c 0,-1.56338 0.23451,-2.89226 0.62535,-3.90845 0.31268,-1.09437 0.78169,-1.87606 1.32888,-2.42324 0.46901,-0.62535 1.2507,-1.0162 2.26689,-1.32887 1.09437,-0.31268 2.0324,-0.46902 2.89226,-0.54718 0.85985,-0.0782 2.11056,-0.15634 3.59577,-0.15634 1.56338,0 2.73591,0.0782 3.59577,0.15634 0.93803,0.0782 1.87605,0.2345 2.89225,0.54718 1.0162,0.31267 1.79788,0.70352 2.34507,1.32887 0.54718,0.54718 0.93802,1.32887 1.32887,2.42324 0.39084,1.01619 0.54718,2.34507 0.54718,3.90845 z m -4.45563,8.67675 0,-9.45844 c 0,-2.11057 -0.39084,-3.43944 -1.2507,-3.98662 -0.85986,-0.46901 -2.50141,-0.70352 -5.00281,-0.70352 -2.42324,0 -4.14296,0.23451 -4.92465,0.70352 -0.93802,0.54718 -1.32887,1.87605 -1.32887,3.98662 l 0,9.45844 c 0,1.01619 0.0782,1.79788 0.31268,2.42324 0.2345,0.62535 0.62535,1.01619 1.2507,1.32887 0.62535,0.2345 1.2507,0.39084 1.87605,0.46901 0.62536,0.0782 1.56338,0.15634 2.81409,0.15634 1.2507,0 2.18873,-0.0782 2.81408,-0.15634 0.70352,-0.0782 1.2507,-0.23451 1.87605,-0.46901 0.62535,-0.31268 1.0162,-0.70352 1.25071,-1.32887 0.2345,-0.62536 0.31267,-1.40705 0.31267,-2.42324 z"
         style="fill:#000000;fill-opacity:1;fill-rule:evenodd;stroke:none"
         inkscape:connector-curvature="0" />
      <path
         id="path3824"
         d="m 462.68198,336.67364 0,104.66822 104.51187,0 0,-104.66822 -104.51187,0 z"
         style="fill:#000000;fill-opacity:1;fill-rule:evenodd;stroke:none"
         inkscape:connector-curvature="0" />
      <path
         id="path3826"
         d="m 462.68198,358.87362 0,10.39647 24.62321,0 16.41548,16.41548 7.58239,-7.58239 -19.3859,-19.3859 -29.23518,0.15634 z"
         style="fill:#ffe100;fill-opacity:1;fill-rule:evenodd;stroke:none"
         inkscape:connector-curvature="0" />
      <path
         id="path3828"
         d="m 526.07699,392.95528 -7.58239,7.50422 18.76055,18.76054 29.9387,0 0,-10.47463 -25.32673,0 -15.79013,-15.79013 z"
         style="fill:#ffe100;fill-opacity:1;fill-rule:evenodd;stroke:none"
         inkscape:connector-curvature="0" />
      <path
         id="path3830"
         d="m 538.03684,358.71728 -49.87179,50.18446 -25.48307,0 0,10.47464 29.86053,0 50.02813,-50.10629 24.62321,0 0,-10.55281 -29.15701,0 z"
         style="fill:#ffe100;fill-opacity:1;fill-rule:evenodd;stroke:none"
         inkscape:connector-curvature="0" />
      <path
         id="path3832"
         d="m 594.86566,543.97768 106.23159,88.56541"
         style="fill:none;stroke:#000000;stroke-width:3.59577131px;stroke-linecap:round;stroke-linejoin:round;stroke-opacity:1;stroke-dasharray:none"
         inkscape:connector-curvature="0" />
      <path
         id="path3834"
         d="M 429.38201,291.02298 323.15041,174.08224"
         style="fill:none;stroke:#000000;stroke-width:3.59577131px;stroke-linecap:round;stroke-linejoin:round;stroke-opacity:1;stroke-dasharray:none"
         inkscape:connector-curvature="0" />
      <path
         id="path3836"
         d="m 1003.8456,504.97138 c 13.0542,0 23.6852,-10.55281 23.6852,-23.60703 l 0,0 0,-123.11608 c 0,-13.05422 -10.631,-23.60702 -23.6852,-23.60702 l -165.64002,0 c -13.05421,0 -23.68519,10.5528 -23.68519,23.60702 l 0,0 0,123.11608 c 0,13.05422 10.63098,23.60703 23.68519,23.60703 l 0,0 165.64002,0 z"
         style="fill:#cadaa9;fill-opacity:1;fill-rule:evenodd;stroke:none"
         inkscape:connector-curvature="0" />
      <path
         id="path3838"
         d="m 1003.8456,504.97138 c 13.0542,0 23.6852,-10.55281 23.6852,-23.60703 l 0,0 0,-123.11608 c 0,-13.05422 -10.631,-23.60702 -23.6852,-23.60702 l -165.64002,0 c -13.05421,0 -23.68519,10.5528 -23.68519,23.60702 l 0,0 0,123.11608 c 0,13.05422 10.63098,23.60703 23.68519,23.60703 l 0,0 165.64002,0 z"
         style="fill:none;stroke:#000000;stroke-width:3.59577131px;stroke-linecap:round;stroke-linejoin:round;stroke-opacity:1;stroke-dasharray:none"
         inkscape:connector-curvature="0" />
      <text
         id="text3840"
         style="font-size:40.02249908px;font-style:normal;font-weight:normal;text-align:start;text-anchor:start;fill:#000000;font-family:Arial"
         y="431.49258"
         x="849.22742"
         xml:space="preserve">browser</text>
      <path
         id="path3842"
         d="m 193.07729,504.97138 c 13.05421,0 23.60702,-10.55281 23.60702,-23.60703 l 0,0 0,-123.11608 c 0,-13.05422 -10.55281,-23.60702 -23.60702,-23.60702 l -165.71816,0 c -13.054213,0 -23.6070207,10.5528 -23.6070207,23.60702 l 0,0 0,123.11608 c 0,13.05422 10.5528077,23.60703 23.6070207,23.60703 l 0,0 165.71816,0 z"
         style="fill:#cadaa9;fill-opacity:1;fill-rule:evenodd;stroke:none"
         inkscape:connector-curvature="0" />
      <path
         id="path3844"
         d="m 193.07729,504.97138 c 13.05421,0 23.60702,-10.55281 23.60702,-23.60703 l 0,0 0,-123.11608 c 0,-13.05422 -10.55281,-23.60702 -23.60702,-23.60702 l -165.71816,0 c -13.054213,0 -23.6070207,10.5528 -23.6070207,23.60702 l 0,0 0,123.11608 c 0,13.05422 10.5528077,23.60703 23.6070207,23.60703 l 0,0 165.71816,0 z"
         style="fill:none;stroke:#000000;stroke-width:3.59577131px;stroke-linecap:round;stroke-linejoin:round;stroke-opacity:1;stroke-dasharray:none"
         inkscape:connector-curvature="0" />
      <text
         id="text3846"
         style="font-size:40.02249908px;font-style:normal;font-weight:normal;text-align:start;text-anchor:start;fill:#000000;font-family:Arial"
         y="431.49258"
         x="51.278828"
         xml:space="preserve">mobile</text>
      <path
         id="path3848"
         d="m 417.50033,802.87322 c 13.05421,0 23.60702,-10.55281 23.60702,-23.60702 l 0,0 0,-123.11609 c 0,-13.05421 -10.55281,-23.60702 -23.60702,-23.60702 l 0,0 -165.71816,0 c -13.05422,0 -23.68519,10.55281 -23.68519,23.60702 l 0,0 0,123.11609 c 0,13.05421 10.63097,23.60702 23.68519,23.60702 l 0,0 165.71816,0 z"
         style="fill:#d2c9de;fill-opacity:1;fill-rule:evenodd;stroke:none"
         inkscape:connector-curvature="0" />
      <path
         id="path3850"
         d="m 417.50033,802.87322 c 13.05421,0 23.60702,-10.55281 23.60702,-23.60702 l 0,0 0,-123.11609 c 0,-13.05421 -10.55281,-23.60702 -23.60702,-23.60702 l 0,0 -165.71816,0 c -13.05422,0 -23.68519,10.55281 -23.68519,23.60702 l 0,0 0,123.11609 c 0,13.05421 10.63097,23.60702 23.68519,23.60702 l 0,0 165.71816,0 z"
         style="fill:none;stroke:#000000;stroke-width:3.59577131px;stroke-linecap:round;stroke-linejoin:round;stroke-opacity:1;stroke-dasharray:none"
         inkscape:connector-curvature="0" />
      <text
         id="text3852"
         style="font-size:40.02249908px;font-style:normal;font-weight:normal;text-align:start;text-anchor:start;fill:#000000;font-family:Arial"
         y="729.15991"
         x="278.9068"
         xml:space="preserve">server</text>
      <path
         id="path3854"
         d="m 843.13022,202.45756 c 13.05422,0 23.68519,-10.5528 23.68519,-23.60702 l 0,0 0,-123.116083 c 0,-13.054214 -10.63097,-23.68519 -23.68519,-23.68519 l 0,0 -165.63999,0 c -13.05421,0 -23.68519,10.630976 -23.68519,23.68519 l 0,0 0,123.116083 c 0,13.05422 10.63098,23.60702 23.68519,23.60702 l 0,0 165.63999,0 z"
         style="fill:#facca7;fill-opacity:1;fill-rule:evenodd;stroke:none"
         inkscape:connector-curvature="0" />
      <path
         id="path3856"
         d="m 843.13022,202.45756 c 13.05422,0 23.68519,-10.5528 23.68519,-23.60702 l 0,0 0,-123.116083 c 0,-13.054214 -10.63097,-23.68519 -23.68519,-23.68519 l 0,0 -165.63999,0 c -13.05421,0 -23.68519,10.630976 -23.68519,23.68519 l 0,0 0,123.116083 c 0,13.05422 10.63098,23.60702 23.68519,23.60702 l 0,0 165.63999,0 z"
         style="fill:none;stroke:#000000;stroke-width:3.59577131px;stroke-linecap:round;stroke-linejoin:round;stroke-opacity:1;stroke-dasharray:none"
         inkscape:connector-curvature="0" />
      <text
         id="text3858"
         style="font-size:40.02249908px;font-style:normal;font-weight:normal;text-align:start;text-anchor:start;fill:#000000;font-family:Arial"
         y="128.82242"
         x="667.87543"
         xml:space="preserve">IoT device</text>
      <path
         id="path3860"
         d="M 814.52039,419.76723 677.5684,420.93976"
         style="fill:none;stroke:#000000;stroke-width:3.59577131px;stroke-linecap:round;stroke-linejoin:round;stroke-opacity:1;stroke-dasharray:none"
         inkscape:connector-curvature="0" />
      <path
         id="path3862"
         d="m 334.64125,632.54309 94.74076,-81.76471"
         style="fill:none;stroke:#000000;stroke-width:3.59577131px;stroke-linecap:round;stroke-linejoin:round;stroke-opacity:1;stroke-dasharray:none"
         inkscape:connector-curvature="0" />
      <path
         id="path3864"
         d="m 216.68431,419.76723 121.86538,1.17253"
         style="fill:none;stroke:#000000;stroke-width:3.59577131px;stroke-linecap:round;stroke-linejoin:round;stroke-opacity:1;stroke-dasharray:none"
         inkscape:connector-curvature="0" />
      <path
         id="path3866"
         d="m 703.59866,202.45756 -108.733,88.56542"
         style="fill:none;stroke:#000000;stroke-width:3.59577131px;stroke-linecap:round;stroke-linejoin:round;stroke-opacity:1;stroke-dasharray:none"
         inkscape:connector-curvature="0" />
      <path
         id="path3868"
         d="m 783.95633,802.87322 c 13.05422,0 23.60703,-10.55281 23.60703,-23.60702 l 0,0 0,-123.11609 c 0,-13.05421 -10.55281,-23.60702 -23.60703,-23.60702 l 0,0 -165.71816,0 c -13.05421,0 -23.60702,10.55281 -23.60702,23.60702 l 0,0 0,123.11609 c 0,13.05421 10.55281,23.60702 23.60702,23.60702 l 0,0 165.71816,0 z"
         style="fill:#d2c9de;fill-opacity:1;fill-rule:evenodd;stroke:none"
         inkscape:connector-curvature="0" />
      <path
         id="path3870"
         d="m 783.95633,802.87322 c 13.05422,0 23.60703,-10.55281 23.60703,-23.60702 l 0,0 0,-123.11609 c 0,-13.05421 -10.55281,-23.60702 -23.60703,-23.60702 l 0,0 -165.71816,0 c -13.05421,0 -23.60702,10.55281 -23.60702,23.60702 l 0,0 0,123.11609 c 0,13.05421 10.55281,23.60702 23.60702,23.60702 l 0,0 165.71816,0 z"
         style="fill:none;stroke:#000000;stroke-width:3.59577131px;stroke-linecap:round;stroke-linejoin:round;stroke-opacity:1;stroke-dasharray:none"
         inkscape:connector-curvature="0" />
      <text
         id="text3872"
         style="font-size:40.02249908px;font-style:normal;font-weight:normal;text-align:start;text-anchor:start;fill:#000000;font-family:Arial"
         y="729.15991"
         x="619.09802"
         xml:space="preserve">database</text>
      <path
         id="path3874"
         d="m 406.00949,174.08224 c 13.05422,0 23.68519,-10.55281 23.68519,-23.60702 l 0,0 0,-123.11609 c 0,-13.054213 -10.63097,-23.6070207 -23.68519,-23.6070207 l 0,0 -165.71816,0 c -13.05421,0 -23.60702,10.5528077 -23.60702,23.6070207 l 0,0 0,123.11609 c 0,13.05421 10.55281,23.60702 23.60702,23.60702 l 0,0 165.71816,0 z"
         style="fill:#facca7;fill-opacity:1;fill-rule:evenodd;stroke:none"
         inkscape:connector-curvature="0" />
      <path
         id="path3876"
         d="m 406.00949,174.08224 c 13.05422,0 23.68519,-10.55281 23.68519,-23.60702 l 0,0 0,-123.11609 c 0,-13.054213 -10.63097,-23.6070207 -23.68519,-23.6070207 l 0,0 -165.71816,0 c -13.05421,0 -23.60702,10.5528077 -23.60702,23.6070207 l 0,0 0,123.11609 c 0,13.05421 10.55281,23.60702 23.60702,23.60702 l 0,0 165.71816,0 z"
         style="fill:none;stroke:#000000;stroke-width:3.59577131px;stroke-linecap:round;stroke-linejoin:round;stroke-opacity:1;stroke-dasharray:none"
         inkscape:connector-curvature="0" />
      <text
         id="text3878"
         style="font-size:40.02249908px;font-style:normal;font-weight:normal;text-align:start;text-anchor:start;fill:#000000;font-family:Arial"
         y="101.30695"
         x="231.38007"
         xml:space="preserve">IoT device</text>
      <path
         id="path3880"
         d="m 648.09871,543.97768 c 13.05421,0 23.68519,-10.63098 23.68519,-23.68519 l 0,0 0,-198.00194 c 0,-13.05421 -10.63098,-23.60702 -23.68519,-23.60702 l 0,0 -274.13848,0 c -13.05422,0 -23.68519,10.55281 -23.68519,23.60702 l 0,0 0,198.00194 c 0,13.05421 10.63097,23.68519 23.68519,23.68519 l 0,0 274.13848,0 z"
         style="fill:#d9d9d9;fill-opacity:1;fill-rule:evenodd;stroke:none"
         inkscape:connector-curvature="0" />
      <path
         id="path3882"
         d="m 648.09871,543.97768 c 13.05421,0 23.68519,-10.63098 23.68519,-23.68519 l 0,0 0,-198.00194 c 0,-13.05421 -10.63098,-23.60702 -23.68519,-23.60702 l 0,0 -274.13848,0 c -13.05422,0 -23.68519,10.55281 -23.68519,23.60702 l 0,0 0,198.00194 c 0,13.05421 10.63097,23.68519 23.68519,23.68519 l 0,0 274.13848,0 z"
         style="fill:none;stroke:#000000;stroke-width:3.59577131px;stroke-linecap:round;stroke-linejoin:round;stroke-opacity:1;stroke-dasharray:none"
         inkscape:connector-curvature="0" />
      <text
         id="text3884"
         style="font-size:30.01687431px;font-style:normal;font-weight:normal;text-align:start;text-anchor:start;fill:#000000;font-family:Arial"
         y="412.73203"
         x="464.01086"
         xml:space="preserve">WAMP </text>
      <text
         id="text3886"
         style="font-size:30.01687431px;font-style:normal;font-weight:normal;text-align:start;text-anchor:start;fill:#000000;font-family:Arial"
         y="447.75171"
         x="466.51224"
         xml:space="preserve">Router</text>
      <path
         id="path3888"
         d="m 653.96138,550.77838 c 13.05422,0 23.60702,-10.55281 23.60702,-23.60702 l 0,0 0,-212.46319 c 0,-13.05422 -10.5528,-23.68519 -23.60702,-23.68519 l 0,0 -291.80466,0 c -13.05422,0 -23.60703,10.63097 -23.60703,23.68519 l 0,212.46319 c 0,13.05421 10.55281,23.60702 23.60703,23.60702 l 291.80466,0 z"
         style="fill:#ffe100;fill-opacity:1;fill-rule:evenodd;stroke:none"
         inkscape:connector-curvature="0" />
      <path
         id="path3890"
         d="m 653.96138,550.77838 c 13.05422,0 23.60702,-10.55281 23.60702,-23.60702 l 0,0 0,-212.46319 c 0,-13.05422 -10.5528,-23.68519 -23.60702,-23.68519 l 0,0 -291.80466,0 c -13.05422,0 -23.60703,10.63097 -23.60703,23.68519 l 0,212.46319 c 0,13.05421 10.55281,23.60702 23.60703,23.60702 l 291.80466,0 z"
         style="fill:none;stroke:#ffc000;stroke-width:5.23731899px;stroke-linecap:round;stroke-linejoin:round;stroke-opacity:1;stroke-dasharray:none"
         inkscape:connector-curvature="0" />
      <path
         id="path3892"
         d="m 404.9933,510.36503 c -3.98662,0.78169 -7.73873,1.17254 -11.3345,1.17254 -1.40704,0 -2.81408,-0.0782 -4.06479,-0.15634 -1.32887,-0.15634 -2.73591,-0.39085 -4.29929,-0.85986 -1.56338,-0.39084 -2.89225,-0.93803 -3.98661,-1.64155 -1.09437,-0.70352 -2.0324,-1.71971 -2.81409,-2.97042 -0.70352,-1.32887 -1.09436,-2.81408 -1.09436,-4.5338 l 0,-15.39928 c 0,-7.0352 5.39366,-10.55281 16.25914,-10.55281 2.65774,0 6.33168,0.39085 11.09999,1.17254 l 0,6.33168 c -4.29929,-1.01619 -7.97323,-1.56338 -11.02182,-1.56338 -1.17254,0 -2.18873,0.0782 -2.97042,0.15634 -0.78169,0.0782 -1.56338,0.23451 -2.42324,0.46902 -0.85986,0.31267 -1.48521,0.78169 -1.87605,1.40704 -0.46902,0.62535 -0.62535,1.48521 -0.62535,2.5014 l 0,14.93027 c 0,3.12676 2.89225,4.69014 8.67675,4.69014 2.57957,0 6.01901,-0.46902 10.47464,-1.56338 l 0,6.40985 z"
         style="fill:#000000;fill-opacity:1;fill-rule:evenodd;stroke:none"
         inkscape:connector-curvature="0" />
      <path
         id="path3894"
         d="m 427.19328,490.8228 -2.65775,0 c -2.18873,0 -3.83028,0.31267 -4.92464,1.01619 -1.09437,0.70352 -1.64155,1.79789 -1.64155,3.43944 l 0,15.71195 -7.89506,0 0,-26.18659 7.50422,0 0,4.61197 c 0.0782,-1.25071 0.78169,-2.50141 2.2669,-3.51761 1.48521,-1.09436 2.97042,-1.56338 4.53379,-1.56338 l 2.81409,0 0,6.48803 z"
         style="fill:#000000;fill-opacity:1;fill-rule:evenodd;stroke:none"
         inkscape:connector-curvature="0" />
      <path
         id="path3896"
         d="m 457.28832,494.26223 0,7.81689 c 0,1.64155 -0.23451,3.12676 -0.78169,4.2993 -0.54718,1.17253 -1.2507,2.11056 -2.03239,2.81408 -0.78169,0.70352 -1.79789,1.17253 -3.04859,1.56338 -1.32887,0.31267 -2.50141,0.54718 -3.5176,0.62535 -1.09437,0.15634 -2.34507,0.15634 -3.90845,0.15634 -1.48521,0 -2.73591,0 -3.83028,-0.15634 -1.09436,-0.0782 -2.2669,-0.31268 -3.5176,-0.62535 -1.2507,-0.39085 -2.34507,-0.85986 -3.12676,-1.56338 -0.78169,-0.70352 -1.40704,-1.64155 -1.95422,-2.81408 -0.54719,-1.17254 -0.85986,-2.65775 -0.85986,-4.2993 l 0,-7.81689 c 0,-1.79789 0.31267,-3.2831 0.85986,-4.61197 0.54718,-1.2507 1.2507,-2.18873 2.03239,-2.89225 0.85986,-0.70352 1.87605,-1.2507 3.20493,-1.64155 1.2507,-0.39084 2.42323,-0.54718 3.43943,-0.70352 1.09437,-0.0782 2.2669,-0.0782 3.75211,-0.0782 1.48521,0 2.73591,0 3.75211,0.0782 1.01619,0.15634 2.18873,0.31268 3.5176,0.70352 1.32887,0.39085 2.34507,0.93803 3.12676,1.64155 0.78169,0.70352 1.48521,1.64155 2.03239,2.89225 0.54718,1.32887 0.85986,2.81408 0.85986,4.61197 z m -7.89506,8.67675 0,-9.92745 c 0,-1.32888 -0.31268,-2.34507 -1.0162,-2.97042 -0.78169,-0.54719 -2.18873,-0.85986 -4.37746,-0.85986 -2.11056,0 -3.59577,0.31267 -4.29929,0.85986 -0.70352,0.62535 -1.09437,1.64154 -1.09437,2.97042 l 0,9.92745 c 0,1.40704 0.39085,2.34507 1.09437,2.89225 0.70352,0.54719 2.11056,0.78169 4.29929,0.78169 2.18873,0 3.67394,-0.2345 4.37746,-0.78169 0.70352,-0.54718 1.0162,-1.48521 1.0162,-2.89225 z"
         style="fill:#000000;fill-opacity:1;fill-rule:evenodd;stroke:none"
         inkscape:connector-curvature="0" />
      <path
         id="path3898"
         d="m 485.97632,500.82842 0,3.2831 c 0,1.2507 -0.2345,2.42323 -0.78169,3.28309 -0.46901,1.0162 -1.01619,1.71972 -1.79788,2.2669 -0.70352,0.46902 -1.71972,0.85986 -2.89225,1.17254 -1.17254,0.31267 -2.34507,0.46901 -3.43944,0.54718 -1.09436,0.15634 -2.34507,0.15634 -3.83028,0.15634 -2.89225,0 -6.25351,-0.23451 -10.3183,-0.78169 l 0,-5.23732 c 5.00282,0.70352 8.44225,1.09436 10.39647,1.09436 1.56338,0 2.73592,-0.15633 3.59577,-0.46901 0.85986,-0.31268 1.25071,-0.85986 1.25071,-1.79789 l 0,-1.64154 c 0,-0.78169 -0.23451,-1.40705 -0.70352,-1.79789 -0.46902,-0.46901 -1.48521,-0.70352 -2.97042,-0.70352 l -3.43944,0 c -2.73591,0 -4.84647,-0.46901 -6.40985,-1.64155 -1.48521,-1.09436 -2.2669,-2.65774 -2.2669,-4.7683 l 0,-3.20493 c 0,-2.42324 1.17254,-4.06479 3.36127,-4.92464 2.26689,-0.93803 5.47182,-1.32888 9.61478,-1.32888 1.71971,0 4.84647,0.15634 9.3021,0.46902 l 0,5.00281 c -5.62816,-0.39084 -8.75492,-0.62535 -9.45844,-0.62535 -2.18873,0 -3.59577,0.15634 -4.22113,0.46901 -0.54718,0.23451 -0.85985,0.85986 -0.85985,1.71972 l 0,1.40704 c 0,0.46901 0.2345,0.85986 0.70352,1.17253 0.46901,0.39085 1.17253,0.54719 2.03239,0.54719 l 3.5176,0 c 6.40986,0 9.61478,2.11056 9.61478,6.33168 z"
         style="fill:#000000;fill-opacity:1;fill-rule:evenodd;stroke:none"
         inkscape:connector-curvature="0" />
      <path
         id="path3900"
         d="m 514.35165,500.82842 0,3.2831 c 0,1.2507 -0.31268,2.42323 -0.78169,3.28309 -0.46901,1.0162 -1.09437,1.71972 -1.79789,2.2669 -0.78169,0.46902 -1.71971,0.85986 -2.89225,1.17254 -1.17253,0.31267 -2.34507,0.46901 -3.43943,0.54718 -1.09437,0.15634 -2.42324,0.15634 -3.83028,0.15634 -2.89225,0 -6.33168,-0.23451 -10.3183,-0.78169 l 0,-5.23732 c 5.00281,0.70352 8.44225,1.09436 10.39647,1.09436 1.56338,0 2.73591,-0.15633 3.59577,-0.46901 0.85986,-0.31268 1.2507,-0.85986 1.2507,-1.79789 l 0,-1.64154 c 0,-0.78169 -0.2345,-1.40705 -0.70352,-1.79789 -0.46901,-0.46901 -1.48521,-0.70352 -3.04859,-0.70352 l -3.36126,0 c -2.73591,0 -4.84647,-0.46901 -6.40985,-1.64155 -1.48521,-1.09436 -2.2669,-2.65774 -2.2669,-4.7683 l 0,-3.20493 c 0,-2.42324 1.09436,-4.06479 3.36126,-4.92464 2.2669,-0.93803 5.47183,-1.32888 9.61478,-1.32888 1.71972,0 4.84648,0.15634 9.30211,0.46902 l 0,5.00281 c -5.62817,-0.39084 -8.75493,-0.62535 -9.45845,-0.62535 -2.2669,0 -3.59577,0.15634 -4.22112,0.46901 -0.54718,0.23451 -0.85986,0.85986 -0.85986,1.71972 l 0,1.40704 c 0,0.46901 0.23451,0.85986 0.70352,1.17253 0.46902,0.39085 1.17254,0.54719 2.0324,0.54719 l 3.5176,0 c 6.40985,0 9.61478,2.11056 9.61478,6.33168 z"
         style="fill:#000000;fill-opacity:1;fill-rule:evenodd;stroke:none"
         inkscape:connector-curvature="0" />
      <path
         id="path3902"
         d="m 546.9481,493.0897 0,8.59858 c 0,3.59577 -1.09437,6.09718 -3.20493,7.58239 -2.11056,1.48521 -5.54999,2.2669 -10.3183,2.2669 -5.00281,0 -8.52041,-0.78169 -10.39647,-2.34507 -1.87605,-1.56338 -2.89225,-4.06479 -2.89225,-7.50422 l 0,-28.53166 7.89506,0 0,14.30491 c 0.46902,-1.2507 1.32888,-2.03239 2.65775,-2.5014 1.2507,-0.39085 3.20492,-0.62536 5.86267,-0.62536 2.18873,0 3.98661,0.15634 5.39366,0.46902 1.40704,0.39084 2.5014,1.01619 3.20492,1.79788 0.70352,0.78169 1.25071,1.71972 1.48521,2.65775 0.23451,1.01619 0.31268,2.2669 0.31268,3.83028 z m -7.89507,9.61478 0,-9.69295 c 0,-1.64155 -0.31267,-2.73592 -0.93802,-3.20493 -0.62535,-0.39084 -2.18873,-0.62535 -4.69014,-0.62535 -2.18873,0 -3.67394,0.23451 -4.37746,0.85986 -0.62535,0.54718 -1.0162,1.56338 -1.0162,2.97042 l 0,9.69295 c 0,1.56337 0.31268,2.65774 1.0162,3.12675 0.70352,0.54719 2.18873,0.78169 4.45563,0.78169 2.2669,0 3.83028,-0.2345 4.5338,-0.78169 0.70352,-0.46901 1.01619,-1.56338 1.01619,-3.12675 z"
         style="fill:#000000;fill-opacity:1;fill-rule:evenodd;stroke:none"
         inkscape:connector-curvature="0" />
      <path
         id="path3904"
         d="m 576.6523,510.99038 -7.73873,0 0,-2.34506 c -0.62535,1.01619 -1.40704,1.79788 -2.50141,2.18873 -1.09436,0.46901 -3.04858,0.70352 -5.94083,0.70352 -3.51761,0 -5.86268,-0.54719 -7.03521,-1.64155 -1.17253,-1.09437 -1.71972,-3.2831 -1.71972,-6.72253 0,-3.12676 0.54719,-5.23732 1.79789,-6.48802 1.17253,-1.17254 3.28309,-1.79789 6.33168,-1.79789 l 8.91126,0 0,-1.79788 c 0,-1.56338 -0.39084,-2.57958 -1.17253,-3.12676 -0.70352,-0.54718 -2.2669,-0.78169 -4.61197,-0.78169 -2.2669,0 -5.31549,0.23451 -9.22393,0.62535 l 0,-5.00281 c 2.97042,-0.31268 6.33168,-0.46902 10.00562,-0.46902 4.84648,0 8.20774,0.54719 10.08379,1.71972 1.79789,1.17253 2.81409,3.5176 2.81409,6.95704 l 0,17.97885 z m -7.89507,-6.72253 0,-5.00281 -5.47182,0 c -1.71972,0 -2.73592,0.15634 -3.20493,0.54718 -0.39084,0.39085 -0.62535,1.48521 -0.62535,3.20493 0,1.64155 0.23451,2.73591 0.62535,3.04859 0.46901,0.39085 1.64155,0.54718 3.43943,0.54718 0.93803,0 1.56338,0 2.0324,0 0.39084,0 0.85985,-0.0782 1.40704,-0.15633 0.46901,-0.0782 0.85986,-0.15634 1.01619,-0.39085 0.23451,-0.15634 0.39085,-0.31268 0.54719,-0.62535 0.15633,-0.31268 0.2345,-0.70352 0.2345,-1.17254 z"
         style="fill:#000000;fill-opacity:1;fill-rule:evenodd;stroke:none"
         inkscape:connector-curvature="0" />
      <path
         id="path3906"
         d="m 600.65016,490.8228 -2.73591,0 c -2.11056,0 -3.75211,0.31267 -4.84648,1.01619 -1.09436,0.70352 -1.64154,1.79789 -1.64154,3.43944 l 0,15.71195 -7.89507,0 0,-26.18659 7.50422,0 0,4.61197 c 0.0782,-1.25071 0.78169,-2.50141 2.2669,-3.51761 1.40704,-1.09436 2.97042,-1.56338 4.5338,-1.56338 l 2.81408,0 0,6.48803 z"
         style="fill:#000000;fill-opacity:1;fill-rule:evenodd;stroke:none"
         inkscape:connector-curvature="0" />
      <path
         id="path3908"
         d="m 605.26213,505.20588 0,5.7845 6.25352,0 0,-5.7845 -6.25352,0 z"
         style="fill:#000000;fill-opacity:1;fill-rule:evenodd;stroke:none"
         inkscape:connector-curvature="0" />
      <path
         id="path3910"
         d="m 624.41352,480.42633 -4.92464,0 0,-5.00282 4.92464,0 0,5.00282 z m 0,30.56405 -4.92464,0 0,-26.18659 4.92464,0 0,26.18659 z"
         style="fill:#000000;fill-opacity:1;fill-rule:evenodd;stroke:none"
         inkscape:connector-curvature="0" />
      <path
         id="path3912"
         d="m 655.91561,493.63688 0,9.0676 c 0,1.64154 -0.23451,3.04858 -0.62536,4.14295 -0.39084,1.09437 -0.85985,1.95422 -1.48521,2.57957 -0.62535,0.62536 -1.48521,1.09437 -2.57957,1.40705 -1.17254,0.31267 -2.2669,0.54718 -3.2831,0.62535 -1.01619,0.0782 -2.42323,0.0782 -4.06478,0.0782 -2.18873,0 -3.83028,-0.0782 -5.08098,-0.23451 -1.17254,-0.0782 -2.42324,-0.46901 -3.59577,-1.0162 -1.17254,-0.54718 -2.11057,-1.48521 -2.57958,-2.73591 -0.54718,-1.17253 -0.78169,-2.81408 -0.78169,-4.84647 l 0,-9.0676 c 0,-1.71972 0.23451,-3.20493 0.62535,-4.37746 0.39085,-1.17254 0.85986,-2.11056 1.48521,-2.73592 0.62535,-0.62535 1.48521,-1.17253 2.57958,-1.48521 1.17253,-0.31267 2.2669,-0.54718 3.28309,-0.62535 0.93803,-0.0782 2.34507,-0.0782 4.06479,-0.0782 1.71971,0 3.04859,0 4.06478,0.0782 1.0162,0.0782 2.0324,0.31268 3.20493,0.62535 1.17253,0.31268 2.03239,0.85986 2.57957,1.48521 0.62536,0.62536 1.17254,1.56338 1.56338,2.73592 0.39085,1.17253 0.62536,2.65774 0.62536,4.37746 z m -5.00282,9.77112 0,-10.55281 c 0,-2.42324 -0.46901,-3.90845 -1.40704,-4.5338 -1.01619,-0.54718 -2.89225,-0.85986 -5.62816,-0.85986 -2.81408,0 -4.69014,0.31268 -5.62817,0.85986 -0.93802,0.62535 -1.40704,2.11056 -1.40704,4.5338 l 0,10.55281 c 0,1.17253 0.0782,2.11056 0.31268,2.73591 0.23451,0.70352 0.70352,1.2507 1.40704,1.48521 0.70352,0.39084 1.40704,0.54718 2.11056,0.62535 0.70352,0.0782 1.79789,0.0782 3.20493,0.0782 1.40704,0 2.5014,0 3.20492,-0.0782 0.70352,-0.0782 1.40705,-0.23451 2.0324,-0.62535 0.70352,-0.23451 1.17253,-0.78169 1.40704,-1.48521 0.31267,-0.62535 0.39084,-1.56338 0.39084,-2.73591 z"
         style="fill:#000000;fill-opacity:1;fill-rule:evenodd;stroke:none"
         inkscape:connector-curvature="0" />
      <path
         id="path3914"
         d="m 452.20734,325.80816 0,117.87876 117.72243,0 0,-117.87876 -117.72243,0 z"
         style="fill:#000000;fill-opacity:1;fill-rule:evenodd;stroke:none"
         inkscape:connector-curvature="0" />
      <path
         id="path3916"
         d="m 452.20734,350.74405 0,11.80351 27.6718,-0.0782 18.52604,18.44787 8.52042,-8.44224 -21.80914,-21.88731 -32.90912,0.15634 z"
         style="fill:#ffe100;fill-opacity:1;fill-rule:evenodd;stroke:none"
         inkscape:connector-curvature="0" />
      <path
         id="path3918"
         d="m 523.57558,389.125 -8.52041,8.52042 21.10561,21.18378 33.76899,0 0,-11.80351 -28.53167,0 -17.82252,-17.90069 z"
         style="fill:#ffe100;fill-opacity:1;fill-rule:evenodd;stroke:none"
         inkscape:connector-curvature="0" />
      <path
         id="path3920"
         d="m 537.02064,350.58771 -56.20347,56.51615 -28.60983,0 0,11.80351 33.61264,0 56.35981,-56.35981 27.74998,0 0,-11.95985 -32.90913,0 z"
         style="fill:#ffe100;fill-opacity:1;fill-rule:evenodd;stroke:none"
         inkscape:connector-curvature="0" />
      <path
         id="path3922"
         d="M 500.28124,104.27737 510.4432,291.02298"
         style="fill:none;stroke:#000000;stroke-width:3.59577131px;stroke-linecap:round;stroke-linejoin:round;stroke-opacity:1;stroke-dasharray:none"
         inkscape:connector-curvature="0" />
      <path
         id="path3924"
         d="m 479.01929,104.27737 42.60207,0 c 7.81689,0 14.14858,-6.331684 14.14858,-14.226747 0,0 0,0 0,0 l 0,-24.779555 c 0,-7.816895 -6.33169,-14.148579 -14.14858,-14.148579 l 0,0 -42.60207,0 c -7.8169,0 -14.14858,6.331684 -14.14858,14.148579 l 0,0 0,24.779555 c 0,7.895063 6.33168,14.226747 14.14858,14.226747 z"
         style="fill:#facca7;fill-opacity:1;fill-rule:evenodd;stroke:none"
         inkscape:connector-curvature="0" />
      <path
         id="path3926"
         d="m 479.01929,104.27737 42.60207,0 c 7.81689,0 14.14858,-6.331684 14.14858,-14.226747 0,0 0,0 0,0 l 0,-24.779555 c 0,-7.816895 -6.33169,-14.148579 -14.14858,-14.148579 l 0,0 -42.60207,0 c -7.8169,0 -14.14858,6.331684 -14.14858,14.148579 l 0,0 0,24.779555 c 0,7.895063 6.33168,14.226747 14.14858,14.226747 z"
         style="fill:none;stroke:#000000;stroke-width:2.0323925px;stroke-linecap:round;stroke-linejoin:round;stroke-opacity:1;stroke-dasharray:none"
         inkscape:connector-curvature="0" />
      <path
         id="path3928"
         d="M 883.23089,249.59344 677.5684,314.70817"
         style="fill:none;stroke:#000000;stroke-width:3.59577131px;stroke-linecap:round;stroke-linejoin:round;stroke-opacity:1;stroke-dasharray:none"
         inkscape:connector-curvature="0" />
      <path
         id="path3930"
         d="m 145.78508,133.19988 216.37164,157.8231"
         style="fill:none;stroke:#000000;stroke-width:3.59577131px;stroke-linecap:round;stroke-linejoin:round;stroke-opacity:1;stroke-dasharray:none"
         inkscape:connector-curvature="0" />
      <path
         id="path3932"
         d="m 159.93366,301.65395 42.60207,0 c 7.8169,0 14.14858,-6.40985 14.14858,-14.22674 0,0 0,0 0,0 l 0,-24.77956 c 0,-7.81689 -6.33168,-14.22675 -14.14858,-14.22675 l 0,0 -42.60207,0 c -7.8169,0 -14.14858,6.40986 -14.14858,14.22675 l 0,24.77956 c 0,7.81689 6.33168,14.22674 14.14858,14.22674 z"
         style="fill:#facca7;fill-opacity:1;fill-rule:evenodd;stroke:none"
         inkscape:connector-curvature="0" />
      <path
         id="path3934"
         d="m 159.93366,301.65395 42.60207,0 c 7.8169,0 14.14858,-6.40985 14.14858,-14.22674 0,0 0,0 0,0 l 0,-24.77956 c 0,-7.81689 -6.33168,-14.22675 -14.14858,-14.22675 l 0,0 -42.60207,0 c -7.8169,0 -14.14858,6.40986 -14.14858,14.22675 l 0,24.77956 c 0,7.81689 6.33168,14.22674 14.14858,14.22674 z"
         style="fill:none;stroke:#000000;stroke-width:2.0323925px;stroke-linecap:round;stroke-linejoin:round;stroke-opacity:1;stroke-dasharray:none"
         inkscape:connector-curvature="0" />
      <path
         id="path3936"
         d="m 216.68431,274.99834 121.86538,39.70983"
         style="fill:none;stroke:#000000;stroke-width:3.59577131px;stroke-linecap:round;stroke-linejoin:round;stroke-opacity:1;stroke-dasharray:none"
         inkscape:connector-curvature="0" />
      <path
         id="path3938"
         d="m 897.37947,276.24905 42.52391,0 c 7.89506,0 14.22674,-6.40986 14.22674,-14.22675 0,0 0,0 0,0 l 0,-24.77956 c 0,-7.89506 -6.33168,-14.22674 -14.22674,-14.22674 l 0,0 -42.52391,0 c -7.81689,0 -14.14858,6.33168 -14.14858,14.22674 l 0,0 0,24.77956 c 0,7.81689 6.33169,14.22675 14.14858,14.22675 z"
         style="fill:#facca7;fill-opacity:1;fill-rule:evenodd;stroke:none"
         inkscape:connector-curvature="0" />
      <path
         id="path3940"
         d="m 897.37947,276.24905 42.52391,0 c 7.89506,0 14.22674,-6.40986 14.22674,-14.22675 0,0 0,0 0,0 l 0,-24.77956 c 0,-7.89506 -6.33168,-14.22674 -14.22674,-14.22674 l 0,0 -42.52391,0 c -7.81689,0 -14.14858,6.33168 -14.14858,14.22674 l 0,0 0,24.77956 c 0,7.81689 6.33169,14.22675 14.14858,14.22675 z"
         style="fill:none;stroke:#000000;stroke-width:2.0323925px;stroke-linecap:round;stroke-linejoin:round;stroke-opacity:1;stroke-dasharray:none"
         inkscape:connector-curvature="0" />
      <path
         id="path3942"
         d="m 89.034427,159.77732 42.602073,0 c 7.8169,0 14.14858,-6.33168 14.14858,-14.14858 0,0 0,0 0,0 l 0,0 0,-24.77955 c 0,-7.89507 -6.33168,-14.22675 -14.14858,-14.22675 l -42.602073,0 c -7.816895,0 -14.148579,6.33168 -14.148579,14.22675 l 0,0 0,24.77955 c 0,7.8169 6.331684,14.14858 14.148579,14.14858 z"
         style="fill:#facca7;fill-opacity:1;fill-rule:evenodd;stroke:none"
         inkscape:connector-curvature="0" />
      <path
         id="path3944"
         d="m 89.034427,159.77732 42.602073,0 c 7.8169,0 14.14858,-6.33168 14.14858,-14.14858 0,0 0,0 0,0 l 0,0 0,-24.77955 c 0,-7.89507 -6.33168,-14.22675 -14.14858,-14.22675 l -42.602073,0 c -7.816895,0 -14.148579,6.33168 -14.148579,14.22675 l 0,0 0,24.77955 c 0,7.8169 6.331684,14.14858 14.148579,14.14858 z"
         style="fill:none;stroke:#000000;stroke-width:2.0323925px;stroke-linecap:round;stroke-linejoin:round;stroke-opacity:1;stroke-dasharray:none"
         inkscape:connector-curvature="0" />
      <path
         id="path3946"
         d="M 583.06215,202.37939 561.8002,291.02298"
         style="fill:none;stroke:#000000;stroke-width:3.59577131px;stroke-linecap:round;stroke-linejoin:round;stroke-opacity:1;stroke-dasharray:none"
         inkscape:connector-curvature="0" />
      <path
         id="path3948"
         d="m 561.8002,202.37939 42.5239,0 c 7.8169,0 14.14858,-6.40985 14.14858,-14.22674 0,0 0,0 0,0 l 0,0 0,-24.77956 c 0,-7.81689 -6.33168,-14.22675 -14.14858,-14.22675 l 0,0 -42.5239,0 c -7.89507,0 -14.22675,6.40986 -14.22675,14.22675 l 0,24.77956 c 0,7.81689 6.33168,14.22674 14.22675,14.22674 z"
         style="fill:#facca7;fill-opacity:1;fill-rule:evenodd;stroke:none"
         inkscape:connector-curvature="0" />
      <path
         id="path3950"
         d="m 561.8002,202.37939 42.5239,0 c 7.8169,0 14.14858,-6.40985 14.14858,-14.22674 0,0 0,0 0,0 l 0,0 0,-24.77956 c 0,-7.81689 -6.33168,-14.22675 -14.14858,-14.22675 l 0,0 -42.5239,0 c -7.89507,0 -14.22675,6.40986 -14.22675,14.22675 l 0,24.77956 c 0,7.81689 6.33168,14.22674 14.22675,14.22674 z"
         style="fill:none;stroke:#000000;stroke-width:2.0323925px;stroke-linecap:round;stroke-linejoin:round;stroke-opacity:1;stroke-dasharray:none"
         inkscape:connector-curvature="0" />
    </g>
  </g>
</svg>
