<?xml version="1.0" encoding="UTF-8" standalone="no"?>
<!-- Created with Inkscape (http://www.inkscape.org/) -->
<svg
   xmlns:svg="http://www.w3.org/2000/svg"
   xmlns="http://www.w3.org/2000/svg"
   version="1.0"
   width="750.00006"
   height="600.00006"
   id="svg3882">
  <defs
     id="defs3884" />
  <rect
     width="750.00006"
     height="600.00006"
     rx="37.500004"
     ry="37.500004"
     x="0"
     y="0"
     id="rect2398"
     style="fill:#000000;fill-opacity:1;stroke:none;stroke-width:22.5;stroke-linecap:square;stroke-linejoin:round;stroke-miterlimit:2;stroke-dasharray:none;stroke-dashoffset:0;stroke-opacity:1" />
  <path
     d="M 375.00003,31.250061 C 316.52503,31.250061 266.30315,39.874664 211.8837,71.294758 C 157.66474,102.59909 104.806,119.17825 31.250003,119.17825 L 31.250003,436.12426 C 31.250003,464.27909 31.304808,464.29051 49.78299,478.53015 C 82.069684,503.41087 375.00003,568.75007 375.00003,568.75007 C 375.00003,568.75007 667.93036,503.41087 700.21706,478.53015 C 718.69525,464.29051 718.75006,464.27909 718.75006,436.12426 L 718.75006,119.17825 C 645.19405,119.17825 592.3353,102.59909 538.11638,71.294758 C 483.69693,39.874664 433.47503,31.250061 375.00003,31.250061 z"
     id="rect4804"
     style="fill:#ffffff;fill-opacity:1;stroke:none;stroke-width:22.5;stroke-linecap:square;stroke-linejoin:round;stroke-miterlimit:2;stroke-dasharray:none;stroke-dashoffset:0;stroke-opacity:1" />
  <path
     d="M 222.90688,360.52396 L 222.90688,420.67963 L 185.08972,420.67963 L 185.08972,360.52396 L 65.492948,360.52396 L 65.492948,337.82267 L 185.08972,179.3204 L 222.90688,179.3204 L 222.90688,325.93885 L 245.97095,325.93885 L 245.97095,360.52396 L 222.90688,360.52396 z M 185.08972,235.15567 L 116.28227,325.93885 L 185.08972,325.93885 L 185.08972,235.15567 z M 469.91669,300.3573 C 469.9165,319.57379 467.63538,337.94734 463.07332,355.47801 C 458.5109,373.0088 452.02665,387.17923 443.62057,397.98933 C 430.17187,415.99646 410.72097,425.00001 385.26781,425.00002 C 368.21335,425.00001 354.16385,421.51879 343.11927,414.55632 C 332.07455,407.59388 322.95007,396.66649 315.7458,381.77412 C 310.70348,371.44774 306.62128,358.90067 303.4992,344.13286 C 300.37706,329.3652 298.816,314.77336 298.81603,300.3573 C 298.816,280.43014 301.15759,261.94116 305.84078,244.89029 C 310.52392,227.83979 316.9477,213.55026 325.11215,202.02169 C 332.3164,192.89742 340.90221,186.11269 350.86959,181.66748 C 360.83682,177.22274 372.78292,175.00025 386.70795,175.00001 C 402.07654,175.00025 415.16412,178.48331 425.97073,185.44919 C 436.77704,192.41555 446.02428,203.34111 453.71248,218.2259 C 458.75458,229.03623 462.71585,241.6456 465.5963,256.05405 C 468.47637,270.46283 469.9165,285.23057 469.91669,300.3573 L 469.91669,300.3573 z M 431.73675,300.3573 C 431.73659,286.67436 430.53649,274.00819 428.13642,262.35874 C 425.73606,250.70962 422.13207,240.80278 417.32445,232.63819 C 413.48397,226.39416 409.10312,221.83192 404.18189,218.95146 C 399.26041,216.0714 393.19757,214.38942 385.99338,213.90551 C 376.62693,213.42934 368.82165,215.59136 362.57752,220.39159 C 356.33321,225.19222 351.17,232.9975 347.08787,243.80745 C 343.96569,251.01193 341.62411,259.71683 340.06312,269.92218 C 338.502,280.12782 337.72147,290.27285 337.72153,300.3573 C 337.72147,313.32957 338.92158,325.81985 341.32186,337.82816 C 343.722,349.83665 347.32233,359.68119 352.12283,367.36183 C 355.97043,373.6061 360.5345,378.28927 365.81506,381.41134 C 371.09544,384.53349 377.57969,386.09455 385.26781,386.09451 C 394.15033,386.09455 401.5342,383.69433 407.41944,378.89386 C 413.30441,374.09348 418.28806,366.2882 422.37041,355.47801 C 423.5722,352.35596 424.77414,348.57425 425.97623,344.13286 C 427.17802,339.69162 428.19857,335.00845 429.03788,330.08334 C 429.87688,325.15841 430.53649,320.17476 431.01668,315.13237 C 431.49657,310.09019 431.73659,305.16517 431.73675,300.3573 L 431.73675,300.3573 z M 657.01271,360.52396 L 657.01271,420.67963 L 619.19555,420.67963 L 619.19555,360.52396 L 499.59878,360.52396 L 499.59878,337.82267 L 619.19555,179.3204 L 657.01271,179.3204 L 657.01271,325.93885 L 680.07678,325.93885 L 680.07678,360.52396 L 657.01271,360.52396 z M 619.19555,235.15567 L 550.38811,325.93885 L 619.19555,325.93885 L 619.19555,235.15567 z"
     id="text1421"
     style="font-size:5.40345669px;font-style:normal;font-weight:normal;line-height:125%;fill:#000000;fill-opacity:1;stroke:none;stroke-width:1px;stroke-linecap:butt;stroke-linejoin:miter;stroke-opacity:1;font-family:Bitstream Vera Sans" />
</svg>
