<?xml version="1.0" encoding="UTF-8" standalone="no"?>
<!-- Created with Inkscape (http://www.inkscape.org/) -->

<svg
   xmlns:dc="http://purl.org/dc/elements/1.1/"
   xmlns:cc="http://creativecommons.org/ns#"
   xmlns:rdf="http://www.w3.org/1999/02/22-rdf-syntax-ns#"
   xmlns:svg="http://www.w3.org/2000/svg"
   xmlns="http://www.w3.org/2000/svg"
   xmlns:sodipodi="http://sodipodi.sourceforge.net/DTD/sodipodi-0.dtd"
   xmlns:inkscape="http://www.inkscape.org/namespaces/inkscape"
   width="509.71875"
   height="468.09375"
   id="svg3854"
   version="1.1"
   inkscape:version="0.48.4 r9939"
   sodipodi:docname="pubsub_publish.svg">
  <defs
     id="defs3856" />
  <sodipodi:namedview
     id="base"
     pagecolor="#ffffff"
     bordercolor="#666666"
     borderopacity="1.0"
     inkscape:pageopacity="0.0"
     inkscape:pageshadow="2"
     inkscape:zoom="1.4"
     inkscape:cx="241.44611"
     inkscape:cy="250.03365"
     inkscape:document-units="px"
     inkscape:current-layer="layer1"
     showgrid="false"
     fit-margin-top="4"
     fit-margin-left="4"
     fit-margin-right="4"
     fit-margin-bottom="4"
     inkscape:window-width="1440"
     inkscape:window-height="838"
     inkscape:window-x="-8"
     inkscape:window-y="-8"
     inkscape:window-maximized="1" />
  <metadata
     id="metadata3859">
    <rdf:RDF>
      <cc:Work
         rdf:about="">
        <dc:format>image/svg+xml</dc:format>
        <dc:type
           rdf:resource="http://purl.org/dc/dcmitype/StillImage" />
        <dc:title />
      </cc:Work>
    </rdf:RDF>
  </metadata>
  <g
     inkscape:label="Ebene 1"
     inkscape:groupmode="layer"
     id="layer1"
     transform="translate(32.010579,-206.87595)">
    <path
       inkscape:connector-curvature="0"
       style="fill:#595959;fill-opacity:1;fill-rule:evenodd;stroke:none"
       d="m 88.965351,668.93099 c 13.040459,0 23.582139,-10.54169 23.582139,-23.58214 l 0,0 0,-63.17203 c 0,-13.04045 -10.54168,-23.58214 -23.582139,-23.58214 l 0,0 -90.736576,0 c -13.040454,0 -23.582139,10.54169 -23.582139,23.58214 l 0,0 0,63.17203 c 0,13.04045 10.541685,23.58214 23.582139,23.58214 l 0,0 90.736576,0 z"
       id="path3052" />
    <path
       inkscape:connector-curvature="0"
       style="fill:none;stroke:#000000;stroke-width:3.59198141px;stroke-linecap:round;stroke-linejoin:round;stroke-opacity:1;stroke-dasharray:none"
       d="m 88.965351,668.93099 c 13.040459,0 23.582139,-10.54169 23.582139,-23.58214 l 0,0 0,-63.17203 c 0,-13.04045 -10.54168,-23.58214 -23.582139,-23.58214 l 0,0 -90.736576,0 c -13.040454,0 -23.582139,10.54169 -23.582139,23.58214 l 0,0 0,63.17203 c 0,13.04045 10.541685,23.58214 23.582139,23.58214 l 0,0 90.736576,0 z"
       id="path3054" />
    <g
       style="font-size:23.73831177px;font-style:normal;font-weight:normal;text-align:start;text-anchor:start;fill:#ffffff;font-family:Arial"
       id="text3056">
      <path
         d="m 23.337875,607.24261 6.525718,-16.99236 2.422513,0 6.954584,16.99236 -2.561605,0 -1.982057,-5.14639 -7.105266,0 -1.866146,5.14639 z m 4.902982,-6.97776 5.760713,0 -1.773419,-4.70594 c -0.54092,-1.42954 -0.94274,-2.60409 -1.205461,-3.52365 -0.216372,1.08956 -0.521601,2.17139 -0.915687,3.24547 z"
         style="font-size:23.73831177px;font-style:normal;font-weight:normal;text-align:start;text-anchor:start;fill:#ffffff;font-family:Arial"
         id="path3204" />
      <path
         d="m 40.79388,611.96014 0,-17.02714 1.900919,0 0,1.59956 c 0.44818,-0.62591 0.954319,-1.09534 1.518418,-1.40831 0.564088,-0.31294 1.247955,-0.46942 2.051602,-0.46943 1.050906,10e-6 1.978183,0.27047 2.781833,0.81137 0.80363,0.54092 1.410224,1.30399 1.819783,2.28921 0.409535,0.98524 0.614309,2.06514 0.614321,3.23968 -1.2e-5,1.25956 -0.226036,2.39354 -0.678072,3.40195 -0.452059,1.00842 -1.10888,1.78115 -1.970465,2.3182 -0.861604,0.53704 -1.767631,0.80557 -2.718083,0.80557 -0.695465,0 -1.319445,-0.14682 -1.871942,-0.44046 -0.552508,-0.29364 -1.006487,-0.66455 -1.361939,-1.11273 l 0,5.99253 z m 1.889328,-10.80279 c -3e-6,1.58411 0.32068,2.7548 0.962051,3.51207 0.641362,0.75728 1.417956,1.13592 2.329785,1.13591 0.92727,10e-6 1.721251,-0.39216 2.381945,-1.17648 0.660676,-0.78432 0.991018,-1.99944 0.991028,-3.64536 -10e-6,-1.56864 -0.322625,-2.74319 -0.967846,-3.52366 -0.645239,-0.78044 -1.416038,-1.17067 -2.312399,-1.17068 -0.888647,1e-5 -1.674901,0.41535 -2.358763,1.24603 -0.683871,0.83069 -1.025804,2.03808 -1.025801,3.62217 z"
         style="font-size:23.73831177px;font-style:normal;font-weight:normal;text-align:start;text-anchor:start;fill:#ffffff;font-family:Arial"
         id="path3206" />
      <path
         d="m 54.007589,611.96014 0,-17.02714 1.90092,0 0,1.59956 c 0.44818,-0.62591 0.954319,-1.09534 1.518417,-1.40831 0.564089,-0.31294 1.247955,-0.46942 2.051602,-0.46943 1.050907,10e-6 1.978184,0.27047 2.781834,0.81137 0.80363,0.54092 1.410224,1.30399 1.819783,2.28921 0.409535,0.98524 0.614309,2.06514 0.614321,3.23968 -1.2e-5,1.25956 -0.226036,2.39354 -0.678072,3.40195 -0.452059,1.00842 -1.10888,1.78115 -1.970465,2.3182 -0.861604,0.53704 -1.767631,0.80557 -2.718083,0.80557 -0.695465,0 -1.319445,-0.14682 -1.871942,-0.44046 -0.552508,-0.29364 -1.006487,-0.66455 -1.361939,-1.11273 l 0,5.99253 z m 1.889329,-10.80279 c -3e-6,1.58411 0.32068,2.7548 0.962051,3.51207 0.641362,0.75728 1.417956,1.13592 2.329785,1.13591 0.92727,10e-6 1.721251,-0.39216 2.381945,-1.17648 0.660676,-0.78432 0.991018,-1.99944 0.991028,-3.64536 -10e-6,-1.56864 -0.322625,-2.74319 -0.967846,-3.52366 -0.645239,-0.78044 -1.416038,-1.17067 -2.312399,-1.17068 -0.888647,1e-5 -1.674901,0.41535 -2.358763,1.24603 -0.683871,0.83069 -1.025804,2.03808 -1.025801,3.62217 z"
         style="font-size:23.73831177px;font-style:normal;font-weight:normal;text-align:start;text-anchor:start;fill:#ffffff;font-family:Arial"
         id="path3208" />
    </g>
    <g
       style="font-size:23.73831177px;font-style:normal;font-weight:normal;text-align:start;text-anchor:start;fill:#ffffff;font-family:Arial"
       id="text3058">
      <path
         d="m -2.6521389,628.77131 2.24864868,0.56795 c -0.47138195,1.84683 -1.31945388,3.25514 -2.54421848,4.22491 -1.2247919,0.96978 -2.7219576,1.45467 -4.4915018,1.45467 -1.831381,0 -3.3208195,-0.37284 -4.4683195,-1.11853 -1.14751,-0.74568 -2.020696,-1.82558 -2.61956,-3.23968 -0.598869,-1.41409 -0.898302,-2.93251 -0.898301,-4.55525 -1e-6,-1.76954 0.338069,-3.31307 1.01421,-4.63059 0.676138,-1.31749 1.638187,-2.31818 2.886153,-3.00206 1.247955,-0.68385 2.6214835,-1.02579 4.1205904,-1.02581 1.6999984,2e-5 3.1295502,0.43275 4.2886598,1.29819 1.1590826,0.86548 1.9665862,2.08253 2.42251327,3.65116 l -2.21387577,0.52159 c -0.3941064,-1.23635 -0.9659271,-2.13658 -1.7154639,-2.70069 -0.7495608,-0.56408 -1.6922923,-0.84613 -2.8281973,-0.84614 -1.3059241,10e-6 -2.3974063,0.31297 -3.2744495,0.93887 -0.877056,0.62592 -1.493308,1.46627 -1.84876,2.52103 -0.355461,1.05479 -0.533189,2.14241 -0.533185,3.26286 -4e-6,1.44502 0.210566,2.7065 0.631708,3.78445 0.421134,1.07797 1.076023,1.88354 1.96467,2.41672 0.888634,0.53319 1.8506837,0.79978 2.8861519,0.79978 1.2595421,0 2.3259105,-0.36318 3.1991084,-1.08955 0.8731736,-0.72637 1.4643126,-1.80433 1.7734188,-3.23388 z"
         style="font-size:23.73831177px;font-style:normal;font-weight:normal;text-align:start;text-anchor:start;fill:#ffffff;font-family:Arial"
         id="path3185" />
      <path
         d="m 1.3351565,628.57426 c -8e-7,-2.27955 0.6336384,-3.96797 1.9009195,-5.06526 1.0586384,-0.91181 2.3490987,-1.36772 3.8713848,-1.36773 1.6922738,1e-5 3.0754622,0.55445 4.1495682,1.6633 1.074085,1.10888 1.611133,2.64082 1.611145,4.59582 -1.2e-5,1.58411 -0.237627,2.83014 -0.712845,3.73809 -0.475241,0.90796 -1.166835,1.61308 -2.074784,2.11536 -0.9079679,0.50227 -1.898995,0.75341 -2.9730842,0.75341 -1.7231961,0 -3.1160432,-0.5525 -4.1785456,-1.65751 -1.0625071,-1.105 -1.5937595,-2.69683 -1.5937587,-4.77548 z m 2.1443299,0 c -2.9e-6,1.57638 0.3438623,2.75672 1.0315966,3.54104 0.6877264,0.78432 1.5531848,1.17649 2.5963778,1.17648 1.0354526,10e-6 1.8970474,-0.39409 2.5847869,-1.18227 0.6877213,-0.78819 1.0315863,-1.98978 1.0315963,-3.6048 -10e-6,-1.52227 -0.345807,-2.67557 -1.0373918,-3.4599 -0.6916031,-0.78431 -1.5512661,-1.17648 -2.5789914,-1.17649 -1.043193,10e-6 -1.9086514,0.39024 -2.5963778,1.17069 -0.6877343,0.78047 -1.0315995,1.95888 -1.0315966,3.53525 z"
         style="font-size:23.73831177px;font-style:normal;font-weight:normal;text-align:start;text-anchor:start;fill:#ffffff;font-family:Arial"
         id="path3187" />
      <path
         d="m 15.325461,634.72906 0,-12.30961 1.866146,0 0,1.72706 c 0.386362,-0.60272 0.900228,-1.08761 1.541599,-1.45467 0.641362,-0.36704 1.371593,-0.55056 2.190694,-0.55057 0.911815,1e-5 1.659432,0.18933 2.242853,0.56796 0.583403,0.37865 0.994882,0.90797 1.234439,1.58796 0.97363,-1.43727 2.240909,-2.15591 3.801839,-2.15592 1.2209,1e-5 2.159768,0.33808 2.816606,1.01421 0.656804,0.67615 0.985215,1.7174 0.985233,3.12377 l 0,8.44981 -2.074784,0 0,-7.75436 c -1.6e-5,-0.83454 -0.06763,-1.43534 -0.202842,-1.80239 -0.135244,-0.36704 -0.380586,-0.66261 -0.736027,-0.88671 -0.355471,-0.22408 -0.772746,-0.33613 -1.251825,-0.33614 -0.865472,10e-6 -1.584112,0.28785 -2.155921,0.86353 -0.571832,0.57569 -0.857743,1.49717 -0.857732,2.76444 l 0,7.15163 -2.086375,0 0,-7.99777 c -9e-6,-0.92726 -0.170009,-1.62272 -0.510003,-2.08637 -0.340009,-0.46363 -0.896376,-0.69545 -1.6691,-0.69546 -0.587282,10e-6 -1.130125,0.15456 -1.628531,0.46364 -0.498417,0.3091 -0.859668,0.76115 -1.083756,1.35614 -0.224096,0.59501 -0.336142,1.45275 -0.336138,2.5732 l 0,6.38662 z"
         style="font-size:23.73831177px;font-style:normal;font-weight:normal;text-align:start;text-anchor:start;fill:#ffffff;font-family:Arial"
         id="path3189" />
      <path
         d="m 35.122841,639.44659 0,-17.02714 1.900919,0 0,1.59956 c 0.448181,-0.6259 0.954319,-1.09534 1.518418,-1.40831 0.564088,-0.31294 1.247955,-0.46942 2.051602,-0.46943 1.050907,1e-5 1.978184,0.27047 2.781833,0.81137 0.803631,0.54092 1.410224,1.30399 1.819783,2.28921 0.409536,0.98525 0.614309,2.06514 0.614322,3.23968 -1.3e-5,1.25956 -0.226036,2.39354 -0.678072,3.40195 -0.452059,1.00842 -1.10888,1.78115 -1.970466,2.3182 -0.861604,0.53704 -1.767631,0.80557 -2.718083,0.80557 -0.695464,0 -1.319444,-0.14682 -1.871942,-0.44046 -0.552507,-0.29364 -1.006486,-0.66455 -1.361939,-1.11273 l 0,5.99253 z M 37.01217,628.6438 c -4e-6,1.58411 0.320679,2.7548 0.96205,3.51207 0.641362,0.75728 1.417957,1.13592 2.329786,1.13591 0.92727,10e-6 1.721251,-0.39216 2.381945,-1.17648 0.660675,-0.78432 0.991018,-1.99944 0.991028,-3.64536 -1e-5,-1.56864 -0.322625,-2.74319 -0.967846,-3.52366 -0.64524,-0.78044 -1.416039,-1.17067 -2.3124,-1.17068 -0.888647,10e-6 -1.6749,0.41535 -2.358762,1.24603 -0.683872,0.83069 -1.025805,2.03808 -1.025801,3.62217 z"
         style="font-size:23.73831177px;font-style:normal;font-weight:normal;text-align:start;text-anchor:start;fill:#ffffff;font-family:Arial"
         id="path3191" />
      <path
         d="m 47.559957,628.57426 c -10e-7,-2.27955 0.633638,-3.96797 1.900919,-5.06526 1.058639,-0.91181 2.349099,-1.36772 3.871385,-1.36773 1.692274,1e-5 3.075462,0.55445 4.149568,1.6633 1.074085,1.10888 1.611133,2.64082 1.611145,4.59582 -1.2e-5,1.58411 -0.237627,2.83014 -0.712845,3.73809 -0.475241,0.90796 -1.166835,1.61308 -2.074784,2.11536 -0.907968,0.50227 -1.898995,0.75341 -2.973084,0.75341 -1.723196,0 -3.116043,-0.5525 -4.178546,-1.65751 -1.062507,-1.105 -1.593759,-2.69683 -1.593758,-4.77548 z m 2.14433,0 c -3e-6,1.57638 0.343862,2.75672 1.031596,3.54104 0.687726,0.78432 1.553185,1.17649 2.596378,1.17648 1.035453,10e-6 1.897047,-0.39409 2.584787,-1.18227 0.687721,-0.78819 1.031586,-1.98978 1.031596,-3.6048 -1e-5,-1.52227 -0.345807,-2.67557 -1.037392,-3.4599 -0.691603,-0.78431 -1.551266,-1.17648 -2.578991,-1.17649 -1.043193,10e-6 -1.908652,0.39024 -2.596378,1.17069 -0.687734,0.78047 -1.031599,1.95888 -1.031596,3.53525 z"
         style="font-size:23.73831177px;font-style:normal;font-weight:normal;text-align:start;text-anchor:start;fill:#ffffff;font-family:Arial"
         id="path3193" />
      <path
         d="m 61.550259,634.72906 0,-12.30961 1.877737,0 0,1.75024 c 0.904092,-1.35227 2.210007,-2.02841 3.917749,-2.02842 0.741814,1e-5 1.423749,0.13331 2.045807,0.39989 0.622038,0.2666 1.087609,0.61626 1.396712,1.04898 0.309081,0.43274 0.525446,0.94661 0.649094,1.5416 0.07726,0.38637 0.115898,1.06251 0.11591,2.02842 l 0,7.5689 -2.086375,0 0,-7.48776 c -9e-6,-0.85 -0.08115,-1.48557 -0.24341,-1.90672 -0.162283,-0.42113 -0.450125,-0.75727 -0.863528,-1.00841 -0.413419,-0.25113 -0.898308,-0.3767 -1.454667,-0.37671 -0.888647,10e-6 -1.655582,0.28206 -2.300808,0.84614 -0.645235,0.5641 -0.96785,1.63434 -0.967846,3.2107 l 0,6.72276 z"
         style="font-size:23.73831177px;font-style:normal;font-weight:normal;text-align:start;text-anchor:start;fill:#ffffff;font-family:Arial"
         id="path3195" />
      <path
         d="m 83.190603,630.76495 2.155921,0.26659 c -0.340014,1.25956 -0.96979,2.23706 -1.889329,2.93252 -0.91956,0.69546 -2.09411,1.04319 -3.523656,1.04319 -1.800469,0 -3.228089,-0.55444 -4.282864,-1.66331 -1.05478,-1.10886 -1.582169,-2.66398 -1.582168,-4.66536 -10e-7,-2.07092 0.533184,-3.67819 1.599555,-4.82185 1.066366,-1.14363 2.449554,-1.71545 4.149568,-1.71546 1.64591,1e-5 2.990461,0.56024 4.033658,1.68069 1.043176,1.12047 1.564769,2.69684 1.564781,4.72912 -1.2e-5,0.12364 -0.0039,0.3091 -0.01159,0.55636 l -9.180051,0 c 0.07727,1.35229 0.459772,2.38775 1.147507,3.10638 0.687726,0.71865 1.545457,1.07797 2.573195,1.07796 0.764997,10e-6 1.417955,-0.2009 1.958875,-0.60273 0.540903,-0.40181 0.969768,-1.04318 1.286598,-1.9241 z m -6.850265,-3.37297 6.873447,0 c -0.09274,-1.03545 -0.355466,-1.81205 -0.788186,-2.32979 -0.664558,-0.80363 -1.526153,-1.20545 -2.584787,-1.20546 -0.958193,10e-6 -1.763765,0.3207 -2.416718,0.96205 -0.652962,0.64138 -1.014213,1.49911 -1.083756,2.5732 z"
         style="font-size:23.73831177px;font-style:normal;font-weight:normal;text-align:start;text-anchor:start;fill:#ffffff;font-family:Arial"
         id="path3197" />
      <path
         d="m 87.97768,634.72906 0,-12.30961 1.877738,0 0,1.75024 c 0.904091,-1.35227 2.210006,-2.02841 3.917749,-2.02842 0.741814,1e-5 1.423749,0.13331 2.045806,0.39989 0.622039,0.2666 1.087609,0.61626 1.396712,1.04898 0.309082,0.43274 0.525447,0.94661 0.649095,1.5416 0.07726,0.38637 0.115898,1.06251 0.11591,2.02842 l 0,7.5689 -2.086375,0 0,-7.48776 c -1e-5,-0.85 -0.08115,-1.48557 -0.243411,-1.90672 -0.162283,-0.42113 -0.450125,-0.75727 -0.863527,-1.00841 -0.41342,-0.25113 -0.898308,-0.3767 -1.454667,-0.37671 -0.888648,10e-6 -1.655583,0.28206 -2.300808,0.84614 -0.645235,0.5641 -0.96785,1.63434 -0.967847,3.2107 l 0,6.72276 z"
         style="font-size:23.73831177px;font-style:normal;font-weight:normal;text-align:start;text-anchor:start;fill:#ffffff;font-family:Arial"
         id="path3199" />
      <path
         d="m 105.74664,632.86292 0.30136,1.84296 c -0.58728,0.12364 -1.11273,0.18546 -1.57637,0.18546 -0.75728,0 -1.34455,-0.11977 -1.76183,-0.35932 -0.41727,-0.23955 -0.71091,-0.55444 -0.88091,-0.94467 -0.17,-0.39022 -0.255,-1.21125 -0.255,-2.46308 l 0,-7.08208 -1.53001,0 0,-1.62274 1.53001,0 0,-3.04842 2.07478,-1.25183 0,4.30025 2.09797,0 0,1.62274 -2.09797,0 0,7.19799 c 0,0.59501 0.0367,0.97751 0.11012,1.14751 0.0734,0.17 0.19318,0.30523 0.35932,0.40568 0.16613,0.10046 0.40375,0.15069 0.71284,0.15069 0.23182,0 0.53705,-0.0271 0.91569,-0.0811 z"
         style="font-size:23.73831177px;font-style:normal;font-weight:normal;text-align:start;text-anchor:start;fill:#ffffff;font-family:Arial"
         id="path3201" />
    </g>
    <path
       inkscape:connector-curvature="0"
       style="fill:#595959;fill-opacity:1;fill-rule:evenodd;stroke:none"
       d="m 446.83603,510.80571 c 13.04046,0 23.58214,-10.54168 23.58214,-23.58214 l 0,0 0,-62.31307 c 0,-13.04045 -10.54168,-23.66023 -23.58214,-23.66023 l -89.72145,0 c -13.04045,0 -23.66023,10.61978 -23.66023,23.66023 l 0,62.31307 c 0,13.04046 10.61978,23.58214 23.66023,23.58214 l 89.72145,0 z"
       id="path3060" />
    <path
       inkscape:connector-curvature="0"
       style="fill:none;stroke:#000000;stroke-width:3.59198141px;stroke-linecap:round;stroke-linejoin:round;stroke-opacity:1;stroke-dasharray:none"
       d="m 446.83603,510.80571 c 13.04046,0 23.58214,-10.54168 23.58214,-23.58214 l 0,0 0,-62.31307 c 0,-13.04045 -10.54168,-23.66023 -23.58214,-23.66023 l -89.72145,0 c -13.04045,0 -23.66023,10.61978 -23.66023,23.66023 l 0,62.31307 c 0,13.04046 10.61978,23.58214 23.66023,23.58214 l 89.72145,0 z"
       id="path3062" />
    <g
       style="font-size:23.73831177px;font-style:normal;font-weight:normal;text-align:start;text-anchor:start;fill:#ffffff;font-family:Arial"
       id="text3064">
      <path
         d="m 380.66194,448.57074 6.52572,-16.99237 2.42251,0 6.95459,16.99237 -2.56161,0 -1.98205,-5.14639 -7.10527,0 -1.86615,5.14639 z m 4.90298,-6.97777 5.76072,0 -1.77342,-4.70593 c -0.54092,-1.42954 -0.94274,-2.60409 -1.20546,-3.52366 -0.21637,1.08957 -0.5216,2.17139 -0.91569,3.24548 z"
         style="font-size:23.73831177px;font-style:normal;font-weight:normal;text-align:start;text-anchor:start;fill:#ffffff;font-family:Arial"
         id="path3152" />
      <path
         d="m 398.11795,453.28827 0,-17.02714 1.90092,0 0,1.59955 c 0.44818,-0.6259 0.95432,-1.09533 1.51841,-1.4083 0.56409,-0.31295 1.24796,-0.46942 2.05161,-0.46944 1.0509,2e-5 1.97818,0.27047 2.78183,0.81137 0.80363,0.54092 1.41022,1.304 1.81978,2.28922 0.40954,0.98524 0.61431,2.06513 0.61432,3.23968 -1e-5,1.25955 -0.22603,2.39354 -0.67807,3.40195 -0.45206,1.00841 -1.10888,1.78114 -1.97046,2.31819 -0.86161,0.53705 -1.76763,0.80557 -2.71809,0.80557 -0.69546,0 -1.31944,-0.14682 -1.87194,-0.44045 -0.55251,-0.29364 -1.00648,-0.66455 -1.36194,-1.11274 l 0,5.99254 z m 1.88933,-10.80279 c -10e-6,1.5841 0.32068,2.75479 0.96205,3.51206 0.64136,0.75728 1.41795,1.13592 2.32978,1.13592 0.92727,0 1.72125,-0.39216 2.38195,-1.17648 0.66067,-0.78432 0.99102,-1.99944 0.99103,-3.64537 -1e-5,-1.56863 -0.32263,-2.74318 -0.96785,-3.52365 -0.64524,-0.78045 -1.41604,-1.17068 -2.3124,-1.17069 -0.88865,10e-6 -1.6749,0.41535 -2.35876,1.24603 -0.68387,0.8307 -1.02581,2.03809 -1.0258,3.62218 z"
         style="font-size:23.73831177px;font-style:normal;font-weight:normal;text-align:start;text-anchor:start;fill:#ffffff;font-family:Arial"
         id="path3154" />
      <path
         d="m 411.33166,453.28827 0,-17.02714 1.90092,0 0,1.59955 c 0.44818,-0.6259 0.95432,-1.09533 1.51841,-1.4083 0.56409,-0.31295 1.24796,-0.46942 2.05161,-0.46944 1.0509,2e-5 1.97818,0.27047 2.78183,0.81137 0.80363,0.54092 1.41022,1.304 1.81978,2.28922 0.40954,0.98524 0.61431,2.06513 0.61432,3.23968 -10e-6,1.25955 -0.22603,2.39354 -0.67807,3.40195 -0.45206,1.00841 -1.10888,1.78114 -1.97046,2.31819 -0.86161,0.53705 -1.76763,0.80557 -2.71809,0.80557 -0.69546,0 -1.31944,-0.14682 -1.87194,-0.44045 -0.55251,-0.29364 -1.00648,-0.66455 -1.36194,-1.11274 l 0,5.99254 z m 1.88933,-10.80279 c -10e-6,1.5841 0.32068,2.75479 0.96205,3.51206 0.64136,0.75728 1.41795,1.13592 2.32978,1.13592 0.92727,0 1.72125,-0.39216 2.38195,-1.17648 0.66067,-0.78432 0.99102,-1.99944 0.99103,-3.64537 -1e-5,-1.56863 -0.32263,-2.74318 -0.96785,-3.52365 -0.64524,-0.78045 -1.41604,-1.17068 -2.3124,-1.17069 -0.88865,10e-6 -1.6749,0.41535 -2.35876,1.24603 -0.68387,0.8307 -1.02581,2.03809 -1.0258,3.62218 z"
         style="font-size:23.73831177px;font-style:normal;font-weight:normal;text-align:start;text-anchor:start;fill:#ffffff;font-family:Arial"
         id="path3156" />
    </g>
    <g
       style="font-size:23.73831177px;font-style:normal;font-weight:normal;text-align:start;text-anchor:start;fill:#ffffff;font-family:Arial"
       id="text3066">
      <path
         d="m 355.92132,471.34882 2.24865,0.56796 c -0.47138,1.84683 -1.31945,3.25513 -2.54422,4.22491 -1.22479,0.96978 -2.72196,1.45466 -4.4915,1.45466 -1.83138,0 -3.32082,-0.37284 -4.46832,-1.11852 -1.14751,-0.74569 -2.0207,-1.82558 -2.61956,-3.23968 -0.59887,-1.41409 -0.8983,-2.93251 -0.8983,-4.55525 0,-1.76955 0.33807,-3.31308 1.01421,-4.6306 0.67614,-1.31749 1.63819,-2.31818 2.88615,-3.00206 1.24796,-0.68385 2.62149,-1.02578 4.12059,-1.0258 1.7,2e-5 3.12955,0.43275 4.28866,1.29819 1.15908,0.86547 1.96659,2.08252 2.42252,3.65115 l -2.21388,0.5216 c -0.39411,-1.23636 -0.96593,-2.13659 -1.71546,-2.7007 -0.74957,-0.56408 -1.6923,-0.84612 -2.8282,-0.84614 -1.30593,2e-5 -2.39741,0.31297 -3.27445,0.93887 -0.87706,0.62593 -1.49331,1.46627 -1.84876,2.52104 -0.35546,1.05479 -0.53319,2.1424 -0.53319,3.26286 0,1.44501 0.21057,2.70649 0.63171,3.78445 0.42114,1.07796 1.07602,1.88353 1.96467,2.41672 0.88864,0.53318 1.85069,0.79977 2.88615,0.79977 1.25955,0 2.32591,-0.36318 3.19911,-1.08955 0.87318,-0.72636 1.46431,-1.80432 1.77342,-3.23388 z"
         style="font-size:23.73831177px;font-style:normal;font-weight:normal;text-align:start;text-anchor:start;fill:#ffffff;font-family:Arial"
         id="path3132" />
      <path
         d="m 359.90862,471.15177 c 0,-2.27955 0.63363,-3.96796 1.90092,-5.06525 1.05863,-0.91181 2.34909,-1.36772 3.87138,-1.36774 1.69227,2e-5 3.07546,0.55445 4.14957,1.66331 1.07408,1.10888 1.61113,2.64082 1.61114,4.59582 -10e-6,1.5841 -0.23762,2.83013 -0.71284,3.73809 -0.47524,0.90796 -1.16684,1.61308 -2.07479,2.11535 -0.90796,0.50228 -1.89899,0.75341 -2.97308,0.75341 -1.7232,0 -3.11604,-0.5525 -4.17855,-1.65751 -1.0625,-1.105 -1.59375,-2.69683 -1.59375,-4.77548 z m 2.14433,0 c -1e-5,1.57638 0.34386,2.75673 1.03159,3.54105 0.68773,0.78432 1.55319,1.17648 2.59638,1.17648 1.03545,0 1.89705,-0.39409 2.58479,-1.18228 0.68772,-0.78818 1.03158,-1.98978 1.03159,-3.60479 -1e-5,-1.52228 -0.3458,-2.67558 -1.03739,-3.45991 -0.6916,-0.78431 -1.55126,-1.17647 -2.57899,-1.17648 -1.04319,1e-5 -1.90865,0.39024 -2.59638,1.17069 -0.68773,0.78046 -1.0316,1.95888 -1.03159,3.53524 z"
         style="font-size:23.73831177px;font-style:normal;font-weight:normal;text-align:start;text-anchor:start;fill:#ffffff;font-family:Arial"
         id="path3134" />
      <path
         d="m 373.89892,477.30658 0,-12.30961 1.86615,0 0,1.72705 c 0.38636,-0.60272 0.90022,-1.08761 1.5416,-1.45467 0.64136,-0.36703 1.37159,-0.55055 2.19069,-0.55057 0.91181,2e-5 1.65943,0.18934 2.24285,0.56796 0.58341,0.37865 0.99488,0.90797 1.23444,1.58796 0.97363,-1.43726 2.24091,-2.1559 3.80184,-2.15592 1.2209,2e-5 2.15977,0.33809 2.81661,1.01421 0.6568,0.67615 0.98521,1.71741 0.98523,3.12377 l 0,8.44982 -2.07478,0 0,-7.75436 c -2e-5,-0.83454 -0.0676,-1.43534 -0.20285,-1.8024 -0.13524,-0.36703 -0.38058,-0.6626 -0.73602,-0.88671 -0.35547,-0.22408 -0.77275,-0.33612 -1.25183,-0.33613 -0.86547,1e-5 -1.58411,0.28785 -2.15592,0.86352 -0.57183,0.5757 -0.85774,1.49718 -0.85773,2.76445 l 0,7.15163 -2.08638,0 0,-7.99777 c -1e-5,-0.92727 -0.17001,-1.62273 -0.51,-2.08638 -0.34001,-0.46362 -0.89637,-0.69544 -1.6691,-0.69545 -0.58728,1e-5 -1.13012,0.15455 -1.62853,0.46363 -0.49842,0.30911 -0.85967,0.76115 -1.08376,1.35615 -0.22409,0.59501 -0.33614,1.45274 -0.33613,2.57319 l 0,6.38663 z"
         style="font-size:23.73831177px;font-style:normal;font-weight:normal;text-align:start;text-anchor:start;fill:#ffffff;font-family:Arial"
         id="path3136" />
      <path
         d="m 393.6963,482.02411 0,-17.02714 1.90092,0 0,1.59955 c 0.44818,-0.6259 0.95432,-1.09533 1.51842,-1.4083 0.56409,-0.31295 1.24795,-0.46942 2.0516,-0.46944 1.05091,2e-5 1.97818,0.27047 2.78183,0.81137 0.80363,0.54092 1.41023,1.304 1.81979,2.28922 0.40953,0.98524 0.61431,2.06513 0.61432,3.23968 -10e-6,1.25955 -0.22604,2.39354 -0.67807,3.40195 -0.45206,1.00841 -1.10888,1.78114 -1.97047,2.31819 -0.8616,0.53705 -1.76763,0.80557 -2.71808,0.80557 -0.69547,0 -1.31945,-0.14682 -1.87195,-0.44045 -0.5525,-0.29364 -1.00648,-0.66455 -1.36193,-1.11274 l 0,5.99254 z m 1.88933,-10.80279 c 0,1.5841 0.32068,2.75479 0.96205,3.51206 0.64136,0.75728 1.41796,1.13592 2.32979,1.13592 0.92727,0 1.72125,-0.39216 2.38194,-1.17648 0.66068,-0.78432 0.99102,-1.99944 0.99103,-3.64537 -1e-5,-1.56863 -0.32263,-2.74318 -0.96785,-3.52365 -0.64524,-0.78045 -1.41604,-1.17068 -2.3124,-1.17069 -0.88864,10e-6 -1.6749,0.41535 -2.35876,1.24603 -0.68387,0.8307 -1.0258,2.03809 -1.0258,3.62218 z"
         style="font-size:23.73831177px;font-style:normal;font-weight:normal;text-align:start;text-anchor:start;fill:#ffffff;font-family:Arial"
         id="path3138" />
      <path
         d="m 406.13342,471.15177 c 0,-2.27955 0.63363,-3.96796 1.90092,-5.06525 1.05863,-0.91181 2.34909,-1.36772 3.87138,-1.36774 1.69227,2e-5 3.07546,0.55445 4.14957,1.66331 1.07408,1.10888 1.61113,2.64082 1.61114,4.59582 -10e-6,1.5841 -0.23762,2.83013 -0.71284,3.73809 -0.47524,0.90796 -1.16684,1.61308 -2.07478,2.11535 -0.90797,0.50228 -1.899,0.75341 -2.97309,0.75341 -1.7232,0 -3.11604,-0.5525 -4.17855,-1.65751 -1.0625,-1.105 -1.59375,-2.69683 -1.59375,-4.77548 z m 2.14433,0 c -1e-5,1.57638 0.34386,2.75673 1.03159,3.54105 0.68773,0.78432 1.55319,1.17648 2.59638,1.17648 1.03545,0 1.89705,-0.39409 2.58479,-1.18228 0.68772,-0.78818 1.03158,-1.98978 1.03159,-3.60479 -1e-5,-1.52228 -0.3458,-2.67558 -1.03739,-3.45991 -0.6916,-0.78431 -1.55126,-1.17647 -2.57899,-1.17648 -1.04319,1e-5 -1.90865,0.39024 -2.59638,1.17069 -0.68773,0.78046 -1.0316,1.95888 -1.03159,3.53524 z"
         style="font-size:23.73831177px;font-style:normal;font-weight:normal;text-align:start;text-anchor:start;fill:#ffffff;font-family:Arial"
         id="path3140" />
      <path
         d="m 420.12372,477.30658 0,-12.30961 1.87774,0 0,1.75023 c 0.90409,-1.35226 2.21,-2.0284 3.91774,-2.02842 0.74182,2e-5 1.42375,0.13331 2.04581,0.39989 0.62204,0.26661 1.08761,0.61627 1.39671,1.04898 0.30908,0.43275 0.52545,0.94661 0.6491,1.5416 0.0773,0.38638 0.1159,1.06252 0.11591,2.02842 l 0,7.56891 -2.08638,0 0,-7.48777 c -10e-6,-0.84999 -0.0811,-1.48557 -0.24341,-1.90671 -0.16228,-0.42113 -0.45012,-0.75727 -0.86353,-1.00842 -0.41341,-0.25113 -0.8983,-0.37669 -1.45466,-0.3767 -0.88865,1e-5 -1.65558,0.28205 -2.30081,0.84614 -0.64524,0.5641 -0.96785,1.63433 -0.96785,3.2107 l 0,6.72276 z"
         style="font-size:23.73831177px;font-style:normal;font-weight:normal;text-align:start;text-anchor:start;fill:#ffffff;font-family:Arial"
         id="path3142" />
      <path
         d="m 441.76406,473.34247 2.15592,0.26659 c -0.34001,1.25955 -0.96979,2.23706 -1.88933,2.93252 -0.91956,0.69545 -2.09411,1.04318 -3.52365,1.04318 -1.80047,0 -3.22809,-0.55443 -4.28287,-1.6633 -1.05478,-1.10887 -1.58216,-2.66399 -1.58216,-4.66537 0,-2.07091 0.53318,-3.67819 1.59955,-4.82184 1.06637,-1.14363 2.44956,-1.71545 4.14957,-1.71547 1.64591,2e-5 2.99046,0.56025 4.03366,1.68069 1.04317,1.12047 1.56477,2.69685 1.56478,4.72912 -10e-6,0.12364 -0.004,0.3091 -0.0116,0.55637 l -9.18005,0 c 0.0773,1.35228 0.45977,2.38774 1.1475,3.10638 0.68773,0.71864 1.54546,1.07796 2.5732,1.07796 0.765,0 1.41795,-0.20091 1.95887,-0.60273 0.54091,-0.40182 0.96977,-1.04319 1.2866,-1.9241 z m -6.85026,-3.37298 6.87344,0 c -0.0927,-1.03545 -0.35546,-1.81204 -0.78818,-2.32978 -0.66456,-0.80363 -1.52615,-1.20545 -2.58479,-1.20546 -0.95819,10e-6 -1.76376,0.32069 -2.41672,0.96205 -0.65296,0.64137 -1.01421,1.49911 -1.08375,2.57319 z"
         style="font-size:23.73831177px;font-style:normal;font-weight:normal;text-align:start;text-anchor:start;fill:#ffffff;font-family:Arial"
         id="path3145" />
      <path
         d="m 446.55114,477.30658 0,-12.30961 1.87774,0 0,1.75023 c 0.90409,-1.35226 2.21,-2.0284 3.91775,-2.02842 0.74181,2e-5 1.42375,0.13331 2.0458,0.39989 0.62204,0.26661 1.08761,0.61627 1.39672,1.04898 0.30908,0.43275 0.52544,0.94661 0.64909,1.5416 0.0773,0.38638 0.1159,1.06252 0.11591,2.02842 l 0,7.56891 -2.08638,0 0,-7.48777 c -10e-6,-0.84999 -0.0811,-1.48557 -0.24341,-1.90671 -0.16228,-0.42113 -0.45012,-0.75727 -0.86352,-1.00842 -0.41342,-0.25113 -0.89831,-0.37669 -1.45467,-0.3767 -0.88865,1e-5 -1.65558,0.28205 -2.30081,0.84614 -0.64523,0.5641 -0.96785,1.63433 -0.96785,3.2107 l 0,6.72276 z"
         style="font-size:23.73831177px;font-style:normal;font-weight:normal;text-align:start;text-anchor:start;fill:#ffffff;font-family:Arial"
         id="path3147" />
      <path
         d="m 464.3201,475.44043 0.30136,1.84297 c -0.58728,0.12363 -1.11273,0.18545 -1.57637,0.18545 -0.75728,0 -1.34455,-0.11977 -1.76183,-0.35932 -0.41727,-0.23954 -0.71091,-0.55443 -0.88091,-0.94466 -0.17,-0.39023 -0.255,-1.21126 -0.255,-2.46308 l 0,-7.08209 -1.53001,0 0,-1.62273 1.53001,0 0,-3.04843 2.07478,-1.25182 0,4.30025 2.09797,0 0,1.62273 -2.09797,0 0,7.198 c 0,0.595 0.0367,0.9775 0.11012,1.1475 0.0734,0.17001 0.19318,0.30523 0.35932,0.40569 0.16613,0.10045 0.40374,0.15068 0.71284,0.15068 0.23182,0 0.53704,-0.027 0.91569,-0.0811 z"
         style="font-size:23.73831177px;font-style:normal;font-weight:normal;text-align:start;text-anchor:start;fill:#ffffff;font-family:Arial"
         id="path3149" />
    </g>
    <path
       inkscape:connector-curvature="0"
       style="fill:#ffe100;fill-opacity:1;fill-rule:evenodd;stroke:none"
       d="m 162.83523,461.29884 c 13.04046,0 23.58214,-10.54169 23.58214,-23.58214 l 0,0 0,-95.73412 c 0,-13.04046 -10.54168,-23.58214 -23.58214,-23.58214 l 0,0 -139.306411,0 c -13.040455,0 -23.660226,10.54168 -23.660226,23.58214 l 0,0 0,95.73412 c 0,13.04045 10.619771,23.58214 23.660226,23.58214 l 0,0 139.306411,0 z"
       id="path3068" />
    <path
       inkscape:connector-curvature="0"
       style="fill:none;stroke:#ffc000;stroke-width:5.23179913px;stroke-linecap:round;stroke-linejoin:round;stroke-opacity:1;stroke-dasharray:none"
       d="m 162.83523,461.29884 c 13.04046,0 23.58214,-10.54169 23.58214,-23.58214 l 0,0 0,-95.73412 c 0,-13.04046 -10.54168,-23.58214 -23.58214,-23.58214 l 0,0 -139.306411,0 c -13.040455,0 -23.660226,10.54168 -23.660226,23.58214 l 0,0 0,95.73412 c 0,13.04045 10.619771,23.58214 23.660226,23.58214 l 0,0 139.306411,0 z"
       id="path3070" />
    <path
       inkscape:connector-curvature="0"
       style="fill:#000000;fill-opacity:1;fill-rule:evenodd;stroke:none"
       d="m 36.413101,439.04417 c -2.186424,0.46852 -4.216674,0.62469 -6.168838,0.62469 -0.780866,0 -1.561731,0 -2.26451,-0.0781 -0.702779,-0.0781 -1.483645,-0.23426 -2.342597,-0.46852 -0.858952,-0.23426 -1.639818,-0.46852 -2.186423,-0.93703 -0.624693,-0.31235 -1.171299,-0.85896 -1.561732,-1.56174 -0.390432,-0.70277 -0.624692,-1.56173 -0.624692,-2.49877 l 0,-8.51143 c 0,-3.82624 2.967289,-5.77841 8.979954,-5.77841 1.405558,0 3.435808,0.15618 6.090751,0.6247 l 0,3.51389 c -2.342597,-0.62469 -4.372847,-0.85895 -6.090751,-0.85895 -0.624693,0 -1.171299,0 -1.639818,0.0781 -0.390433,0 -0.858952,0.15617 -1.327471,0.23426 -0.46852,0.15617 -0.780866,0.46852 -1.015126,0.78086 -0.234259,0.39043 -0.390432,0.78087 -0.390432,1.32747 l 0,8.27718 c 0,1.7179 1.639817,2.57685 4.841366,2.57685 1.405558,0 3.279635,-0.31234 5.700319,-0.85895 l 0,3.5139 z"
       id="path3072" />
    <path
       inkscape:connector-curvature="0"
       style="fill:#000000;fill-opacity:1;fill-rule:evenodd;stroke:none"
       d="m 48.67269,428.34631 -1.483645,0 c -1.171298,0 -2.108337,0.15617 -2.654943,0.54661 -0.624692,0.31234 -0.937038,0.93703 -0.937038,1.87407 l 0,8.66761 -4.294761,0 0,-14.44601 4.060501,0 0,2.57685 c 0.07809,-0.70278 0.468519,-1.40555 1.249385,-1.95216 0.780865,-0.62469 1.639818,-0.93704 2.49877,-0.93704 l 1.561731,0 0,3.67007 z"
       id="path3074" />
    <path
       inkscape:connector-curvature="0"
       style="fill:#000000;fill-opacity:1;fill-rule:evenodd;stroke:none"
       d="m 65.227039,430.22039 0,4.21667 c 0,0.93704 -0.156173,1.79599 -0.468519,2.42068 -0.23426,0.70278 -0.624692,1.1713 -1.093212,1.56173 -0.390432,0.39044 -1.015125,0.6247 -1.717904,0.85896 -0.702779,0.15617 -1.327471,0.31234 -1.874077,0.31234 -0.624693,0.0781 -1.327472,0.0781 -2.108337,0.0781 -0.858952,0 -1.561731,0 -2.186424,-0.0781 -0.546606,0 -1.171298,-0.15617 -1.874077,-0.31234 -0.702779,-0.23426 -1.327471,-0.46852 -1.717904,-0.85896 -0.46852,-0.39043 -0.858952,-0.85895 -1.093212,-1.56173 -0.312346,-0.62469 -0.468519,-1.48364 -0.468519,-2.42068 l 0,-4.21667 c 0,-1.01513 0.156173,-1.87408 0.468519,-2.57686 0.312346,-0.70278 0.702779,-1.1713 1.093212,-1.56173 0.468519,-0.39043 1.015125,-0.70278 1.717904,-0.93704 0.780866,-0.15617 1.405558,-0.31235 1.952164,-0.39043 0.546606,0 1.249385,-0.0781 2.108337,-0.0781 0.780865,0 1.483644,0.0781 2.03025,0.0781 0.546606,0.0781 1.171299,0.23426 1.952164,0.39043 0.702779,0.23426 1.249385,0.54661 1.717904,0.93704 0.390433,0.39043 0.780866,0.85895 1.093212,1.56173 0.312346,0.70278 0.468519,1.56173 0.468519,2.57686 z m -4.372847,4.76328 0,-5.46606 c 0,-0.78087 -0.156173,-1.32747 -0.546606,-1.63982 -0.390432,-0.31235 -1.171298,-0.46852 -2.342596,-0.46852 -1.249385,0 -2.030251,0.15617 -2.420683,0.46852 -0.390433,0.31235 -0.546606,0.85895 -0.546606,1.63982 l 0,5.46606 c 0,0.78086 0.156173,1.24938 0.546606,1.56173 0.390432,0.31234 1.171298,0.46852 2.420683,0.46852 1.171298,0 1.952164,-0.15618 2.342596,-0.46852 0.390433,-0.31235 0.546606,-0.78087 0.546606,-1.56173 z"
       id="path3076" />
    <path
       inkscape:connector-curvature="0"
       style="fill:#000000;fill-opacity:1;fill-rule:evenodd;stroke:none"
       d="m 81.000521,433.81237 0,1.79599 c 0,0.70278 -0.15617,1.32747 -0.39043,1.79599 -0.31235,0.54661 -0.62469,0.93704 -1.01513,1.24938 -0.39043,0.31235 -0.93703,0.46852 -1.56173,0.6247 -0.70278,0.23426 -1.32747,0.31234 -1.95216,0.31234 -0.54661,0.0781 -1.24939,0.0781 -2.10834,0.0781 -1.56173,0 -3.435806,-0.15617 -5.700316,-0.39043 l 0,-2.88921 c 2.811116,0.39044 4.685196,0.6247 5.778406,0.6247 0.85895,0 1.48364,-0.0781 1.95216,-0.31235 0.46852,-0.15617 0.70278,-0.46852 0.70278,-0.93704 l 0,-0.93704 c 0,-0.39043 -0.15617,-0.78086 -0.39043,-1.01512 -0.23426,-0.23426 -0.78087,-0.31235 -1.63982,-0.31235 l -1.87408,0 c -1.48364,0 -2.654939,-0.31234 -3.513891,-0.93704 -0.858952,-0.5466 -1.249385,-1.48364 -1.249385,-2.65494 l 0,-1.7179 c 0,-1.32748 0.624693,-2.26451 1.874078,-2.73303 1.249388,-0.46852 2.967288,-0.78087 5.231798,-0.78087 0.93704,0 2.65494,0.15617 5.15371,0.31235 l 0,2.73303 c -3.12346,-0.23426 -4.84136,-0.31235 -5.2318,-0.31235 -1.24938,0 -1.95216,0.0781 -2.26451,0.23426 -0.39043,0.15617 -0.5466,0.46852 -0.5466,0.93704 l 0,0.78086 c 0,0.23426 0.15617,0.46852 0.39043,0.70278 0.23426,0.15618 0.62469,0.23426 1.1713,0.23426 l 1.87408,0 c 3.51389,0 5.30988,1.1713 5.30988,3.5139 z"
       id="path3078" />
    <path
       inkscape:connector-curvature="0"
       style="fill:#000000;fill-opacity:1;fill-rule:evenodd;stroke:none"
       d="m 96.617831,433.81237 0,1.79599 c 0,0.70278 -0.15617,1.32747 -0.39043,1.79599 -0.31235,0.54661 -0.62469,0.93704 -1.01512,1.24938 -0.39044,0.31235 -0.93704,0.46852 -1.63982,0.6247 -0.62469,0.23426 -1.24939,0.31234 -1.87408,0.31234 -0.54661,0.0781 -1.32747,0.0781 -2.10834,0.0781 -1.56173,0 -3.4358,-0.15617 -5.70031,-0.39043 l 0,-2.88921 c 2.81111,0.39044 4.68519,0.6247 5.7784,0.6247 0.85895,0 1.48364,-0.0781 1.95216,-0.31235 0.46852,-0.15617 0.70278,-0.46852 0.70278,-0.93704 l 0,-0.93704 c 0,-0.39043 -0.15617,-0.78086 -0.39043,-1.01512 -0.23426,-0.23426 -0.78087,-0.31235 -1.63982,-0.31235 l -1.87407,0 c -1.48365,0 -2.73303,-0.31234 -3.5139,-0.93704 -0.85895,-0.5466 -1.24938,-1.48364 -1.24938,-2.65494 l 0,-1.7179 c 0,-1.32748 0.62469,-2.26451 1.87407,-2.73303 1.24939,-0.46852 2.96729,-0.78087 5.2318,-0.78087 0.93704,0 2.65494,0.15617 5.15371,0.31235 l 0,2.73303 c -3.12346,-0.23426 -4.84136,-0.31235 -5.23179,-0.31235 -1.24939,0 -1.95217,0.0781 -2.3426,0.23426 -0.31235,0.15617 -0.46852,0.46852 -0.46852,0.93704 l 0,0.78086 c 0,0.23426 0.15617,0.46852 0.39043,0.70278 0.23426,0.15618 0.62469,0.23426 1.1713,0.23426 l 1.87408,0 c 3.51389,0 5.30988,1.1713 5.30988,3.5139 z"
       id="path3080" />
    <path
       inkscape:connector-curvature="0"
       style="fill:#000000;fill-opacity:1;fill-rule:evenodd;stroke:none"
       d="m 114.57774,429.51761 0,4.76328 c 0,1.95216 -0.62469,3.35772 -1.79599,4.21667 -1.1713,0.78087 -3.04538,1.1713 -5.70032,1.1713 -2.73303,0 -4.6071,-0.39043 -5.70032,-1.24939 -1.01512,-0.85895 -1.561729,-2.26451 -1.561729,-4.13858 l 0,-15.6954 4.372849,0 0,7.88674 c 0.23426,-0.70278 0.70278,-1.09321 1.40556,-1.40556 0.70278,-0.23426 1.79599,-0.39043 3.20155,-0.39043 1.24938,0 2.26451,0.15617 3.04537,0.31235 0.70278,0.23426 1.32747,0.5466 1.71791,1.01512 0.39043,0.39044 0.70277,0.93704 0.78086,1.48365 0.15617,0.46852 0.23426,1.1713 0.23426,2.03025 z m -4.37285,5.30988 0,-5.30988 c 0,-0.93704 -0.15617,-1.48365 -0.46852,-1.71791 -0.39043,-0.31234 -1.24938,-0.39043 -2.65494,-0.39043 -1.1713,0 -1.95216,0.15617 -2.34259,0.46852 -0.39044,0.31235 -0.54661,0.85895 -0.54661,1.63982 l 0,5.30988 c 0,0.85896 0.15617,1.48365 0.46852,1.71791 0.39043,0.31234 1.24938,0.46852 2.49877,0.46852 1.24938,0 2.10834,-0.15618 2.49877,-0.46852 0.39043,-0.23426 0.5466,-0.85895 0.5466,-1.71791 z"
       id="path3082" />
    <path
       inkscape:connector-curvature="0"
       style="fill:#000000;fill-opacity:1;fill-rule:evenodd;stroke:none"
       d="m 130.89783,439.4346 -4.29476,0 0,-1.32747 c -0.31235,0.5466 -0.78086,1.01512 -1.32747,1.24938 -0.62469,0.23426 -1.7179,0.31235 -3.27964,0.31235 -1.95216,0 -3.20154,-0.23426 -3.90432,-0.85895 -0.6247,-0.62469 -0.93704,-1.87408 -0.93704,-3.74816 0,-1.63981 0.31234,-2.8892 1.01512,-3.51389 0.6247,-0.70278 1.79599,-1.01513 3.5139,-1.01513 l 4.84136,0 0,-1.01512 c 0,-0.85895 -0.23426,-1.40556 -0.62469,-1.71791 -0.39043,-0.23426 -1.24938,-0.39043 -2.57685,-0.39043 -1.1713,0 -2.88921,0.0781 -4.99754,0.31235 l 0,-2.73303 c 1.63981,-0.15618 3.4358,-0.31235 5.46605,-0.31235 2.65495,0 4.52902,0.39043 5.54415,1.01513 1.01513,0.62469 1.56173,1.87407 1.56173,3.82624 l 0,9.91699 z m -4.37285,-3.74815 0,-2.73303 -2.96728,0 c -0.93704,0 -1.56174,0.0781 -1.796,0.31234 -0.23426,0.23426 -0.31234,0.78087 -0.31234,1.71791 0,0.93704 0.0781,1.48364 0.31234,1.7179 0.31235,0.15617 0.93704,0.31235 1.87408,0.31235 0.54661,0 0.85895,0 1.1713,0 0.23426,-0.0781 0.46852,-0.0781 0.78087,-0.0781 0.23426,-0.0781 0.46851,-0.15617 0.5466,-0.23426 0.0781,-0.0781 0.15617,-0.23426 0.31235,-0.39043 0.0781,-0.15618 0.0781,-0.31235 0.0781,-0.62469 z"
       id="path3084" />
    <path
       inkscape:connector-curvature="0"
       style="fill:#000000;fill-opacity:1;fill-rule:evenodd;stroke:none"
       d="m 144.09446,428.34631 -1.48365,0 c -1.17129,0 -2.10833,0.15617 -2.65494,0.54661 -0.62469,0.31234 -0.93704,0.93703 -0.93704,1.87407 l 0,8.66761 -4.37284,0 0,-14.44601 4.13858,0 0,2.57685 c 0.0781,-0.70278 0.46852,-1.40555 1.24939,-1.95216 0.78086,-0.62469 1.63982,-0.93704 2.49877,-0.93704 l 1.56173,0 0,3.67007 z"
       id="path3086" />
    <path
       inkscape:connector-curvature="0"
       style="fill:#000000;fill-opacity:1;fill-rule:evenodd;stroke:none"
       d="m 146.67132,436.23305 0,3.20155 3.4358,0 0,-3.20155 -3.4358,0 z"
       id="path3088" />
    <path
       inkscape:connector-curvature="0"
       style="fill:#000000;fill-opacity:1;fill-rule:evenodd;stroke:none"
       d="m 157.13491,422.5679 -2.65494,0 0,-2.73303 2.65494,0 0,2.73303 z m 0,16.8667 -2.65494,0 0,-14.44601 2.65494,0 0,14.44601 z"
       id="path3090" />
    <path
       inkscape:connector-curvature="0"
       style="fill:#000000;fill-opacity:1;fill-rule:evenodd;stroke:none"
       d="m 174.47013,429.82995 0,4.99754 c 0,0.93704 -0.0781,1.63982 -0.31235,2.26451 -0.23426,0.6247 -0.46852,1.09322 -0.78086,1.48365 -0.39044,0.31234 -0.85895,0.5466 -1.48365,0.70278 -0.62469,0.23426 -1.24938,0.31234 -1.79599,0.39043 -0.5466,0 -1.32747,0 -2.18642,0 -1.24939,0 -2.18643,0 -2.81112,-0.0781 -0.70278,-0.0781 -1.32747,-0.31234 -2.03025,-0.62469 -0.62469,-0.31235 -1.09321,-0.78086 -1.40556,-1.40556 -0.31234,-0.70278 -0.39043,-1.56173 -0.39043,-2.73303 l 0,-4.99754 c 0,-0.93703 0.0781,-1.7179 0.31235,-2.34259 0.23426,-0.70278 0.46852,-1.1713 0.85895,-1.56173 0.31235,-0.39044 0.78086,-0.6247 1.40556,-0.78087 0.62469,-0.23426 1.24938,-0.31235 1.79599,-0.39043 0.5466,0 1.24938,-0.0781 2.26451,-0.0781 0.93704,0 1.63982,0.0781 2.18642,0.0781 0.54661,0.0781 1.1713,0.15617 1.79599,0.39043 0.6247,0.15617 1.09321,0.39043 1.40556,0.78087 0.31235,0.39043 0.62469,0.85895 0.85895,1.56173 0.23426,0.62469 0.31235,1.40556 0.31235,2.34259 z m -2.73303,5.38798 0,-5.77841 c 0,-1.32747 -0.23426,-2.18642 -0.78087,-2.49877 -0.5466,-0.31234 -1.56173,-0.46852 -3.04537,-0.46852 -1.56173,0 -2.57686,0.15618 -3.12346,0.46852 -0.54661,0.31235 -0.78087,1.1713 -0.78087,2.49877 l 0,5.77841 c 0,0.62469 0,1.17129 0.15617,1.56173 0.15618,0.31234 0.39044,0.62469 0.78087,0.78086 0.39043,0.15618 0.78086,0.31235 1.1713,0.31235 0.39043,0.0781 1.01512,0.0781 1.79599,0.0781 0.70278,0 1.32747,0 1.7179,-0.0781 0.39044,0 0.78087,-0.15617 1.1713,-0.31235 0.39043,-0.15617 0.62469,-0.46852 0.78087,-0.78086 0.0781,-0.39044 0.15617,-0.93704 0.15617,-1.56173 z"
       id="path3092" />
    <path
       inkscape:connector-curvature="0"
       style="fill:#000000;fill-opacity:1;fill-rule:evenodd;stroke:none"
       d="m 62.415923,337.53165 0,64.81184 64.733757,0 0,-64.81184 -64.733757,0 z"
       id="path3094" />
    <path
       inkscape:connector-curvature="0"
       style="fill:#ffe100;fill-opacity:1;fill-rule:evenodd;stroke:none"
       d="m 62.415923,351.27488 0,6.48118 15.226878,-0.0781 10.15125,10.15125 4.76328,-4.68519 -12.02533,-12.02533 -18.116078,0.15617 z"
       id="path3096" />
    <path
       inkscape:connector-curvature="0"
       style="fill:#ffe100;fill-opacity:1;fill-rule:evenodd;stroke:none"
       d="m 101.69346,372.35825 -4.685189,4.68519 11.634889,11.6349 18.50652,0 0,-6.48118 -15.61731,0 -9.83891,-9.83891 z"
       id="path3098" />
    <path
       inkscape:connector-curvature="0"
       style="fill:#ffe100;fill-opacity:1;fill-rule:evenodd;stroke:none"
       d="m 109.11168,351.19679 -30.922269,31.07845 -15.773488,0 0,6.48119 18.506518,0 31.000359,-31.00037 15.22688,0 0,-6.55927 -18.038,0 z"
       id="path3100" />
    <path
       inkscape:connector-curvature="0"
       style="fill:none;stroke:#000000;stroke-width:3.59198141px;stroke-linecap:round;stroke-linejoin:round;stroke-opacity:1;stroke-dasharray:none"
       d="M 76.159161,465.04699 43.597064,558.59468"
       id="path3102" />
    <path
       inkscape:connector-curvature="0"
       style="fill:none;stroke:#000000;stroke-width:3.59198141px;stroke-linecap:round;stroke-linejoin:round;stroke-opacity:1;stroke-dasharray:none"
       d="m 189.46275,410.69875 143.9916,45.36829"
       id="path3104" />
    <path
       inkscape:connector-curvature="0"
       style="fill:#595959;fill-opacity:1;fill-rule:evenodd;stroke:none"
       d="m 449.17863,321.91433 c 13.04045,0 23.58214,-10.54168 23.58214,-23.58214 l 0,0 0,-62.31307 c 0,-13.04045 -10.54169,-23.58214 -23.58214,-23.58214 l 0,0 -89.72145,0 c -13.04046,0 -23.58214,10.54169 -23.58214,23.58214 l 0,0 0,62.31307 c 0,13.04046 10.54168,23.58214 23.58214,23.58214 l 0,0 89.72145,0 z"
       id="path3106" />
    <path
       inkscape:connector-curvature="0"
       style="fill:none;stroke:#000000;stroke-width:3.59198141px;stroke-linecap:round;stroke-linejoin:round;stroke-opacity:1;stroke-dasharray:none"
       d="m 449.17863,321.91433 c 13.04045,0 23.58214,-10.54168 23.58214,-23.58214 l 0,0 0,-62.31307 c 0,-13.04045 -10.54169,-23.58214 -23.58214,-23.58214 l 0,0 -89.72145,0 c -13.04046,0 -23.58214,10.54169 -23.58214,23.58214 l 0,0 0,62.31307 c 0,13.04046 10.54168,23.58214 23.58214,23.58214 l 0,0 89.72145,0 z"
       id="path3108" />
    <g
       style="font-size:23.73831177px;font-style:normal;font-weight:normal;text-align:start;text-anchor:start;fill:#ffffff;font-family:Arial"
       id="text3110">
      <path
         d="m 383.16069,259.9136 6.52572,-16.99236 2.42251,0 6.95459,16.99236 -2.56161,0 -1.98205,-5.14639 -7.10527,0 -1.86615,5.14639 z m 4.90298,-6.97776 5.76072,0 -1.77342,-4.70594 c -0.54092,-1.42954 -0.94274,-2.60409 -1.20546,-3.52365 -0.21638,1.08956 -0.5216,2.17139 -0.91569,3.24547 z"
         style="font-size:23.73831177px;font-style:normal;font-weight:normal;text-align:start;text-anchor:start;fill:#ffffff;font-family:Arial"
         id="path3125" />
      <path
         d="m 400.6167,264.63113 0,-17.02714 1.90092,0 0,1.59956 c 0.44818,-0.62591 0.95431,-1.09534 1.51841,-1.40831 0.56409,-0.31294 1.24796,-0.46942 2.05161,-0.46943 1.0509,1e-5 1.97818,0.27047 2.78183,0.81137 0.80363,0.54092 1.41022,1.30399 1.81978,2.28921 0.40954,0.98524 0.61431,2.06514 0.61432,3.23968 -10e-6,1.25956 -0.22603,2.39354 -0.67807,3.40195 -0.45206,1.00842 -1.10888,1.78115 -1.97046,2.3182 -0.86161,0.53704 -1.76764,0.80557 -2.71809,0.80557 -0.69546,0 -1.31944,-0.14682 -1.87194,-0.44046 -0.55251,-0.29364 -1.00649,-0.66455 -1.36194,-1.11273 l 0,5.99253 z m 1.88932,-10.80279 c 0,1.58411 0.32068,2.7548 0.96206,3.51207 0.64136,0.75728 1.41795,1.13592 2.32978,1.13591 0.92727,1e-5 1.72125,-0.39216 2.38195,-1.17648 0.66067,-0.78432 0.99101,-1.99944 0.99102,-3.64536 -1e-5,-1.56864 -0.32262,-2.74319 -0.96784,-3.52366 -0.64524,-0.78044 -1.41604,-1.17067 -2.3124,-1.17068 -0.88865,1e-5 -1.6749,0.41535 -2.35876,1.24603 -0.68388,0.83069 -1.02581,2.03808 -1.02581,3.62217 z"
         style="font-size:23.73831177px;font-style:normal;font-weight:normal;text-align:start;text-anchor:start;fill:#ffffff;font-family:Arial"
         id="path3127" />
      <path
         d="m 413.83041,264.63113 0,-17.02714 1.90092,0 0,1.59956 c 0.44818,-0.62591 0.95431,-1.09534 1.51841,-1.40831 0.56409,-0.31294 1.24796,-0.46942 2.05161,-0.46943 1.0509,1e-5 1.97818,0.27047 2.78183,0.81137 0.80363,0.54092 1.41022,1.30399 1.81978,2.28921 0.40954,0.98524 0.61431,2.06514 0.61432,3.23968 -1e-5,1.25956 -0.22603,2.39354 -0.67807,3.40195 -0.45206,1.00842 -1.10888,1.78115 -1.97046,2.3182 -0.86161,0.53704 -1.76764,0.80557 -2.71809,0.80557 -0.69546,0 -1.31944,-0.14682 -1.87194,-0.44046 -0.55251,-0.29364 -1.00649,-0.66455 -1.36194,-1.11273 l 0,5.99253 z m 1.88932,-10.80279 c 0,1.58411 0.32068,2.7548 0.96206,3.51207 0.64136,0.75728 1.41795,1.13592 2.32978,1.13591 0.92727,1e-5 1.72125,-0.39216 2.38195,-1.17648 0.66067,-0.78432 0.99101,-1.99944 0.99102,-3.64536 -1e-5,-1.56864 -0.32262,-2.74319 -0.96784,-3.52366 -0.64524,-0.78044 -1.41604,-1.17067 -2.3124,-1.17068 -0.88865,1e-5 -1.6749,0.41535 -2.35876,1.24603 -0.68388,0.83069 -1.02581,2.03808 -1.02581,3.62217 z"
         style="font-size:23.73831177px;font-style:normal;font-weight:normal;text-align:start;text-anchor:start;fill:#ffffff;font-family:Arial"
         id="path3129" />
    </g>
    <g
       style="font-size:23.73831177px;font-style:normal;font-weight:normal;text-align:start;text-anchor:start;fill:#ffffff;font-family:Arial"
       id="text3112">
      <path
         d="m 358.42007,282.69172 2.24865,0.56795 c -0.47138,1.84683 -1.31946,3.25514 -2.54422,4.22491 -1.22479,0.96978 -2.72196,1.45467 -4.4915,1.45467 -1.83138,0 -3.32082,-0.37284 -4.46832,-1.11853 -1.14751,-0.74568 -2.0207,-1.82557 -2.61956,-3.23968 -0.59887,-1.41409 -0.8983,-2.93251 -0.8983,-4.55525 0,-1.76954 0.33807,-3.31307 1.01421,-4.63059 0.67614,-1.31749 1.63818,-2.31818 2.88615,-3.00206 1.24796,-0.68385 2.62148,-1.02579 4.12059,-1.0258 1.7,10e-6 3.12955,0.43274 4.28866,1.29818 1.15908,0.86548 1.96659,2.08253 2.42251,3.65116 l -2.21387,0.52159 c -0.39411,-1.23635 -0.96593,-2.13658 -1.71547,-2.70069 -0.74956,-0.56408 -1.69229,-0.84613 -2.82819,-0.84614 -1.30593,10e-6 -2.39741,0.31297 -3.27445,0.93887 -0.87706,0.62592 -1.49331,1.46627 -1.84876,2.52103 -0.35546,1.05479 -0.53319,2.14241 -0.53319,3.26286 0,1.44502 0.21057,2.7065 0.63171,3.78445 0.42113,1.07797 1.07602,1.88354 1.96467,2.41672 0.88863,0.53319 1.85068,0.79978 2.88615,0.79978 1.25954,0 2.32591,-0.36318 3.19911,-1.08955 0.87317,-0.72637 1.46431,-1.80433 1.77342,-3.23388 z"
         style="font-size:23.73831177px;font-style:normal;font-weight:normal;text-align:start;text-anchor:start;fill:#ffffff;font-family:Arial"
         id="path3105" />
      <path
         d="m 362.40736,282.49467 c 0,-2.27955 0.63364,-3.96797 1.90092,-5.06526 1.05864,-0.91181 2.3491,-1.36772 3.87139,-1.36773 1.69227,10e-6 3.07546,0.55445 4.14957,1.6633 1.07408,1.10888 1.61113,2.64082 1.61114,4.59582 -1e-5,1.58411 -0.23762,2.83014 -0.71284,3.73809 -0.47524,0.90796 -1.16684,1.61308 -2.07479,2.11536 -0.90796,0.50227 -1.89899,0.75341 -2.97308,0.75341 -1.7232,0 -3.11604,-0.5525 -4.17855,-1.65751 -1.0625,-1.105 -1.59376,-2.69683 -1.59376,-4.77548 z m 2.14433,0 c 0,1.57638 0.34387,2.75672 1.0316,3.54104 0.68773,0.78433 1.55319,1.17649 2.59638,1.17648 1.03545,10e-6 1.89705,-0.39409 2.58479,-1.18227 0.68772,-0.78819 1.03158,-1.98978 1.03159,-3.6048 -10e-6,-1.52227 -0.3458,-2.67557 -1.03739,-3.4599 -0.6916,-0.78431 -1.55127,-1.17648 -2.57899,-1.17649 -1.04319,1e-5 -1.90865,0.39024 -2.59638,1.17069 -0.68773,0.78047 -1.0316,1.95888 -1.0316,3.53525 z"
         style="font-size:23.73831177px;font-style:normal;font-weight:normal;text-align:start;text-anchor:start;fill:#ffffff;font-family:Arial"
         id="path3107" />
      <path
         d="m 376.39767,288.64948 0,-12.30962 1.86615,0 0,1.72706 c 0.38636,-0.60272 0.90022,-1.08761 1.54159,-1.45467 0.64137,-0.36703 1.3716,-0.55056 2.1907,-0.55057 0.91181,10e-6 1.65943,0.18933 2.24285,0.56796 0.5834,0.37865 0.99488,0.90797 1.23444,1.58796 0.97363,-1.43727 2.24091,-2.15591 3.80184,-2.15592 1.2209,10e-6 2.15977,0.33808 2.81661,1.01421 0.6568,0.67615 0.98521,1.7174 0.98523,3.12377 l 0,8.44982 -2.07479,0 0,-7.75437 c -1e-5,-0.83454 -0.0676,-1.43534 -0.20284,-1.80239 -0.13524,-0.36704 -0.38058,-0.66261 -0.73602,-0.88671 -0.35548,-0.22408 -0.77275,-0.33613 -1.25183,-0.33614 -0.86547,1e-5 -1.58411,0.28785 -2.15592,0.86353 -0.57183,0.57569 -0.85774,1.49717 -0.85773,2.76445 l 0,7.15163 -2.08638,0 0,-7.99778 c -10e-6,-0.92726 -0.17001,-1.62272 -0.51,-2.08637 -0.34001,-0.46363 -0.89638,-0.69545 -1.6691,-0.69546 -0.58728,1e-5 -1.13013,0.15456 -1.62853,0.46364 -0.49842,0.3091 -0.85967,0.76115 -1.08376,1.35614 -0.22409,0.59501 -0.33614,1.45275 -0.33614,2.5732 l 0,6.38663 z"
         style="font-size:23.73831177px;font-style:normal;font-weight:normal;text-align:start;text-anchor:start;fill:#ffffff;font-family:Arial"
         id="path3109" />
      <path
         d="m 396.19505,293.367 0,-17.02714 1.90092,0 0,1.59956 c 0.44818,-0.6259 0.95432,-1.09534 1.51842,-1.40831 0.56408,-0.31294 1.24795,-0.46942 2.0516,-0.46943 1.05091,10e-6 1.97818,0.27047 2.78183,0.81137 0.80363,0.54092 1.41023,1.30399 1.81978,2.28921 0.40954,0.98525 0.61431,2.06514 0.61433,3.23968 -2e-5,1.25956 -0.22604,2.39354 -0.67808,3.40195 -0.45205,1.00842 -1.10888,1.78115 -1.97046,2.3182 -0.86161,0.53704 -1.76763,0.80557 -2.71808,0.80557 -0.69547,0 -1.31945,-0.14682 -1.87195,-0.44046 -0.5525,-0.29364 -1.00648,-0.66455 -1.36194,-1.11273 l 0,5.99253 z m 1.88933,-10.80279 c -1e-5,1.58411 0.32068,2.7548 0.96205,3.51207 0.64136,0.75728 1.41796,1.13592 2.32978,1.13591 0.92727,10e-6 1.72126,-0.39215 2.38195,-1.17648 0.66067,-0.78432 0.99102,-1.99944 0.99103,-3.64536 -10e-6,-1.56864 -0.32263,-2.74319 -0.96785,-3.52366 -0.64524,-0.78044 -1.41604,-1.17067 -2.3124,-1.17068 -0.88865,10e-6 -1.6749,0.41535 -2.35876,1.24603 -0.68387,0.83069 -1.02581,2.03808 -1.0258,3.62217 z"
         style="font-size:23.73831177px;font-style:normal;font-weight:normal;text-align:start;text-anchor:start;fill:#ffffff;font-family:Arial"
         id="path3111" />
      <path
         d="m 408.63217,282.49467 c -10e-6,-2.27955 0.63363,-3.96797 1.90091,-5.06526 1.05864,-0.91181 2.3491,-1.36772 3.87139,-1.36773 1.69227,10e-6 3.07546,0.55445 4.14957,1.6633 1.07408,1.10888 1.61113,2.64082 1.61114,4.59582 -1e-5,1.58411 -0.23762,2.83014 -0.71284,3.73809 -0.47524,0.90796 -1.16684,1.61308 -2.07479,2.11536 -0.90796,0.50227 -1.89899,0.75341 -2.97308,0.75341 -1.7232,0 -3.11604,-0.5525 -4.17855,-1.65751 -1.0625,-1.105 -1.59376,-2.69683 -1.59375,-4.77548 z m 2.14432,0 c 0,1.57638 0.34387,2.75672 1.0316,3.54104 0.68773,0.78433 1.55319,1.17649 2.59638,1.17648 1.03545,10e-6 1.89705,-0.39409 2.58479,-1.18227 0.68772,-0.78819 1.03158,-1.98978 1.03159,-3.6048 -10e-6,-1.52227 -0.3458,-2.67557 -1.03739,-3.4599 -0.6916,-0.78431 -1.55127,-1.17648 -2.57899,-1.17649 -1.04319,1e-5 -1.90865,0.39024 -2.59638,1.17069 -0.68773,0.78047 -1.0316,1.95888 -1.0316,3.53525 z"
         style="font-size:23.73831177px;font-style:normal;font-weight:normal;text-align:start;text-anchor:start;fill:#ffffff;font-family:Arial"
         id="path3113" />
      <path
         d="m 422.62247,288.64948 0,-12.30962 1.87773,0 0,1.75024 c 0.9041,-1.35227 2.21001,-2.02841 3.91775,-2.02842 0.74182,10e-6 1.42375,0.13331 2.04581,0.39989 0.62204,0.2666 1.08761,0.61626 1.39671,1.04898 0.30908,0.43274 0.52545,0.94661 0.6491,1.5416 0.0773,0.38637 0.11589,1.06251 0.11591,2.02842 l 0,7.56891 -2.08638,0 0,-7.48777 c -1e-5,-0.85 -0.0811,-1.48557 -0.24341,-1.90672 -0.16228,-0.42113 -0.45012,-0.75726 -0.86353,-1.00841 -0.41342,-0.25113 -0.8983,-0.3767 -1.45466,-0.37671 -0.88865,1e-5 -1.65559,0.28206 -2.30081,0.84614 -0.64524,0.5641 -0.96785,1.63434 -0.96785,3.2107 l 0,6.72277 z"
         style="font-size:23.73831177px;font-style:normal;font-weight:normal;text-align:start;text-anchor:start;fill:#ffffff;font-family:Arial"
         id="path3115" />
      <path
         d="m 444.26281,284.68536 2.15592,0.26659 c -0.34001,1.25956 -0.96979,2.23706 -1.88933,2.93252 -0.91956,0.69546 -2.09411,1.04319 -3.52365,1.04319 -1.80047,0 -3.22809,-0.55444 -4.28287,-1.66331 -1.05478,-1.10886 -1.58217,-2.66398 -1.58216,-4.66536 -10e-6,-2.07091 0.53318,-3.67819 1.59955,-4.82185 1.06637,-1.14363 2.44955,-1.71545 4.14957,-1.71546 1.64591,10e-6 2.99046,0.56024 4.03366,1.68069 1.04317,1.12047 1.56477,2.69684 1.56478,4.72912 -10e-6,0.12364 -0.004,0.3091 -0.0116,0.55636 l -9.18005,0 c 0.0773,1.35229 0.45977,2.38775 1.1475,3.10638 0.68773,0.71865 1.54546,1.07797 2.5732,1.07796 0.765,10e-6 1.41795,-0.2009 1.95887,-0.60273 0.54091,-0.40181 0.96977,-1.04318 1.2866,-1.9241 z m -6.85026,-3.37297 6.87344,0 c -0.0927,-1.03545 -0.35546,-1.81205 -0.78818,-2.32979 -0.66456,-0.80363 -1.52616,-1.20545 -2.58479,-1.20546 -0.95819,1e-5 -1.76376,0.3207 -2.41672,0.96205 -0.65296,0.64138 -1.01421,1.49911 -1.08375,2.5732 z"
         style="font-size:23.73831177px;font-style:normal;font-weight:normal;text-align:start;text-anchor:start;fill:#ffffff;font-family:Arial"
         id="path3117" />
      <path
         d="m 449.04989,288.64948 0,-12.30962 1.87774,0 0,1.75024 c 0.90409,-1.35227 2.21,-2.02841 3.91774,-2.02842 0.74182,10e-6 1.42375,0.13331 2.04581,0.39989 0.62204,0.2666 1.08761,0.61626 1.39671,1.04898 0.30909,0.43274 0.52545,0.94661 0.6491,1.5416 0.0773,0.38637 0.1159,1.06251 0.11591,2.02842 l 0,7.56891 -2.08638,0 0,-7.48777 c -10e-6,-0.85 -0.0811,-1.48557 -0.24341,-1.90672 -0.16228,-0.42113 -0.45012,-0.75726 -0.86352,-1.00841 -0.41342,-0.25113 -0.89831,-0.3767 -1.45467,-0.37671 -0.88865,1e-5 -1.65558,0.28206 -2.30081,0.84614 -0.64523,0.5641 -0.96785,1.63434 -0.96785,3.2107 l 0,6.72277 z"
         style="font-size:23.73831177px;font-style:normal;font-weight:normal;text-align:start;text-anchor:start;fill:#ffffff;font-family:Arial"
         id="path3119" />
      <path
         d="m 466.81885,286.78333 0.30136,1.84296 c -0.58728,0.12364 -1.11274,0.18546 -1.57637,0.18546 -0.75728,0 -1.34456,-0.11977 -1.76183,-0.35932 -0.41727,-0.23955 -0.71091,-0.55444 -0.88091,-0.94467 -0.17,-0.39022 -0.255,-1.21125 -0.255,-2.46308 l 0,-7.08208 -1.53001,0 0,-1.62274 1.53001,0 0,-3.04842 2.07478,-1.25183 0,4.30025 2.09797,0 0,1.62274 -2.09797,0 0,7.19799 c 0,0.59501 0.0367,0.97751 0.11012,1.14751 0.0734,0.17 0.19317,0.30523 0.35932,0.40568 0.16613,0.10046 0.40374,0.15069 0.71284,0.15069 0.23182,0 0.53704,-0.027 0.91569,-0.0811 z"
         style="font-size:23.73831177px;font-style:normal;font-weight:normal;text-align:start;text-anchor:start;fill:#ffffff;font-family:Arial"
         id="path3121" />
    </g>
    <path
       inkscape:connector-curvature="0"
       style="fill:none;stroke:#000000;stroke-width:3.59198141px;stroke-linecap:round;stroke-linejoin:round;stroke-opacity:1;stroke-dasharray:none"
       d="M 189.46275,354.086 335.87504,267.17566"
       id="path3114" />
    <path
       inkscape:connector-curvature="0"
       style="fill:#595959;fill-opacity:1;fill-rule:evenodd;stroke:none"
       d="m 305.18702,668.54055 c 13.04046,0 23.58214,-10.54168 23.58214,-23.58214 l 0,0 0,-62.31307 c 0,-13.04045 -10.54168,-23.66022 -23.58214,-23.66022 l 0,0 -89.72145,0 c -13.04045,0 -23.66023,10.61977 -23.66023,23.66022 l 0,0 0,62.31307 c 0,13.04046 10.61978,23.58214 23.66023,23.58214 l 0,0 89.72145,0 z"
       id="path3116" />
    <path
       inkscape:connector-curvature="0"
       style="fill:none;stroke:#000000;stroke-width:3.59198141px;stroke-linecap:round;stroke-linejoin:round;stroke-opacity:1;stroke-dasharray:none"
       d="m 305.18702,668.54055 c 13.04046,0 23.58214,-10.54168 23.58214,-23.58214 l 0,0 0,-62.31307 c 0,-13.04045 -10.54168,-23.66022 -23.58214,-23.66022 l 0,0 -89.72145,0 c -13.04045,0 -23.66023,10.61977 -23.66023,23.66022 l 0,0 0,62.31307 c 0,13.04046 10.61978,23.58214 23.66023,23.58214 l 0,0 89.72145,0 z"
       id="path3118" />
    <g
       style="font-size:23.73831177px;font-style:normal;font-weight:normal;text-align:start;text-anchor:start;fill:#ffffff;font-family:Arial"
       id="text3120">
      <path
         d="m 239.48145,607.24261 6.52571,-16.99236 2.42252,0 6.95458,16.99236 -2.5616,0 -1.98206,-5.14639 -7.10527,0 -1.86614,5.14639 z m 4.90298,-6.97776 5.76071,0 -1.77342,-4.70594 c -0.54092,-1.42954 -0.94274,-2.60409 -1.20546,-3.52365 -0.21637,1.08956 -0.5216,2.17139 -0.91568,3.24547 z"
         style="font-size:23.73831177px;font-style:normal;font-weight:normal;text-align:start;text-anchor:start;fill:#ffffff;font-family:Arial"
         id="path3178" />
      <path
         d="m 256.93745,611.96014 0,-17.02714 1.90092,0 0,1.59956 c 0.44818,-0.62591 0.95432,-1.09534 1.51842,-1.40831 0.56409,-0.31294 1.24795,-0.46942 2.0516,-0.46943 1.05091,10e-6 1.97818,0.27047 2.78183,0.81137 0.80363,0.54092 1.41023,1.30399 1.81979,2.28921 0.40953,0.98524 0.61431,2.06514 0.61432,3.23968 -10e-6,1.25956 -0.22604,2.39354 -0.67807,3.40195 -0.45206,1.00842 -1.10888,1.78115 -1.97047,2.3182 -0.8616,0.53704 -1.76763,0.80557 -2.71808,0.80557 -0.69547,0 -1.31945,-0.14682 -1.87194,-0.44046 -0.55251,-0.29364 -1.00649,-0.66455 -1.36194,-1.11273 l 0,5.99253 z m 1.88933,-10.80279 c 0,1.58411 0.32068,2.7548 0.96205,3.51207 0.64136,0.75728 1.41796,1.13592 2.32979,1.13591 0.92727,10e-6 1.72125,-0.39216 2.38194,-1.17648 0.66068,-0.78432 0.99102,-1.99944 0.99103,-3.64536 -10e-6,-1.56864 -0.32263,-2.74319 -0.96785,-3.52366 -0.64524,-0.78044 -1.41604,-1.17067 -2.3124,-1.17068 -0.88864,1e-5 -1.6749,0.41535 -2.35876,1.24603 -0.68387,0.83069 -1.0258,2.03808 -1.0258,3.62217 z"
         style="font-size:23.73831177px;font-style:normal;font-weight:normal;text-align:start;text-anchor:start;fill:#ffffff;font-family:Arial"
         id="path3180" />
      <path
         d="m 270.15116,611.96014 0,-17.02714 1.90092,0 0,1.59956 c 0.44818,-0.62591 0.95432,-1.09534 1.51842,-1.40831 0.56409,-0.31294 1.24795,-0.46942 2.0516,-0.46943 1.05091,10e-6 1.97818,0.27047 2.78183,0.81137 0.80363,0.54092 1.41023,1.30399 1.81979,2.28921 0.40953,0.98524 0.61431,2.06514 0.61432,3.23968 -10e-6,1.25956 -0.22604,2.39354 -0.67807,3.40195 -0.45206,1.00842 -1.10888,1.78115 -1.97047,2.3182 -0.8616,0.53704 -1.76763,0.80557 -2.71808,0.80557 -0.69547,0 -1.31945,-0.14682 -1.87194,-0.44046 -0.55251,-0.29364 -1.00649,-0.66455 -1.36194,-1.11273 l 0,5.99253 z m 1.88933,-10.80279 c 0,1.58411 0.32068,2.7548 0.96205,3.51207 0.64136,0.75728 1.41796,1.13592 2.32979,1.13591 0.92727,10e-6 1.72125,-0.39216 2.38194,-1.17648 0.66068,-0.78432 0.99102,-1.99944 0.99103,-3.64536 -1e-5,-1.56864 -0.32263,-2.74319 -0.96785,-3.52366 -0.64524,-0.78044 -1.41604,-1.17067 -2.3124,-1.17068 -0.88864,1e-5 -1.6749,0.41535 -2.35876,1.24603 -0.68387,0.83069 -1.0258,2.03808 -1.0258,3.62217 z"
         style="font-size:23.73831177px;font-style:normal;font-weight:normal;text-align:start;text-anchor:start;fill:#ffffff;font-family:Arial"
         id="path3182" />
    </g>
    <g
       style="font-size:23.73831177px;font-style:normal;font-weight:normal;text-align:start;text-anchor:start;fill:#ffffff;font-family:Arial"
       id="text3122">
      <path
         d="m 213.49145,628.77131 2.24865,0.56795 c -0.47138,1.84683 -1.31946,3.25514 -2.54422,4.22491 -1.22479,0.96978 -2.72196,1.45467 -4.4915,1.45467 -1.83138,0 -3.32082,-0.37284 -4.46832,-1.11853 -1.14751,-0.74568 -2.0207,-1.82558 -2.61956,-3.23968 -0.59887,-1.41409 -0.8983,-2.93251 -0.8983,-4.55525 0,-1.76954 0.33807,-3.31307 1.01421,-4.63059 0.67614,-1.31749 1.63819,-2.31818 2.88615,-3.00206 1.24796,-0.68385 2.62148,-1.02579 4.12059,-1.02581 1.7,2e-5 3.12955,0.43275 4.28866,1.29819 1.15908,0.86548 1.96659,2.08253 2.42251,3.65116 l -2.21387,0.52159 c -0.39411,-1.23635 -0.96593,-2.13658 -1.71547,-2.70069 -0.74956,-0.56408 -1.69229,-0.84613 -2.82819,-0.84614 -1.30593,10e-6 -2.39741,0.31297 -3.27445,0.93887 -0.87706,0.62592 -1.49331,1.46627 -1.84876,2.52103 -0.35546,1.05479 -0.53319,2.14241 -0.53319,3.26286 0,1.44502 0.21057,2.7065 0.63171,3.78445 0.42114,1.07797 1.07602,1.88354 1.96467,2.41672 0.88863,0.53319 1.85068,0.79978 2.88615,0.79978 1.25955,0 2.32591,-0.36318 3.19911,-1.08955 0.87317,-0.72637 1.46431,-1.80433 1.77342,-3.23388 z"
         style="font-size:23.73831177px;font-style:normal;font-weight:normal;text-align:start;text-anchor:start;fill:#ffffff;font-family:Arial"
         id="path3159" />
      <path
         d="m 217.47875,628.57426 c -1e-5,-2.27955 0.63363,-3.96797 1.90092,-5.06526 1.05863,-0.91181 2.34909,-1.36772 3.87138,-1.36773 1.69227,1e-5 3.07546,0.55445 4.14957,1.6633 1.07408,1.10888 1.61113,2.64082 1.61114,4.59582 -1e-5,1.58411 -0.23762,2.83014 -0.71284,3.73809 -0.47524,0.90796 -1.16684,1.61308 -2.07479,2.11536 -0.90796,0.50227 -1.89899,0.75341 -2.97308,0.75341 -1.7232,0 -3.11604,-0.5525 -4.17855,-1.65751 -1.0625,-1.105 -1.59376,-2.69683 -1.59375,-4.77548 z m 2.14433,0 c -10e-6,1.57638 0.34386,2.75672 1.03159,3.54104 0.68773,0.78432 1.55319,1.17649 2.59638,1.17648 1.03545,10e-6 1.89705,-0.39409 2.58479,-1.18227 0.68772,-0.78819 1.03158,-1.98978 1.03159,-3.6048 -1e-5,-1.52227 -0.3458,-2.67557 -1.03739,-3.4599 -0.6916,-0.78431 -1.55126,-1.17648 -2.57899,-1.17649 -1.04319,10e-6 -1.90865,0.39024 -2.59638,1.17069 -0.68773,0.78047 -1.0316,1.95888 -1.03159,3.53525 z"
         style="font-size:23.73831177px;font-style:normal;font-weight:normal;text-align:start;text-anchor:start;fill:#ffffff;font-family:Arial"
         id="path3161" />
      <path
         d="m 231.46905,634.72906 0,-12.30961 1.86615,0 0,1.72706 c 0.38636,-0.60272 0.90022,-1.08761 1.5416,-1.45467 0.64136,-0.36704 1.37159,-0.55056 2.19069,-0.55057 0.91181,1e-5 1.65943,0.18933 2.24285,0.56796 0.5834,0.37865 0.99488,0.90797 1.23444,1.58796 0.97363,-1.43727 2.24091,-2.15591 3.80184,-2.15592 1.2209,1e-5 2.15977,0.33808 2.81661,1.01421 0.6568,0.67615 0.98521,1.7174 0.98523,3.12377 l 0,8.44981 -2.07479,0 0,-7.75436 c -1e-5,-0.83454 -0.0676,-1.43534 -0.20284,-1.80239 -0.13524,-0.36704 -0.38058,-0.66261 -0.73602,-0.88671 -0.35548,-0.22408 -0.77275,-0.33613 -1.25183,-0.33614 -0.86547,10e-6 -1.58411,0.28785 -2.15592,0.86353 -0.57183,0.57569 -0.85774,1.49717 -0.85773,2.76444 l 0,7.15163 -2.08638,0 0,-7.99777 c -1e-5,-0.92726 -0.17001,-1.62272 -0.51,-2.08637 -0.34001,-0.46363 -0.89638,-0.69545 -1.6691,-0.69546 -0.58728,10e-6 -1.13012,0.15456 -1.62853,0.46364 -0.49842,0.3091 -0.85967,0.76115 -1.08376,1.35614 -0.22409,0.59501 -0.33614,1.45275 -0.33614,2.5732 l 0,6.38662 z"
         style="font-size:23.73831177px;font-style:normal;font-weight:normal;text-align:start;text-anchor:start;fill:#ffffff;font-family:Arial"
         id="path3163" />
      <path
         d="m 251.26643,639.44659 0,-17.02714 1.90092,0 0,1.59956 c 0.44818,-0.6259 0.95432,-1.09534 1.51842,-1.40831 0.56409,-0.31294 1.24795,-0.46942 2.0516,-0.46943 1.05091,1e-5 1.97818,0.27047 2.78183,0.81137 0.80363,0.54092 1.41023,1.30399 1.81979,2.28921 0.40953,0.98525 0.6143,2.06514 0.61432,3.23968 -2e-5,1.25956 -0.22604,2.39354 -0.67808,3.40195 -0.45205,1.00842 -1.10888,1.78115 -1.97046,2.3182 -0.8616,0.53704 -1.76763,0.80557 -2.71808,0.80557 -0.69547,0 -1.31945,-0.14682 -1.87195,-0.44046 -0.5525,-0.29364 -1.00648,-0.66455 -1.36193,-1.11273 l 0,5.99253 z m 1.88933,-10.80279 c 0,1.58411 0.32068,2.7548 0.96205,3.51207 0.64136,0.75728 1.41796,1.13592 2.32978,1.13591 0.92727,10e-6 1.72126,-0.39216 2.38195,-1.17648 0.66068,-0.78432 0.99102,-1.99944 0.99103,-3.64536 -10e-6,-1.56864 -0.32263,-2.74319 -0.96785,-3.52366 -0.64524,-0.78044 -1.41604,-1.17067 -2.3124,-1.17068 -0.88864,10e-6 -1.6749,0.41535 -2.35876,1.24603 -0.68387,0.83069 -1.0258,2.03808 -1.0258,3.62217 z"
         style="font-size:23.73831177px;font-style:normal;font-weight:normal;text-align:start;text-anchor:start;fill:#ffffff;font-family:Arial"
         id="path3165" />
      <path
         d="m 263.70355,628.57426 c -1e-5,-2.27955 0.63363,-3.96797 1.90092,-5.06526 1.05863,-0.91181 2.34909,-1.36772 3.87138,-1.36773 1.69227,1e-5 3.07546,0.55445 4.14957,1.6633 1.07408,1.10888 1.61113,2.64082 1.61114,4.59582 -10e-6,1.58411 -0.23762,2.83014 -0.71284,3.73809 -0.47524,0.90796 -1.16684,1.61308 -2.07479,2.11536 -0.90796,0.50227 -1.89899,0.75341 -2.97308,0.75341 -1.7232,0 -3.11604,-0.5525 -4.17855,-1.65751 -1.0625,-1.105 -1.59376,-2.69683 -1.59375,-4.77548 z m 2.14433,0 c -10e-6,1.57638 0.34386,2.75672 1.03159,3.54104 0.68773,0.78432 1.55319,1.17649 2.59638,1.17648 1.03545,10e-6 1.89705,-0.39409 2.58479,-1.18227 0.68772,-0.78819 1.03158,-1.98978 1.03159,-3.6048 -10e-6,-1.52227 -0.3458,-2.67557 -1.03739,-3.4599 -0.6916,-0.78431 -1.55126,-1.17648 -2.57899,-1.17649 -1.04319,10e-6 -1.90865,0.39024 -2.59638,1.17069 -0.68773,0.78047 -1.0316,1.95888 -1.03159,3.53525 z"
         style="font-size:23.73831177px;font-style:normal;font-weight:normal;text-align:start;text-anchor:start;fill:#ffffff;font-family:Arial"
         id="path3167" />
      <path
         d="m 277.69385,634.72906 0,-12.30961 1.87774,0 0,1.75024 c 0.90409,-1.35227 2.21,-2.02841 3.91774,-2.02842 0.74182,1e-5 1.42375,0.13331 2.04581,0.39989 0.62204,0.2666 1.08761,0.61626 1.39671,1.04898 0.30908,0.43274 0.52545,0.94661 0.6491,1.5416 0.0773,0.38637 0.1159,1.06251 0.11591,2.02842 l 0,7.5689 -2.08638,0 0,-7.48776 c -10e-6,-0.85 -0.0811,-1.48557 -0.24341,-1.90672 -0.16228,-0.42113 -0.45012,-0.75727 -0.86353,-1.00841 -0.41342,-0.25113 -0.8983,-0.3767 -1.45466,-0.37671 -0.88865,10e-6 -1.65559,0.28206 -2.30081,0.84614 -0.64524,0.5641 -0.96785,1.63434 -0.96785,3.2107 l 0,6.72276 z"
         style="font-size:23.73831177px;font-style:normal;font-weight:normal;text-align:start;text-anchor:start;fill:#ffffff;font-family:Arial"
         id="path3169" />
      <path
         d="m 299.33419,630.76495 2.15592,0.26659 c -0.34001,1.25956 -0.96979,2.23706 -1.88933,2.93252 -0.91956,0.69546 -2.09411,1.04319 -3.52365,1.04319 -1.80047,0 -3.22809,-0.55444 -4.28287,-1.66331 -1.05478,-1.10886 -1.58216,-2.66398 -1.58216,-4.66536 0,-2.07092 0.53318,-3.67819 1.59955,-4.82185 1.06637,-1.14363 2.44955,-1.71545 4.14957,-1.71546 1.64591,1e-5 2.99046,0.56024 4.03366,1.68069 1.04317,1.12047 1.56477,2.69684 1.56478,4.72912 -1e-5,0.12364 -0.004,0.3091 -0.0116,0.55636 l -9.18005,0 c 0.0773,1.35229 0.45977,2.38775 1.1475,3.10638 0.68773,0.71865 1.54546,1.07797 2.5732,1.07796 0.765,10e-6 1.41795,-0.2009 1.95887,-0.60273 0.54091,-0.40181 0.96977,-1.04318 1.2866,-1.9241 z m -6.85026,-3.37297 6.87344,0 c -0.0927,-1.03545 -0.35546,-1.81205 -0.78818,-2.32979 -0.66456,-0.80363 -1.52615,-1.20545 -2.58479,-1.20546 -0.95819,10e-6 -1.76376,0.3207 -2.41672,0.96205 -0.65296,0.64138 -1.01421,1.49911 -1.08375,2.5732 z"
         style="font-size:23.73831177px;font-style:normal;font-weight:normal;text-align:start;text-anchor:start;fill:#ffffff;font-family:Arial"
         id="path3171" />
      <path
         d="m 304.12127,634.72906 0,-12.30961 1.87774,0 0,1.75024 c 0.90409,-1.35227 2.21,-2.02841 3.91775,-2.02842 0.74181,1e-5 1.42374,0.13331 2.0458,0.39989 0.62204,0.2666 1.08761,0.61626 1.39671,1.04898 0.30909,0.43274 0.52545,0.94661 0.6491,1.5416 0.0773,0.38637 0.1159,1.06251 0.11591,2.02842 l 0,7.5689 -2.08638,0 0,-7.48776 c -10e-6,-0.85 -0.0811,-1.48557 -0.24341,-1.90672 -0.16228,-0.42113 -0.45012,-0.75727 -0.86352,-1.00841 -0.41342,-0.25113 -0.89831,-0.3767 -1.45467,-0.37671 -0.88865,10e-6 -1.65558,0.28206 -2.30081,0.84614 -0.64523,0.5641 -0.96785,1.63434 -0.96785,3.2107 l 0,6.72276 z"
         style="font-size:23.73831177px;font-style:normal;font-weight:normal;text-align:start;text-anchor:start;fill:#ffffff;font-family:Arial"
         id="path3173" />
      <path
         d="m 321.89023,632.86292 0.30136,1.84296 c -0.58728,0.12364 -1.11273,0.18546 -1.57637,0.18546 -0.75728,0 -1.34455,-0.11977 -1.76183,-0.35932 -0.41727,-0.23955 -0.71091,-0.55444 -0.88091,-0.94467 -0.17,-0.39022 -0.255,-1.21125 -0.255,-2.46308 l 0,-7.08208 -1.53001,0 0,-1.62274 1.53001,0 0,-3.04842 2.07478,-1.25183 0,4.30025 2.09797,0 0,1.62274 -2.09797,0 0,7.19799 c 0,0.59501 0.0367,0.97751 0.11012,1.14751 0.0734,0.17 0.19318,0.30523 0.35932,0.40568 0.16613,0.10046 0.40374,0.15069 0.71284,0.15069 0.23182,0 0.53704,-0.0271 0.91569,-0.0811 z"
         style="font-size:23.73831177px;font-style:normal;font-weight:normal;text-align:start;text-anchor:start;fill:#ffffff;font-family:Arial"
         id="path3175" />
    </g>
    <path
       inkscape:connector-curvature="0"
       style="fill:none;stroke:#000000;stroke-width:3.59198141px;stroke-linecap:round;stroke-linejoin:round;stroke-opacity:1;stroke-dasharray:none"
       d="m 149.32626,465.04699 110.96099,93.93813"
       id="path3124" />
    <path
       inkscape:connector-curvature="0"
       style="fill:none;stroke:#285ea6;stroke-width:5.23179913px;stroke-linecap:round;stroke-linejoin:round;stroke-opacity:1;stroke-dasharray:none"
       d="M 20.639617,547.66257 42.113419,494.0171"
       id="path3126" />
    <path
       inkscape:connector-curvature="0"
       style="fill:#285ea6;fill-opacity:1;fill-rule:evenodd;stroke:none"
       d="M 31.259388,492.61154 48.985036,476.83806 50.9372,500.4202 31.259388,492.61154 z"
       id="path3128" />
    <g
       transform="matrix(0.37460659,-0.92718386,0.92718386,0.37460659,0,0)"
       style="font-size:23.73831177px;font-style:normal;font-weight:normal;text-align:start;text-anchor:start;fill:#3475cd;font-family:Arial"
       id="text3130">
      <path
         d="m -498.53136,205.80779 0,-16.99237 6.40981,0 c 1.12818,2e-5 1.98977,0.0541 2.58479,0.16227 0.83453,0.13911 1.53386,0.40377 2.09796,0.79398 0.56408,0.39025 1.01806,0.93696 1.36194,1.64013 0.34385,0.7032 0.51579,1.47593 0.5158,2.31819 -10e-6,1.44502 -0.45979,2.66787 -1.37933,3.66854 -0.91956,1.0007 -2.58093,1.50104 -4.98411,1.50104 l -4.35821,0 0,6.90822 z m 2.24865,-8.91346 4.39298,0 c 1.45272,1e-5 2.48432,-0.27045 3.09479,-0.81137 0.61044,-0.5409 0.91567,-1.30204 0.91569,-2.28342 -2e-5,-0.7109 -0.17968,-1.31943 -0.53898,-1.82558 -0.35934,-0.50613 -0.83263,-0.84033 -1.4199,-1.00262 -0.37865,-0.10044 -1.07797,-0.15067 -2.09796,-0.15068 l -4.34662,0 z"
         style="font-size:23.73831177px;font-style:normal;font-weight:normal;text-align:start;text-anchor:start;fill:#3475cd;font-family:Arial"
         id="path3229" />
    </g>
    <g
       transform="matrix(0.37460659,-0.92718386,0.92718386,0.37460659,0,0)"
       style="font-size:23.73831177px;font-style:normal;font-weight:normal;text-align:start;text-anchor:start;fill:#3475cd;font-family:Arial"
       id="text3132">
      <path
         d="m -474.48958,205.98351 0,-1.8082 c -0.95819,1.39092 -2.26024,2.08638 -3.90615,2.08638 -0.72638,0 -1.40445,-0.13909 -2.03422,-0.41728 -0.62978,-0.27818 -1.09728,-0.62784 -1.40251,-1.04898 -0.30523,-0.42114 -0.51966,-0.93693 -0.6433,-1.54739 -0.085,-0.40955 -0.1275,-1.05864 -0.1275,-1.94729 l 0,-7.62686 2.08638,0 0,6.82709 c 0,1.08955 0.0425,1.82365 0.1275,2.20228 0.13136,0.54864 0.40954,0.97944 0.83455,1.29239 0.425,0.31296 0.95045,0.46944 1.57637,0.46944 0.62591,0 1.21318,-0.16034 1.76183,-0.48103 0.54863,-0.32068 0.93693,-0.75727 1.16489,-1.30978 0.22795,-0.5525 0.34193,-1.3542 0.34194,-2.40512 l 0,-6.59527 2.08637,0 0,12.30962 z"
         style="font-size:23.73831177px;font-style:normal;font-weight:normal;text-align:start;text-anchor:start;fill:#3475cd;font-family:Arial"
         id="path3226" />
    </g>
    <g
       transform="matrix(0.37460659,-0.92718386,0.92718386,0.37460659,0,0)"
       style="font-size:23.73831177px;font-style:normal;font-weight:normal;text-align:start;text-anchor:start;fill:#3475cd;font-family:Arial"
       id="text3134">
      <path
         d="m -468.80305,205.24649 -1.93569,0 0,-16.99237 2.08637,0 0,6.06208 c 0.88091,-1.10499 2.00524,-1.65749 3.37298,-1.65751 0.75727,2e-5 1.47397,0.15263 2.15012,0.45785 0.67613,0.30524 1.2325,0.7341 1.6691,1.2866 0.43658,0.55251 0.77852,1.21899 1.0258,1.99944 0.24727,0.78047 0.3709,1.61501 0.37091,2.50365 -10e-6,2.10956 -0.5216,3.74002 -1.56478,4.89139 -1.04319,1.15137 -2.29502,1.72705 -3.75547,1.72705 -1.45274,0 -2.59252,-0.60659 -3.41934,-1.81978 z m -0.0232,-6.24753 c 0,1.47592 0.20091,2.54229 0.60273,3.1991 0.65682,1.0741 1.54546,1.61115 2.66592,1.61115 0.91182,0 1.7,-0.39602 2.36456,-1.18807 0.66454,-0.79205 0.99682,-1.9724 0.99683,-3.54105 -10e-6,-1.60727 -0.31877,-2.79341 -0.95626,-3.55843 -0.63751,-0.76499 -1.40831,-1.14749 -2.3124,-1.1475 -0.91183,1e-5 -1.70001,0.39603 -2.36456,1.18807 -0.66455,0.79206 -0.99682,1.93763 -0.99682,3.43673 z"
         style="font-size:23.73831177px;font-style:normal;font-weight:normal;text-align:start;text-anchor:start;fill:#3475cd;font-family:Arial"
         id="path3223" />
    </g>
    <g
       transform="matrix(0.37460659,-0.92718386,0.92718386,0.37460659,0,0)"
       style="font-size:23.73831177px;font-style:normal;font-weight:normal;text-align:start;text-anchor:start;fill:#3475cd;font-family:Arial"
       id="text3136">
      <path
         d="m -457.31728,205.19984 0,-16.99236 2.08638,0 0,16.99236 z"
         style="font-size:23.73831177px;font-style:normal;font-weight:normal;text-align:start;text-anchor:start;fill:#3475cd;font-family:Arial"
         id="path3220" />
    </g>
    <g
       transform="matrix(0.37460659,-0.92718386,0.92718386,0.37460659,0,0)"
       style="font-size:23.73831177px;font-style:normal;font-weight:normal;text-align:start;text-anchor:start;fill:#3475cd;font-family:Arial"
       id="text3138">
      <path
         d="m -451.68965,191.05153 0,-2.39933 2.08638,0 0,2.39933 z m 0,14.59303 0,-12.30961 2.08638,0 0,12.30961 z"
         style="font-size:23.73831177px;font-style:normal;font-weight:normal;text-align:start;text-anchor:start;fill:#3475cd;font-family:Arial"
         id="path3217" />
    </g>
    <g
       transform="matrix(0.37460659,-0.92718386,0.92718386,0.37460659,0,0)"
       style="font-size:23.73831177px;font-style:normal;font-weight:normal;text-align:start;text-anchor:start;fill:#3475cd;font-family:Arial"
       id="text3140">
      <path
         d="m -447.43411,201.25652 2.0632,-0.32454 c 0.1159,0.82682 0.43852,1.46046 0.96784,1.90092 0.52932,0.44046 1.26921,0.66068 2.21967,0.66068 0.95818,0 1.6691,-0.19511 2.13274,-0.58534 0.46363,-0.39023 0.69545,-0.84807 0.69546,-1.37353 -10e-6,-0.47136 -0.20478,-0.84228 -0.61432,-1.11274 -0.28592,-0.18545 -0.99683,-0.42113 -2.13274,-0.70705 -1.53001,-0.38636 -2.59058,-0.72056 -3.18172,-1.00261 -0.59114,-0.28204 -1.03933,-0.67227 -1.34455,-1.17069 -0.30523,-0.49841 -0.45785,-1.04898 -0.45785,-1.65172 0,-0.54863 0.12557,-1.0567 0.37671,-1.52421 0.25114,-0.46749 0.59307,-0.85579 1.0258,-1.16489 0.32455,-0.23954 0.76693,-0.44238 1.32717,-0.60853 0.56022,-0.16612 1.16102,-0.24919 1.80239,-0.2492 0.96591,10e-6 1.81398,0.1391 2.54422,0.41727 0.73022,0.2782 1.2692,0.6549 1.61694,1.13012 0.34772,0.47524 0.58727,1.11081 0.71864,1.90672 l -2.04001,0.27818 c -0.0927,-0.63363 -0.36126,-1.12818 -0.80557,-1.48365 -0.44433,-0.35544 -1.07217,-0.53317 -1.88353,-0.53318 -0.9582,1e-5 -1.64206,0.15842 -2.05161,0.47523 -0.40955,0.31683 -0.61432,0.68774 -0.61432,1.11273 0,0.27047 0.085,0.51388 0.255,0.73023 0.17,0.22411 0.43659,0.40956 0.79978,0.55637 0.20863,0.0773 0.82296,0.25501 1.84297,0.53319 1.47591,0.3941 2.50557,0.71671 3.08899,0.96784 0.5834,0.25115 1.04125,0.61626 1.37353,1.09535 0.33226,0.4791 0.4984,1.0741 0.49841,1.78501 -10e-6,0.69546 -0.20285,1.35035 -0.60852,1.96467 -0.4057,0.61432 -0.99104,1.08955 -1.75604,1.42569 -0.76501,0.33614 -1.63047,0.50421 -2.59637,0.50421 -1.59956,0 -2.81855,-0.33228 -3.65696,-0.99683 -0.83841,-0.66455 -1.37353,-1.64978 -1.60535,-2.9557 z"
         style="font-size:23.73831177px;font-style:normal;font-weight:normal;text-align:start;text-anchor:start;fill:#3475cd;font-family:Arial"
         id="path3214" />
    </g>
    <g
       transform="matrix(0.37460659,-0.92718386,0.92718386,0.37460659,0,0)"
       style="font-size:23.73831177px;font-style:normal;font-weight:normal;text-align:start;text-anchor:start;fill:#3475cd;font-family:Arial"
       id="text3142">
      <path
         d="m -435.46018,205.82028 0,-16.99236 2.08637,0 0,6.09685 c 0.97364,-1.12818 2.20228,-1.69227 3.68593,-1.69228 0.91182,10e-6 1.70387,0.17967 2.37615,0.53898 0.67227,0.35933 1.15329,0.85581 1.44308,1.48944 0.28976,0.63365 0.43465,1.5532 0.43466,2.75865 l 0,7.80072 -2.08638,0 0,-7.80072 c -10e-6,-1.04318 -0.22603,-1.80239 -0.67807,-2.27763 -0.45205,-0.47522 -1.09149,-0.71283 -1.9183,-0.71284 -0.6182,1e-5 -1.19968,0.16035 -1.74445,0.48102 -0.54478,0.3207 -0.93307,0.75536 -1.16489,1.30399 -0.23182,0.54864 -0.34773,1.30592 -0.34773,2.27183 l 0,6.73435 z"
         style="font-size:23.73831177px;font-style:normal;font-weight:normal;text-align:start;text-anchor:start;fill:#3475cd;font-family:Arial"
         id="path3211" />
    </g>
    <path
       inkscape:connector-curvature="0"
       style="fill:none;stroke:#285ea6;stroke-width:5.23179913px;stroke-linecap:round;stroke-linejoin:round;stroke-opacity:1;stroke-dasharray:none"
       d="M 200.08252,320.9773 302.53208,255.46268"
       id="path3144" />
    <path
       inkscape:connector-curvature="0"
       style="fill:#285ea6;fill-opacity:1;fill-rule:evenodd;stroke:none"
       d="m 294.56725,247.96637 23.58214,-2.49877 -12.1815,20.3025 -11.40064,-17.80373 z"
       id="path3146" />
    <g
       transform="matrix(0.8480481,-0.52991926,0.52991926,0.8480481,0,0)"
       style="font-size:23.73831177px;font-style:normal;font-weight:normal;text-align:start;text-anchor:start;fill:#3475cd;font-family:Arial"
       id="text3148">
      <path
         d="m 41.971949,359.52988 0,-16.99237 12.286431,0 0,2.00524 -10.037782,0 0,5.20435 9.400279,0 0,1.99364 -9.400279,0 0,5.7839 10.431875,0 0,2.00524 z"
         style="font-size:23.73831177px;font-style:normal;font-weight:normal;text-align:start;text-anchor:start;fill:#3475cd;font-family:Arial"
         id="path3259" />
    </g>
    <g
       transform="matrix(0.8480481,-0.52991926,0.52991926,0.8480481,0,0)"
       style="font-size:23.73831177px;font-style:normal;font-weight:normal;text-align:start;text-anchor:start;fill:#3475cd;font-family:Arial"
       id="text3150">
      <path
         d="m 60.30823,358.73383 -4.682753,-12.30962 2.202285,0 2.642742,7.37186 c 0.285905,0.79592 0.548633,1.62274 0.788186,2.48047 0.185449,-0.64909 0.444314,-1.42955 0.776595,-2.34138 l 2.73547,-7.51095 2.144329,0 -4.65957,12.30962 z"
         style="font-size:23.73831177px;font-style:normal;font-weight:normal;text-align:start;text-anchor:start;fill:#3475cd;font-family:Arial"
         id="path3256" />
    </g>
    <g
       transform="matrix(0.8480481,-0.52991926,0.52991926,0.8480481,0,0)"
       style="font-size:23.73831177px;font-style:normal;font-weight:normal;text-align:start;text-anchor:start;fill:#3475cd;font-family:Arial"
       id="text3152">
      <path
         d="m 77.102205,354.76861 2.155921,0.2666 c -0.340014,1.25955 -0.96979,2.23706 -1.889329,2.93251 -0.91956,0.69546 -2.09411,1.04319 -3.523656,1.04319 -1.800469,0 -3.228089,-0.55443 -4.282864,-1.6633 -1.05478,-1.10887 -1.582168,-2.66399 -1.582168,-4.66537 0,-2.07091 0.533184,-3.67819 1.599555,-4.82185 1.066366,-1.14363 2.449554,-1.71545 4.149568,-1.71546 1.64591,1e-5 2.990461,0.56024 4.033658,1.68069 1.043176,1.12047 1.564769,2.69684 1.564781,4.72912 -1.2e-5,0.12364 -0.0039,0.3091 -0.01159,0.55637 l -9.180051,0 c 0.07727,1.35228 0.459772,2.38774 1.147507,3.10638 0.687726,0.71864 1.545457,1.07796 2.573195,1.07796 0.764997,0 1.417955,-0.20091 1.958875,-0.60273 0.540903,-0.40182 0.969768,-1.04319 1.286598,-1.92411 z m -6.850265,-3.37297 6.873447,0 c -0.09274,-1.03545 -0.355466,-1.81204 -0.788186,-2.32978 -0.664558,-0.80363 -1.526153,-1.20545 -2.584787,-1.20547 -0.958193,2e-5 -1.763765,0.3207 -2.416718,0.96206 -0.652962,0.64137 -1.014213,1.4991 -1.083756,2.57319 z"
         style="font-size:23.73831177px;font-style:normal;font-weight:normal;text-align:start;text-anchor:start;fill:#3475cd;font-family:Arial"
         id="path3253" />
    </g>
    <g
       transform="matrix(0.8480481,-0.52991926,0.52991926,0.8480481,0,0)"
       style="font-size:23.73831177px;font-style:normal;font-weight:normal;text-align:start;text-anchor:start;fill:#3475cd;font-family:Arial"
       id="text3154">
      <path
         d="m 81.521767,359.39368 0,-12.30962 1.877737,0 0,1.75024 c 0.904092,-1.35227 2.210007,-2.02841 3.917749,-2.02842 0.741814,10e-6 1.423749,0.13331 2.045807,0.39989 0.622039,0.2666 1.087609,0.61626 1.396712,1.04898 0.309081,0.43274 0.525446,0.94661 0.649094,1.5416 0.07726,0.38638 0.115899,1.06252 0.11591,2.02842 l 0,7.56891 -2.086375,0 0,-7.48777 c -9e-6,-0.85 -0.08115,-1.48557 -0.24341,-1.90672 -0.162283,-0.42113 -0.450125,-0.75726 -0.863528,-1.00841 -0.413419,-0.25113 -0.898308,-0.3767 -1.454667,-0.37671 -0.888647,10e-6 -1.655582,0.28206 -2.300808,0.84614 -0.645235,0.56411 -0.96785,1.63434 -0.967846,3.2107 l 0,6.72277 z"
         style="font-size:23.73831177px;font-style:normal;font-weight:normal;text-align:start;text-anchor:start;fill:#3475cd;font-family:Arial"
         id="path3250" />
    </g>
    <g
       transform="matrix(0.8480481,-0.52991926,0.52991926,0.8480481,0,0)"
       style="font-size:23.73831177px;font-style:normal;font-weight:normal;text-align:start;text-anchor:start;fill:#3475cd;font-family:Arial"
       id="text3156">
      <path
         d="m 98.525772,356.46689 0.301366,1.84297 c -0.587282,0.12363 -1.112739,0.18545 -1.576373,0.18545 -0.757281,0 -1.344556,-0.11977 -1.761827,-0.35932 -0.417278,-0.23954 -0.710916,-0.55443 -0.880914,-0.94466 -0.170003,-0.39023 -0.255004,-1.21126 -0.255002,-2.46308 l 0,-7.08209 -1.530008,0 0,-1.62273 1.530008,0 0,-3.04843 2.074784,-1.25183 0,4.30026 2.097966,0 0,1.62273 -2.097966,0 0,7.198 c -4e-6,0.595 0.0367,0.9775 0.110115,1.1475 0.07341,0.17 0.193178,0.30523 0.35932,0.40569 0.166132,0.10045 0.403747,0.15068 0.712845,0.15068 0.231814,0 0.537042,-0.027 0.915686,-0.0811 z"
         style="font-size:23.73831177px;font-style:normal;font-weight:normal;text-align:start;text-anchor:start;fill:#3475cd;font-family:Arial"
         id="path3247" />
    </g>
    <path
       inkscape:connector-curvature="0"
       style="fill:none;stroke:#285ea6;stroke-width:5.23179913px;stroke-linecap:round;stroke-linejoin:round;stroke-opacity:1;stroke-dasharray:none"
       d="m 200.08252,387.11661 100.41931,32.09357"
       id="path3158" />
    <path
       inkscape:connector-curvature="0"
       style="fill:#285ea6;fill-opacity:1;fill-rule:evenodd;stroke:none"
       d="m 301.20461,408.35615 16.94478,16.55435 -23.42597,3.59198 6.48119,-20.14633 z"
       id="path3160" />
    <g
       transform="matrix(0.95105652,0.30901699,-0.30901699,0.95105652,0,0)"
       style="font-size:23.73831177px;font-style:normal;font-weight:normal;text-align:start;text-anchor:start;fill:#3475cd;font-family:Arial"
       id="text3162">
      <path
         d="m 343.10195,287.21857 0,-16.99237 12.28643,0 0,2.00524 -10.03778,0 0,5.20435 9.40028,0 0,1.99364 -9.40028,0 0,5.7839 10.43187,0 0,2.00524 z"
         style="font-size:23.73831177px;font-style:normal;font-weight:normal;text-align:start;text-anchor:start;fill:#3475cd;font-family:Arial"
         id="path3244" />
    </g>
    <g
       transform="matrix(0.95105652,0.30901699,-0.30901699,0.95105652,0,0)"
       style="font-size:23.73831177px;font-style:normal;font-weight:normal;text-align:start;text-anchor:start;fill:#3475cd;font-family:Arial"
       id="text3164">
      <path
         d="m 362.01146,287.33853 -4.68275,-12.30961 2.20228,0 2.64275,7.37186 c 0.2859,0.79591 0.54863,1.62274 0.78818,2.48047 0.18545,-0.6491 0.44432,-1.42955 0.7766,-2.34138 l 2.73547,-7.51095 2.14433,0 -4.65957,12.30961 z"
         style="font-size:23.73831177px;font-style:normal;font-weight:normal;text-align:start;text-anchor:start;fill:#3475cd;font-family:Arial"
         id="path3241" />
    </g>
    <g
       transform="matrix(0.95105652,0.30901699,-0.30901699,0.95105652,0,0)"
       style="font-size:23.73831177px;font-style:normal;font-weight:normal;text-align:start;text-anchor:start;fill:#3475cd;font-family:Arial"
       id="text3166">
      <path
         d="m 378.87115,283.46442 2.15592,0.26659 c -0.34001,1.25955 -0.96979,2.23706 -1.88933,2.93251 -0.91956,0.69546 -2.09411,1.04319 -3.52365,1.04319 -1.80047,0 -3.22809,-0.55443 -4.28287,-1.6633 -1.05478,-1.10887 -1.58217,-2.66399 -1.58217,-4.66537 0,-2.07091 0.53319,-3.67819 1.59956,-4.82184 1.06636,-1.14364 2.44955,-1.71546 4.14957,-1.71547 1.64591,10e-6 2.99046,0.56024 4.03365,1.68069 1.04318,1.12047 1.56477,2.69684 1.56479,4.72912 -2e-5,0.12364 -0.004,0.3091 -0.0116,0.55637 l -9.18005,0 c 0.0773,1.35228 0.45978,2.38774 1.14751,3.10638 0.68773,0.71864 1.54546,1.07796 2.5732,1.07796 0.76499,0 1.41795,-0.20091 1.95887,-0.60273 0.5409,-0.40182 0.96977,-1.04319 1.2866,-1.9241 z m -6.85027,-3.37298 6.87345,0 c -0.0927,-1.03545 -0.35547,-1.81204 -0.78819,-2.32978 -0.66455,-0.80363 -1.52615,-1.20545 -2.58478,-1.20546 -0.9582,1e-5 -1.76377,0.32069 -2.41672,0.96205 -0.65296,0.64137 -1.01421,1.4991 -1.08376,2.57319 z"
         style="font-size:23.73831177px;font-style:normal;font-weight:normal;text-align:start;text-anchor:start;fill:#3475cd;font-family:Arial"
         id="path3238" />
    </g>
    <g
       transform="matrix(0.95105652,0.30901699,-0.30901699,0.95105652,0,0)"
       style="font-size:23.73831177px;font-style:normal;font-weight:normal;text-align:start;text-anchor:start;fill:#3475cd;font-family:Arial"
       id="text3168">
      <path
         d="m 383.4851,287.13242 0,-12.30962 1.87774,0 0,1.75024 c 0.90409,-1.35227 2.21,-2.02841 3.91775,-2.02842 0.74181,10e-6 1.42375,0.13331 2.0458,0.39989 0.62204,0.2666 1.08761,0.61626 1.39672,1.04898 0.30908,0.43274 0.52544,0.94661 0.64909,1.5416 0.0773,0.38638 0.1159,1.06251 0.11591,2.02842 l 0,7.56891 -2.08638,0 0,-7.48777 c -10e-6,-0.85 -0.0811,-1.48557 -0.24341,-1.90672 -0.16228,-0.42113 -0.45012,-0.75726 -0.86352,-1.00841 -0.41342,-0.25113 -0.89831,-0.3767 -1.45467,-0.37671 -0.88865,1e-5 -1.65558,0.28206 -2.30081,0.84614 -0.64523,0.56411 -0.96785,1.63434 -0.96785,3.2107 l 0,6.72277 z"
         style="font-size:23.73831177px;font-style:normal;font-weight:normal;text-align:start;text-anchor:start;fill:#3475cd;font-family:Arial"
         id="path3235" />
    </g>
    <g
       transform="matrix(0.95105652,0.30901699,-0.30901699,0.95105652,0,0)"
       style="font-size:23.73831177px;font-style:normal;font-weight:normal;text-align:start;text-anchor:start;fill:#3475cd;font-family:Arial"
       id="text3170">
      <path
         d="m 401.08094,284.97019 0.30137,1.84296 c -0.58729,0.12364 -1.11274,0.18546 -1.57638,0.18546 -0.75728,0 -1.34455,-0.11978 -1.76182,-0.35932 -0.41728,-0.23955 -0.71092,-0.55444 -0.88092,-0.94467 -0.17,-0.39022 -0.255,-1.21125 -0.255,-2.46308 l 0,-7.08208 -1.53001,0 0,-1.62274 1.53001,0 0,-3.04842 2.07478,-1.25183 0,4.30025 2.09797,0 0,1.62274 -2.09797,0 0,7.19799 c 0,0.59501 0.0367,0.97751 0.11012,1.14751 0.0734,0.17 0.19318,0.30523 0.35932,0.40568 0.16613,0.10046 0.40375,0.15069 0.71284,0.15068 0.23182,1e-5 0.53705,-0.027 0.91569,-0.0811 z"
         style="font-size:23.73831177px;font-style:normal;font-weight:normal;text-align:start;text-anchor:start;fill:#3475cd;font-family:Arial"
         id="path3232" />
    </g>
  </g>
</svg>
