<?xml version="1.0" encoding="UTF-8" standalone="no"?>
<!-- Created with Inkscape (http://www.inkscape.org/) -->

<svg
   xmlns:dc="http://purl.org/dc/elements/1.1/"
   xmlns:cc="http://creativecommons.org/ns#"
   xmlns:rdf="http://www.w3.org/1999/02/22-rdf-syntax-ns#"
   xmlns:svg="http://www.w3.org/2000/svg"
   xmlns="http://www.w3.org/2000/svg"
   xmlns:sodipodi="http://sodipodi.sourceforge.net/DTD/sodipodi-0.dtd"
   xmlns:inkscape="http://www.inkscape.org/namespaces/inkscape"
   width="509.71875"
   height="468.09375"
   id="svg3494"
   version="1.1"
   inkscape:version="0.48.4 r9939"
   sodipodi:docname="Neues Dokument 5">
  <defs
     id="defs3496" />
  <sodipodi:namedview
     id="base"
     pagecolor="#ffffff"
     bordercolor="#666666"
     borderopacity="1.0"
     inkscape:pageopacity="0.0"
     inkscape:pageshadow="2"
     inkscape:zoom="0.35"
     inkscape:cx="254.86772"
     inkscape:cy="234.0361"
     inkscape:document-units="px"
     inkscape:current-layer="layer1"
     showgrid="false"
     fit-margin-top="4"
     fit-margin-left="4"
     fit-margin-right="4"
     fit-margin-bottom="4"
     inkscape:window-width="1858"
     inkscape:window-height="1178"
     inkscape:window-x="1016"
     inkscape:window-y="-8"
     inkscape:window-maximized="1" />
  <metadata
     id="metadata3499">
    <rdf:RDF>
      <cc:Work
         rdf:about="">
        <dc:format>image/svg+xml</dc:format>
        <dc:type
           rdf:resource="http://purl.org/dc/dcmitype/StillImage" />
        <dc:title></dc:title>
      </cc:Work>
    </rdf:RDF>
  </metadata>
  <g
     inkscape:label="Ebene 1"
     inkscape:groupmode="layer"
     id="layer1"
     transform="translate(-95.132278,-298.30453)">
    <g
       id="g3506"
       transform="translate(97.194778,300.36703)">
      <path
         id="path3508"
         d="m 118.06687,460.24216 c 13.04046,0 23.58214,-10.54169 23.58214,-23.58214 l 0,0 0,-63.17203 c 0,-13.04045 -10.54168,-23.58214 -23.58214,-23.58214 l 0,0 -90.736576,0 c -13.040454,0 -23.5821394,10.54169 -23.5821394,23.58214 l 0,0 0,63.17203 c 0,13.04045 10.5416854,23.58214 23.5821394,23.58214 l 0,0 90.736576,0 z"
         style="fill:#595959;fill-opacity:1;fill-rule:evenodd;stroke:none"
         inkscape:connector-curvature="0" />
      <path
         id="path3510"
         d="m 118.06687,460.24216 c 13.04046,0 23.58214,-10.54169 23.58214,-23.58214 l 0,0 0,-63.17203 c 0,-13.04045 -10.54168,-23.58214 -23.58214,-23.58214 l 0,0 -90.736576,0 c -13.040454,0 -23.5821394,10.54169 -23.5821394,23.58214 l 0,0 0,63.17203 c 0,13.04045 10.5416854,23.58214 23.5821394,23.58214 l 0,0 90.736576,0 z"
         style="fill:none;stroke:#000000;stroke-width:3.59198141px;stroke-linecap:round;stroke-linejoin:round;stroke-opacity:1;stroke-dasharray:none"
         inkscape:connector-curvature="0" />
      <g
         style="font-size:23.73831177px;font-style:normal;font-weight:normal;text-align:start;text-anchor:start;fill:#ffffff;font-family:Arial"
         id="text3512">
        <path
           d="m 52.439394,398.55377 6.525717,-16.99236 2.422514,0 6.954583,16.99236 -2.561605,0 -1.982056,-5.14639 -7.105266,0 -1.866147,5.14639 z m 4.902981,-6.97776 5.760714,0 -1.773419,-4.70594 c -0.54092,-1.42954 -0.94274,-2.60409 -1.205461,-3.52365 -0.216373,1.08956 -0.521601,2.17138 -0.915687,3.24547 z"
           style="font-size:23.73831177px;font-style:normal;font-weight:normal;text-align:start;text-anchor:start;fill:#ffffff;font-family:Arial"
           id="path3697" />
        <path
           d="m 69.895398,403.2713 0,-17.02714 1.90092,0 0,1.59955 c 0.44818,-0.6259 0.954319,-1.09533 1.518417,-1.4083 0.564089,-0.31294 1.247955,-0.46942 2.051602,-0.46943 1.050907,10e-6 1.978184,0.27046 2.781834,0.81136 0.80363,0.54093 1.410223,1.304 1.819782,2.28922 0.409536,0.98524 0.61431,2.06513 0.614322,3.23968 -1.2e-5,1.25956 -0.226036,2.39354 -0.678072,3.40195 -0.452059,1.00841 -1.10888,1.78115 -1.970465,2.31819 -0.861605,0.53705 -1.767631,0.80558 -2.718083,0.80558 -0.695465,0 -1.319445,-0.14682 -1.871942,-0.44046 -0.552508,-0.29364 -1.006487,-0.66455 -1.36194,-1.11274 l 0,5.99254 z m 1.889329,-10.80279 c -4e-6,1.58411 0.32068,2.75479 0.96205,3.51207 0.641363,0.75727 1.417957,1.13591 2.329786,1.13591 0.92727,0 1.721251,-0.39216 2.381945,-1.17648 0.660675,-0.78432 0.991018,-1.99944 0.991028,-3.64536 -10e-6,-1.56864 -0.322625,-2.74319 -0.967846,-3.52366 -0.64524,-0.78045 -1.416038,-1.17068 -2.312399,-1.17069 -0.888647,10e-6 -1.674901,0.41536 -2.358763,1.24603 -0.683871,0.8307 -1.025805,2.03809 -1.025801,3.62218 z"
           style="font-size:23.73831177px;font-style:normal;font-weight:normal;text-align:start;text-anchor:start;fill:#ffffff;font-family:Arial"
           id="path3699" />
        <path
           d="m 83.109108,403.2713 0,-17.02714 1.90092,0 0,1.59955 c 0.44818,-0.6259 0.954319,-1.09533 1.518417,-1.4083 0.564088,-0.31294 1.247955,-0.46942 2.051602,-0.46943 1.050907,10e-6 1.978184,0.27046 2.781834,0.81136 0.80363,0.54093 1.410223,1.304 1.819782,2.28922 0.409536,0.98524 0.61431,2.06513 0.614322,3.23968 -1.2e-5,1.25956 -0.226036,2.39354 -0.678072,3.40195 -0.452059,1.00841 -1.10888,1.78115 -1.970465,2.31819 -0.861605,0.53705 -1.767632,0.80558 -2.718084,0.80558 -0.695464,0 -1.319444,-0.14682 -1.871942,-0.44046 -0.552507,-0.29364 -1.006486,-0.66455 -1.361939,-1.11274 l 0,5.99254 z m 1.889329,-10.80279 c -4e-6,1.58411 0.320679,2.75479 0.96205,3.51207 0.641362,0.75727 1.417957,1.13591 2.329786,1.13591 0.92727,0 1.721251,-0.39216 2.381945,-1.17648 0.660675,-0.78432 0.991018,-1.99944 0.991028,-3.64536 -1e-5,-1.56864 -0.322625,-2.74319 -0.967846,-3.52366 -0.64524,-0.78045 -1.416039,-1.17068 -2.312399,-1.17069 -0.888648,10e-6 -1.674901,0.41536 -2.358763,1.24603 -0.683872,0.8307 -1.025805,2.03809 -1.025801,3.62218 z"
           style="font-size:23.73831177px;font-style:normal;font-weight:normal;text-align:start;text-anchor:start;fill:#ffffff;font-family:Arial"
           id="path3701" />
      </g>
      <g
         style="font-size:23.73831177px;font-style:normal;font-weight:normal;text-align:start;text-anchor:start;fill:#ffffff;font-family:Arial"
         id="text3514">
        <path
           d="m 26.44938,420.08249 2.248648,0.56796 c -0.471382,1.84683 -1.319454,3.25513 -2.544218,4.22491 -1.224792,0.96978 -2.721958,1.45467 -4.491502,1.45467 -1.831381,0 -3.320819,-0.37285 -4.46832,-1.11853 -1.14751,-0.74569 -2.020695,-1.82558 -2.61956,-3.23968 -0.598868,-1.41409 -0.898301,-2.93251 -0.8983,-4.55525 -1e-6,-1.76955 0.338069,-3.31308 1.01421,-4.63059 0.676137,-1.3175 1.638187,-2.31818 2.886152,-3.00207 1.247955,-0.68385 2.621484,-1.02578 4.120591,-1.0258 1.699998,2e-5 3.12955,0.43275 4.28866,1.29819 1.159082,0.86548 1.966586,2.08253 2.422513,3.65116 l -2.213876,0.52159 c -0.394106,-1.23636 -0.965927,-2.13659 -1.715464,-2.70069 -0.74956,-0.56408 -1.692292,-0.84613 -2.828197,-0.84615 -1.305924,2e-5 -2.397406,0.31298 -3.27445,0.93887 -0.877055,0.62593 -1.493308,1.46627 -1.84876,2.52104 -0.35546,1.05479 -0.533188,2.14241 -0.533184,3.26286 -4e-6,1.44501 0.210565,2.7065 0.631708,3.78445 0.421134,1.07796 1.076023,1.88354 1.964669,2.41672 0.888635,0.53319 1.850684,0.79978 2.886153,0.79978 1.259542,0 2.32591,-0.36319 3.199108,-1.08956 0.873173,-0.72636 1.464312,-1.80432 1.773419,-3.23388 z"
           style="font-size:23.73831177px;font-style:normal;font-weight:normal;text-align:start;text-anchor:start;fill:#ffffff;font-family:Arial"
           id="path3704" />
        <path
           d="m 30.436675,419.88545 c -1e-6,-2.27955 0.633639,-3.96797 1.90092,-5.06526 1.058638,-0.91181 2.349098,-1.36772 3.871384,-1.36773 1.692274,1e-5 3.075462,0.55444 4.149569,1.6633 1.074085,1.10888 1.611132,2.64082 1.611145,4.59582 -1.3e-5,1.58411 -0.237627,2.83013 -0.712845,3.73809 -0.475241,0.90796 -1.166835,1.61308 -2.074784,2.11535 -0.907968,0.50228 -1.898995,0.75342 -2.973085,0.75342 -1.723196,0 -3.116043,-0.55251 -4.178545,-1.65751 -1.062507,-1.10501 -1.59376,-2.69683 -1.593759,-4.77548 z m 2.14433,0 c -3e-6,1.57637 0.343862,2.75672 1.031597,3.54104 0.687726,0.78432 1.553184,1.17648 2.596377,1.17648 1.035453,0 1.897048,-0.39409 2.584787,-1.18228 0.687722,-0.78818 1.031587,-1.98978 1.031597,-3.60479 -1e-5,-1.52227 -0.345807,-2.67557 -1.037392,-3.4599 -0.691603,-0.78432 -1.551266,-1.17648 -2.578992,-1.17649 -1.043193,1e-5 -1.908651,0.39024 -2.596377,1.17069 -0.687735,0.78047 -1.0316,1.95888 -1.031597,3.53525 z"
           style="font-size:23.73831177px;font-style:normal;font-weight:normal;text-align:start;text-anchor:start;fill:#ffffff;font-family:Arial"
           id="path3706" />
        <path
           d="m 44.426979,426.04025 0,-12.30961 1.866147,0 0,1.72705 c 0.386362,-0.60271 0.900228,-1.0876 1.541599,-1.45466 0.641362,-0.36704 1.371592,-0.55056 2.190694,-0.55057 0.911815,1e-5 1.659432,0.18933 2.242853,0.56795 0.583402,0.37865 0.994882,0.90797 1.234439,1.58797 0.97363,-1.43727 2.240908,-2.15591 3.801839,-2.15592 1.2209,1e-5 2.159768,0.33808 2.816606,1.01421 0.656804,0.67615 0.985214,1.7174 0.985233,3.12376 l 0,8.44982 -2.074784,0 0,-7.75436 c -1.7e-5,-0.83454 -0.06763,-1.43534 -0.202842,-1.80239 -0.135244,-0.36704 -0.380586,-0.66261 -0.736027,-0.88671 -0.355472,-0.22409 -0.772746,-0.33613 -1.251825,-0.33614 -0.865473,10e-6 -1.584112,0.28785 -2.155921,0.86353 -0.571833,0.57569 -0.857743,1.49717 -0.857732,2.76444 l 0,7.15163 -2.086375,0 0,-7.99777 c -9e-6,-0.92727 -0.17001,-1.62272 -0.510003,-2.08637 -0.34001,-0.46363 -0.896376,-0.69545 -1.6691,-0.69546 -0.587282,10e-6 -1.130125,0.15456 -1.628532,0.46364 -0.498416,0.3091 -0.859668,0.76115 -1.083756,1.35614 -0.224095,0.59501 -0.336141,1.45274 -0.336138,2.5732 l 0,6.38662 z"
           style="font-size:23.73831177px;font-style:normal;font-weight:normal;text-align:start;text-anchor:start;fill:#ffffff;font-family:Arial"
           id="path3708" />
        <path
           d="m 64.22436,430.75778 0,-17.02714 1.900919,0 0,1.59955 c 0.44818,-0.6259 0.954319,-1.09533 1.518418,-1.4083 0.564088,-0.31294 1.247955,-0.46942 2.051602,-0.46943 1.050906,1e-5 1.978183,0.27046 2.781833,0.81136 0.80363,0.54093 1.410224,1.304 1.819783,2.28922 0.409535,0.98524 0.614309,2.06513 0.614321,3.23968 -1.2e-5,1.25956 -0.226036,2.39354 -0.678072,3.40195 -0.452059,1.00842 -1.10888,1.78115 -1.970465,2.31819 -0.861604,0.53705 -1.767631,0.80558 -2.718083,0.80558 -0.695465,0 -1.319445,-0.14682 -1.871942,-0.44046 -0.552508,-0.29364 -1.006487,-0.66455 -1.361939,-1.11273 l 0,5.99253 z m 1.889328,-10.80279 c -3e-6,1.58411 0.32068,2.75479 0.962051,3.51207 0.641362,0.75728 1.417956,1.13591 2.329785,1.13591 0.92727,0 1.721251,-0.39216 2.381945,-1.17648 0.660676,-0.78432 0.991018,-1.99944 0.991028,-3.64536 -1e-5,-1.56864 -0.322625,-2.74319 -0.967846,-3.52366 -0.645239,-0.78045 -1.416038,-1.17068 -2.312399,-1.17069 -0.888647,1e-5 -1.674901,0.41536 -2.358763,1.24603 -0.683871,0.8307 -1.025804,2.03809 -1.025801,3.62218 z"
           style="font-size:23.73831177px;font-style:normal;font-weight:normal;text-align:start;text-anchor:start;fill:#ffffff;font-family:Arial"
           id="path3710" />
        <path
           d="m 76.661475,419.88545 c -10e-7,-2.27955 0.633639,-3.96797 1.90092,-5.06526 1.058638,-0.91181 2.349098,-1.36772 3.871385,-1.36773 1.692273,1e-5 3.075461,0.55444 4.149568,1.6633 1.074085,1.10888 1.611133,2.64082 1.611145,4.59582 -1.2e-5,1.58411 -0.237627,2.83013 -0.712845,3.73809 -0.475241,0.90796 -1.166835,1.61308 -2.074784,2.11535 -0.907968,0.50228 -1.898995,0.75342 -2.973084,0.75342 -1.723197,0 -3.116044,-0.55251 -4.178546,-1.65751 -1.062507,-1.10501 -1.59376,-2.69683 -1.593759,-4.77548 z m 2.14433,0 c -3e-6,1.57637 0.343862,2.75672 1.031597,3.54104 0.687726,0.78432 1.553185,1.17648 2.596378,1.17648 1.035452,0 1.897047,-0.39409 2.584786,-1.18228 0.687722,-0.78818 1.031587,-1.98978 1.031597,-3.60479 -1e-5,-1.52227 -0.345807,-2.67557 -1.037392,-3.4599 -0.691603,-0.78432 -1.551266,-1.17648 -2.578991,-1.17649 -1.043193,1e-5 -1.908652,0.39024 -2.596378,1.17069 -0.687735,0.78047 -1.0316,1.95888 -1.031597,3.53525 z"
           style="font-size:23.73831177px;font-style:normal;font-weight:normal;text-align:start;text-anchor:start;fill:#ffffff;font-family:Arial"
           id="path3712" />
        <path
           d="m 90.651777,426.04025 0,-12.30961 1.877738,0 0,1.75024 c 0.904091,-1.35227 2.210006,-2.02841 3.917749,-2.02842 0.741814,1e-5 1.423749,0.13331 2.045806,0.39989 0.622039,0.2666 1.087609,0.61626 1.396712,1.04898 0.309078,0.43274 0.525448,0.9466 0.649098,1.5416 0.0773,0.38637 0.1159,1.06251 0.11591,2.02842 l 0,7.5689 -2.086378,0 0,-7.48777 c -10e-6,-0.84999 -0.08115,-1.48556 -0.243411,-1.90671 -0.162282,-0.42113 -0.450125,-0.75727 -0.863527,-1.00842 -0.41342,-0.25112 -0.898308,-0.37669 -1.454667,-0.3767 -0.888648,10e-6 -1.655583,0.28206 -2.300808,0.84614 -0.645235,0.5641 -0.96785,1.63433 -0.967847,3.2107 l 0,6.72276 z"
           style="font-size:23.73831177px;font-style:normal;font-weight:normal;text-align:start;text-anchor:start;fill:#ffffff;font-family:Arial"
           id="path3714" />
        <path
           d="m 112.29212,422.07614 2.15592,0.26659 c -0.34001,1.25956 -0.96979,2.23706 -1.88933,2.93252 -0.91956,0.69546 -2.09411,1.04319 -3.52365,1.04319 -1.80047,0 -3.22809,-0.55444 -4.28287,-1.66331 -1.05478,-1.10887 -1.58216,-2.66399 -1.58216,-4.66536 0,-2.07092 0.53318,-3.6782 1.59955,-4.82185 1.06637,-1.14363 2.44955,-1.71545 4.14957,-1.71546 1.64591,1e-5 2.99046,0.56024 4.03366,1.68069 1.04317,1.12047 1.56477,2.69684 1.56478,4.72911 -1e-5,0.12365 -0.004,0.3091 -0.0116,0.55637 l -9.18005,0 c 0.0773,1.35229 0.45977,2.38774 1.1475,3.10638 0.68773,0.71864 1.54546,1.07796 2.5732,1.07796 0.765,0 1.41795,-0.20091 1.95887,-0.60273 0.54091,-0.40182 0.96977,-1.04318 1.2866,-1.9241 z m -6.85026,-3.37297 6.87344,0 c -0.0927,-1.03545 -0.35546,-1.81205 -0.78818,-2.32979 -0.66456,-0.80363 -1.52616,-1.20545 -2.58479,-1.20546 -0.95819,1e-5 -1.76376,0.32069 -2.41672,0.96205 -0.65296,0.64138 -1.01421,1.49911 -1.08375,2.5732 z"
           style="font-size:23.73831177px;font-style:normal;font-weight:normal;text-align:start;text-anchor:start;fill:#ffffff;font-family:Arial"
           id="path3716" />
        <path
           d="m 117.0792,426.04025 0,-12.30961 1.87774,0 0,1.75024 c 0.90409,-1.35227 2.21,-2.02841 3.91775,-2.02842 0.74181,1e-5 1.42374,0.13331 2.0458,0.39989 0.62204,0.2666 1.08761,0.61626 1.39671,1.04898 0.30909,0.43274 0.52545,0.9466 0.6491,1.5416 0.0773,0.38637 0.1159,1.06251 0.11591,2.02842 l 0,7.5689 -2.08638,0 0,-7.48777 c -1e-5,-0.84999 -0.0811,-1.48556 -0.24341,-1.90671 -0.16228,-0.42113 -0.45012,-0.75727 -0.86352,-1.00842 -0.41342,-0.25112 -0.89831,-0.37669 -1.45467,-0.3767 -0.88865,10e-6 -1.65558,0.28206 -2.30081,0.84614 -0.64523,0.5641 -0.96785,1.63433 -0.96785,3.2107 l 0,6.72276 z"
           style="font-size:23.73831177px;font-style:normal;font-weight:normal;text-align:start;text-anchor:start;fill:#ffffff;font-family:Arial"
           id="path3718" />
        <path
           d="m 134.84816,424.17411 0.30136,1.84296 c -0.58728,0.12364 -1.11274,0.18546 -1.57637,0.18546 -0.75728,0 -1.34456,-0.11978 -1.76183,-0.35932 -0.41727,-0.23955 -0.71091,-0.55444 -0.88091,-0.94467 -0.17,-0.39023 -0.255,-1.21125 -0.255,-2.46308 l 0,-7.08208 -1.53001,0 0,-1.62274 1.53001,0 0,-3.04843 2.07478,-1.25182 0,4.30025 2.09797,0 0,1.62274 -2.09797,0 0,7.19799 c 0,0.59501 0.0367,0.97751 0.11012,1.14751 0.0734,0.17 0.19317,0.30523 0.35932,0.40568 0.16613,0.10046 0.40374,0.15068 0.71284,0.15068 0.23182,0 0.53704,-0.027 0.91569,-0.0811 z"
           style="font-size:23.73831177px;font-style:normal;font-weight:normal;text-align:start;text-anchor:start;fill:#ffffff;font-family:Arial"
           id="path3720" />
      </g>
      <path
         id="path3516"
         d="m 475.93755,302.11688 c 13.04046,0 23.58214,-10.54168 23.58214,-23.58214 l 0,0 0,-62.31307 c 0,-13.04045 -10.54168,-23.66023 -23.58214,-23.66023 l -89.72145,0 c -13.04045,0 -23.66023,10.61978 -23.66023,23.66023 l 0,62.31307 c 0,13.04046 10.61978,23.58214 23.66023,23.58214 l 89.72145,0 z"
         style="fill:#595959;fill-opacity:1;fill-rule:evenodd;stroke:none"
         inkscape:connector-curvature="0" />
      <path
         id="path3518"
         d="m 475.93755,302.11688 c 13.04046,0 23.58214,-10.54168 23.58214,-23.58214 l 0,0 0,-62.31307 c 0,-13.04045 -10.54168,-23.66023 -23.58214,-23.66023 l -89.72145,0 c -13.04045,0 -23.66023,10.61978 -23.66023,23.66023 l 0,62.31307 c 0,13.04046 10.61978,23.58214 23.66023,23.58214 l 89.72145,0 z"
         style="fill:none;stroke:#000000;stroke-width:3.59198141px;stroke-linecap:round;stroke-linejoin:round;stroke-opacity:1;stroke-dasharray:none"
         inkscape:connector-curvature="0" />
      <g
         style="font-size:23.73831177px;font-style:normal;font-weight:normal;text-align:start;text-anchor:start;fill:#ffffff;font-family:Arial"
         id="text3520">
        <path
           d="m 409.76348,239.8819 6.52571,-16.99237 2.42252,0 6.95458,16.99237 -2.56161,0 -1.98205,-5.14639 -7.10527,0 -1.86614,5.14639 z m 4.90298,-6.97777 5.76071,0 -1.77342,-4.70593 c -0.54092,-1.42954 -0.94274,-2.60409 -1.20546,-3.52366 -0.21637,1.08957 -0.5216,2.17139 -0.91569,3.24547 z"
           style="font-size:23.73831177px;font-style:normal;font-weight:normal;text-align:start;text-anchor:start;fill:#ffffff;font-family:Arial"
           id="path3723" />
        <path
           d="m 427.21948,244.59942 0,-17.02714 1.90092,0 0,1.59956 c 0.44818,-0.6259 0.95432,-1.09534 1.51842,-1.4083 0.56409,-0.31295 1.24795,-0.46943 2.0516,-0.46944 1.05091,1e-5 1.97818,0.27047 2.78183,0.81137 0.80363,0.54092 1.41023,1.30399 1.81978,2.28922 0.40954,0.98524 0.61431,2.06513 0.61433,3.23967 -2e-5,1.25956 -0.22604,2.39354 -0.67808,3.40195 -0.45205,1.00842 -1.10888,1.78115 -1.97046,2.3182 -0.86161,0.53705 -1.76763,0.80557 -2.71808,0.80557 -0.69547,0 -1.31945,-0.14682 -1.87195,-0.44046 -0.5525,-0.29363 -1.00648,-0.66454 -1.36194,-1.11273 l 0,5.99253 z m 1.88933,-10.80278 c -1e-5,1.5841 0.32068,2.75479 0.96205,3.51206 0.64136,0.75728 1.41796,1.13592 2.32978,1.13592 0.92727,0 1.72126,-0.39216 2.38195,-1.17649 0.66067,-0.78432 0.99102,-1.99944 0.99103,-3.64536 -10e-6,-1.56864 -0.32263,-2.74319 -0.96785,-3.52365 -0.64524,-0.78045 -1.41604,-1.17068 -2.3124,-1.17069 -0.88865,1e-5 -1.6749,0.41535 -2.35876,1.24603 -0.68387,0.83069 -1.02581,2.03808 -1.0258,3.62218 z"
           style="font-size:23.73831177px;font-style:normal;font-weight:normal;text-align:start;text-anchor:start;fill:#ffffff;font-family:Arial"
           id="path3725" />
        <path
           d="m 440.43319,244.59942 0,-17.02714 1.90092,0 0,1.59956 c 0.44818,-0.6259 0.95432,-1.09534 1.51842,-1.4083 0.56408,-0.31295 1.24795,-0.46943 2.0516,-0.46944 1.05091,1e-5 1.97818,0.27047 2.78183,0.81137 0.80363,0.54092 1.41023,1.30399 1.81978,2.28922 0.40954,0.98524 0.61431,2.06513 0.61433,3.23967 -2e-5,1.25956 -0.22604,2.39354 -0.67808,3.40195 -0.45205,1.00842 -1.10888,1.78115 -1.97046,2.3182 -0.86161,0.53705 -1.76763,0.80557 -2.71808,0.80557 -0.69547,0 -1.31945,-0.14682 -1.87195,-0.44046 -0.5525,-0.29363 -1.00648,-0.66454 -1.36194,-1.11273 l 0,5.99253 z m 1.88933,-10.80278 c -10e-6,1.5841 0.32068,2.75479 0.96205,3.51206 0.64136,0.75728 1.41796,1.13592 2.32978,1.13592 0.92727,0 1.72126,-0.39216 2.38195,-1.17649 0.66067,-0.78432 0.99102,-1.99944 0.99103,-3.64536 -10e-6,-1.56864 -0.32263,-2.74319 -0.96785,-3.52365 -0.64524,-0.78045 -1.41604,-1.17068 -2.3124,-1.17069 -0.88865,1e-5 -1.6749,0.41535 -2.35876,1.24603 -0.68387,0.83069 -1.02581,2.03808 -1.0258,3.62218 z"
           style="font-size:23.73831177px;font-style:normal;font-weight:normal;text-align:start;text-anchor:start;fill:#ffffff;font-family:Arial"
           id="path3727" />
      </g>
      <g
         style="font-size:23.73831177px;font-style:normal;font-weight:normal;text-align:start;text-anchor:start;fill:#ffffff;font-family:Arial"
         id="text3522">
        <path
           d="m 385.02285,262.65998 2.24865,0.56795 c -0.47138,1.84684 -1.31945,3.25514 -2.54422,4.22491 -1.22479,0.96978 -2.72195,1.45467 -4.4915,1.45467 -1.83138,0 -3.32082,-0.37284 -4.46832,-1.11853 -1.14751,-0.74568 -2.02069,-1.82557 -2.61956,-3.23967 -0.59887,-1.4141 -0.8983,-2.93251 -0.8983,-4.55526 0,-1.76954 0.33807,-3.31307 1.01421,-4.63059 0.67614,-1.31749 1.63819,-2.31818 2.88615,-3.00206 1.24796,-0.68385 2.62149,-1.02579 4.12059,-1.0258 1.7,1e-5 3.12955,0.43274 4.28866,1.29819 1.15909,0.86547 1.96659,2.08252 2.42252,3.65115 l -2.21388,0.5216 c -0.39411,-1.23636 -0.96593,-2.13659 -1.71546,-2.7007 -0.74956,-0.56408 -1.69229,-0.84613 -2.8282,-0.84614 -1.30592,1e-5 -2.39741,0.31297 -3.27445,0.93887 -0.87705,0.62592 -1.49331,1.46627 -1.84876,2.52103 -0.35546,1.05479 -0.53319,2.14241 -0.53318,3.26286 -10e-6,1.44502 0.21056,2.7065 0.6317,3.78445 0.42114,1.07797 1.07603,1.88354 1.96467,2.41672 0.88864,0.53319 1.85069,0.79978 2.88616,0.79978 1.25954,0 2.32591,-0.36318 3.1991,-1.08955 0.87318,-0.72637 1.46432,-1.80433 1.77342,-3.23388 z"
           style="font-size:23.73831177px;font-style:normal;font-weight:normal;text-align:start;text-anchor:start;fill:#ffffff;font-family:Arial"
           id="path3730" />
        <path
           d="m 389.01015,262.46293 c 0,-2.27955 0.63364,-3.96797 1.90092,-5.06525 1.05864,-0.91182 2.3491,-1.36773 3.87138,-1.36774 1.69228,10e-6 3.07546,0.55445 4.14957,1.66331 1.07409,1.10887 1.61113,2.64081 1.61115,4.59582 -2e-5,1.5841 -0.23763,2.83013 -0.71285,3.73808 -0.47524,0.90797 -1.16683,1.61308 -2.07478,2.11536 -0.90797,0.50227 -1.899,0.75341 -2.97309,0.75341 -1.72319,0 -3.11604,-0.5525 -4.17854,-1.65751 -1.06251,-1.105 -1.59376,-2.69683 -1.59376,-4.77548 z m 2.14433,0 c 0,1.57638 0.34386,2.75672 1.03159,3.54104 0.68773,0.78433 1.55319,1.17649 2.59638,1.17649 1.03546,0 1.89705,-0.3941 2.58479,-1.18228 0.68772,-0.78819 1.03159,-1.98978 1.0316,-3.6048 -1e-5,-1.52227 -0.34581,-2.67557 -1.0374,-3.4599 -0.6916,-0.78431 -1.55126,-1.17647 -2.57899,-1.17648 -1.04319,10e-6 -1.90865,0.39024 -2.59638,1.17068 -0.68773,0.78047 -1.03159,1.95889 -1.03159,3.53525 z"
           style="font-size:23.73831177px;font-style:normal;font-weight:normal;text-align:start;text-anchor:start;fill:#ffffff;font-family:Arial"
           id="path3732" />
        <path
           d="m 403.00045,268.61774 0,-12.30962 1.86615,0 0,1.72706 c 0.38636,-0.60272 0.90023,-1.08761 1.5416,-1.45467 0.64136,-0.36703 1.37159,-0.55056 2.19069,-0.55057 0.91182,10e-6 1.65943,0.18933 2.24286,0.56796 0.5834,0.37865 0.99488,0.90797 1.23443,1.58796 0.97363,-1.43727 2.24091,-2.15591 3.80184,-2.15592 1.2209,10e-6 2.15977,0.33808 2.81661,1.01421 0.6568,0.67615 0.98521,1.71741 0.98523,3.12377 l 0,8.44982 -2.07478,0 0,-7.75436 c -2e-5,-0.83455 -0.0676,-1.43534 -0.20284,-1.8024 -0.13525,-0.36704 -0.38059,-0.66261 -0.73603,-0.88671 -0.35547,-0.22408 -0.77275,-0.33613 -1.25183,-0.33614 -0.86547,1e-5 -1.58411,0.28786 -2.15592,0.86353 -0.57183,0.57569 -0.85774,1.49718 -0.85773,2.76445 l 0,7.15163 -2.08637,0 0,-7.99777 c -1e-5,-0.92727 -0.17001,-1.62273 -0.51001,-2.08638 -0.34001,-0.46363 -0.89637,-0.69545 -1.6691,-0.69546 -0.58728,1e-5 -1.13012,0.15456 -1.62853,0.46364 -0.49842,0.3091 -0.85967,0.76115 -1.08375,1.35615 -0.2241,0.59501 -0.33615,1.45274 -0.33614,2.57319 l 0,6.38663 z"
           style="font-size:23.73831177px;font-style:normal;font-weight:normal;text-align:start;text-anchor:start;fill:#ffffff;font-family:Arial"
           id="path3734" />
        <path
           d="m 422.79783,273.33526 0,-17.02714 1.90092,0 0,1.59956 c 0.44818,-0.6259 0.95432,-1.09534 1.51842,-1.4083 0.56409,-0.31295 1.24795,-0.46943 2.0516,-0.46944 1.05091,10e-6 1.97819,0.27047 2.78184,0.81137 0.80363,0.54092 1.41022,1.30399 1.81978,2.28922 0.40953,0.98524 0.61431,2.06513 0.61432,3.23967 -1e-5,1.25956 -0.22604,2.39354 -0.67807,3.40195 -0.45206,1.00842 -1.10888,1.78115 -1.97047,2.3182 -0.8616,0.53705 -1.76763,0.80557 -2.71808,0.80557 -0.69547,0 -1.31945,-0.14682 -1.87194,-0.44046 -0.55251,-0.29363 -1.00649,-0.66455 -1.36194,-1.11273 l 0,5.99253 z m 1.88933,-10.80278 c 0,1.5841 0.32068,2.75479 0.96205,3.51206 0.64136,0.75728 1.41796,1.13592 2.32979,1.13592 0.92727,0 1.72125,-0.39216 2.38194,-1.17649 0.66068,-0.78432 0.99102,-1.99944 0.99103,-3.64536 -10e-6,-1.56864 -0.32262,-2.74319 -0.96785,-3.52365 -0.64524,-0.78045 -1.41603,-1.17068 -2.31239,-1.17069 -0.88865,1e-5 -1.67491,0.41535 -2.35877,1.24603 -0.68387,0.83069 -1.0258,2.03808 -1.0258,3.62218 z"
           style="font-size:23.73831177px;font-style:normal;font-weight:normal;text-align:start;text-anchor:start;fill:#ffffff;font-family:Arial"
           id="path3736" />
        <path
           d="m 435.23495,262.46293 c 0,-2.27955 0.63364,-3.96797 1.90092,-5.06525 1.05864,-0.91182 2.3491,-1.36773 3.87138,-1.36774 1.69228,10e-6 3.07546,0.55445 4.14957,1.66331 1.07409,1.10887 1.61113,2.64081 1.61115,4.59582 -2e-5,1.5841 -0.23763,2.83013 -0.71285,3.73808 -0.47524,0.90797 -1.16683,1.61308 -2.07478,2.11536 -0.90797,0.50227 -1.899,0.75341 -2.97309,0.75341 -1.72319,0 -3.11604,-0.5525 -4.17854,-1.65751 -1.06251,-1.105 -1.59376,-2.69683 -1.59376,-4.77548 z m 2.14433,0 c 0,1.57638 0.34386,2.75672 1.03159,3.54104 0.68773,0.78433 1.55319,1.17649 2.59638,1.17649 1.03546,0 1.89705,-0.3941 2.58479,-1.18228 0.68772,-0.78819 1.03159,-1.98978 1.0316,-3.6048 -1e-5,-1.52227 -0.34581,-2.67557 -1.0374,-3.4599 -0.6916,-0.78431 -1.55126,-1.17647 -2.57899,-1.17648 -1.04319,10e-6 -1.90865,0.39024 -2.59638,1.17068 -0.68773,0.78047 -1.03159,1.95889 -1.03159,3.53525 z"
           style="font-size:23.73831177px;font-style:normal;font-weight:normal;text-align:start;text-anchor:start;fill:#ffffff;font-family:Arial"
           id="path3738" />
        <path
           d="m 449.22525,268.61774 0,-12.30962 1.87774,0 0,1.75024 c 0.90409,-1.35227 2.21,-2.02841 3.91775,-2.02842 0.74181,10e-6 1.42375,0.13331 2.0458,0.39989 0.62204,0.2666 1.08761,0.61626 1.39672,1.04898 0.30908,0.43274 0.52544,0.94661 0.64909,1.5416 0.0773,0.38638 0.1159,1.06252 0.11591,2.02842 l 0,7.56891 -2.08638,0 0,-7.48777 c 0,-0.85 -0.0811,-1.48557 -0.24341,-1.90672 -0.16228,-0.42113 -0.45012,-0.75726 -0.86352,-1.00841 -0.41342,-0.25113 -0.89831,-0.3767 -1.45467,-0.37671 -0.88865,1e-5 -1.65558,0.28206 -2.30081,0.84614 -0.64523,0.56411 -0.96785,1.63434 -0.96784,3.2107 l 0,6.72277 z"
           style="font-size:23.73831177px;font-style:normal;font-weight:normal;text-align:start;text-anchor:start;fill:#ffffff;font-family:Arial"
           id="path3740" />
        <path
           d="m 470.86559,264.65362 2.15593,0.2666 c -0.34002,1.25955 -0.96979,2.23706 -1.88933,2.93251 -0.91956,0.69546 -2.09411,1.04319 -3.52366,1.04319 -1.80047,0 -3.22809,-0.55443 -4.28286,-1.6633 -1.05478,-1.10887 -1.58217,-2.66399 -1.58217,-4.66537 0,-2.07091 0.53318,-3.67819 1.59955,-4.82185 1.06637,-1.14363 2.44956,-1.71545 4.14957,-1.71546 1.64591,10e-6 2.99046,0.56024 4.03366,1.68069 1.04318,1.12047 1.56477,2.69684 1.56478,4.72912 -1e-5,0.12364 -0.004,0.3091 -0.0116,0.55637 l -9.18005,0 c 0.0773,1.35228 0.45977,2.38774 1.14751,3.10638 0.68772,0.71864 1.54545,1.07796 2.57319,1.07796 0.765,0 1.41796,-0.20091 1.95888,-0.60273 0.5409,-0.40182 0.96976,-1.04319 1.28659,-1.92411 z m -6.85026,-3.37297 6.87345,0 c -0.0927,-1.03545 -0.35547,-1.81205 -0.78819,-2.32978 -0.66456,-0.80363 -1.52615,-1.20545 -2.58479,-1.20547 -0.95819,2e-5 -1.76376,0.3207 -2.41671,0.96206 -0.65297,0.64137 -1.01422,1.4991 -1.08376,2.57319 z"
           style="font-size:23.73831177px;font-style:normal;font-weight:normal;text-align:start;text-anchor:start;fill:#ffffff;font-family:Arial"
           id="path3742" />
        <path
           d="m 475.65267,268.61774 0,-12.30962 1.87774,0 0,1.75024 c 0.90409,-1.35227 2.21001,-2.02841 3.91775,-2.02842 0.74181,10e-6 1.42375,0.13331 2.0458,0.39989 0.62204,0.2666 1.08761,0.61626 1.39672,1.04898 0.30908,0.43274 0.52544,0.94661 0.64909,1.5416 0.0773,0.38638 0.1159,1.06252 0.11591,2.02842 l 0,7.56891 -2.08637,0 0,-7.48777 c -10e-6,-0.85 -0.0811,-1.48557 -0.24341,-1.90672 -0.16229,-0.42113 -0.45013,-0.75726 -0.86353,-1.00841 -0.41342,-0.25113 -0.89831,-0.3767 -1.45467,-0.37671 -0.88865,1e-5 -1.65558,0.28206 -2.30081,0.84614 -0.64523,0.56411 -0.96785,1.63434 -0.96784,3.2107 l 0,6.72277 z"
           style="font-size:23.73831177px;font-style:normal;font-weight:normal;text-align:start;text-anchor:start;fill:#ffffff;font-family:Arial"
           id="path3744" />
        <path
           d="m 493.42163,266.75159 0.30137,1.84296 c -0.58729,0.12364 -1.11274,0.18546 -1.57638,0.18546 -0.75728,0 -1.34455,-0.11977 -1.76182,-0.35932 -0.41728,-0.23955 -0.71092,-0.55443 -0.88092,-0.94466 -0.17,-0.39023 -0.255,-1.21126 -0.255,-2.46309 l 0,-7.08208 -1.53001,0 0,-1.62274 1.53001,0 0,-3.04842 2.07479,-1.25183 0,4.30025 2.09796,0 0,1.62274 -2.09796,0 0,7.19799 c -10e-6,0.59501 0.0367,0.97751 0.11011,1.14751 0.0734,0.17 0.19318,0.30523 0.35932,0.40568 0.16613,0.10046 0.40375,0.15069 0.71284,0.15069 0.23182,0 0.53705,-0.0271 0.91569,-0.0811 z"
           style="font-size:23.73831177px;font-style:normal;font-weight:normal;text-align:start;text-anchor:start;fill:#ffffff;font-family:Arial"
           id="path3746" />
      </g>
      <path
         id="path3524"
         d="m 191.93675,252.61001 c 13.04046,0 23.58214,-10.54169 23.58214,-23.58214 l 0,0 0,-95.73412 c 0,-13.04046 -10.54168,-23.58214 -23.58214,-23.58214 l 0,0 -139.306412,0 c -13.040455,0 -23.660226,10.54168 -23.660226,23.58214 l 0,0 0,95.73412 c 0,13.04045 10.619771,23.58214 23.660226,23.58214 l 0,0 139.306412,0 z"
         style="fill:#ffe100;fill-opacity:1;fill-rule:evenodd;stroke:none"
         inkscape:connector-curvature="0" />
      <path
         id="path3526"
         d="m 191.93675,252.61001 c 13.04046,0 23.58214,-10.54169 23.58214,-23.58214 l 0,0 0,-95.73412 c 0,-13.04046 -10.54168,-23.58214 -23.58214,-23.58214 l 0,0 -139.306412,0 c -13.040455,0 -23.660226,10.54168 -23.660226,23.58214 l 0,0 0,95.73412 c 0,13.04045 10.619771,23.58214 23.660226,23.58214 l 0,0 139.306412,0 z"
         style="fill:none;stroke:#ffc000;stroke-width:5.23179913px;stroke-linecap:round;stroke-linejoin:round;stroke-opacity:1;stroke-dasharray:none"
         inkscape:connector-curvature="0" />
      <path
         id="path3528"
         d="m 65.51462,230.35534 c -2.186424,0.46852 -4.216674,0.62469 -6.168838,0.62469 -0.780866,0 -1.561731,0 -2.26451,-0.0781 -0.702779,-0.0781 -1.483645,-0.23426 -2.342597,-0.46852 -0.858952,-0.23426 -1.639818,-0.46852 -2.186423,-0.93703 -0.624693,-0.31235 -1.171299,-0.85896 -1.561732,-1.56174 -0.390432,-0.70277 -0.624692,-1.56173 -0.624692,-2.49877 l 0,-8.51143 c 0,-3.82624 2.967289,-5.77841 8.979954,-5.77841 1.405558,0 3.435808,0.15618 6.090751,0.6247 l 0,3.51389 c -2.342597,-0.62469 -4.372847,-0.85895 -6.090751,-0.85895 -0.624693,0 -1.171299,0 -1.639818,0.0781 -0.390433,0 -0.858952,0.15617 -1.327471,0.23426 -0.46852,0.15617 -0.780866,0.46852 -1.015126,0.78086 -0.234259,0.39043 -0.390432,0.78087 -0.390432,1.32747 l 0,8.27718 c 0,1.7179 1.639817,2.57685 4.841366,2.57685 1.405558,0 3.279635,-0.31234 5.700319,-0.85895 l 0,3.5139 z"
         style="fill:#000000;fill-opacity:1;fill-rule:evenodd;stroke:none"
         inkscape:connector-curvature="0" />
      <path
         id="path3530"
         d="m 77.774209,219.65748 -1.483645,0 c -1.171298,0 -2.108337,0.15617 -2.654943,0.54661 -0.624692,0.31234 -0.937038,0.93703 -0.937038,1.87407 l 0,8.66761 -4.294761,0 0,-14.44601 4.060501,0 0,2.57685 c 0.07809,-0.70278 0.468519,-1.40555 1.249385,-1.95216 0.780865,-0.62469 1.639818,-0.93704 2.49877,-0.93704 l 1.561731,0 0,3.67007 z"
         style="fill:#000000;fill-opacity:1;fill-rule:evenodd;stroke:none"
         inkscape:connector-curvature="0" />
      <path
         id="path3532"
         d="m 94.328558,221.53156 0,4.21667 c 0,0.93704 -0.156173,1.79599 -0.468519,2.42068 -0.23426,0.70278 -0.624692,1.1713 -1.093212,1.56173 -0.390432,0.39044 -1.015125,0.6247 -1.717904,0.85896 -0.702779,0.15617 -1.327471,0.31234 -1.874077,0.31234 -0.624693,0.0781 -1.327472,0.0781 -2.108337,0.0781 -0.858952,0 -1.561731,0 -2.186424,-0.0781 -0.546606,0 -1.171298,-0.15617 -1.874077,-0.31234 -0.702779,-0.23426 -1.327471,-0.46852 -1.717904,-0.85896 -0.46852,-0.39043 -0.858952,-0.85895 -1.093212,-1.56173 -0.312346,-0.62469 -0.468519,-1.48364 -0.468519,-2.42068 l 0,-4.21667 c 0,-1.01513 0.156173,-1.87408 0.468519,-2.57686 0.312346,-0.70278 0.702779,-1.1713 1.093212,-1.56173 0.468519,-0.39043 1.015125,-0.70278 1.717904,-0.93704 0.780866,-0.15617 1.405558,-0.31235 1.952164,-0.39043 0.546606,0 1.249385,-0.0781 2.108337,-0.0781 0.780865,0 1.483644,0.0781 2.03025,0.0781 0.546606,0.0781 1.171299,0.23426 1.952164,0.39043 0.702779,0.23426 1.249385,0.54661 1.717904,0.93704 0.390433,0.39043 0.780866,0.85895 1.093212,1.56173 0.312346,0.70278 0.468519,1.56173 0.468519,2.57686 z m -4.372847,4.76328 0,-5.46606 c 0,-0.78087 -0.156173,-1.32747 -0.546606,-1.63982 -0.390432,-0.31235 -1.171298,-0.46852 -2.342596,-0.46852 -1.249385,0 -2.030251,0.15617 -2.420683,0.46852 -0.390433,0.31235 -0.546606,0.85895 -0.546606,1.63982 l 0,5.46606 c 0,0.78086 0.156173,1.24938 0.546606,1.56173 0.390432,0.31234 1.171298,0.46852 2.420683,0.46852 1.171298,0 1.952164,-0.15618 2.342596,-0.46852 0.390433,-0.31235 0.546606,-0.78087 0.546606,-1.56173 z"
         style="fill:#000000;fill-opacity:1;fill-rule:evenodd;stroke:none"
         inkscape:connector-curvature="0" />
      <path
         id="path3534"
         d="m 110.10204,225.12354 0,1.79599 c 0,0.70278 -0.15617,1.32747 -0.39043,1.79599 -0.31235,0.54661 -0.62469,0.93704 -1.01513,1.24938 -0.39043,0.31235 -0.93703,0.46852 -1.56173,0.6247 -0.70278,0.23426 -1.32747,0.31234 -1.95216,0.31234 -0.54661,0.0781 -1.24939,0.0781 -2.10834,0.0781 -1.56173,0 -3.435806,-0.15617 -5.700316,-0.39043 l 0,-2.88921 c 2.811116,0.39044 4.685196,0.6247 5.778406,0.6247 0.85895,0 1.48364,-0.0781 1.95216,-0.31235 0.46852,-0.15617 0.70278,-0.46852 0.70278,-0.93704 l 0,-0.93704 c 0,-0.39043 -0.15617,-0.78086 -0.39043,-1.01512 -0.23426,-0.23426 -0.78087,-0.31235 -1.63982,-0.31235 l -1.87408,0 c -1.48364,0 -2.654939,-0.31234 -3.513891,-0.93704 -0.858952,-0.5466 -1.249385,-1.48364 -1.249385,-2.65494 l 0,-1.7179 c 0,-1.32748 0.624693,-2.26451 1.874078,-2.73303 1.249388,-0.46852 2.967288,-0.78087 5.231798,-0.78087 0.93704,0 2.65494,0.15617 5.15371,0.31235 l 0,2.73303 c -3.12346,-0.23426 -4.84136,-0.31235 -5.2318,-0.31235 -1.24938,0 -1.95216,0.0781 -2.26451,0.23426 -0.39043,0.15617 -0.5466,0.46852 -0.5466,0.93704 l 0,0.78086 c 0,0.23426 0.15617,0.46852 0.39043,0.70278 0.23426,0.15618 0.62469,0.23426 1.1713,0.23426 l 1.87408,0 c 3.51389,0 5.30988,1.1713 5.30988,3.5139 z"
         style="fill:#000000;fill-opacity:1;fill-rule:evenodd;stroke:none"
         inkscape:connector-curvature="0" />
      <path
         id="path3536"
         d="m 125.71935,225.12354 0,1.79599 c 0,0.70278 -0.15617,1.32747 -0.39043,1.79599 -0.31235,0.54661 -0.62469,0.93704 -1.01512,1.24938 -0.39044,0.31235 -0.93704,0.46852 -1.63982,0.6247 -0.62469,0.23426 -1.24939,0.31234 -1.87408,0.31234 -0.54661,0.0781 -1.32747,0.0781 -2.10834,0.0781 -1.56173,0 -3.4358,-0.15617 -5.70031,-0.39043 l 0,-2.88921 c 2.81111,0.39044 4.68519,0.6247 5.7784,0.6247 0.85895,0 1.48364,-0.0781 1.95216,-0.31235 0.46852,-0.15617 0.70278,-0.46852 0.70278,-0.93704 l 0,-0.93704 c 0,-0.39043 -0.15617,-0.78086 -0.39043,-1.01512 -0.23426,-0.23426 -0.78087,-0.31235 -1.63982,-0.31235 l -1.87407,0 c -1.48365,0 -2.73303,-0.31234 -3.5139,-0.93704 -0.85895,-0.5466 -1.24938,-1.48364 -1.24938,-2.65494 l 0,-1.7179 c 0,-1.32748 0.62469,-2.26451 1.87407,-2.73303 1.24939,-0.46852 2.96729,-0.78087 5.2318,-0.78087 0.93704,0 2.65494,0.15617 5.15371,0.31235 l 0,2.73303 c -3.12346,-0.23426 -4.84136,-0.31235 -5.23179,-0.31235 -1.24939,0 -1.95217,0.0781 -2.3426,0.23426 -0.31235,0.15617 -0.46852,0.46852 -0.46852,0.93704 l 0,0.78086 c 0,0.23426 0.15617,0.46852 0.39043,0.70278 0.23426,0.15618 0.62469,0.23426 1.1713,0.23426 l 1.87408,0 c 3.51389,0 5.30988,1.1713 5.30988,3.5139 z"
         style="fill:#000000;fill-opacity:1;fill-rule:evenodd;stroke:none"
         inkscape:connector-curvature="0" />
      <path
         id="path3538"
         d="m 143.67926,220.82878 0,4.76328 c 0,1.95216 -0.62469,3.35772 -1.79599,4.21667 -1.1713,0.78087 -3.04538,1.1713 -5.70032,1.1713 -2.73303,0 -4.6071,-0.39043 -5.70032,-1.24939 -1.01512,-0.85895 -1.56173,-2.26451 -1.56173,-4.13858 l 0,-15.6954 4.37285,0 0,7.88674 c 0.23426,-0.70278 0.70278,-1.09321 1.40556,-1.40556 0.70278,-0.23426 1.79599,-0.39043 3.20155,-0.39043 1.24938,0 2.26451,0.15617 3.04537,0.31235 0.70278,0.23426 1.32747,0.5466 1.71791,1.01512 0.39043,0.39044 0.70277,0.93704 0.78086,1.48365 0.15617,0.46852 0.23426,1.1713 0.23426,2.03025 z m -4.37285,5.30988 0,-5.30988 c 0,-0.93704 -0.15617,-1.48365 -0.46852,-1.71791 -0.39043,-0.31234 -1.24938,-0.39043 -2.65494,-0.39043 -1.1713,0 -1.95216,0.15617 -2.34259,0.46852 -0.39044,0.31235 -0.54661,0.85895 -0.54661,1.63982 l 0,5.30988 c 0,0.85896 0.15617,1.48365 0.46852,1.71791 0.39043,0.31234 1.24938,0.46852 2.49877,0.46852 1.24938,0 2.10834,-0.15618 2.49877,-0.46852 0.39043,-0.23426 0.5466,-0.85895 0.5466,-1.71791 z"
         style="fill:#000000;fill-opacity:1;fill-rule:evenodd;stroke:none"
         inkscape:connector-curvature="0" />
      <path
         id="path3540"
         d="m 159.99935,230.74577 -4.29476,0 0,-1.32747 c -0.31235,0.5466 -0.78086,1.01512 -1.32747,1.24938 -0.62469,0.23426 -1.7179,0.31235 -3.27964,0.31235 -1.95216,0 -3.20154,-0.23426 -3.90432,-0.85895 -0.6247,-0.62469 -0.93704,-1.87408 -0.93704,-3.74816 0,-1.63981 0.31234,-2.8892 1.01512,-3.51389 0.6247,-0.70278 1.79599,-1.01513 3.5139,-1.01513 l 4.84136,0 0,-1.01512 c 0,-0.85895 -0.23426,-1.40556 -0.62469,-1.71791 -0.39043,-0.23426 -1.24938,-0.39043 -2.57685,-0.39043 -1.1713,0 -2.88921,0.0781 -4.99754,0.31235 l 0,-2.73303 c 1.63981,-0.15618 3.4358,-0.31235 5.46605,-0.31235 2.65495,0 4.52902,0.39043 5.54415,1.01513 1.01513,0.62469 1.56173,1.87407 1.56173,3.82624 l 0,9.91699 z m -4.37285,-3.74815 0,-2.73303 -2.96728,0 c -0.93704,0 -1.56174,0.0781 -1.796,0.31234 -0.23426,0.23426 -0.31234,0.78087 -0.31234,1.71791 0,0.93704 0.0781,1.48364 0.31234,1.7179 0.31235,0.15617 0.93704,0.31235 1.87408,0.31235 0.54661,0 0.85895,0 1.1713,0 0.23426,-0.0781 0.46852,-0.0781 0.78087,-0.0781 0.23426,-0.0781 0.46851,-0.15617 0.5466,-0.23426 0.0781,-0.0781 0.15617,-0.23426 0.31235,-0.39043 0.0781,-0.15618 0.0781,-0.31235 0.0781,-0.62469 z"
         style="fill:#000000;fill-opacity:1;fill-rule:evenodd;stroke:none"
         inkscape:connector-curvature="0" />
      <path
         id="path3542"
         d="m 173.19598,219.65748 -1.48365,0 c -1.17129,0 -2.10833,0.15617 -2.65494,0.54661 -0.62469,0.31234 -0.93704,0.93703 -0.93704,1.87407 l 0,8.66761 -4.37284,0 0,-14.44601 4.13858,0 0,2.57685 c 0.0781,-0.70278 0.46852,-1.40555 1.24939,-1.95216 0.78086,-0.62469 1.63982,-0.93704 2.49877,-0.93704 l 1.56173,0 0,3.67007 z"
         style="fill:#000000;fill-opacity:1;fill-rule:evenodd;stroke:none"
         inkscape:connector-curvature="0" />
      <path
         id="path3544"
         d="m 175.77284,227.54422 0,3.20155 3.4358,0 0,-3.20155 -3.4358,0 z"
         style="fill:#000000;fill-opacity:1;fill-rule:evenodd;stroke:none"
         inkscape:connector-curvature="0" />
      <path
         id="path3546"
         d="m 186.23643,213.87907 -2.65494,0 0,-2.73303 2.65494,0 0,2.73303 z m 0,16.8667 -2.65494,0 0,-14.44601 2.65494,0 0,14.44601 z"
         style="fill:#000000;fill-opacity:1;fill-rule:evenodd;stroke:none"
         inkscape:connector-curvature="0" />
      <path
         id="path3548"
         d="m 203.57165,221.14112 0,4.99754 c 0,0.93704 -0.0781,1.63982 -0.31235,2.26451 -0.23426,0.6247 -0.46852,1.09322 -0.78086,1.48365 -0.39044,0.31234 -0.85895,0.5466 -1.48365,0.70278 -0.62469,0.23426 -1.24938,0.31234 -1.79599,0.39043 -0.5466,0 -1.32747,0 -2.18642,0 -1.24939,0 -2.18643,0 -2.81112,-0.0781 -0.70278,-0.0781 -1.32747,-0.31234 -2.03025,-0.62469 -0.62469,-0.31235 -1.09321,-0.78086 -1.40556,-1.40556 -0.31234,-0.70278 -0.39043,-1.56173 -0.39043,-2.73303 l 0,-4.99754 c 0,-0.93703 0.0781,-1.7179 0.31235,-2.34259 0.23426,-0.70278 0.46852,-1.1713 0.85895,-1.56173 0.31235,-0.39044 0.78086,-0.6247 1.40556,-0.78087 0.62469,-0.23426 1.24938,-0.31235 1.79599,-0.39043 0.5466,0 1.24938,-0.0781 2.26451,-0.0781 0.93704,0 1.63982,0.0781 2.18642,0.0781 0.54661,0.0781 1.1713,0.15617 1.79599,0.39043 0.6247,0.15617 1.09321,0.39043 1.40556,0.78087 0.31235,0.39043 0.62469,0.85895 0.85895,1.56173 0.23426,0.62469 0.31235,1.40556 0.31235,2.34259 z m -2.73303,5.38798 0,-5.77841 c 0,-1.32747 -0.23426,-2.18642 -0.78087,-2.49877 -0.5466,-0.31234 -1.56173,-0.46852 -3.04537,-0.46852 -1.56173,0 -2.57686,0.15618 -3.12346,0.46852 -0.54661,0.31235 -0.78087,1.1713 -0.78087,2.49877 l 0,5.77841 c 0,0.62469 0,1.17129 0.15617,1.56173 0.15618,0.31234 0.39044,0.62469 0.78087,0.78086 0.39043,0.15618 0.78086,0.31235 1.1713,0.31235 0.39043,0.0781 1.01512,0.0781 1.79599,0.0781 0.70278,0 1.32747,0 1.7179,-0.0781 0.39044,0 0.78087,-0.15617 1.1713,-0.31235 0.39043,-0.15617 0.62469,-0.46852 0.78087,-0.78086 0.0781,-0.39044 0.15617,-0.93704 0.15617,-1.56173 z"
         style="fill:#000000;fill-opacity:1;fill-rule:evenodd;stroke:none"
         inkscape:connector-curvature="0" />
      <path
         id="path3550"
         d="m 91.517442,128.84282 0,64.81184 64.733758,0 0,-64.81184 -64.733758,0 z"
         style="fill:#000000;fill-opacity:1;fill-rule:evenodd;stroke:none"
         inkscape:connector-curvature="0" />
      <path
         id="path3552"
         d="m 91.517442,142.58605 0,6.48118 15.226878,-0.0781 10.15125,10.15125 4.76328,-4.68519 -12.02533,-12.02533 -18.116078,0.15617 z"
         style="fill:#ffe100;fill-opacity:1;fill-rule:evenodd;stroke:none"
         inkscape:connector-curvature="0" />
      <path
         id="path3554"
         d="m 130.79498,163.66942 -4.68519,4.68519 11.63489,11.6349 18.50652,0 0,-6.48118 -15.61731,0 -9.83891,-9.83891 z"
         style="fill:#ffe100;fill-opacity:1;fill-rule:evenodd;stroke:none"
         inkscape:connector-curvature="0" />
      <path
         id="path3556"
         d="m 138.2132,142.50796 -30.92227,31.07845 -15.773488,0 0,6.48119 18.506518,0 31.00036,-31.00037 15.22688,0 0,-6.55927 -18.038,0 z"
         style="fill:#ffe100;fill-opacity:1;fill-rule:evenodd;stroke:none"
         inkscape:connector-curvature="0" />
      <path
         id="path3558"
         d="M 105.26068,256.35816 72.698583,349.90585"
         style="fill:none;stroke:#000000;stroke-width:3.59198141px;stroke-linecap:round;stroke-linejoin:round;stroke-opacity:1;stroke-dasharray:none"
         inkscape:connector-curvature="0" />
      <path
         id="path3560"
         d="m 218.56427,202.00992 143.9916,45.36829"
         style="fill:none;stroke:#000000;stroke-width:3.59198141px;stroke-linecap:round;stroke-linejoin:round;stroke-opacity:1;stroke-dasharray:none"
         inkscape:connector-curvature="0" />
      <path
         id="path3562"
         d="M 338.97374,41.463961 246.20691,97.92054"
         style="fill:none;stroke:#3475cd;stroke-width:5.23179913px;stroke-linecap:round;stroke-linejoin:round;stroke-opacity:1;stroke-dasharray:none"
         inkscape:connector-curvature="0" />
      <path
         id="path3564"
         d="m 254.01556,105.65111 -23.66022,1.95216 12.57193,-20.068242 11.08829,18.116082 z"
         style="fill:#3475cd;fill-opacity:1;fill-rule:evenodd;stroke:none"
         inkscape:connector-curvature="0" />
      <path
         id="path3566"
         d="m 230.51151,94.016212 96.28072,-58.643003 -14.5241,-23.894485 -96.28072,58.564916 14.5241,23.972572 z"
         style="fill:#ffffff;fill-opacity:1;fill-rule:evenodd;stroke:none"
         inkscape:connector-curvature="0" />
      <g
         transform="matrix(0.8571673,-0.51503807,0.51503807,0.8571673,-7.9201776,133.8608)"
         style="font-size:23.73831177px;font-style:normal;font-weight:normal;text-align:start;text-anchor:start;fill:#3475cd;font-family:Arial"
         id="text3568">
        <path
           d="m 238.11336,77.535676 2.0632,-0.324547 c 0.1159,0.826826 0.43852,1.460465 0.96784,1.900919 0.52932,0.440459 1.26921,0.660687 2.21967,0.660686 0.95818,10e-7 1.6691,-0.195113 2.13274,-0.585344 0.46363,-0.390227 0.69545,-0.84807 0.69546,-1.373531 -1e-5,-0.471362 -0.20478,-0.842273 -0.61432,-1.112733 -0.28592,-0.185451 -0.99683,-0.421134 -2.13274,-0.707049 -1.53001,-0.38636 -2.59058,-0.720566 -3.18172,-1.002619 -0.59114,-0.282041 -1.03933,-0.67227 -1.34455,-1.170689 -0.30523,-0.498404 -0.45785,-1.048974 -0.45785,-1.651713 0,-0.54863 0.12557,-1.0567 0.37671,-1.524213 0.25114,-0.467492 0.59307,-0.855789 1.0258,-1.164893 0.32455,-0.239535 0.76693,-0.442376 1.32717,-0.608526 0.56022,-0.166125 1.16102,-0.249193 1.80239,-0.249206 0.96591,1.3e-5 1.81398,0.139104 2.54422,0.417275 0.73022,0.278195 1.2692,0.654902 1.61694,1.13012 0.34772,0.47524 0.58727,1.110811 0.71864,1.906715 l -2.04001,0.278183 c -0.0927,-0.63363 -0.36126,-1.128178 -0.80557,-1.483644 -0.44433,-0.355446 -1.07217,-0.533174 -1.88353,-0.533185 -0.9582,1.1e-5 -1.64206,0.158421 -2.05161,0.47523 -0.40955,0.31683 -0.61432,0.687741 -0.61432,1.112733 0,0.270465 0.085,0.513876 0.255,0.730232 0.17,0.2241 0.43659,0.409555 0.79978,0.556366 0.20863,0.07728 0.82296,0.255009 1.84297,0.533185 1.47591,0.3941 2.50557,0.716715 3.08899,0.967846 0.5834,0.251144 1.04125,0.616259 1.37353,1.095347 0.33226,0.479099 0.4984,1.074101 0.49841,1.78501 -1e-5,0.695461 -0.20285,1.35035 -0.60852,1.96467 -0.4057,0.614322 -0.99104,1.089552 -1.75604,1.425689 -0.76501,0.336138 -1.63047,0.504207 -2.59637,0.504208 -1.59956,-10e-7 -2.81855,-0.332275 -3.65696,-0.996824 -0.83841,-0.664548 -1.37353,-1.649779 -1.60535,-2.955698 z"
           style="font-size:23.73831177px;font-style:normal;font-weight:normal;text-align:start;text-anchor:start;fill:#3475cd;font-family:Arial"
           id="path3749" />
      </g>
      <g
         transform="matrix(0.8571673,-0.51503807,0.51503807,0.8571673,-3.2751496,138.11638)"
         style="font-size:23.73831177px;font-style:normal;font-weight:normal;text-align:start;text-anchor:start;fill:#3475cd;font-family:Arial"
         id="text3570">
        <path
           d="m 257.0103,74.963097 0,-1.808192 c -0.95819,1.390917 -2.26024,2.086375 -3.90616,2.086375 -0.72637,0 -1.40444,-0.139092 -2.03421,-0.417275 -0.62978,-0.278183 -1.09728,-0.627844 -1.40251,-1.048983 -0.30523,-0.421137 -0.51966,-0.936935 -0.6433,-1.547395 -0.085,-0.409544 -0.1275,-1.058638 -0.1275,-1.947283 l 0,-7.62686 2.08638,0 0,6.827083 c -1e-5,1.089555 0.0425,1.82365 0.1275,2.202284 0.13136,0.548642 0.40954,0.97944 0.83455,1.292394 0.42499,0.312958 0.95045,0.469436 1.57637,0.469434 0.62591,2e-6 1.21318,-0.16034 1.76183,-0.481025 0.54863,-0.320681 0.93693,-0.757274 1.16489,-1.30978 0.22795,-0.552499 0.34192,-1.354207 0.34193,-2.405127 l 0,-6.595263 2.08638,0 0,12.309613 z"
           style="font-size:23.73831177px;font-style:normal;font-weight:normal;text-align:start;text-anchor:start;fill:#3475cd;font-family:Arial"
           id="path3752" />
      </g>
      <g
         transform="matrix(0.8571673,-0.51503807,0.51503807,0.8571673,1.5483312,143.01544)"
         style="font-size:23.73831177px;font-style:normal;font-weight:normal;text-align:start;text-anchor:start;fill:#3475cd;font-family:Arial"
         id="text3572">
        <path
           d="m 262.11156,68.716171 -1.93569,0 0,-16.992365 2.08638,0 0,6.062078 c 0.88091,-1.104994 2.00523,-1.657496 3.37297,-1.657509 0.75727,1.3e-5 1.47398,0.152627 2.15012,0.457843 0.67613,0.305241 1.2325,0.734107 1.6691,1.286598 0.43659,0.552514 0.77852,1.218994 1.02581,1.999443 0.24726,0.780467 0.37089,1.615016 0.37091,2.50365 -2e-5,2.109562 -0.52161,3.740023 -1.56478,4.891391 -1.0432,1.15137 -2.29503,1.727054 -3.75548,1.727055 -1.45274,-10e-7 -2.59252,-0.606594 -3.41934,-1.819783 z m -0.0232,-6.247534 c 0,1.475922 0.20091,2.54229 0.60273,3.199108 0.65682,1.074099 1.54546,1.611147 2.66593,1.611146 0.91181,10e-7 1.7,-0.396023 2.36455,-1.188075 0.66454,-0.792046 0.99682,-1.972393 0.99683,-3.541042 -10e-6,-1.607274 -0.31876,-2.793416 -0.95626,-3.558429 -0.63751,-0.764993 -1.40831,-1.147495 -2.3124,-1.147506 -0.91183,1.1e-5 -1.70001,0.396035 -2.36455,1.188075 -0.66456,0.792058 -0.99683,1.937632 -0.99683,3.436723 z"
           style="font-size:23.73831177px;font-style:normal;font-weight:normal;text-align:start;text-anchor:start;fill:#3475cd;font-family:Arial"
           id="path3755" />
      </g>
      <g
         transform="matrix(0.8571673,-0.51503807,0.51503807,0.8571673,7.0152923,147.73604)"
         style="font-size:23.73831177px;font-style:normal;font-weight:normal;text-align:start;text-anchor:start;fill:#3475cd;font-family:Arial"
         id="text3574">
        <path
           d="m 270.59736,57.545522 2.06319,-0.324547 c 0.11591,0.826825 0.43852,1.460465 0.96785,1.900919 0.52931,0.440459 1.2692,0.660687 2.21967,0.660685 0.95818,2e-6 1.66909,-0.195113 2.13274,-0.585344 0.46363,-0.390227 0.69545,-0.84807 0.69546,-1.37353 -10e-6,-0.471362 -0.20479,-0.842273 -0.61433,-1.112733 -0.28591,-0.185451 -0.99683,-0.421134 -2.13273,-0.70705 -1.53002,-0.38636 -2.59059,-0.720566 -3.18173,-1.002619 -0.59114,-0.28204 -1.03932,-0.672269 -1.34455,-1.170688 -0.30523,-0.498404 -0.45784,-1.048974 -0.45784,-1.651714 0,-0.548629 0.12556,-1.0567 0.3767,-1.524212 0.25114,-0.467492 0.59307,-0.855789 1.0258,-1.164893 0.32455,-0.239535 0.76694,-0.442377 1.32717,-0.608526 0.56023,-0.166125 1.16103,-0.249194 1.8024,-0.249206 0.9659,1.2e-5 1.81398,0.139104 2.54422,0.417275 0.73022,0.278195 1.2692,0.654901 1.61694,1.13012 0.34772,0.47524 0.58726,1.110811 0.71864,1.906715 l -2.04001,0.278183 c -0.0927,-0.63363 -0.36126,-1.128178 -0.80558,-1.483644 -0.44432,-0.355446 -1.07217,-0.533174 -1.88353,-0.533185 -0.95819,1.1e-5 -1.64206,0.158421 -2.0516,0.47523 -0.40955,0.31683 -0.61433,0.68774 -0.61432,1.112733 -1e-5,0.270465 0.085,0.513875 0.255,0.730231 0.16999,0.224101 0.43659,0.409556 0.79977,0.556367 0.20864,0.07728 0.82296,0.255009 1.84297,0.533185 1.47591,0.3941 2.50557,0.716715 3.08899,0.967846 0.58341,0.251144 1.04125,0.616259 1.37353,1.095347 0.33227,0.479098 0.4984,1.074101 0.49842,1.78501 -2e-5,0.695461 -0.20286,1.35035 -0.60853,1.964669 -0.40569,0.614323 -0.99104,1.089552 -1.75603,1.42569 -0.76501,0.336138 -1.63047,0.504207 -2.59638,0.504207 -1.59956,0 -2.81854,-0.332274 -3.65695,-0.996823 -0.83842,-0.664548 -1.37353,-1.64978 -1.60535,-2.955698 z"
           style="font-size:23.73831177px;font-style:normal;font-weight:normal;text-align:start;text-anchor:start;fill:#3475cd;font-family:Arial"
           id="path3758" />
      </g>
      <g
         transform="matrix(0.8571673,-0.51503807,0.51503807,0.8571673,11.016839,152.17008)"
         style="font-size:23.73831177px;font-style:normal;font-weight:normal;text-align:start;text-anchor:start;fill:#3475cd;font-family:Arial"
         id="text3576">
        <path
           d="m 289.45954,51.713432 2.0516,0.266593 c -0.2241,1.414101 -0.79786,2.521038 -1.72126,3.320813 -0.92342,0.799777 -2.0574,1.199666 -3.40195,1.199666 -1.68456,0 -3.03877,-0.550571 -4.06264,-1.651714 -1.02387,-1.10114 -1.5358,-2.679442 -1.5358,-4.734912 0,-1.329091 0.22023,-2.49205 0.66069,-3.488883 0.44045,-0.996813 1.1108,-1.74443 2.01103,-2.242853 0.90023,-0.498399 1.87966,-0.747605 2.93831,-0.747618 1.33682,1.3e-5 2.43023,0.338083 3.28025,1.01421 0.84999,0.676151 1.39477,1.636269 1.63432,2.880357 l -2.02842,0.312956 c -0.19319,-0.826813 -0.53512,-1.448861 -1.0258,-1.866146 -0.49069,-0.417265 -1.08376,-0.625902 -1.77921,-0.625913 -1.05092,1.1e-5 -1.90479,0.376717 -2.56161,1.13012 -0.65682,0.753422 -0.98523,1.945359 -0.98523,3.575815 0,1.65365 0.31682,2.855246 0.95046,3.604793 0.63364,0.749551 1.46046,1.124325 2.48047,1.124324 0.81909,10e-7 1.50295,-0.251136 2.0516,-0.753413 0.54863,-0.502273 0.89636,-1.275004 1.04319,-2.318195 z"
           style="font-size:23.73831177px;font-style:normal;font-weight:normal;text-align:start;text-anchor:start;fill:#3475cd;font-family:Arial"
           id="path3761" />
      </g>
      <g
         transform="matrix(0.8571673,-0.51503807,0.51503807,0.8571673,15.661868,156.42566)"
         style="font-size:23.73831177px;font-style:normal;font-weight:normal;text-align:start;text-anchor:start;fill:#3475cd;font-family:Arial"
         id="text3578">
        <path
           d="m 291.3989,49.975395 0,-12.309613 1.87774,0 0,1.866147 c 0.47909,-0.873175 0.92147,-1.44886 1.32716,-1.727055 0.40568,-0.278171 0.85193,-0.417262 1.33876,-0.417275 0.70318,1.3e-5 1.41796,0.224105 2.14433,0.672276 l -0.71864,1.935693 c -0.51001,-0.301355 -1.02001,-0.452038 -1.53001,-0.452048 -0.45592,10e-6 -0.86546,0.13717 -1.22864,0.411479 -0.36319,0.27433 -0.62205,0.6549 -0.7766,1.141711 -0.23182,0.741831 -0.34773,1.553198 -0.34773,2.434104 l 0,6.444581 z"
           style="font-size:23.73831177px;font-style:normal;font-weight:normal;text-align:start;text-anchor:start;fill:#3475cd;font-family:Arial"
           id="path3764" />
      </g>
      <g
         transform="matrix(0.8571673,-0.51503807,0.51503807,0.8571673,19.128057,158.92926)"
         style="font-size:23.73831177px;font-style:normal;font-weight:normal;text-align:start;text-anchor:start;fill:#3475cd;font-family:Arial"
         id="text3580">
        <path
           d="m 297.68059,30.384821 0,-2.399331 2.08637,0 0,2.399331 z m 0,14.593035 0,-12.309613 2.08637,0 0,12.309613 z"
           style="font-size:23.73831177px;font-style:normal;font-weight:normal;text-align:start;text-anchor:start;fill:#3475cd;font-family:Arial"
           id="path3767" />
      </g>
      <g
         transform="matrix(0.8571673,-0.51503807,0.51503807,0.8571673,21.12883,161.14627)"
         style="font-size:23.73831177px;font-style:normal;font-weight:normal;text-align:start;text-anchor:start;fill:#3475cd;font-family:Arial"
         id="text3582">
        <path
           d="m 304.59063,42.479088 -1.93569,0 0,-16.992366 2.08637,0 0,6.062079 c 0.88091,-1.104994 2.00523,-1.657497 3.37297,-1.657509 0.75727,1.2e-5 1.47398,0.152627 2.15013,0.457843 0.67613,0.305241 1.2325,0.734106 1.6691,1.286598 0.43658,0.552513 0.77851,1.218994 1.0258,1.999443 0.24726,0.780467 0.3709,1.615016 0.37091,2.50365 -10e-6,2.109561 -0.5216,3.740023 -1.56478,4.89139 -1.0432,1.15137 -2.29502,1.727055 -3.75547,1.727055 -1.45275,0 -2.59252,-0.606594 -3.41934,-1.819783 z m -0.0232,-6.247534 c -1e-5,1.475922 0.2009,2.54229 0.60273,3.199108 0.65681,1.074099 1.54545,1.611147 2.66592,1.611145 0.91182,2e-6 1.7,-0.396023 2.36456,-1.188074 0.66454,-0.792047 0.99681,-1.972393 0.99682,-3.541043 -10e-6,-1.607273 -0.31876,-2.793415 -0.95625,-3.558428 -0.63751,-0.764994 -1.40831,-1.147496 -2.3124,-1.147506 -0.91183,10e-6 -1.70002,0.396035 -2.36456,1.188074 -0.66455,0.792059 -0.99683,1.937632 -0.99682,3.436724 z"
           style="font-size:23.73831177px;font-style:normal;font-weight:normal;text-align:start;text-anchor:start;fill:#3475cd;font-family:Arial"
           id="path3770" />
      </g>
      <g
         transform="matrix(0.8571673,-0.51503807,0.51503807,0.8571673,25.952311,166.04533)"
         style="font-size:23.73831177px;font-style:normal;font-weight:normal;text-align:start;text-anchor:start;fill:#3475cd;font-family:Arial"
         id="text3584">
        <path
           d="m 322.33764,32.26805 2.15592,0.266592 c -0.34001,1.259555 -0.96979,2.237059 -1.88933,2.932516 -0.91956,0.695459 -2.09411,1.043188 -3.52365,1.043188 -1.80047,0 -3.22809,-0.554435 -4.28287,-1.663305 -1.05478,-1.108867 -1.58217,-2.663988 -1.58217,-4.665366 0,-2.070912 0.53319,-3.678192 1.59956,-4.821845 1.06637,-1.14363 2.44955,-1.715451 4.14957,-1.715464 1.64591,1.3e-5 2.99046,0.560243 4.03366,1.680691 1.04317,1.120471 1.56476,2.696841 1.56478,4.729117 -2e-5,0.123643 -0.004,0.309099 -0.0116,0.556367 l -9.18005,0 c 0.0773,1.352284 0.45977,2.387743 1.1475,3.10638 0.68773,0.718643 1.54546,1.077962 2.5732,1.077961 0.76499,10e-7 1.41795,-0.200909 1.95887,-0.602731 0.54091,-0.401818 0.96977,-1.043184 1.2866,-1.924101 z m -6.85026,-3.372973 6.87344,0 c -0.0927,-1.035452 -0.35546,-1.812046 -0.78818,-2.329786 -0.66456,-0.80363 -1.52616,-1.20545 -2.58479,-1.205461 -0.95819,1.1e-5 -1.76377,0.320694 -2.41672,0.962051 -0.65296,0.641376 -1.01421,1.499107 -1.08375,2.573196 z"
           style="font-size:23.73831177px;font-style:normal;font-weight:normal;text-align:start;text-anchor:start;fill:#3475cd;font-family:Arial"
           id="path3773" />
      </g>
      <path
         id="path3586"
         d="m 478.28015,113.2255 c 13.04045,0 23.58214,-10.54168 23.58214,-23.582135 l 0,0 0,-62.313071 c 0,-13.040454 -10.54169,-23.5821394 -23.58214,-23.5821394 l 0,0 -89.72145,0 c -13.04046,0 -23.58214,10.5416854 -23.58214,23.5821394 l 0,0 0,62.313071 c 0,13.040455 10.54168,23.582135 23.58214,23.582135 l 0,0 89.72145,0 z"
         style="fill:#595959;fill-opacity:1;fill-rule:evenodd;stroke:none"
         inkscape:connector-curvature="0" />
      <path
         id="path3588"
         d="m 478.28015,113.2255 c 13.04045,0 23.58214,-10.54168 23.58214,-23.582135 l 0,0 0,-62.313071 c 0,-13.040454 -10.54169,-23.5821394 -23.58214,-23.5821394 l 0,0 -89.72145,0 c -13.04046,0 -23.58214,10.5416854 -23.58214,23.5821394 l 0,0 0,62.313071 c 0,13.040455 10.54168,23.582135 23.58214,23.582135 l 0,0 89.72145,0 z"
         style="fill:none;stroke:#000000;stroke-width:3.59198141px;stroke-linecap:round;stroke-linejoin:round;stroke-opacity:1;stroke-dasharray:none"
         inkscape:connector-curvature="0" />
      <g
         style="font-size:23.73831177px;font-style:normal;font-weight:normal;text-align:start;text-anchor:start;fill:#ffffff;font-family:Arial"
         id="text3590">
        <path
           d="m 412.26222,51.224781 6.52572,-16.992366 2.42251,0 6.95459,16.992366 -2.56161,0 -1.98205,-5.146392 -7.10527,0 -1.86615,5.146392 z m 4.90299,-6.977765 5.76071,0 -1.77342,-4.705935 c -0.54092,-1.42954 -0.94274,-2.604091 -1.20546,-3.523656 -0.21637,1.089566 -0.5216,2.171389 -0.91569,3.245472 z"
           style="font-size:23.73831177px;font-style:normal;font-weight:normal;text-align:start;text-anchor:start;fill:#ffffff;font-family:Arial"
           id="path3776" />
        <path
           d="m 429.71823,55.942307 0,-17.027139 1.90092,0 0,1.599554 c 0.44818,-0.625901 0.95432,-1.095335 1.51842,-1.408303 0.56408,-0.312944 1.24795,-0.469422 2.0516,-0.469434 1.0509,1.2e-5 1.97818,0.270468 2.78183,0.811368 0.80363,0.540923 1.41022,1.303995 1.81978,2.289217 0.40954,0.985241 0.61431,2.065132 0.61433,3.239677 -2e-5,1.259557 -0.22604,2.39354 -0.67808,3.40195 -0.45206,1.008417 -1.10888,1.781147 -1.97046,2.318195 -0.86161,0.537048 -1.76763,0.805572 -2.71809,0.805572 -0.69546,0 -1.31944,-0.146819 -1.87194,-0.440457 -0.5525,-0.293637 -1.00648,-0.664548 -1.36194,-1.112733 l 0,5.992533 z m 1.88933,-10.802787 c -10e-6,1.584105 0.32068,2.754792 0.96205,3.512065 0.64136,0.757279 1.41795,1.135917 2.32978,1.135915 0.92727,2e-6 1.72125,-0.392159 2.38195,-1.176483 0.66067,-0.784319 0.99102,-1.999438 0.99103,-3.645361 -1e-5,-1.568637 -0.32263,-2.743188 -0.96785,-3.523656 -0.64524,-0.780448 -1.41604,-1.170677 -2.3124,-1.170688 -0.88865,1.1e-5 -1.6749,0.415354 -2.35876,1.24603 -0.68387,0.830695 -1.02581,2.038087 -1.0258,3.622178 z"
           style="font-size:23.73831177px;font-style:normal;font-weight:normal;text-align:start;text-anchor:start;fill:#ffffff;font-family:Arial"
           id="path3778" />
        <path
           d="m 442.93194,55.942307 0,-17.027139 1.90092,0 0,1.599554 c 0.44818,-0.625901 0.95432,-1.095335 1.51842,-1.408303 0.56408,-0.312944 1.24795,-0.469422 2.0516,-0.469434 1.0509,1.2e-5 1.97818,0.270468 2.78183,0.811368 0.80363,0.540923 1.41022,1.303995 1.81978,2.289217 0.40954,0.985241 0.61431,2.065132 0.61432,3.239677 -10e-6,1.259557 -0.22603,2.39354 -0.67807,3.40195 -0.45206,1.008417 -1.10888,1.781147 -1.97046,2.318195 -0.86161,0.537048 -1.76763,0.805572 -2.71809,0.805572 -0.69546,0 -1.31944,-0.146819 -1.87194,-0.440457 -0.5525,-0.293637 -1.00648,-0.664548 -1.36194,-1.112733 l 0,5.992533 z m 1.88933,-10.802787 c -1e-5,1.584105 0.32068,2.754792 0.96205,3.512065 0.64136,0.757279 1.41795,1.135917 2.32978,1.135915 0.92727,2e-6 1.72125,-0.392159 2.38195,-1.176483 0.66067,-0.784319 0.99102,-1.999438 0.99103,-3.645361 -1e-5,-1.568637 -0.32263,-2.743188 -0.96785,-3.523656 -0.64524,-0.780448 -1.41604,-1.170677 -2.3124,-1.170688 -0.88865,1.1e-5 -1.6749,0.415354 -2.35876,1.24603 -0.68387,0.830695 -1.02581,2.038087 -1.0258,3.622178 z"
           style="font-size:23.73831177px;font-style:normal;font-weight:normal;text-align:start;text-anchor:start;fill:#ffffff;font-family:Arial"
           id="path3780" />
      </g>
      <g
         style="font-size:23.73831177px;font-style:normal;font-weight:normal;text-align:start;text-anchor:start;fill:#ffffff;font-family:Arial"
         id="text3592">
        <path
           d="m 387.5216,74.002872 2.24865,0.567958 c -0.47138,1.846832 -1.31945,3.255134 -2.54422,4.22491 -1.22479,0.969778 -2.72196,1.454666 -4.4915,1.454667 -1.83138,-10e-7 -3.32082,-0.372843 -4.46832,-1.118529 -1.14751,-0.745685 -2.0207,-1.825576 -2.61956,-3.239677 -0.59887,-1.414093 -0.8983,-2.932509 -0.8983,-4.555252 0,-1.769545 0.33807,-3.313075 1.01421,-4.630594 0.67614,-1.317492 1.63819,-2.318179 2.88615,-3.002062 1.24796,-0.68385 2.62149,-1.025783 4.12059,-1.025801 1.7,1.8e-5 3.12955,0.432747 4.28866,1.298189 1.15909,0.865475 1.96659,2.082525 2.42252,3.651157 l -2.21388,0.521593 c -0.39411,-1.236357 -0.96593,-2.136588 -1.71546,-2.700696 -0.74956,-0.564079 -1.6923,-0.846126 -2.8282,-0.846141 -1.30593,1.5e-5 -2.39741,0.312971 -3.27445,0.938868 -0.87706,0.625927 -1.49331,1.466271 -1.84876,2.521037 -0.35546,1.054789 -0.53319,2.142408 -0.53319,3.262859 0,1.445015 0.21057,2.706498 0.63171,3.784452 0.42114,1.077965 1.07603,1.883536 1.96467,2.416718 0.88864,0.533187 1.85069,0.799779 2.88615,0.799777 1.25955,2e-6 2.32591,-0.363182 3.19911,-1.089551 0.87318,-0.726364 1.46432,-1.804324 1.77342,-3.233882 z"
           style="font-size:23.73831177px;font-style:normal;font-weight:normal;text-align:start;text-anchor:start;fill:#ffffff;font-family:Arial"
           id="path3783" />
        <path
           d="m 391.5089,73.805826 c 0,-2.27955 0.63364,-3.967966 1.90092,-5.065255 1.05863,-0.911811 2.3491,-1.367722 3.87138,-1.367735 1.69227,1.3e-5 3.07546,0.554447 4.14957,1.663305 1.07408,1.108879 1.61113,2.640818 1.61114,4.59582 -10e-6,1.584105 -0.23762,2.830133 -0.71284,3.738089 -0.47524,0.907961 -1.16684,1.613078 -2.07478,2.115352 -0.90797,0.502276 -1.899,0.753413 -2.97309,0.753414 -1.72319,-10e-7 -3.11604,-0.552503 -4.17854,-1.657509 -1.06251,-1.105004 -1.59376,-2.696829 -1.59376,-4.775481 z m 2.14433,0 c -1e-5,1.576377 0.34386,2.756723 1.03159,3.541042 0.68773,0.784324 1.55319,1.176485 2.59638,1.176484 1.03545,10e-7 1.89705,-0.394092 2.58479,-1.182279 0.68772,-0.788183 1.03158,-1.989779 1.03159,-3.604793 -1e-5,-1.522273 -0.3458,-2.675574 -1.03739,-3.459905 -0.6916,-0.784312 -1.55126,-1.176473 -2.57899,-1.176484 -1.04319,1.1e-5 -1.90865,0.39024 -2.59638,1.170688 -0.68773,0.780468 -1.0316,1.958882 -1.03159,3.535247 z"
           style="font-size:23.73831177px;font-style:normal;font-weight:normal;text-align:start;text-anchor:start;fill:#ffffff;font-family:Arial"
           id="path3785" />
        <path
           d="m 405.4992,79.960632 0,-12.309613 1.86615,0 0,1.727055 c 0.38636,-0.602719 0.90023,-1.087608 1.5416,-1.454667 0.64136,-0.367035 1.37159,-0.550558 2.19069,-0.550571 0.91182,1.3e-5 1.65943,0.189332 2.24285,0.567958 0.58341,0.37865 0.99489,0.90797 1.23444,1.587963 0.97363,-1.437269 2.24091,-2.155908 3.80184,-2.155921 1.2209,1.3e-5 2.15977,0.338082 2.81661,1.01421 0.6568,0.676151 0.98521,1.717406 0.98523,3.123767 l 0,8.449819 -2.07478,0 0,-7.75436 c -2e-5,-0.834542 -0.0676,-1.43534 -0.20285,-1.802397 -0.13524,-0.367037 -0.38058,-0.662607 -0.73602,-0.886709 -0.35547,-0.224081 -0.77275,-0.336127 -1.25183,-0.336138 -0.86547,1.1e-5 -1.58411,0.287853 -2.15592,0.863527 -0.57183,0.575695 -0.85774,1.497176 -0.85773,2.764447 l 0,7.15163 -2.08638,0 0,-7.997771 c 0,-0.927269 -0.17001,-1.622726 -0.51,-2.086375 -0.34001,-0.463628 -0.89637,-0.695447 -1.6691,-0.695458 -0.58728,1.1e-5 -1.13012,0.154557 -1.62853,0.463639 -0.49842,0.309102 -0.85967,0.76115 -1.08376,1.356144 -0.22409,0.595011 -0.33614,1.452742 -0.33613,2.573195 l 0,6.386626 z"
           style="font-size:23.73831177px;font-style:normal;font-weight:normal;text-align:start;text-anchor:start;fill:#ffffff;font-family:Arial"
           id="path3787" />
        <path
           d="m 425.29658,84.678158 0,-17.027139 1.90092,0 0,1.599555 c 0.44818,-0.625901 0.95432,-1.095335 1.51842,-1.408303 0.56409,-0.312944 1.24795,-0.469422 2.0516,-0.469435 1.05091,1.3e-5 1.97818,0.270468 2.78183,0.811368 0.80363,0.540924 1.41023,1.303995 1.81979,2.289217 0.40953,0.985241 0.61431,2.065133 0.61432,3.239677 -10e-6,1.259557 -0.22604,2.39354 -0.67807,3.401951 -0.45206,1.008416 -1.10888,1.781147 -1.97047,2.318194 -0.8616,0.537048 -1.76763,0.805572 -2.71808,0.805573 -0.69547,-10e-7 -1.31945,-0.146819 -1.87194,-0.440457 -0.55251,-0.293638 -1.00649,-0.664549 -1.36194,-1.112734 l 0,5.992533 z m 1.88933,-10.802786 c 0,1.584104 0.32068,2.754791 0.96205,3.512064 0.64136,0.757279 1.41796,1.135917 2.32979,1.135916 0.92727,10e-7 1.72125,-0.39216 2.38194,-1.176484 0.66068,-0.784319 0.99102,-1.999438 0.99103,-3.645361 -1e-5,-1.568637 -0.32263,-2.743188 -0.96785,-3.523656 -0.64524,-0.780448 -1.41604,-1.170677 -2.3124,-1.170688 -0.88864,1.1e-5 -1.6749,0.415354 -2.35876,1.24603 -0.68387,0.830695 -1.0258,2.038087 -1.0258,3.622179 z"
           style="font-size:23.73831177px;font-style:normal;font-weight:normal;text-align:start;text-anchor:start;fill:#ffffff;font-family:Arial"
           id="path3789" />
        <path
           d="m 437.7337,73.805826 c 0,-2.27955 0.63364,-3.967966 1.90092,-5.065255 1.05863,-0.911811 2.3491,-1.367722 3.87138,-1.367735 1.69228,1.3e-5 3.07546,0.554447 4.14957,1.663305 1.07408,1.108879 1.61113,2.640818 1.61114,4.59582 -10e-6,1.584105 -0.23762,2.830133 -0.71284,3.738089 -0.47524,0.907961 -1.16684,1.613078 -2.07478,2.115352 -0.90797,0.502276 -1.899,0.753413 -2.97309,0.753414 -1.72319,-10e-7 -3.11604,-0.552503 -4.17854,-1.657509 -1.06251,-1.105004 -1.59376,-2.696829 -1.59376,-4.775481 z m 2.14433,0 c -1e-5,1.576377 0.34386,2.756723 1.03159,3.541042 0.68773,0.784324 1.55319,1.176485 2.59638,1.176484 1.03545,10e-7 1.89705,-0.394092 2.58479,-1.182279 0.68772,-0.788183 1.03158,-1.989779 1.03159,-3.604793 -1e-5,-1.522273 -0.3458,-2.675574 -1.03739,-3.459905 -0.6916,-0.784312 -1.55126,-1.176473 -2.57899,-1.176484 -1.04319,1.1e-5 -1.90865,0.39024 -2.59638,1.170688 -0.68773,0.780468 -1.0316,1.958882 -1.03159,3.535247 z"
           style="font-size:23.73831177px;font-style:normal;font-weight:normal;text-align:start;text-anchor:start;fill:#ffffff;font-family:Arial"
           id="path3791" />
        <path
           d="m 451.724,79.960632 0,-12.309613 1.87774,0 0,1.750237 c 0.90409,-1.352268 2.21,-2.028407 3.91775,-2.02842 0.74181,1.3e-5 1.42374,0.133309 2.0458,0.399889 0.62204,0.266604 1.08761,0.616265 1.39671,1.048983 0.30909,0.43274 0.52545,0.946606 0.6491,1.541599 0.0773,0.386375 0.1159,1.062514 0.11591,2.02842 l 0,7.568905 -2.08638,0 0,-7.487768 c -10e-6,-0.849996 -0.0811,-1.485567 -0.24341,-1.906715 -0.16228,-0.421129 -0.45012,-0.757267 -0.86352,-1.008415 -0.41342,-0.251127 -0.89831,-0.376695 -1.45467,-0.376706 -0.88865,1.1e-5 -1.65558,0.282057 -2.30081,0.846141 -0.64523,0.564103 -0.96785,1.634335 -0.96785,3.210699 l 0,6.722764 z"
           style="font-size:23.73831177px;font-style:normal;font-weight:normal;text-align:start;text-anchor:start;fill:#ffffff;font-family:Arial"
           id="path3793" />
        <path
           d="m 473.36434,75.99652 2.15592,0.266592 c -0.34001,1.259555 -0.96979,2.237059 -1.88932,2.932516 -0.91956,0.695459 -2.09412,1.043187 -3.52366,1.043188 -1.80047,-10e-7 -3.22809,-0.554435 -4.28286,-1.663305 -1.05478,-1.108867 -1.58217,-2.663988 -1.58217,-4.665366 0,-2.070913 0.53318,-3.678193 1.59955,-4.821845 1.06637,-1.143631 2.44956,-1.715451 4.14957,-1.715464 1.64591,1.3e-5 2.99046,0.560243 4.03366,1.680691 1.04317,1.120471 1.56477,2.696841 1.56478,4.729117 -10e-6,0.123643 -0.004,0.309098 -0.0116,0.556367 l -9.18005,0 c 0.0773,1.352284 0.45977,2.387743 1.1475,3.10638 0.68773,0.718642 1.54546,1.077962 2.5732,1.077961 0.765,10e-7 1.41795,-0.200909 1.95888,-0.602731 0.5409,-0.401818 0.96976,-1.043184 1.28659,-1.924101 z m -6.85026,-3.372973 6.87345,0 c -0.0927,-1.035452 -0.35547,-1.812047 -0.78819,-2.329786 -0.66456,-0.80363 -1.52615,-1.20545 -2.58479,-1.205461 -0.95819,1.1e-5 -1.76376,0.320694 -2.41672,0.962051 -0.65296,0.641376 -1.01421,1.499107 -1.08375,2.573196 z"
           style="font-size:23.73831177px;font-style:normal;font-weight:normal;text-align:start;text-anchor:start;fill:#ffffff;font-family:Arial"
           id="path3795" />
        <path
           d="m 478.15142,79.960632 0,-12.309613 1.87774,0 0,1.750237 c 0.90409,-1.352268 2.21,-2.028407 3.91775,-2.02842 0.74181,1.3e-5 1.42375,0.133309 2.0458,0.399889 0.62204,0.266604 1.08761,0.616265 1.39672,1.048983 0.30908,0.43274 0.52544,0.946606 0.64909,1.541599 0.0773,0.386375 0.1159,1.062514 0.11591,2.02842 l 0,7.568905 -2.08638,0 0,-7.487768 c 0,-0.849996 -0.0811,-1.485567 -0.24341,-1.906715 -0.16228,-0.421129 -0.45012,-0.757267 -0.86352,-1.008415 -0.41342,-0.251127 -0.89831,-0.376695 -1.45467,-0.376706 -0.88865,1.1e-5 -1.65558,0.282057 -2.30081,0.846141 -0.64523,0.564103 -0.96785,1.634335 -0.96784,3.210699 l 0,6.722764 z"
           style="font-size:23.73831177px;font-style:normal;font-weight:normal;text-align:start;text-anchor:start;fill:#ffffff;font-family:Arial"
           id="path3797" />
        <path
           d="m 495.92038,78.094486 0.30137,1.842964 c -0.58729,0.123637 -1.11274,0.185456 -1.57638,0.185456 -0.75728,0 -1.34455,-0.119773 -1.76182,-0.35932 -0.41728,-0.239547 -0.71092,-0.554434 -0.88092,-0.944664 -0.17,-0.390228 -0.255,-1.211255 -0.255,-2.463082 l 0,-7.082084 -1.53001,0 0,-1.622737 1.53001,0 0,-3.048425 2.07478,-1.251825 0,4.30025 2.09797,0 0,1.622737 -2.09797,0 0,7.197994 c 0,0.595006 0.0367,0.977507 0.11012,1.147506 0.0734,0.170003 0.19318,0.305231 0.35932,0.405684 0.16613,0.100457 0.40375,0.150684 0.71284,0.150683 0.23182,10e-7 0.53705,-0.02704 0.91569,-0.08114 z"
           style="font-size:23.73831177px;font-style:normal;font-weight:normal;text-align:start;text-anchor:start;fill:#ffffff;font-family:Arial"
           id="path3799" />
      </g>
      <path
         id="path3594"
         d="M 218.56427,145.39717 364.97656,58.48683"
         style="fill:none;stroke:#000000;stroke-width:3.59198141px;stroke-linecap:round;stroke-linejoin:round;stroke-opacity:1;stroke-dasharray:none"
         inkscape:connector-curvature="0" />
      <path
         id="path3596"
         d="m 334.28854,459.85172 c 13.04046,0 23.58214,-10.54168 23.58214,-23.58214 l 0,0 0,-62.31307 c 0,-13.04045 -10.54168,-23.66022 -23.58214,-23.66022 l 0,0 -89.72145,0 c -13.04045,0 -23.66023,10.61977 -23.66023,23.66022 l 0,0 0,62.31307 c 0,13.04046 10.61978,23.58214 23.66023,23.58214 l 0,0 89.72145,0 z"
         style="fill:#595959;fill-opacity:1;fill-rule:evenodd;stroke:none"
         inkscape:connector-curvature="0" />
      <path
         id="path3598"
         d="m 334.28854,459.85172 c 13.04046,0 23.58214,-10.54168 23.58214,-23.58214 l 0,0 0,-62.31307 c 0,-13.04045 -10.54168,-23.66022 -23.58214,-23.66022 l 0,0 -89.72145,0 c -13.04045,0 -23.66023,10.61977 -23.66023,23.66022 l 0,0 0,62.31307 c 0,13.04046 10.61978,23.58214 23.66023,23.58214 l 0,0 89.72145,0 z"
         style="fill:none;stroke:#000000;stroke-width:3.59198141px;stroke-linecap:round;stroke-linejoin:round;stroke-opacity:1;stroke-dasharray:none"
         inkscape:connector-curvature="0" />
      <g
         style="font-size:23.73831177px;font-style:normal;font-weight:normal;text-align:start;text-anchor:start;fill:#ffffff;font-family:Arial"
         id="text3600">
        <path
           d="m 268.58296,398.55377 6.52572,-16.99236 2.42251,0 6.95459,16.99236 -2.56161,0 -1.98205,-5.14639 -7.10527,0 -1.86615,5.14639 z m 4.90299,-6.97776 5.76071,0 -1.77342,-4.70594 c -0.54092,-1.42954 -0.94274,-2.60409 -1.20546,-3.52365 -0.21637,1.08956 -0.5216,2.17138 -0.91569,3.24547 z"
           style="font-size:23.73831177px;font-style:normal;font-weight:normal;text-align:start;text-anchor:start;fill:#ffffff;font-family:Arial"
           id="path3802" />
        <path
           d="m 286.03897,403.2713 0,-17.02714 1.90092,0 0,1.59955 c 0.44818,-0.6259 0.95432,-1.09533 1.51842,-1.4083 0.56408,-0.31294 1.24795,-0.46942 2.0516,-0.46943 1.0509,10e-6 1.97818,0.27046 2.78183,0.81136 0.80363,0.54093 1.41022,1.304 1.81978,2.28922 0.40954,0.98524 0.61431,2.06513 0.61432,3.23968 -1e-5,1.25956 -0.22603,2.39354 -0.67807,3.40195 -0.45206,1.00841 -1.10888,1.78115 -1.97046,2.31819 -0.86161,0.53705 -1.76763,0.80558 -2.71809,0.80558 -0.69546,0 -1.31944,-0.14682 -1.87194,-0.44046 -0.5525,-0.29364 -1.00648,-0.66455 -1.36194,-1.11274 l 0,5.99254 z m 1.88933,-10.80279 c -10e-6,1.58411 0.32068,2.75479 0.96205,3.51207 0.64136,0.75727 1.41795,1.13591 2.32978,1.13591 0.92727,0 1.72125,-0.39216 2.38195,-1.17648 0.66067,-0.78432 0.99102,-1.99944 0.99103,-3.64536 -1e-5,-1.56864 -0.32263,-2.74319 -0.96785,-3.52366 -0.64524,-0.78045 -1.41604,-1.17068 -2.3124,-1.17069 -0.88865,10e-6 -1.6749,0.41536 -2.35876,1.24603 -0.68387,0.8307 -1.02581,2.03809 -1.0258,3.62218 z"
           style="font-size:23.73831177px;font-style:normal;font-weight:normal;text-align:start;text-anchor:start;fill:#ffffff;font-family:Arial"
           id="path3804" />
        <path
           d="m 299.25268,403.2713 0,-17.02714 1.90092,0 0,1.59955 c 0.44818,-0.6259 0.95432,-1.09533 1.51841,-1.4083 0.56409,-0.31294 1.24796,-0.46942 2.05161,-0.46943 1.0509,10e-6 1.97818,0.27046 2.78183,0.81136 0.80363,0.54093 1.41022,1.304 1.81978,2.28922 0.40954,0.98524 0.61431,2.06513 0.61432,3.23968 -10e-6,1.25956 -0.22603,2.39354 -0.67807,3.40195 -0.45206,1.00841 -1.10888,1.78115 -1.97046,2.31819 -0.86161,0.53705 -1.76763,0.80558 -2.71809,0.80558 -0.69546,0 -1.31944,-0.14682 -1.87194,-0.44046 -0.55251,-0.29364 -1.00648,-0.66455 -1.36194,-1.11274 l 0,5.99254 z m 1.88933,-10.80279 c -1e-5,1.58411 0.32068,2.75479 0.96205,3.51207 0.64136,0.75727 1.41795,1.13591 2.32978,1.13591 0.92727,0 1.72125,-0.39216 2.38195,-1.17648 0.66067,-0.78432 0.99102,-1.99944 0.99103,-3.64536 -1e-5,-1.56864 -0.32263,-2.74319 -0.96785,-3.52366 -0.64524,-0.78045 -1.41604,-1.17068 -2.3124,-1.17069 -0.88865,10e-6 -1.6749,0.41536 -2.35876,1.24603 -0.68387,0.8307 -1.02581,2.03809 -1.0258,3.62218 z"
           style="font-size:23.73831177px;font-style:normal;font-weight:normal;text-align:start;text-anchor:start;fill:#ffffff;font-family:Arial"
           id="path3806" />
      </g>
      <g
         style="font-size:23.73831177px;font-style:normal;font-weight:normal;text-align:start;text-anchor:start;fill:#ffffff;font-family:Arial"
         id="text3602">
        <path
           d="m 242.59297,420.08249 2.24865,0.56796 c -0.47139,1.84683 -1.31946,3.25513 -2.54422,4.22491 -1.22479,0.96978 -2.72196,1.45467 -4.4915,1.45467 -1.83139,0 -3.32082,-0.37285 -4.46832,-1.11853 -1.14751,-0.74569 -2.0207,-1.82558 -2.61956,-3.23968 -0.59887,-1.41409 -0.89831,-2.93251 -0.8983,-4.55525 -1e-5,-1.76955 0.33806,-3.31308 1.01421,-4.63059 0.67613,-1.3175 1.63818,-2.31818 2.88615,-3.00207 1.24795,-0.68385 2.62148,-1.02578 4.12059,-1.0258 1.7,2e-5 3.12955,0.43275 4.28866,1.29819 1.15908,0.86548 1.96658,2.08253 2.42251,3.65116 l -2.21387,0.52159 c -0.39411,-1.23636 -0.96593,-2.13659 -1.71547,-2.70069 -0.74956,-0.56408 -1.69229,-0.84613 -2.8282,-0.84615 -1.30592,2e-5 -2.3974,0.31298 -3.27445,0.93887 -0.87705,0.62593 -1.4933,1.46627 -1.84876,2.52104 -0.35546,1.05479 -0.53318,2.14241 -0.53318,3.26286 0,1.44501 0.21057,2.7065 0.63171,3.78445 0.42113,1.07796 1.07602,1.88354 1.96467,2.41672 0.88863,0.53319 1.85068,0.79978 2.88615,0.79978 1.25954,0 2.32591,-0.36319 3.19911,-1.08956 0.87317,-0.72636 1.46431,-1.80432 1.77342,-3.23388 z"
           style="font-size:23.73831177px;font-style:normal;font-weight:normal;text-align:start;text-anchor:start;fill:#ffffff;font-family:Arial"
           id="path3809" />
        <path
           d="m 246.58026,419.88545 c 0,-2.27955 0.63364,-3.96797 1.90092,-5.06526 1.05864,-0.91181 2.3491,-1.36772 3.87139,-1.36773 1.69227,1e-5 3.07546,0.55444 4.14956,1.6633 1.07409,1.10888 1.61114,2.64082 1.61115,4.59582 -10e-6,1.58411 -0.23763,2.83013 -0.71284,3.73809 -0.47525,0.90796 -1.16684,1.61308 -2.07479,2.11535 -0.90797,0.50228 -1.89899,0.75342 -2.97308,0.75342 -1.7232,0 -3.11605,-0.55251 -4.17855,-1.65751 -1.06251,-1.10501 -1.59376,-2.69683 -1.59376,-4.77548 z m 2.14433,0 c 0,1.57637 0.34386,2.75672 1.0316,3.54104 0.68773,0.78432 1.55318,1.17648 2.59638,1.17648 1.03545,0 1.89704,-0.39409 2.58478,-1.18228 0.68772,-0.78818 1.03159,-1.98978 1.0316,-3.60479 -1e-5,-1.52227 -0.34581,-2.67557 -1.03739,-3.4599 -0.69161,-0.78432 -1.55127,-1.17648 -2.57899,-1.17649 -1.0432,1e-5 -1.90865,0.39024 -2.59638,1.17069 -0.68774,0.78047 -1.0316,1.95888 -1.0316,3.53525 z"
           style="font-size:23.73831177px;font-style:normal;font-weight:normal;text-align:start;text-anchor:start;fill:#ffffff;font-family:Arial"
           id="path3811" />
        <path
           d="m 260.57057,426.04025 0,-12.30961 1.86614,0 0,1.72705 c 0.38636,-0.60271 0.90023,-1.0876 1.5416,-1.45466 0.64136,-0.36704 1.37159,-0.55056 2.1907,-0.55057 0.91181,1e-5 1.65943,0.18933 2.24285,0.56795 0.5834,0.37865 0.99488,0.90797 1.23444,1.58797 0.97363,-1.43727 2.24091,-2.15591 3.80184,-2.15592 1.2209,1e-5 2.15976,0.33808 2.8166,1.01421 0.65681,0.67615 0.98522,1.7174 0.98524,3.12376 l 0,8.44982 -2.07479,0 0,-7.75436 c -10e-6,-0.83454 -0.0676,-1.43534 -0.20284,-1.80239 -0.13524,-0.36704 -0.38059,-0.66261 -0.73603,-0.88671 -0.35547,-0.22409 -0.77274,-0.33613 -1.25182,-0.33614 -0.86547,10e-6 -1.58411,0.28785 -2.15592,0.86353 -0.57184,0.57569 -0.85775,1.49717 -0.85773,2.76444 l 0,7.15163 -2.08638,0 0,-7.99777 c -1e-5,-0.92727 -0.17001,-1.62272 -0.51,-2.08637 -0.34001,-0.46363 -0.89638,-0.69545 -1.6691,-0.69546 -0.58728,10e-6 -1.13013,0.15456 -1.62853,0.46364 -0.49842,0.3091 -0.85967,0.76115 -1.08376,1.35614 -0.2241,0.59501 -0.33614,1.45274 -0.33614,2.5732 l 0,6.38662 z"
           style="font-size:23.73831177px;font-style:normal;font-weight:normal;text-align:start;text-anchor:start;fill:#ffffff;font-family:Arial"
           id="path3813" />
        <path
           d="m 280.36795,430.75778 0,-17.02714 1.90092,0 0,1.59955 c 0.44818,-0.6259 0.95432,-1.09533 1.51841,-1.4083 0.56409,-0.31294 1.24796,-0.46942 2.05161,-0.46943 1.0509,1e-5 1.97818,0.27046 2.78183,0.81136 0.80363,0.54093 1.41022,1.304 1.81978,2.28922 0.40954,0.98524 0.61431,2.06513 0.61432,3.23968 -1e-5,1.25956 -0.22603,2.39354 -0.67807,3.40195 -0.45206,1.00842 -1.10888,1.78115 -1.97046,2.31819 -0.86161,0.53705 -1.76763,0.80558 -2.71809,0.80558 -0.69546,0 -1.31944,-0.14682 -1.87194,-0.44046 -0.55251,-0.29364 -1.00649,-0.66455 -1.36194,-1.11273 l 0,5.99253 z m 1.88933,-10.80279 c -10e-6,1.58411 0.32068,2.75479 0.96205,3.51207 0.64136,0.75728 1.41795,1.13591 2.32978,1.13591 0.92727,0 1.72125,-0.39216 2.38195,-1.17648 0.66067,-0.78432 0.99101,-1.99944 0.99102,-3.64536 -10e-6,-1.56864 -0.32262,-2.74319 -0.96784,-3.52366 -0.64524,-0.78045 -1.41604,-1.17068 -2.3124,-1.17069 -0.88865,1e-5 -1.6749,0.41536 -2.35876,1.24603 -0.68387,0.8307 -1.02581,2.03809 -1.0258,3.62218 z"
           style="font-size:23.73831177px;font-style:normal;font-weight:normal;text-align:start;text-anchor:start;fill:#ffffff;font-family:Arial"
           id="path3815" />
        <path
           d="m 292.80506,419.88545 c 0,-2.27955 0.63364,-3.96797 1.90092,-5.06526 1.05864,-0.91181 2.3491,-1.36772 3.87139,-1.36773 1.69227,1e-5 3.07546,0.55444 4.14956,1.6633 1.07409,1.10888 1.61114,2.64082 1.61115,4.59582 -10e-6,1.58411 -0.23763,2.83013 -0.71284,3.73809 -0.47525,0.90796 -1.16684,1.61308 -2.07479,2.11535 -0.90797,0.50228 -1.89899,0.75342 -2.97308,0.75342 -1.7232,0 -3.11605,-0.55251 -4.17855,-1.65751 -1.06251,-1.10501 -1.59376,-2.69683 -1.59376,-4.77548 z m 2.14433,0 c 0,1.57637 0.34386,2.75672 1.0316,3.54104 0.68773,0.78432 1.55318,1.17648 2.59638,1.17648 1.03545,0 1.89704,-0.39409 2.58478,-1.18228 0.68772,-0.78818 1.03159,-1.98978 1.0316,-3.60479 -1e-5,-1.52227 -0.34581,-2.67557 -1.03739,-3.4599 -0.69161,-0.78432 -1.55127,-1.17648 -2.57899,-1.17649 -1.0432,1e-5 -1.90865,0.39024 -2.59638,1.17069 -0.68774,0.78047 -1.0316,1.95888 -1.0316,3.53525 z"
           style="font-size:23.73831177px;font-style:normal;font-weight:normal;text-align:start;text-anchor:start;fill:#ffffff;font-family:Arial"
           id="path3817" />
        <path
           d="m 306.79536,426.04025 0,-12.30961 1.87774,0 0,1.75024 c 0.90409,-1.35227 2.21001,-2.02841 3.91775,-2.02842 0.74181,1e-5 1.42375,0.13331 2.04581,0.39989 0.62204,0.2666 1.08761,0.61626 1.39671,1.04898 0.30908,0.43274 0.52545,0.9466 0.64909,1.5416 0.0773,0.38637 0.1159,1.06251 0.11591,2.02842 l 0,7.5689 -2.08637,0 0,-7.48777 c -10e-6,-0.84999 -0.0811,-1.48556 -0.24341,-1.90671 -0.16228,-0.42113 -0.45013,-0.75727 -0.86353,-1.00842 -0.41342,-0.25112 -0.89831,-0.37669 -1.45467,-0.3767 -0.88864,10e-6 -1.65558,0.28206 -2.3008,0.84614 -0.64524,0.5641 -0.96785,1.63433 -0.96785,3.2107 l 0,6.72276 z"
           style="font-size:23.73831177px;font-style:normal;font-weight:normal;text-align:start;text-anchor:start;fill:#ffffff;font-family:Arial"
           id="path3819" />
        <path
           d="m 328.43571,422.07614 2.15592,0.26659 c -0.34001,1.25956 -0.96979,2.23706 -1.88933,2.93252 -0.91956,0.69546 -2.09411,1.04319 -3.52365,1.04319 -1.80047,0 -3.22809,-0.55444 -4.28287,-1.66331 -1.05478,-1.10887 -1.58217,-2.66399 -1.58217,-4.66536 0,-2.07092 0.53319,-3.6782 1.59956,-4.82185 1.06636,-1.14363 2.44955,-1.71545 4.14957,-1.71546 1.64591,1e-5 2.99046,0.56024 4.03365,1.68069 1.04318,1.12047 1.56477,2.69684 1.56479,4.72911 -2e-5,0.12365 -0.004,0.3091 -0.0116,0.55637 l -9.18005,0 c 0.0773,1.35229 0.45978,2.38774 1.14751,3.10638 0.68773,0.71864 1.54546,1.07796 2.5732,1.07796 0.76499,0 1.41795,-0.20091 1.95887,-0.60273 0.5409,-0.40182 0.96977,-1.04318 1.2866,-1.9241 z m -6.85027,-3.37297 6.87345,0 c -0.0927,-1.03545 -0.35547,-1.81205 -0.78819,-2.32979 -0.66455,-0.80363 -1.52615,-1.20545 -2.58478,-1.20546 -0.9582,1e-5 -1.76377,0.32069 -2.41672,0.96205 -0.65296,0.64138 -1.01421,1.49911 -1.08376,2.5732 z"
           style="font-size:23.73831177px;font-style:normal;font-weight:normal;text-align:start;text-anchor:start;fill:#ffffff;font-family:Arial"
           id="path3821" />
        <path
           d="m 333.22279,426.04025 0,-12.30961 1.87773,0 0,1.75024 c 0.9041,-1.35227 2.21001,-2.02841 3.91775,-2.02842 0.74182,1e-5 1.42375,0.13331 2.04581,0.39989 0.62204,0.2666 1.08761,0.61626 1.39671,1.04898 0.30908,0.43274 0.52545,0.9466 0.6491,1.5416 0.0773,0.38637 0.11589,1.06251 0.11591,2.02842 l 0,7.5689 -2.08638,0 0,-7.48777 c -10e-6,-0.84999 -0.0811,-1.48556 -0.24341,-1.90671 -0.16228,-0.42113 -0.45013,-0.75727 -0.86353,-1.00842 -0.41342,-0.25112 -0.89831,-0.37669 -1.45466,-0.3767 -0.88865,10e-6 -1.65559,0.28206 -2.30081,0.84614 -0.64524,0.5641 -0.96785,1.63433 -0.96785,3.2107 l 0,6.72276 z"
           style="font-size:23.73831177px;font-style:normal;font-weight:normal;text-align:start;text-anchor:start;fill:#ffffff;font-family:Arial"
           id="path3823" />
        <path
           d="m 350.99175,424.17411 0.30136,1.84296 c -0.58728,0.12364 -1.11274,0.18546 -1.57637,0.18546 -0.75728,0 -1.34456,-0.11978 -1.76183,-0.35932 -0.41728,-0.23955 -0.71091,-0.55444 -0.88091,-0.94467 -0.17001,-0.39023 -0.25501,-1.21125 -0.255,-2.46308 l 0,-7.08208 -1.53001,0 0,-1.62274 1.53001,0 0,-3.04843 2.07478,-1.25182 0,4.30025 2.09797,0 0,1.62274 -2.09797,0 0,7.19799 c 0,0.59501 0.0367,0.97751 0.11011,1.14751 0.0734,0.17 0.19318,0.30523 0.35932,0.40568 0.16614,0.10046 0.40375,0.15068 0.71285,0.15068 0.23181,0 0.53704,-0.027 0.91569,-0.0811 z"
           style="font-size:23.73831177px;font-style:normal;font-weight:normal;text-align:start;text-anchor:start;fill:#ffffff;font-family:Arial"
           id="path3825" />
      </g>
      <path
         id="path3604"
         d="m 178.42778,256.35816 110.96099,93.93813"
         style="fill:none;stroke:#000000;stroke-width:3.59198141px;stroke-linecap:round;stroke-linejoin:round;stroke-opacity:1;stroke-dasharray:none"
         inkscape:connector-curvature="0" />
      <path
         id="path3606"
         d="M 338.97374,220.90686 248.08099,193.26422"
         style="fill:none;stroke:#3475cd;stroke-width:5.23179913px;stroke-linecap:round;stroke-linejoin:round;stroke-opacity:1;stroke-dasharray:none"
         inkscape:connector-curvature="0" />
      <path
         id="path3608"
         d="m 247.53438,204.19634 -17.17904,-16.32009 23.34788,-3.98241 -6.16884,20.3025 z"
         style="fill:#3475cd;fill-opacity:1;fill-rule:evenodd;stroke:none"
         inkscape:connector-curvature="0" />
      <path
         id="path3610"
         d="m 240.27233,178.81821 95.49986,29.0482 8.121,-26.78369 -95.42177,-29.0482 -8.19909,26.78369 z"
         style="fill:#ffffff;fill-opacity:1;fill-rule:evenodd;stroke:none"
         inkscape:connector-curvature="0" />
      <g
         transform="matrix(0.95630476,0.2923717,-0.2923717,0.95630476,61.000182,-63.331529)"
         style="font-size:23.73831177px;font-style:normal;font-weight:normal;text-align:start;text-anchor:start;fill:#3475cd;font-family:Arial"
         id="text3612">
        <path
           d="m 243.11091,168.74078 2.06319,-0.32455 c 0.11591,0.82683 0.43852,1.46046 0.96785,1.90092 0.52931,0.44046 1.2692,0.66069 2.21967,0.66068 0.95818,10e-6 1.66909,-0.19511 2.13274,-0.58534 0.46363,-0.39023 0.69545,-0.84807 0.69546,-1.37353 -1e-5,-0.47136 -0.20479,-0.84227 -0.61433,-1.11273 -0.28591,-0.18545 -0.99683,-0.42114 -2.13274,-0.70705 -1.53001,-0.38636 -2.59058,-0.72057 -3.18172,-1.00262 -0.59114,-0.28204 -1.03932,-0.67227 -1.34455,-1.17069 -0.30523,-0.4984 -0.45784,-1.04897 -0.45784,-1.65171 0,-0.54863 0.12556,-1.0567 0.3767,-1.52422 0.25114,-0.46749 0.59307,-0.85578 1.0258,-1.16489 0.32455,-0.23953 0.76694,-0.44238 1.32717,-0.60852 0.56023,-0.16613 1.16102,-0.2492 1.8024,-0.24921 0.9659,1e-5 1.81398,0.1391 2.54422,0.41727 0.73022,0.2782 1.2692,0.65491 1.61694,1.13012 0.34772,0.47524 0.58726,1.11082 0.71864,1.90672 l -2.04001,0.27818 c -0.0927,-0.63363 -0.36126,-1.12818 -0.80558,-1.48364 -0.44433,-0.35545 -1.07217,-0.53318 -1.88353,-0.53319 -0.95819,1e-5 -1.64206,0.15842 -2.0516,0.47523 -0.40955,0.31683 -0.61433,0.68774 -0.61432,1.11274 -1e-5,0.27046 0.085,0.51387 0.255,0.73023 0.16999,0.2241 0.43659,0.40955 0.79977,0.55636 0.20864,0.0773 0.82296,0.25501 1.84297,0.53319 1.47591,0.3941 2.50557,0.71671 3.08899,0.96785 0.58341,0.25114 1.04125,0.61625 1.37353,1.09534 0.33227,0.4791 0.4984,1.0741 0.49842,1.78501 -2e-5,0.69546 -0.20286,1.35035 -0.60853,1.96467 -0.40569,0.61432 -0.99104,1.08955 -1.75603,1.42569 -0.76502,0.33614 -1.63047,0.50421 -2.59638,0.50421 -1.59956,0 -2.81854,-0.33228 -3.65695,-0.99682 -0.83842,-0.66455 -1.37353,-1.64978 -1.60535,-2.9557 z"
           style="font-size:23.73831177px;font-style:normal;font-weight:normal;text-align:start;text-anchor:start;fill:#3475cd;font-family:Arial"
           id="path3828" />
      </g>
      <g
         transform="matrix(0.95630476,0.2923717,-0.2923717,0.95630476,62.222081,-66.509907)"
         style="font-size:23.73831177px;font-style:normal;font-weight:normal;text-align:start;text-anchor:start;fill:#3475cd;font-family:Arial"
         id="text3614">
        <path
           d="m 263.25724,174.91388 0,-1.80819 c -0.9582,1.39091 -2.26025,2.08637 -3.90616,2.08637 -0.72637,0 -1.40445,-0.13909 -2.03422,-0.41727 -0.62978,-0.27819 -1.09728,-0.62785 -1.40251,-1.04899 -0.30523,-0.42113 -0.51966,-0.93693 -0.64329,-1.54739 -0.085,-0.40954 -0.12751,-1.05864 -0.12751,-1.94728 l 0,-7.62686 2.08638,0 0,6.82708 c 0,1.08956 0.0425,1.82365 0.1275,2.20228 0.13136,0.54865 0.40954,0.97944 0.83455,1.2924 0.425,0.31296 0.95045,0.46943 1.57637,0.46943 0.62591,0 1.21318,-0.16034 1.76183,-0.48102 0.54863,-0.32068 0.93693,-0.75728 1.16489,-1.30978 0.22795,-0.5525 0.34193,-1.35421 0.34194,-2.40513 l 0,-6.59526 2.08637,0 0,12.30961 z"
           style="font-size:23.73831177px;font-style:normal;font-weight:normal;text-align:start;text-anchor:start;fill:#3475cd;font-family:Arial"
           id="path3831" />
      </g>
      <g
         transform="matrix(0.95630476,0.2923717,-0.2923717,0.95630476,63.863859,-69.998978)"
         style="font-size:23.73831177px;font-style:normal;font-weight:normal;text-align:start;text-anchor:start;fill:#3475cd;font-family:Arial"
         id="text3616">
        <path
           d="m 269.60787,178.66203 -1.93569,0 0,-16.99236 2.08637,0 0,6.06208 c 0.88091,-1.105 2.00524,-1.6575 3.37298,-1.65751 0.75727,1e-5 1.47397,0.15262 2.15012,0.45784 0.67613,0.30524 1.2325,0.73411 1.6691,1.2866 0.43658,0.55251 0.77852,1.21899 1.0258,1.99944 0.24726,0.78047 0.3709,1.61502 0.37091,2.50365 -1e-5,2.10956 -0.5216,3.74002 -1.56478,4.89139 -1.04319,1.15137 -2.29502,1.72706 -3.75547,1.72706 -1.45274,0 -2.59252,-0.6066 -3.41934,-1.81979 z m -0.0232,-6.24753 c 0,1.47592 0.20091,2.54229 0.60273,3.19911 0.65682,1.0741 1.54546,1.61114 2.66592,1.61114 0.91182,0 1.7,-0.39602 2.36456,-1.18807 0.66454,-0.79205 0.99682,-1.97239 0.99683,-3.54104 -10e-6,-1.60728 -0.31877,-2.79342 -0.95626,-3.55843 -0.63751,-0.765 -1.40831,-1.1475 -2.3124,-1.14751 -0.91183,1e-5 -1.70001,0.39604 -2.36456,1.18808 -0.66455,0.79205 -0.99682,1.93763 -0.99682,3.43672 z"
           style="font-size:23.73831177px;font-style:normal;font-weight:normal;text-align:start;text-anchor:start;fill:#3475cd;font-family:Arial"
           id="path3834" />
      </g>
      <g
         transform="matrix(0.95630476,0.2923717,-0.2923717,0.95630476,65.505634,-73.48805)"
         style="font-size:23.73831177px;font-style:normal;font-weight:normal;text-align:start;text-anchor:start;fill:#3475cd;font-family:Arial"
         id="text3618">
        <path
           d="m 279.34305,178.73585 2.0632,-0.32455 c 0.1159,0.82683 0.43852,1.46047 0.96784,1.90092 0.52932,0.44046 1.26921,0.66069 2.21968,0.66069 0.95818,0 1.66909,-0.19512 2.13273,-0.58535 0.46363,-0.39022 0.69545,-0.84807 0.69546,-1.37353 -1e-5,-0.47136 -0.20478,-0.84227 -0.61432,-1.11273 -0.28592,-0.18545 -0.99683,-0.42114 -2.13274,-0.70705 -1.53001,-0.38636 -2.59058,-0.72057 -3.18172,-1.00262 -0.59114,-0.28204 -1.03933,-0.67227 -1.34455,-1.17069 -0.30523,-0.4984 -0.45785,-1.04897 -0.45785,-1.65171 0,-0.54863 0.12557,-1.0567 0.37671,-1.52421 0.25114,-0.4675 0.59307,-0.85579 1.0258,-1.1649 0.32455,-0.23953 0.76693,-0.44237 1.32717,-0.60852 0.56022,-0.16613 1.16102,-0.2492 1.80239,-0.24921 0.96591,10e-6 1.81398,0.1391 2.54422,0.41728 0.73023,0.27819 1.2692,0.6549 1.61694,1.13012 0.34772,0.47524 0.58727,1.11081 0.71864,1.90671 l -2.04001,0.27818 c -0.0927,-0.63363 -0.36126,-1.12817 -0.80557,-1.48364 -0.44433,-0.35545 -1.07217,-0.53317 -1.88353,-0.53319 -0.9582,2e-5 -1.64206,0.15843 -2.05161,0.47523 -0.40955,0.31683 -0.61432,0.68775 -0.61432,1.11274 0,0.27046 0.085,0.51387 0.255,0.73023 0.17,0.2241 0.43659,0.40955 0.79978,0.55637 0.20863,0.0773 0.82296,0.255 1.84297,0.53318 1.47591,0.3941 2.50557,0.71672 3.08899,0.96785 0.5834,0.25114 1.04125,0.61626 1.37353,1.09534 0.33226,0.4791 0.4984,1.0741 0.49841,1.78501 -10e-6,0.69546 -0.20285,1.35035 -0.60852,1.96467 -0.4057,0.61433 -0.99104,1.08956 -1.75604,1.42569 -0.76501,0.33614 -1.63047,0.50421 -2.59637,0.50421 -1.59956,0 -2.81855,-0.33227 -3.65696,-0.99682 -0.83841,-0.66455 -1.37353,-1.64978 -1.60535,-2.9557 z"
           style="font-size:23.73831177px;font-style:normal;font-weight:normal;text-align:start;text-anchor:start;fill:#3475cd;font-family:Arial"
           id="path3837" />
      </g>
      <g
         transform="matrix(0.95630476,0.2923717,-0.2923717,0.95630476,67.092819,-76.611835)"
         style="font-size:23.73831177px;font-style:normal;font-weight:normal;text-align:start;text-anchor:start;fill:#3475cd;font-family:Arial"
         id="text3620">
        <path
           d="m 299.45463,181.64947 2.0516,0.26659 c -0.22411,1.4141 -0.79786,2.52104 -1.72126,3.32081 -0.92343,0.79978 -2.05741,1.19967 -3.40195,1.19967 -1.68456,0 -3.03877,-0.55057 -4.06264,-1.65171 -1.02387,-1.10114 -1.5358,-2.67945 -1.5358,-4.73492 0,-1.32909 0.22022,-2.49205 0.66068,-3.48888 0.44046,-0.99681 1.1108,-1.74443 2.01104,-2.24285 0.90022,-0.4984 1.87966,-0.74761 2.93831,-0.74762 1.33682,1e-5 2.43023,0.33808 3.28024,1.01421 0.85,0.67615 1.39477,1.63627 1.63433,2.88036 l -2.02842,0.31295 c -0.19319,-0.82681 -0.53512,-1.44886 -1.0258,-1.86614 -0.49069,-0.41727 -1.08376,-0.62591 -1.77921,-0.62592 -1.05093,1e-5 -1.90479,0.37672 -2.56161,1.13012 -0.65682,0.75343 -0.98524,1.94536 -0.98523,3.57582 -10e-6,1.65365 0.31681,2.85524 0.95046,3.60479 0.63363,0.74955 1.46045,1.12433 2.48047,1.12433 0.81908,0 1.50295,-0.25114 2.0516,-0.75342 0.54863,-0.50227 0.89636,-1.275 1.04319,-2.31819 z"
           style="font-size:23.73831177px;font-style:normal;font-weight:normal;text-align:start;text-anchor:start;fill:#3475cd;font-family:Arial"
           id="path3840" />
      </g>
      <g
         transform="matrix(0.95630476,0.2923717,-0.2923717,0.95630476,68.680002,-79.735624)"
         style="font-size:23.73831177px;font-style:normal;font-weight:normal;text-align:start;text-anchor:start;fill:#3475cd;font-family:Arial"
         id="text3622">
        <path
           d="m 302.64334,189.90649 0,-12.30961 1.87774,0 0,1.86615 c 0.47909,-0.87318 0.92148,-1.44886 1.32717,-1.72706 0.40568,-0.27817 0.85193,-0.41726 1.33876,-0.41727 0.70318,1e-5 1.41795,0.2241 2.14433,0.67227 l -0.71864,1.9357 c -0.51001,-0.30136 -1.02002,-0.45204 -1.53001,-0.45205 -0.45592,1e-5 -0.86547,0.13717 -1.22865,0.41148 -0.36318,0.27433 -0.62205,0.6549 -0.77659,1.14171 -0.23182,0.74183 -0.34773,1.5532 -0.34773,2.4341 l 0,6.44458 z"
           style="font-size:23.73831177px;font-style:normal;font-weight:normal;text-align:start;text-anchor:start;fill:#3475cd;font-family:Arial"
           id="path3843" />
      </g>
      <g
         transform="matrix(0.95630476,0.2923717,-0.2923717,0.95630476,69.738125,-81.818149)"
         style="font-size:23.73831177px;font-style:normal;font-weight:normal;text-align:start;text-anchor:start;fill:#3475cd;font-family:Arial"
         id="text3624">
        <path
           d="m 310.17446,177.81224 0,-2.39933 2.08637,0 0,2.39933 z m 0,14.59303 0,-12.30961 2.08637,0 0,12.30961 z"
           style="font-size:23.73831177px;font-style:normal;font-weight:normal;text-align:start;text-anchor:start;fill:#3475cd;font-family:Arial"
           id="path3846" />
      </g>
      <g
         transform="matrix(0.95630476,0.2923717,-0.2923717,0.95630476,70.267187,-82.859409)"
         style="font-size:23.73831177px;font-style:normal;font-weight:normal;text-align:start;text-anchor:start;fill:#3475cd;font-family:Arial"
         id="text3626">
        <path
           d="m 315.8351,193.65466 -1.93569,0 0,-16.99236 2.08638,0 0,6.06208 c 0.88091,-1.105 2.00523,-1.6575 3.37297,-1.65751 0.75727,1e-5 1.47398,0.15262 2.15013,0.45784 0.67613,0.30524 1.23249,0.73411 1.6691,1.2866 0.43658,0.55251 0.77851,1.21899 1.0258,1.99944 0.24726,0.78047 0.3709,1.61502 0.37091,2.50365 -1e-5,2.10956 -0.52161,3.74002 -1.56478,4.89139 -1.0432,1.15137 -2.29502,1.72706 -3.75548,1.72706 -1.45274,0 -2.59252,-0.6066 -3.41934,-1.81979 z m -0.0232,-6.24753 c 0,1.47592 0.20091,2.54229 0.60273,3.19911 0.65682,1.0741 1.54546,1.61114 2.66593,1.61114 0.91181,0 1.7,-0.39602 2.36456,-1.18807 0.66453,-0.79205 0.99681,-1.97239 0.99682,-3.54104 -10e-6,-1.60728 -0.31876,-2.79342 -0.95626,-3.55843 -0.63751,-0.765 -1.40831,-1.1475 -2.3124,-1.14751 -0.91182,1e-5 -1.70001,0.39604 -2.36455,1.18808 -0.66456,0.79205 -0.99683,1.93763 -0.99683,3.43672 z"
           style="font-size:23.73831177px;font-style:normal;font-weight:normal;text-align:start;text-anchor:start;fill:#3475cd;font-family:Arial"
           id="path3849" />
      </g>
      <g
         transform="matrix(0.95630476,0.2923717,-0.2923717,0.95630476,71.908962,-86.348481)"
         style="font-size:23.73831177px;font-style:normal;font-weight:normal;text-align:start;text-anchor:start;fill:#3475cd;font-family:Arial"
         id="text3628">
        <path
           d="m 334.83148,193.4387 2.15592,0.2666 c -0.34002,1.25955 -0.96979,2.23706 -1.88933,2.93251 -0.91956,0.69546 -2.09411,1.04319 -3.52366,1.04319 -1.80047,0 -3.22809,-0.55443 -4.28286,-1.6633 -1.05478,-1.10887 -1.58217,-2.66399 -1.58217,-4.66537 0,-2.07091 0.53318,-3.67819 1.59955,-4.82185 1.06637,-1.14363 2.44956,-1.71545 4.14957,-1.71546 1.64591,1e-5 2.99046,0.56024 4.03366,1.68069 1.04318,1.12047 1.56477,2.69684 1.56478,4.72912 -10e-6,0.12364 -0.004,0.3091 -0.0116,0.55637 l -9.18005,0 c 0.0773,1.35228 0.45977,2.38774 1.14751,3.10638 0.68772,0.71864 1.54545,1.07796 2.57319,1.07796 0.765,0 1.41796,-0.20091 1.95888,-0.60273 0.5409,-0.40182 0.96977,-1.04319 1.2866,-1.92411 z m -6.85027,-3.37297 6.87345,0 c -0.0927,-1.03545 -0.35547,-1.81205 -0.78819,-2.32978 -0.66456,-0.80363 -1.52615,-1.20545 -2.58479,-1.20547 -0.95819,2e-5 -1.76376,0.3207 -2.41671,0.96206 -0.65296,0.64137 -1.01422,1.4991 -1.08376,2.57319 z"
           style="font-size:23.73831177px;font-style:normal;font-weight:normal;text-align:start;text-anchor:start;fill:#3475cd;font-family:Arial"
           id="path3852" />
      </g>
    </g>
  </g>
</svg>
