<?xml version="1.0" encoding="UTF-8" standalone="no"?>
<!-- Created with Inkscape (http://www.inkscape.org/) -->

<svg
   xmlns:dc="http://purl.org/dc/elements/1.1/"
   xmlns:cc="http://creativecommons.org/ns#"
   xmlns:rdf="http://www.w3.org/1999/02/22-rdf-syntax-ns#"
   xmlns:svg="http://www.w3.org/2000/svg"
   xmlns="http://www.w3.org/2000/svg"
   xmlns:sodipodi="http://sodipodi.sourceforge.net/DTD/sodipodi-0.dtd"
   xmlns:inkscape="http://www.inkscape.org/namespaces/inkscape"
   width="509.71875"
   height="468.09375"
   id="svg3494"
   version="1.1"
   inkscape:version="0.48.4 r9939"
   sodipodi:docname="pubsub_subscribe.svg">
  <defs
     id="defs3496" />
  <sodipodi:namedview
     id="base"
     pagecolor="#ffffff"
     bordercolor="#666666"
     borderopacity="1.0"
     inkscape:pageopacity="0.0"
     inkscape:pageshadow="2"
     inkscape:zoom="0.98994949"
     inkscape:cx="265.84528"
     inkscape:cy="241.02976"
     inkscape:document-units="px"
     inkscape:current-layer="layer1"
     showgrid="false"
     fit-margin-top="4"
     fit-margin-left="4"
     fit-margin-right="4"
     fit-margin-bottom="4"
     inkscape:window-width="1440"
     inkscape:window-height="838"
     inkscape:window-x="-8"
     inkscape:window-y="-8"
     inkscape:window-maximized="1" />
  <metadata
     id="metadata3499">
    <rdf:RDF>
      <cc:Work
         rdf:about="">
        <dc:format>image/svg+xml</dc:format>
        <dc:type
           rdf:resource="http://purl.org/dc/dcmitype/StillImage" />
        <dc:title />
      </cc:Work>
    </rdf:RDF>
  </metadata>
  <g
     inkscape:label="Ebene 1"
     inkscape:groupmode="layer"
     id="layer1"
     transform="translate(-95.132278,-298.30453)">
    <path
       inkscape:connector-curvature="0"
       style="fill:#595959;fill-opacity:1;fill-rule:evenodd;stroke:none"
       d="m 214.93206,761.32035 c 13.04046,0 23.58214,-10.54169 23.58214,-23.58214 l 0,0 0,-63.17203 c 0,-13.04045 -10.54168,-23.58214 -23.58214,-23.58214 l 0,0 -90.73657,0 c -13.04046,0 -23.58214,10.54169 -23.58214,23.58214 l 0,0 0,63.17203 c 0,13.04045 10.54168,23.58214 23.58214,23.58214 l 0,0 90.73657,0 z"
       id="path3050" />
    <path
       inkscape:connector-curvature="0"
       style="fill:none;stroke:#000000;stroke-width:3.59198141px;stroke-linecap:round;stroke-linejoin:round;stroke-opacity:1;stroke-dasharray:none"
       d="m 214.93206,761.32035 c 13.04046,0 23.58214,-10.54169 23.58214,-23.58214 l 0,0 0,-63.17203 c 0,-13.04045 -10.54168,-23.58214 -23.58214,-23.58214 l 0,0 -90.73657,0 c -13.04046,0 -23.58214,10.54169 -23.58214,23.58214 l 0,0 0,63.17203 c 0,13.04045 10.54168,23.58214 23.58214,23.58214 l 0,0 90.73657,0 z"
       id="path3052" />
    <g
       style="font-size:23.73831177px;font-style:normal;font-weight:normal;text-align:start;text-anchor:start;fill:#ffffff;font-family:Arial"
       id="text3054">
      <path
         d="m 149.30458,699.63196 6.52572,-16.99237 2.42251,0 6.95459,16.99237 -2.56161,0 -1.98205,-5.14639 -7.10527,0 -1.86615,5.14639 z m 4.90298,-6.97777 5.76072,0 -1.77342,-4.70593 c -0.54092,-1.42954 -0.94274,-2.60409 -1.20546,-3.52366 -0.21637,1.08957 -0.5216,2.17139 -0.91569,3.24547 z"
         style="font-size:23.73831177px;font-style:normal;font-weight:normal;text-align:start;text-anchor:start;fill:#ffffff;font-family:Arial"
         id="path3202" />
      <path
         d="m 166.76059,704.34948 0,-17.02713 1.90092,0 0,1.59955 c 0.44818,-0.6259 0.95432,-1.09534 1.51841,-1.4083 0.56409,-0.31295 1.24796,-0.46943 2.05161,-0.46944 1.0509,10e-6 1.97818,0.27047 2.78183,0.81137 0.80363,0.54092 1.41022,1.30399 1.81978,2.28922 0.40954,0.98524 0.61431,2.06513 0.61432,3.23967 -1e-5,1.25956 -0.22603,2.39354 -0.67807,3.40195 -0.45206,1.00842 -1.10888,1.78115 -1.97046,2.3182 -0.86161,0.53705 -1.76763,0.80557 -2.71809,0.80557 -0.69546,0 -1.31944,-0.14682 -1.87194,-0.44046 -0.55251,-0.29363 -1.00649,-0.66454 -1.36194,-1.11273 l 0,5.99253 z m 1.88933,-10.80278 c -1e-5,1.5841 0.32068,2.75479 0.96205,3.51206 0.64136,0.75728 1.41795,1.13592 2.32978,1.13592 0.92727,0 1.72125,-0.39216 2.38195,-1.17649 0.66067,-0.78432 0.99101,-1.99943 0.99102,-3.64536 -1e-5,-1.56863 -0.32262,-2.74318 -0.96784,-3.52365 -0.64524,-0.78045 -1.41604,-1.17068 -2.3124,-1.17069 -0.88865,10e-6 -1.6749,0.41535 -2.35876,1.24603 -0.68387,0.83069 -1.02581,2.03809 -1.0258,3.62218 z"
         style="font-size:23.73831177px;font-style:normal;font-weight:normal;text-align:start;text-anchor:start;fill:#ffffff;font-family:Arial"
         id="path3204" />
      <path
         d="m 179.9743,704.34948 0,-17.02713 1.90092,0 0,1.59955 c 0.44818,-0.6259 0.95432,-1.09534 1.51841,-1.4083 0.56409,-0.31295 1.24796,-0.46943 2.05161,-0.46944 1.0509,10e-6 1.97818,0.27047 2.78183,0.81137 0.80363,0.54092 1.41022,1.30399 1.81978,2.28922 0.40954,0.98524 0.61431,2.06513 0.61432,3.23967 -1e-5,1.25956 -0.22603,2.39354 -0.67807,3.40195 -0.45206,1.00842 -1.10888,1.78115 -1.97046,2.3182 -0.86161,0.53705 -1.76764,0.80557 -2.71809,0.80557 -0.69546,0 -1.31944,-0.14682 -1.87194,-0.44046 -0.55251,-0.29363 -1.00649,-0.66454 -1.36194,-1.11273 l 0,5.99253 z m 1.88933,-10.80278 c -1e-5,1.5841 0.32067,2.75479 0.96205,3.51206 0.64136,0.75728 1.41795,1.13592 2.32978,1.13592 0.92727,0 1.72125,-0.39216 2.38195,-1.17649 0.66067,-0.78432 0.99101,-1.99943 0.99102,-3.64536 -10e-6,-1.56863 -0.32262,-2.74318 -0.96784,-3.52365 -0.64524,-0.78045 -1.41604,-1.17068 -2.3124,-1.17069 -0.88865,10e-6 -1.6749,0.41535 -2.35876,1.24603 -0.68387,0.83069 -1.02581,2.03809 -1.0258,3.62218 z"
         style="font-size:23.73831177px;font-style:normal;font-weight:normal;text-align:start;text-anchor:start;fill:#ffffff;font-family:Arial"
         id="path3206" />
    </g>
    <g
       style="font-size:23.73831177px;font-style:normal;font-weight:normal;text-align:start;text-anchor:start;fill:#ffffff;font-family:Arial"
       id="text3056">
      <path
         d="m 123.31457,721.16071 2.24865,0.56796 c -0.47138,1.84683 -1.31946,3.25513 -2.54422,4.22491 -1.22479,0.96977 -2.72196,1.45466 -4.4915,1.45466 -1.83138,0 -3.32082,-0.37284 -4.46832,-1.11853 -1.14751,-0.74568 -2.0207,-1.82557 -2.61956,-3.23967 -0.59887,-1.4141 -0.8983,-2.93251 -0.8983,-4.55525 0,-1.76955 0.33807,-3.31308 1.01421,-4.6306 0.67614,-1.31749 1.63819,-2.31818 2.88615,-3.00206 1.24796,-0.68385 2.62148,-1.02578 4.12059,-1.0258 1.7,2e-5 3.12955,0.43275 4.28866,1.29819 1.15908,0.86547 1.96659,2.08252 2.42251,3.65115 l -2.21387,0.5216 c -0.39411,-1.23636 -0.96593,-2.13659 -1.71547,-2.7007 -0.74956,-0.56408 -1.69229,-0.84612 -2.82819,-0.84614 -1.30593,2e-5 -2.39741,0.31297 -3.27445,0.93887 -0.87706,0.62593 -1.49331,1.46627 -1.84876,2.52104 -0.35546,1.05479 -0.53319,2.1424 -0.53319,3.26285 0,1.44502 0.21057,2.7065 0.63171,3.78446 0.42114,1.07796 1.07602,1.88353 1.96467,2.41672 0.88864,0.53318 1.85068,0.79977 2.88615,0.79977 1.25955,0 2.32591,-0.36318 3.19911,-1.08955 0.87317,-0.72636 1.46431,-1.80432 1.77342,-3.23388 z"
         style="font-size:23.73831177px;font-style:normal;font-weight:normal;text-align:start;text-anchor:start;fill:#ffffff;font-family:Arial"
         id="path3183" />
      <path
         d="m 127.30187,720.96366 c -10e-6,-2.27955 0.63363,-3.96796 1.90092,-5.06525 1.05863,-0.91181 2.34909,-1.36772 3.87138,-1.36774 1.69227,2e-5 3.07546,0.55445 4.14957,1.66331 1.07408,1.10888 1.61113,2.64082 1.61114,4.59582 -1e-5,1.5841 -0.23762,2.83013 -0.71284,3.73809 -0.47524,0.90796 -1.16684,1.61307 -2.07479,2.11535 -0.90796,0.50227 -1.89899,0.75341 -2.97308,0.75341 -1.7232,0 -3.11604,-0.5525 -4.17855,-1.65751 -1.0625,-1.105 -1.59376,-2.69683 -1.59375,-4.77548 z m 2.14433,0 c -1e-5,1.57638 0.34386,2.75673 1.03159,3.54104 0.68773,0.78433 1.55319,1.17649 2.59638,1.17649 1.03545,0 1.89705,-0.39409 2.58479,-1.18228 0.68772,-0.78818 1.03158,-1.98978 1.03159,-3.60479 -1e-5,-1.52228 -0.3458,-2.67558 -1.03739,-3.45991 -0.6916,-0.78431 -1.55126,-1.17647 -2.57899,-1.17648 -1.04319,10e-6 -1.90865,0.39024 -2.59638,1.17069 -0.68773,0.78046 -1.0316,1.95888 -1.03159,3.53524 z"
         style="font-size:23.73831177px;font-style:normal;font-weight:normal;text-align:start;text-anchor:start;fill:#ffffff;font-family:Arial"
         id="path3185" />
      <path
         d="m 141.29217,727.11847 0,-12.30961 1.86615,0 0,1.72705 c 0.38636,-0.60272 0.90022,-1.08761 1.5416,-1.45467 0.64136,-0.36703 1.37159,-0.55055 2.19069,-0.55057 0.91181,2e-5 1.65943,0.18933 2.24285,0.56796 0.5834,0.37865 0.99488,0.90797 1.23444,1.58796 0.97363,-1.43726 2.24091,-2.1559 3.80184,-2.15592 1.2209,2e-5 2.15977,0.33809 2.81661,1.01421 0.6568,0.67615 0.98521,1.71741 0.98523,3.12377 l 0,8.44982 -2.07478,0 0,-7.75436 c -2e-5,-0.83454 -0.0676,-1.43534 -0.20285,-1.8024 -0.13524,-0.36704 -0.38058,-0.6626 -0.73602,-0.88671 -0.35548,-0.22408 -0.77275,-0.33612 -1.25183,-0.33614 -0.86547,2e-5 -1.58411,0.28786 -2.15592,0.86353 -0.57183,0.5757 -0.85774,1.49718 -0.85773,2.76445 l 0,7.15163 -2.08638,0 0,-7.99777 c -10e-6,-0.92727 -0.17001,-1.62273 -0.51,-2.08638 -0.34001,-0.46363 -0.89638,-0.69544 -1.6691,-0.69546 -0.58728,2e-5 -1.13012,0.15456 -1.62853,0.46364 -0.49842,0.30911 -0.85967,0.76115 -1.08376,1.35615 -0.22409,0.59501 -0.33614,1.45274 -0.33614,2.57319 l 0,6.38663 z"
         style="font-size:23.73831177px;font-style:normal;font-weight:normal;text-align:start;text-anchor:start;fill:#ffffff;font-family:Arial"
         id="path3187" />
      <path
         d="m 161.08955,731.836 0,-17.02714 1.90092,0 0,1.59955 c 0.44818,-0.6259 0.95432,-1.09533 1.51842,-1.4083 0.56409,-0.31295 1.24795,-0.46942 2.0516,-0.46944 1.05091,2e-5 1.97818,0.27047 2.78183,0.81137 0.80363,0.54092 1.41023,1.304 1.81979,2.28922 0.40953,0.98524 0.6143,2.06513 0.61432,3.23968 -2e-5,1.25955 -0.22604,2.39353 -0.67808,3.40195 -0.45205,1.00841 -1.10888,1.78114 -1.97046,2.31819 -0.8616,0.53705 -1.76763,0.80557 -2.71808,0.80557 -0.69547,0 -1.31945,-0.14682 -1.87195,-0.44045 -0.5525,-0.29364 -1.00648,-0.66455 -1.36193,-1.11274 l 0,5.99254 z m 1.88933,-10.80279 c 0,1.5841 0.32068,2.75479 0.96205,3.51206 0.64136,0.75728 1.41796,1.13592 2.32978,1.13592 0.92727,0 1.72126,-0.39216 2.38195,-1.17649 0.66068,-0.78431 0.99102,-1.99943 0.99103,-3.64536 -1e-5,-1.56863 -0.32263,-2.74318 -0.96785,-3.52365 -0.64524,-0.78045 -1.41604,-1.17068 -2.3124,-1.17069 -0.88864,1e-5 -1.6749,0.41535 -2.35876,1.24603 -0.68387,0.83069 -1.0258,2.03809 -1.0258,3.62218 z"
         style="font-size:23.73831177px;font-style:normal;font-weight:normal;text-align:start;text-anchor:start;fill:#ffffff;font-family:Arial"
         id="path3189" />
      <path
         d="m 173.52667,720.96366 c -1e-5,-2.27955 0.63363,-3.96796 1.90092,-5.06525 1.05863,-0.91181 2.34909,-1.36772 3.87138,-1.36774 1.69227,2e-5 3.07546,0.55445 4.14957,1.66331 1.07408,1.10888 1.61113,2.64082 1.61114,4.59582 -10e-6,1.5841 -0.23762,2.83013 -0.71284,3.73809 -0.47524,0.90796 -1.16684,1.61307 -2.07479,2.11535 -0.90796,0.50227 -1.89899,0.75341 -2.97308,0.75341 -1.7232,0 -3.11604,-0.5525 -4.17855,-1.65751 -1.0625,-1.105 -1.59376,-2.69683 -1.59375,-4.77548 z m 2.14433,0 c -1e-5,1.57638 0.34386,2.75673 1.03159,3.54104 0.68773,0.78433 1.55319,1.17649 2.59638,1.17649 1.03545,0 1.89705,-0.39409 2.58479,-1.18228 0.68772,-0.78818 1.03158,-1.98978 1.03159,-3.60479 -1e-5,-1.52228 -0.3458,-2.67558 -1.03739,-3.45991 -0.6916,-0.78431 -1.55126,-1.17647 -2.57899,-1.17648 -1.04319,10e-6 -1.90865,0.39024 -2.59638,1.17069 -0.68773,0.78046 -1.0316,1.95888 -1.03159,3.53524 z"
         style="font-size:23.73831177px;font-style:normal;font-weight:normal;text-align:start;text-anchor:start;fill:#ffffff;font-family:Arial"
         id="path3191" />
      <path
         d="m 187.51697,727.11847 0,-12.30961 1.87774,0 0,1.75023 c 0.90409,-1.35226 2.21,-2.0284 3.91774,-2.02842 0.74182,2e-5 1.42375,0.13331 2.04581,0.39989 0.62204,0.26661 1.08761,0.61627 1.39671,1.04898 0.30908,0.43274 0.52545,0.94661 0.6491,1.5416 0.0773,0.38638 0.1159,1.06252 0.11591,2.02842 l 0,7.56891 -2.08638,0 0,-7.48777 c -1e-5,-0.85 -0.0811,-1.48557 -0.24341,-1.90671 -0.16228,-0.42113 -0.45012,-0.75727 -0.86353,-1.00842 -0.41342,-0.25113 -0.8983,-0.37669 -1.45466,-0.37671 -0.88865,2e-5 -1.65559,0.28206 -2.30081,0.84615 -0.64524,0.5641 -0.96785,1.63433 -0.96785,3.2107 l 0,6.72276 z"
         style="font-size:23.73831177px;font-style:normal;font-weight:normal;text-align:start;text-anchor:start;fill:#ffffff;font-family:Arial"
         id="path3193" />
      <path
         d="m 209.15731,723.15436 2.15592,0.26659 c -0.34001,1.25955 -0.96979,2.23706 -1.88933,2.93252 -0.91956,0.69545 -2.09411,1.04318 -3.52365,1.04318 -1.80047,0 -3.22809,-0.55443 -4.28287,-1.6633 -1.05478,-1.10887 -1.58216,-2.66399 -1.58216,-4.66537 0,-2.07091 0.53318,-3.67819 1.59955,-4.82184 1.06637,-1.14363 2.44955,-1.71545 4.14957,-1.71547 1.64591,2e-5 2.99046,0.56025 4.03366,1.68069 1.04317,1.12047 1.56477,2.69685 1.56478,4.72912 -1e-5,0.12364 -0.004,0.3091 -0.0116,0.55637 l -9.18005,0 c 0.0773,1.35228 0.45977,2.38774 1.1475,3.10638 0.68773,0.71864 1.54546,1.07796 2.5732,1.07796 0.765,0 1.41795,-0.20091 1.95887,-0.60273 0.54091,-0.40182 0.96977,-1.04319 1.2866,-1.9241 z m -6.85026,-3.37298 6.87344,0 c -0.0927,-1.03545 -0.35546,-1.81204 -0.78818,-2.32978 -0.66456,-0.80363 -1.52615,-1.20545 -2.58479,-1.20546 -0.95819,10e-6 -1.76376,0.32069 -2.41672,0.96205 -0.65296,0.64137 -1.01421,1.49911 -1.08375,2.57319 z"
         style="font-size:23.73831177px;font-style:normal;font-weight:normal;text-align:start;text-anchor:start;fill:#ffffff;font-family:Arial"
         id="path3195" />
      <path
         d="m 213.94439,727.11847 0,-12.30961 1.87774,0 0,1.75023 c 0.90409,-1.35226 2.21,-2.0284 3.91775,-2.02842 0.74181,2e-5 1.42374,0.13331 2.0458,0.39989 0.62204,0.26661 1.08761,0.61627 1.39671,1.04898 0.30909,0.43274 0.52545,0.94661 0.6491,1.5416 0.0773,0.38638 0.1159,1.06252 0.11591,2.02842 l 0,7.56891 -2.08638,0 0,-7.48777 c -1e-5,-0.85 -0.0811,-1.48557 -0.24341,-1.90671 -0.16228,-0.42113 -0.45012,-0.75727 -0.86352,-1.00842 -0.41342,-0.25113 -0.89831,-0.37669 -1.45467,-0.37671 -0.88865,2e-5 -1.65558,0.28206 -2.30081,0.84615 -0.64523,0.5641 -0.96785,1.63433 -0.96785,3.2107 l 0,6.72276 z"
         style="font-size:23.73831177px;font-style:normal;font-weight:normal;text-align:start;text-anchor:start;fill:#ffffff;font-family:Arial"
         id="path3197" />
      <path
         d="m 231.71335,725.25232 0.30136,1.84297 c -0.58728,0.12363 -1.11273,0.18545 -1.57637,0.18545 -0.75728,0 -1.34455,-0.11977 -1.76183,-0.35932 -0.41727,-0.23954 -0.71091,-0.55443 -0.88091,-0.94466 -0.17,-0.39023 -0.255,-1.21126 -0.255,-2.46308 l 0,-7.08209 -1.53001,0 0,-1.62273 1.53001,0 0,-3.04843 2.07478,-1.25182 0,4.30025 2.09797,0 0,1.62273 -2.09797,0 0,7.198 c 0,0.595 0.0367,0.9775 0.11012,1.1475 0.0734,0.17001 0.19318,0.30523 0.35932,0.40569 0.16613,0.10045 0.40374,0.15068 0.71284,0.15068 0.23182,0 0.53704,-0.027 0.91569,-0.0811 z"
         style="font-size:23.73831177px;font-style:normal;font-weight:normal;text-align:start;text-anchor:start;fill:#ffffff;font-family:Arial"
         id="path3199" />
    </g>
    <path
       inkscape:connector-curvature="0"
       style="fill:#595959;fill-opacity:1;fill-rule:evenodd;stroke:none"
       d="m 572.80274,603.19507 c 13.04046,0 23.58214,-10.54168 23.58214,-23.58214 l 0,0 0,-62.31307 c 0,-13.04045 -10.54168,-23.66023 -23.58214,-23.66023 l -89.72145,0 c -13.04045,0 -23.66023,10.61978 -23.66023,23.66023 l 0,62.31307 c 0,13.04046 10.61978,23.58214 23.66023,23.58214 l 89.72145,0 z"
       id="path3058" />
    <path
       inkscape:connector-curvature="0"
       style="fill:none;stroke:#000000;stroke-width:3.59198141px;stroke-linecap:round;stroke-linejoin:round;stroke-opacity:1;stroke-dasharray:none"
       d="m 572.80274,603.19507 c 13.04046,0 23.58214,-10.54168 23.58214,-23.58214 l 0,0 0,-62.31307 c 0,-13.04045 -10.54168,-23.66023 -23.58214,-23.66023 l -89.72145,0 c -13.04045,0 -23.66023,10.61978 -23.66023,23.66023 l 0,62.31307 c 0,13.04046 10.61978,23.58214 23.66023,23.58214 l 89.72145,0 z"
       id="path3060" />
    <g
       style="font-size:23.73831177px;font-style:normal;font-weight:normal;text-align:start;text-anchor:start;fill:#ffffff;font-family:Arial"
       id="text3062">
      <path
         d="m 506.62868,540.96008 6.52572,-16.99236 2.42251,0 6.95458,16.99236 -2.5616,0 -1.98206,-5.14639 -7.10526,0 -1.86615,5.14639 z m 4.90298,-6.97776 5.76071,0 -1.77341,-4.70594 c -0.54093,-1.42954 -0.94275,-2.60409 -1.20547,-3.52365 -0.21637,1.08956 -0.5216,2.17139 -0.91568,3.24547 z"
         style="font-size:23.73831177px;font-style:normal;font-weight:normal;text-align:start;text-anchor:start;fill:#ffffff;font-family:Arial"
         id="path3150" />
      <path
         d="m 524.08468,545.67761 0,-17.02714 1.90092,0 0,1.59955 c 0.44818,-0.6259 0.95432,-1.09533 1.51842,-1.4083 0.56409,-0.31294 1.24796,-0.46942 2.0516,-0.46943 1.05091,10e-6 1.97819,0.27047 2.78184,0.81136 0.80363,0.54093 1.41022,1.304 1.81978,2.28922 0.40953,0.98524 0.61431,2.06513 0.61432,3.23968 -10e-6,1.25956 -0.22604,2.39354 -0.67807,3.40195 -0.45206,1.00842 -1.10888,1.78115 -1.97047,2.31819 -0.8616,0.53705 -1.76763,0.80558 -2.71808,0.80558 -0.69546,0 -1.31944,-0.14682 -1.87194,-0.44046 -0.55251,-0.29364 -1.00649,-0.66455 -1.36194,-1.11273 l 0,5.99253 z m 1.88933,-10.80279 c 0,1.58411 0.32068,2.75479 0.96205,3.51207 0.64136,0.75728 1.41796,1.13591 2.32979,1.13591 0.92727,0 1.72125,-0.39216 2.38194,-1.17648 0.66068,-0.78432 0.99102,-1.99944 0.99103,-3.64536 -10e-6,-1.56864 -0.32262,-2.74319 -0.96784,-3.52366 -0.64524,-0.78045 -1.41604,-1.17068 -2.3124,-1.17069 -0.88865,10e-6 -1.6749,0.41536 -2.35877,1.24603 -0.68387,0.8307 -1.0258,2.03809 -1.0258,3.62218 z"
         style="font-size:23.73831177px;font-style:normal;font-weight:normal;text-align:start;text-anchor:start;fill:#ffffff;font-family:Arial"
         id="path3152" />
      <path
         d="m 537.29839,545.67761 0,-17.02714 1.90092,0 0,1.59955 c 0.44818,-0.6259 0.95432,-1.09533 1.51842,-1.4083 0.56409,-0.31294 1.24796,-0.46942 2.0516,-0.46943 1.05091,10e-6 1.97819,0.27047 2.78184,0.81136 0.80363,0.54093 1.41022,1.304 1.81978,2.28922 0.40953,0.98524 0.61431,2.06513 0.61432,3.23968 -10e-6,1.25956 -0.22604,2.39354 -0.67807,3.40195 -0.45206,1.00842 -1.10888,1.78115 -1.97047,2.31819 -0.8616,0.53705 -1.76763,0.80558 -2.71808,0.80558 -0.69546,0 -1.31944,-0.14682 -1.87194,-0.44046 -0.55251,-0.29364 -1.00649,-0.66455 -1.36194,-1.11273 l 0,5.99253 z m 1.88933,-10.80279 c 0,1.58411 0.32068,2.75479 0.96205,3.51207 0.64136,0.75728 1.41796,1.13591 2.32979,1.13591 0.92727,0 1.72125,-0.39216 2.38194,-1.17648 0.66068,-0.78432 0.99102,-1.99944 0.99103,-3.64536 -10e-6,-1.56864 -0.32262,-2.74319 -0.96785,-3.52366 -0.64523,-0.78045 -1.41603,-1.17068 -2.31239,-1.17069 -0.88865,10e-6 -1.6749,0.41536 -2.35877,1.24603 -0.68387,0.8307 -1.0258,2.03809 -1.0258,3.62218 z"
         style="font-size:23.73831177px;font-style:normal;font-weight:normal;text-align:start;text-anchor:start;fill:#ffffff;font-family:Arial"
         id="path3154" />
    </g>
    <g
       style="font-size:23.73831177px;font-style:normal;font-weight:normal;text-align:start;text-anchor:start;fill:#ffffff;font-family:Arial"
       id="text3064">
      <path
         d="m 481.88806,563.73816 2.24865,0.56796 c -0.47139,1.84683 -1.31946,3.25513 -2.54422,4.22491 -1.2248,0.96978 -2.72196,1.45467 -4.49151,1.45467 -1.83138,0 -3.32081,-0.37285 -4.46831,-1.11853 -1.14751,-0.74569 -2.0207,-1.82558 -2.61956,-3.23968 -0.59887,-1.41409 -0.89831,-2.93251 -0.89831,-4.55525 0,-1.76955 0.33807,-3.31308 1.01421,-4.63059 0.67614,-1.3175 1.63819,-2.31818 2.88616,-3.00207 1.24795,-0.68385 2.62148,-1.02578 4.12059,-1.0258 1.7,2e-5 3.12955,0.43275 4.28866,1.29819 1.15908,0.86548 1.96658,2.08253 2.42251,3.65116 l -2.21387,0.52159 c -0.39411,-1.23636 -0.96593,-2.13659 -1.71547,-2.70069 -0.74956,-0.56408 -1.69229,-0.84613 -2.8282,-0.84615 -1.30592,2e-5 -2.3974,0.31298 -3.27445,0.93887 -0.87705,0.62593 -1.4933,1.46627 -1.84876,2.52104 -0.35546,1.05479 -0.53318,2.14241 -0.53318,3.26286 0,1.44501 0.21056,2.7065 0.63171,3.78445 0.42113,1.07797 1.07602,1.88354 1.96467,2.41672 0.88863,0.53319 1.85068,0.79978 2.88615,0.79978 1.25954,0 2.32591,-0.36319 3.19911,-1.08956 0.87317,-0.72636 1.46431,-1.80432 1.77342,-3.23388 z"
         style="font-size:23.73831177px;font-style:normal;font-weight:normal;text-align:start;text-anchor:start;fill:#ffffff;font-family:Arial"
         id="path3130" />
      <path
         d="m 485.87535,563.54112 c 0,-2.27955 0.63364,-3.96797 1.90092,-5.06526 1.05864,-0.91181 2.3491,-1.36772 3.87139,-1.36773 1.69227,1e-5 3.07546,0.55444 4.14956,1.6633 1.07409,1.10888 1.61114,2.64082 1.61115,4.59582 -10e-6,1.58411 -0.23763,2.83013 -0.71285,3.73809 -0.47524,0.90796 -1.16683,1.61308 -2.07478,2.11535 -0.90797,0.50228 -1.89899,0.75342 -2.97308,0.75342 -1.7232,0 -3.11605,-0.55251 -4.17855,-1.65751 -1.06251,-1.10501 -1.59376,-2.69683 -1.59376,-4.77548 z m 2.14433,0 c 0,1.57637 0.34386,2.75672 1.0316,3.54104 0.68772,0.78432 1.55318,1.17648 2.59638,1.17648 1.03545,0 1.89704,-0.39409 2.58478,-1.18228 0.68772,-0.78818 1.03159,-1.98978 1.0316,-3.60479 -1e-5,-1.52227 -0.34581,-2.67557 -1.03739,-3.4599 -0.69161,-0.78432 -1.55127,-1.17648 -2.57899,-1.17649 -1.0432,10e-6 -1.90866,0.39024 -2.59638,1.17069 -0.68774,0.78047 -1.0316,1.95888 -1.0316,3.53525 z"
         style="font-size:23.73831177px;font-style:normal;font-weight:normal;text-align:start;text-anchor:start;fill:#ffffff;font-family:Arial"
         id="path3132" />
      <path
         d="m 499.86566,569.69592 0,-12.30961 1.86614,0 0,1.72705 c 0.38636,-0.60271 0.90023,-1.0876 1.5416,-1.45466 0.64136,-0.36704 1.37159,-0.55056 2.1907,-0.55057 0.91181,1e-5 1.65943,0.18933 2.24285,0.56795 0.5834,0.37865 0.99488,0.90797 1.23444,1.58797 0.97363,-1.43727 2.24091,-2.15591 3.80184,-2.15592 1.2209,1e-5 2.15976,0.33808 2.8166,1.01421 0.65681,0.67615 0.98522,1.7174 0.98524,3.12376 l 0,8.44982 -2.07479,0 0,-7.75436 c -10e-6,-0.83454 -0.0676,-1.43534 -0.20284,-1.80239 -0.13524,-0.36704 -0.38059,-0.66261 -0.73603,-0.88671 -0.35547,-0.22408 -0.77274,-0.33613 -1.25182,-0.33614 -0.86547,10e-6 -1.58411,0.28785 -2.15592,0.86353 -0.57184,0.57569 -0.85775,1.49717 -0.85774,2.76444 l 0,7.15163 -2.08637,0 0,-7.99777 c -10e-6,-0.92727 -0.17001,-1.62272 -0.51,-2.08637 -0.34001,-0.46363 -0.89638,-0.69545 -1.6691,-0.69546 -0.58729,10e-6 -1.13013,0.15456 -1.62853,0.46364 -0.49842,0.3091 -0.85967,0.76115 -1.08376,1.35614 -0.2241,0.59501 -0.33614,1.45274 -0.33614,2.5732 l 0,6.38662 z"
         style="font-size:23.73831177px;font-style:normal;font-weight:normal;text-align:start;text-anchor:start;fill:#ffffff;font-family:Arial"
         id="path3135" />
      <path
         d="m 519.66304,574.41345 0,-17.02714 1.90092,0 0,1.59955 c 0.44818,-0.6259 0.95431,-1.09533 1.51841,-1.4083 0.56409,-0.31294 1.24796,-0.46942 2.05161,-0.46943 1.0509,1e-5 1.97818,0.27047 2.78183,0.81136 0.80363,0.54093 1.41022,1.304 1.81978,2.28922 0.40954,0.98524 0.61431,2.06513 0.61432,3.23968 -10e-6,1.25956 -0.22603,2.39354 -0.67807,3.40195 -0.45206,1.00842 -1.10888,1.78115 -1.97046,2.31819 -0.86161,0.53705 -1.76764,0.80558 -2.71809,0.80558 -0.69546,0 -1.31944,-0.14682 -1.87194,-0.44046 -0.55251,-0.29364 -1.00649,-0.66455 -1.36194,-1.11273 l 0,5.99253 z m 1.88932,-10.80279 c 0,1.58411 0.32068,2.75479 0.96206,3.51207 0.64136,0.75728 1.41795,1.13591 2.32978,1.13591 0.92727,0 1.72125,-0.39216 2.38195,-1.17648 0.66067,-0.78432 0.99101,-1.99944 0.99102,-3.64536 -10e-6,-1.56864 -0.32262,-2.74319 -0.96784,-3.52366 -0.64524,-0.78045 -1.41604,-1.17068 -2.3124,-1.17069 -0.88865,1e-5 -1.6749,0.41536 -2.35876,1.24603 -0.68388,0.8307 -1.02581,2.03809 -1.02581,3.62218 z"
         style="font-size:23.73831177px;font-style:normal;font-weight:normal;text-align:start;text-anchor:start;fill:#ffffff;font-family:Arial"
         id="path3137" />
      <path
         d="m 532.10015,563.54112 c 0,-2.27955 0.63364,-3.96797 1.90092,-5.06526 1.05864,-0.91181 2.3491,-1.36772 3.87139,-1.36773 1.69227,1e-5 3.07546,0.55444 4.14956,1.6633 1.07409,1.10888 1.61114,2.64082 1.61115,4.59582 -10e-6,1.58411 -0.23763,2.83013 -0.71285,3.73809 -0.47524,0.90796 -1.16683,1.61308 -2.07478,2.11535 -0.90797,0.50228 -1.89899,0.75342 -2.97308,0.75342 -1.7232,0 -3.11605,-0.55251 -4.17855,-1.65751 -1.06251,-1.10501 -1.59376,-2.69683 -1.59376,-4.77548 z m 2.14433,0 c 0,1.57637 0.34386,2.75672 1.0316,3.54104 0.68772,0.78432 1.55318,1.17648 2.59638,1.17648 1.03545,0 1.89704,-0.39409 2.58478,-1.18228 0.68772,-0.78818 1.03159,-1.98978 1.0316,-3.60479 -10e-6,-1.52227 -0.34581,-2.67557 -1.03739,-3.4599 -0.69161,-0.78432 -1.55127,-1.17648 -2.57899,-1.17649 -1.0432,10e-6 -1.90866,0.39024 -2.59638,1.17069 -0.68774,0.78047 -1.0316,1.95888 -1.0316,3.53525 z"
         style="font-size:23.73831177px;font-style:normal;font-weight:normal;text-align:start;text-anchor:start;fill:#ffffff;font-family:Arial"
         id="path3139" />
      <path
         d="m 546.09045,569.69592 0,-12.30961 1.87774,0 0,1.75024 c 0.90409,-1.35227 2.21001,-2.02841 3.91775,-2.02842 0.74181,1e-5 1.42375,0.13331 2.04581,0.39989 0.62204,0.2666 1.08761,0.61626 1.39671,1.04898 0.30908,0.43274 0.52545,0.9466 0.64909,1.5416 0.0773,0.38637 0.1159,1.06251 0.11591,2.02842 l 0,7.5689 -2.08637,0 0,-7.48777 c -10e-6,-0.84999 -0.0811,-1.48556 -0.24341,-1.90671 -0.16228,-0.42113 -0.45013,-0.75727 -0.86353,-1.00842 -0.41342,-0.25112 -0.89831,-0.37669 -1.45467,-0.3767 -0.88864,10e-6 -1.65558,0.28206 -2.3008,0.84614 -0.64524,0.5641 -0.96785,1.63433 -0.96785,3.2107 l 0,6.72276 z"
         style="font-size:23.73831177px;font-style:normal;font-weight:normal;text-align:start;text-anchor:start;fill:#ffffff;font-family:Arial"
         id="path3141" />
      <path
         d="m 567.7308,565.73181 2.15592,0.26659 c -0.34001,1.25956 -0.96979,2.23706 -1.88933,2.93252 -0.91956,0.69546 -2.09411,1.04319 -3.52366,1.04319 -1.80046,0 -3.22808,-0.55444 -4.28286,-1.66331 -1.05478,-1.10887 -1.58217,-2.66399 -1.58217,-4.66536 0,-2.07092 0.53319,-3.6782 1.59956,-4.82185 1.06636,-1.14363 2.44955,-1.71545 4.14957,-1.71546 1.64591,1e-5 2.99046,0.56024 4.03365,1.68069 1.04318,1.12047 1.56477,2.69684 1.56478,4.72911 -1e-5,0.12365 -0.004,0.3091 -0.0116,0.55637 l -9.18005,0 c 0.0773,1.35229 0.45978,2.38774 1.14751,3.10638 0.68773,0.71864 1.54546,1.07796 2.5732,1.07796 0.76499,0 1.41795,-0.20091 1.95887,-0.60273 0.5409,-0.40182 0.96977,-1.04318 1.2866,-1.9241 z m -6.85027,-3.37297 6.87345,0 c -0.0927,-1.03545 -0.35547,-1.81205 -0.78819,-2.32979 -0.66455,-0.80363 -1.52615,-1.20545 -2.58478,-1.20546 -0.9582,1e-5 -1.76377,0.32069 -2.41672,0.96205 -0.65296,0.64138 -1.01421,1.49911 -1.08376,2.5732 z"
         style="font-size:23.73831177px;font-style:normal;font-weight:normal;text-align:start;text-anchor:start;fill:#ffffff;font-family:Arial"
         id="path3143" />
      <path
         d="m 572.51788,569.69592 0,-12.30961 1.87773,0 0,1.75024 c 0.90409,-1.35227 2.21001,-2.02841 3.91775,-2.02842 0.74182,1e-5 1.42375,0.13331 2.04581,0.39989 0.62204,0.2666 1.08761,0.61626 1.39671,1.04898 0.30908,0.43274 0.52545,0.9466 0.6491,1.5416 0.0773,0.38637 0.11589,1.06251 0.11591,2.02842 l 0,7.5689 -2.08638,0 0,-7.48777 c -1e-5,-0.84999 -0.0812,-1.48556 -0.24341,-1.90671 -0.16228,-0.42113 -0.45013,-0.75727 -0.86353,-1.00842 -0.41342,-0.25112 -0.89831,-0.37669 -1.45466,-0.3767 -0.88865,10e-6 -1.65559,0.28206 -2.30081,0.84614 -0.64524,0.5641 -0.96785,1.63433 -0.96785,3.2107 l 0,6.72276 z"
         style="font-size:23.73831177px;font-style:normal;font-weight:normal;text-align:start;text-anchor:start;fill:#ffffff;font-family:Arial"
         id="path3145" />
      <path
         d="m 590.28683,567.82978 0.30137,1.84296 c -0.58728,0.12364 -1.11274,0.18546 -1.57637,0.18546 -0.75728,0 -1.34456,-0.11978 -1.76183,-0.35932 -0.41728,-0.23955 -0.71092,-0.55444 -0.88091,-0.94467 -0.17001,-0.39023 -0.25501,-1.21125 -0.25501,-2.46308 l 0,-7.08208 -1.53,0 0,-1.62274 1.53,0 0,-3.04843 2.07479,-1.25182 0,4.30025 2.09796,0 0,1.62274 -2.09796,0 0,7.19799 c -10e-6,0.59501 0.0367,0.97751 0.11011,1.14751 0.0734,0.17 0.19318,0.30523 0.35932,0.40568 0.16614,0.10046 0.40375,0.15068 0.71285,0.15068 0.23181,0 0.53704,-0.027 0.91568,-0.0811 z"
         style="font-size:23.73831177px;font-style:normal;font-weight:normal;text-align:start;text-anchor:start;fill:#ffffff;font-family:Arial"
         id="path3147" />
    </g>
    <path
       inkscape:connector-curvature="0"
       style="fill:#ffe100;fill-opacity:1;fill-rule:evenodd;stroke:none"
       d="m 288.80194,553.6882 c 13.04046,0 23.58214,-10.54169 23.58214,-23.58214 l 0,0 0,-95.73412 c 0,-13.04046 -10.54168,-23.58214 -23.58214,-23.58214 l 0,0 -139.30641,0 c -13.04045,0 -23.66022,10.54168 -23.66022,23.58214 l 0,0 0,95.73412 c 0,13.04045 10.61977,23.58214 23.66022,23.58214 l 0,0 139.30641,0 z"
       id="path3066" />
    <path
       inkscape:connector-curvature="0"
       style="fill:none;stroke:#ffc000;stroke-width:5.23179913px;stroke-linecap:round;stroke-linejoin:round;stroke-opacity:1;stroke-dasharray:none"
       d="m 288.80194,553.6882 c 13.04046,0 23.58214,-10.54169 23.58214,-23.58214 l 0,0 0,-95.73412 c 0,-13.04046 -10.54168,-23.58214 -23.58214,-23.58214 l 0,0 -139.30641,0 c -13.04045,0 -23.66022,10.54168 -23.66022,23.58214 l 0,0 0,95.73412 c 0,13.04045 10.61977,23.58214 23.66022,23.58214 l 0,0 139.30641,0 z"
       id="path3068" />
    <path
       inkscape:connector-curvature="0"
       style="fill:#000000;fill-opacity:1;fill-rule:evenodd;stroke:none"
       d="m 162.37981,531.43353 c -2.18642,0.46852 -4.21667,0.62469 -6.16884,0.62469 -0.78086,0 -1.56173,0 -2.26451,-0.0781 -0.70277,-0.0781 -1.48364,-0.23426 -2.34259,-0.46852 -0.85895,-0.23426 -1.63982,-0.46852 -2.18643,-0.93703 -0.62469,-0.31235 -1.17129,-0.85896 -1.56173,-1.56174 -0.39043,-0.70277 -0.62469,-1.56173 -0.62469,-2.49877 l 0,-8.51143 c 0,-3.82624 2.96729,-5.77841 8.97995,-5.77841 1.40556,0 3.43581,0.15618 6.09076,0.6247 l 0,3.51389 c -2.3426,-0.62469 -4.37285,-0.85895 -6.09075,-0.85895 -0.6247,0 -1.1713,0 -1.63982,0.0781 -0.39044,0 -0.85896,0.15617 -1.32747,0.23426 -0.46852,0.15617 -0.78087,0.46852 -1.01513,0.78086 -0.23426,0.39043 -0.39043,0.78087 -0.39043,1.32747 l 0,8.27718 c 0,1.7179 1.63981,2.57685 4.84136,2.57685 1.40556,0 3.27964,-0.31234 5.70032,-0.85895 l 0,3.5139 z"
       id="path3070" />
    <path
       inkscape:connector-curvature="0"
       style="fill:#000000;fill-opacity:1;fill-rule:evenodd;stroke:none"
       d="m 174.6394,520.73567 -1.48364,0 c -1.1713,0 -2.10834,0.15617 -2.65495,0.54661 -0.62469,0.31234 -0.93703,0.93703 -0.93703,1.87407 l 0,8.66761 -4.29476,0 0,-14.44601 4.0605,0 0,2.57685 c 0.0781,-0.70278 0.46852,-1.40555 1.24938,-1.95216 0.78087,-0.62469 1.63982,-0.93704 2.49877,-0.93704 l 1.56173,0 0,3.67007 z"
       id="path3072" />
    <path
       inkscape:connector-curvature="0"
       style="fill:#000000;fill-opacity:1;fill-rule:evenodd;stroke:none"
       d="m 191.19375,522.60975 0,4.21667 c 0,0.93704 -0.15617,1.79599 -0.46852,2.42068 -0.23426,0.70278 -0.62469,1.1713 -1.09321,1.56173 -0.39043,0.39044 -1.01513,0.6247 -1.7179,0.85896 -0.70278,0.15617 -1.32748,0.31234 -1.87408,0.31234 -0.62469,0.0781 -1.32747,0.0781 -2.10834,0.0781 -0.85895,0 -1.56173,0 -2.18642,-0.0781 -0.54661,0 -1.1713,-0.15617 -1.87408,-0.31234 -0.70278,-0.23426 -1.32747,-0.46852 -1.7179,-0.85896 -0.46852,-0.39043 -0.85896,-0.85895 -1.09321,-1.56173 -0.31235,-0.62469 -0.46852,-1.48364 -0.46852,-2.42068 l 0,-4.21667 c 0,-1.01513 0.15617,-1.87408 0.46852,-2.57686 0.31234,-0.70278 0.70277,-1.1713 1.09321,-1.56173 0.46852,-0.39043 1.01512,-0.70278 1.7179,-0.93704 0.78087,-0.15617 1.40556,-0.31235 1.95216,-0.39043 0.54661,0 1.24939,-0.0781 2.10834,-0.0781 0.78087,0 1.48365,0.0781 2.03025,0.0781 0.54661,0.0781 1.1713,0.23426 1.95217,0.39043 0.70277,0.23426 1.24938,0.54661 1.7179,0.93704 0.39043,0.39043 0.78087,0.85895 1.09321,1.56173 0.31235,0.70278 0.46852,1.56173 0.46852,2.57686 z m -4.37285,4.76328 0,-5.46606 c 0,-0.78087 -0.15617,-1.32747 -0.5466,-1.63982 -0.39043,-0.31235 -1.1713,-0.46852 -2.3426,-0.46852 -1.24938,0 -2.03025,0.15617 -2.42068,0.46852 -0.39043,0.31235 -0.54661,0.85895 -0.54661,1.63982 l 0,5.46606 c 0,0.78086 0.15618,1.24938 0.54661,1.56173 0.39043,0.31234 1.1713,0.46852 2.42068,0.46852 1.1713,0 1.95217,-0.15618 2.3426,-0.46852 0.39043,-0.31235 0.5466,-0.78087 0.5466,-1.56173 z"
       id="path3074" />
    <path
       inkscape:connector-curvature="0"
       style="fill:#000000;fill-opacity:1;fill-rule:evenodd;stroke:none"
       d="m 206.96723,526.20173 0,1.79599 c 0,0.70278 -0.15617,1.32747 -0.39043,1.79599 -0.31235,0.54661 -0.62469,0.93704 -1.01513,1.24938 -0.39043,0.31235 -0.93703,0.46852 -1.56173,0.6247 -0.70278,0.23426 -1.32747,0.31234 -1.95216,0.31234 -0.54661,0.0781 -1.24939,0.0781 -2.10834,0.0781 -1.56173,0 -3.4358,-0.15617 -5.70031,-0.39043 l 0,-2.88921 c 2.81111,0.39044 4.68519,0.6247 5.7784,0.6247 0.85895,0 1.48364,-0.0781 1.95216,-0.31235 0.46852,-0.15617 0.70278,-0.46852 0.70278,-0.93704 l 0,-0.93704 c 0,-0.39043 -0.15617,-0.78086 -0.39043,-1.01512 -0.23426,-0.23426 -0.78087,-0.31235 -1.63982,-0.31235 l -1.87408,0 c -1.48364,0 -2.65494,-0.31234 -3.51389,-0.93704 -0.85895,-0.5466 -1.24938,-1.48364 -1.24938,-2.65494 l 0,-1.7179 c 0,-1.32748 0.62469,-2.26451 1.87408,-2.73303 1.24938,-0.46852 2.96728,-0.78087 5.23179,-0.78087 0.93704,0 2.65494,0.15617 5.15371,0.31235 l 0,2.73303 c -3.12346,-0.23426 -4.84136,-0.31235 -5.2318,-0.31235 -1.24938,0 -1.95216,0.0781 -2.26451,0.23426 -0.39043,0.15617 -0.5466,0.46852 -0.5466,0.93704 l 0,0.78086 c 0,0.23426 0.15617,0.46852 0.39043,0.70278 0.23426,0.15618 0.62469,0.23426 1.1713,0.23426 l 1.87408,0 c 3.51389,0 5.30988,1.1713 5.30988,3.5139 z"
       id="path3076" />
    <path
       inkscape:connector-curvature="0"
       style="fill:#000000;fill-opacity:1;fill-rule:evenodd;stroke:none"
       d="m 222.58454,526.20173 0,1.79599 c 0,0.70278 -0.15617,1.32747 -0.39043,1.79599 -0.31235,0.54661 -0.62469,0.93704 -1.01512,1.24938 -0.39044,0.31235 -0.93704,0.46852 -1.63982,0.6247 -0.62469,0.23426 -1.24939,0.31234 -1.87408,0.31234 -0.54661,0.0781 -1.32747,0.0781 -2.10834,0.0781 -1.56173,0 -3.4358,-0.15617 -5.70031,-0.39043 l 0,-2.88921 c 2.81111,0.39044 4.68519,0.6247 5.7784,0.6247 0.85895,0 1.48364,-0.0781 1.95216,-0.31235 0.46852,-0.15617 0.70278,-0.46852 0.70278,-0.93704 l 0,-0.93704 c 0,-0.39043 -0.15617,-0.78086 -0.39043,-1.01512 -0.23426,-0.23426 -0.78087,-0.31235 -1.63982,-0.31235 l -1.87407,0 c -1.48365,0 -2.73303,-0.31234 -3.5139,-0.93704 -0.85895,-0.5466 -1.24938,-1.48364 -1.24938,-2.65494 l 0,-1.7179 c 0,-1.32748 0.62469,-2.26451 1.87407,-2.73303 1.24939,-0.46852 2.96729,-0.78087 5.2318,-0.78087 0.93704,0 2.65494,0.15617 5.15371,0.31235 l 0,2.73303 c -3.12346,-0.23426 -4.84136,-0.31235 -5.23179,-0.31235 -1.24939,0 -1.95217,0.0781 -2.3426,0.23426 -0.31235,0.15617 -0.46852,0.46852 -0.46852,0.93704 l 0,0.78086 c 0,0.23426 0.15617,0.46852 0.39043,0.70278 0.23426,0.15618 0.62469,0.23426 1.1713,0.23426 l 1.87408,0 c 3.51389,0 5.30988,1.1713 5.30988,3.5139 z"
       id="path3078" />
    <path
       inkscape:connector-curvature="0"
       style="fill:#000000;fill-opacity:1;fill-rule:evenodd;stroke:none"
       d="m 240.54445,521.90697 0,4.76328 c 0,1.95216 -0.62469,3.35772 -1.79599,4.21667 -1.1713,0.78087 -3.04538,1.1713 -5.70032,1.1713 -2.73303,0 -4.6071,-0.39043 -5.70032,-1.24939 -1.01512,-0.85895 -1.56173,-2.26451 -1.56173,-4.13858 l 0,-15.6954 4.37285,0 0,7.88674 c 0.23426,-0.70278 0.70278,-1.09321 1.40556,-1.40556 0.70278,-0.23426 1.79599,-0.39043 3.20155,-0.39043 1.24938,0 2.26451,0.15617 3.04537,0.31235 0.70278,0.23426 1.32747,0.5466 1.71791,1.01512 0.39043,0.39044 0.70277,0.93704 0.78086,1.48365 0.15617,0.46852 0.23426,1.1713 0.23426,2.03025 z m -4.37285,5.30988 0,-5.30988 c 0,-0.93704 -0.15617,-1.48365 -0.46852,-1.71791 -0.39043,-0.31234 -1.24938,-0.39043 -2.65494,-0.39043 -1.1713,0 -1.95216,0.15617 -2.34259,0.46852 -0.39044,0.31235 -0.54661,0.85895 -0.54661,1.63982 l 0,5.30988 c 0,0.85896 0.15617,1.48365 0.46852,1.71791 0.39043,0.31234 1.24938,0.46852 2.49877,0.46852 1.24938,0 2.10834,-0.15618 2.49877,-0.46852 0.39043,-0.23426 0.5466,-0.85895 0.5466,-1.71791 z"
       id="path3080" />
    <path
       inkscape:connector-curvature="0"
       style="fill:#000000;fill-opacity:1;fill-rule:evenodd;stroke:none"
       d="m 256.86454,531.82396 -4.29476,0 0,-1.32747 c -0.31235,0.5466 -0.78086,1.01512 -1.32747,1.24938 -0.62469,0.23426 -1.7179,0.31235 -3.27964,0.31235 -1.95216,0 -3.20154,-0.23426 -3.90432,-0.85895 -0.6247,-0.62469 -0.93704,-1.87408 -0.93704,-3.74816 0,-1.63981 0.31234,-2.8892 1.01512,-3.51389 0.6247,-0.70278 1.79599,-1.01513 3.5139,-1.01513 l 4.84136,0 0,-1.01512 c 0,-0.85895 -0.23426,-1.40556 -0.62469,-1.71791 -0.39043,-0.23426 -1.24938,-0.39043 -2.57685,-0.39043 -1.1713,0 -2.88921,0.0781 -4.99754,0.31235 l 0,-2.73303 c 1.63981,-0.15618 3.4358,-0.31235 5.46605,-0.31235 2.65495,0 4.52902,0.39043 5.54415,1.01513 1.01513,0.62469 1.56173,1.87407 1.56173,3.82624 l 0,9.91699 z m -4.37285,-3.74815 0,-2.73303 -2.96728,0 c -0.93704,0 -1.56174,0.0781 -1.796,0.31234 -0.23426,0.23426 -0.31234,0.78087 -0.31234,1.71791 0,0.93704 0.0781,1.48364 0.31234,1.7179 0.31235,0.15617 0.93704,0.31235 1.87408,0.31235 0.54661,0 0.85895,0 1.1713,0 0.23426,-0.0781 0.46852,-0.0781 0.78087,-0.0781 0.23426,-0.0781 0.46851,-0.15617 0.5466,-0.23426 0.0781,-0.0781 0.15617,-0.23426 0.31235,-0.39043 0.0781,-0.15618 0.0781,-0.31235 0.0781,-0.62469 z"
       id="path3082" />
    <path
       inkscape:connector-curvature="0"
       style="fill:#000000;fill-opacity:1;fill-rule:evenodd;stroke:none"
       d="m 270.06117,520.73567 -1.48365,0 c -1.17129,0 -2.10833,0.15617 -2.65494,0.54661 -0.62469,0.31234 -0.93704,0.93703 -0.93704,1.87407 l 0,8.66761 -4.37284,0 0,-14.44601 4.13858,0 0,2.57685 c 0.0781,-0.70278 0.46852,-1.40555 1.24939,-1.95216 0.78086,-0.62469 1.63982,-0.93704 2.49877,-0.93704 l 1.56173,0 0,3.67007 z"
       id="path3084" />
    <path
       inkscape:connector-curvature="0"
       style="fill:#000000;fill-opacity:1;fill-rule:evenodd;stroke:none"
       d="m 272.63803,528.62241 0,3.20155 3.4358,0 0,-3.20155 -3.4358,0 z"
       id="path3086" />
    <path
       inkscape:connector-curvature="0"
       style="fill:#000000;fill-opacity:1;fill-rule:evenodd;stroke:none"
       d="m 283.10162,514.95726 -2.65494,0 0,-2.73303 2.65494,0 0,2.73303 z m 0,16.8667 -2.65494,0 0,-14.44601 2.65494,0 0,14.44601 z"
       id="path3088" />
    <path
       inkscape:connector-curvature="0"
       style="fill:#000000;fill-opacity:1;fill-rule:evenodd;stroke:none"
       d="m 300.43684,522.21931 0,4.99754 c 0,0.93704 -0.0781,1.63982 -0.31235,2.26451 -0.23426,0.6247 -0.46852,1.09322 -0.78086,1.48365 -0.39044,0.31234 -0.85895,0.5466 -1.48365,0.70278 -0.62469,0.23426 -1.24938,0.31234 -1.79599,0.39043 -0.5466,0 -1.32747,0 -2.18642,0 -1.24939,0 -2.18643,0 -2.81112,-0.0781 -0.70278,-0.0781 -1.32747,-0.31234 -2.03025,-0.62469 -0.62469,-0.31235 -1.09321,-0.78086 -1.40556,-1.40556 -0.31234,-0.70278 -0.39043,-1.56173 -0.39043,-2.73303 l 0,-4.99754 c 0,-0.93703 0.0781,-1.7179 0.31235,-2.34259 0.23426,-0.70278 0.46852,-1.1713 0.85895,-1.56173 0.31235,-0.39044 0.78086,-0.6247 1.40556,-0.78087 0.62469,-0.23426 1.24938,-0.31235 1.79599,-0.39043 0.5466,0 1.24938,-0.0781 2.26451,-0.0781 0.93704,0 1.63982,0.0781 2.18642,0.0781 0.54661,0.0781 1.1713,0.15617 1.79599,0.39043 0.6247,0.15617 1.09321,0.39043 1.40556,0.78087 0.31235,0.39043 0.62469,0.85895 0.85895,1.56173 0.23426,0.62469 0.31235,1.40556 0.31235,2.34259 z m -2.73303,5.38798 0,-5.77841 c 0,-1.32747 -0.23426,-2.18642 -0.78087,-2.49877 -0.5466,-0.31234 -1.56173,-0.46852 -3.04537,-0.46852 -1.56173,0 -2.57686,0.15618 -3.12346,0.46852 -0.54661,0.31235 -0.78087,1.1713 -0.78087,2.49877 l 0,5.77841 c 0,0.62469 0,1.17129 0.15617,1.56173 0.15618,0.31234 0.39044,0.62469 0.78087,0.78086 0.39043,0.15618 0.78086,0.31235 1.1713,0.31235 0.39043,0.0781 1.01512,0.0781 1.79599,0.0781 0.70278,0 1.32747,0 1.7179,-0.0781 0.39044,0 0.78087,-0.15617 1.1713,-0.31235 0.39043,-0.15617 0.62469,-0.46852 0.78087,-0.78086 0.0781,-0.39044 0.15617,-0.93704 0.15617,-1.56173 z"
       id="path3090" />
    <path
       inkscape:connector-curvature="0"
       style="fill:#000000;fill-opacity:1;fill-rule:evenodd;stroke:none"
       d="m 188.38263,429.92101 0,64.81184 64.73376,0 0,-64.81184 -64.73376,0 z"
       id="path3092" />
    <path
       inkscape:connector-curvature="0"
       style="fill:#ffe100;fill-opacity:1;fill-rule:evenodd;stroke:none"
       d="m 188.38263,443.66424 0,6.48118 15.22688,-0.0781 10.15125,10.15125 4.76328,-4.68519 -12.02533,-12.02533 -18.11608,0.15617 z"
       id="path3094" />
    <path
       inkscape:connector-curvature="0"
       style="fill:#ffe100;fill-opacity:1;fill-rule:evenodd;stroke:none"
       d="m 227.66017,464.74761 -4.68519,4.68519 11.63489,11.6349 18.50652,0 0,-6.48118 -15.61731,0 -9.83891,-9.83891 z"
       id="path3096" />
    <path
       inkscape:connector-curvature="0"
       style="fill:#ffe100;fill-opacity:1;fill-rule:evenodd;stroke:none"
       d="m 235.07839,443.58615 -30.92227,31.07845 -15.77349,0 0,6.48119 18.50652,0 31.00036,-31.00037 15.22688,0 0,-6.55927 -18.038,0 z"
       id="path3098" />
    <path
       inkscape:connector-curvature="0"
       style="fill:none;stroke:#000000;stroke-width:3.59198141px;stroke-linecap:round;stroke-linejoin:round;stroke-opacity:1;stroke-dasharray:none"
       d="m 202.12587,557.43635 -32.56209,93.54769"
       id="path3100" />
    <path
       inkscape:connector-curvature="0"
       style="fill:none;stroke:#000000;stroke-width:3.59198141px;stroke-linecap:round;stroke-linejoin:round;stroke-opacity:1;stroke-dasharray:none"
       d="m 315.42946,503.08811 143.9916,45.36829"
       id="path3102" />
    <path
       inkscape:connector-curvature="0"
       style="fill:none;stroke:#3475cd;stroke-width:5.23179913px;stroke-linecap:round;stroke-linejoin:round;stroke-opacity:1;stroke-dasharray:none"
       d="M 435.83893,342.54215 343.0721,398.99873"
       id="path3104" />
    <path
       inkscape:connector-curvature="0"
       style="fill:#3475cd;fill-opacity:1;fill-rule:evenodd;stroke:none"
       d="m 350.88075,406.7293 -23.66022,1.95216 12.57193,-20.06824 11.08829,18.11608 z"
       id="path3106" />
    <g
       transform="matrix(0.8571673,-0.51503807,0.51503807,0.8571673,0,0)"
       style="font-size:23.73831177px;font-style:normal;font-weight:normal;text-align:start;text-anchor:start;fill:#3475cd;font-family:Arial"
       id="text3108">
      <path
         d="m 82.751535,495.44254 2.121148,-0.18546 c 0.100452,0.85001 0.334203,1.5474 0.701254,2.09217 0.367043,0.54478 0.936932,0.98524 1.709668,1.32137 0.772725,0.33614 1.642047,0.50421 2.607969,0.50421 0.857723,0 1.614999,-0.1275 2.271831,-0.3825 0.65681,-0.255 1.145562,-0.60466 1.466258,-1.04898 0.320671,-0.44432 0.481013,-0.92921 0.481025,-1.45467 -1.2e-5,-0.53318 -0.154559,-0.99875 -0.463639,-1.39671 -0.309104,-0.39795 -0.819106,-0.73216 -1.530008,-1.00262 -0.455922,-0.17772 -1.464335,-0.45397 -3.025244,-0.82876 -1.560924,-0.37476 -2.654338,-0.72829 -3.280245,-1.06057 -0.811372,-0.42499 -1.416034,-0.95238 -1.813988,-1.58217 -0.397958,-0.62976 -0.596936,-1.33488 -0.596935,-2.11535 -10e-7,-0.85772 0.243409,-1.65943 0.730232,-2.40513 0.486818,-0.74567 1.19773,-1.31169 2.132739,-1.69808 0.934999,-0.38634 1.974322,-0.57953 3.117971,-0.57954 1.259544,10e-6 2.370344,0.20286 3.332405,0.60852 0.962039,0.4057 1.701928,1.00264 2.219671,1.79081 0.517716,0.7882 0.795899,1.6807 0.83455,2.67751 l -2.155921,0.16228 c -0.115921,-1.07409 -0.508082,-1.88546 -1.176484,-2.43411 -0.668422,-0.54862 -1.655586,-0.82294 -2.961493,-0.82296 -1.360014,2e-5 -2.351041,0.24922 -2.973085,0.74762 -0.622053,0.49843 -0.933077,1.09922 -0.933073,1.8024 -4e-6,0.61047 0.220225,1.11274 0.660686,1.50682 0.432724,0.39411 1.562843,0.79786 3.390359,1.21126 1.8275,0.41342 3.081256,0.77467 3.761271,1.08376 0.989083,0.45592 1.719314,1.03353 2.190694,1.73285 0.471351,0.69932 0.707034,1.5049 0.707049,2.41671 -1.5e-5,0.9041 -0.25888,1.75604 -0.776595,2.55581 -0.517744,0.79978 -1.261497,1.42183 -2.231263,1.86615 -0.969788,0.44432 -2.06127,0.66648 -3.274449,0.66648 -1.537743,0 -2.826271,-0.22409 -3.86559,-0.67228 -1.039327,-0.44818 -1.854558,-1.12239 -2.445695,-2.02262 -0.591141,-0.90023 -0.902165,-1.9183 -0.933073,-3.05422 z"
         style="font-size:23.73831177px;font-style:normal;font-weight:normal;text-align:start;text-anchor:start;fill:#3475cd;font-family:Arial"
         id="path3260" />
    </g>
    <g
       transform="matrix(0.8571673,-0.51503807,0.51503807,0.8571673,0,0)"
       style="font-size:23.73831177px;font-style:normal;font-weight:normal;text-align:start;text-anchor:start;fill:#3475cd;font-family:Arial"
       id="text3110">
      <path
         d="m 106.53095,499.84018 0,-1.80819 c -0.9582,1.39091 -2.26025,2.08637 -3.90616,2.08637 -0.72637,0 -1.40444,-0.13909 -2.03422,-0.41727 -0.629775,-0.27819 -1.097277,-0.62785 -1.402503,-1.04899 -0.305231,-0.42113 -0.519664,-0.93693 -0.643299,-1.54739 -0.085,-0.40954 -0.127503,-1.05864 -0.127501,-1.94728 l 0,-7.62686 2.086373,0 0,6.82708 c 0,1.08956 0.0425,1.82365 0.1275,2.20228 0.13136,0.54865 0.40955,0.97944 0.83455,1.2924 0.425,0.31296 0.95046,0.46943 1.57637,0.46943 0.62591,0 1.21319,-0.16034 1.76183,-0.48102 0.54863,-0.32068 0.93693,-0.75728 1.1649,-1.30978 0.22794,-0.5525 0.34192,-1.35421 0.34193,-2.40513 l 0,-6.59526 2.08637,0 0,12.30961 z"
         style="font-size:23.73831177px;font-style:normal;font-weight:normal;text-align:start;text-anchor:start;fill:#3475cd;font-family:Arial"
         id="path3257" />
    </g>
    <g
       transform="matrix(0.8571673,-0.51503807,0.51503807,0.8571673,0,0)"
       style="font-size:23.73831177px;font-style:normal;font-weight:normal;text-align:start;text-anchor:start;fill:#3475cd;font-family:Arial"
       id="text3112">
      <path
         d="m 113.24353,500.27682 -1.93569,0 0,-16.99236 2.08637,0 0,6.06208 c 0.88091,-1.105 2.00523,-1.6575 3.37297,-1.65751 0.75727,10e-6 1.47398,0.15263 2.15013,0.45784 0.67613,0.30524 1.2325,0.73411 1.6691,1.2866 0.43658,0.55251 0.77852,1.21899 1.0258,1.99944 0.24726,0.78047 0.3709,1.61502 0.37091,2.50365 -1e-5,2.10956 -0.5216,3.74003 -1.56478,4.89139 -1.0432,1.15137 -2.29502,1.72706 -3.75547,1.72706 -1.45274,0 -2.59252,-0.6066 -3.41934,-1.81978 z m -0.0232,-6.24753 c -1e-5,1.47592 0.2009,2.54229 0.60273,3.19911 0.65681,1.0741 1.54546,1.61115 2.66592,1.61114 0.91182,10e-6 1.7,-0.39602 2.36456,-1.18807 0.66454,-0.79205 0.99681,-1.97239 0.99682,-3.54104 -1e-5,-1.60728 -0.31876,-2.79342 -0.95625,-3.55843 -0.63751,-0.76499 -1.40831,-1.1475 -2.3124,-1.14751 -0.91183,10e-6 -1.70002,0.39604 -2.36456,1.18808 -0.66455,0.79206 -0.99683,1.93763 -0.99682,3.43672 z"
         style="font-size:23.73831177px;font-style:normal;font-weight:normal;text-align:start;text-anchor:start;fill:#3475cd;font-family:Arial"
         id="path3254" />
    </g>
    <g
       transform="matrix(0.8571673,-0.51503807,0.51503807,0.8571673,0,0)"
       style="font-size:23.73831177px;font-style:normal;font-weight:normal;text-align:start;text-anchor:start;fill:#3475cd;font-family:Arial"
       id="text3114">
      <path
         d="m 123.98416,495.96824 2.06319,-0.32455 c 0.11591,0.82683 0.43853,1.46047 0.96785,1.90092 0.52932,0.44046 1.26921,0.66069 2.21967,0.66069 0.95818,0 1.66909,-0.19512 2.13274,-0.58535 0.46363,-0.39022 0.69545,-0.84807 0.69546,-1.37353 -1e-5,-0.47136 -0.20478,-0.84227 -0.61432,-1.11273 -0.28592,-0.18545 -0.99683,-0.42113 -2.13274,-0.70705 -1.53002,-0.38636 -2.59059,-0.72057 -3.18172,-1.00262 -0.59115,-0.28204 -1.03933,-0.67227 -1.34456,-1.17069 -0.30523,-0.4984 -0.45784,-1.04897 -0.45784,-1.65171 0,-0.54863 0.12557,-1.0567 0.37671,-1.52421 0.25113,-0.46749 0.59307,-0.85579 1.0258,-1.1649 0.32454,-0.23953 0.76693,-0.44237 1.32716,-0.60852 0.56023,-0.16613 1.16103,-0.2492 1.8024,-0.24921 0.96591,1e-5 1.81398,0.13911 2.54422,0.41728 0.73022,0.27819 1.2692,0.6549 1.61694,1.13012 0.34772,0.47524 0.58726,1.11081 0.71864,1.90671 l -2.04001,0.27819 c -0.0927,-0.63364 -0.36126,-1.12818 -0.80557,-1.48365 -0.44433,-0.35545 -1.07218,-0.53317 -1.88354,-0.53318 -0.95819,1e-5 -1.64206,0.15842 -2.0516,0.47523 -0.40955,0.31683 -0.61432,0.68774 -0.61432,1.11273 0,0.27046 0.085,0.51387 0.255,0.73023 0.17,0.2241 0.43659,0.40956 0.79978,0.55637 0.20863,0.0773 0.82295,0.25501 1.84296,0.53318 1.47591,0.3941 2.50558,0.71672 3.089,0.96785 0.5834,0.25114 1.04124,0.61626 1.37353,1.09534 0.33226,0.4791 0.4984,1.07411 0.49841,1.78501 -1e-5,0.69547 -0.20285,1.35036 -0.60853,1.96467 -0.40569,0.61433 -0.99104,1.08956 -1.75603,1.42569 -0.76501,0.33614 -1.63047,0.50421 -2.59638,0.50421 -1.59956,0 -2.81854,-0.33227 -3.65695,-0.99682 -0.83842,-0.66455 -1.37353,-1.64978 -1.60535,-2.9557 z"
         style="font-size:23.73831177px;font-style:normal;font-weight:normal;text-align:start;text-anchor:start;fill:#3475cd;font-family:Arial"
         id="path3251" />
    </g>
    <g
       transform="matrix(0.8571673,-0.51503807,0.51503807,0.8571673,0,0)"
       style="font-size:23.73831177px;font-style:normal;font-weight:normal;text-align:start;text-anchor:start;fill:#3475cd;font-family:Arial"
       id="text3116">
      <path
         d="m 144.63611,494.92687 2.05161,0.26659 c -0.22411,1.41411 -0.79786,2.52104 -1.72126,3.32082 -0.92343,0.79978 -2.05741,1.19966 -3.40195,1.19966 -1.68456,0 -3.03877,-0.55057 -4.06264,-1.65171 -1.02387,-1.10114 -1.53581,-2.67944 -1.5358,-4.73491 -1e-5,-1.32909 0.22022,-2.49205 0.66068,-3.48888 0.44046,-0.99682 1.1108,-1.74443 2.01103,-2.24286 0.90023,-0.4984 1.87967,-0.7476 2.93832,-0.74762 1.33681,2e-5 2.43023,0.33809 3.28024,1.01421 0.85,0.67616 1.39477,1.63627 1.63433,2.88036 l -2.02842,0.31296 c -0.19319,-0.82682 -0.53513,-1.44886 -1.0258,-1.86615 -0.49069,-0.41726 -1.08377,-0.6259 -1.77922,-0.62591 -1.05092,1e-5 -1.90478,0.37672 -2.5616,1.13012 -0.65683,0.75342 -0.98524,1.94536 -0.98523,3.57581 -1e-5,1.65365 0.31681,2.85525 0.95046,3.6048 0.63363,0.74955 1.46045,1.12432 2.48046,1.12432 0.81909,0 1.50296,-0.25114 2.05161,-0.75341 0.54863,-0.50228 0.89635,-1.27501 1.04318,-2.3182 z"
         style="font-size:23.73831177px;font-style:normal;font-weight:normal;text-align:start;text-anchor:start;fill:#3475cd;font-family:Arial"
         id="path3248" />
    </g>
    <g
       transform="matrix(0.8571673,-0.51503807,0.51503807,0.8571673,0,0)"
       style="font-size:23.73831177px;font-style:normal;font-weight:normal;text-align:start;text-anchor:start;fill:#3475cd;font-family:Arial"
       id="text3118">
      <path
         d="m 147.72174,500.2999 0,-12.30962 1.87774,0 0,1.86615 c 0.47909,-0.87318 0.92148,-1.44886 1.32717,-1.72705 0.40568,-0.27818 0.85193,-0.41727 1.33876,-0.41728 0.70317,10e-6 1.41795,0.2241 2.14433,0.67228 l -0.71864,1.93569 c -0.51001,-0.30136 -1.02002,-0.45204 -1.53001,-0.45205 -0.45592,10e-6 -0.86547,0.13717 -1.22865,0.41148 -0.36318,0.27433 -0.62205,0.6549 -0.77659,1.14171 -0.23182,0.74183 -0.34773,1.5532 -0.34773,2.43411 l 0,6.44458 z"
         style="font-size:23.73831177px;font-style:normal;font-weight:normal;text-align:start;text-anchor:start;fill:#3475cd;font-family:Arial"
         id="path3245" />
    </g>
    <g
       transform="matrix(0.8571673,-0.51503807,0.51503807,0.8571673,0,0)"
       style="font-size:23.73831177px;font-style:normal;font-weight:normal;text-align:start;text-anchor:start;fill:#3475cd;font-family:Arial"
       id="text3120">
      <path
         d="m 155.68509,484.64052 0,-2.39933 2.08638,0 0,2.39933 z m 0,14.59303 0,-12.30961 2.08638,0 0,12.30961 z"
         style="font-size:23.73831177px;font-style:normal;font-weight:normal;text-align:start;text-anchor:start;fill:#3475cd;font-family:Arial"
         id="path3242" />
    </g>
    <g
       transform="matrix(0.8571673,-0.51503807,0.51503807,0.8571673,0,0)"
       style="font-size:23.73831177px;font-style:normal;font-weight:normal;text-align:start;text-anchor:start;fill:#3475cd;font-family:Arial"
       id="text3122">
      <path
         d="m 163.16831,499.66562 -1.93569,0 0,-16.99237 2.08637,0 0,6.06208 c 0.88091,-1.10499 2.00524,-1.65749 3.37298,-1.65751 0.75727,2e-5 1.47397,0.15263 2.15012,0.45785 0.67613,0.30524 1.2325,0.7341 1.6691,1.28659 0.43658,0.55252 0.77852,1.219 1.0258,1.99945 0.24726,0.78046 0.3709,1.61501 0.37091,2.50365 -1e-5,2.10956 -0.5216,3.74002 -1.56478,4.89139 -1.04319,1.15137 -2.29502,1.72705 -3.75547,1.72705 -1.45274,0 -2.59252,-0.60659 -3.41934,-1.81978 z m -0.0232,-6.24754 c 0,1.47593 0.20091,2.5423 0.60273,3.19911 0.65682,1.0741 1.54546,1.61115 2.66592,1.61115 0.91182,0 1.7,-0.39602 2.36456,-1.18808 0.66454,-0.79204 0.99682,-1.97239 0.99683,-3.54104 -1e-5,-1.60727 -0.31877,-2.79341 -0.95626,-3.55843 -0.63751,-0.76499 -1.40831,-1.14749 -2.3124,-1.1475 -0.91183,10e-6 -1.70001,0.39603 -2.36456,1.18807 -0.66455,0.79206 -0.99682,1.93763 -0.99682,3.43672 z"
         style="font-size:23.73831177px;font-style:normal;font-weight:normal;text-align:start;text-anchor:start;fill:#3475cd;font-family:Arial"
         id="path3239" />
    </g>
    <g
       transform="matrix(0.8571673,-0.51503807,0.51503807,0.8571673,0,0)"
       style="font-size:23.73831177px;font-style:normal;font-weight:normal;text-align:start;text-anchor:start;fill:#3475cd;font-family:Arial"
       id="text3124">
      <path
         d="m 182.52665,496.13818 2.15592,0.26659 c -0.34001,1.25956 -0.96979,2.23706 -1.88933,2.93252 -0.91956,0.69546 -2.09411,1.04319 -3.52365,1.04319 -1.80047,0 -3.22809,-0.55444 -4.28287,-1.66331 -1.05478,-1.10886 -1.58217,-2.66398 -1.58216,-4.66536 -1e-5,-2.07092 0.53318,-3.67819 1.59955,-4.82185 1.06637,-1.14363 2.44955,-1.71545 4.14957,-1.71546 1.64591,10e-6 2.99046,0.56024 4.03366,1.68069 1.04317,1.12047 1.56477,2.69684 1.56478,4.72912 -1e-5,0.12364 -0.004,0.3091 -0.0116,0.55636 l -9.18005,0 c 0.0773,1.35229 0.45977,2.38775 1.1475,3.10638 0.68773,0.71865 1.54546,1.07797 2.5732,1.07796 0.765,1e-5 1.41795,-0.2009 1.95887,-0.60273 0.54091,-0.40181 0.96977,-1.04318 1.2866,-1.9241 z m -6.85026,-3.37297 6.87344,0 c -0.0927,-1.03545 -0.35546,-1.81205 -0.78818,-2.32979 -0.66456,-0.80363 -1.52616,-1.20545 -2.58479,-1.20546 -0.95819,10e-6 -1.76376,0.3207 -2.41672,0.96205 -0.65296,0.64138 -1.01421,1.49911 -1.08375,2.5732 z"
         style="font-size:23.73831177px;font-style:normal;font-weight:normal;text-align:start;text-anchor:start;fill:#3475cd;font-family:Arial"
         id="path3236" />
    </g>
    <path
       inkscape:connector-curvature="0"
       style="fill:#595959;fill-opacity:1;fill-rule:evenodd;stroke:none"
       d="m 575.14534,414.30369 c 13.04045,0 23.58214,-10.54168 23.58214,-23.58214 l 0,0 0,-62.31307 c 0,-13.04045 -10.54169,-23.58214 -23.58214,-23.58214 l 0,0 -89.72145,0 c -13.04046,0 -23.58214,10.54169 -23.58214,23.58214 l 0,0 0,62.31307 c 0,13.04046 10.54168,23.58214 23.58214,23.58214 l 0,0 89.72145,0 z"
       id="path3126" />
    <path
       inkscape:connector-curvature="0"
       style="fill:none;stroke:#000000;stroke-width:3.59198141px;stroke-linecap:round;stroke-linejoin:round;stroke-opacity:1;stroke-dasharray:none"
       d="m 575.14534,414.30369 c 13.04045,0 23.58214,-10.54168 23.58214,-23.58214 l 0,0 0,-62.31307 c 0,-13.04045 -10.54169,-23.58214 -23.58214,-23.58214 l 0,0 -89.72145,0 c -13.04046,0 -23.58214,10.54169 -23.58214,23.58214 l 0,0 0,62.31307 c 0,13.04046 10.54168,23.58214 23.58214,23.58214 l 0,0 89.72145,0 z"
       id="path3128" />
    <g
       style="font-size:23.73831177px;font-style:normal;font-weight:normal;text-align:start;text-anchor:start;fill:#ffffff;font-family:Arial"
       id="text3130">
      <path
         d="m 509.12743,352.30298 6.52572,-16.99237 2.42251,0 6.95458,16.99237 -2.5616,0 -1.98206,-5.14639 -7.10527,0 -1.86614,5.14639 z m 4.90298,-6.97777 5.76071,0 -1.77342,-4.70593 c -0.54092,-1.42954 -0.94274,-2.60409 -1.20546,-3.52366 -0.21637,1.08957 -0.5216,2.17139 -0.91568,3.24547 z"
         style="font-size:23.73831177px;font-style:normal;font-weight:normal;text-align:start;text-anchor:start;fill:#ffffff;font-family:Arial"
         id="path3122" />
      <path
         d="m 526.58343,357.0205 0,-17.02713 1.90092,0 0,1.59955 c 0.44818,-0.6259 0.95432,-1.09534 1.51842,-1.4083 0.56409,-0.31295 1.24795,-0.46943 2.0516,-0.46944 1.05091,1e-5 1.97818,0.27047 2.78183,0.81137 0.80363,0.54092 1.41023,1.304 1.81979,2.28922 0.40953,0.98524 0.61431,2.06513 0.61432,3.23967 -10e-6,1.25956 -0.22604,2.39354 -0.67807,3.40195 -0.45206,1.00842 -1.10888,1.78115 -1.97047,2.3182 -0.8616,0.53705 -1.76763,0.80557 -2.71808,0.80557 -0.69547,0 -1.31945,-0.14682 -1.87194,-0.44046 -0.55251,-0.29363 -1.00649,-0.66454 -1.36194,-1.11273 l 0,5.99253 z m 1.88933,-10.80278 c 0,1.5841 0.32068,2.75479 0.96205,3.51206 0.64136,0.75728 1.41796,1.13592 2.32979,1.13592 0.92727,0 1.72125,-0.39216 2.38194,-1.17649 0.66068,-0.78431 0.99102,-1.99943 0.99103,-3.64536 -10e-6,-1.56863 -0.32263,-2.74318 -0.96785,-3.52365 -0.64524,-0.78045 -1.41603,-1.17068 -2.3124,-1.17069 -0.88864,10e-6 -1.6749,0.41535 -2.35876,1.24603 -0.68387,0.83069 -1.0258,2.03809 -1.0258,3.62218 z"
         style="font-size:23.73831177px;font-style:normal;font-weight:normal;text-align:start;text-anchor:start;fill:#ffffff;font-family:Arial"
         id="path3124" />
      <path
         d="m 539.79714,357.0205 0,-17.02713 1.90092,0 0,1.59955 c 0.44818,-0.6259 0.95432,-1.09534 1.51842,-1.4083 0.56409,-0.31295 1.24795,-0.46943 2.0516,-0.46944 1.05091,1e-5 1.97818,0.27047 2.78183,0.81137 0.80363,0.54092 1.41023,1.304 1.81979,2.28922 0.40953,0.98524 0.61431,2.06513 0.61432,3.23967 -10e-6,1.25956 -0.22604,2.39354 -0.67807,3.40195 -0.45206,1.00842 -1.10888,1.78115 -1.97047,2.3182 -0.8616,0.53705 -1.76763,0.80557 -2.71808,0.80557 -0.69547,0 -1.31945,-0.14682 -1.87194,-0.44046 -0.55251,-0.29363 -1.00649,-0.66454 -1.36194,-1.11273 l 0,5.99253 z m 1.88933,-10.80278 c 0,1.5841 0.32068,2.75479 0.96205,3.51206 0.64136,0.75728 1.41796,1.13592 2.32979,1.13592 0.92727,0 1.72125,-0.39216 2.38194,-1.17649 0.66068,-0.78431 0.99102,-1.99943 0.99103,-3.64536 -10e-6,-1.56863 -0.32263,-2.74318 -0.96785,-3.52365 -0.64524,-0.78045 -1.41603,-1.17068 -2.3124,-1.17069 -0.88864,10e-6 -1.6749,0.41535 -2.35876,1.24603 -0.68387,0.83069 -1.0258,2.03809 -1.0258,3.62218 z"
         style="font-size:23.73831177px;font-style:normal;font-weight:normal;text-align:start;text-anchor:start;fill:#ffffff;font-family:Arial"
         id="path3127" />
    </g>
    <g
       style="font-size:23.73831177px;font-style:normal;font-weight:normal;text-align:start;text-anchor:start;fill:#ffffff;font-family:Arial"
       id="text3132">
      <path
         d="m 484.38681,375.08106 2.24864,0.56796 c -0.47138,1.84683 -1.31945,3.25513 -2.54421,4.22491 -1.2248,0.96977 -2.72196,1.45466 -4.49151,1.45466 -1.83138,0 -3.32082,-0.37284 -4.46832,-1.11853 -1.14751,-0.74568 -2.02069,-1.82557 -2.61956,-3.23967 -0.59886,-1.4141 -0.8983,-2.93251 -0.8983,-4.55526 0,-1.76954 0.33807,-3.31307 1.01421,-4.63059 0.67614,-1.31749 1.63819,-2.31818 2.88616,-3.00206 1.24795,-0.68385 2.62148,-1.02578 4.12059,-1.0258 1.7,2e-5 3.12955,0.43274 4.28866,1.29819 1.15908,0.86547 1.96658,2.08252 2.42251,3.65115 l -2.21388,0.5216 c -0.3941,-1.23636 -0.96592,-2.13659 -1.71546,-2.7007 -0.74956,-0.56408 -1.69229,-0.84612 -2.8282,-0.84614 -1.30592,2e-5 -2.3974,0.31297 -3.27445,0.93887 -0.87705,0.62592 -1.49331,1.46627 -1.84876,2.52104 -0.35546,1.05478 -0.53319,2.1424 -0.53318,3.26285 -1e-5,1.44502 0.21056,2.7065 0.63171,3.78446 0.42113,1.07796 1.07602,1.88353 1.96467,2.41671 0.88863,0.53319 1.85068,0.79978 2.88615,0.79978 1.25954,0 2.32591,-0.36318 3.19911,-1.08955 0.87317,-0.72636 1.46431,-1.80432 1.77342,-3.23388 z"
         style="font-size:23.73831177px;font-style:normal;font-weight:normal;text-align:start;text-anchor:start;fill:#ffffff;font-family:Arial"
         id="path3103" />
      <path
         d="m 488.3741,374.88401 c 0,-2.27955 0.63364,-3.96796 1.90092,-5.06525 1.05864,-0.91181 2.3491,-1.36773 3.87139,-1.36774 1.69227,10e-6 3.07546,0.55445 4.14956,1.66331 1.07409,1.10888 1.61114,2.64081 1.61115,4.59582 -1e-5,1.5841 -0.23763,2.83013 -0.71285,3.73809 -0.47524,0.90796 -1.16683,1.61307 -2.07478,2.11535 -0.90797,0.50227 -1.899,0.75341 -2.97308,0.75341 -1.7232,0 -3.11605,-0.5525 -4.17855,-1.65751 -1.06251,-1.105 -1.59376,-2.69683 -1.59376,-4.77548 z m 2.14433,0 c 0,1.57638 0.34386,2.75672 1.0316,3.54104 0.68772,0.78433 1.55318,1.17649 2.59638,1.17649 1.03545,0 1.89704,-0.39409 2.58478,-1.18228 0.68772,-0.78818 1.03159,-1.98978 1.0316,-3.60479 -10e-6,-1.52228 -0.34581,-2.67558 -1.03739,-3.45991 -0.69161,-0.78431 -1.55127,-1.17647 -2.57899,-1.17648 -1.0432,10e-6 -1.90866,0.39024 -2.59638,1.17069 -0.68774,0.78046 -1.0316,1.95888 -1.0316,3.53524 z"
         style="font-size:23.73831177px;font-style:normal;font-weight:normal;text-align:start;text-anchor:start;fill:#ffffff;font-family:Arial"
         id="path3105" />
      <path
         d="m 502.3644,381.03882 0,-12.30961 1.86615,0 0,1.72705 c 0.38636,-0.60272 0.90023,-1.08761 1.5416,-1.45467 0.64136,-0.36703 1.37159,-0.55056 2.19069,-0.55057 0.91182,10e-6 1.65944,0.18933 2.24286,0.56796 0.5834,0.37865 0.99488,0.90797 1.23444,1.58796 0.97363,-1.43727 2.2409,-2.15591 3.80184,-2.15592 1.2209,10e-6 2.15976,0.33808 2.8166,1.01421 0.65681,0.67615 0.98522,1.71741 0.98523,3.12377 l 0,8.44982 -2.07478,0 0,-7.75436 c -2e-5,-0.83454 -0.0676,-1.43534 -0.20284,-1.8024 -0.13525,-0.36704 -0.38059,-0.66261 -0.73603,-0.88671 -0.35547,-0.22408 -0.77274,-0.33613 -1.25182,-0.33614 -0.86548,1e-5 -1.58412,0.28786 -2.15592,0.86353 -0.57184,0.5757 -0.85775,1.49718 -0.85774,2.76445 l 0,7.15163 -2.08637,0 0,-7.99777 c -1e-5,-0.92727 -0.17001,-1.62273 -0.51,-2.08638 -0.34001,-0.46363 -0.89638,-0.69545 -1.6691,-0.69546 -0.58729,1e-5 -1.13013,0.15456 -1.62854,0.46364 -0.49841,0.30911 -0.85966,0.76115 -1.08375,1.35615 -0.2241,0.59501 -0.33614,1.45274 -0.33614,2.57319 l 0,6.38663 z"
         style="font-size:23.73831177px;font-style:normal;font-weight:normal;text-align:start;text-anchor:start;fill:#ffffff;font-family:Arial"
         id="path3107" />
      <path
         d="m 522.16179,385.75634 0,-17.02713 1.90091,0 0,1.59955 c 0.44819,-0.6259 0.95432,-1.09534 1.51842,-1.4083 0.56409,-0.31295 1.24796,-0.46943 2.0516,-0.46944 1.05091,10e-6 1.97819,0.27047 2.78184,0.81137 0.80363,0.54092 1.41022,1.304 1.81978,2.28922 0.40954,0.98524 0.61431,2.06513 0.61432,3.23967 -10e-6,1.25956 -0.22603,2.39354 -0.67807,3.40195 -0.45206,1.00842 -1.10888,1.78115 -1.97047,2.3182 -0.8616,0.53705 -1.76763,0.80557 -2.71808,0.80557 -0.69546,0 -1.31944,-0.14682 -1.87194,-0.44046 -0.55251,-0.29363 -1.00649,-0.66454 -1.36194,-1.11273 l 0,5.99253 z m 1.88932,-10.80278 c 0,1.5841 0.32068,2.75479 0.96205,3.51206 0.64137,0.75728 1.41796,1.13592 2.32979,1.13592 0.92727,0 1.72125,-0.39216 2.38194,-1.17649 0.66068,-0.78432 0.99102,-1.99943 0.99103,-3.64536 -10e-6,-1.56863 -0.32262,-2.74318 -0.96784,-3.52365 -0.64524,-0.78045 -1.41604,-1.17068 -2.3124,-1.17069 -0.88865,10e-6 -1.6749,0.41535 -2.35877,1.24603 -0.68387,0.83069 -1.0258,2.03809 -1.0258,3.62218 z"
         style="font-size:23.73831177px;font-style:normal;font-weight:normal;text-align:start;text-anchor:start;fill:#ffffff;font-family:Arial"
         id="path3109" />
      <path
         d="m 534.5989,374.88401 c 0,-2.27955 0.63364,-3.96796 1.90092,-5.06525 1.05864,-0.91181 2.3491,-1.36773 3.87139,-1.36774 1.69227,10e-6 3.07546,0.55445 4.14956,1.66331 1.07409,1.10888 1.61114,2.64081 1.61115,4.59582 -1e-5,1.5841 -0.23763,2.83013 -0.71285,3.73809 -0.47524,0.90796 -1.16683,1.61307 -2.07478,2.11535 -0.90797,0.50227 -1.899,0.75341 -2.97308,0.75341 -1.7232,0 -3.11605,-0.5525 -4.17855,-1.65751 -1.06251,-1.105 -1.59376,-2.69683 -1.59376,-4.77548 z m 2.14433,0 c 0,1.57638 0.34386,2.75672 1.0316,3.54104 0.68772,0.78433 1.55318,1.17649 2.59638,1.17649 1.03545,0 1.89704,-0.39409 2.58478,-1.18228 0.68772,-0.78818 1.03159,-1.98978 1.0316,-3.60479 -10e-6,-1.52228 -0.34581,-2.67558 -1.03739,-3.45991 -0.69161,-0.78431 -1.55127,-1.17647 -2.57899,-1.17648 -1.0432,10e-6 -1.90866,0.39024 -2.59638,1.17069 -0.68774,0.78046 -1.0316,1.95888 -1.0316,3.53524 z"
         style="font-size:23.73831177px;font-style:normal;font-weight:normal;text-align:start;text-anchor:start;fill:#ffffff;font-family:Arial"
         id="path3111" />
      <path
         d="m 548.5892,381.03882 0,-12.30961 1.87774,0 0,1.75023 c 0.90409,-1.35227 2.21001,-2.02841 3.91775,-2.02842 0.74181,10e-6 1.42375,0.13331 2.04581,0.39989 0.62203,0.26661 1.08761,0.61627 1.39671,1.04898 0.30908,0.43274 0.52544,0.94661 0.64909,1.5416 0.0773,0.38638 0.1159,1.06252 0.11591,2.02842 l 0,7.56891 -2.08637,0 0,-7.48777 c -1e-5,-0.85 -0.0811,-1.48557 -0.24341,-1.90671 -0.16229,-0.42113 -0.45013,-0.75727 -0.86353,-1.00842 -0.41342,-0.25113 -0.89831,-0.3767 -1.45467,-0.37671 -0.88864,1e-5 -1.65558,0.28206 -2.30081,0.84614 -0.64523,0.56411 -0.96785,1.63434 -0.96784,3.2107 l 0,6.72277 z"
         style="font-size:23.73831177px;font-style:normal;font-weight:normal;text-align:start;text-anchor:start;fill:#ffffff;font-family:Arial"
         id="path3113" />
      <path
         d="m 570.22955,377.07471 2.15592,0.26659 c -0.34002,1.25955 -0.96979,2.23706 -1.88933,2.93251 -0.91956,0.69546 -2.09411,1.04319 -3.52366,1.04319 -1.80047,0 -3.22809,-0.55443 -4.28286,-1.6633 -1.05478,-1.10887 -1.58217,-2.66399 -1.58217,-4.66537 0,-2.07091 0.53318,-3.67819 1.59956,-4.82184 1.06636,-1.14363 2.44955,-1.71546 4.14956,-1.71547 1.64591,10e-6 2.99047,0.56024 4.03366,1.68069 1.04318,1.12047 1.56477,2.69684 1.56478,4.72912 -10e-6,0.12364 -0.004,0.3091 -0.0116,0.55637 l -9.18005,0 c 0.0773,1.35228 0.45977,2.38774 1.14751,3.10638 0.68772,0.71864 1.54546,1.07796 2.57319,1.07796 0.765,0 1.41796,-0.20091 1.95888,-0.60273 0.5409,-0.40182 0.96977,-1.04319 1.2866,-1.9241 z m -6.85027,-3.37298 6.87345,0 c -0.0927,-1.03545 -0.35547,-1.81204 -0.78819,-2.32978 -0.66455,-0.80363 -1.52615,-1.20545 -2.58478,-1.20546 -0.9582,10e-6 -1.76377,0.32069 -2.41672,0.96205 -0.65296,0.64137 -1.01422,1.4991 -1.08376,2.57319 z"
         style="font-size:23.73831177px;font-style:normal;font-weight:normal;text-align:start;text-anchor:start;fill:#ffffff;font-family:Arial"
         id="path3115" />
      <path
         d="m 575.01662,381.03882 0,-12.30961 1.87774,0 0,1.75023 c 0.90409,-1.35227 2.21001,-2.02841 3.91775,-2.02842 0.74181,10e-6 1.42375,0.13331 2.04581,0.39989 0.62204,0.26661 1.08761,0.61627 1.39671,1.04898 0.30908,0.43274 0.52545,0.94661 0.64909,1.5416 0.0773,0.38638 0.1159,1.06252 0.11591,2.02842 l 0,7.56891 -2.08637,0 0,-7.48777 c -10e-6,-0.85 -0.0811,-1.48557 -0.24341,-1.90671 -0.16228,-0.42113 -0.45013,-0.75727 -0.86353,-1.00842 -0.41342,-0.25113 -0.89831,-0.3767 -1.45467,-0.37671 -0.88864,1e-5 -1.65558,0.28206 -2.3008,0.84614 -0.64524,0.56411 -0.96785,1.63434 -0.96785,3.2107 l 0,6.72277 z"
         style="font-size:23.73831177px;font-style:normal;font-weight:normal;text-align:start;text-anchor:start;fill:#ffffff;font-family:Arial"
         id="path3117" />
      <path
         d="m 592.78558,379.17267 0.30137,1.84297 c -0.58728,0.12363 -1.11274,0.18545 -1.57637,0.18545 -0.75728,0 -1.34456,-0.11977 -1.76183,-0.35932 -0.41728,-0.23954 -0.71092,-0.55443 -0.88091,-0.94466 -0.17001,-0.39023 -0.25501,-1.21126 -0.25501,-2.46308 l 0,-7.08209 -1.53,0 0,-1.62273 1.53,0 0,-3.04843 2.07479,-1.25183 0,4.30026 2.09796,0 0,1.62273 -2.09796,0 0,7.198 c -1e-5,0.595 0.0367,0.9775 0.11011,1.1475 0.0734,0.17001 0.19318,0.30523 0.35932,0.40569 0.16613,0.10045 0.40375,0.15068 0.71285,0.15068 0.23181,0 0.53704,-0.027 0.91568,-0.0811 z"
         style="font-size:23.73831177px;font-style:normal;font-weight:normal;text-align:start;text-anchor:start;fill:#ffffff;font-family:Arial"
         id="path3119" />
    </g>
    <path
       inkscape:connector-curvature="0"
       style="fill:none;stroke:#000000;stroke-width:3.59198141px;stroke-linecap:round;stroke-linejoin:round;stroke-opacity:1;stroke-dasharray:none"
       d="M 315.42946,446.47536 461.84175,359.56502"
       id="path3134" />
    <path
       inkscape:connector-curvature="0"
       style="fill:#595959;fill-opacity:1;fill-rule:evenodd;stroke:none"
       d="m 431.15373,760.92991 c 13.04046,0 23.58214,-10.54168 23.58214,-23.58214 l 0,0 0,-62.31307 c 0,-13.04045 -10.54168,-23.66022 -23.58214,-23.66022 l 0,0 -89.72145,0 c -13.04045,0 -23.66023,10.61977 -23.66023,23.66022 l 0,0 0,62.31307 c 0,13.04046 10.61978,23.58214 23.66023,23.58214 l 0,0 89.72145,0 z"
       id="path3136" />
    <path
       inkscape:connector-curvature="0"
       style="fill:none;stroke:#000000;stroke-width:3.59198141px;stroke-linecap:round;stroke-linejoin:round;stroke-opacity:1;stroke-dasharray:none"
       d="m 431.15373,760.92991 c 13.04046,0 23.58214,-10.54168 23.58214,-23.58214 l 0,0 0,-62.31307 c 0,-13.04045 -10.54168,-23.66022 -23.58214,-23.66022 l 0,0 -89.72145,0 c -13.04045,0 -23.66023,10.61977 -23.66023,23.66022 l 0,0 0,62.31307 c 0,13.04046 10.61978,23.58214 23.66023,23.58214 l 0,0 89.72145,0 z"
       id="path3138" />
    <g
       style="font-size:23.73831177px;font-style:normal;font-weight:normal;text-align:start;text-anchor:start;fill:#ffffff;font-family:Arial"
       id="text3140">
      <path
         d="m 365.44817,699.63196 6.52572,-16.99237 2.42251,0 6.95458,16.99237 -2.5616,0 -1.98206,-5.14639 -7.10527,0 -1.86614,5.14639 z m 4.90298,-6.97777 5.76071,0 -1.77342,-4.70593 c -0.54092,-1.42954 -0.94274,-2.60409 -1.20546,-3.52366 -0.21637,1.08957 -0.5216,2.17139 -0.91568,3.24547 z"
         style="font-size:23.73831177px;font-style:normal;font-weight:normal;text-align:start;text-anchor:start;fill:#ffffff;font-family:Arial"
         id="path3176" />
      <path
         d="m 382.90417,704.34948 0,-17.02713 1.90092,0 0,1.59955 c 0.44818,-0.6259 0.95432,-1.09534 1.51842,-1.4083 0.56409,-0.31295 1.24795,-0.46943 2.0516,-0.46944 1.05091,10e-6 1.97818,0.27047 2.78183,0.81137 0.80363,0.54092 1.41023,1.30399 1.81979,2.28922 0.40953,0.98524 0.61431,2.06513 0.61432,3.23967 -10e-6,1.25956 -0.22604,2.39354 -0.67807,3.40195 -0.45206,1.00842 -1.10888,1.78115 -1.97047,2.3182 -0.8616,0.53705 -1.76763,0.80557 -2.71808,0.80557 -0.69547,0 -1.31945,-0.14682 -1.87194,-0.44046 -0.55251,-0.29363 -1.00649,-0.66454 -1.36194,-1.11273 l 0,5.99253 z m 1.88933,-10.80278 c 0,1.5841 0.32068,2.75479 0.96205,3.51206 0.64136,0.75728 1.41796,1.13592 2.32979,1.13592 0.92727,0 1.72125,-0.39216 2.38194,-1.17649 0.66068,-0.78432 0.99102,-1.99943 0.99103,-3.64536 -10e-6,-1.56863 -0.32263,-2.74318 -0.96785,-3.52365 -0.64524,-0.78045 -1.41603,-1.17068 -2.3124,-1.17069 -0.88864,10e-6 -1.6749,0.41535 -2.35876,1.24603 -0.68387,0.83069 -1.0258,2.03809 -1.0258,3.62218 z"
         style="font-size:23.73831177px;font-style:normal;font-weight:normal;text-align:start;text-anchor:start;fill:#ffffff;font-family:Arial"
         id="path3178" />
      <path
         d="m 396.11788,704.34948 0,-17.02713 1.90092,0 0,1.59955 c 0.44818,-0.6259 0.95432,-1.09534 1.51842,-1.4083 0.56409,-0.31295 1.24795,-0.46943 2.0516,-0.46944 1.05091,10e-6 1.97818,0.27047 2.78183,0.81137 0.80363,0.54092 1.41023,1.30399 1.81979,2.28922 0.40953,0.98524 0.61431,2.06513 0.61432,3.23967 -10e-6,1.25956 -0.22604,2.39354 -0.67807,3.40195 -0.45206,1.00842 -1.10888,1.78115 -1.97047,2.3182 -0.8616,0.53705 -1.76763,0.80557 -2.71808,0.80557 -0.69547,0 -1.31945,-0.14682 -1.87194,-0.44046 -0.55251,-0.29363 -1.00649,-0.66454 -1.36194,-1.11273 l 0,5.99253 z m 1.88933,-10.80278 c 0,1.5841 0.32068,2.75479 0.96205,3.51206 0.64136,0.75728 1.41796,1.13592 2.32979,1.13592 0.92727,0 1.72125,-0.39216 2.38194,-1.17649 0.66068,-0.78432 0.99102,-1.99943 0.99103,-3.64536 -10e-6,-1.56863 -0.32263,-2.74318 -0.96785,-3.52365 -0.64524,-0.78045 -1.41603,-1.17068 -2.3124,-1.17069 -0.88864,10e-6 -1.6749,0.41535 -2.35876,1.24603 -0.68387,0.83069 -1.0258,2.03809 -1.0258,3.62218 z"
         style="font-size:23.73831177px;font-style:normal;font-weight:normal;text-align:start;text-anchor:start;fill:#ffffff;font-family:Arial"
         id="path3180" />
    </g>
    <g
       style="font-size:23.73831177px;font-style:normal;font-weight:normal;text-align:start;text-anchor:start;fill:#ffffff;font-family:Arial"
       id="text3142">
      <path
         d="m 339.45816,721.16071 2.24864,0.56796 c -0.47138,1.84683 -1.31945,3.25513 -2.54421,4.22491 -1.2248,0.96977 -2.72196,1.45466 -4.49151,1.45466 -1.83138,0 -3.32082,-0.37284 -4.46832,-1.11853 -1.14751,-0.74568 -2.02069,-1.82557 -2.61956,-3.23967 -0.59886,-1.4141 -0.8983,-2.93251 -0.8983,-4.55525 0,-1.76955 0.33807,-3.31308 1.01421,-4.6306 0.67614,-1.31749 1.63819,-2.31818 2.88616,-3.00206 1.24795,-0.68385 2.62148,-1.02578 4.12059,-1.0258 1.7,2e-5 3.12955,0.43275 4.28866,1.29819 1.15908,0.86547 1.96658,2.08252 2.42251,3.65115 l -2.21388,0.5216 c -0.3941,-1.23636 -0.96592,-2.13659 -1.71546,-2.7007 -0.74956,-0.56408 -1.69229,-0.84612 -2.8282,-0.84614 -1.30592,2e-5 -2.3974,0.31297 -3.27445,0.93887 -0.87705,0.62593 -1.4933,1.46627 -1.84876,2.52104 -0.35546,1.05479 -0.53319,2.1424 -0.53318,3.26285 -1e-5,1.44502 0.21056,2.7065 0.63171,3.78446 0.42113,1.07796 1.07602,1.88353 1.96467,2.41672 0.88863,0.53318 1.85068,0.79977 2.88615,0.79977 1.25954,0 2.32591,-0.36318 3.19911,-1.08955 0.87317,-0.72636 1.46431,-1.80432 1.77342,-3.23388 z"
         style="font-size:23.73831177px;font-style:normal;font-weight:normal;text-align:start;text-anchor:start;fill:#ffffff;font-family:Arial"
         id="path3157" />
      <path
         d="m 343.44545,720.96366 c 0,-2.27955 0.63364,-3.96796 1.90092,-5.06525 1.05864,-0.91181 2.3491,-1.36772 3.87139,-1.36774 1.69227,2e-5 3.07546,0.55445 4.14956,1.66331 1.07409,1.10888 1.61114,2.64082 1.61115,4.59582 -1e-5,1.5841 -0.23763,2.83013 -0.71285,3.73809 -0.47524,0.90796 -1.16683,1.61307 -2.07478,2.11535 -0.90797,0.50227 -1.899,0.75341 -2.97308,0.75341 -1.7232,0 -3.11605,-0.5525 -4.17855,-1.65751 -1.06251,-1.105 -1.59376,-2.69683 -1.59376,-4.77548 z m 2.14433,0 c 0,1.57638 0.34386,2.75673 1.0316,3.54104 0.68772,0.78433 1.55318,1.17649 2.59638,1.17649 1.03545,0 1.89704,-0.39409 2.58478,-1.18228 0.68772,-0.78818 1.03159,-1.98978 1.0316,-3.60479 -10e-6,-1.52228 -0.34581,-2.67558 -1.03739,-3.45991 -0.69161,-0.78431 -1.55127,-1.17647 -2.57899,-1.17648 -1.0432,10e-6 -1.90866,0.39024 -2.59638,1.17069 -0.68774,0.78046 -1.0316,1.95888 -1.0316,3.53524 z"
         style="font-size:23.73831177px;font-style:normal;font-weight:normal;text-align:start;text-anchor:start;fill:#ffffff;font-family:Arial"
         id="path3159" />
      <path
         d="m 357.43575,727.11847 0,-12.30961 1.86615,0 0,1.72705 c 0.38636,-0.60272 0.90023,-1.08761 1.5416,-1.45467 0.64136,-0.36703 1.37159,-0.55055 2.19069,-0.55057 0.91182,2e-5 1.65944,0.18933 2.24286,0.56796 0.5834,0.37865 0.99488,0.90797 1.23444,1.58796 0.97363,-1.43726 2.2409,-2.1559 3.80184,-2.15592 1.2209,2e-5 2.15976,0.33809 2.8166,1.01421 0.65681,0.67615 0.98522,1.71741 0.98523,3.12377 l 0,8.44982 -2.07478,0 0,-7.75436 c -2e-5,-0.83454 -0.0676,-1.43534 -0.20284,-1.8024 -0.13525,-0.36704 -0.38059,-0.6626 -0.73603,-0.88671 -0.35547,-0.22408 -0.77274,-0.33612 -1.25182,-0.33614 -0.86548,2e-5 -1.58412,0.28786 -2.15592,0.86353 -0.57184,0.5757 -0.85775,1.49718 -0.85774,2.76445 l 0,7.15163 -2.08637,0 0,-7.99777 c -1e-5,-0.92727 -0.17001,-1.62273 -0.51,-2.08638 -0.34001,-0.46363 -0.89638,-0.69544 -1.6691,-0.69546 -0.58729,2e-5 -1.13013,0.15456 -1.62854,0.46364 -0.49841,0.30911 -0.85966,0.76115 -1.08375,1.35615 -0.2241,0.59501 -0.33614,1.45274 -0.33614,2.57319 l 0,6.38663 z"
         style="font-size:23.73831177px;font-style:normal;font-weight:normal;text-align:start;text-anchor:start;fill:#ffffff;font-family:Arial"
         id="path3161" />
      <path
         d="m 377.23314,731.836 0,-17.02714 1.90091,0 0,1.59955 c 0.44819,-0.6259 0.95432,-1.09533 1.51842,-1.4083 0.56409,-0.31295 1.24796,-0.46942 2.0516,-0.46944 1.05091,2e-5 1.97819,0.27047 2.78184,0.81137 0.80363,0.54092 1.41022,1.304 1.81978,2.28922 0.40954,0.98524 0.61431,2.06513 0.61432,3.23968 -10e-6,1.25955 -0.22603,2.39353 -0.67807,3.40195 -0.45206,1.00841 -1.10888,1.78114 -1.97047,2.31819 -0.8616,0.53705 -1.76763,0.80557 -2.71808,0.80557 -0.69546,0 -1.31944,-0.14682 -1.87194,-0.44045 -0.55251,-0.29364 -1.00649,-0.66455 -1.36194,-1.11274 l 0,5.99254 z m 1.88932,-10.80279 c 0,1.5841 0.32068,2.75479 0.96205,3.51206 0.64137,0.75728 1.41796,1.13592 2.32979,1.13592 0.92727,0 1.72125,-0.39216 2.38194,-1.17649 0.66068,-0.78431 0.99102,-1.99943 0.99103,-3.64536 -10e-6,-1.56863 -0.32262,-2.74318 -0.96784,-3.52365 -0.64524,-0.78045 -1.41604,-1.17068 -2.3124,-1.17069 -0.88865,1e-5 -1.6749,0.41535 -2.35877,1.24603 -0.68387,0.83069 -1.0258,2.03809 -1.0258,3.62218 z"
         style="font-size:23.73831177px;font-style:normal;font-weight:normal;text-align:start;text-anchor:start;fill:#ffffff;font-family:Arial"
         id="path3163" />
      <path
         d="m 389.67025,720.96366 c 0,-2.27955 0.63364,-3.96796 1.90092,-5.06525 1.05864,-0.91181 2.3491,-1.36772 3.87139,-1.36774 1.69227,2e-5 3.07546,0.55445 4.14956,1.66331 1.07409,1.10888 1.61114,2.64082 1.61115,4.59582 -10e-6,1.5841 -0.23763,2.83013 -0.71285,3.73809 -0.47524,0.90796 -1.16683,1.61307 -2.07478,2.11535 -0.90797,0.50227 -1.899,0.75341 -2.97308,0.75341 -1.7232,0 -3.11605,-0.5525 -4.17855,-1.65751 -1.06251,-1.105 -1.59376,-2.69683 -1.59376,-4.77548 z m 2.14433,0 c 0,1.57638 0.34386,2.75673 1.0316,3.54104 0.68772,0.78433 1.55318,1.17649 2.59638,1.17649 1.03545,0 1.89704,-0.39409 2.58478,-1.18228 0.68772,-0.78818 1.03159,-1.98978 1.0316,-3.60479 -1e-5,-1.52228 -0.34581,-2.67558 -1.03739,-3.45991 -0.69161,-0.78431 -1.55127,-1.17647 -2.57899,-1.17648 -1.0432,10e-6 -1.90866,0.39024 -2.59638,1.17069 -0.68774,0.78046 -1.0316,1.95888 -1.0316,3.53524 z"
         style="font-size:23.73831177px;font-style:normal;font-weight:normal;text-align:start;text-anchor:start;fill:#ffffff;font-family:Arial"
         id="path3165" />
      <path
         d="m 403.66055,727.11847 0,-12.30961 1.87774,0 0,1.75023 c 0.90409,-1.35226 2.21001,-2.0284 3.91775,-2.02842 0.74181,2e-5 1.42375,0.13331 2.04581,0.39989 0.62203,0.26661 1.08761,0.61627 1.39671,1.04898 0.30908,0.43274 0.52544,0.94661 0.64909,1.5416 0.0773,0.38638 0.1159,1.06252 0.11591,2.02842 l 0,7.56891 -2.08637,0 0,-7.48777 c -10e-6,-0.85 -0.0811,-1.48557 -0.24341,-1.90671 -0.16229,-0.42113 -0.45013,-0.75727 -0.86353,-1.00842 -0.41342,-0.25113 -0.89831,-0.37669 -1.45467,-0.37671 -0.88864,2e-5 -1.65558,0.28206 -2.30081,0.84615 -0.64523,0.5641 -0.96785,1.63433 -0.96784,3.2107 l 0,6.72276 z"
         style="font-size:23.73831177px;font-style:normal;font-weight:normal;text-align:start;text-anchor:start;fill:#ffffff;font-family:Arial"
         id="path3167" />
      <path
         d="m 425.3009,723.15436 2.15592,0.26659 c -0.34002,1.25955 -0.96979,2.23706 -1.88933,2.93252 -0.91956,0.69545 -2.09411,1.04318 -3.52366,1.04318 -1.80047,0 -3.22809,-0.55443 -4.28286,-1.6633 -1.05478,-1.10887 -1.58217,-2.66399 -1.58217,-4.66537 0,-2.07091 0.53319,-3.67819 1.59956,-4.82184 1.06636,-1.14363 2.44955,-1.71545 4.14956,-1.71547 1.64591,2e-5 2.99047,0.56025 4.03366,1.68069 1.04318,1.12047 1.56477,2.69685 1.56478,4.72912 -1e-5,0.12364 -0.004,0.3091 -0.0116,0.55637 l -9.18005,0 c 0.0773,1.35228 0.45977,2.38774 1.14751,3.10638 0.68773,0.71864 1.54546,1.07796 2.57319,1.07796 0.765,0 1.41796,-0.20091 1.95888,-0.60273 0.5409,-0.40182 0.96977,-1.04319 1.2866,-1.9241 z m -6.85027,-3.37298 6.87345,0 c -0.0927,-1.03545 -0.35547,-1.81204 -0.78819,-2.32978 -0.66455,-0.80363 -1.52615,-1.20545 -2.58478,-1.20546 -0.9582,10e-6 -1.76377,0.32069 -2.41672,0.96205 -0.65296,0.64137 -1.01422,1.49911 -1.08376,2.57319 z"
         style="font-size:23.73831177px;font-style:normal;font-weight:normal;text-align:start;text-anchor:start;fill:#ffffff;font-family:Arial"
         id="path3169" />
      <path
         d="m 430.08797,727.11847 0,-12.30961 1.87774,0 0,1.75023 c 0.90409,-1.35226 2.21001,-2.0284 3.91775,-2.02842 0.74182,2e-5 1.42375,0.13331 2.04581,0.39989 0.62204,0.26661 1.08761,0.61627 1.39671,1.04898 0.30908,0.43274 0.52545,0.94661 0.64909,1.5416 0.0773,0.38638 0.1159,1.06252 0.11591,2.02842 l 0,7.56891 -2.08637,0 0,-7.48777 c -1e-5,-0.85 -0.0812,-1.48557 -0.24341,-1.90671 -0.16228,-0.42113 -0.45013,-0.75727 -0.86353,-1.00842 -0.41342,-0.25113 -0.89831,-0.37669 -1.45467,-0.37671 -0.88864,2e-5 -1.65558,0.28206 -2.3008,0.84615 -0.64524,0.5641 -0.96785,1.63433 -0.96785,3.2107 l 0,6.72276 z"
         style="font-size:23.73831177px;font-style:normal;font-weight:normal;text-align:start;text-anchor:start;fill:#ffffff;font-family:Arial"
         id="path3171" />
      <path
         d="m 447.85693,725.25232 0.30137,1.84297 c -0.58728,0.12363 -1.11274,0.18545 -1.57637,0.18545 -0.75728,0 -1.34456,-0.11977 -1.76183,-0.35932 -0.41728,-0.23954 -0.71092,-0.55443 -0.88091,-0.94466 -0.17001,-0.39023 -0.25501,-1.21126 -0.25501,-2.46308 l 0,-7.08209 -1.53,0 0,-1.62273 1.53,0 0,-3.04843 2.07479,-1.25182 0,4.30025 2.09796,0 0,1.62273 -2.09796,0 0,7.198 c -10e-6,0.595 0.0367,0.9775 0.11011,1.1475 0.0734,0.17001 0.19318,0.30523 0.35932,0.40569 0.16613,0.10045 0.40375,0.15068 0.71285,0.15068 0.23181,0 0.53704,-0.027 0.91568,-0.0811 z"
         style="font-size:23.73831177px;font-style:normal;font-weight:normal;text-align:start;text-anchor:start;fill:#ffffff;font-family:Arial"
         id="path3173" />
    </g>
    <path
       inkscape:connector-curvature="0"
       style="fill:none;stroke:#000000;stroke-width:3.59198141px;stroke-linecap:round;stroke-linejoin:round;stroke-opacity:1;stroke-dasharray:none"
       d="m 275.29297,557.43635 110.96099,93.93813"
       id="path3144" />
    <path
       inkscape:connector-curvature="0"
       style="fill:none;stroke:#3475cd;stroke-width:5.23179913px;stroke-linecap:round;stroke-linejoin:round;stroke-opacity:1;stroke-dasharray:none"
       d="M 435.83893,521.98505 344.94618,494.34241"
       id="path3146" />
    <path
       inkscape:connector-curvature="0"
       style="fill:#3475cd;fill-opacity:1;fill-rule:evenodd;stroke:none"
       d="m 344.39957,505.27453 -17.17904,-16.32009 23.34788,-3.98241 -6.16884,20.3025 z"
       id="path3148" />
    <g
       transform="matrix(0.95630476,0.2923717,-0.2923717,0.95630476,0,0)"
       style="font-size:23.73831177px;font-style:normal;font-weight:normal;text-align:start;text-anchor:start;fill:#3475cd;font-family:Arial"
       id="text3150">
      <path
         d="m 461.16998,347.69443 2.12114,-0.18546 c 0.10046,0.85001 0.33421,1.5474 0.70126,2.09217 0.36704,0.54478 0.93693,0.98524 1.70967,1.32138 0.77272,0.33614 1.64204,0.5042 2.60797,0.5042 0.85772,0 1.61499,-0.1275 2.27183,-0.3825 0.65681,-0.255 1.14556,-0.60466 1.46625,-1.04898 0.32068,-0.44432 0.48102,-0.92921 0.48103,-1.45467 -1e-5,-0.53318 -0.15456,-0.99875 -0.46364,-1.39671 -0.3091,-0.39795 -0.81911,-0.73216 -1.53001,-1.00262 -0.45592,-0.17772 -1.46433,-0.45397 -3.02524,-0.82875 -1.56092,-0.37477 -2.65434,-0.7283 -3.28025,-1.06058 -0.81137,-0.42499 -1.41603,-0.95238 -1.81398,-1.58217 -0.39796,-0.62976 -0.59694,-1.33488 -0.59694,-2.11535 0,-0.85772 0.24341,-1.65943 0.73023,-2.40513 0.48682,-0.74567 1.19773,-1.31169 2.13274,-1.69807 0.935,-0.38635 1.97432,-0.57953 3.11797,-0.57955 1.25955,2e-5 2.37035,0.20286 3.33241,0.60852 0.96204,0.4057 1.70193,1.00264 2.21967,1.79081 0.51772,0.7882 0.7959,1.6807 0.83455,2.67751 l -2.15592,0.16228 c -0.11592,-1.07409 -0.50808,-1.88545 -1.17649,-2.43411 -0.66842,-0.54862 -1.65558,-0.82294 -2.96149,-0.82296 -1.36001,2e-5 -2.35104,0.24923 -2.97308,0.74762 -0.62206,0.49843 -0.93308,1.09923 -0.93308,1.8024 0,0.61047 0.22023,1.11274 0.66069,1.50682 0.43272,0.39411 1.56284,0.79786 3.39036,1.21126 1.8275,0.41342 3.08125,0.77467 3.76127,1.08376 0.98908,0.45592 1.71931,1.03353 2.19069,1.73285 0.47135,0.69933 0.70704,1.5049 0.70705,2.41672 -10e-6,0.9041 -0.25888,1.75603 -0.77659,2.5558 -0.51775,0.79978 -1.2615,1.42183 -2.23127,1.86615 -0.96978,0.44432 -2.06127,0.66648 -3.27445,0.66648 -1.53774,0 -2.82627,-0.22409 -3.86558,-0.67227 -1.03933,-0.44819 -1.85456,-1.1224 -2.4457,-2.02263 -0.59114,-0.90023 -0.90217,-1.9183 -0.93307,-3.05422 z"
         style="font-size:23.73831177px;font-style:normal;font-weight:normal;text-align:start;text-anchor:start;fill:#3475cd;font-family:Arial"
         id="path3233" />
    </g>
    <g
       transform="matrix(0.95630476,0.2923717,-0.2923717,0.95630476,0,0)"
       style="font-size:23.73831177px;font-style:normal;font-weight:normal;text-align:start;text-anchor:start;fill:#3475cd;font-family:Arial"
       id="text3152">
      <path
         d="m 485.53435,353.54953 0,-1.80819 c -0.9582,1.39092 -2.26025,2.08637 -3.90616,2.08637 -0.72637,0 -1.40444,-0.13909 -2.03421,-0.41727 -0.62978,-0.27818 -1.09728,-0.62785 -1.40251,-1.04898 -0.30523,-0.42114 -0.51966,-0.93694 -0.6433,-1.5474 -0.085,-0.40954 -0.1275,-1.05864 -0.1275,-1.94728 l 0,-7.62686 2.08637,0 0,6.82708 c 0,1.08956 0.0425,1.82365 0.12751,2.20228 0.13136,0.54865 0.40954,0.97944 0.83455,1.2924 0.42499,0.31296 0.95045,0.46943 1.57637,0.46943 0.6259,0 1.21318,-0.16034 1.76183,-0.48102 0.54863,-0.32068 0.93692,-0.75728 1.16489,-1.30978 0.22794,-0.5525 0.34192,-1.35421 0.34193,-2.40513 l 0,-6.59526 2.08638,0 0,12.30961 z"
         style="font-size:23.73831177px;font-style:normal;font-weight:normal;text-align:start;text-anchor:start;fill:#3475cd;font-family:Arial"
         id="path3230" />
    </g>
    <g
       transform="matrix(0.95630476,0.2923717,-0.2923717,0.95630476,0,0)"
       style="font-size:23.73831177px;font-style:normal;font-weight:normal;text-align:start;text-anchor:start;fill:#3475cd;font-family:Arial"
       id="text3154">
      <path
         d="m 492.4349,353.48108 -1.9357,0 0,-16.99237 2.08638,0 0,6.06208 c 0.88091,-1.10499 2.00523,-1.65749 3.37297,-1.65751 0.75727,2e-5 1.47398,0.15263 2.15013,0.45785 0.67613,0.30524 1.23249,0.7341 1.6691,1.28659 0.43658,0.55252 0.77851,1.219 1.0258,1.99945 0.24726,0.78046 0.3709,1.61501 0.37091,2.50365 -10e-6,2.10956 -0.52161,3.74002 -1.56478,4.89139 -1.0432,1.15137 -2.29502,1.72705 -3.75548,1.72705 -1.45274,0 -2.59251,-0.60659 -3.41933,-1.81978 z m -0.0232,-6.24754 c -10e-6,1.47593 0.2009,2.5423 0.60273,3.19911 0.65681,1.0741 1.54545,1.61115 2.66592,1.61115 0.91181,0 1.7,-0.39602 2.36456,-1.18808 0.66454,-0.79204 0.99681,-1.97239 0.99682,-3.54104 -10e-6,-1.60727 -0.31876,-2.79341 -0.95625,-3.55843 -0.63752,-0.76499 -1.40831,-1.14749 -2.3124,-1.1475 -0.91183,1e-5 -1.70002,0.39603 -2.36456,1.18807 -0.66455,0.79206 -0.99683,1.93763 -0.99682,3.43672 z"
         style="font-size:23.73831177px;font-style:normal;font-weight:normal;text-align:start;text-anchor:start;fill:#3475cd;font-family:Arial"
         id="path3227" />
    </g>
    <g
       transform="matrix(0.95630476,0.2923717,-0.2923717,0.95630476,0,0)"
       style="font-size:23.73831177px;font-style:normal;font-weight:normal;text-align:start;text-anchor:start;fill:#3475cd;font-family:Arial"
       id="text3156">
      <path
         d="m 502.72004,349.73826 2.06319,-0.32455 c 0.11591,0.82683 0.43852,1.46047 0.96785,1.90092 0.52931,0.44046 1.2692,0.66069 2.21967,0.66069 0.95818,0 1.66909,-0.19512 2.13274,-0.58535 0.46363,-0.39022 0.69545,-0.84807 0.69546,-1.37353 -10e-6,-0.47136 -0.20479,-0.84227 -0.61433,-1.11273 -0.28591,-0.18545 -0.99683,-0.42113 -2.13273,-0.70705 -1.53002,-0.38636 -2.59059,-0.72057 -3.18173,-1.00262 -0.59114,-0.28204 -1.03932,-0.67227 -1.34455,-1.17069 -0.30523,-0.4984 -0.45784,-1.04897 -0.45784,-1.65171 0,-0.54863 0.12557,-1.0567 0.3767,-1.52421 0.25114,-0.4675 0.59307,-0.85579 1.02581,-1.1649 0.32454,-0.23953 0.76693,-0.44237 1.32716,-0.60852 0.56023,-0.16613 1.16103,-0.2492 1.8024,-0.24921 0.96591,1e-5 1.81398,0.13911 2.54422,0.41728 0.73022,0.27819 1.2692,0.6549 1.61694,1.13012 0.34772,0.47524 0.58726,1.11081 0.71864,1.90671 l -2.04001,0.27818 c -0.0927,-0.63363 -0.36126,-1.12817 -0.80558,-1.48364 -0.44432,-0.35545 -1.07217,-0.53317 -1.88353,-0.53318 -0.95819,10e-6 -1.64206,0.15842 -2.0516,0.47523 -0.40955,0.31683 -0.61433,0.68774 -0.61432,1.11273 -1e-5,0.27046 0.085,0.51387 0.255,0.73023 0.17,0.2241 0.43659,0.40956 0.79978,0.55637 0.20863,0.0773 0.82295,0.25501 1.84296,0.53318 1.47591,0.3941 2.50557,0.71672 3.08899,0.96785 0.58341,0.25114 1.04125,0.61626 1.37353,1.09534 0.33227,0.4791 0.49841,1.07411 0.49842,1.78501 -10e-6,0.69547 -0.20286,1.35035 -0.60853,1.96467 -0.40569,0.61433 -0.99104,1.08956 -1.75603,1.42569 -0.76501,0.33614 -1.63047,0.50421 -2.59638,0.50421 -1.59956,0 -2.81854,-0.33227 -3.65695,-0.99682 -0.83842,-0.66455 -1.37353,-1.64978 -1.60535,-2.9557 z"
         style="font-size:23.73831177px;font-style:normal;font-weight:normal;text-align:start;text-anchor:start;fill:#3475cd;font-family:Arial"
         id="path3224" />
    </g>
    <g
       transform="matrix(0.95630476,0.2923717,-0.2923717,0.95630476,0,0)"
       style="font-size:23.73831177px;font-style:normal;font-weight:normal;text-align:start;text-anchor:start;fill:#3475cd;font-family:Arial"
       id="text3158">
      <path
         d="m 523.43613,349.20052 2.0516,0.2666 c -0.2241,1.4141 -0.79785,2.52103 -1.72126,3.32081 -0.92342,0.79978 -2.0574,1.19966 -3.40195,1.19966 -1.68456,0 -3.03877,-0.55057 -4.06263,-1.65171 -1.02387,-1.10114 -1.53581,-2.67944 -1.53581,-4.73491 0,-1.32909 0.22023,-2.49205 0.66069,-3.48888 0.44045,-0.99682 1.1108,-1.74443 2.01103,-2.24286 0.90023,-0.4984 1.87967,-0.7476 2.93831,-0.74761 1.33682,10e-6 2.43024,0.33808 3.28025,1.01421 0.84999,0.67615 1.39477,1.63626 1.63433,2.88035 l -2.02842,0.31296 c -0.1932,-0.82682 -0.53513,-1.44886 -1.0258,-1.86615 -0.4907,-0.41726 -1.08377,-0.6259 -1.77922,-0.62591 -1.05092,10e-6 -1.90479,0.37672 -2.5616,1.13012 -0.65683,0.75342 -0.98524,1.94536 -0.98524,3.57581 0,1.65365 0.31682,2.85525 0.95046,3.6048 0.63364,0.74955 1.46046,1.12432 2.48047,1.12432 0.81909,0 1.50296,-0.25114 2.0516,-0.75341 0.54863,-0.50227 0.89636,-1.27501 1.04319,-2.3182 z"
         style="font-size:23.73831177px;font-style:normal;font-weight:normal;text-align:start;text-anchor:start;fill:#3475cd;font-family:Arial"
         id="path3221" />
    </g>
    <g
       transform="matrix(0.95630476,0.2923717,-0.2923717,0.95630476,0,0)"
       style="font-size:23.73831177px;font-style:normal;font-weight:normal;text-align:start;text-anchor:start;fill:#3475cd;font-family:Arial"
       id="text3160">
      <path
         d="m 526.86411,352.81143 0,-12.30961 1.87774,0 0,1.86615 c 0.47909,-0.87318 0.92147,-1.44886 1.32716,-1.72706 0.40568,-0.27817 0.85193,-0.41726 1.33876,-0.41727 0.70318,1e-5 1.41796,0.2241 2.14433,0.67227 l -0.71864,1.93569 c -0.51001,-0.30135 -1.02001,-0.45203 -1.53001,-0.45204 -0.45592,10e-6 -0.86546,0.13717 -1.22864,0.41148 -0.36319,0.27433 -0.62205,0.6549 -0.7766,1.14171 -0.23182,0.74183 -0.34773,1.55319 -0.34773,2.4341 l 0,6.44458 z"
         style="font-size:23.73831177px;font-style:normal;font-weight:normal;text-align:start;text-anchor:start;fill:#3475cd;font-family:Arial"
         id="path3218" />
    </g>
    <g
       transform="matrix(0.95630476,0.2923717,-0.2923717,0.95630476,0,0)"
       style="font-size:23.73831177px;font-style:normal;font-weight:normal;text-align:start;text-anchor:start;fill:#3475cd;font-family:Arial"
       id="text3162">
      <path
         d="m 534.79817,338.41627 0,-2.39933 2.08638,0 0,2.39933 z m 0,14.59304 0,-12.30961 2.08638,0 0,12.30961 z"
         style="font-size:23.73831177px;font-style:normal;font-weight:normal;text-align:start;text-anchor:start;fill:#3475cd;font-family:Arial"
         id="path3215" />
    </g>
    <g
       transform="matrix(0.95630476,0.2923717,-0.2923717,0.95630476,0,0)"
       style="font-size:23.73831177px;font-style:normal;font-weight:normal;text-align:start;text-anchor:start;fill:#3475cd;font-family:Arial"
       id="text3164">
      <path
         d="m 541.85515,352.74298 -1.93569,0 0,-16.99236 2.08638,0 0,6.06207 c 0.88091,-1.10499 2.00523,-1.65749 3.37297,-1.65751 0.75727,2e-5 1.47398,0.15263 2.15013,0.45785 0.67613,0.30524 1.23249,0.7341 1.6691,1.2866 0.43658,0.55251 0.77851,1.21899 1.0258,1.99944 0.24726,0.78047 0.3709,1.61501 0.37091,2.50365 -10e-6,2.10956 -0.52161,3.74002 -1.56478,4.89139 -1.0432,1.15137 -2.29502,1.72705 -3.75548,1.72705 -1.45274,0 -2.59252,-0.60659 -3.41934,-1.81978 z m -0.0232,-6.24753 c 0,1.47592 0.20091,2.54229 0.60273,3.19911 0.65682,1.07409 1.54546,1.61114 2.66593,1.61114 0.91181,0 1.7,-0.39602 2.36456,-1.18807 0.66453,-0.79205 0.99681,-1.9724 0.99682,-3.54105 -10e-6,-1.60727 -0.31876,-2.79341 -0.95626,-3.55843 -0.63751,-0.76499 -1.40831,-1.14749 -2.3124,-1.1475 -0.91182,10e-6 -1.70001,0.39603 -2.36455,1.18807 -0.66456,0.79206 -0.99683,1.93764 -0.99683,3.43673 z"
         style="font-size:23.73831177px;font-style:normal;font-weight:normal;text-align:start;text-anchor:start;fill:#3475cd;font-family:Arial"
         id="path3212" />
    </g>
    <g
       transform="matrix(0.95630476,0.2923717,-0.2923717,0.95630476,0,0)"
       style="font-size:23.73831177px;font-style:normal;font-weight:normal;text-align:start;text-anchor:start;fill:#3475cd;font-family:Arial"
       id="text3166">
      <path
         d="m 561.40151,348.71039 2.15592,0.26659 c -0.34001,1.25955 -0.96978,2.23706 -1.88932,2.93252 -0.91956,0.69545 -2.09411,1.04318 -3.52366,1.04318 -1.80047,0 -3.22809,-0.55443 -4.28286,-1.6633 -1.05478,-1.10887 -1.58217,-2.66399 -1.58217,-4.66537 0,-2.07091 0.53318,-3.67819 1.59955,-4.82184 1.06637,-1.14363 2.44956,-1.71545 4.14957,-1.71547 1.64591,2e-5 2.99046,0.56025 4.03366,1.68069 1.04317,1.12047 1.56477,2.69685 1.56478,4.72912 -10e-6,0.12364 -0.004,0.3091 -0.0116,0.55637 l -9.18005,0 c 0.0773,1.35228 0.45977,2.38774 1.14751,3.10638 0.68772,0.71864 1.54545,1.07796 2.57319,1.07796 0.765,0 1.41796,-0.20091 1.95888,-0.60273 0.5409,-0.40182 0.96976,-1.04319 1.28659,-1.9241 z m -6.85026,-3.37298 6.87345,0 c -0.0927,-1.03545 -0.35547,-1.81204 -0.78819,-2.32978 -0.66456,-0.80363 -1.52615,-1.20545 -2.58479,-1.20546 -0.95819,1e-5 -1.76376,0.32069 -2.41672,0.96205 -0.65296,0.64137 -1.01421,1.49911 -1.08375,2.57319 z"
         style="font-size:23.73831177px;font-style:normal;font-weight:normal;text-align:start;text-anchor:start;fill:#3475cd;font-family:Arial"
         id="path3209" />
    </g>
  </g>
</svg>
