<?xml version="1.0" encoding="UTF-8" standalone="no"?>
<!-- Created with Inkscape (http://www.inkscape.org/) -->

<svg
   xmlns:dc="http://purl.org/dc/elements/1.1/"
   xmlns:cc="http://creativecommons.org/ns#"
   xmlns:rdf="http://www.w3.org/1999/02/22-rdf-syntax-ns#"
   xmlns:svg="http://www.w3.org/2000/svg"
   xmlns="http://www.w3.org/2000/svg"
   xmlns:sodipodi="http://sodipodi.sourceforge.net/DTD/sodipodi-0.dtd"
   xmlns:inkscape="http://www.inkscape.org/namespaces/inkscape"
   width="509.71875"
   height="468.09375"
   id="svg3854"
   version="1.1"
   inkscape:version="0.48.4 r9939"
   sodipodi:docname="pubsub_publish.svg">
  <defs
     id="defs3856" />
  <sodipodi:namedview
     id="base"
     pagecolor="#ffffff"
     bordercolor="#666666"
     borderopacity="1.0"
     inkscape:pageopacity="0.0"
     inkscape:pageshadow="2"
     inkscape:zoom="1.4"
     inkscape:cx="241.44611"
     inkscape:cy="335.74794"
     inkscape:document-units="px"
     inkscape:current-layer="layer1"
     showgrid="false"
     fit-margin-top="4"
     fit-margin-left="4"
     fit-margin-right="4"
     fit-margin-bottom="4"
     inkscape:window-width="1024"
     inkscape:window-height="1258"
     inkscape:window-x="-8"
     inkscape:window-y="-8"
     inkscape:window-maximized="1" />
  <metadata
     id="metadata3859">
    <rdf:RDF>
      <cc:Work
         rdf:about="">
        <dc:format>image/svg+xml</dc:format>
        <dc:type
           rdf:resource="http://purl.org/dc/dcmitype/StillImage" />
        <dc:title />
      </cc:Work>
    </rdf:RDF>
  </metadata>
  <g
     inkscape:label="Ebene 1"
     inkscape:groupmode="layer"
     id="layer1"
     transform="translate(32.010579,-206.87595)">
    <g
       id="g3050"
       transform="translate(-29.101519,208.68883)">
      <path
         id="path3052"
         d="m 118.06687,460.24216 c 13.04046,0 23.58214,-10.54169 23.58214,-23.58214 l 0,0 0,-63.17203 c 0,-13.04045 -10.54168,-23.58214 -23.58214,-23.58214 l 0,0 -90.736576,0 c -13.040454,0 -23.5821394,10.54169 -23.5821394,23.58214 l 0,0 0,63.17203 c 0,13.04045 10.5416854,23.58214 23.5821394,23.58214 l 0,0 90.736576,0 z"
         style="fill:#595959;fill-opacity:1;fill-rule:evenodd;stroke:none"
         inkscape:connector-curvature="0" />
      <path
         id="path3054"
         d="m 118.06687,460.24216 c 13.04046,0 23.58214,-10.54169 23.58214,-23.58214 l 0,0 0,-63.17203 c 0,-13.04045 -10.54168,-23.58214 -23.58214,-23.58214 l 0,0 -90.736576,0 c -13.040454,0 -23.5821394,10.54169 -23.5821394,23.58214 l 0,0 0,63.17203 c 0,13.04045 10.5416854,23.58214 23.5821394,23.58214 l 0,0 90.736576,0 z"
         style="fill:none;stroke:#000000;stroke-width:3.59198141px;stroke-linecap:round;stroke-linejoin:round;stroke-opacity:1;stroke-dasharray:none"
         inkscape:connector-curvature="0" />
      <text
         id="text3056"
         style="font-size:23.73831177px;font-style:normal;font-weight:normal;text-align:start;text-anchor:start;fill:#ffffff;font-family:Arial"
         y="398.55377"
         x="52.474167"
         xml:space="preserve">App </text>
      <text
         id="text3058"
         style="font-size:23.73831177px;font-style:normal;font-weight:normal;text-align:start;text-anchor:start;fill:#ffffff;font-family:Arial"
         y="426.04025"
         x="12.493849"
         xml:space="preserve">Component</text>
      <path
         id="path3060"
         d="m 475.93755,302.11688 c 13.04046,0 23.58214,-10.54168 23.58214,-23.58214 l 0,0 0,-62.31307 c 0,-13.04045 -10.54168,-23.66023 -23.58214,-23.66023 l -89.72145,0 c -13.04045,0 -23.66023,10.61978 -23.66023,23.66023 l 0,62.31307 c 0,13.04046 10.61978,23.58214 23.66023,23.58214 l 89.72145,0 z"
         style="fill:#595959;fill-opacity:1;fill-rule:evenodd;stroke:none"
         inkscape:connector-curvature="0" />
      <path
         id="path3062"
         d="m 475.93755,302.11688 c 13.04046,0 23.58214,-10.54168 23.58214,-23.58214 l 0,0 0,-62.31307 c 0,-13.04045 -10.54168,-23.66023 -23.58214,-23.66023 l -89.72145,0 c -13.04045,0 -23.66023,10.61978 -23.66023,23.66023 l 0,62.31307 c 0,13.04046 10.61978,23.58214 23.66023,23.58214 l 89.72145,0 z"
         style="fill:none;stroke:#000000;stroke-width:3.59198141px;stroke-linecap:round;stroke-linejoin:round;stroke-opacity:1;stroke-dasharray:none"
         inkscape:connector-curvature="0" />
      <text
         id="text3064"
         style="font-size:23.73831177px;font-style:normal;font-weight:normal;text-align:start;text-anchor:start;fill:#ffffff;font-family:Arial"
         y="239.8819"
         x="409.79825"
         xml:space="preserve">App </text>
      <text
         id="text3066"
         style="font-size:23.73831177px;font-style:normal;font-weight:normal;text-align:start;text-anchor:start;fill:#ffffff;font-family:Arial"
         y="268.61774"
         x="371.06732"
         xml:space="preserve">Component</text>
      <path
         id="path3068"
         d="m 191.93675,252.61001 c 13.04046,0 23.58214,-10.54169 23.58214,-23.58214 l 0,0 0,-95.73412 c 0,-13.04046 -10.54168,-23.58214 -23.58214,-23.58214 l 0,0 -139.306412,0 c -13.040455,0 -23.660226,10.54168 -23.660226,23.58214 l 0,0 0,95.73412 c 0,13.04045 10.619771,23.58214 23.660226,23.58214 l 0,0 139.306412,0 z"
         style="fill:#ffe100;fill-opacity:1;fill-rule:evenodd;stroke:none"
         inkscape:connector-curvature="0" />
      <path
         id="path3070"
         d="m 191.93675,252.61001 c 13.04046,0 23.58214,-10.54169 23.58214,-23.58214 l 0,0 0,-95.73412 c 0,-13.04046 -10.54168,-23.58214 -23.58214,-23.58214 l 0,0 -139.306412,0 c -13.040455,0 -23.660226,10.54168 -23.660226,23.58214 l 0,0 0,95.73412 c 0,13.04045 10.619771,23.58214 23.660226,23.58214 l 0,0 139.306412,0 z"
         style="fill:none;stroke:#ffc000;stroke-width:5.23179913px;stroke-linecap:round;stroke-linejoin:round;stroke-opacity:1;stroke-dasharray:none"
         inkscape:connector-curvature="0" />
      <path
         id="path3072"
         d="m 65.51462,230.35534 c -2.186424,0.46852 -4.216674,0.62469 -6.168838,0.62469 -0.780866,0 -1.561731,0 -2.26451,-0.0781 -0.702779,-0.0781 -1.483645,-0.23426 -2.342597,-0.46852 -0.858952,-0.23426 -1.639818,-0.46852 -2.186423,-0.93703 -0.624693,-0.31235 -1.171299,-0.85896 -1.561732,-1.56174 -0.390432,-0.70277 -0.624692,-1.56173 -0.624692,-2.49877 l 0,-8.51143 c 0,-3.82624 2.967289,-5.77841 8.979954,-5.77841 1.405558,0 3.435808,0.15618 6.090751,0.6247 l 0,3.51389 c -2.342597,-0.62469 -4.372847,-0.85895 -6.090751,-0.85895 -0.624693,0 -1.171299,0 -1.639818,0.0781 -0.390433,0 -0.858952,0.15617 -1.327471,0.23426 -0.46852,0.15617 -0.780866,0.46852 -1.015126,0.78086 -0.234259,0.39043 -0.390432,0.78087 -0.390432,1.32747 l 0,8.27718 c 0,1.7179 1.639817,2.57685 4.841366,2.57685 1.405558,0 3.279635,-0.31234 5.700319,-0.85895 l 0,3.5139 z"
         style="fill:#000000;fill-opacity:1;fill-rule:evenodd;stroke:none"
         inkscape:connector-curvature="0" />
      <path
         id="path3074"
         d="m 77.774209,219.65748 -1.483645,0 c -1.171298,0 -2.108337,0.15617 -2.654943,0.54661 -0.624692,0.31234 -0.937038,0.93703 -0.937038,1.87407 l 0,8.66761 -4.294761,0 0,-14.44601 4.060501,0 0,2.57685 c 0.07809,-0.70278 0.468519,-1.40555 1.249385,-1.95216 0.780865,-0.62469 1.639818,-0.93704 2.49877,-0.93704 l 1.561731,0 0,3.67007 z"
         style="fill:#000000;fill-opacity:1;fill-rule:evenodd;stroke:none"
         inkscape:connector-curvature="0" />
      <path
         id="path3076"
         d="m 94.328558,221.53156 0,4.21667 c 0,0.93704 -0.156173,1.79599 -0.468519,2.42068 -0.23426,0.70278 -0.624692,1.1713 -1.093212,1.56173 -0.390432,0.39044 -1.015125,0.6247 -1.717904,0.85896 -0.702779,0.15617 -1.327471,0.31234 -1.874077,0.31234 -0.624693,0.0781 -1.327472,0.0781 -2.108337,0.0781 -0.858952,0 -1.561731,0 -2.186424,-0.0781 -0.546606,0 -1.171298,-0.15617 -1.874077,-0.31234 -0.702779,-0.23426 -1.327471,-0.46852 -1.717904,-0.85896 -0.46852,-0.39043 -0.858952,-0.85895 -1.093212,-1.56173 -0.312346,-0.62469 -0.468519,-1.48364 -0.468519,-2.42068 l 0,-4.21667 c 0,-1.01513 0.156173,-1.87408 0.468519,-2.57686 0.312346,-0.70278 0.702779,-1.1713 1.093212,-1.56173 0.468519,-0.39043 1.015125,-0.70278 1.717904,-0.93704 0.780866,-0.15617 1.405558,-0.31235 1.952164,-0.39043 0.546606,0 1.249385,-0.0781 2.108337,-0.0781 0.780865,0 1.483644,0.0781 2.03025,0.0781 0.546606,0.0781 1.171299,0.23426 1.952164,0.39043 0.702779,0.23426 1.249385,0.54661 1.717904,0.93704 0.390433,0.39043 0.780866,0.85895 1.093212,1.56173 0.312346,0.70278 0.468519,1.56173 0.468519,2.57686 z m -4.372847,4.76328 0,-5.46606 c 0,-0.78087 -0.156173,-1.32747 -0.546606,-1.63982 -0.390432,-0.31235 -1.171298,-0.46852 -2.342596,-0.46852 -1.249385,0 -2.030251,0.15617 -2.420683,0.46852 -0.390433,0.31235 -0.546606,0.85895 -0.546606,1.63982 l 0,5.46606 c 0,0.78086 0.156173,1.24938 0.546606,1.56173 0.390432,0.31234 1.171298,0.46852 2.420683,0.46852 1.171298,0 1.952164,-0.15618 2.342596,-0.46852 0.390433,-0.31235 0.546606,-0.78087 0.546606,-1.56173 z"
         style="fill:#000000;fill-opacity:1;fill-rule:evenodd;stroke:none"
         inkscape:connector-curvature="0" />
      <path
         id="path3078"
         d="m 110.10204,225.12354 0,1.79599 c 0,0.70278 -0.15617,1.32747 -0.39043,1.79599 -0.31235,0.54661 -0.62469,0.93704 -1.01513,1.24938 -0.39043,0.31235 -0.93703,0.46852 -1.56173,0.6247 -0.70278,0.23426 -1.32747,0.31234 -1.95216,0.31234 -0.54661,0.0781 -1.24939,0.0781 -2.10834,0.0781 -1.56173,0 -3.435806,-0.15617 -5.700316,-0.39043 l 0,-2.88921 c 2.811116,0.39044 4.685196,0.6247 5.778406,0.6247 0.85895,0 1.48364,-0.0781 1.95216,-0.31235 0.46852,-0.15617 0.70278,-0.46852 0.70278,-0.93704 l 0,-0.93704 c 0,-0.39043 -0.15617,-0.78086 -0.39043,-1.01512 -0.23426,-0.23426 -0.78087,-0.31235 -1.63982,-0.31235 l -1.87408,0 c -1.48364,0 -2.654939,-0.31234 -3.513891,-0.93704 -0.858952,-0.5466 -1.249385,-1.48364 -1.249385,-2.65494 l 0,-1.7179 c 0,-1.32748 0.624693,-2.26451 1.874078,-2.73303 1.249388,-0.46852 2.967288,-0.78087 5.231798,-0.78087 0.93704,0 2.65494,0.15617 5.15371,0.31235 l 0,2.73303 c -3.12346,-0.23426 -4.84136,-0.31235 -5.2318,-0.31235 -1.24938,0 -1.95216,0.0781 -2.26451,0.23426 -0.39043,0.15617 -0.5466,0.46852 -0.5466,0.93704 l 0,0.78086 c 0,0.23426 0.15617,0.46852 0.39043,0.70278 0.23426,0.15618 0.62469,0.23426 1.1713,0.23426 l 1.87408,0 c 3.51389,0 5.30988,1.1713 5.30988,3.5139 z"
         style="fill:#000000;fill-opacity:1;fill-rule:evenodd;stroke:none"
         inkscape:connector-curvature="0" />
      <path
         id="path3080"
         d="m 125.71935,225.12354 0,1.79599 c 0,0.70278 -0.15617,1.32747 -0.39043,1.79599 -0.31235,0.54661 -0.62469,0.93704 -1.01512,1.24938 -0.39044,0.31235 -0.93704,0.46852 -1.63982,0.6247 -0.62469,0.23426 -1.24939,0.31234 -1.87408,0.31234 -0.54661,0.0781 -1.32747,0.0781 -2.10834,0.0781 -1.56173,0 -3.4358,-0.15617 -5.70031,-0.39043 l 0,-2.88921 c 2.81111,0.39044 4.68519,0.6247 5.7784,0.6247 0.85895,0 1.48364,-0.0781 1.95216,-0.31235 0.46852,-0.15617 0.70278,-0.46852 0.70278,-0.93704 l 0,-0.93704 c 0,-0.39043 -0.15617,-0.78086 -0.39043,-1.01512 -0.23426,-0.23426 -0.78087,-0.31235 -1.63982,-0.31235 l -1.87407,0 c -1.48365,0 -2.73303,-0.31234 -3.5139,-0.93704 -0.85895,-0.5466 -1.24938,-1.48364 -1.24938,-2.65494 l 0,-1.7179 c 0,-1.32748 0.62469,-2.26451 1.87407,-2.73303 1.24939,-0.46852 2.96729,-0.78087 5.2318,-0.78087 0.93704,0 2.65494,0.15617 5.15371,0.31235 l 0,2.73303 c -3.12346,-0.23426 -4.84136,-0.31235 -5.23179,-0.31235 -1.24939,0 -1.95217,0.0781 -2.3426,0.23426 -0.31235,0.15617 -0.46852,0.46852 -0.46852,0.93704 l 0,0.78086 c 0,0.23426 0.15617,0.46852 0.39043,0.70278 0.23426,0.15618 0.62469,0.23426 1.1713,0.23426 l 1.87408,0 c 3.51389,0 5.30988,1.1713 5.30988,3.5139 z"
         style="fill:#000000;fill-opacity:1;fill-rule:evenodd;stroke:none"
         inkscape:connector-curvature="0" />
      <path
         id="path3082"
         d="m 143.67926,220.82878 0,4.76328 c 0,1.95216 -0.62469,3.35772 -1.79599,4.21667 -1.1713,0.78087 -3.04538,1.1713 -5.70032,1.1713 -2.73303,0 -4.6071,-0.39043 -5.70032,-1.24939 -1.01512,-0.85895 -1.56173,-2.26451 -1.56173,-4.13858 l 0,-15.6954 4.37285,0 0,7.88674 c 0.23426,-0.70278 0.70278,-1.09321 1.40556,-1.40556 0.70278,-0.23426 1.79599,-0.39043 3.20155,-0.39043 1.24938,0 2.26451,0.15617 3.04537,0.31235 0.70278,0.23426 1.32747,0.5466 1.71791,1.01512 0.39043,0.39044 0.70277,0.93704 0.78086,1.48365 0.15617,0.46852 0.23426,1.1713 0.23426,2.03025 z m -4.37285,5.30988 0,-5.30988 c 0,-0.93704 -0.15617,-1.48365 -0.46852,-1.71791 -0.39043,-0.31234 -1.24938,-0.39043 -2.65494,-0.39043 -1.1713,0 -1.95216,0.15617 -2.34259,0.46852 -0.39044,0.31235 -0.54661,0.85895 -0.54661,1.63982 l 0,5.30988 c 0,0.85896 0.15617,1.48365 0.46852,1.71791 0.39043,0.31234 1.24938,0.46852 2.49877,0.46852 1.24938,0 2.10834,-0.15618 2.49877,-0.46852 0.39043,-0.23426 0.5466,-0.85895 0.5466,-1.71791 z"
         style="fill:#000000;fill-opacity:1;fill-rule:evenodd;stroke:none"
         inkscape:connector-curvature="0" />
      <path
         id="path3084"
         d="m 159.99935,230.74577 -4.29476,0 0,-1.32747 c -0.31235,0.5466 -0.78086,1.01512 -1.32747,1.24938 -0.62469,0.23426 -1.7179,0.31235 -3.27964,0.31235 -1.95216,0 -3.20154,-0.23426 -3.90432,-0.85895 -0.6247,-0.62469 -0.93704,-1.87408 -0.93704,-3.74816 0,-1.63981 0.31234,-2.8892 1.01512,-3.51389 0.6247,-0.70278 1.79599,-1.01513 3.5139,-1.01513 l 4.84136,0 0,-1.01512 c 0,-0.85895 -0.23426,-1.40556 -0.62469,-1.71791 -0.39043,-0.23426 -1.24938,-0.39043 -2.57685,-0.39043 -1.1713,0 -2.88921,0.0781 -4.99754,0.31235 l 0,-2.73303 c 1.63981,-0.15618 3.4358,-0.31235 5.46605,-0.31235 2.65495,0 4.52902,0.39043 5.54415,1.01513 1.01513,0.62469 1.56173,1.87407 1.56173,3.82624 l 0,9.91699 z m -4.37285,-3.74815 0,-2.73303 -2.96728,0 c -0.93704,0 -1.56174,0.0781 -1.796,0.31234 -0.23426,0.23426 -0.31234,0.78087 -0.31234,1.71791 0,0.93704 0.0781,1.48364 0.31234,1.7179 0.31235,0.15617 0.93704,0.31235 1.87408,0.31235 0.54661,0 0.85895,0 1.1713,0 0.23426,-0.0781 0.46852,-0.0781 0.78087,-0.0781 0.23426,-0.0781 0.46851,-0.15617 0.5466,-0.23426 0.0781,-0.0781 0.15617,-0.23426 0.31235,-0.39043 0.0781,-0.15618 0.0781,-0.31235 0.0781,-0.62469 z"
         style="fill:#000000;fill-opacity:1;fill-rule:evenodd;stroke:none"
         inkscape:connector-curvature="0" />
      <path
         id="path3086"
         d="m 173.19598,219.65748 -1.48365,0 c -1.17129,0 -2.10833,0.15617 -2.65494,0.54661 -0.62469,0.31234 -0.93704,0.93703 -0.93704,1.87407 l 0,8.66761 -4.37284,0 0,-14.44601 4.13858,0 0,2.57685 c 0.0781,-0.70278 0.46852,-1.40555 1.24939,-1.95216 0.78086,-0.62469 1.63982,-0.93704 2.49877,-0.93704 l 1.56173,0 0,3.67007 z"
         style="fill:#000000;fill-opacity:1;fill-rule:evenodd;stroke:none"
         inkscape:connector-curvature="0" />
      <path
         id="path3088"
         d="m 175.77284,227.54422 0,3.20155 3.4358,0 0,-3.20155 -3.4358,0 z"
         style="fill:#000000;fill-opacity:1;fill-rule:evenodd;stroke:none"
         inkscape:connector-curvature="0" />
      <path
         id="path3090"
         d="m 186.23643,213.87907 -2.65494,0 0,-2.73303 2.65494,0 0,2.73303 z m 0,16.8667 -2.65494,0 0,-14.44601 2.65494,0 0,14.44601 z"
         style="fill:#000000;fill-opacity:1;fill-rule:evenodd;stroke:none"
         inkscape:connector-curvature="0" />
      <path
         id="path3092"
         d="m 203.57165,221.14112 0,4.99754 c 0,0.93704 -0.0781,1.63982 -0.31235,2.26451 -0.23426,0.6247 -0.46852,1.09322 -0.78086,1.48365 -0.39044,0.31234 -0.85895,0.5466 -1.48365,0.70278 -0.62469,0.23426 -1.24938,0.31234 -1.79599,0.39043 -0.5466,0 -1.32747,0 -2.18642,0 -1.24939,0 -2.18643,0 -2.81112,-0.0781 -0.70278,-0.0781 -1.32747,-0.31234 -2.03025,-0.62469 -0.62469,-0.31235 -1.09321,-0.78086 -1.40556,-1.40556 -0.31234,-0.70278 -0.39043,-1.56173 -0.39043,-2.73303 l 0,-4.99754 c 0,-0.93703 0.0781,-1.7179 0.31235,-2.34259 0.23426,-0.70278 0.46852,-1.1713 0.85895,-1.56173 0.31235,-0.39044 0.78086,-0.6247 1.40556,-0.78087 0.62469,-0.23426 1.24938,-0.31235 1.79599,-0.39043 0.5466,0 1.24938,-0.0781 2.26451,-0.0781 0.93704,0 1.63982,0.0781 2.18642,0.0781 0.54661,0.0781 1.1713,0.15617 1.79599,0.39043 0.6247,0.15617 1.09321,0.39043 1.40556,0.78087 0.31235,0.39043 0.62469,0.85895 0.85895,1.56173 0.23426,0.62469 0.31235,1.40556 0.31235,2.34259 z m -2.73303,5.38798 0,-5.77841 c 0,-1.32747 -0.23426,-2.18642 -0.78087,-2.49877 -0.5466,-0.31234 -1.56173,-0.46852 -3.04537,-0.46852 -1.56173,0 -2.57686,0.15618 -3.12346,0.46852 -0.54661,0.31235 -0.78087,1.1713 -0.78087,2.49877 l 0,5.77841 c 0,0.62469 0,1.17129 0.15617,1.56173 0.15618,0.31234 0.39044,0.62469 0.78087,0.78086 0.39043,0.15618 0.78086,0.31235 1.1713,0.31235 0.39043,0.0781 1.01512,0.0781 1.79599,0.0781 0.70278,0 1.32747,0 1.7179,-0.0781 0.39044,0 0.78087,-0.15617 1.1713,-0.31235 0.39043,-0.15617 0.62469,-0.46852 0.78087,-0.78086 0.0781,-0.39044 0.15617,-0.93704 0.15617,-1.56173 z"
         style="fill:#000000;fill-opacity:1;fill-rule:evenodd;stroke:none"
         inkscape:connector-curvature="0" />
      <path
         id="path3094"
         d="m 91.517442,128.84282 0,64.81184 64.733758,0 0,-64.81184 -64.733758,0 z"
         style="fill:#000000;fill-opacity:1;fill-rule:evenodd;stroke:none"
         inkscape:connector-curvature="0" />
      <path
         id="path3096"
         d="m 91.517442,142.58605 0,6.48118 15.226878,-0.0781 10.15125,10.15125 4.76328,-4.68519 -12.02533,-12.02533 -18.116078,0.15617 z"
         style="fill:#ffe100;fill-opacity:1;fill-rule:evenodd;stroke:none"
         inkscape:connector-curvature="0" />
      <path
         id="path3098"
         d="m 130.79498,163.66942 -4.68519,4.68519 11.63489,11.6349 18.50652,0 0,-6.48118 -15.61731,0 -9.83891,-9.83891 z"
         style="fill:#ffe100;fill-opacity:1;fill-rule:evenodd;stroke:none"
         inkscape:connector-curvature="0" />
      <path
         id="path3100"
         d="m 138.2132,142.50796 -30.92227,31.07845 -15.773488,0 0,6.48119 18.506518,0 31.00036,-31.00037 15.22688,0 0,-6.55927 -18.038,0 z"
         style="fill:#ffe100;fill-opacity:1;fill-rule:evenodd;stroke:none"
         inkscape:connector-curvature="0" />
      <path
         id="path3102"
         d="M 105.26068,256.35816 72.698583,349.90585"
         style="fill:none;stroke:#000000;stroke-width:3.59198141px;stroke-linecap:round;stroke-linejoin:round;stroke-opacity:1;stroke-dasharray:none"
         inkscape:connector-curvature="0" />
      <path
         id="path3104"
         d="m 218.56427,202.00992 143.9916,45.36829"
         style="fill:none;stroke:#000000;stroke-width:3.59198141px;stroke-linecap:round;stroke-linejoin:round;stroke-opacity:1;stroke-dasharray:none"
         inkscape:connector-curvature="0" />
      <path
         id="path3106"
         d="m 478.28015,113.2255 c 13.04045,0 23.58214,-10.54168 23.58214,-23.582135 l 0,0 0,-62.313071 c 0,-13.040454 -10.54169,-23.5821394 -23.58214,-23.5821394 l 0,0 -89.72145,0 c -13.04046,0 -23.58214,10.5416854 -23.58214,23.5821394 l 0,0 0,62.313071 c 0,13.040455 10.54168,23.582135 23.58214,23.582135 l 0,0 89.72145,0 z"
         style="fill:#595959;fill-opacity:1;fill-rule:evenodd;stroke:none"
         inkscape:connector-curvature="0" />
      <path
         id="path3108"
         d="m 478.28015,113.2255 c 13.04045,0 23.58214,-10.54168 23.58214,-23.582135 l 0,0 0,-62.313071 c 0,-13.040454 -10.54169,-23.5821394 -23.58214,-23.5821394 l 0,0 -89.72145,0 c -13.04046,0 -23.58214,10.5416854 -23.58214,23.5821394 l 0,0 0,62.313071 c 0,13.040455 10.54168,23.582135 23.58214,23.582135 l 0,0 89.72145,0 z"
         style="fill:none;stroke:#000000;stroke-width:3.59198141px;stroke-linecap:round;stroke-linejoin:round;stroke-opacity:1;stroke-dasharray:none"
         inkscape:connector-curvature="0" />
      <text
         id="text3110"
         style="font-size:23.73831177px;font-style:normal;font-weight:normal;text-align:start;text-anchor:start;fill:#ffffff;font-family:Arial"
         y="51.224781"
         x="412.297"
         xml:space="preserve">App </text>
      <text
         id="text3112"
         style="font-size:23.73831177px;font-style:normal;font-weight:normal;text-align:start;text-anchor:start;fill:#ffffff;font-family:Arial"
         y="79.960632"
         x="373.56607"
         xml:space="preserve">Component</text>
      <path
         id="path3114"
         d="M 218.56427,145.39717 364.97656,58.48683"
         style="fill:none;stroke:#000000;stroke-width:3.59198141px;stroke-linecap:round;stroke-linejoin:round;stroke-opacity:1;stroke-dasharray:none"
         inkscape:connector-curvature="0" />
      <path
         id="path3116"
         d="m 334.28854,459.85172 c 13.04046,0 23.58214,-10.54168 23.58214,-23.58214 l 0,0 0,-62.31307 c 0,-13.04045 -10.54168,-23.66022 -23.58214,-23.66022 l 0,0 -89.72145,0 c -13.04045,0 -23.66023,10.61977 -23.66023,23.66022 l 0,0 0,62.31307 c 0,13.04046 10.61978,23.58214 23.66023,23.58214 l 0,0 89.72145,0 z"
         style="fill:#595959;fill-opacity:1;fill-rule:evenodd;stroke:none"
         inkscape:connector-curvature="0" />
      <path
         id="path3118"
         d="m 334.28854,459.85172 c 13.04046,0 23.58214,-10.54168 23.58214,-23.58214 l 0,0 0,-62.31307 c 0,-13.04045 -10.54168,-23.66022 -23.58214,-23.66022 l 0,0 -89.72145,0 c -13.04045,0 -23.66023,10.61977 -23.66023,23.66022 l 0,0 0,62.31307 c 0,13.04046 10.61978,23.58214 23.66023,23.58214 l 0,0 89.72145,0 z"
         style="fill:none;stroke:#000000;stroke-width:3.59198141px;stroke-linecap:round;stroke-linejoin:round;stroke-opacity:1;stroke-dasharray:none"
         inkscape:connector-curvature="0" />
      <text
         id="text3120"
         style="font-size:23.73831177px;font-style:normal;font-weight:normal;text-align:start;text-anchor:start;fill:#ffffff;font-family:Arial"
         y="398.55377"
         x="268.61774"
         xml:space="preserve">App </text>
      <text
         id="text3122"
         style="font-size:23.73831177px;font-style:normal;font-weight:normal;text-align:start;text-anchor:start;fill:#ffffff;font-family:Arial"
         y="426.04025"
         x="228.63744"
         xml:space="preserve">Component</text>
      <path
         id="path3124"
         d="m 178.42778,256.35816 110.96099,93.93813"
         style="fill:none;stroke:#000000;stroke-width:3.59198141px;stroke-linecap:round;stroke-linejoin:round;stroke-opacity:1;stroke-dasharray:none"
         inkscape:connector-curvature="0" />
      <path
         id="path3126"
         d="M 49.741136,338.97374 71.214938,285.32827"
         style="fill:none;stroke:#285ea6;stroke-width:5.23179913px;stroke-linecap:round;stroke-linejoin:round;stroke-opacity:1;stroke-dasharray:none"
         inkscape:connector-curvature="0" />
      <path
         id="path3128"
         d="m 60.360907,283.92271 17.725648,-15.77348 1.952164,23.58214 -19.677812,-7.80866 z"
         style="fill:#285ea6;fill-opacity:1;fill-rule:evenodd;stroke:none"
         inkscape:connector-curvature="0" />
      <text
         id="text3130"
         style="font-size:23.73831177px;font-style:normal;font-weight:normal;text-align:start;text-anchor:start;fill:#3475cd;font-family:Arial"
         transform="matrix(0.37460659,-0.92718385,0.92718385,0.37460659,-287.82164,237.95963)"
         y="332.33636"
         x="32.484009"
         xml:space="preserve">P</text>
      <text
         id="text3132"
         style="font-size:23.73831177px;font-style:normal;font-weight:normal;text-align:start;text-anchor:start;fill:#3475cd;font-family:Arial"
         transform="matrix(0.37460659,-0.92718385,0.92718385,0.37460659,-270.01394,234.37539)"
         y="317.34375"
         x="38.73093"
         xml:space="preserve">u</text>
      <text
         id="text3134"
         style="font-size:23.73831177px;font-style:normal;font-weight:normal;text-align:start;text-anchor:start;fill:#3475cd;font-family:Arial"
         transform="matrix(0.37460659,-0.92718385,0.92718385,0.37460659,-257.24419,230.81841)"
         y="306.0993"
         x="42.479088"
         xml:space="preserve">b</text>
      <text
         id="text3136"
         style="font-size:23.73831177px;font-style:normal;font-weight:normal;text-align:start;text-anchor:start;fill:#3475cd;font-family:Arial"
         transform="matrix(0.37460659,-0.92718385,0.92718385,0.37460659,-242.53466,227.63847)"
         y="293.60544"
         x="47.476624"
         xml:space="preserve">l</text>
      <text
         id="text3138"
         style="font-size:23.73831177px;font-style:normal;font-weight:normal;text-align:start;text-anchor:start;fill:#3475cd;font-family:Arial"
         transform="matrix(0.37460659,-0.92718385,0.92718385,0.37460659,-236.33831,226.82986)"
         y="288.60791"
         x="49.975395"
         xml:space="preserve">i</text>
      <text
         id="text3140"
         style="font-size:23.73831177px;font-style:normal;font-weight:normal;text-align:start;text-anchor:start;fill:#3475cd;font-family:Arial"
         transform="matrix(0.37460659,-0.92718385,0.92718385,0.37460659,-230.92332,224.86284)"
         y="283.61038"
         x="51.224781"
         xml:space="preserve">s</text>
      <text
         id="text3142"
         style="font-size:23.73831177px;font-style:normal;font-weight:normal;text-align:start;text-anchor:start;fill:#3475cd;font-family:Arial"
         transform="matrix(0.37460659,-0.92718385,0.92718385,0.37460659,-218.53061,223.24563)"
         y="273.6153"
         x="56.222321"
         xml:space="preserve">h</text>
      <path
         id="path3144"
         d="M 229.18404,112.28847 331.6336,46.773846"
         style="fill:none;stroke:#285ea6;stroke-width:5.23179913px;stroke-linecap:round;stroke-linejoin:round;stroke-opacity:1;stroke-dasharray:none"
         inkscape:connector-curvature="0" />
      <path
         id="path3146"
         d="m 323.66877,39.277537 23.58214,-2.49877 -12.1815,20.302505 -11.40064,-17.803735 z"
         style="fill:#285ea6;fill-opacity:1;fill-rule:evenodd;stroke:none"
         inkscape:connector-curvature="0" />
      <text
         id="text3148"
         style="font-size:23.73831177px;font-style:normal;font-weight:normal;text-align:start;text-anchor:start;fill:#3475cd;font-family:Arial"
         transform="matrix(0.8480481,-0.52991926,0.52991926,0.8480481,-1.1855657,145.79163)"
         y="74.963097"
         x="253.62514"
         xml:space="preserve">E</text>
      <text
         id="text3150"
         style="font-size:23.73831177px;font-style:normal;font-weight:normal;text-align:start;text-anchor:start;fill:#3475cd;font-family:Arial"
         transform="matrix(0.8480481,-0.52991926,0.52991926,0.8480481,5.3474103,151.08343)"
         y="66.2174"
         x="266.11899"
         xml:space="preserve">v</text>
      <text
         id="text3152"
         style="font-size:23.73831177px;font-style:normal;font-weight:normal;text-align:start;text-anchor:start;fill:#3475cd;font-family:Arial"
         transform="matrix(0.8480481,-0.52991926,0.52991926,0.8480481,10.176548,155.43079)"
         y="59.970474"
         x="276.11407"
         xml:space="preserve">e</text>
      <text
         id="text3154"
         style="font-size:23.73831177px;font-style:normal;font-weight:normal;text-align:start;text-anchor:start;fill:#3475cd;font-family:Arial"
         transform="matrix(0.8480481,-0.52991926,0.52991926,0.8480481,15.19553,160.44021)"
         y="53.723549"
         x="287.35852"
         xml:space="preserve">n</text>
      <text
         id="text3156"
         style="font-size:23.73831177px;font-style:normal;font-weight:normal;text-align:start;text-anchor:start;fill:#3475cd;font-family:Arial"
         transform="matrix(0.8480481,-0.52991926,0.52991926,0.8480481,20.68674,164.59772)"
         y="46.227242"
         x="297.35361"
         xml:space="preserve">t</text>
      <path
         id="path3158"
         d="m 229.18404,178.42778 100.41931,32.09357"
         style="fill:none;stroke:#285ea6;stroke-width:5.23179913px;stroke-linecap:round;stroke-linejoin:round;stroke-opacity:1;stroke-dasharray:none"
         inkscape:connector-curvature="0" />
      <path
         id="path3160"
         d="m 330.30613,199.66732 16.94478,16.55435 -23.42597,3.59198 6.48119,-20.14633 z"
         style="fill:#285ea6;fill-opacity:1;fill-rule:evenodd;stroke:none"
         inkscape:connector-curvature="0" />
      <text
         id="text3162"
         style="font-size:23.73831177px;font-style:normal;font-weight:normal;text-align:start;text-anchor:start;fill:#3475cd;font-family:Arial"
         transform="matrix(0.95105652,0.30901699,-0.30901699,0.95105652,65.470677,-73.532907)"
         y="169.91634"
         x="264.8696"
         xml:space="preserve">E</text>
      <text
         id="text3164"
         style="font-size:23.73831177px;font-style:normal;font-weight:normal;text-align:start;text-anchor:start;fill:#3475cd;font-family:Arial"
         transform="matrix(0.95105652,0.30901699,-0.30901699,0.95105652,67.748793,-77.921284)"
         y="174.91388"
         x="279.86221"
         xml:space="preserve">v</text>
      <text
         id="text3166"
         style="font-size:23.73831177px;font-style:normal;font-weight:normal;text-align:start;text-anchor:start;fill:#3475cd;font-family:Arial"
         transform="matrix(0.95105652,0.30901699,-0.30901699,0.95105652,69.457382,-81.212569)"
         y="178.66203"
         x="291.10669"
         xml:space="preserve">e</text>
      <text
         id="text3168"
         style="font-size:23.73831177px;font-style:normal;font-weight:normal;text-align:start;text-anchor:start;fill:#3475cd;font-family:Arial"
         transform="matrix(0.95105652,0.30901699,-0.30901699,0.95105652,71.227116,-84.889933)"
         y="182.41019"
         x="303.60052"
         xml:space="preserve">n</text>
      <text
         id="text3170"
         style="font-size:23.73831177px;font-style:normal;font-weight:normal;text-align:start;text-anchor:start;fill:#3475cd;font-family:Arial"
         transform="matrix(0.95105652,0.30901699,-0.30901699,0.95105652,72.996853,-88.567294)"
         y="186.15836"
         x="316.09436"
         xml:space="preserve">t</text>
    </g>
  </g>
</svg>
