<?xml version="1.0" encoding="UTF-8" standalone="no"?>
<!-- Created with Inkscape (http://www.inkscape.org/) -->

<svg
   xmlns:dc="http://purl.org/dc/elements/1.1/"
   xmlns:cc="http://creativecommons.org/ns#"
   xmlns:rdf="http://www.w3.org/1999/02/22-rdf-syntax-ns#"
   xmlns:svg="http://www.w3.org/2000/svg"
   xmlns="http://www.w3.org/2000/svg"
   xmlns:sodipodi="http://sodipodi.sourceforge.net/DTD/sodipodi-0.dtd"
   xmlns:inkscape="http://www.inkscape.org/namespaces/inkscape"
   width="522.53125"
   height="378.8125"
   id="svg3186"
   version="1.1"
   inkscape:version="0.48.4 r9939"
   sodipodi:docname="rpc_call.svg">
  <defs
     id="defs3188" />
  <sodipodi:namedview
     id="base"
     pagecolor="#ffffff"
     bordercolor="#666666"
     borderopacity="1.0"
     inkscape:pageopacity="0.0"
     inkscape:pageshadow="2"
     inkscape:zoom="1.4"
     inkscape:cx="265.71416"
     inkscape:cy="179.39946"
     inkscape:document-units="px"
     inkscape:current-layer="layer1"
     showgrid="false"
     fit-margin-top="4"
     fit-margin-left="4"
     fit-margin-right="4"
     fit-margin-bottom="4"
     inkscape:window-width="1024"
     inkscape:window-height="1258"
     inkscape:window-x="-8"
     inkscape:window-y="-8"
     inkscape:window-maximized="1" />
  <metadata
     id="metadata3191">
    <rdf:RDF>
      <cc:Work
         rdf:about="">
        <dc:format>image/svg+xml</dc:format>
        <dc:type
           rdf:resource="http://purl.org/dc/dcmitype/StillImage" />
        <dc:title />
      </cc:Work>
    </rdf:RDF>
  </metadata>
  <g
     inkscape:label="Ebene 1"
     inkscape:groupmode="layer"
     id="layer1"
     transform="translate(-24.443514,-82.958304)">
    <g
       id="g3090"
       transform="translate(26.092341,84.46068)">
      <path
         id="path3092"
         d="m 118.06687,370.67688 c 13.04046,0 23.58214,-10.54169 23.58214,-23.58214 l 0,0 0,-63.09394 c 0,-13.04045 -10.54168,-23.66023 -23.58214,-23.66023 l 0,0 -90.736576,0 c -13.040454,0 -23.5821394,10.61978 -23.5821394,23.66023 l 0,0 0,63.09394 c 0,13.04045 10.5416854,23.58214 23.5821394,23.58214 l 0,0 90.736576,0 z"
         style="fill:#595959;fill-opacity:1;fill-rule:evenodd;stroke:none"
         inkscape:connector-curvature="0" />
      <path
         id="path3094"
         d="m 118.06687,370.67688 c 13.04046,0 23.58214,-10.54169 23.58214,-23.58214 l 0,0 0,-63.09394 c 0,-13.04045 -10.54168,-23.66023 -23.58214,-23.66023 l 0,0 -90.736576,0 c -13.040454,0 -23.5821394,10.61978 -23.5821394,23.66023 l 0,0 0,63.09394 c 0,13.04045 10.5416854,23.58214 23.5821394,23.58214 l 0,0 90.736576,0 z"
         style="fill:none;stroke:#000000;stroke-width:3.59198141px;stroke-linecap:round;stroke-linejoin:round;stroke-opacity:1;stroke-dasharray:none"
         inkscape:connector-curvature="0" />
      <text
         id="text3096"
         style="font-size:23.73831177px;font-style:normal;font-weight:normal;text-align:start;text-anchor:start;fill:#ffffff;font-family:Arial"
         y="308.59808"
         x="52.474167"
         xml:space="preserve">App </text>
      <text
         id="text3098"
         style="font-size:23.73831177px;font-style:normal;font-weight:normal;text-align:start;text-anchor:start;fill:#ffffff;font-family:Arial"
         y="336.08453"
         x="12.493849"
         xml:space="preserve">Component</text>
      <path
         id="path3100"
         d="m 491.08634,370.91114 c 13.04046,0 23.58214,-10.54169 23.58214,-23.58214 l 0,0 0,-62.31307 c 0,-13.04046 -10.54168,-23.66023 -23.58214,-23.66023 l -89.72145,0 c -13.04045,0 -23.58214,10.61977 -23.58214,23.66023 l 0,0 0,62.31307 c 0,13.04045 10.54169,23.58214 23.58214,23.58214 l 89.72145,0 z"
         style="fill:#595959;fill-opacity:1;fill-rule:evenodd;stroke:none"
         inkscape:connector-curvature="0" />
      <path
         id="path3102"
         d="m 491.08634,370.91114 c 13.04046,0 23.58214,-10.54169 23.58214,-23.58214 l 0,0 0,-62.31307 c 0,-13.04046 -10.54168,-23.66023 -23.58214,-23.66023 l -89.72145,0 c -13.04045,0 -23.58214,10.61977 -23.58214,23.66023 l 0,0 0,62.31307 c 0,13.04045 10.54169,23.58214 23.58214,23.58214 l 89.72145,0 z"
         style="fill:none;stroke:#000000;stroke-width:3.59198141px;stroke-linecap:round;stroke-linejoin:round;stroke-opacity:1;stroke-dasharray:none"
         inkscape:connector-curvature="0" />
      <text
         id="text3104"
         style="font-size:23.73831177px;font-style:normal;font-weight:normal;text-align:start;text-anchor:start;fill:#ffffff;font-family:Arial"
         y="308.59808"
         x="426.04025"
         xml:space="preserve">App </text>
      <text
         id="text3106"
         style="font-size:23.73831177px;font-style:normal;font-weight:normal;text-align:start;text-anchor:start;fill:#ffffff;font-family:Arial"
         y="337.33392"
         x="386.05994"
         xml:space="preserve">Component</text>
      <path
         id="path3108"
         d="m 334.05428,147.42742 c 13.04046,0 23.66023,-10.61978 23.66023,-23.66023 l 0,0 0,-95.65603 c 0,-13.040455 -10.61977,-23.5821398 -23.66023,-23.5821398 l 0,0 -139.30641,0 c -13.04046,0 -23.58214,10.5416848 -23.58214,23.5821398 l 0,0 0,95.65603 c 0,13.04045 10.54168,23.66023 23.58214,23.66023 l 0,0 139.30641,0 z"
         style="fill:#ffe100;fill-opacity:1;fill-rule:evenodd;stroke:none"
         inkscape:connector-curvature="0" />
      <path
         id="path3110"
         d="m 334.05428,147.42742 c 13.04046,0 23.66023,-10.61978 23.66023,-23.66023 l 0,0 0,-95.65603 c 0,-13.040455 -10.61977,-23.5821398 -23.66023,-23.5821398 l 0,0 -139.30641,0 c -13.04046,0 -23.58214,10.5416848 -23.58214,23.5821398 l 0,0 0,95.65603 c 0,13.04045 10.54168,23.66023 23.58214,23.66023 l 0,0 139.30641,0 z"
         style="fill:none;stroke:#ffc000;stroke-width:5.23179913px;stroke-linecap:round;stroke-linejoin:round;stroke-opacity:1;stroke-dasharray:none"
         inkscape:connector-curvature="0" />
      <path
         id="path3112"
         d="m 207.71024,125.17275 c -2.18643,0.39043 -4.21668,0.62469 -6.24693,0.62469 -0.78086,0 -1.56173,0 -2.26451,-0.0781 -0.70278,-0.0781 -1.48364,-0.23426 -2.34259,-0.46852 -0.85896,-0.23426 -1.56174,-0.5466 -2.18643,-0.93703 -0.5466,-0.39044 -1.09321,-0.93704 -1.48364,-1.63982 -0.46852,-0.70278 -0.6247,-1.48365 -0.6247,-2.42069 l 0,-8.51143 c 0,-3.90433 2.96729,-5.85649 8.90187,-5.85649 1.48365,0 3.5139,0.23426 6.16884,0.70278 l 0,3.43581 c -2.42068,-0.54661 -4.45093,-0.78087 -6.09075,-0.78087 -0.70278,0 -1.24939,0 -1.63982,0 -0.46852,0.0781 -0.85895,0.15617 -1.32747,0.31235 -0.46852,0.15617 -0.85895,0.46852 -1.09321,0.78086 -0.23426,0.31235 -0.31235,0.78087 -0.31235,1.32747 l 0,8.19909 c 0,1.79599 1.56173,2.65494 4.76328,2.65494 1.40556,0 3.35772,-0.31234 5.77841,-0.85895 l 0,3.5139 z"
         style="fill:#000000;fill-opacity:1;fill-rule:evenodd;stroke:none"
         inkscape:connector-curvature="0" />
      <path
         id="path3114"
         d="m 219.96983,114.3968 -1.48365,0 c -1.24938,0 -2.10834,0.23426 -2.73303,0.54661 -0.62469,0.39043 -0.93704,1.01512 -0.93704,1.95216 l 0,8.58952 -4.29476,0 0,-14.36792 4.13859,0 0,2.49877 c 0,-0.70278 0.39043,-1.32747 1.24938,-1.95217 0.78087,-0.5466 1.63982,-0.85895 2.49877,-0.85895 l 1.56174,0 0,3.59198 z"
         style="fill:#000000;fill-opacity:1;fill-rule:evenodd;stroke:none"
         inkscape:connector-curvature="0" />
      <path
         id="path3116"
         d="m 236.52418,116.34897 0,4.21667 c 0,0.93704 -0.15618,1.71791 -0.46852,2.42068 -0.31235,0.6247 -0.70278,1.1713 -1.09322,1.56174 -0.46852,0.31234 -1.01512,0.62469 -1.7179,0.85895 -0.70278,0.15617 -1.32747,0.31234 -1.95216,0.31234 -0.54661,0.0781 -1.24939,0.0781 -2.10834,0.0781 -0.85895,0 -1.56173,0 -2.10834,-0.0781 -0.62469,0 -1.24938,-0.15617 -1.95216,-0.31234 -0.70278,-0.23426 -1.24939,-0.54661 -1.71791,-0.85895 -0.39043,-0.39044 -0.78086,-0.93704 -1.09321,-1.56174 -0.31234,-0.70277 -0.46852,-1.48364 -0.46852,-2.42068 l 0,-4.21667 c 0,-1.01513 0.15618,-1.87408 0.46852,-2.57686 0.31235,-0.70278 0.70278,-1.24938 1.1713,-1.63982 0.46852,-0.31234 1.01513,-0.62469 1.7179,-0.85895 0.70278,-0.23426 1.32748,-0.31235 1.95217,-0.39043 0.5466,0 1.24938,-0.0781 2.03025,-0.0781 0.78086,0 1.48364,0.0781 2.03025,0.0781 0.62469,0.0781 1.24938,0.15617 1.95216,0.39043 0.70278,0.23426 1.24939,0.54661 1.71791,0.85895 0.46852,0.39044 0.85895,0.93704 1.1713,1.63982 0.31234,0.70278 0.46852,1.56173 0.46852,2.57686 z m -4.37285,4.76328 0,-5.46606 c 0,-0.78087 -0.15618,-1.32747 -0.54661,-1.63982 -0.46852,-0.31235 -1.24938,-0.46852 -2.42068,-0.46852 -1.1713,0 -1.95216,0.15617 -2.3426,0.46852 -0.46852,0.31235 -0.62469,0.85895 -0.62469,1.63982 l 0,5.46606 c 0,0.70278 0.15617,1.24938 0.54661,1.56173 0.39043,0.31234 1.24938,0.46852 2.42068,0.46852 1.1713,0 2.03025,-0.15618 2.42068,-0.46852 0.39043,-0.31235 0.54661,-0.85895 0.54661,-1.56173 z"
         style="fill:#000000;fill-opacity:1;fill-rule:evenodd;stroke:none"
         inkscape:connector-curvature="0" />
      <path
         id="path3118"
         d="m 252.29766,119.86286 0,1.87408 c 0,0.70278 -0.15617,1.32747 -0.46852,1.79599 -0.23426,0.54661 -0.54661,0.93704 -1.01513,1.24938 -0.39043,0.23426 -0.93703,0.46852 -1.56173,0.6247 -0.62469,0.15617 -1.24938,0.31234 -1.87407,0.31234 -0.6247,0.0781 -1.32748,0.0781 -2.10834,0.0781 -1.56173,0 -3.43581,-0.15617 -5.70032,-0.39043 l 0,-2.88921 c 2.73303,0.39044 4.68519,0.6247 5.77841,0.6247 0.78086,0 1.48364,-0.15618 1.95216,-0.31235 0.46852,-0.15617 0.70278,-0.46852 0.70278,-0.93704 l 0,-0.93704 c 0,-0.46852 -0.15617,-0.78086 -0.39043,-1.01512 -0.31235,-0.23426 -0.85896,-0.31235 -1.63982,-0.31235 l -1.95217,0 c -1.48364,0 -2.65494,-0.31234 -3.51389,-0.93704 -0.78087,-0.62469 -1.24939,-1.48364 -1.24939,-2.65494 l 0,-1.7179 c 0,-1.32747 0.6247,-2.26451 1.87408,-2.73303 1.24939,-0.54661 3.04538,-0.78087 5.30989,-0.78087 0.93704,0 2.65494,0.0781 5.07562,0.31235 l 0,2.73303 c -3.04537,-0.23426 -4.84136,-0.31235 -5.2318,-0.31235 -1.17129,0 -1.95216,0.0781 -2.26451,0.23426 -0.31234,0.15617 -0.46851,0.46852 -0.46851,0.93704 l 0,0.78086 c 0,0.23426 0.15617,0.46852 0.39043,0.6247 0.23426,0.23426 0.62469,0.31234 1.09321,0.31234 l 1.95216,0 c 3.5139,0 5.30989,1.1713 5.30989,3.43581 z"
         style="fill:#000000;fill-opacity:1;fill-rule:evenodd;stroke:none"
         inkscape:connector-curvature="0" />
      <path
         id="path3120"
         d="m 267.83688,119.86286 0,1.87408 c 0,0.70278 -0.0781,1.32747 -0.39043,1.79599 -0.23426,0.54661 -0.62469,0.93704 -1.01512,1.24938 -0.39044,0.23426 -0.93704,0.46852 -1.56174,0.6247 -0.62469,0.15617 -1.32747,0.31234 -1.87407,0.31234 -0.6247,0.0781 -1.32747,0.0781 -2.18643,0.0781 -1.48364,0 -3.4358,-0.15617 -5.62223,-0.39043 l 0,-2.88921 c 2.73303,0.39044 4.6852,0.6247 5.70032,0.6247 0.85895,0 1.56173,-0.15618 2.03025,-0.31235 0.46852,-0.15617 0.70278,-0.46852 0.70278,-0.93704 l 0,-0.93704 c 0,-0.46852 -0.15617,-0.78086 -0.39043,-1.01512 -0.31235,-0.23426 -0.85896,-0.31235 -1.71791,-0.31235 l -1.87407,0 c -1.48365,0 -2.65495,-0.31234 -3.5139,-0.93704 -0.78087,-0.62469 -1.24938,-1.48364 -1.24938,-2.65494 l 0,-1.7179 c 0,-1.32747 0.62469,-2.26451 1.87407,-2.73303 1.24939,-0.54661 3.04538,-0.78087 5.30989,-0.78087 0.93704,0 2.65494,0.0781 5.07562,0.31235 l 0,2.73303 c -3.04537,-0.23426 -4.84136,-0.31235 -5.23179,-0.31235 -1.1713,0 -1.95217,0.0781 -2.26451,0.23426 -0.31235,0.15617 -0.46852,0.46852 -0.46852,0.93704 l 0,0.78086 c 0,0.23426 0.15617,0.46852 0.39043,0.6247 0.23426,0.23426 0.62469,0.31234 1.09321,0.31234 l 1.95216,0 c 3.5139,0 5.2318,1.1713 5.2318,3.43581 z"
         style="fill:#000000;fill-opacity:1;fill-rule:evenodd;stroke:none"
         inkscape:connector-curvature="0" />
      <path
         id="path3122"
         d="m 285.79679,115.64619 0,4.76328 c 0,1.95216 -0.5466,3.35772 -1.7179,4.13859 -1.24939,0.85895 -3.12347,1.24938 -5.70032,1.24938 -2.73303,0 -4.68519,-0.39043 -5.70032,-1.24938 -1.09321,-0.93704 -1.63982,-2.26451 -1.63982,-4.13859 l 0,-15.6954 4.37285,0 0,7.80866 c 0.23426,-0.6247 0.70278,-1.09322 1.48364,-1.32748 0.70278,-0.23426 1.71791,-0.39043 3.20155,-0.39043 1.24939,0 2.18643,0.15617 2.96729,0.31235 0.78087,0.23426 1.40556,0.5466 1.79599,1.01512 0.39044,0.39044 0.6247,0.85896 0.78087,1.40556 0.0781,0.54661 0.15617,1.24939 0.15617,2.10834 z m -4.29476,5.30988 0,-5.30988 c 0,-0.93704 -0.15617,-1.56173 -0.54661,-1.79599 -0.31234,-0.23426 -1.17129,-0.31235 -2.57685,-0.31235 -1.24939,0 -2.03025,0.0781 -2.42068,0.46852 -0.31235,0.31235 -0.54661,0.85895 -0.54661,1.63982 l 0,5.30988 c 0,0.85896 0.15617,1.40556 0.54661,1.71791 0.39043,0.31234 1.17129,0.46852 2.49877,0.46852 1.24938,0 2.03025,-0.15618 2.42068,-0.46852 0.39043,-0.31235 0.62469,-0.85895 0.62469,-1.71791 z"
         style="fill:#000000;fill-opacity:1;fill-rule:evenodd;stroke:none"
         inkscape:connector-curvature="0" />
      <path
         id="path3124"
         d="m 302.11688,125.48509 -4.21667,0 0,-1.24938 c -0.31235,0.5466 -0.78087,0.93704 -1.40556,1.1713 -0.54661,0.31234 -1.63982,0.39043 -3.27964,0.39043 -1.87407,0 -3.20154,-0.31235 -3.82624,-0.85895 -0.62469,-0.62469 -0.93704,-1.87408 -0.93704,-3.74816 0,-1.7179 0.31235,-2.8892 0.93704,-3.51389 0.70278,-0.70278 1.87408,-1.01513 3.5139,-1.01513 l 4.91945,0 0,-1.01512 c 0,-0.85895 -0.23426,-1.40556 -0.62469,-1.71791 -0.39043,-0.31234 -1.24939,-0.39043 -2.57686,-0.39043 -1.24938,0 -2.8892,0.0781 -5.07562,0.31235 l 0,-2.73303 c 1.63981,-0.15618 3.51389,-0.31235 5.54414,-0.31235 2.65494,0 4.45093,0.31235 5.46606,1.01513 1.01513,0.62469 1.56173,1.87407 1.56173,3.82624 l 0,9.8389 z m -4.29476,-3.67006 0,-2.81112 -2.96729,0 c -1.01512,0 -1.56173,0.15617 -1.79599,0.39043 -0.23426,0.15618 -0.39043,0.78087 -0.39043,1.71791 0,0.93704 0.15617,1.48364 0.39043,1.7179 0.23426,0.15617 0.85895,0.31235 1.87408,0.31235 0.46852,0 0.85895,-0.0781 1.09321,-0.0781 0.23426,0 0.54661,0 0.78087,-0.0781 0.31234,0 0.46851,-0.0781 0.5466,-0.15617 0.15617,-0.0781 0.23426,-0.23426 0.31235,-0.39043 0.0781,-0.15617 0.15617,-0.39043 0.15617,-0.62469 z"
         style="fill:#000000;fill-opacity:1;fill-rule:evenodd;stroke:none"
         inkscape:connector-curvature="0" />
      <path
         id="path3126"
         d="m 315.31351,114.3968 -1.48365,0 c -1.17129,0 -2.03025,0.23426 -2.65494,0.54661 -0.62469,0.39043 -0.85895,1.01512 -0.85895,1.95216 l 0,8.58952 -4.37285,0 0,-14.36792 4.13859,0 0,2.49877 c 0,-0.70278 0.39043,-1.32747 1.24938,-1.95217 0.78087,-0.5466 1.63982,-0.85895 2.49877,-0.85895 l 1.48365,0 0,3.59198 z"
         style="fill:#000000;fill-opacity:1;fill-rule:evenodd;stroke:none"
         inkscape:connector-curvature="0" />
      <path
         id="path3128"
         d="m 317.89037,122.28355 0,3.20154 3.4358,0 0,-3.20154 -3.4358,0 z"
         style="fill:#000000;fill-opacity:1;fill-rule:evenodd;stroke:none"
         inkscape:connector-curvature="0" />
      <path
         id="path3130"
         d="m 328.43205,108.69648 -2.73303,0 0,-2.81111 2.73303,0 0,2.81111 z m 0,16.78861 -2.73303,0 0,-14.36792 2.73303,0 0,14.36792 z"
         style="fill:#000000;fill-opacity:1;fill-rule:evenodd;stroke:none"
         inkscape:connector-curvature="0" />
      <path
         id="path3132"
         d="m 345.76727,115.95853 0,4.99754 c 0,0.93704 -0.0781,1.63982 -0.31235,2.26451 -0.23426,0.6247 -0.54661,1.09322 -0.85895,1.40556 -0.31235,0.39043 -0.85895,0.62469 -1.40556,0.78087 -0.62469,0.23426 -1.24939,0.31234 -1.79599,0.31234 -0.54661,0.0781 -1.32747,0.0781 -2.26451,0.0781 -1.1713,0 -2.10834,0 -2.81112,-0.0781 -0.62469,-0.0781 -1.32747,-0.31234 -1.95216,-0.62469 -0.70278,-0.31235 -1.1713,-0.78086 -1.40556,-1.48364 -0.31235,-0.6247 -0.46852,-1.56173 -0.46852,-2.65495 l 0,-4.99754 c 0,-0.93703 0.15617,-1.7179 0.39043,-2.42068 0.15618,-0.62469 0.46852,-1.1713 0.78087,-1.48364 0.31235,-0.39044 0.85895,-0.6247 1.48364,-0.85896 0.6247,-0.15617 1.1713,-0.23426 1.71791,-0.31234 0.5466,-0.0781 1.32747,-0.0781 2.26451,-0.0781 0.93704,0 1.7179,0 2.26451,0.0781 0.5466,0.0781 1.09321,0.15617 1.7179,0.31234 0.6247,0.23426 1.1713,0.46852 1.48365,0.85896 0.31234,0.31234 0.62469,0.85895 0.85895,1.48364 0.15617,0.70278 0.31235,1.48365 0.31235,2.42068 z m -2.73303,5.38798 0,-5.8565 c 0,-1.32747 -0.31235,-2.10833 -0.85896,-2.42068 -0.46852,-0.31234 -1.56173,-0.46852 -3.04537,-0.46852 -1.56173,0 -2.57686,0.15618 -3.04538,0.46852 -0.5466,0.31235 -0.85895,1.09321 -0.85895,2.42068 l 0,5.8565 c 0,0.62469 0.0781,1.17129 0.23426,1.48364 0.15617,0.39043 0.39043,0.70278 0.78087,0.85895 0.39043,0.15618 0.70277,0.23426 1.09321,0.31235 0.46852,0.0781 1.01512,0.0781 1.79599,0.0781 0.78086,0 1.32747,0 1.7179,-0.0781 0.46852,-0.0781 0.78087,-0.15617 1.1713,-0.31235 0.39043,-0.15617 0.62469,-0.46852 0.78087,-0.85895 0.15617,-0.31235 0.23426,-0.85895 0.23426,-1.48364 z"
         style="fill:#000000;fill-opacity:1;fill-rule:evenodd;stroke:none"
         inkscape:connector-curvature="0" />
      <path
         id="path3134"
         d="m 233.63497,23.58214 0,64.889927 64.81184,0 0,-64.889927 -64.81184,0 z"
         style="fill:#000000;fill-opacity:1;fill-rule:evenodd;stroke:none"
         inkscape:connector-curvature="0" />
      <path
         id="path3136"
         d="m 233.63497,37.40346 0,6.403097 15.30497,0 10.15125,10.151253 4.68519,-4.685194 -12.02533,-12.025329 -18.11608,0.156173 z"
         style="fill:#ffe100;fill-opacity:1;fill-rule:evenodd;stroke:none"
         inkscape:connector-curvature="0" />
      <path
         id="path3138"
         d="m 272.91251,58.48683 -4.60711,4.685193 11.55681,11.634897 18.5846,0 0,-6.481184 -15.69539,0 -9.83891,-9.838906 z"
         style="fill:#ffe100;fill-opacity:1;fill-rule:evenodd;stroke:none"
         inkscape:connector-curvature="0" />
      <path
         id="path3140"
         d="m 280.33073,37.247287 -30.84419,31.078449 -15.85157,0 0,6.55927 18.50652,0 31.07844,-31.078449 15.22688,0 0,-6.55927 -18.11608,0 z"
         style="fill:#ffe100;fill-opacity:1;fill-rule:evenodd;stroke:none"
         inkscape:connector-curvature="0" />
      <path
         id="path3142"
         d="M 200.68245,150.86322 72.698583,260.34057"
         style="fill:none;stroke:#000000;stroke-width:3.59198141px;stroke-linecap:round;stroke-linejoin:round;stroke-opacity:1;stroke-dasharray:none"
         inkscape:connector-curvature="0" />
      <path
         id="path3144"
         d="M 325.77711,150.86322 446.18658,261.3557"
         style="fill:none;stroke:#000000;stroke-width:3.59198141px;stroke-linecap:round;stroke-linejoin:round;stroke-opacity:1;stroke-dasharray:none"
         inkscape:connector-curvature="0" />
      <path
         id="path3146"
         d="m 363.80526,151.566 90.11188,81.99089"
         style="fill:none;stroke:#285ea6;stroke-width:5.23179913px;stroke-linecap:round;stroke-linejoin:round;stroke-opacity:1;stroke-dasharray:none"
         inkscape:connector-curvature="0" />
      <path
         id="path3148"
         d="m 459.07086,223.87415 8.58952,22.0985 -22.80128,-6.4031 14.21176,-15.6954 z"
         style="fill:#285ea6;fill-opacity:1;fill-rule:evenodd;stroke:none"
         inkscape:connector-curvature="0" />
      <path
         id="path3150"
         d="m 404.17601,181.62933 29.67289,27.01794 18.81886,-20.69293 -29.67289,-27.01795 -18.81886,20.69294 z"
         style="fill:#ffffff;fill-opacity:1;fill-rule:evenodd;stroke:none"
         inkscape:connector-curvature="0" />
      <text
         id="text3152"
         style="font-size:23.73831177px;font-style:normal;font-weight:normal;text-align:start;text-anchor:start;fill:#3475cd;font-family:Arial"
         transform="matrix(0.7313537,0.68199836,-0.68199836,0.7313537,229.8982,-231.30404)"
         y="176.16327"
         x="408.54886"
         xml:space="preserve">C</text>
      <text
         id="text3154"
         style="font-size:23.73831177px;font-style:normal;font-weight:normal;text-align:start;text-anchor:start;fill:#3475cd;font-family:Arial"
         transform="matrix(0.7313537,0.68199836,-0.68199836,0.7313537,240.92333,-236.80404)"
         y="187.40773"
         x="421.04269"
         xml:space="preserve">a</text>
      <text
         id="text3156"
         style="font-size:23.73831177px;font-style:normal;font-weight:normal;text-align:start;text-anchor:start;fill:#3475cd;font-family:Arial"
         transform="matrix(0.7313537,0.68199836,-0.68199836,0.7313537,249.57302,-241.27117)"
         y="196.15343"
         x="431.03778"
         xml:space="preserve">l</text>
      <text
         id="text3158"
         style="font-size:23.73831177px;font-style:normal;font-weight:normal;text-align:start;text-anchor:start;fill:#3475cd;font-family:Arial"
         transform="matrix(0.7313537,0.68199836,-0.68199836,0.7313537,253.13618,-242.82048)"
         y="199.90158"
         x="434.78595"
         xml:space="preserve">l</text>
      <path
         id="path3160"
         d="M 52.083732,241.28745 146.72464,158.98423"
         style="fill:none;stroke:#285ea6;stroke-width:5.23179913px;stroke-linecap:round;stroke-linejoin:round;stroke-opacity:1;stroke-dasharray:none"
         inkscape:connector-curvature="0" />
      <path
         id="path3162"
         d="m 137.74468,152.7373 22.95745,-5.93458 -9.05804,21.94233 -13.89941,-16.00775 z"
         style="fill:#285ea6;fill-opacity:1;fill-rule:evenodd;stroke:none"
         inkscape:connector-curvature="0" />
      <path
         id="path3164"
         d="m 88.081634,203.57165 30.297586,-26.39326 -18.35034,-21.08337 -30.375673,26.31517 18.428427,21.16146 z"
         style="fill:#ffffff;fill-opacity:1;fill-rule:evenodd;stroke:none"
         inkscape:connector-curvature="0" />
      <text
         id="text3166"
         style="font-size:23.73831177px;font-style:normal;font-weight:normal;text-align:start;text-anchor:start;fill:#3475cd;font-family:Arial"
         transform="matrix(0.75470958,-0.65605903,0.65605903,0.75470958,-109.79461,103.64539)"
         y="198.65221"
         x="83.708786"
         xml:space="preserve">C</text>
      <text
         id="text3168"
         style="font-size:23.73831177px;font-style:normal;font-weight:normal;text-align:start;text-anchor:start;fill:#3475cd;font-family:Arial"
         transform="matrix(0.75470958,-0.65605903,0.65605903,0.75470958,-99.352948,109.08393)"
         y="187.40773"
         x="96.202637"
         xml:space="preserve">a</text>
      <text
         id="text3170"
         style="font-size:23.73831177px;font-style:normal;font-weight:normal;text-align:start;text-anchor:start;fill:#3475cd;font-family:Arial"
         transform="matrix(0.75470958,-0.65605903,0.65605903,0.75470958,-91.163564,113.49605)"
         y="178.66203"
         x="106.19771"
         xml:space="preserve">l</text>
      <text
         id="text3172"
         style="font-size:23.73831177px;font-style:normal;font-weight:normal;text-align:start;text-anchor:start;fill:#3475cd;font-family:Arial"
         transform="matrix(0.75470958,-0.65605903,0.65605903,0.75470958,-87.785162,115.03568)"
         y="174.91388"
         x="109.94587"
         xml:space="preserve">l</text>
      <path
         id="path3174"
         d="m 231.52664,156.2512 -94.719,84.48965"
         style="fill:none;stroke:#285ea6;stroke-width:5.23179913px;stroke-linecap:round;stroke-linejoin:round;stroke-opacity:1;stroke-dasharray:none"
         inkscape:connector-curvature="0" />
      <path
         id="path3176"
         d="m 145.7876,246.90969 -22.87936,6.16883 8.82378,-22.0204 14.05558,15.85157 z"
         style="fill:#285ea6;fill-opacity:1;fill-rule:evenodd;stroke:none"
         inkscape:connector-curvature="0" />
      <path
         id="path3178"
         d="m 177.02222,254.09365 49.3507,-43.96273 -18.5846,-20.9272 -49.3507,44.04082 18.5846,20.84911 z"
         style="fill:#ffffff;fill-opacity:1;fill-rule:evenodd;stroke:none"
         inkscape:connector-curvature="0" />
      <text
         id="text3180"
         style="font-size:23.73831177px;font-style:normal;font-weight:normal;text-align:start;text-anchor:start;fill:#3475cd;font-family:Arial"
         transform="matrix(0.75470958,-0.65605903,0.65605903,0.75470958,-120.8226,174.10046)"
         y="248.62759"
         x="172.41512"
         xml:space="preserve">R</text>
      <text
         id="text3182"
         style="font-size:23.73831177px;font-style:normal;font-weight:normal;text-align:start;text-anchor:start;fill:#3475cd;font-family:Arial"
         transform="matrix(0.75470958,-0.65605903,0.65605903,0.75470958,-110.38095,179.539)"
         y="237.38313"
         x="184.90897"
         xml:space="preserve">e</text>
      <text
         id="text3184"
         style="font-size:23.73831177px;font-style:normal;font-weight:normal;text-align:start;text-anchor:start;fill:#3475cd;font-family:Arial"
         transform="matrix(0.75470958,-0.65605903,0.65605903,0.75470958,-102.19156,183.95113)"
         y="228.63744"
         x="194.90404"
         xml:space="preserve">s</text>
      <text
         id="text3186"
         style="font-size:23.73831177px;font-style:normal;font-weight:normal;text-align:start;text-anchor:start;fill:#3475cd;font-family:Arial"
         transform="matrix(0.75470958,-0.65605903,0.65605903,0.75470958,-95.128298,187.85005)"
         y="221.14111"
         x="203.64973"
         xml:space="preserve">u</text>
      <text
         id="text3188"
         style="font-size:23.73831177px;font-style:normal;font-weight:normal;text-align:start;text-anchor:start;fill:#3475cd;font-family:Arial"
         transform="matrix(0.75470958,-0.65605903,0.65605903,0.75470958,-87.245375,191.4425)"
         y="212.39543"
         x="212.39543"
         xml:space="preserve">l</text>
      <text
         id="text3190"
         style="font-size:23.73831177px;font-style:normal;font-weight:normal;text-align:start;text-anchor:start;fill:#3475cd;font-family:Arial"
         transform="matrix(0.75470958,-0.65605903,0.65605903,0.75470958,-83.560512,193.8018)"
         y="208.64726"
         x="217.39297"
         xml:space="preserve">t</text>
      <path
         id="path3192"
         d="M 396.83587,250.73593 308.91041,168.90122"
         style="fill:none;stroke:#285ea6;stroke-width:5.23179913px;stroke-linecap:round;stroke-linejoin:round;stroke-opacity:1;stroke-dasharray:none"
         inkscape:connector-curvature="0" />
      <path
         id="path3194"
         d="m 303.60053,178.42778 -8.27718,-22.17658 22.72319,6.71544 -14.44601,15.46114 z"
         style="fill:#285ea6;fill-opacity:1;fill-rule:evenodd;stroke:none"
         inkscape:connector-curvature="0" />
      <path
         id="path3196"
         d="m 296.807,207.86641 48.41366,45.05594 19.05312,-20.45868 -48.41367,-45.05594 -19.05311,20.45868 z"
         style="fill:#ffffff;fill-opacity:1;fill-rule:evenodd;stroke:none"
         inkscape:connector-curvature="0" />
      <text
         id="text3198"
         style="font-size:23.73831177px;font-style:normal;font-weight:normal;text-align:start;text-anchor:start;fill:#3475cd;font-family:Arial"
         transform="matrix(0.7313537,0.68199836,-0.68199836,0.7313537,218.92658,-150.9768)"
         y="202.40034"
         x="301.10175"
         xml:space="preserve">R</text>
      <text
         id="text3200"
         style="font-size:23.73831177px;font-style:normal;font-weight:normal;text-align:start;text-anchor:start;fill:#3475cd;font-family:Arial"
         transform="matrix(0.7313537,0.68199836,-0.68199836,0.7313537,229.95171,-156.4768)"
         y="213.64481"
         x="313.59561"
         xml:space="preserve">e</text>
      <text
         id="text3202"
         style="font-size:23.73831177px;font-style:normal;font-weight:normal;text-align:start;text-anchor:start;fill:#3475cd;font-family:Arial"
         transform="matrix(0.7313537,0.68199836,-0.68199836,0.7313537,239.45348,-160.60828)"
         y="223.63989"
         x="323.59067"
         xml:space="preserve">s</text>
      <text
         id="text3204"
         style="font-size:23.73831177px;font-style:normal;font-weight:normal;text-align:start;text-anchor:start;fill:#3475cd;font-family:Arial"
         transform="matrix(0.7313537,0.68199836,-0.68199836,0.7313537,246.91545,-164.55898)"
         y="231.1362"
         x="332.33636"
         xml:space="preserve">u</text>
      <text
         id="text3206"
         style="font-size:23.73831177px;font-style:normal;font-weight:normal;text-align:start;text-anchor:start;fill:#3475cd;font-family:Arial"
         transform="matrix(0.7313537,0.68199836,-0.68199836,0.7313537,255.2295,-168.17403)"
         y="239.8819"
         x="341.08206"
         xml:space="preserve">l</text>
      <text
         id="text3208"
         style="font-size:23.73831177px;font-style:normal;font-weight:normal;text-align:start;text-anchor:start;fill:#3475cd;font-family:Arial"
         transform="matrix(0.7313537,0.68199836,-0.68199836,0.7313537,258.79266,-169.72334)"
         y="243.63005"
         x="344.83023"
         xml:space="preserve">t</text>
    </g>
  </g>
</svg>
