<?xml version="1.0" encoding="UTF-8" standalone="no"?>
<!-- Created with Inkscape (http://www.inkscape.org/) -->

<svg
   xmlns:dc="http://purl.org/dc/elements/1.1/"
   xmlns:cc="http://creativecommons.org/ns#"
   xmlns:rdf="http://www.w3.org/1999/02/22-rdf-syntax-ns#"
   xmlns:svg="http://www.w3.org/2000/svg"
   xmlns="http://www.w3.org/2000/svg"
   xmlns:sodipodi="http://sodipodi.sourceforge.net/DTD/sodipodi-0.dtd"
   xmlns:inkscape="http://www.inkscape.org/namespaces/inkscape"
   width="522.53125"
   height="378.8125"
   id="svg3186"
   version="1.1"
   inkscape:version="0.48.4 r9939"
   sodipodi:docname="Neues Dokument 3">
  <defs
     id="defs3188" />
  <sodipodi:namedview
     id="base"
     pagecolor="#ffffff"
     bordercolor="#666666"
     borderopacity="1.0"
     inkscape:pageopacity="0.0"
     inkscape:pageshadow="2"
     inkscape:zoom="0.35"
     inkscape:cx="325.55649"
     inkscape:cy="-70.591379"
     inkscape:document-units="px"
     inkscape:current-layer="layer1"
     showgrid="false"
     fit-margin-top="4"
     fit-margin-left="4"
     fit-margin-right="4"
     fit-margin-bottom="4"
     inkscape:window-width="1858"
     inkscape:window-height="1178"
     inkscape:window-x="1016"
     inkscape:window-y="-8"
     inkscape:window-maximized="1" />
  <metadata
     id="metadata3191">
    <rdf:RDF>
      <cc:Work
         rdf:about="">
        <dc:format>image/svg+xml</dc:format>
        <dc:type
           rdf:resource="http://purl.org/dc/dcmitype/StillImage" />
        <dc:title></dc:title>
      </cc:Work>
    </rdf:RDF>
  </metadata>
  <g
     inkscape:label="Ebene 1"
     inkscape:groupmode="layer"
     id="layer1"
     transform="translate(-24.443514,-82.958304)">
    <g
       id="g3198"
       transform="translate(26.506014,85.052054)">
      <path
         id="path3200"
         d="m 118.06687,370.67688 c 13.04046,0 23.58214,-10.54169 23.58214,-23.58214 l 0,0 0,-63.09394 c 0,-13.04045 -10.54168,-23.66023 -23.58214,-23.66023 l 0,0 -90.736576,0 c -13.040454,0 -23.5821394,10.61978 -23.5821394,23.66023 l 0,0 0,63.09394 c 0,13.04045 10.5416854,23.58214 23.5821394,23.58214 l 0,0 90.736576,0 z"
         style="fill:#595959;fill-opacity:1;fill-rule:evenodd;stroke:none"
         inkscape:connector-curvature="0" />
      <path
         id="path3202"
         d="m 118.06687,370.67688 c 13.04046,0 23.58214,-10.54169 23.58214,-23.58214 l 0,0 0,-63.09394 c 0,-13.04045 -10.54168,-23.66023 -23.58214,-23.66023 l 0,0 -90.736576,0 c -13.040454,0 -23.5821394,10.61978 -23.5821394,23.66023 l 0,0 0,63.09394 c 0,13.04045 10.5416854,23.58214 23.5821394,23.58214 l 0,0 90.736576,0 z"
         style="fill:none;stroke:#000000;stroke-width:3.59198141px;stroke-linecap:round;stroke-linejoin:round;stroke-opacity:1;stroke-dasharray:none"
         inkscape:connector-curvature="0" />
      <g
         style="font-size:23.73831177px;font-style:normal;font-weight:normal;text-align:start;text-anchor:start;fill:#ffffff;font-family:Arial"
         id="text3204">
        <path
           d="m 52.439394,308.59808 6.525717,-16.99236 2.422514,0 6.954583,16.99236 -2.561605,0 -1.982056,-5.14639 -7.105266,0 -1.866147,5.14639 z m 4.902981,-6.97776 5.760714,0 -1.773419,-4.70594 c -0.54092,-1.42954 -0.94274,-2.60409 -1.205461,-3.52365 -0.216373,1.08956 -0.521601,2.17139 -0.915687,3.24547 z"
           style="font-size:23.73831177px;font-style:normal;font-weight:normal;text-align:start;text-anchor:start;fill:#ffffff;font-family:Arial"
           id="path3383"
           inkscape:connector-curvature="0" />
        <path
           d="m 69.895398,313.31561 0,-17.02714 1.90092,0 0,1.59955 c 0.44818,-0.6259 0.954319,-1.09533 1.518417,-1.4083 0.564089,-0.31294 1.247955,-0.46942 2.051602,-0.46943 1.050907,10e-6 1.978184,0.27047 2.781834,0.81137 0.80363,0.54092 1.410223,1.30399 1.819782,2.28921 0.409536,0.98524 0.61431,2.06513 0.614322,3.23968 -1.2e-5,1.25956 -0.226036,2.39354 -0.678072,3.40195 -0.452059,1.00842 -1.10888,1.78115 -1.970465,2.31819 -0.861605,0.53705 -1.767631,0.80558 -2.718083,0.80558 -0.695465,0 -1.319445,-0.14682 -1.871942,-0.44046 -0.552508,-0.29364 -1.006487,-0.66455 -1.36194,-1.11273 l 0,5.99253 z m 1.889329,-10.80279 c -4e-6,1.58411 0.32068,2.75479 0.96205,3.51207 0.641363,0.75728 1.417957,1.13591 2.329786,1.13591 0.92727,0 1.721251,-0.39216 2.381945,-1.17648 0.660675,-0.78432 0.991018,-1.99944 0.991028,-3.64536 -10e-6,-1.56864 -0.322625,-2.74319 -0.967846,-3.52366 -0.64524,-0.78045 -1.416038,-1.17067 -2.312399,-1.17069 -0.888647,2e-5 -1.674901,0.41536 -2.358763,1.24603 -0.683871,0.8307 -1.025805,2.03809 -1.025801,3.62218 z"
           style="font-size:23.73831177px;font-style:normal;font-weight:normal;text-align:start;text-anchor:start;fill:#ffffff;font-family:Arial"
           id="path3385"
           inkscape:connector-curvature="0" />
        <path
           d="m 83.109108,313.31561 0,-17.02714 1.90092,0 0,1.59955 c 0.44818,-0.6259 0.954319,-1.09533 1.518417,-1.4083 0.564088,-0.31294 1.247955,-0.46942 2.051602,-0.46943 1.050907,10e-6 1.978184,0.27047 2.781834,0.81137 0.80363,0.54092 1.410223,1.30399 1.819782,2.28921 0.409536,0.98524 0.61431,2.06513 0.614322,3.23968 -1.2e-5,1.25956 -0.226036,2.39354 -0.678072,3.40195 -0.452059,1.00842 -1.10888,1.78115 -1.970465,2.31819 -0.861605,0.53705 -1.767632,0.80558 -2.718084,0.80558 -0.695464,0 -1.319444,-0.14682 -1.871942,-0.44046 -0.552507,-0.29364 -1.006486,-0.66455 -1.361939,-1.11273 l 0,5.99253 z m 1.889329,-10.80279 c -4e-6,1.58411 0.320679,2.75479 0.96205,3.51207 0.641362,0.75728 1.417957,1.13591 2.329786,1.13591 0.92727,0 1.721251,-0.39216 2.381945,-1.17648 0.660675,-0.78432 0.991018,-1.99944 0.991028,-3.64536 -1e-5,-1.56864 -0.322625,-2.74319 -0.967846,-3.52366 -0.64524,-0.78045 -1.416039,-1.17067 -2.312399,-1.17069 -0.888648,2e-5 -1.674901,0.41536 -2.358763,1.24603 -0.683872,0.8307 -1.025805,2.03809 -1.025801,3.62218 z"
           style="font-size:23.73831177px;font-style:normal;font-weight:normal;text-align:start;text-anchor:start;fill:#ffffff;font-family:Arial"
           id="path3387"
           inkscape:connector-curvature="0" />
      </g>
      <g
         style="font-size:23.73831177px;font-style:normal;font-weight:normal;text-align:start;text-anchor:start;fill:#ffffff;font-family:Arial"
         id="text3206">
        <path
           d="m 26.44938,330.12677 2.248648,0.56796 c -0.471382,1.84683 -1.319454,3.25514 -2.544218,4.22491 -1.224792,0.96978 -2.721958,1.45467 -4.491502,1.45467 -1.831381,0 -3.320819,-0.37284 -4.46832,-1.11853 -1.14751,-0.74569 -2.020695,-1.82558 -2.61956,-3.23968 -0.598868,-1.41409 -0.898301,-2.93251 -0.8983,-4.55525 -1e-6,-1.76954 0.338069,-3.31307 1.01421,-4.63059 0.676137,-1.3175 1.638187,-2.31818 2.886152,-3.00207 1.247955,-0.68385 2.621484,-1.02578 4.120591,-1.0258 1.699998,2e-5 3.12955,0.43275 4.28866,1.29819 1.159082,0.86548 1.966586,2.08253 2.422513,3.65116 l -2.213876,0.52159 c -0.394106,-1.23635 -0.965927,-2.13659 -1.715464,-2.70069 -0.74956,-0.56408 -1.692292,-0.84613 -2.828197,-0.84614 -1.305924,1e-5 -2.397406,0.31297 -3.27445,0.93886 -0.877055,0.62593 -1.493308,1.46627 -1.84876,2.52104 -0.35546,1.05479 -0.533188,2.14241 -0.533184,3.26286 -4e-6,1.44501 0.210565,2.7065 0.631708,3.78445 0.421134,1.07797 1.076023,1.88354 1.964669,2.41672 0.888635,0.53319 1.850684,0.79978 2.886153,0.79978 1.259542,0 2.32591,-0.36319 3.199108,-1.08955 0.873173,-0.72637 1.464312,-1.80433 1.773419,-3.23389 z"
           style="font-size:23.73831177px;font-style:normal;font-weight:normal;text-align:start;text-anchor:start;fill:#ffffff;font-family:Arial"
           id="path3390"
           inkscape:connector-curvature="0" />
        <path
           d="m 30.436675,329.92973 c -1e-6,-2.27955 0.633639,-3.96797 1.90092,-5.06526 1.058638,-0.91181 2.349098,-1.36772 3.871384,-1.36773 1.692274,1e-5 3.075462,0.55444 4.149569,1.6633 1.074085,1.10888 1.611132,2.64082 1.611145,4.59582 -1.3e-5,1.58411 -0.237627,2.83014 -0.712845,3.73809 -0.475241,0.90796 -1.166835,1.61308 -2.074784,2.11535 -0.907968,0.50228 -1.898995,0.75342 -2.973085,0.75342 -1.723196,0 -3.116043,-0.55251 -4.178545,-1.65751 -1.062507,-1.10501 -1.59376,-2.69683 -1.593759,-4.77548 z m 2.14433,0 c -3e-6,1.57637 0.343862,2.75672 1.031597,3.54104 0.687726,0.78432 1.553184,1.17648 2.596377,1.17648 1.035453,0 1.897048,-0.39409 2.584787,-1.18228 0.687722,-0.78818 1.031587,-1.98978 1.031597,-3.60479 -1e-5,-1.52227 -0.345807,-2.67557 -1.037392,-3.4599 -0.691603,-0.78432 -1.551266,-1.17648 -2.578992,-1.17649 -1.043193,10e-6 -1.908651,0.39024 -2.596377,1.17069 -0.687735,0.78047 -1.0316,1.95888 -1.031597,3.53525 z"
           style="font-size:23.73831177px;font-style:normal;font-weight:normal;text-align:start;text-anchor:start;fill:#ffffff;font-family:Arial"
           id="path3392"
           inkscape:connector-curvature="0" />
        <path
           d="m 44.426979,336.08453 0,-12.30961 1.866147,0 0,1.72706 c 0.386362,-0.60272 0.900228,-1.08761 1.541599,-1.45467 0.641362,-0.36704 1.371592,-0.55056 2.190694,-0.55057 0.911815,1e-5 1.659432,0.18933 2.242853,0.56796 0.583402,0.37865 0.994882,0.90797 1.234439,1.58796 0.97363,-1.43727 2.240908,-2.15591 3.801839,-2.15592 1.2209,1e-5 2.159768,0.33808 2.816606,1.01421 0.656804,0.67615 0.985214,1.7174 0.985233,3.12376 l 0,8.44982 -2.074784,0 0,-7.75436 c -1.7e-5,-0.83454 -0.06763,-1.43534 -0.202842,-1.80239 -0.135244,-0.36704 -0.380586,-0.66261 -0.736027,-0.88671 -0.355472,-0.22408 -0.772746,-0.33613 -1.251825,-0.33614 -0.865473,10e-6 -1.584112,0.28785 -2.155921,0.86353 -0.571833,0.57569 -0.857743,1.49717 -0.857732,2.76444 l 0,7.15163 -2.086375,0 0,-7.99777 c -9e-6,-0.92727 -0.17001,-1.62272 -0.510003,-2.08637 -0.34001,-0.46363 -0.896376,-0.69545 -1.6691,-0.69546 -0.587282,10e-6 -1.130125,0.15456 -1.628532,0.46364 -0.498416,0.3091 -0.859668,0.76115 -1.083756,1.35614 -0.224095,0.59501 -0.336141,1.45274 -0.336138,2.5732 l 0,6.38662 z"
           style="font-size:23.73831177px;font-style:normal;font-weight:normal;text-align:start;text-anchor:start;fill:#ffffff;font-family:Arial"
           id="path3394"
           inkscape:connector-curvature="0" />
        <path
           d="m 64.22436,340.80206 0,-17.02714 1.900919,0 0,1.59956 c 0.44818,-0.62591 0.954319,-1.09534 1.518418,-1.40831 0.564088,-0.31294 1.247955,-0.46942 2.051602,-0.46943 1.050906,1e-5 1.978183,0.27047 2.781833,0.81137 0.80363,0.54092 1.410224,1.30399 1.819783,2.28921 0.409535,0.98524 0.614309,2.06514 0.614321,3.23968 -1.2e-5,1.25956 -0.226036,2.39354 -0.678072,3.40195 -0.452059,1.00842 -1.10888,1.78115 -1.970465,2.31819 -0.861604,0.53705 -1.767631,0.80558 -2.718083,0.80558 -0.695465,0 -1.319445,-0.14682 -1.871942,-0.44046 -0.552508,-0.29364 -1.006487,-0.66455 -1.361939,-1.11273 l 0,5.99253 z m 1.889328,-10.80279 c -3e-6,1.58411 0.32068,2.75479 0.962051,3.51207 0.641362,0.75728 1.417956,1.13591 2.329785,1.13591 0.92727,0 1.721251,-0.39216 2.381945,-1.17648 0.660676,-0.78432 0.991018,-1.99944 0.991028,-3.64536 -1e-5,-1.56864 -0.322625,-2.74319 -0.967846,-3.52366 -0.645239,-0.78045 -1.416038,-1.17067 -2.312399,-1.17069 -0.888647,2e-5 -1.674901,0.41536 -2.358763,1.24603 -0.683871,0.8307 -1.025804,2.03809 -1.025801,3.62218 z"
           style="font-size:23.73831177px;font-style:normal;font-weight:normal;text-align:start;text-anchor:start;fill:#ffffff;font-family:Arial"
           id="path3396"
           inkscape:connector-curvature="0" />
        <path
           d="m 76.661475,329.92973 c -10e-7,-2.27955 0.633639,-3.96797 1.90092,-5.06526 1.058638,-0.91181 2.349098,-1.36772 3.871385,-1.36773 1.692273,1e-5 3.075461,0.55444 4.149568,1.6633 1.074085,1.10888 1.611133,2.64082 1.611145,4.59582 -1.2e-5,1.58411 -0.237627,2.83014 -0.712845,3.73809 -0.475241,0.90796 -1.166835,1.61308 -2.074784,2.11535 -0.907968,0.50228 -1.898995,0.75342 -2.973084,0.75342 -1.723197,0 -3.116044,-0.55251 -4.178546,-1.65751 -1.062507,-1.10501 -1.59376,-2.69683 -1.593759,-4.77548 z m 2.14433,0 c -3e-6,1.57637 0.343862,2.75672 1.031597,3.54104 0.687726,0.78432 1.553185,1.17648 2.596378,1.17648 1.035452,0 1.897047,-0.39409 2.584786,-1.18228 0.687722,-0.78818 1.031587,-1.98978 1.031597,-3.60479 -1e-5,-1.52227 -0.345807,-2.67557 -1.037392,-3.4599 -0.691603,-0.78432 -1.551266,-1.17648 -2.578991,-1.17649 -1.043193,10e-6 -1.908652,0.39024 -2.596378,1.17069 -0.687735,0.78047 -1.0316,1.95888 -1.031597,3.53525 z"
           style="font-size:23.73831177px;font-style:normal;font-weight:normal;text-align:start;text-anchor:start;fill:#ffffff;font-family:Arial"
           id="path3398"
           inkscape:connector-curvature="0" />
        <path
           d="m 90.651777,336.08453 0,-12.30961 1.877738,0 0,1.75024 c 0.904091,-1.35227 2.210006,-2.02841 3.917749,-2.02842 0.741814,1e-5 1.423749,0.13331 2.045806,0.39989 0.622039,0.2666 1.087609,0.61626 1.396712,1.04898 0.309078,0.43274 0.525448,0.94661 0.649098,1.5416 0.0773,0.38637 0.1159,1.06251 0.11591,2.02842 l 0,7.5689 -2.086378,0 0,-7.48776 c -10e-6,-0.85 -0.08115,-1.48557 -0.243411,-1.90672 -0.162282,-0.42113 -0.450125,-0.75727 -0.863527,-1.00841 -0.41342,-0.25113 -0.898308,-0.3767 -1.454667,-0.37671 -0.888648,10e-6 -1.655583,0.28206 -2.300808,0.84614 -0.645235,0.5641 -0.96785,1.63434 -0.967847,3.2107 l 0,6.72276 z"
           style="font-size:23.73831177px;font-style:normal;font-weight:normal;text-align:start;text-anchor:start;fill:#ffffff;font-family:Arial"
           id="path3400"
           inkscape:connector-curvature="0" />
        <path
           d="m 112.29212,332.12042 2.15592,0.26659 c -0.34001,1.25956 -0.96979,2.23706 -1.88933,2.93252 -0.91956,0.69546 -2.09411,1.04319 -3.52365,1.04319 -1.80047,0 -3.22809,-0.55444 -4.28287,-1.66331 -1.05478,-1.10886 -1.58216,-2.66399 -1.58216,-4.66536 0,-2.07092 0.53318,-3.6782 1.59955,-4.82185 1.06637,-1.14363 2.44955,-1.71545 4.14957,-1.71546 1.64591,1e-5 2.99046,0.56024 4.03366,1.68069 1.04317,1.12047 1.56477,2.69684 1.56478,4.72912 -1e-5,0.12364 -0.004,0.30909 -0.0116,0.55636 l -9.18005,0 c 0.0773,1.35229 0.45977,2.38775 1.1475,3.10638 0.68773,0.71864 1.54546,1.07796 2.5732,1.07796 0.765,0 1.41795,-0.20091 1.95887,-0.60273 0.54091,-0.40182 0.96977,-1.04318 1.2866,-1.9241 z m -6.85026,-3.37297 6.87344,0 c -0.0927,-1.03545 -0.35546,-1.81205 -0.78818,-2.32979 -0.66456,-0.80363 -1.52616,-1.20545 -2.58479,-1.20546 -0.95819,1e-5 -1.76376,0.3207 -2.41672,0.96205 -0.65296,0.64138 -1.01421,1.49911 -1.08375,2.5732 z"
           style="font-size:23.73831177px;font-style:normal;font-weight:normal;text-align:start;text-anchor:start;fill:#ffffff;font-family:Arial"
           id="path3402"
           inkscape:connector-curvature="0" />
        <path
           d="m 117.0792,336.08453 0,-12.30961 1.87774,0 0,1.75024 c 0.90409,-1.35227 2.21,-2.02841 3.91775,-2.02842 0.74181,1e-5 1.42374,0.13331 2.0458,0.39989 0.62204,0.2666 1.08761,0.61626 1.39671,1.04898 0.30909,0.43274 0.52545,0.94661 0.6491,1.5416 0.0773,0.38637 0.1159,1.06251 0.11591,2.02842 l 0,7.5689 -2.08638,0 0,-7.48776 c -1e-5,-0.85 -0.0811,-1.48557 -0.24341,-1.90672 -0.16228,-0.42113 -0.45012,-0.75727 -0.86352,-1.00841 -0.41342,-0.25113 -0.89831,-0.3767 -1.45467,-0.37671 -0.88865,10e-6 -1.65558,0.28206 -2.30081,0.84614 -0.64523,0.5641 -0.96785,1.63434 -0.96785,3.2107 l 0,6.72276 z"
           style="font-size:23.73831177px;font-style:normal;font-weight:normal;text-align:start;text-anchor:start;fill:#ffffff;font-family:Arial"
           id="path3404"
           inkscape:connector-curvature="0" />
        <path
           d="m 134.84816,334.21839 0.30136,1.84296 c -0.58728,0.12364 -1.11274,0.18546 -1.57637,0.18546 -0.75728,0 -1.34456,-0.11978 -1.76183,-0.35932 -0.41727,-0.23955 -0.71091,-0.55444 -0.88091,-0.94467 -0.17,-0.39022 -0.255,-1.21125 -0.255,-2.46308 l 0,-7.08208 -1.53001,0 0,-1.62274 1.53001,0 0,-3.04842 2.07478,-1.25183 0,4.30025 2.09797,0 0,1.62274 -2.09797,0 0,7.19799 c 0,0.59501 0.0367,0.97751 0.11012,1.14751 0.0734,0.17 0.19317,0.30523 0.35932,0.40568 0.16613,0.10046 0.40374,0.15069 0.71284,0.15068 0.23182,1e-5 0.53704,-0.027 0.91569,-0.0811 z"
           style="font-size:23.73831177px;font-style:normal;font-weight:normal;text-align:start;text-anchor:start;fill:#ffffff;font-family:Arial"
           id="path3406"
           inkscape:connector-curvature="0" />
      </g>
      <path
         id="path3208"
         d="m 491.08634,370.91114 c 13.04046,0 23.58214,-10.54169 23.58214,-23.58214 l 0,0 0,-62.31307 c 0,-13.04046 -10.54168,-23.66023 -23.58214,-23.66023 l -89.72145,0 c -13.04045,0 -23.58214,10.61977 -23.58214,23.66023 l 0,0 0,62.31307 c 0,13.04045 10.54169,23.58214 23.58214,23.58214 l 89.72145,0 z"
         style="fill:#595959;fill-opacity:1;fill-rule:evenodd;stroke:none"
         inkscape:connector-curvature="0" />
      <path
         id="path3210"
         d="m 491.08634,370.91114 c 13.04046,0 23.58214,-10.54169 23.58214,-23.58214 l 0,0 0,-62.31307 c 0,-13.04046 -10.54168,-23.66023 -23.58214,-23.66023 l -89.72145,0 c -13.04045,0 -23.58214,10.61977 -23.58214,23.66023 l 0,0 0,62.31307 c 0,13.04045 10.54169,23.58214 23.58214,23.58214 l 89.72145,0 z"
         style="fill:none;stroke:#000000;stroke-width:3.59198141px;stroke-linecap:round;stroke-linejoin:round;stroke-opacity:1;stroke-dasharray:none"
         inkscape:connector-curvature="0" />
      <g
         style="font-size:23.73831177px;font-style:normal;font-weight:normal;text-align:start;text-anchor:start;fill:#ffffff;font-family:Arial"
         id="text3212">
        <path
           d="m 426.00548,308.59808 6.52572,-16.99236 2.42251,0 6.95458,16.99236 -2.5616,0 -1.98206,-5.14639 -7.10526,0 -1.86615,5.14639 z m 4.90298,-6.97776 5.76071,0 -1.77341,-4.70594 c -0.54092,-1.42954 -0.94274,-2.60409 -1.20547,-3.52365 -0.21637,1.08956 -0.5216,2.17139 -0.91568,3.24547 z"
           style="font-size:23.73831177px;font-style:normal;font-weight:normal;text-align:start;text-anchor:start;fill:#ffffff;font-family:Arial"
           id="path3409"
           inkscape:connector-curvature="0" />
        <path
           d="m 443.46148,313.31561 0,-17.02714 1.90092,0 0,1.59955 c 0.44818,-0.6259 0.95432,-1.09533 1.51842,-1.4083 0.56409,-0.31294 1.24796,-0.46942 2.0516,-0.46943 1.05091,10e-6 1.97819,0.27047 2.78184,0.81137 0.80363,0.54092 1.41022,1.30399 1.81978,2.28921 0.40953,0.98524 0.61431,2.06513 0.61432,3.23968 -1e-5,1.25956 -0.22604,2.39354 -0.67807,3.40195 -0.45206,1.00842 -1.10888,1.78115 -1.97047,2.31819 -0.8616,0.53705 -1.76763,0.80558 -2.71808,0.80558 -0.69546,0 -1.31944,-0.14682 -1.87194,-0.44046 -0.55251,-0.29364 -1.00649,-0.66455 -1.36194,-1.11273 l 0,5.99253 z m 1.88933,-10.80279 c 0,1.58411 0.32068,2.75479 0.96205,3.51207 0.64137,0.75728 1.41796,1.13591 2.32979,1.13591 0.92727,0 1.72125,-0.39216 2.38194,-1.17648 0.66068,-0.78432 0.99102,-1.99944 0.99103,-3.64536 -1e-5,-1.56864 -0.32262,-2.74319 -0.96784,-3.52366 -0.64524,-0.78045 -1.41604,-1.17067 -2.3124,-1.17069 -0.88865,2e-5 -1.6749,0.41536 -2.35877,1.24603 -0.68387,0.8307 -1.0258,2.03809 -1.0258,3.62218 z"
           style="font-size:23.73831177px;font-style:normal;font-weight:normal;text-align:start;text-anchor:start;fill:#ffffff;font-family:Arial"
           id="path3411"
           inkscape:connector-curvature="0" />
        <path
           d="m 456.67519,313.31561 0,-17.02714 1.90092,0 0,1.59955 c 0.44818,-0.6259 0.95432,-1.09533 1.51842,-1.4083 0.56409,-0.31294 1.24796,-0.46942 2.0516,-0.46943 1.05091,10e-6 1.97819,0.27047 2.78184,0.81137 0.80363,0.54092 1.41022,1.30399 1.81978,2.28921 0.40953,0.98524 0.61431,2.06513 0.61432,3.23968 -1e-5,1.25956 -0.22604,2.39354 -0.67807,3.40195 -0.45206,1.00842 -1.10888,1.78115 -1.97047,2.31819 -0.8616,0.53705 -1.76763,0.80558 -2.71808,0.80558 -0.69546,0 -1.31944,-0.14682 -1.87194,-0.44046 -0.55251,-0.29364 -1.00649,-0.66455 -1.36194,-1.11273 l 0,5.99253 z m 1.88933,-10.80279 c 0,1.58411 0.32068,2.75479 0.96205,3.51207 0.64137,0.75728 1.41796,1.13591 2.32979,1.13591 0.92727,0 1.72125,-0.39216 2.38194,-1.17648 0.66068,-0.78432 0.99102,-1.99944 0.99103,-3.64536 -1e-5,-1.56864 -0.32262,-2.74319 -0.96784,-3.52366 -0.64524,-0.78045 -1.41604,-1.17067 -2.3124,-1.17069 -0.88865,2e-5 -1.6749,0.41536 -2.35877,1.24603 -0.68387,0.8307 -1.0258,2.03809 -1.0258,3.62218 z"
           style="font-size:23.73831177px;font-style:normal;font-weight:normal;text-align:start;text-anchor:start;fill:#ffffff;font-family:Arial"
           id="path3413"
           inkscape:connector-curvature="0" />
      </g>
      <g
         style="font-size:23.73831177px;font-style:normal;font-weight:normal;text-align:start;text-anchor:start;fill:#ffffff;font-family:Arial"
         id="text3214">
        <path
           d="m 400.01547,331.37616 2.24865,0.56796 c -0.47139,1.84683 -1.31946,3.25513 -2.54422,4.22491 -1.22479,0.96978 -2.72196,1.45467 -4.4915,1.45467 -1.83139,0 -3.32082,-0.37285 -4.46832,-1.11853 -1.14751,-0.74569 -2.0207,-1.82558 -2.61956,-3.23968 -0.59887,-1.41409 -0.89831,-2.93251 -0.8983,-4.55525 -10e-6,-1.76954 0.33806,-3.31307 1.01421,-4.63059 0.67613,-1.3175 1.63818,-2.31818 2.88615,-3.00207 1.24795,-0.68385 2.62148,-1.02578 4.12059,-1.0258 1.7,2e-5 3.12955,0.43275 4.28866,1.29819 1.15908,0.86548 1.96658,2.08253 2.42251,3.65116 l -2.21387,0.52159 c -0.39411,-1.23636 -0.96593,-2.13659 -1.71547,-2.70069 -0.74956,-0.56408 -1.69229,-0.84613 -2.8282,-0.84615 -1.30592,2e-5 -2.3974,0.31298 -3.27444,0.93887 -0.87706,0.62593 -1.49331,1.46627 -1.84877,2.52104 -0.35546,1.05479 -0.53318,2.14241 -0.53318,3.26286 0,1.44501 0.21057,2.7065 0.63171,3.78445 0.42113,1.07797 1.07602,1.88354 1.96467,2.41672 0.88863,0.53319 1.85068,0.79978 2.88615,0.79978 1.25954,0 2.32591,-0.36319 3.19911,-1.08956 0.87317,-0.72636 1.46431,-1.80432 1.77342,-3.23388 z"
           style="font-size:23.73831177px;font-style:normal;font-weight:normal;text-align:start;text-anchor:start;fill:#ffffff;font-family:Arial"
           id="path3416"
           inkscape:connector-curvature="0" />
        <path
           d="m 404.00276,331.17912 c 0,-2.27955 0.63364,-3.96797 1.90092,-5.06526 1.05864,-0.91181 2.3491,-1.36772 3.87139,-1.36773 1.69227,1e-5 3.07546,0.55444 4.14957,1.6633 1.07408,1.10888 1.61113,2.64082 1.61114,4.59582 -10e-6,1.58411 -0.23763,2.83013 -0.71284,3.73809 -0.47525,0.90796 -1.16684,1.61308 -2.07479,2.11535 -0.90797,0.50228 -1.89899,0.75342 -2.97308,0.75342 -1.7232,0 -3.11605,-0.55251 -4.17855,-1.65751 -1.06251,-1.10501 -1.59376,-2.69683 -1.59376,-4.77548 z m 2.14433,0 c 0,1.57637 0.34387,2.75672 1.0316,3.54104 0.68773,0.78432 1.55318,1.17648 2.59638,1.17648 1.03545,0 1.89704,-0.39409 2.58478,-1.18228 0.68773,-0.78818 1.03159,-1.98978 1.0316,-3.60479 -1e-5,-1.52227 -0.34581,-2.67557 -1.03739,-3.4599 -0.6916,-0.78432 -1.55127,-1.17648 -2.57899,-1.17649 -1.0432,10e-6 -1.90865,0.39024 -2.59638,1.17069 -0.68773,0.78047 -1.0316,1.95888 -1.0316,3.53525 z"
           style="font-size:23.73831177px;font-style:normal;font-weight:normal;text-align:start;text-anchor:start;fill:#ffffff;font-family:Arial"
           id="path3418"
           inkscape:connector-curvature="0" />
        <path
           d="m 417.99307,337.33392 0,-12.30961 1.86614,0 0,1.72706 c 0.38637,-0.60272 0.90023,-1.08761 1.5416,-1.45467 0.64136,-0.36704 1.37159,-0.55056 2.1907,-0.55057 0.91181,1e-5 1.65943,0.18933 2.24285,0.56795 0.5834,0.37865 0.99488,0.90798 1.23444,1.58797 0.97363,-1.43727 2.24091,-2.15591 3.80184,-2.15592 1.2209,1e-5 2.15977,0.33808 2.8166,1.01421 0.65681,0.67615 0.98522,1.7174 0.98524,3.12376 l 0,8.44982 -2.07479,0 0,-7.75436 c -10e-6,-0.83454 -0.0676,-1.43534 -0.20284,-1.80239 -0.13524,-0.36704 -0.38059,-0.66261 -0.73603,-0.88671 -0.35547,-0.22408 -0.77274,-0.33613 -1.25182,-0.33614 -0.86547,10e-6 -1.58411,0.28785 -2.15592,0.86353 -0.57183,0.57569 -0.85775,1.49717 -0.85773,2.76444 l 0,7.15163 -2.08638,0 0,-7.99777 c -10e-6,-0.92727 -0.17001,-1.62272 -0.51,-2.08637 -0.34001,-0.46363 -0.89638,-0.69545 -1.6691,-0.69546 -0.58728,10e-6 -1.13013,0.15456 -1.62853,0.46364 -0.49842,0.3091 -0.85967,0.76115 -1.08376,1.35614 -0.2241,0.59501 -0.33614,1.45274 -0.33614,2.5732 l 0,6.38662 z"
           style="font-size:23.73831177px;font-style:normal;font-weight:normal;text-align:start;text-anchor:start;fill:#ffffff;font-family:Arial"
           id="path3420"
           inkscape:connector-curvature="0" />
        <path
           d="m 437.79045,342.05145 0,-17.02714 1.90092,0 0,1.59955 c 0.44818,-0.6259 0.95432,-1.09533 1.51841,-1.4083 0.56409,-0.31294 1.24796,-0.46942 2.05161,-0.46943 1.0509,1e-5 1.97818,0.27047 2.78183,0.81137 0.80363,0.54092 1.41022,1.30399 1.81978,2.28921 0.40954,0.98524 0.61431,2.06513 0.61432,3.23968 -1e-5,1.25956 -0.22603,2.39354 -0.67807,3.40195 -0.45206,1.00842 -1.10888,1.78115 -1.97046,2.31819 -0.86161,0.53705 -1.76763,0.80558 -2.71809,0.80558 -0.69546,0 -1.31944,-0.14682 -1.87194,-0.44046 -0.55251,-0.29364 -1.00649,-0.66455 -1.36194,-1.11273 l 0,5.99253 z m 1.88933,-10.80279 c -10e-6,1.58411 0.32068,2.75479 0.96205,3.51207 0.64136,0.75728 1.41795,1.13591 2.32978,1.13591 0.92727,0 1.72125,-0.39216 2.38195,-1.17648 0.66067,-0.78432 0.99101,-1.99944 0.99103,-3.64536 -2e-5,-1.56864 -0.32263,-2.74319 -0.96785,-3.52366 -0.64524,-0.78045 -1.41604,-1.17067 -2.3124,-1.17069 -0.88865,2e-5 -1.6749,0.41536 -2.35876,1.24603 -0.68387,0.8307 -1.02581,2.03809 -1.0258,3.62218 z"
           style="font-size:23.73831177px;font-style:normal;font-weight:normal;text-align:start;text-anchor:start;fill:#ffffff;font-family:Arial"
           id="path3422"
           inkscape:connector-curvature="0" />
        <path
           d="m 450.22756,331.17912 c 0,-2.27955 0.63364,-3.96797 1.90092,-5.06526 1.05864,-0.91181 2.3491,-1.36772 3.87139,-1.36773 1.69227,1e-5 3.07546,0.55444 4.14957,1.6633 1.07408,1.10888 1.61113,2.64082 1.61114,4.59582 -1e-5,1.58411 -0.23763,2.83013 -0.71284,3.73809 -0.47525,0.90796 -1.16684,1.61308 -2.07479,2.11535 -0.90797,0.50228 -1.89899,0.75342 -2.97308,0.75342 -1.7232,0 -3.11605,-0.55251 -4.17855,-1.65751 -1.06251,-1.10501 -1.59376,-2.69683 -1.59376,-4.77548 z m 2.14433,0 c 0,1.57637 0.34387,2.75672 1.0316,3.54104 0.68773,0.78432 1.55318,1.17648 2.59638,1.17648 1.03545,0 1.89704,-0.39409 2.58478,-1.18228 0.68773,-0.78818 1.03159,-1.98978 1.0316,-3.60479 -10e-6,-1.52227 -0.34581,-2.67557 -1.03739,-3.4599 -0.6916,-0.78432 -1.55127,-1.17648 -2.57899,-1.17649 -1.0432,10e-6 -1.90865,0.39024 -2.59638,1.17069 -0.68773,0.78047 -1.0316,1.95888 -1.0316,3.53525 z"
           style="font-size:23.73831177px;font-style:normal;font-weight:normal;text-align:start;text-anchor:start;fill:#ffffff;font-family:Arial"
           id="path3424"
           inkscape:connector-curvature="0" />
        <path
           d="m 464.21787,337.33392 0,-12.30961 1.87773,0 0,1.75024 c 0.90409,-1.35227 2.21001,-2.02841 3.91775,-2.02842 0.74182,1e-5 1.42375,0.13331 2.04581,0.39989 0.62204,0.2666 1.08761,0.61626 1.39671,1.04898 0.30908,0.43274 0.52545,0.94661 0.64909,1.5416 0.0773,0.38637 0.1159,1.06251 0.11591,2.02842 l 0,7.5689 -2.08637,0 0,-7.48776 c -10e-6,-0.85 -0.0811,-1.48557 -0.24341,-1.90672 -0.16228,-0.42113 -0.45013,-0.75727 -0.86353,-1.00841 -0.41342,-0.25113 -0.89831,-0.3767 -1.45467,-0.37671 -0.88864,10e-6 -1.65558,0.28206 -2.3008,0.84614 -0.64524,0.5641 -0.96785,1.63434 -0.96785,3.2107 l 0,6.72276 z"
           style="font-size:23.73831177px;font-style:normal;font-weight:normal;text-align:start;text-anchor:start;fill:#ffffff;font-family:Arial"
           id="path3426"
           inkscape:connector-curvature="0" />
        <path
           d="m 485.85821,333.36981 2.15592,0.26659 c -0.34001,1.25956 -0.96979,2.23706 -1.88933,2.93252 -0.91956,0.69546 -2.09411,1.04319 -3.52365,1.04319 -1.80047,0 -3.22809,-0.55444 -4.28287,-1.66331 -1.05478,-1.10887 -1.58217,-2.66399 -1.58217,-4.66536 0,-2.07092 0.53319,-3.6782 1.59956,-4.82185 1.06636,-1.14363 2.44955,-1.71545 4.14957,-1.71546 1.64591,1e-5 2.99046,0.56024 4.03365,1.68069 1.04318,1.12047 1.56477,2.69684 1.56479,4.72911 -2e-5,0.12365 -0.004,0.3091 -0.0116,0.55637 l -9.18005,0 c 0.0773,1.35229 0.45978,2.38775 1.14751,3.10638 0.68773,0.71864 1.54546,1.07796 2.5732,1.07796 0.76499,0 1.41795,-0.20091 1.95887,-0.60273 0.5409,-0.40182 0.96977,-1.04318 1.2866,-1.9241 z m -6.85027,-3.37297 6.87345,0 c -0.0927,-1.03545 -0.35547,-1.81205 -0.78819,-2.32979 -0.66455,-0.80363 -1.52615,-1.20545 -2.58478,-1.20546 -0.95819,10e-6 -1.76377,0.3207 -2.41672,0.96205 -0.65296,0.64138 -1.01421,1.49911 -1.08376,2.5732 z"
           style="font-size:23.73831177px;font-style:normal;font-weight:normal;text-align:start;text-anchor:start;fill:#ffffff;font-family:Arial"
           id="path3428"
           inkscape:connector-curvature="0" />
        <path
           d="m 490.64529,337.33392 0,-12.30961 1.87773,0 0,1.75024 c 0.9041,-1.35227 2.21001,-2.02841 3.91775,-2.02842 0.74182,1e-5 1.42375,0.13331 2.04581,0.39989 0.62204,0.2666 1.08761,0.61626 1.39671,1.04898 0.30908,0.43274 0.52545,0.94661 0.6491,1.5416 0.0773,0.38637 0.11589,1.06251 0.11591,2.02842 l 0,7.5689 -2.08638,0 0,-7.48776 c -10e-6,-0.85 -0.0811,-1.48557 -0.24341,-1.90672 -0.16228,-0.42113 -0.45012,-0.75727 -0.86353,-1.00841 -0.41342,-0.25113 -0.8983,-0.3767 -1.45466,-0.37671 -0.88865,10e-6 -1.65559,0.28206 -2.30081,0.84614 -0.64524,0.5641 -0.96785,1.63434 -0.96785,3.2107 l 0,6.72276 z"
           style="font-size:23.73831177px;font-style:normal;font-weight:normal;text-align:start;text-anchor:start;fill:#ffffff;font-family:Arial"
           id="path3430"
           inkscape:connector-curvature="0" />
        <path
           d="m 508.41425,335.46778 0.30136,1.84296 c -0.58728,0.12364 -1.11274,0.18546 -1.57637,0.18546 -0.75728,0 -1.34456,-0.11978 -1.76183,-0.35932 -0.41728,-0.23955 -0.71091,-0.55444 -0.88091,-0.94467 -0.17001,-0.39023 -0.25501,-1.21125 -0.255,-2.46308 l 0,-7.08208 -1.53001,0 0,-1.62274 1.53001,0 0,-3.04843 2.07478,-1.25182 0,4.30025 2.09797,0 0,1.62274 -2.09797,0 0,7.19799 c 0,0.59501 0.0367,0.97751 0.11011,1.14751 0.0734,0.17 0.19318,0.30523 0.35932,0.40568 0.16614,0.10046 0.40375,0.15069 0.71285,0.15068 0.23181,1e-5 0.53704,-0.027 0.91569,-0.0811 z"
           style="font-size:23.73831177px;font-style:normal;font-weight:normal;text-align:start;text-anchor:start;fill:#ffffff;font-family:Arial"
           id="path3432"
           inkscape:connector-curvature="0" />
      </g>
      <path
         id="path3216"
         d="m 334.05428,147.42742 c 13.04046,0 23.66023,-10.61978 23.66023,-23.66023 l 0,0 0,-95.65603 c 0,-13.040455 -10.61977,-23.5821398 -23.66023,-23.5821398 l 0,0 -139.30641,0 c -13.04046,0 -23.58214,10.5416848 -23.58214,23.5821398 l 0,0 0,95.65603 c 0,13.04045 10.54168,23.66023 23.58214,23.66023 l 0,0 139.30641,0 z"
         style="fill:#ffe100;fill-opacity:1;fill-rule:evenodd;stroke:none"
         inkscape:connector-curvature="0" />
      <path
         id="path3218"
         d="m 334.05428,147.42742 c 13.04046,0 23.66023,-10.61978 23.66023,-23.66023 l 0,0 0,-95.65603 c 0,-13.040455 -10.61977,-23.5821398 -23.66023,-23.5821398 l 0,0 -139.30641,0 c -13.04046,0 -23.58214,10.5416848 -23.58214,23.5821398 l 0,0 0,95.65603 c 0,13.04045 10.54168,23.66023 23.58214,23.66023 l 0,0 139.30641,0 z"
         style="fill:none;stroke:#ffc000;stroke-width:5.23179913px;stroke-linecap:round;stroke-linejoin:round;stroke-opacity:1;stroke-dasharray:none"
         inkscape:connector-curvature="0" />
      <path
         id="path3220"
         d="m 207.71024,125.17275 c -2.18643,0.39043 -4.21668,0.62469 -6.24693,0.62469 -0.78086,0 -1.56173,0 -2.26451,-0.0781 -0.70278,-0.0781 -1.48364,-0.23426 -2.34259,-0.46852 -0.85896,-0.23426 -1.56174,-0.5466 -2.18643,-0.93703 -0.5466,-0.39044 -1.09321,-0.93704 -1.48364,-1.63982 -0.46852,-0.70278 -0.6247,-1.48365 -0.6247,-2.42069 l 0,-8.51143 c 0,-3.90433 2.96729,-5.85649 8.90187,-5.85649 1.48365,0 3.5139,0.23426 6.16884,0.70278 l 0,3.43581 c -2.42068,-0.54661 -4.45093,-0.78087 -6.09075,-0.78087 -0.70278,0 -1.24939,0 -1.63982,0 -0.46852,0.0781 -0.85895,0.15617 -1.32747,0.31235 -0.46852,0.15617 -0.85895,0.46852 -1.09321,0.78086 -0.23426,0.31235 -0.31235,0.78087 -0.31235,1.32747 l 0,8.19909 c 0,1.79599 1.56173,2.65494 4.76328,2.65494 1.40556,0 3.35772,-0.31234 5.77841,-0.85895 l 0,3.5139 z"
         style="fill:#000000;fill-opacity:1;fill-rule:evenodd;stroke:none"
         inkscape:connector-curvature="0" />
      <path
         id="path3222"
         d="m 219.96983,114.3968 -1.48365,0 c -1.24938,0 -2.10834,0.23426 -2.73303,0.54661 -0.62469,0.39043 -0.93704,1.01512 -0.93704,1.95216 l 0,8.58952 -4.29476,0 0,-14.36792 4.13859,0 0,2.49877 c 0,-0.70278 0.39043,-1.32747 1.24938,-1.95217 0.78087,-0.5466 1.63982,-0.85895 2.49877,-0.85895 l 1.56174,0 0,3.59198 z"
         style="fill:#000000;fill-opacity:1;fill-rule:evenodd;stroke:none"
         inkscape:connector-curvature="0" />
      <path
         id="path3224"
         d="m 236.52418,116.34897 0,4.21667 c 0,0.93704 -0.15618,1.71791 -0.46852,2.42068 -0.31235,0.6247 -0.70278,1.1713 -1.09322,1.56174 -0.46852,0.31234 -1.01512,0.62469 -1.7179,0.85895 -0.70278,0.15617 -1.32747,0.31234 -1.95216,0.31234 -0.54661,0.0781 -1.24939,0.0781 -2.10834,0.0781 -0.85895,0 -1.56173,0 -2.10834,-0.0781 -0.62469,0 -1.24938,-0.15617 -1.95216,-0.31234 -0.70278,-0.23426 -1.24939,-0.54661 -1.71791,-0.85895 -0.39043,-0.39044 -0.78086,-0.93704 -1.09321,-1.56174 -0.31234,-0.70277 -0.46852,-1.48364 -0.46852,-2.42068 l 0,-4.21667 c 0,-1.01513 0.15618,-1.87408 0.46852,-2.57686 0.31235,-0.70278 0.70278,-1.24938 1.1713,-1.63982 0.46852,-0.31234 1.01513,-0.62469 1.7179,-0.85895 0.70278,-0.23426 1.32748,-0.31235 1.95217,-0.39043 0.5466,0 1.24938,-0.0781 2.03025,-0.0781 0.78086,0 1.48364,0.0781 2.03025,0.0781 0.62469,0.0781 1.24938,0.15617 1.95216,0.39043 0.70278,0.23426 1.24939,0.54661 1.71791,0.85895 0.46852,0.39044 0.85895,0.93704 1.1713,1.63982 0.31234,0.70278 0.46852,1.56173 0.46852,2.57686 z m -4.37285,4.76328 0,-5.46606 c 0,-0.78087 -0.15618,-1.32747 -0.54661,-1.63982 -0.46852,-0.31235 -1.24938,-0.46852 -2.42068,-0.46852 -1.1713,0 -1.95216,0.15617 -2.3426,0.46852 -0.46852,0.31235 -0.62469,0.85895 -0.62469,1.63982 l 0,5.46606 c 0,0.70278 0.15617,1.24938 0.54661,1.56173 0.39043,0.31234 1.24938,0.46852 2.42068,0.46852 1.1713,0 2.03025,-0.15618 2.42068,-0.46852 0.39043,-0.31235 0.54661,-0.85895 0.54661,-1.56173 z"
         style="fill:#000000;fill-opacity:1;fill-rule:evenodd;stroke:none"
         inkscape:connector-curvature="0" />
      <path
         id="path3226"
         d="m 252.29766,119.86286 0,1.87408 c 0,0.70278 -0.15617,1.32747 -0.46852,1.79599 -0.23426,0.54661 -0.54661,0.93704 -1.01513,1.24938 -0.39043,0.23426 -0.93703,0.46852 -1.56173,0.6247 -0.62469,0.15617 -1.24938,0.31234 -1.87407,0.31234 -0.6247,0.0781 -1.32748,0.0781 -2.10834,0.0781 -1.56173,0 -3.43581,-0.15617 -5.70032,-0.39043 l 0,-2.88921 c 2.73303,0.39044 4.68519,0.6247 5.77841,0.6247 0.78086,0 1.48364,-0.15618 1.95216,-0.31235 0.46852,-0.15617 0.70278,-0.46852 0.70278,-0.93704 l 0,-0.93704 c 0,-0.46852 -0.15617,-0.78086 -0.39043,-1.01512 -0.31235,-0.23426 -0.85896,-0.31235 -1.63982,-0.31235 l -1.95217,0 c -1.48364,0 -2.65494,-0.31234 -3.51389,-0.93704 -0.78087,-0.62469 -1.24939,-1.48364 -1.24939,-2.65494 l 0,-1.7179 c 0,-1.32747 0.6247,-2.26451 1.87408,-2.73303 1.24939,-0.54661 3.04538,-0.78087 5.30989,-0.78087 0.93704,0 2.65494,0.0781 5.07562,0.31235 l 0,2.73303 c -3.04537,-0.23426 -4.84136,-0.31235 -5.2318,-0.31235 -1.17129,0 -1.95216,0.0781 -2.26451,0.23426 -0.31234,0.15617 -0.46851,0.46852 -0.46851,0.93704 l 0,0.78086 c 0,0.23426 0.15617,0.46852 0.39043,0.6247 0.23426,0.23426 0.62469,0.31234 1.09321,0.31234 l 1.95216,0 c 3.5139,0 5.30989,1.1713 5.30989,3.43581 z"
         style="fill:#000000;fill-opacity:1;fill-rule:evenodd;stroke:none"
         inkscape:connector-curvature="0" />
      <path
         id="path3228"
         d="m 267.83688,119.86286 0,1.87408 c 0,0.70278 -0.0781,1.32747 -0.39043,1.79599 -0.23426,0.54661 -0.62469,0.93704 -1.01512,1.24938 -0.39044,0.23426 -0.93704,0.46852 -1.56174,0.6247 -0.62469,0.15617 -1.32747,0.31234 -1.87407,0.31234 -0.6247,0.0781 -1.32747,0.0781 -2.18643,0.0781 -1.48364,0 -3.4358,-0.15617 -5.62223,-0.39043 l 0,-2.88921 c 2.73303,0.39044 4.6852,0.6247 5.70032,0.6247 0.85895,0 1.56173,-0.15618 2.03025,-0.31235 0.46852,-0.15617 0.70278,-0.46852 0.70278,-0.93704 l 0,-0.93704 c 0,-0.46852 -0.15617,-0.78086 -0.39043,-1.01512 -0.31235,-0.23426 -0.85896,-0.31235 -1.71791,-0.31235 l -1.87407,0 c -1.48365,0 -2.65495,-0.31234 -3.5139,-0.93704 -0.78087,-0.62469 -1.24938,-1.48364 -1.24938,-2.65494 l 0,-1.7179 c 0,-1.32747 0.62469,-2.26451 1.87407,-2.73303 1.24939,-0.54661 3.04538,-0.78087 5.30989,-0.78087 0.93704,0 2.65494,0.0781 5.07562,0.31235 l 0,2.73303 c -3.04537,-0.23426 -4.84136,-0.31235 -5.23179,-0.31235 -1.1713,0 -1.95217,0.0781 -2.26451,0.23426 -0.31235,0.15617 -0.46852,0.46852 -0.46852,0.93704 l 0,0.78086 c 0,0.23426 0.15617,0.46852 0.39043,0.6247 0.23426,0.23426 0.62469,0.31234 1.09321,0.31234 l 1.95216,0 c 3.5139,0 5.2318,1.1713 5.2318,3.43581 z"
         style="fill:#000000;fill-opacity:1;fill-rule:evenodd;stroke:none"
         inkscape:connector-curvature="0" />
      <path
         id="path3230"
         d="m 285.79679,115.64619 0,4.76328 c 0,1.95216 -0.5466,3.35772 -1.7179,4.13859 -1.24939,0.85895 -3.12347,1.24938 -5.70032,1.24938 -2.73303,0 -4.68519,-0.39043 -5.70032,-1.24938 -1.09321,-0.93704 -1.63982,-2.26451 -1.63982,-4.13859 l 0,-15.6954 4.37285,0 0,7.80866 c 0.23426,-0.6247 0.70278,-1.09322 1.48364,-1.32748 0.70278,-0.23426 1.71791,-0.39043 3.20155,-0.39043 1.24939,0 2.18643,0.15617 2.96729,0.31235 0.78087,0.23426 1.40556,0.5466 1.79599,1.01512 0.39044,0.39044 0.6247,0.85896 0.78087,1.40556 0.0781,0.54661 0.15617,1.24939 0.15617,2.10834 z m -4.29476,5.30988 0,-5.30988 c 0,-0.93704 -0.15617,-1.56173 -0.54661,-1.79599 -0.31234,-0.23426 -1.17129,-0.31235 -2.57685,-0.31235 -1.24939,0 -2.03025,0.0781 -2.42068,0.46852 -0.31235,0.31235 -0.54661,0.85895 -0.54661,1.63982 l 0,5.30988 c 0,0.85896 0.15617,1.40556 0.54661,1.71791 0.39043,0.31234 1.17129,0.46852 2.49877,0.46852 1.24938,0 2.03025,-0.15618 2.42068,-0.46852 0.39043,-0.31235 0.62469,-0.85895 0.62469,-1.71791 z"
         style="fill:#000000;fill-opacity:1;fill-rule:evenodd;stroke:none"
         inkscape:connector-curvature="0" />
      <path
         id="path3232"
         d="m 302.11688,125.48509 -4.21667,0 0,-1.24938 c -0.31235,0.5466 -0.78087,0.93704 -1.40556,1.1713 -0.54661,0.31234 -1.63982,0.39043 -3.27964,0.39043 -1.87407,0 -3.20154,-0.31235 -3.82624,-0.85895 -0.62469,-0.62469 -0.93704,-1.87408 -0.93704,-3.74816 0,-1.7179 0.31235,-2.8892 0.93704,-3.51389 0.70278,-0.70278 1.87408,-1.01513 3.5139,-1.01513 l 4.91945,0 0,-1.01512 c 0,-0.85895 -0.23426,-1.40556 -0.62469,-1.71791 -0.39043,-0.31234 -1.24939,-0.39043 -2.57686,-0.39043 -1.24938,0 -2.8892,0.0781 -5.07562,0.31235 l 0,-2.73303 c 1.63981,-0.15618 3.51389,-0.31235 5.54414,-0.31235 2.65494,0 4.45093,0.31235 5.46606,1.01513 1.01513,0.62469 1.56173,1.87407 1.56173,3.82624 l 0,9.8389 z m -4.29476,-3.67006 0,-2.81112 -2.96729,0 c -1.01512,0 -1.56173,0.15617 -1.79599,0.39043 -0.23426,0.15618 -0.39043,0.78087 -0.39043,1.71791 0,0.93704 0.15617,1.48364 0.39043,1.7179 0.23426,0.15617 0.85895,0.31235 1.87408,0.31235 0.46852,0 0.85895,-0.0781 1.09321,-0.0781 0.23426,0 0.54661,0 0.78087,-0.0781 0.31234,0 0.46851,-0.0781 0.5466,-0.15617 0.15617,-0.0781 0.23426,-0.23426 0.31235,-0.39043 0.0781,-0.15617 0.15617,-0.39043 0.15617,-0.62469 z"
         style="fill:#000000;fill-opacity:1;fill-rule:evenodd;stroke:none"
         inkscape:connector-curvature="0" />
      <path
         id="path3234"
         d="m 315.31351,114.3968 -1.48365,0 c -1.17129,0 -2.03025,0.23426 -2.65494,0.54661 -0.62469,0.39043 -0.85895,1.01512 -0.85895,1.95216 l 0,8.58952 -4.37285,0 0,-14.36792 4.13859,0 0,2.49877 c 0,-0.70278 0.39043,-1.32747 1.24938,-1.95217 0.78087,-0.5466 1.63982,-0.85895 2.49877,-0.85895 l 1.48365,0 0,3.59198 z"
         style="fill:#000000;fill-opacity:1;fill-rule:evenodd;stroke:none"
         inkscape:connector-curvature="0" />
      <path
         id="path3236"
         d="m 317.89037,122.28355 0,3.20154 3.4358,0 0,-3.20154 -3.4358,0 z"
         style="fill:#000000;fill-opacity:1;fill-rule:evenodd;stroke:none"
         inkscape:connector-curvature="0" />
      <path
         id="path3238"
         d="m 328.43205,108.69648 -2.73303,0 0,-2.81111 2.73303,0 0,2.81111 z m 0,16.78861 -2.73303,0 0,-14.36792 2.73303,0 0,14.36792 z"
         style="fill:#000000;fill-opacity:1;fill-rule:evenodd;stroke:none"
         inkscape:connector-curvature="0" />
      <path
         id="path3240"
         d="m 345.76727,115.95853 0,4.99754 c 0,0.93704 -0.0781,1.63982 -0.31235,2.26451 -0.23426,0.6247 -0.54661,1.09322 -0.85895,1.40556 -0.31235,0.39043 -0.85895,0.62469 -1.40556,0.78087 -0.62469,0.23426 -1.24939,0.31234 -1.79599,0.31234 -0.54661,0.0781 -1.32747,0.0781 -2.26451,0.0781 -1.1713,0 -2.10834,0 -2.81112,-0.0781 -0.62469,-0.0781 -1.32747,-0.31234 -1.95216,-0.62469 -0.70278,-0.31235 -1.1713,-0.78086 -1.40556,-1.48364 -0.31235,-0.6247 -0.46852,-1.56173 -0.46852,-2.65495 l 0,-4.99754 c 0,-0.93703 0.15617,-1.7179 0.39043,-2.42068 0.15618,-0.62469 0.46852,-1.1713 0.78087,-1.48364 0.31235,-0.39044 0.85895,-0.6247 1.48364,-0.85896 0.6247,-0.15617 1.1713,-0.23426 1.71791,-0.31234 0.5466,-0.0781 1.32747,-0.0781 2.26451,-0.0781 0.93704,0 1.7179,0 2.26451,0.0781 0.5466,0.0781 1.09321,0.15617 1.7179,0.31234 0.6247,0.23426 1.1713,0.46852 1.48365,0.85896 0.31234,0.31234 0.62469,0.85895 0.85895,1.48364 0.15617,0.70278 0.31235,1.48365 0.31235,2.42068 z m -2.73303,5.38798 0,-5.8565 c 0,-1.32747 -0.31235,-2.10833 -0.85896,-2.42068 -0.46852,-0.31234 -1.56173,-0.46852 -3.04537,-0.46852 -1.56173,0 -2.57686,0.15618 -3.04538,0.46852 -0.5466,0.31235 -0.85895,1.09321 -0.85895,2.42068 l 0,5.8565 c 0,0.62469 0.0781,1.17129 0.23426,1.48364 0.15617,0.39043 0.39043,0.70278 0.78087,0.85895 0.39043,0.15618 0.70277,0.23426 1.09321,0.31235 0.46852,0.0781 1.01512,0.0781 1.79599,0.0781 0.78086,0 1.32747,0 1.7179,-0.0781 0.46852,-0.0781 0.78087,-0.15617 1.1713,-0.31235 0.39043,-0.15617 0.62469,-0.46852 0.78087,-0.85895 0.15617,-0.31235 0.23426,-0.85895 0.23426,-1.48364 z"
         style="fill:#000000;fill-opacity:1;fill-rule:evenodd;stroke:none"
         inkscape:connector-curvature="0" />
      <path
         id="path3242"
         d="m 233.63497,23.58214 0,64.889927 64.81184,0 0,-64.889927 -64.81184,0 z"
         style="fill:#000000;fill-opacity:1;fill-rule:evenodd;stroke:none"
         inkscape:connector-curvature="0" />
      <path
         id="path3244"
         d="m 233.63497,37.40346 0,6.403097 15.30497,0 10.15125,10.151253 4.68519,-4.685194 -12.02533,-12.025329 -18.11608,0.156173 z"
         style="fill:#ffe100;fill-opacity:1;fill-rule:evenodd;stroke:none"
         inkscape:connector-curvature="0" />
      <path
         id="path3246"
         d="m 272.91251,58.48683 -4.60711,4.685193 11.55681,11.634897 18.5846,0 0,-6.481184 -15.69539,0 -9.83891,-9.838906 z"
         style="fill:#ffe100;fill-opacity:1;fill-rule:evenodd;stroke:none"
         inkscape:connector-curvature="0" />
      <path
         id="path3248"
         d="m 280.33073,37.247287 -30.84419,31.078449 -15.85157,0 0,6.55927 18.50652,0 31.07844,-31.078449 15.22688,0 0,-6.55927 -18.11608,0 z"
         style="fill:#ffe100;fill-opacity:1;fill-rule:evenodd;stroke:none"
         inkscape:connector-curvature="0" />
      <path
         id="path3250"
         d="M 200.68245,150.86322 72.698583,260.34057"
         style="fill:none;stroke:#000000;stroke-width:3.59198141px;stroke-linecap:round;stroke-linejoin:round;stroke-opacity:1;stroke-dasharray:none"
         inkscape:connector-curvature="0" />
      <path
         id="path3252"
         d="M 325.77711,150.86322 446.18658,261.3557"
         style="fill:none;stroke:#000000;stroke-width:3.59198141px;stroke-linecap:round;stroke-linejoin:round;stroke-opacity:1;stroke-dasharray:none"
         inkscape:connector-curvature="0" />
      <path
         id="path3254"
         d="M 464.14648,241.52171 383.48307,168.90122"
         style="fill:none;stroke:#85a446;stroke-width:5.23179913px;stroke-linecap:round;stroke-linejoin:round;stroke-opacity:1;stroke-dasharray:none"
         inkscape:connector-curvature="0" />
      <path
         id="path3256"
         d="m 378.32936,178.58395 -8.66761,-22.09849 22.87936,6.32501 -14.21175,15.77348 z"
         style="fill:#85a446;fill-opacity:1;fill-rule:evenodd;stroke:none"
         inkscape:connector-curvature="0" />
      <path
         id="path3258"
         d="m 405.26922,181.94167 29.82906,26.86178 18.74078,-20.77103 -29.90715,-26.93986 -18.66269,20.84911 z"
         style="fill:#ffffff;fill-opacity:1;fill-rule:evenodd;stroke:none"
         inkscape:connector-curvature="0" />
      <g
         transform="matrix(0.74314483,0.66913061,-0.66913061,0.74314483,223.13503,-228.9601)"
         style="font-size:23.73831177px;font-style:normal;font-weight:normal;text-align:start;text-anchor:start;fill:#85a446;font-family:Arial"
         id="text3260">
        <path
           d="m 423.75378,170.20551 2.24865,0.56796 c -0.47138,1.84683 -1.31946,3.25513 -2.54422,4.22491 -1.22479,0.96977 -2.72196,1.45466 -4.4915,1.45466 -1.83138,0 -3.32082,-0.37284 -4.46832,-1.11853 -1.14751,-0.74568 -2.0207,-1.82557 -2.61956,-3.23967 -0.59887,-1.4141 -0.8983,-2.93251 -0.8983,-4.55525 0,-1.76955 0.33807,-3.31308 1.01421,-4.6306 0.67613,-1.31749 1.63818,-2.31818 2.88615,-3.00206 1.24795,-0.68385 2.62148,-1.02578 4.12059,-1.0258 1.7,2e-5 3.12955,0.43275 4.28866,1.29819 1.15908,0.86547 1.96659,2.08252 2.42251,3.65115 l -2.21387,0.5216 c -0.39411,-1.23636 -0.96593,-2.13659 -1.71547,-2.7007 -0.74956,-0.56408 -1.69229,-0.84612 -2.82819,-0.84614 -1.30593,2e-5 -2.39741,0.31297 -3.27445,0.93887 -0.87706,0.62593 -1.49331,1.46627 -1.84876,2.52104 -0.35546,1.05479 -0.53319,2.1424 -0.53319,3.26285 0,1.44502 0.21057,2.7065 0.63171,3.78446 0.42113,1.07796 1.07602,1.88353 1.96467,2.41671 0.88863,0.53319 1.85068,0.79978 2.88615,0.79978 1.25954,0 2.32591,-0.36318 3.19911,-1.08955 0.87317,-0.72636 1.46431,-1.80432 1.77342,-3.23388 z"
           style="font-size:23.73831177px;font-style:normal;font-weight:normal;text-align:start;text-anchor:start;fill:#85a446;font-family:Arial"
           id="path3435"
           inkscape:connector-curvature="0" />
      </g>
      <g
         transform="matrix(0.74314483,0.66913061,-0.66913061,0.74314483,233.86816,-234.43192)"
         style="font-size:23.73831177px;font-style:normal;font-weight:normal;text-align:start;text-anchor:start;fill:#85a446;font-family:Arial"
         id="text3262">
        <path
           d="m 431.88941,185.88931 c -0.77274,0.65683 -1.51649,1.12046 -2.23126,1.39092 -0.71479,0.27046 -1.48172,0.40568 -2.30081,0.40568 -1.35229,0 -2.39161,-0.33034 -3.11797,-0.99102 -0.72637,-0.66069 -1.08956,-1.5049 -1.08955,-2.53263 -10e-6,-0.60273 0.13715,-1.1533 0.41148,-1.65172 0.27431,-0.4984 0.63363,-0.89829 1.07796,-1.19966 0.44431,-0.30136 0.94466,-0.52932 1.50103,-0.68387 0.40954,-0.10817 1.02772,-0.21249 1.85455,-0.31296 1.68455,-0.2009 2.92478,-0.44044 3.7207,-0.71864 0.008,-0.2859 0.0116,-0.46749 0.0116,-0.54477 -1e-5,-0.85 -0.19706,-1.44886 -0.59114,-1.7966 -0.5332,-0.47136 -1.32525,-0.70704 -2.37615,-0.70705 -0.98138,1e-5 -1.70581,0.17194 -2.17331,0.5158 -0.46751,0.34387 -0.8133,0.9524 -1.03739,1.82558 l -2.04001,-0.27819 c 0.18545,-0.87317 0.49068,-1.57829 0.91568,-2.11535 0.425,-0.53704 1.03932,-0.95045 1.84297,-1.24023 0.80363,-0.28977 1.73477,-0.43465 2.79342,-0.43467 1.05091,2e-5 1.90478,0.12365 2.56161,0.37092 0.65681,0.24728 1.13977,0.55831 1.44887,0.93307 0.30908,0.37478 0.52544,0.84808 0.64909,1.41989 0.0695,0.35547 0.10431,0.99683 0.10432,1.9241 l 0,2.78184 c -1e-5,1.93956 0.0444,3.16627 0.1333,3.68013 0.0889,0.51387 0.26465,1.00648 0.52739,1.47785 l -2.17911,0 c -0.21637,-0.43273 -0.35546,-0.93887 -0.41727,-1.51842 z m -0.17387,-4.65957 c -0.75728,0.3091 -1.8932,0.57183 -3.40774,0.78819 -0.85774,0.12364 -1.46433,0.26273 -1.81978,0.41727 -0.35546,0.15455 -0.62978,0.38058 -0.82296,0.67807 -0.19319,0.29751 -0.28978,0.62785 -0.28978,0.99103 0,0.55637 0.21057,1.02001 0.63171,1.39092 0.42113,0.37091 1.03739,0.55637 1.84876,0.55637 0.80363,0 1.51841,-0.1758 2.14433,-0.52739 0.6259,-0.35159 1.08568,-0.83262 1.37933,-1.44308 0.22408,-0.47136 0.33612,-1.16682 0.33613,-2.08637 z"
           style="font-size:23.73831177px;font-style:normal;font-weight:normal;text-align:start;text-anchor:start;fill:#85a446;font-family:Arial"
           id="path3438"
           inkscape:connector-curvature="0" />
      </g>
      <g
         transform="matrix(0.74314483,0.66913061,-0.66913061,0.74314483,242.28746,-238.87355)"
         style="font-size:23.73831177px;font-style:normal;font-weight:normal;text-align:start;text-anchor:start;fill:#85a446;font-family:Arial"
         id="text3264">
        <path
           d="m 433.80559,196.15343 0,-16.99237 2.08637,0 0,16.99237 z"
           style="font-size:23.73831177px;font-style:normal;font-weight:normal;text-align:start;text-anchor:start;fill:#85a446;font-family:Arial"
           id="path3441"
           inkscape:connector-curvature="0" />
      </g>
      <g
         transform="matrix(0.74314483,0.66913061,-0.66913061,0.74314483,245.75819,-240.41882)"
         style="font-size:23.73831177px;font-style:normal;font-weight:normal;text-align:start;text-anchor:start;fill:#85a446;font-family:Arial"
         id="text3266">
        <path
           d="m 437.55373,199.90158 0,-16.99236 2.08637,0 0,16.99236 z"
           style="font-size:23.73831177px;font-style:normal;font-weight:normal;text-align:start;text-anchor:start;fill:#85a446;font-family:Arial"
           id="path3444"
           inkscape:connector-curvature="0" />
      </g>
      <path
         id="path3268"
         d="M 157.18824,156.48546 77.227603,220.43834"
         style="fill:none;stroke:#85a446;stroke-width:5.23179913px;stroke-linecap:round;stroke-linejoin:round;stroke-opacity:1;stroke-dasharray:none"
         inkscape:connector-curvature="0" />
      <path
         id="path3270"
         d="m 85.895211,227.0757 -23.191707,4.99754 9.995079,-21.55189 13.196628,16.55435 z"
         style="fill:#85a446;fill-opacity:1;fill-rule:evenodd;stroke:none"
         inkscape:connector-curvature="0" />
      <path
         id="path3272"
         d="M 91.205096,203.02504 122.59589,177.88117 105.1045,156.01694 73.713708,181.16081 91.205096,203.02504 z"
         style="fill:#ffffff;fill-opacity:1;fill-rule:evenodd;stroke:none"
         inkscape:connector-curvature="0" />
      <g
         transform="matrix(0.78801075,-0.61566148,0.61566148,0.78801075,-103.25823,94.921945)"
         style="font-size:23.73831177px;font-style:normal;font-weight:normal;text-align:start;text-anchor:start;fill:#85a446;font-family:Arial"
         id="text3274">
        <path
           d="m 100.16309,191.44506 2.24865,0.56795 c -0.47138,1.84684 -1.31946,3.25514 -2.544221,4.22491 -1.224792,0.96978 -2.721958,1.45467 -4.491502,1.45467 -1.831381,0 -3.32082,-0.37284 -4.46832,-1.11853 -1.14751,-0.74568 -2.020696,-1.82557 -2.61956,-3.23967 -0.598868,-1.4141 -0.898301,-2.93251 -0.8983,-4.55526 -10e-7,-1.76954 0.338068,-3.31307 1.01421,-4.63059 0.676137,-1.31749 1.638187,-2.31818 2.886152,-3.00206 1.247955,-0.68385 2.621484,-1.02579 4.120591,-1.0258 1.699998,1e-5 3.12955,0.43274 4.28866,1.29819 1.15908,0.86547 1.96659,2.08252 2.42251,3.65115 l -2.213873,0.5216 c -0.394106,-1.23636 -0.965927,-2.13659 -1.715464,-2.7007 -0.749561,-0.56408 -1.692292,-0.84613 -2.828197,-0.84614 -1.305924,1e-5 -2.397406,0.31297 -3.27445,0.93887 -0.877055,0.62592 -1.493308,1.46627 -1.84876,2.52103 -0.35546,1.05479 -0.533188,2.14241 -0.533185,3.26286 -3e-6,1.44502 0.210566,2.7065 0.631708,3.78445 0.421135,1.07797 1.076024,1.88354 1.96467,2.41672 0.888634,0.53319 1.850684,0.79978 2.886152,0.79978 1.259543,0 2.325911,-0.36318 3.199109,-1.08955 0.873173,-0.72637 1.464312,-1.80433 1.77342,-3.23388 z"
           style="font-size:23.73831177px;font-style:normal;font-weight:normal;text-align:start;text-anchor:start;fill:#85a446;font-family:Arial"
           id="path3447"
           inkscape:connector-curvature="0" />
      </g>
      <g
         transform="matrix(0.78801075,-0.61566148,0.61566148,0.78801075,-94.191227,101.26427)"
         style="font-size:23.73831177px;font-style:normal;font-weight:normal;text-align:start;text-anchor:start;fill:#85a446;font-family:Arial"
         id="text3276">
        <path
           d="m 109.54812,185.88931 c -0.77274,0.65683 -1.5165,1.12046 -2.23127,1.39092 -0.71478,0.27046 -1.48172,0.40568 -2.3008,0.40568 -1.35229,0 -2.39161,-0.33034 -3.11798,-0.99102 -0.72637,-0.66069 -1.08955,-1.5049 -1.08955,-2.53263 0,-0.60273 0.13716,-1.1533 0.41148,-1.65172 0.27432,-0.4984 0.63364,-0.89829 1.07796,-1.19966 0.44432,-0.30136 0.94466,-0.52932 1.50103,-0.68387 0.40955,-0.10817 1.02773,-0.21249 1.85456,-0.31296 1.68455,-0.2009 2.92478,-0.44044 3.7207,-0.71864 0.008,-0.2859 0.0116,-0.46749 0.0116,-0.54477 -1e-5,-0.85 -0.19705,-1.44886 -0.59114,-1.7966 -0.53319,-0.47136 -1.32524,-0.70704 -2.37615,-0.70705 -0.98137,1e-5 -1.70581,0.17194 -2.1733,0.5158 -0.46751,0.34387 -0.81331,0.9524 -1.0374,1.82558 l -2.04001,-0.27819 c 0.18546,-0.87317 0.49069,-1.57829 0.91569,-2.11535 0.425,-0.53704 1.03932,-0.95045 1.84296,-1.24023 0.80364,-0.28977 1.73478,-0.43465 2.79343,-0.43467 1.05091,2e-5 1.90477,0.12365 2.5616,0.37092 0.65682,0.24728 1.13977,0.55831 1.44887,0.93307 0.30909,0.37478 0.52545,0.84808 0.6491,1.41989 0.0695,0.35547 0.10431,0.99683 0.10432,1.9241 l 0,2.78184 c -10e-6,1.93956 0.0444,3.16627 0.13329,3.68013 0.0889,0.51387 0.26465,1.00648 0.52739,1.47785 l -2.1791,0 c -0.21637,-0.43273 -0.35547,-0.93887 -0.41727,-1.51842 z m -0.17387,-4.65957 c -0.75728,0.3091 -1.8932,0.57183 -3.40774,0.78819 -0.85774,0.12364 -1.46434,0.26273 -1.81979,0.41727 -0.35546,0.15455 -0.62978,0.38058 -0.82296,0.67807 -0.19318,0.29751 -0.28977,0.62785 -0.28977,0.99103 0,0.55637 0.21057,1.02001 0.63171,1.39092 0.42113,0.37091 1.03738,0.55637 1.84876,0.55637 0.80363,0 1.51841,-0.1758 2.14433,-0.52739 0.6259,-0.35159 1.08568,-0.83262 1.37932,-1.44308 0.22409,-0.47136 0.33613,-1.16682 0.33614,-2.08637 z"
           style="font-size:23.73831177px;font-style:normal;font-weight:normal;text-align:start;text-anchor:start;fill:#85a446;font-family:Arial"
           id="path3450"
           inkscape:connector-curvature="0" />
      </g>
      <g
         transform="matrix(0.78801075,-0.61566148,0.61566148,0.78801075,-86.687993,105.56387)"
         style="font-size:23.73831177px;font-style:normal;font-weight:normal;text-align:start;text-anchor:start;fill:#85a446;font-family:Arial"
         id="text3278">
        <path
           d="m 111.46429,178.66203 0,-16.99236 2.08637,0 0,16.99236 z"
           style="font-size:23.73831177px;font-style:normal;font-weight:normal;text-align:start;text-anchor:start;fill:#85a446;font-family:Arial"
           id="path3453"
           inkscape:connector-curvature="0" />
      </g>
      <g
         transform="matrix(0.78801075,-0.61566148,0.61566148,0.78801075,-84.355029,107.34175)"
         style="font-size:23.73831177px;font-style:normal;font-weight:normal;text-align:start;text-anchor:start;fill:#85a446;font-family:Arial"
         id="text3280">
        <path
           d="m 115.21244,176.16327 0,-16.99237 2.08638,0 0,16.99237 z"
           style="font-size:23.73831177px;font-style:normal;font-weight:normal;text-align:start;text-anchor:start;fill:#85a446;font-family:Arial"
           id="path3456"
           inkscape:connector-curvature="0" />
      </g>
      <path
         id="path3282"
         d="m 138.29129,241.52171 75.5097,-63.64054"
         style="fill:none;stroke:#71bfd2;stroke-width:5.23179913px;stroke-linecap:round;stroke-linejoin:round;stroke-opacity:1;stroke-dasharray:none"
         inkscape:connector-curvature="0" />
      <path
         id="path3284"
         d="m 204.97721,171.47807 23.03553,-5.54414 -9.37039,21.78615 -13.66514,-16.24201 z"
         style="fill:#71bfd2;fill-opacity:1;fill-rule:evenodd;stroke:none"
         inkscape:connector-curvature="0" />
      <path
         id="path3286"
         d="m 181.55124,253.15661 50.522,-42.63526 -17.95991,-21.39571 -50.60008,42.55717 18.03799,21.4738 z"
         style="fill:#ffffff;fill-opacity:1;fill-rule:evenodd;stroke:none"
         inkscape:connector-curvature="0" />
      <g
         transform="matrix(0.76604444,-0.64278761,0.64278761,0.76604444,-117.50497,171.91416)"
         style="font-size:23.73831177px;font-style:normal;font-weight:normal;text-align:start;text-anchor:start;fill:#3591a8;font-family:Arial"
         id="text3288">
        <path
           d="m 179.27879,247.3782 0,-16.99236 7.53413,0 c 1.51454,2e-5 2.66591,0.15263 3.45411,0.45784 0.78817,0.30525 1.41795,0.84423 1.88933,1.61694 0.47135,0.77275 0.70703,1.62662 0.70705,2.56161 -2e-5,1.20547 -0.39024,2.22161 -1.17069,3.04842 -0.78047,0.82683 -1.98593,1.35229 -3.61638,1.57638 0.59499,0.28591 1.04704,0.56796 1.35614,0.84614 0.65681,0.60273 1.27886,1.35615 1.86615,2.26024 l 2.9557,4.62479 -2.8282,0 -2.24865,-3.53524 c -0.65683,-1.02 -1.19774,-1.80046 -1.62274,-2.34138 -0.42501,-0.5409 -0.80558,-0.91954 -1.14171,-1.13591 -0.33614,-0.21636 -0.67808,-0.36704 -1.0258,-0.45205 -0.25501,-0.0541 -0.67228,-0.0811 -1.25182,-0.0811 l -2.60797,0 0,7.54572 z m 2.24865,-9.493 4.83343,0 c 1.02773,1e-5 1.83137,-0.10624 2.41093,-0.31875 0.57953,-0.2125 1.01999,-0.5525 1.32137,-1.02001 0.30135,-0.46749 0.45203,-0.97556 0.45205,-1.52421 -2e-5,-0.80363 -0.29172,-1.46431 -0.87512,-1.98206 -0.58343,-0.51771 -1.50491,-0.77658 -2.76445,-0.77659 l -5.37821,0 z"
           style="font-size:23.73831177px;font-style:normal;font-weight:normal;text-align:start;text-anchor:start;fill:#3591a8;font-family:Arial"
           id="path3459"
           inkscape:connector-curvature="0" />
      </g>
      <g
         transform="matrix(0.76604444,-0.64278761,0.64278761,0.76604444,-108.15725,177.60665)"
         style="font-size:23.73831177px;font-style:normal;font-weight:normal;text-align:start;text-anchor:start;fill:#3591a8;font-family:Arial"
         id="text3290">
        <path
           d="m 199.89791,233.41902 2.15592,0.26659 c -0.34001,1.25956 -0.96979,2.23706 -1.88933,2.93252 -0.91955,0.69546 -2.09411,1.04319 -3.52365,1.04319 -1.80047,0 -3.22809,-0.55444 -4.28287,-1.66331 -1.05478,-1.10887 -1.58216,-2.66399 -1.58216,-4.66536 0,-2.07092 0.53318,-3.6782 1.59955,-4.82185 1.06637,-1.14363 2.44956,-1.71545 4.14957,-1.71546 1.64591,1e-5 2.99046,0.56024 4.03366,1.68069 1.04317,1.12047 1.56477,2.69684 1.56478,4.72911 -1e-5,0.12365 -0.004,0.3091 -0.0116,0.55637 l -9.18005,0 c 0.0773,1.35229 0.45977,2.38774 1.1475,3.10638 0.68773,0.71864 1.54546,1.07796 2.5732,1.07796 0.765,0 1.41795,-0.20091 1.95887,-0.60273 0.54091,-0.40182 0.96977,-1.04318 1.2866,-1.9241 z m -6.85026,-3.37297 6.87344,0 c -0.0927,-1.03545 -0.35546,-1.81205 -0.78818,-2.32979 -0.66456,-0.80363 -1.52615,-1.20545 -2.58479,-1.20546 -0.95819,1e-5 -1.76376,0.32069 -2.41672,0.96205 -0.65296,0.64138 -1.01421,1.49911 -1.08375,2.5732 z"
           style="font-size:23.73831177px;font-style:normal;font-weight:normal;text-align:start;text-anchor:start;fill:#3591a8;font-family:Arial"
           id="path3462"
           inkscape:connector-curvature="0" />
      </g>
      <g
         transform="matrix(0.76604444,-0.64278761,0.64278761,0.76604444,-100.19722,181.98526)"
         style="font-size:23.73831177px;font-style:normal;font-weight:normal;text-align:start;text-anchor:start;fill:#3591a8;font-family:Arial"
         id="text3292">
        <path
           d="m 200.63181,224.9631 2.0632,-0.32455 c 0.1159,0.82683 0.43852,1.46047 0.96784,1.90092 0.52932,0.44046 1.26921,0.66069 2.21967,0.66069 0.95818,0 1.6691,-0.19512 2.13274,-0.58535 0.46363,-0.39023 0.69545,-0.84807 0.69546,-1.37353 -1e-5,-0.47136 -0.20478,-0.84227 -0.61432,-1.11273 -0.28592,-0.18545 -0.99683,-0.42114 -2.13274,-0.70705 -1.53001,-0.38636 -2.59059,-0.72057 -3.18172,-1.00262 -0.59114,-0.28204 -1.03933,-0.67227 -1.34456,-1.17069 -0.30523,-0.4984 -0.45784,-1.04897 -0.45784,-1.65171 0,-0.54863 0.12557,-1.0567 0.37671,-1.52422 0.25113,-0.46749 0.59307,-0.85578 1.0258,-1.16489 0.32454,-0.23953 0.76693,-0.44237 1.32717,-0.60852 0.56022,-0.16613 1.16102,-0.2492 1.80239,-0.24921 0.96591,1e-5 1.81398,0.1391 2.54422,0.41727 0.73022,0.2782 1.2692,0.65491 1.61694,1.13012 0.34772,0.47525 0.58727,1.11082 0.71864,1.90672 l -2.04001,0.27818 c -0.0927,-0.63363 -0.36126,-1.12818 -0.80557,-1.48364 -0.44433,-0.35545 -1.07217,-0.53318 -1.88354,-0.53319 -0.95819,1e-5 -1.64205,0.15842 -2.0516,0.47523 -0.40955,0.31683 -0.61432,0.68774 -0.61432,1.11274 0,0.27046 0.085,0.51387 0.255,0.73023 0.17,0.2241 0.43659,0.40955 0.79978,0.55636 0.20863,0.0773 0.82295,0.25501 1.84296,0.53319 1.47591,0.3941 2.50558,0.71671 3.089,0.96785 0.5834,0.25114 1.04124,0.61626 1.37353,1.09534 0.33226,0.4791 0.4984,1.0741 0.49841,1.78501 -1e-5,0.69546 -0.20285,1.35035 -0.60853,1.96467 -0.40569,0.61432 -0.99103,1.08955 -1.75603,1.42569 -0.76501,0.33614 -1.63047,0.50421 -2.59638,0.50421 -1.59955,0 -2.81854,-0.33228 -3.65695,-0.99682 -0.83841,-0.66455 -1.37353,-1.64978 -1.60535,-2.9557 z"
           style="font-size:23.73831177px;font-style:normal;font-weight:normal;text-align:start;text-anchor:start;fill:#3591a8;font-family:Arial"
           id="path3465"
           inkscape:connector-curvature="0" />
      </g>
      <g
         transform="matrix(0.76604444,-0.64278761,0.64278761,0.76604444,-93.332584,185.85307)"
         style="font-size:23.73831177px;font-style:normal;font-weight:normal;text-align:start;text-anchor:start;fill:#3591a8;font-family:Arial"
         id="text3294">
        <path
           d="m 218.27936,221.14111 0,-1.80819 c -0.95819,1.39092 -2.26025,2.08638 -3.90616,2.08638 -0.72637,0 -1.40444,-0.1391 -2.03421,-0.41728 -0.62978,-0.27818 -1.09728,-0.62784 -1.40251,-1.04898 -0.30523,-0.42114 -0.51966,-0.93694 -0.6433,-1.5474 -0.085,-0.40954 -0.1275,-1.05863 -0.1275,-1.94728 l 0,-7.62686 2.08638,0 0,6.82708 c -1e-5,1.08956 0.0425,1.82365 0.1275,2.20229 0.13136,0.54864 0.40954,0.97944 0.83455,1.29239 0.42499,0.31296 0.95045,0.46944 1.57637,0.46944 0.6259,0 1.21318,-0.16034 1.76183,-0.48103 0.54863,-0.32068 0.93692,-0.75727 1.16489,-1.30978 0.22795,-0.5525 0.34192,-1.35421 0.34193,-2.40513 l 0,-6.59526 2.08638,0 0,12.30961 z"
           style="font-size:23.73831177px;font-style:normal;font-weight:normal;text-align:start;text-anchor:start;fill:#3591a8;font-family:Arial"
           id="path3468"
           inkscape:connector-curvature="0" />
      </g>
      <g
         transform="matrix(0.76604444,-0.64278761,0.64278761,0.76604444,-85.372558,190.23168)"
         style="font-size:23.73831177px;font-style:normal;font-weight:normal;text-align:start;text-anchor:start;fill:#3591a8;font-family:Arial"
         id="text3296">
        <path
           d="m 220.16077,212.39543 0,-16.99236 2.08637,0 0,16.99236 z"
           style="font-size:23.73831177px;font-style:normal;font-weight:normal;text-align:start;text-anchor:start;fill:#3591a8;font-family:Arial"
           id="path3471"
           inkscape:connector-curvature="0" />
      </g>
      <g
         transform="matrix(0.76604444,-0.64278761,0.64278761,0.76604444,-82.889477,192.05635)"
         style="font-size:23.73831177px;font-style:normal;font-weight:normal;text-align:start;text-anchor:start;fill:#3591a8;font-family:Arial"
         id="text3298">
        <path
           d="m 228.51054,208.03052 0.30136,1.84297 c -0.58728,0.12363 -1.11274,0.18545 -1.57637,0.18545 -0.75728,0 -1.34456,-0.11977 -1.76183,-0.35932 -0.41728,-0.23955 -0.71091,-0.55443 -0.88091,-0.94466 -0.17001,-0.39023 -0.25501,-1.21126 -0.255,-2.46308 l 0,-7.08209 -1.53001,0 0,-1.62274 1.53001,0 0,-3.04842 2.07478,-1.25183 0,4.30025 2.09797,0 0,1.62274 -2.09797,0 0,7.19799 c 0,0.59501 0.0367,0.97751 0.11011,1.14751 0.0734,0.17 0.19318,0.30523 0.35932,0.40569 0.16614,0.10045 0.40375,0.15068 0.71285,0.15068 0.23181,0 0.53704,-0.0271 0.91569,-0.0811 z"
           style="font-size:23.73831177px;font-style:normal;font-weight:normal;text-align:start;text-anchor:start;fill:#3591a8;font-family:Arial"
           id="path3474"
           inkscape:connector-curvature="0" />
      </g>
      <path
         id="path3300"
         d="m 308.28572,165.93393 71.91772,71.91772"
         style="fill:none;stroke:#71bfd2;stroke-width:5.23179913px;stroke-linecap:round;stroke-linejoin:round;stroke-opacity:1;stroke-dasharray:none"
         inkscape:connector-curvature="0" />
      <path
         id="path3302"
         d="m 385.82567,228.48126 7.41822,22.48893 -22.41084,-7.49631 14.99262,-14.99262 z"
         style="fill:#71bfd2;fill-opacity:1;fill-rule:evenodd;stroke:none"
         inkscape:connector-curvature="0" />
      <path
         id="path3304"
         d="m 301.4141,211.06796 46.77385,46.69576 19.7559,-19.7559 -46.69576,-46.77385 -19.83399,19.83399 z"
         style="fill:#ffffff;fill-opacity:1;fill-rule:evenodd;stroke:none"
         inkscape:connector-curvature="0" />
      <g
         transform="matrix(0.70710678,0.70710678,-0.70710678,0.70710678,235.42342,-156.06539)"
         style="font-size:23.73831177px;font-style:normal;font-weight:normal;text-align:start;text-anchor:start;fill:#3591a8;font-family:Arial"
         id="text3306">
        <path
           d="m 307.96545,206.14851 0,-16.99236 7.53413,0 c 1.51455,2e-5 2.66591,0.15263 3.45411,0.45784 0.78818,0.30525 1.41795,0.84423 1.88933,1.61694 0.47135,0.77275 0.70704,1.62662 0.70705,2.56161 -1e-5,1.20547 -0.39024,2.22161 -1.17069,3.04842 -0.78047,0.82683 -1.98593,1.35229 -3.61638,1.57638 0.59499,0.28591 1.04704,0.56796 1.35614,0.84614 0.65681,0.60273 1.27886,1.35615 1.86615,2.26024 l 2.9557,4.62479 -2.8282,0 -2.24865,-3.53524 c -0.65683,-1.02 -1.19774,-1.80046 -1.62273,-2.34138 -0.42502,-0.5409 -0.80559,-0.91954 -1.14172,-1.13591 -0.33614,-0.21636 -0.67808,-0.36704 -1.0258,-0.45205 -0.25501,-0.0541 -0.67228,-0.0811 -1.25182,-0.0811 l -2.60797,0 0,7.54572 z m 2.24865,-9.493 4.83344,0 c 1.02772,1e-5 1.83136,-0.10624 2.41092,-0.31875 0.57953,-0.2125 1.01999,-0.5525 1.32137,-1.02001 0.30135,-0.46749 0.45203,-0.97556 0.45205,-1.52421 -2e-5,-0.80363 -0.29172,-1.46432 -0.87512,-1.98206 -0.58343,-0.51771 -1.50491,-0.77658 -2.76445,-0.77659 l -5.37821,0 z"
           style="font-size:23.73831177px;font-style:normal;font-weight:normal;text-align:start;text-anchor:start;fill:#3591a8;font-family:Arial"
           id="path3477"
           inkscape:connector-curvature="0" />
      </g>
      <g
         transform="matrix(0.70710678,0.70710678,-0.70710678,0.70710678,247.03381,-161.60644)"
         style="font-size:23.73831177px;font-style:normal;font-weight:normal;text-align:start;text-anchor:start;fill:#3591a8;font-family:Arial"
         id="text3308">
        <path
           d="m 328.58456,213.42886 2.15592,0.26659 c -0.34001,1.25956 -0.96979,2.23706 -1.88933,2.93252 -0.91956,0.69546 -2.09411,1.04319 -3.52366,1.04319 -1.80046,0 -3.22808,-0.55444 -4.28286,-1.66331 -1.05478,-1.10886 -1.58217,-2.66398 -1.58217,-4.66536 0,-2.07092 0.53319,-3.6782 1.59956,-4.82185 1.06636,-1.14363 2.44955,-1.71545 4.14956,-1.71546 1.64591,1e-5 2.99047,0.56024 4.03366,1.68069 1.04318,1.12047 1.56477,2.69684 1.56478,4.72912 -1e-5,0.12364 -0.004,0.30909 -0.0116,0.55636 l -9.18005,0 c 0.0773,1.35229 0.45978,2.38775 1.14751,3.10638 0.68773,0.71865 1.54546,1.07797 2.5732,1.07796 0.76499,1e-5 1.41795,-0.2009 1.95887,-0.60273 0.5409,-0.40181 0.96977,-1.04318 1.2866,-1.9241 z m -6.85027,-3.37297 6.87345,0 c -0.0927,-1.03545 -0.35547,-1.81205 -0.78819,-2.32979 -0.66455,-0.80363 -1.52615,-1.20545 -2.58478,-1.20546 -0.9582,1e-5 -1.76377,0.3207 -2.41672,0.96205 -0.65296,0.64138 -1.01421,1.49911 -1.08376,2.5732 z"
           style="font-size:23.73831177px;font-style:normal;font-weight:normal;text-align:start;text-anchor:start;fill:#3591a8;font-family:Arial"
           id="path3480"
           inkscape:connector-curvature="0" />
      </g>
      <g
         transform="matrix(0.70710678,0.70710678,-0.70710678,0.70710678,256.66296,-164.8631)"
         style="font-size:23.73831177px;font-style:normal;font-weight:normal;text-align:start;text-anchor:start;fill:#3591a8;font-family:Arial"
         id="text3310">
        <path
           d="m 328.06907,223.71371 2.06319,-0.32455 c 0.11591,0.82683 0.43852,1.46047 0.96785,1.90092 0.52931,0.44046 1.2692,0.66069 2.21967,0.66069 0.95818,0 1.66909,-0.19512 2.13274,-0.58535 0.46363,-0.39023 0.69545,-0.84807 0.69546,-1.37353 -1e-5,-0.47136 -0.20479,-0.84227 -0.61433,-1.11273 -0.28591,-0.18545 -0.99683,-0.42114 -2.13273,-0.70705 -1.53002,-0.38636 -2.59059,-0.72057 -3.18173,-1.00262 -0.59114,-0.28204 -1.03932,-0.67227 -1.34455,-1.17069 -0.30523,-0.4984 -0.45784,-1.04897 -0.45784,-1.65171 0,-0.54863 0.12556,-1.0567 0.3767,-1.52422 0.25114,-0.46749 0.59307,-0.85578 1.0258,-1.16489 0.32455,-0.23953 0.76694,-0.44237 1.32717,-0.60852 0.56023,-0.16613 1.16103,-0.2492 1.8024,-0.24921 0.96591,1e-5 1.81398,0.1391 2.54422,0.41728 0.73022,0.27819 1.2692,0.6549 1.61694,1.13011 0.34772,0.47525 0.58726,1.11082 0.71864,1.90672 l -2.04001,0.27818 c -0.0927,-0.63363 -0.36126,-1.12817 -0.80558,-1.48364 -0.44432,-0.35545 -1.07217,-0.53318 -1.88353,-0.53319 -0.95819,10e-6 -1.64206,0.15842 -2.0516,0.47523 -0.40955,0.31683 -0.61433,0.68774 -0.61432,1.11274 -10e-6,0.27046 0.085,0.51387 0.255,0.73023 0.17,0.2241 0.43659,0.40955 0.79977,0.55637 0.20864,0.0773 0.82296,0.255 1.84297,0.53318 1.47591,0.3941 2.50557,0.71672 3.08899,0.96785 0.58341,0.25114 1.04125,0.61626 1.37353,1.09534 0.33227,0.4791 0.4984,1.0741 0.49842,1.78501 -2e-5,0.69546 -0.20286,1.35035 -0.60853,1.96467 -0.40569,0.61433 -0.99104,1.08955 -1.75603,1.42569 -0.76501,0.33614 -1.63047,0.50421 -2.59638,0.50421 -1.59956,0 -2.81854,-0.33227 -3.65695,-0.99682 -0.83842,-0.66455 -1.37353,-1.64978 -1.60535,-2.9557 z"
           style="font-size:23.73831177px;font-style:normal;font-weight:normal;text-align:start;text-anchor:start;fill:#3591a8;font-family:Arial"
           id="path3483"
           inkscape:connector-curvature="0" />
      </g>
      <g
         transform="matrix(0.70710678,0.70710678,-0.70710678,0.70710678,264.5252,-168.85161)"
         style="font-size:23.73831177px;font-style:normal;font-weight:normal;text-align:start;text-anchor:start;fill:#3591a8;font-family:Arial"
         id="text3312">
        <path
           d="m 345.71663,234.88435 0,-1.80819 c -0.95819,1.39092 -2.26025,2.08638 -3.90616,2.08638 -0.72637,0 -1.40444,-0.13909 -2.03421,-0.41728 -0.62978,-0.27818 -1.09728,-0.62784 -1.40251,-1.04898 -0.30523,-0.42114 -0.51966,-0.93694 -0.6433,-1.5474 -0.085,-0.40954 -0.1275,-1.05863 -0.1275,-1.94728 l 0,-7.62686 2.08638,0 0,6.82708 c -10e-6,1.08956 0.0425,1.82365 0.1275,2.20229 0.13136,0.54864 0.40954,0.97944 0.83455,1.29239 0.42499,0.31296 0.95045,0.46944 1.57637,0.46944 0.6259,0 1.21318,-0.16034 1.76183,-0.48103 0.54863,-0.32068 0.93693,-0.75727 1.16489,-1.30978 0.22795,-0.5525 0.34192,-1.35421 0.34193,-2.40513 l 0,-6.59526 2.08638,0 0,12.30961 z"
           style="font-size:23.73831177px;font-style:normal;font-weight:normal;text-align:start;text-anchor:start;fill:#3591a8;font-family:Arial"
           id="path3486"
           inkscape:connector-curvature="0" />
      </g>
      <g
         transform="matrix(0.70710678,0.70710678,-0.70710678,0.70710678,274.15435,-172.10827)"
         style="font-size:23.73831177px;font-style:normal;font-weight:normal;text-align:start;text-anchor:start;fill:#3591a8;font-family:Arial"
         id="text3314">
        <path
           d="m 346.34865,244.87944 0,-16.99237 2.08637,0 0,16.99237 z"
           style="font-size:23.73831177px;font-style:normal;font-weight:normal;text-align:start;text-anchor:start;fill:#3591a8;font-family:Arial"
           id="path3489"
           inkscape:connector-curvature="0" />
      </g>
      <g
         transform="matrix(0.70710678,0.70710678,-0.70710678,0.70710678,277.9025,-173.6608)"
         style="font-size:23.73831177px;font-style:normal;font-weight:normal;text-align:start;text-anchor:start;fill:#3591a8;font-family:Arial"
         id="text3316">
        <path
           d="m 354.6984,246.76145 0.30137,1.84296 c -0.58728,0.12364 -1.11274,0.18546 -1.57637,0.18546 -0.75729,0 -1.34456,-0.11978 -1.76183,-0.35932 -0.41728,-0.23955 -0.71092,-0.55444 -0.88092,-0.94467 -0.17,-0.39022 -0.255,-1.21125 -0.255,-2.46308 l 0,-7.08208 -1.53001,0 0,-1.62274 1.53001,0 0,-3.04842 2.07479,-1.25183 0,4.30025 2.09796,0 0,1.62274 -2.09796,0 0,7.19799 c -10e-6,0.59501 0.0367,0.97751 0.11011,1.14751 0.0734,0.17 0.19318,0.30523 0.35932,0.40568 0.16613,0.10046 0.40375,0.15069 0.71285,0.15068 0.23181,1e-5 0.53704,-0.027 0.91568,-0.0811 z"
           style="font-size:23.73831177px;font-style:normal;font-weight:normal;text-align:start;text-anchor:start;fill:#3591a8;font-family:Arial"
           id="path3492"
           inkscape:connector-curvature="0" />
      </g>
    </g>
  </g>
</svg>
