<?xml version="1.0" encoding="UTF-8" standalone="no"?>
<!-- Created with Inkscape (http://www.inkscape.org/) -->

<svg
   xmlns:dc="http://purl.org/dc/elements/1.1/"
   xmlns:cc="http://creativecommons.org/ns#"
   xmlns:rdf="http://www.w3.org/1999/02/22-rdf-syntax-ns#"
   xmlns:svg="http://www.w3.org/2000/svg"
   xmlns="http://www.w3.org/2000/svg"
   xmlns:sodipodi="http://sodipodi.sourceforge.net/DTD/sodipodi-0.dtd"
   xmlns:inkscape="http://www.inkscape.org/namespaces/inkscape"
   width="522.53125"
   height="378.8125"
   id="svg2"
   version="1.1"
   inkscape:version="0.48.4 r9939"
   sodipodi:docname="rpc_register.svg">
  <defs
     id="defs4" />
  <sodipodi:namedview
     id="base"
     pagecolor="#ffffff"
     bordercolor="#666666"
     borderopacity="1.0"
     inkscape:pageopacity="0.0"
     inkscape:pageshadow="2"
     inkscape:zoom="1.4"
     inkscape:cx="285.25574"
     inkscape:cy="157.92256"
     inkscape:document-units="px"
     inkscape:current-layer="g3057"
     showgrid="false"
     fit-margin-top="4"
     fit-margin-left="4"
     fit-margin-right="4"
     fit-margin-bottom="4"
     inkscape:window-width="1440"
     inkscape:window-height="838"
     inkscape:window-x="-8"
     inkscape:window-y="-8"
     inkscape:window-maximized="1" />
  <metadata
     id="metadata7">
    <rdf:RDF>
      <cc:Work
         rdf:about="">
        <dc:format>image/svg+xml</dc:format>
        <dc:type
           rdf:resource="http://purl.org/dc/dcmitype/StillImage" />
        <dc:title />
      </cc:Work>
    </rdf:RDF>
  </metadata>
  <g
     inkscape:label="Ebene 1"
     inkscape:groupmode="layer"
     id="layer1"
     transform="translate(-1.5863271,-8.67259)">
    <g
       id="g2989"
       transform="translate(3.6488271,10.76634)">
      <g
         id="g3057"
         transform="translate(-0.590546,1.4796385)">
        <flowRoot
           xml:space="preserve"
           id="flowRoot3178"
           style="fill:black;stroke:none;stroke-opacity:1;stroke-width:1px;stroke-linejoin:miter;stroke-linecap:butt;fill-opacity:1;font-family:MS UI Gothic;font-style:normal;font-weight:normal;font-size:24px;line-height:125%;letter-spacing:0px;word-spacing:0px;-inkscape-font-specification:MS UI Gothic;font-stretch:normal;font-variant:normal"><flowRegion
             id="flowRegion3180"><rect
               id="rect3182"
               width="687.91388"
               height="583.86816"
               x="-6.0609155"
               y="-110.10133" /></flowRegion><flowPara
             id="flowPara3184" /></flowRoot>        <path
           inkscape:connector-curvature="0"
           style="fill:#595959;fill-opacity:1;fill-rule:evenodd;stroke:none"
           d="m 119.03641,368.67688 c 13.04046,0 23.58214,-10.54169 23.58214,-23.58214 l 0,0 0,-63.09394 c 0,-13.04045 -10.54168,-23.66023 -23.58214,-23.66023 l 0,0 -90.736572,0 c -13.040454,0 -23.5821396,10.61978 -23.5821396,23.66023 l 0,0 0,63.09394 c 0,13.04045 10.5416856,23.58214 23.5821396,23.58214 l 0,0 90.736572,0 z"
           id="path3033" />
        <path
           inkscape:connector-curvature="0"
           style="fill:none;stroke:#000000;stroke-width:3.59198141px;stroke-linecap:round;stroke-linejoin:round;stroke-opacity:1;stroke-dasharray:none"
           d="m 119.03641,368.67688 c 13.04046,0 23.58214,-10.54169 23.58214,-23.58214 l 0,0 0,-63.09394 c 0,-13.04045 -10.54168,-23.66023 -23.58214,-23.66023 l 0,0 -90.736572,0 c -13.040454,0 -23.5821396,10.61978 -23.5821396,23.66023 l 0,0 0,63.09394 c 0,13.04045 10.5416856,23.58214 23.5821396,23.58214 l 0,0 90.736572,0 z"
           id="path3035" />
        <g
           style="font-size:23.73831177px;font-style:normal;font-weight:normal;text-align:start;text-anchor:start;fill:#ffffff;font-family:Arial"
           id="text3037">
          <path
             d="m 53.408937,306.59808 6.525718,-16.99236 2.422513,0 6.954584,16.99236 -2.561605,0 -1.982056,-5.14639 -7.105267,0 -1.866146,5.14639 z m 4.902982,-6.97776 5.760713,0 -1.773419,-4.70594 c -0.54092,-1.42954 -0.94274,-2.60409 -1.205461,-3.52365 -0.216372,1.08956 -0.521601,2.17139 -0.915687,3.24547 z"
             style="font-size:23.73831177px;font-style:normal;font-weight:normal;text-align:start;text-anchor:start;fill:#ffffff;font-family:Arial"
             id="path3113" />
          <path
             d="m 70.864942,311.31561 0,-17.02714 1.900919,0 0,1.59955 c 0.448181,-0.6259 0.954319,-1.09533 1.518418,-1.4083 0.564088,-0.31294 1.247955,-0.46942 2.051602,-0.46943 1.050906,10e-6 1.978183,0.27047 2.781833,0.81137 0.80363,0.54092 1.410224,1.30399 1.819783,2.28921 0.409535,0.98524 0.614309,2.06513 0.614321,3.23968 -1.2e-5,1.25956 -0.226036,2.39354 -0.678072,3.40195 -0.452059,1.00842 -1.10888,1.78115 -1.970465,2.31819 -0.861604,0.53705 -1.767631,0.80558 -2.718083,0.80558 -0.695464,0 -1.319445,-0.14682 -1.871942,-0.44046 -0.552507,-0.29364 -1.006487,-0.66455 -1.361939,-1.11273 l 0,5.99253 z m 1.889328,-10.80279 c -3e-6,1.58411 0.32068,2.75479 0.962051,3.51207 0.641362,0.75728 1.417956,1.13591 2.329785,1.13591 0.927271,0 1.721251,-0.39216 2.381945,-1.17648 0.660676,-0.78432 0.991018,-1.99944 0.991028,-3.64536 -1e-5,-1.56864 -0.322625,-2.74319 -0.967846,-3.52366 -0.645239,-0.78045 -1.416038,-1.17067 -2.312399,-1.17069 -0.888647,2e-5 -1.6749,0.41536 -2.358763,1.24603 -0.683871,0.8307 -1.025804,2.03809 -1.025801,3.62218 z"
             style="font-size:23.73831177px;font-style:normal;font-weight:normal;text-align:start;text-anchor:start;fill:#ffffff;font-family:Arial"
             id="path3115" />
          <path
             d="m 84.078652,311.31561 0,-17.02714 1.900919,0 0,1.59955 c 0.44818,-0.6259 0.954319,-1.09533 1.518417,-1.4083 0.564089,-0.31294 1.247956,-0.46942 2.051603,-0.46943 1.050906,10e-6 1.978183,0.27047 2.781833,0.81137 0.80363,0.54092 1.410224,1.30399 1.819783,2.28921 0.409535,0.98524 0.614309,2.06513 0.614321,3.23968 -1.2e-5,1.25956 -0.226036,2.39354 -0.678072,3.40195 -0.452059,1.00842 -1.10888,1.78115 -1.970465,2.31819 -0.861604,0.53705 -1.767631,0.80558 -2.718083,0.80558 -0.695465,0 -1.319445,-0.14682 -1.871942,-0.44046 -0.552508,-0.29364 -1.006487,-0.66455 -1.361939,-1.11273 l 0,5.99253 z m 1.889328,-10.80279 c -3e-6,1.58411 0.32068,2.75479 0.962051,3.51207 0.641362,0.75728 1.417956,1.13591 2.329785,1.13591 0.92727,0 1.721251,-0.39216 2.381945,-1.17648 0.660676,-0.78432 0.991018,-1.99944 0.991028,-3.64536 -1e-5,-1.56864 -0.322625,-2.74319 -0.967846,-3.52366 -0.645239,-0.78045 -1.416038,-1.17067 -2.312399,-1.17069 -0.888647,2e-5 -1.674901,0.41536 -2.358763,1.24603 -0.683871,0.8307 -1.025804,2.03809 -1.025801,3.62218 z"
             style="font-size:23.73831177px;font-style:normal;font-weight:normal;text-align:start;text-anchor:start;fill:#ffffff;font-family:Arial"
             id="path3117" />
        </g>
        <g
           style="font-size:23.73831177px;font-style:normal;font-weight:normal;text-align:start;text-anchor:start;fill:#ffffff;font-family:Arial"
           id="text3039">
          <path
             d="m 27.418923,328.12677 2.248649,0.56796 c -0.471382,1.84683 -1.319454,3.25514 -2.544219,4.22491 -1.224791,0.96978 -2.721957,1.45467 -4.491501,1.45467 -1.831381,0 -3.32082,-0.37284 -4.46832,-1.11853 -1.14751,-0.74569 -2.020696,-1.82558 -2.61956,-3.23968 -0.598869,-1.41409 -0.898302,-2.93251 -0.898301,-4.55525 -10e-7,-1.76954 0.338069,-3.31307 1.014211,-4.63059 0.676137,-1.3175 1.638187,-2.31818 2.886152,-3.00207 1.247955,-0.68385 2.621484,-1.02578 4.12059,-1.0258 1.699999,2e-5 3.129551,0.43275 4.28866,1.29819 1.159083,0.86548 1.966587,2.08253 2.422514,3.65116 l -2.213876,0.52159 c -0.394107,-1.23635 -0.965927,-2.13659 -1.715464,-2.70069 -0.749561,-0.56408 -1.692292,-0.84613 -2.828197,-0.84614 -1.305925,1e-5 -2.397407,0.31297 -3.27445,0.93886 -0.877055,0.62593 -1.493308,1.46627 -1.84876,2.52104 -0.35546,1.05479 -0.533189,2.14241 -0.533185,3.26286 -4e-6,1.44501 0.210566,2.7065 0.631708,3.78445 0.421134,1.07797 1.076023,1.88354 1.96467,2.41672 0.888634,0.53319 1.850684,0.79978 2.886152,0.79978 1.259542,0 2.32591,-0.36319 3.199108,-1.08955 0.873174,-0.72637 1.464313,-1.80433 1.773419,-3.23389 z"
             style="font-size:23.73831177px;font-style:normal;font-weight:normal;text-align:start;text-anchor:start;fill:#ffffff;font-family:Arial"
             id="path3094" />
          <path
             d="m 31.406219,327.92973 c -1e-6,-2.27955 0.633638,-3.96797 1.900919,-5.06526 1.058638,-0.91181 2.349099,-1.36772 3.871385,-1.36773 1.692274,1e-5 3.075462,0.55444 4.149568,1.6633 1.074085,1.10888 1.611133,2.64082 1.611145,4.59582 -1.2e-5,1.58411 -0.237627,2.83014 -0.712845,3.73809 -0.475241,0.90796 -1.166835,1.61308 -2.074784,2.11535 -0.907968,0.50228 -1.898995,0.75342 -2.973084,0.75342 -1.723196,0 -3.116043,-0.55251 -4.178546,-1.65751 -1.062507,-1.10501 -1.593759,-2.69683 -1.593758,-4.77548 z m 2.14433,0 c -3e-6,1.57637 0.343862,2.75672 1.031596,3.54104 0.687726,0.78432 1.553185,1.17648 2.596378,1.17648 1.035453,0 1.897047,-0.39409 2.584787,-1.18228 0.687721,-0.78818 1.031586,-1.98978 1.031596,-3.60479 -10e-6,-1.52227 -0.345807,-2.67557 -1.037392,-3.4599 -0.691603,-0.78432 -1.551266,-1.17648 -2.578991,-1.17649 -1.043193,10e-6 -1.908652,0.39024 -2.596378,1.17069 -0.687734,0.78047 -1.031599,1.95888 -1.031596,3.53525 z"
             style="font-size:23.73831177px;font-style:normal;font-weight:normal;text-align:start;text-anchor:start;fill:#ffffff;font-family:Arial"
             id="path3096" />
          <path
             d="m 45.396523,334.08453 0,-12.30961 1.866146,0 0,1.72706 c 0.386362,-0.60272 0.900228,-1.08761 1.5416,-1.45467 0.641361,-0.36704 1.371592,-0.55056 2.190693,-0.55057 0.911815,1e-5 1.659432,0.18933 2.242854,0.56796 0.583402,0.37865 0.994881,0.90797 1.234438,1.58796 0.97363,-1.43727 2.240909,-2.15591 3.801839,-2.15592 1.2209,1e-5 2.159768,0.33808 2.816606,1.01421 0.656804,0.67615 0.985215,1.7174 0.985233,3.12376 l 0,8.44982 -2.074784,0 0,-7.75436 c -1.6e-5,-0.83454 -0.06763,-1.43534 -0.202842,-1.80239 -0.135244,-0.36704 -0.380586,-0.66261 -0.736027,-0.88671 -0.355471,-0.22408 -0.772746,-0.33613 -1.251825,-0.33614 -0.865472,10e-6 -1.584112,0.28785 -2.155921,0.86353 -0.571832,0.57569 -0.857743,1.49717 -0.857732,2.76444 l 0,7.15163 -2.086375,0 0,-7.99777 c -9e-6,-0.92727 -0.170009,-1.62272 -0.510002,-2.08637 -0.34001,-0.46363 -0.896377,-0.69545 -1.669101,-0.69546 -0.587282,10e-6 -1.130125,0.15456 -1.628531,0.46364 -0.498417,0.3091 -0.859668,0.76115 -1.083756,1.35614 -0.224096,0.59501 -0.336142,1.45274 -0.336138,2.5732 l 0,6.38662 z"
             style="font-size:23.73831177px;font-style:normal;font-weight:normal;text-align:start;text-anchor:start;fill:#ffffff;font-family:Arial"
             id="path3098" />
          <path
             d="m 65.193903,338.80206 0,-17.02714 1.90092,0 0,1.59956 c 0.44818,-0.62591 0.954319,-1.09534 1.518417,-1.40831 0.564088,-0.31294 1.247955,-0.46942 2.051602,-0.46943 1.050907,1e-5 1.978184,0.27047 2.781834,0.81137 0.80363,0.54092 1.410223,1.30399 1.819782,2.28921 0.409536,0.98524 0.61431,2.06514 0.614322,3.23968 -1.2e-5,1.25956 -0.226036,2.39354 -0.678072,3.40195 -0.452059,1.00842 -1.10888,1.78115 -1.970465,2.31819 -0.861605,0.53705 -1.767632,0.80558 -2.718084,0.80558 -0.695464,0 -1.319444,-0.14682 -1.871942,-0.44046 -0.552507,-0.29364 -1.006486,-0.66455 -1.361939,-1.11273 l 0,5.99253 z m 1.889329,-10.80279 c -4e-6,1.58411 0.320679,2.75479 0.96205,3.51207 0.641362,0.75728 1.417957,1.13591 2.329786,1.13591 0.92727,0 1.721251,-0.39216 2.381945,-1.17648 0.660675,-0.78432 0.991018,-1.99944 0.991028,-3.64536 -1e-5,-1.56864 -0.322625,-2.74319 -0.967846,-3.52366 -0.64524,-0.78045 -1.416039,-1.17067 -2.312399,-1.17069 -0.888648,2e-5 -1.674901,0.41536 -2.358763,1.24603 -0.683872,0.8307 -1.025805,2.03809 -1.025801,3.62218 z"
             style="font-size:23.73831177px;font-style:normal;font-weight:normal;text-align:start;text-anchor:start;fill:#ffffff;font-family:Arial"
             id="path3100" />
          <path
             d="m 77.631019,327.92973 c -10e-7,-2.27955 0.633638,-3.96797 1.900919,-5.06526 1.058639,-0.91181 2.349099,-1.36772 3.871385,-1.36773 1.692274,1e-5 3.075462,0.55444 4.149568,1.6633 1.074085,1.10888 1.611133,2.64082 1.611145,4.59582 -1.2e-5,1.58411 -0.237627,2.83014 -0.712844,3.73809 -0.475241,0.90796 -1.166835,1.61308 -2.074785,2.11535 -0.907968,0.50228 -1.898995,0.75342 -2.973084,0.75342 -1.723196,0 -3.116043,-0.55251 -4.178546,-1.65751 -1.062507,-1.10501 -1.593759,-2.69683 -1.593758,-4.77548 z m 2.14433,0 c -3e-6,1.57637 0.343862,2.75672 1.031596,3.54104 0.687727,0.78432 1.553185,1.17648 2.596378,1.17648 1.035453,0 1.897047,-0.39409 2.584787,-1.18228 0.687721,-0.78818 1.031586,-1.98978 1.031596,-3.60479 -1e-5,-1.52227 -0.345807,-2.67557 -1.037392,-3.4599 -0.691603,-0.78432 -1.551266,-1.17648 -2.578991,-1.17649 -1.043193,10e-6 -1.908651,0.39024 -2.596378,1.17069 -0.687734,0.78047 -1.031599,1.95888 -1.031596,3.53525 z"
             style="font-size:23.73831177px;font-style:normal;font-weight:normal;text-align:start;text-anchor:start;fill:#ffffff;font-family:Arial"
             id="path3102" />
          <path
             d="m 91.621321,334.08453 0,-12.30961 1.877737,0 0,1.75024 c 0.904092,-1.35227 2.210007,-2.02841 3.917749,-2.02842 0.741814,1e-5 1.423749,0.13331 2.045807,0.39989 0.622036,0.2666 1.087606,0.61626 1.396716,1.04898 0.30908,0.43274 0.52544,0.94661 0.64909,1.5416 0.0773,0.38637 0.1159,1.06251 0.11591,2.02842 l 0,7.5689 -2.086375,0 0,-7.48776 c -9e-6,-0.85 -0.08115,-1.48557 -0.24341,-1.90672 -0.162283,-0.42113 -0.450125,-0.75727 -0.863528,-1.00841 -0.413419,-0.25113 -0.898308,-0.3767 -1.454667,-0.37671 -0.888647,10e-6 -1.655582,0.28206 -2.300808,0.84614 -0.645235,0.5641 -0.96785,1.63434 -0.967846,3.2107 l 0,6.72276 z"
             style="font-size:23.73831177px;font-style:normal;font-weight:normal;text-align:start;text-anchor:start;fill:#ffffff;font-family:Arial"
             id="path3104" />
          <path
             d="m 113.26166,330.12042 2.15593,0.26659 c -0.34002,1.25956 -0.96979,2.23706 -1.88933,2.93252 -0.91956,0.69546 -2.09411,1.04319 -3.52366,1.04319 -1.80047,0 -3.22809,-0.55444 -4.28286,-1.66331 -1.05478,-1.10886 -1.58217,-2.66399 -1.58217,-4.66536 0,-2.07092 0.53318,-3.6782 1.59955,-4.82185 1.06637,-1.14363 2.44956,-1.71545 4.14957,-1.71546 1.64591,1e-5 2.99046,0.56024 4.03366,1.68069 1.04318,1.12047 1.56477,2.69684 1.56478,4.72912 -10e-6,0.12364 -0.004,0.30909 -0.0116,0.55636 l -9.18005,0 c 0.0773,1.35229 0.45977,2.38775 1.14751,3.10638 0.68772,0.71864 1.54545,1.07796 2.57319,1.07796 0.765,0 1.41796,-0.20091 1.95888,-0.60273 0.5409,-0.40182 0.96977,-1.04318 1.28659,-1.9241 z m -6.85026,-3.37297 6.87345,0 c -0.0927,-1.03545 -0.35547,-1.81205 -0.78819,-2.32979 -0.66456,-0.80363 -1.52615,-1.20545 -2.58479,-1.20546 -0.95819,1e-5 -1.76376,0.3207 -2.41671,0.96205 -0.65297,0.64138 -1.01422,1.49911 -1.08376,2.5732 z"
             style="font-size:23.73831177px;font-style:normal;font-weight:normal;text-align:start;text-anchor:start;fill:#ffffff;font-family:Arial"
             id="path3106" />
          <path
             d="m 118.04874,334.08453 0,-12.30961 1.87774,0 0,1.75024 c 0.90409,-1.35227 2.21001,-2.02841 3.91775,-2.02842 0.74181,1e-5 1.42375,0.13331 2.04581,0.39989 0.62203,0.2666 1.0876,0.61626 1.39671,1.04898 0.30908,0.43274 0.52544,0.94661 0.64909,1.5416 0.0773,0.38637 0.1159,1.06251 0.11591,2.02842 l 0,7.5689 -2.08637,0 0,-7.48776 c -1e-5,-0.85 -0.0811,-1.48557 -0.24341,-1.90672 -0.16229,-0.42113 -0.45013,-0.75727 -0.86353,-1.00841 -0.41342,-0.25113 -0.89831,-0.3767 -1.45467,-0.37671 -0.88865,10e-6 -1.65558,0.28206 -2.30081,0.84614 -0.64523,0.5641 -0.96785,1.63434 -0.96784,3.2107 l 0,6.72276 z"
             style="font-size:23.73831177px;font-style:normal;font-weight:normal;text-align:start;text-anchor:start;fill:#ffffff;font-family:Arial"
             id="path3108" />
          <path
             d="m 135.8177,332.21839 0.30137,1.84296 c -0.58728,0.12364 -1.11274,0.18546 -1.57638,0.18546 -0.75728,0 -1.34455,-0.11978 -1.76182,-0.35932 -0.41728,-0.23955 -0.71092,-0.55444 -0.88092,-0.94467 -0.17,-0.39022 -0.255,-1.21125 -0.255,-2.46308 l 0,-7.08208 -1.53001,0 0,-1.62274 1.53001,0 0,-3.04842 2.07479,-1.25183 0,4.30025 2.09796,0 0,1.62274 -2.09796,0 0,7.19799 c -1e-5,0.59501 0.0367,0.97751 0.11011,1.14751 0.0734,0.17 0.19318,0.30523 0.35932,0.40568 0.16613,0.10046 0.40375,0.15069 0.71284,0.15068 0.23182,1e-5 0.53705,-0.027 0.91569,-0.0811 z"
             style="font-size:23.73831177px;font-style:normal;font-weight:normal;text-align:start;text-anchor:start;fill:#ffffff;font-family:Arial"
             id="path3110" />
        </g>
        <path
           inkscape:connector-curvature="0"
           style="fill:#595959;fill-opacity:1;fill-rule:evenodd;stroke:none"
           d="m 492.05588,368.91114 c 13.04046,0 23.58214,-10.54169 23.58214,-23.58214 l 0,0 0,-62.31307 c 0,-13.04046 -10.54168,-23.66023 -23.58214,-23.66023 l -89.72145,0 c -13.04045,0 -23.58214,10.61977 -23.58214,23.66023 l 0,0 0,62.31307 c 0,13.04045 10.54169,23.58214 23.58214,23.58214 l 89.72145,0 z"
           id="path3041" />
        <path
           inkscape:connector-curvature="0"
           style="fill:none;stroke:#000000;stroke-width:3.59198141px;stroke-linecap:round;stroke-linejoin:round;stroke-opacity:1;stroke-dasharray:none"
           d="m 492.05588,368.91114 c 13.04046,0 23.58214,-10.54169 23.58214,-23.58214 l 0,0 0,-62.31307 c 0,-13.04046 -10.54168,-23.66023 -23.58214,-23.66023 l -89.72145,0 c -13.04045,0 -23.58214,10.61977 -23.58214,23.66023 l 0,0 0,62.31307 c 0,13.04045 10.54169,23.58214 23.58214,23.58214 l 89.72145,0 z"
           id="path3043" />
        <g
           style="font-size:23.73831177px;font-style:normal;font-weight:normal;text-align:start;text-anchor:start;fill:#ffffff;font-family:Arial"
           id="text3045">
          <path
             d="m 426.97502,306.59808 6.52572,-16.99236 2.42251,0 6.95459,16.99236 -2.56161,0 -1.98205,-5.14639 -7.10527,0 -1.86615,5.14639 z m 4.90298,-6.97776 5.76072,0 -1.77342,-4.70594 c -0.54092,-1.42954 -0.94274,-2.60409 -1.20546,-3.52365 -0.21637,1.08956 -0.5216,2.17139 -0.91569,3.24547 z"
             style="font-size:23.73831177px;font-style:normal;font-weight:normal;text-align:start;text-anchor:start;fill:#ffffff;font-family:Arial"
             id="path3139" />
          <path
             d="m 444.43103,311.31561 0,-17.02714 1.90092,0 0,1.59955 c 0.44818,-0.6259 0.95432,-1.09533 1.51841,-1.4083 0.56409,-0.31294 1.24796,-0.46942 2.05161,-0.46943 1.0509,10e-6 1.97818,0.27047 2.78183,0.81137 0.80363,0.54092 1.41022,1.30399 1.81978,2.28921 0.40954,0.98524 0.61431,2.06513 0.61432,3.23968 -1e-5,1.25956 -0.22603,2.39354 -0.67807,3.40195 -0.45206,1.00842 -1.10888,1.78115 -1.97046,2.31819 -0.86161,0.53705 -1.76763,0.80558 -2.71809,0.80558 -0.69546,0 -1.31944,-0.14682 -1.87194,-0.44046 -0.55251,-0.29364 -1.00648,-0.66455 -1.36194,-1.11273 l 0,5.99253 z m 1.88933,-10.80279 c -10e-6,1.58411 0.32068,2.75479 0.96205,3.51207 0.64136,0.75728 1.41795,1.13591 2.32978,1.13591 0.92727,0 1.72125,-0.39216 2.38195,-1.17648 0.66067,-0.78432 0.99102,-1.99944 0.99103,-3.64536 -10e-6,-1.56864 -0.32263,-2.74319 -0.96785,-3.52366 -0.64524,-0.78045 -1.41604,-1.17067 -2.3124,-1.17069 -0.88865,2e-5 -1.6749,0.41536 -2.35876,1.24603 -0.68387,0.8307 -1.02581,2.03809 -1.0258,3.62218 z"
             style="font-size:23.73831177px;font-style:normal;font-weight:normal;text-align:start;text-anchor:start;fill:#ffffff;font-family:Arial"
             id="path3141" />
          <path
             d="m 457.64474,311.31561 0,-17.02714 1.90092,0 0,1.59955 c 0.44818,-0.6259 0.95432,-1.09533 1.51841,-1.4083 0.56409,-0.31294 1.24796,-0.46942 2.05161,-0.46943 1.0509,10e-6 1.97818,0.27047 2.78183,0.81137 0.80363,0.54092 1.41022,1.30399 1.81978,2.28921 0.40954,0.98524 0.61431,2.06513 0.61432,3.23968 -1e-5,1.25956 -0.22603,2.39354 -0.67807,3.40195 -0.45206,1.00842 -1.10888,1.78115 -1.97046,2.31819 -0.86161,0.53705 -1.76763,0.80558 -2.71809,0.80558 -0.69546,0 -1.31944,-0.14682 -1.87194,-0.44046 -0.55251,-0.29364 -1.00649,-0.66455 -1.36194,-1.11273 l 0,5.99253 z m 1.88933,-10.80279 c -10e-6,1.58411 0.32068,2.75479 0.96205,3.51207 0.64136,0.75728 1.41795,1.13591 2.32978,1.13591 0.92727,0 1.72125,-0.39216 2.38195,-1.17648 0.66067,-0.78432 0.99101,-1.99944 0.99103,-3.64536 -2e-5,-1.56864 -0.32263,-2.74319 -0.96785,-3.52366 -0.64524,-0.78045 -1.41604,-1.17067 -2.3124,-1.17069 -0.88865,2e-5 -1.6749,0.41536 -2.35876,1.24603 -0.68387,0.8307 -1.02581,2.03809 -1.0258,3.62218 z"
             style="font-size:23.73831177px;font-style:normal;font-weight:normal;text-align:start;text-anchor:start;fill:#ffffff;font-family:Arial"
             id="path3143" />
        </g>
        <g
           style="font-size:23.73831177px;font-style:normal;font-weight:normal;text-align:start;text-anchor:start;fill:#ffffff;font-family:Arial"
           id="text3047">
          <path
             d="m 400.98501,329.37616 2.24865,0.56796 c -0.47138,1.84683 -1.31945,3.25513 -2.54422,4.22491 -1.22479,0.96978 -2.72196,1.45467 -4.4915,1.45467 -1.83138,0 -3.32082,-0.37285 -4.46832,-1.11853 -1.14751,-0.74569 -2.0207,-1.82558 -2.61956,-3.23968 -0.59887,-1.41409 -0.8983,-2.93251 -0.8983,-4.55525 0,-1.76954 0.33807,-3.31307 1.01421,-4.63059 0.67614,-1.3175 1.63819,-2.31818 2.88615,-3.00207 1.24796,-0.68385 2.62149,-1.02578 4.12059,-1.0258 1.7,2e-5 3.12955,0.43275 4.28866,1.29819 1.15908,0.86548 1.96659,2.08253 2.42252,3.65116 l -2.21388,0.52159 c -0.39411,-1.23636 -0.96593,-2.13659 -1.71546,-2.70069 -0.74957,-0.56408 -1.6923,-0.84613 -2.8282,-0.84615 -1.30593,2e-5 -2.39741,0.31298 -3.27445,0.93887 -0.87706,0.62593 -1.49331,1.46627 -1.84876,2.52104 -0.35546,1.05479 -0.53319,2.14241 -0.53319,3.26286 0,1.44501 0.21057,2.7065 0.63171,3.78445 0.42114,1.07797 1.07603,1.88354 1.96467,2.41672 0.88864,0.53319 1.85069,0.79978 2.88615,0.79978 1.25955,0 2.32591,-0.36319 3.19911,-1.08956 0.87318,-0.72636 1.46431,-1.80432 1.77342,-3.23388 z"
             style="font-size:23.73831177px;font-style:normal;font-weight:normal;text-align:start;text-anchor:start;fill:#ffffff;font-family:Arial"
             id="path3120" />
          <path
             d="m 404.97231,329.17912 c 0,-2.27955 0.63363,-3.96797 1.90092,-5.06526 1.05863,-0.91181 2.34909,-1.36772 3.87138,-1.36773 1.69227,1e-5 3.07546,0.55444 4.14957,1.6633 1.07408,1.10888 1.61113,2.64082 1.61114,4.59582 -10e-6,1.58411 -0.23762,2.83013 -0.71284,3.73809 -0.47524,0.90796 -1.16684,1.61308 -2.07478,2.11535 -0.90797,0.50228 -1.899,0.75342 -2.97309,0.75342 -1.7232,0 -3.11604,-0.55251 -4.17854,-1.65751 -1.06251,-1.10501 -1.59376,-2.69683 -1.59376,-4.77548 z m 2.14433,0 c -1e-5,1.57637 0.34386,2.75672 1.03159,3.54104 0.68773,0.78432 1.55319,1.17648 2.59638,1.17648 1.03545,0 1.89705,-0.39409 2.58479,-1.18228 0.68772,-0.78818 1.03158,-1.98978 1.03159,-3.60479 -1e-5,-1.52227 -0.3458,-2.67557 -1.03739,-3.4599 -0.6916,-0.78432 -1.55126,-1.17648 -2.57899,-1.17649 -1.04319,10e-6 -1.90865,0.39024 -2.59638,1.17069 -0.68773,0.78047 -1.0316,1.95888 -1.03159,3.53525 z"
             style="font-size:23.73831177px;font-style:normal;font-weight:normal;text-align:start;text-anchor:start;fill:#ffffff;font-family:Arial"
             id="path3122" />
          <path
             d="m 418.96261,335.33392 0,-12.30961 1.86615,0 0,1.72706 c 0.38636,-0.60272 0.90022,-1.08761 1.5416,-1.45467 0.64136,-0.36704 1.37159,-0.55056 2.19069,-0.55057 0.91182,1e-5 1.65943,0.18933 2.24285,0.56795 0.58341,0.37865 0.99488,0.90798 1.23444,1.58797 0.97363,-1.43727 2.24091,-2.15591 3.80184,-2.15592 1.2209,1e-5 2.15977,0.33808 2.81661,1.01421 0.6568,0.67615 0.98521,1.7174 0.98523,3.12376 l 0,8.44982 -2.07478,0 0,-7.75436 c -2e-5,-0.83454 -0.0676,-1.43534 -0.20285,-1.80239 -0.13524,-0.36704 -0.38058,-0.66261 -0.73602,-0.88671 -0.35547,-0.22408 -0.77275,-0.33613 -1.25183,-0.33614 -0.86547,10e-6 -1.58411,0.28785 -2.15592,0.86353 -0.57183,0.57569 -0.85774,1.49717 -0.85773,2.76444 l 0,7.15163 -2.08638,0 0,-7.99777 c 0,-0.92727 -0.17001,-1.62272 -0.51,-2.08637 -0.34001,-0.46363 -0.89637,-0.69545 -1.6691,-0.69546 -0.58728,10e-6 -1.13012,0.15456 -1.62853,0.46364 -0.49842,0.3091 -0.85967,0.76115 -1.08376,1.35614 -0.22409,0.59501 -0.33614,1.45274 -0.33613,2.5732 l 0,6.38662 z"
             style="font-size:23.73831177px;font-style:normal;font-weight:normal;text-align:start;text-anchor:start;fill:#ffffff;font-family:Arial"
             id="path3124" />
          <path
             d="m 438.75999,340.05145 0,-17.02714 1.90092,0 0,1.59955 c 0.44818,-0.6259 0.95432,-1.09533 1.51842,-1.4083 0.56409,-0.31294 1.24795,-0.46942 2.0516,-0.46943 1.05091,1e-5 1.97818,0.27047 2.78183,0.81137 0.80363,0.54092 1.41023,1.30399 1.81979,2.28921 0.40953,0.98524 0.61431,2.06513 0.61432,3.23968 -10e-6,1.25956 -0.22604,2.39354 -0.67807,3.40195 -0.45206,1.00842 -1.10888,1.78115 -1.97047,2.31819 -0.8616,0.53705 -1.76763,0.80558 -2.71808,0.80558 -0.69547,0 -1.31945,-0.14682 -1.87194,-0.44046 -0.55251,-0.29364 -1.00649,-0.66455 -1.36194,-1.11273 l 0,5.99253 z m 1.88933,-10.80279 c 0,1.58411 0.32068,2.75479 0.96205,3.51207 0.64136,0.75728 1.41796,1.13591 2.32979,1.13591 0.92727,0 1.72125,-0.39216 2.38194,-1.17648 0.66068,-0.78432 0.99102,-1.99944 0.99103,-3.64536 -10e-6,-1.56864 -0.32263,-2.74319 -0.96785,-3.52366 -0.64524,-0.78045 -1.41604,-1.17067 -2.3124,-1.17069 -0.88864,2e-5 -1.6749,0.41536 -2.35876,1.24603 -0.68387,0.8307 -1.0258,2.03809 -1.0258,3.62218 z"
             style="font-size:23.73831177px;font-style:normal;font-weight:normal;text-align:start;text-anchor:start;fill:#ffffff;font-family:Arial"
             id="path3126" />
          <path
             d="m 451.19711,329.17912 c 0,-2.27955 0.63363,-3.96797 1.90092,-5.06526 1.05863,-0.91181 2.34909,-1.36772 3.87138,-1.36773 1.69227,1e-5 3.07546,0.55444 4.14957,1.6633 1.07408,1.10888 1.61113,2.64082 1.61114,4.59582 -10e-6,1.58411 -0.23762,2.83013 -0.71284,3.73809 -0.47524,0.90796 -1.16684,1.61308 -2.07478,2.11535 -0.90797,0.50228 -1.899,0.75342 -2.97309,0.75342 -1.7232,0 -3.11604,-0.55251 -4.17854,-1.65751 -1.06251,-1.10501 -1.59376,-2.69683 -1.59376,-4.77548 z m 2.14433,0 c -10e-6,1.57637 0.34386,2.75672 1.03159,3.54104 0.68773,0.78432 1.55319,1.17648 2.59638,1.17648 1.03545,0 1.89705,-0.39409 2.58479,-1.18228 0.68772,-0.78818 1.03158,-1.98978 1.03159,-3.60479 -10e-6,-1.52227 -0.3458,-2.67557 -1.03739,-3.4599 -0.6916,-0.78432 -1.55126,-1.17648 -2.57899,-1.17649 -1.04319,10e-6 -1.90865,0.39024 -2.59638,1.17069 -0.68773,0.78047 -1.0316,1.95888 -1.03159,3.53525 z"
             style="font-size:23.73831177px;font-style:normal;font-weight:normal;text-align:start;text-anchor:start;fill:#ffffff;font-family:Arial"
             id="path3128" />
          <path
             d="m 465.18741,335.33392 0,-12.30961 1.87774,0 0,1.75024 c 0.90409,-1.35227 2.21,-2.02841 3.91774,-2.02842 0.74182,1e-5 1.42375,0.13331 2.04581,0.39989 0.62204,0.2666 1.08761,0.61626 1.39671,1.04898 0.30909,0.43274 0.52545,0.94661 0.6491,1.5416 0.0773,0.38637 0.1159,1.06251 0.11591,2.02842 l 0,7.5689 -2.08638,0 0,-7.48776 c -10e-6,-0.85 -0.0811,-1.48557 -0.24341,-1.90672 -0.16228,-0.42113 -0.45012,-0.75727 -0.86353,-1.00841 -0.41341,-0.25113 -0.8983,-0.3767 -1.45466,-0.37671 -0.88865,10e-6 -1.65558,0.28206 -2.30081,0.84614 -0.64523,0.5641 -0.96785,1.63434 -0.96785,3.2107 l 0,6.72276 z"
             style="font-size:23.73831177px;font-style:normal;font-weight:normal;text-align:start;text-anchor:start;fill:#ffffff;font-family:Arial"
             id="path3130" />
          <path
             d="m 486.82775,331.36981 2.15592,0.26659 c -0.34001,1.25956 -0.96979,2.23706 -1.88933,2.93252 -0.91955,0.69546 -2.09411,1.04319 -3.52365,1.04319 -1.80047,0 -3.22809,-0.55444 -4.28287,-1.66331 -1.05477,-1.10887 -1.58216,-2.66399 -1.58216,-4.66536 0,-2.07092 0.53318,-3.6782 1.59955,-4.82185 1.06637,-1.14363 2.44956,-1.71545 4.14957,-1.71546 1.64591,1e-5 2.99046,0.56024 4.03366,1.68069 1.04317,1.12047 1.56477,2.69684 1.56478,4.72911 -1e-5,0.12365 -0.004,0.3091 -0.0116,0.55637 l -9.18005,0 c 0.0773,1.35229 0.45977,2.38775 1.1475,3.10638 0.68773,0.71864 1.54546,1.07796 2.5732,1.07796 0.765,0 1.41795,-0.20091 1.95887,-0.60273 0.54091,-0.40182 0.96977,-1.04318 1.2866,-1.9241 z m -6.85026,-3.37297 6.87344,0 c -0.0927,-1.03545 -0.35546,-1.81205 -0.78818,-2.32979 -0.66456,-0.80363 -1.52615,-1.20545 -2.58479,-1.20546 -0.95819,10e-6 -1.76376,0.3207 -2.41672,0.96205 -0.65296,0.64138 -1.01421,1.49911 -1.08375,2.5732 z"
             style="font-size:23.73831177px;font-style:normal;font-weight:normal;text-align:start;text-anchor:start;fill:#ffffff;font-family:Arial"
             id="path3132" />
          <path
             d="m 491.61483,335.33392 0,-12.30961 1.87774,0 0,1.75024 c 0.90409,-1.35227 2.21,-2.02841 3.91775,-2.02842 0.74181,1e-5 1.42375,0.13331 2.0458,0.39989 0.62204,0.2666 1.08761,0.61626 1.39672,1.04898 0.30908,0.43274 0.52544,0.94661 0.64909,1.5416 0.0773,0.38637 0.1159,1.06251 0.11591,2.02842 l 0,7.5689 -2.08638,0 0,-7.48776 c -10e-6,-0.85 -0.0811,-1.48557 -0.24341,-1.90672 -0.16228,-0.42113 -0.45012,-0.75727 -0.86352,-1.00841 -0.41342,-0.25113 -0.89831,-0.3767 -1.45467,-0.37671 -0.88865,10e-6 -1.65558,0.28206 -2.30081,0.84614 -0.64523,0.5641 -0.96785,1.63434 -0.96784,3.2107 l 0,6.72276 z"
             style="font-size:23.73831177px;font-style:normal;font-weight:normal;text-align:start;text-anchor:start;fill:#ffffff;font-family:Arial"
             id="path3134" />
          <path
             d="m 509.38379,333.46778 0.30136,1.84296 c -0.58728,0.12364 -1.11273,0.18546 -1.57637,0.18546 -0.75728,0 -1.34455,-0.11978 -1.76183,-0.35932 -0.41727,-0.23955 -0.71091,-0.55444 -0.88091,-0.94467 -0.17,-0.39023 -0.255,-1.21125 -0.255,-2.46308 l 0,-7.08208 -1.53001,0 0,-1.62274 1.53001,0 0,-3.04843 2.07478,-1.25182 0,4.30025 2.09797,0 0,1.62274 -2.09797,0 0,7.19799 c 0,0.59501 0.0367,0.97751 0.11012,1.14751 0.0734,0.17 0.19318,0.30523 0.35932,0.40568 0.16613,0.10046 0.40374,0.15069 0.71284,0.15068 0.23182,1e-5 0.53705,-0.027 0.91569,-0.0811 z"
             style="font-size:23.73831177px;font-style:normal;font-weight:normal;text-align:start;text-anchor:start;fill:#ffffff;font-family:Arial"
             id="path3136" />
        </g>
        <path
           inkscape:connector-curvature="0"
           style="fill:#ffe100;fill-opacity:1;fill-rule:evenodd;stroke:none"
           d="m 335.02382,145.42742 c 13.04046,0 23.66023,-10.61978 23.66023,-23.66023 l 0,0 0,-95.656029 c 0,-13.040455 -10.61977,-23.5821395 -23.66023,-23.5821395 l 0,0 -139.30641,0 c -13.04046,0 -23.58214,10.5416845 -23.58214,23.5821395 l 0,0 0,95.656029 c 0,13.04045 10.54168,23.66023 23.58214,23.66023 l 0,0 139.30641,0 z"
           id="path3049" />
        <path
           inkscape:connector-curvature="0"
           style="fill:none;stroke:#ffc000;stroke-width:5.23179913px;stroke-linecap:round;stroke-linejoin:round;stroke-opacity:1;stroke-dasharray:none"
           d="m 335.02382,145.42742 c 13.04046,0 23.66023,-10.61978 23.66023,-23.66023 l 0,0 0,-95.656029 c 0,-13.040455 -10.61977,-23.5821395 -23.66023,-23.5821395 l 0,0 -139.30641,0 c -13.04046,0 -23.58214,10.5416845 -23.58214,23.5821395 l 0,0 0,95.656029 c 0,13.04045 10.54168,23.66023 23.58214,23.66023 l 0,0 139.30641,0 z"
           id="path3051" />
        <path
           inkscape:connector-curvature="0"
           style="fill:#000000;fill-opacity:1;fill-rule:evenodd;stroke:none"
           d="m 208.67978,123.17275 c -2.18643,0.39043 -4.21668,0.62469 -6.24693,0.62469 -0.78086,0 -1.56173,0 -2.26451,-0.0781 -0.70278,-0.0781 -1.48364,-0.23426 -2.34259,-0.46852 -0.85896,-0.23426 -1.56174,-0.5466 -2.18643,-0.93703 -0.5466,-0.39044 -1.09321,-0.93704 -1.48364,-1.63982 -0.46852,-0.70278 -0.6247,-1.48365 -0.6247,-2.42069 l 0,-8.51143 c 0,-3.90433 2.96729,-5.85649 8.90187,-5.85649 1.48365,0 3.5139,0.23426 6.16884,0.70278 l 0,3.43581 c -2.42068,-0.54661 -4.45093,-0.78087 -6.09075,-0.78087 -0.70278,0 -1.24939,0 -1.63982,0 -0.46852,0.0781 -0.85895,0.15617 -1.32747,0.31235 -0.46852,0.15617 -0.85895,0.46852 -1.09321,0.78086 -0.23426,0.31235 -0.31235,0.78087 -0.31235,1.32747 l 0,8.19909 c 0,1.79599 1.56173,2.65494 4.76328,2.65494 1.40556,0 3.35772,-0.31234 5.77841,-0.85895 l 0,3.5139 z"
           id="path3053" />
        <path
           inkscape:connector-curvature="0"
           style="fill:#000000;fill-opacity:1;fill-rule:evenodd;stroke:none"
           d="m 220.93937,112.3968 -1.48365,0 c -1.24938,0 -2.10834,0.23426 -2.73303,0.54661 -0.62469,0.39043 -0.93704,1.01512 -0.93704,1.95216 l 0,8.58952 -4.29476,0 0,-14.36792 4.13859,0 0,2.49877 c 0,-0.70278 0.39043,-1.32747 1.24938,-1.95217 0.78087,-0.5466 1.63982,-0.85895 2.49877,-0.85895 l 1.56174,0 0,3.59198 z"
           id="path3055" />
        <path
           inkscape:connector-curvature="0"
           style="fill:#000000;fill-opacity:1;fill-rule:evenodd;stroke:none"
           d="m 237.49372,114.34897 0,4.21667 c 0,0.93704 -0.15618,1.71791 -0.46852,2.42068 -0.31235,0.6247 -0.70278,1.1713 -1.09322,1.56174 -0.46852,0.31234 -1.01512,0.62469 -1.7179,0.85895 -0.70278,0.15617 -1.32747,0.31234 -1.95216,0.31234 -0.54661,0.0781 -1.24939,0.0781 -2.10834,0.0781 -0.85895,0 -1.56173,0 -2.10834,-0.0781 -0.62469,0 -1.24938,-0.15617 -1.95216,-0.31234 -0.70278,-0.23426 -1.24939,-0.54661 -1.71791,-0.85895 -0.39043,-0.39044 -0.78086,-0.93704 -1.09321,-1.56174 -0.31234,-0.70277 -0.46852,-1.48364 -0.46852,-2.42068 l 0,-4.21667 c 0,-1.01513 0.15618,-1.87408 0.46852,-2.57686 0.31235,-0.70278 0.70278,-1.24938 1.1713,-1.63982 0.46852,-0.31234 1.01513,-0.62469 1.7179,-0.85895 0.70278,-0.23426 1.32748,-0.31235 1.95217,-0.39043 0.5466,0 1.24938,-0.0781 2.03025,-0.0781 0.78086,0 1.48364,0.0781 2.03025,0.0781 0.62469,0.0781 1.24938,0.15617 1.95216,0.39043 0.70278,0.23426 1.24939,0.54661 1.71791,0.85895 0.46852,0.39044 0.85895,0.93704 1.1713,1.63982 0.31234,0.70278 0.46852,1.56173 0.46852,2.57686 z m -4.37285,4.76328 0,-5.46606 c 0,-0.78087 -0.15618,-1.32747 -0.54661,-1.63982 -0.46852,-0.31235 -1.24938,-0.46852 -2.42068,-0.46852 -1.1713,0 -1.95216,0.15617 -2.3426,0.46852 -0.46852,0.31235 -0.62469,0.85895 -0.62469,1.63982 l 0,5.46606 c 0,0.70278 0.15617,1.24938 0.54661,1.56173 0.39043,0.31234 1.24938,0.46852 2.42068,0.46852 1.1713,0 2.03025,-0.15618 2.42068,-0.46852 0.39043,-0.31235 0.54661,-0.85895 0.54661,-1.56173 z"
           id="path3057" />
        <path
           inkscape:connector-curvature="0"
           style="fill:#000000;fill-opacity:1;fill-rule:evenodd;stroke:none"
           d="m 253.2672,117.86286 0,1.87408 c 0,0.70278 -0.15617,1.32747 -0.46852,1.79599 -0.23426,0.54661 -0.54661,0.93704 -1.01513,1.24938 -0.39043,0.23426 -0.93703,0.46852 -1.56173,0.6247 -0.62469,0.15617 -1.24938,0.31234 -1.87407,0.31234 -0.6247,0.0781 -1.32748,0.0781 -2.10834,0.0781 -1.56173,0 -3.43581,-0.15617 -5.70032,-0.39043 l 0,-2.88921 c 2.73303,0.39044 4.68519,0.6247 5.77841,0.6247 0.78086,0 1.48364,-0.15618 1.95216,-0.31235 0.46852,-0.15617 0.70278,-0.46852 0.70278,-0.93704 l 0,-0.93704 c 0,-0.46852 -0.15617,-0.78086 -0.39043,-1.01512 -0.31235,-0.23426 -0.85896,-0.31235 -1.63982,-0.31235 l -1.95217,0 c -1.48364,0 -2.65494,-0.31234 -3.51389,-0.93704 -0.78087,-0.62469 -1.24939,-1.48364 -1.24939,-2.65494 l 0,-1.7179 c 0,-1.32747 0.6247,-2.26451 1.87408,-2.73303 1.24939,-0.54661 3.04538,-0.78087 5.30989,-0.78087 0.93704,0 2.65494,0.0781 5.07562,0.31235 l 0,2.73303 c -3.04537,-0.23426 -4.84136,-0.31235 -5.2318,-0.31235 -1.17129,0 -1.95216,0.0781 -2.26451,0.23426 -0.31234,0.15617 -0.46851,0.46852 -0.46851,0.93704 l 0,0.78086 c 0,0.23426 0.15617,0.46852 0.39043,0.6247 0.23426,0.23426 0.62469,0.31234 1.09321,0.31234 l 1.95216,0 c 3.5139,0 5.30989,1.1713 5.30989,3.43581 z"
           id="path3059" />
        <path
           inkscape:connector-curvature="0"
           style="fill:#000000;fill-opacity:1;fill-rule:evenodd;stroke:none"
           d="m 268.80642,117.86286 0,1.87408 c 0,0.70278 -0.0781,1.32747 -0.39043,1.79599 -0.23426,0.54661 -0.62469,0.93704 -1.01512,1.24938 -0.39044,0.23426 -0.93704,0.46852 -1.56174,0.6247 -0.62469,0.15617 -1.32747,0.31234 -1.87407,0.31234 -0.6247,0.0781 -1.32747,0.0781 -2.18643,0.0781 -1.48364,0 -3.4358,-0.15617 -5.62223,-0.39043 l 0,-2.88921 c 2.73303,0.39044 4.6852,0.6247 5.70032,0.6247 0.85895,0 1.56173,-0.15618 2.03025,-0.31235 0.46852,-0.15617 0.70278,-0.46852 0.70278,-0.93704 l 0,-0.93704 c 0,-0.46852 -0.15617,-0.78086 -0.39043,-1.01512 -0.31235,-0.23426 -0.85896,-0.31235 -1.71791,-0.31235 l -1.87407,0 c -1.48365,0 -2.65495,-0.31234 -3.5139,-0.93704 -0.78087,-0.62469 -1.24938,-1.48364 -1.24938,-2.65494 l 0,-1.7179 c 0,-1.32747 0.62469,-2.26451 1.87407,-2.73303 1.24939,-0.54661 3.04538,-0.78087 5.30989,-0.78087 0.93704,0 2.65494,0.0781 5.07562,0.31235 l 0,2.73303 c -3.04537,-0.23426 -4.84136,-0.31235 -5.23179,-0.31235 -1.1713,0 -1.95217,0.0781 -2.26451,0.23426 -0.31235,0.15617 -0.46852,0.46852 -0.46852,0.93704 l 0,0.78086 c 0,0.23426 0.15617,0.46852 0.39043,0.6247 0.23426,0.23426 0.62469,0.31234 1.09321,0.31234 l 1.95216,0 c 3.5139,0 5.2318,1.1713 5.2318,3.43581 z"
           id="path3061" />
        <path
           inkscape:connector-curvature="0"
           style="fill:#000000;fill-opacity:1;fill-rule:evenodd;stroke:none"
           d="m 286.76633,113.64619 0,4.76328 c 0,1.95216 -0.5466,3.35772 -1.7179,4.13859 -1.24939,0.85895 -3.12347,1.24938 -5.70032,1.24938 -2.73303,0 -4.68519,-0.39043 -5.70032,-1.24938 -1.09321,-0.93704 -1.63982,-2.26451 -1.63982,-4.13859 l 0,-15.6954 4.37285,0 0,7.80866 c 0.23426,-0.6247 0.70278,-1.09322 1.48364,-1.32748 0.70278,-0.23426 1.71791,-0.39043 3.20155,-0.39043 1.24939,0 2.18643,0.15617 2.96729,0.31235 0.78087,0.23426 1.40556,0.5466 1.79599,1.01512 0.39044,0.39044 0.6247,0.85896 0.78087,1.40556 0.0781,0.54661 0.15617,1.24939 0.15617,2.10834 z m -4.29476,5.30988 0,-5.30988 c 0,-0.93704 -0.15617,-1.56173 -0.54661,-1.79599 -0.31234,-0.23426 -1.17129,-0.31235 -2.57685,-0.31235 -1.24939,0 -2.03025,0.0781 -2.42068,0.46852 -0.31235,0.31235 -0.54661,0.85895 -0.54661,1.63982 l 0,5.30988 c 0,0.85896 0.15617,1.40556 0.54661,1.71791 0.39043,0.31234 1.17129,0.46852 2.49877,0.46852 1.24938,0 2.03025,-0.15618 2.42068,-0.46852 0.39043,-0.31235 0.62469,-0.85895 0.62469,-1.71791 z"
           id="path3063" />
        <path
           inkscape:connector-curvature="0"
           style="fill:#000000;fill-opacity:1;fill-rule:evenodd;stroke:none"
           d="m 303.08642,123.48509 -4.21667,0 0,-1.24938 c -0.31235,0.5466 -0.78087,0.93704 -1.40556,1.1713 -0.54661,0.31234 -1.63982,0.39043 -3.27964,0.39043 -1.87407,0 -3.20154,-0.31235 -3.82624,-0.85895 -0.62469,-0.62469 -0.93704,-1.87408 -0.93704,-3.74816 0,-1.7179 0.31235,-2.8892 0.93704,-3.51389 0.70278,-0.70278 1.87408,-1.01513 3.5139,-1.01513 l 4.91945,0 0,-1.01512 c 0,-0.85895 -0.23426,-1.40556 -0.62469,-1.71791 -0.39043,-0.31234 -1.24939,-0.39043 -2.57686,-0.39043 -1.24938,0 -2.8892,0.0781 -5.07562,0.31235 l 0,-2.73303 c 1.63981,-0.15618 3.51389,-0.31235 5.54414,-0.31235 2.65494,0 4.45093,0.31235 5.46606,1.01513 1.01513,0.62469 1.56173,1.87407 1.56173,3.82624 l 0,9.8389 z m -4.29476,-3.67006 0,-2.81112 -2.96729,0 c -1.01512,0 -1.56173,0.15617 -1.79599,0.39043 -0.23426,0.15618 -0.39043,0.78087 -0.39043,1.71791 0,0.93704 0.15617,1.48364 0.39043,1.7179 0.23426,0.15617 0.85895,0.31235 1.87408,0.31235 0.46852,0 0.85895,-0.0781 1.09321,-0.0781 0.23426,0 0.54661,0 0.78087,-0.0781 0.31234,0 0.46851,-0.0781 0.5466,-0.15617 0.15617,-0.0781 0.23426,-0.23426 0.31235,-0.39043 0.0781,-0.15617 0.15617,-0.39043 0.15617,-0.62469 z"
           id="path3065" />
        <path
           inkscape:connector-curvature="0"
           style="fill:#000000;fill-opacity:1;fill-rule:evenodd;stroke:none"
           d="m 316.28305,112.3968 -1.48365,0 c -1.17129,0 -2.03025,0.23426 -2.65494,0.54661 -0.62469,0.39043 -0.85895,1.01512 -0.85895,1.95216 l 0,8.58952 -4.37285,0 0,-14.36792 4.13859,0 0,2.49877 c 0,-0.70278 0.39043,-1.32747 1.24938,-1.95217 0.78087,-0.5466 1.63982,-0.85895 2.49877,-0.85895 l 1.48365,0 0,3.59198 z"
           id="path3067" />
        <path
           inkscape:connector-curvature="0"
           style="fill:#000000;fill-opacity:1;fill-rule:evenodd;stroke:none"
           d="m 318.85991,120.28355 0,3.20154 3.4358,0 0,-3.20154 -3.4358,0 z"
           id="path3069" />
        <path
           inkscape:connector-curvature="0"
           style="fill:#000000;fill-opacity:1;fill-rule:evenodd;stroke:none"
           d="m 329.40159,106.69648 -2.73303,0 0,-2.81111 2.73303,0 0,2.81111 z m 0,16.78861 -2.73303,0 0,-14.36792 2.73303,0 0,14.36792 z"
           id="path3071" />
        <path
           inkscape:connector-curvature="0"
           style="fill:#000000;fill-opacity:1;fill-rule:evenodd;stroke:none"
           d="m 346.73681,113.95853 0,4.99754 c 0,0.93704 -0.0781,1.63982 -0.31235,2.26451 -0.23426,0.6247 -0.54661,1.09322 -0.85895,1.40556 -0.31235,0.39043 -0.85895,0.62469 -1.40556,0.78087 -0.62469,0.23426 -1.24939,0.31234 -1.79599,0.31234 -0.54661,0.0781 -1.32747,0.0781 -2.26451,0.0781 -1.1713,0 -2.10834,0 -2.81112,-0.0781 -0.62469,-0.0781 -1.32747,-0.31234 -1.95216,-0.62469 -0.70278,-0.31235 -1.1713,-0.78086 -1.40556,-1.48364 -0.31235,-0.6247 -0.46852,-1.56173 -0.46852,-2.65495 l 0,-4.99754 c 0,-0.93703 0.15617,-1.7179 0.39043,-2.42068 0.15618,-0.62469 0.46852,-1.1713 0.78087,-1.48364 0.31235,-0.39044 0.85895,-0.6247 1.48364,-0.85896 0.6247,-0.15617 1.1713,-0.23426 1.71791,-0.31234 0.5466,-0.0781 1.32747,-0.0781 2.26451,-0.0781 0.93704,0 1.7179,0 2.26451,0.0781 0.5466,0.0781 1.09321,0.15617 1.7179,0.31234 0.6247,0.23426 1.1713,0.46852 1.48365,0.85896 0.31234,0.31234 0.62469,0.85895 0.85895,1.48364 0.15617,0.70278 0.31235,1.48365 0.31235,2.42068 z m -2.73303,5.38798 0,-5.8565 c 0,-1.32747 -0.31235,-2.10833 -0.85896,-2.42068 -0.46852,-0.31234 -1.56173,-0.46852 -3.04537,-0.46852 -1.56173,0 -2.57686,0.15618 -3.04538,0.46852 -0.5466,0.31235 -0.85895,1.09321 -0.85895,2.42068 l 0,5.8565 c 0,0.62469 0.0781,1.17129 0.23426,1.48364 0.15617,0.39043 0.39043,0.70278 0.78087,0.85895 0.39043,0.15618 0.70277,0.23426 1.09321,0.31235 0.46852,0.0781 1.01512,0.0781 1.79599,0.0781 0.78086,0 1.32747,0 1.7179,-0.0781 0.46852,-0.0781 0.78087,-0.15617 1.1713,-0.31235 0.39043,-0.15617 0.62469,-0.46852 0.78087,-0.85895 0.15617,-0.31235 0.23426,-0.85895 0.23426,-1.48364 z"
           id="path3073" />
        <path
           inkscape:connector-curvature="0"
           style="fill:#000000;fill-opacity:1;fill-rule:evenodd;stroke:none"
           d="m 234.60451,21.582141 0,64.889927 64.81184,0 0,-64.889927 -64.81184,0 z"
           id="path3075" />
        <path
           inkscape:connector-curvature="0"
           style="fill:#ffe100;fill-opacity:1;fill-rule:evenodd;stroke:none"
           d="m 234.60451,35.403461 0,6.403097 15.30497,0 10.15125,10.151253 4.68519,-4.685194 -12.02533,-12.025329 -18.11608,0.156173 z"
           id="path3077" />
        <path
           inkscape:connector-curvature="0"
           style="fill:#ffe100;fill-opacity:1;fill-rule:evenodd;stroke:none"
           d="m 273.88205,56.486831 -4.60711,4.685193 11.55681,11.634897 18.5846,0 0,-6.481184 -15.69539,0 -9.83891,-9.838906 z"
           id="path3079" />
        <path
           inkscape:connector-curvature="0"
           style="fill:#ffe100;fill-opacity:1;fill-rule:evenodd;stroke:none"
           d="m 281.30027,35.247288 -30.84419,31.078449 -15.85157,0 0,6.55927 18.50652,0 31.07844,-31.078449 15.22688,0 0,-6.55927 -18.11608,0 z"
           id="path3081" />
        <path
           inkscape:connector-curvature="0"
           style="fill:none;stroke:#000000;stroke-width:3.59198141px;stroke-linecap:round;stroke-linejoin:round;stroke-opacity:1;stroke-dasharray:none"
           d="M 201.65199,148.86322 73.668127,258.34057"
           id="path3083" />
        <path
           inkscape:connector-curvature="0"
           style="fill:none;stroke:#000000;stroke-width:3.59198141px;stroke-linecap:round;stroke-linejoin:round;stroke-opacity:1;stroke-dasharray:none"
           d="M 326.74665,148.86322 447.15612,259.3557"
           id="path3085" />
        <path
           inkscape:connector-curvature="0"
           style="fill:none;stroke:#3475cd;stroke-width:5.23179913px;stroke-linecap:round;stroke-linejoin:round;stroke-opacity:1;stroke-dasharray:none"
           d="M 467.22436,245.92481 372.3492,159.24874"
           id="path3087" />
        <path
           inkscape:connector-curvature="0"
           style="fill:#3475cd;fill-opacity:1;fill-rule:evenodd;stroke:none"
           d="m 367.1174,168.85338 -8.43335,-22.09849 22.72319,6.48118 -14.28984,15.61731 z"
           id="path3089" />
        <g
           transform="matrix(0.7313537,0.68199836,-0.68199836,0.7313537,0,0)"
           style="font-size:23.73831177px;font-style:normal;font-weight:normal;text-align:start;text-anchor:start;fill:#3475cd;font-family:Arial"
           id="text3091">
          <path
             d="m 393.53735,-149.30923 0,-16.99237 7.53413,0 c 1.51455,2e-5 2.66591,0.15263 3.45411,0.45784 0.78817,0.30525 1.41795,0.84423 1.88933,1.61694 0.47135,0.77275 0.70703,1.62662 0.70705,2.56161 -2e-5,1.20547 -0.39024,2.22161 -1.17069,3.04842 -0.78047,0.82684 -1.98593,1.35229 -3.61638,1.57638 0.59499,0.28591 1.04704,0.56796 1.35614,0.84614 0.65681,0.60273 1.27886,1.35615 1.86615,2.26024 l 2.9557,4.6248 -2.8282,0 -2.24865,-3.53525 c -0.65683,-1.02 -1.19774,-1.80046 -1.62274,-2.34138 -0.42501,-0.5409 -0.80558,-0.91954 -1.14171,-1.13591 -0.33614,-0.21636 -0.67808,-0.36704 -1.0258,-0.45205 -0.25501,-0.0541 -0.67228,-0.0811 -1.25182,-0.0811 l -2.60797,0 0,7.54573 z m 2.24865,-9.49301 4.83343,0 c 1.02773,1e-5 1.83137,-0.10624 2.41093,-0.31875 0.57953,-0.21249 1.01999,-0.5525 1.32137,-1.02001 0.30135,-0.46749 0.45203,-0.97556 0.45205,-1.52421 -2e-5,-0.80363 -0.29172,-1.46431 -0.87512,-1.98206 -0.58343,-0.51771 -1.50491,-0.77658 -2.76445,-0.77659 l -5.37821,0 z"
             style="font-size:23.73831177px;font-style:normal;font-weight:normal;text-align:start;text-anchor:start;fill:#3475cd;font-family:Arial"
             id="path3091" />
        </g>
        <g
           transform="matrix(0.7313537,0.68199836,-0.68199836,0.7313537,0,0)"
           style="font-size:23.73831177px;font-style:normal;font-weight:normal;text-align:start;text-anchor:start;fill:#3475cd;font-family:Arial"
           id="text3093">
          <path
             d="m 418.46877,-153.57047 2.15593,0.2666 c -0.34002,1.25955 -0.96979,2.23706 -1.88933,2.93251 -0.91956,0.69546 -2.09411,1.04319 -3.52366,1.04319 -1.80047,0 -3.22809,-0.55443 -4.28286,-1.6633 -1.05478,-1.10887 -1.58217,-2.66399 -1.58217,-4.66537 0,-2.07091 0.53318,-3.67819 1.59955,-4.82185 1.06637,-1.14363 2.44956,-1.71545 4.14957,-1.71546 1.64591,1e-5 2.99046,0.56024 4.03366,1.68069 1.04318,1.12047 1.56477,2.69684 1.56478,4.72912 -10e-6,0.12364 -0.004,0.3091 -0.0116,0.55636 l -9.18005,0 c 0.0773,1.35229 0.45977,2.38775 1.14751,3.10639 0.68772,0.71864 1.54545,1.07796 2.57319,1.07796 0.765,0 1.41796,-0.20091 1.95888,-0.60273 0.5409,-0.40182 0.96976,-1.04319 1.28659,-1.92411 z m -6.85026,-3.37297 6.87345,0 c -0.0927,-1.03545 -0.35547,-1.81205 -0.78819,-2.32978 -0.66456,-0.80364 -1.52615,-1.20546 -2.58479,-1.20547 -0.95819,1e-5 -1.76376,0.3207 -2.41671,0.96205 -0.65297,0.64138 -1.01422,1.49911 -1.08376,2.5732 z"
             style="font-size:23.73831177px;font-style:normal;font-weight:normal;text-align:start;text-anchor:start;fill:#3475cd;font-family:Arial"
             id="path3088" />
        </g>
        <g
           transform="matrix(0.7313537,0.68199836,-0.68199836,0.7313537,0,0)"
           style="font-size:23.73831177px;font-style:normal;font-weight:normal;text-align:start;text-anchor:start;fill:#3475cd;font-family:Arial"
           id="text3095">
          <path
             d="m 422.93411,-149.00676 2.02842,0.30137 c 0.085,0.62591 0.32068,1.08182 0.70705,1.36773 0.51773,0.38636 1.22477,0.57955 2.12115,0.57955 0.96591,0 1.71159,-0.19319 2.23706,-0.57955 0.52544,-0.38637 0.8809,-0.92728 1.06636,-1.62273 0.10818,-0.42501 0.15841,-1.31751 0.15069,-2.67752 -0.91183,1.0741 -2.04775,1.61115 -3.40775,1.61115 -1.69228,0 -3.00206,-0.61046 -3.92934,-1.83138 -0.92728,-1.22091 -1.39092,-2.68524 -1.39091,-4.39298 -10e-6,-1.17454 0.2125,-2.2583 0.6375,-3.25126 0.425,-0.99295 1.04125,-1.75989 1.84876,-2.30081 0.8075,-0.5409 1.75603,-0.81136 2.84558,-0.81137 1.45273,1e-5 2.65046,0.58729 3.5932,1.76183 l 0,-1.48365 1.92411,0 0,10.64052 c -2e-5,1.91637 -0.19513,3.27444 -0.58535,4.07422 -0.39024,0.79978 -1.00842,1.43148 -1.85455,1.89513 -0.84615,0.46363 -1.88741,0.69545 -3.12377,0.69546 -1.4682,-1e-5 -2.65434,-0.33035 -3.55843,-0.99103 -0.9041,-0.66069 -1.34069,-1.65558 -1.30978,-2.98468 z m 1.72706,-7.39504 c -1e-5,1.61501 0.32068,2.79343 0.96205,3.53525 0.64136,0.74182 1.445,1.11273 2.41092,1.11273 0.95818,0 1.76182,-0.36898 2.41092,-1.10694 0.64909,-0.73795 0.97363,-1.89512 0.97364,-3.47149 -10e-6,-1.50682 -0.33421,-2.64274 -1.00262,-3.40775 -0.66842,-0.76499 -1.47399,-1.14749 -2.41671,-1.14751 -0.92729,2e-5 -1.71547,0.37672 -2.36456,1.13012 -0.6491,0.75343 -0.97365,1.87195 -0.97364,3.35559 z"
             style="font-size:23.73831177px;font-style:normal;font-weight:normal;text-align:start;text-anchor:start;fill:#3475cd;font-family:Arial"
             id="path3084" />
        </g>
        <g
           transform="matrix(0.7313537,0.68199836,-0.68199836,0.7313537,0,0)"
           style="font-size:23.73831177px;font-style:normal;font-weight:normal;text-align:start;text-anchor:start;fill:#3475cd;font-family:Arial"
           id="text3097">
          <path
             d="m 436.60271,-165.04024 0,-2.39933 2.08637,0 0,2.39933 z m 0,14.59304 0,-12.30962 2.08637,0 0,12.30962 z"
             style="font-size:23.73831177px;font-style:normal;font-weight:normal;text-align:start;text-anchor:start;fill:#3475cd;font-family:Arial"
             id="path3080" />
        </g>
        <g
           transform="matrix(0.7313537,0.68199836,-0.68199836,0.7313537,0,0)"
           style="font-size:23.73831177px;font-style:normal;font-weight:normal;text-align:start;text-anchor:start;fill:#3475cd;font-family:Arial"
           id="text3099">
          <path
             d="m 441.05402,-153.93655 2.0632,-0.32454 c 0.1159,0.82682 0.43852,1.46046 0.96784,1.90092 0.52932,0.44046 1.26921,0.66068 2.21967,0.66068 0.95818,0 1.6691,-0.19511 2.13274,-0.58534 0.46363,-0.39023 0.69545,-0.84807 0.69546,-1.37353 -10e-6,-0.47136 -0.20478,-0.84228 -0.61432,-1.11274 -0.28592,-0.18545 -0.99683,-0.42113 -2.13274,-0.70704 -1.53001,-0.38636 -2.59059,-0.72057 -3.18172,-1.00262 -0.59114,-0.28204 -1.03933,-0.67227 -1.34455,-1.17069 -0.30523,-0.49841 -0.45785,-1.04898 -0.45785,-1.65172 0,-0.54863 0.12557,-1.0567 0.37671,-1.52421 0.25113,-0.46749 0.59307,-0.85579 1.0258,-1.16489 0.32454,-0.23954 0.76693,-0.44238 1.32717,-0.60853 0.56022,-0.16612 1.16102,-0.24919 1.80239,-0.2492 0.96591,1e-5 1.81398,0.1391 2.54422,0.41727 0.73022,0.2782 1.2692,0.6549 1.61694,1.13012 0.34772,0.47524 0.58727,1.11081 0.71864,1.90672 l -2.04001,0.27818 c -0.0927,-0.63363 -0.36126,-1.12818 -0.80557,-1.48364 -0.44433,-0.35545 -1.07217,-0.53318 -1.88354,-0.53319 -0.95819,10e-6 -1.64205,0.15842 -2.0516,0.47523 -0.40955,0.31683 -0.61432,0.68774 -0.61432,1.11273 0,0.27047 0.085,0.51388 0.255,0.73024 0.17,0.2241 0.43659,0.40955 0.79978,0.55636 0.20863,0.0773 0.82295,0.25501 1.84296,0.53319 1.47591,0.3941 2.50558,0.71671 3.089,0.96784 0.5834,0.25115 1.04124,0.61626 1.37353,1.09535 0.33226,0.4791 0.4984,1.0741 0.49841,1.78501 -1e-5,0.69546 -0.20285,1.35035 -0.60853,1.96467 -0.40569,0.61432 -0.99103,1.08955 -1.75603,1.42569 -0.76501,0.33614 -1.63047,0.50421 -2.59638,0.50421 -1.59955,0 -2.81854,-0.33228 -3.65695,-0.99683 -0.83841,-0.66455 -1.37353,-1.64978 -1.60535,-2.9557 z"
             style="font-size:23.73831177px;font-style:normal;font-weight:normal;text-align:start;text-anchor:start;fill:#3475cd;font-family:Arial"
             id="path3076" />
        </g>
        <g
           transform="matrix(0.7313537,0.68199836,-0.68199836,0.7313537,0,0)"
           style="font-size:23.73831177px;font-style:normal;font-weight:normal;text-align:start;text-anchor:start;fill:#3475cd;font-family:Arial"
           id="text3101">
          <path
             d="m 457.95249,-152.61046 0.30137,1.84297 c -0.58728,0.12364 -1.11274,0.18545 -1.57637,0.18546 -0.75729,-1e-5 -1.34456,-0.11978 -1.76183,-0.35933 -0.41728,-0.23954 -0.71092,-0.55443 -0.88092,-0.94466 -0.17,-0.39023 -0.255,-1.21125 -0.255,-2.46308 l 0,-7.08209 -1.53001,0 0,-1.62273 1.53001,0 0,-3.04843 2.07479,-1.25182 0,4.30025 2.09796,0 0,1.62273 -2.09796,0 0,7.198 c -1e-5,0.595 0.0367,0.97751 0.11011,1.14751 0.0734,0.17 0.19318,0.30523 0.35932,0.40568 0.16613,0.10046 0.40375,0.15068 0.71285,0.15068 0.23181,0 0.53704,-0.027 0.91568,-0.0811 z"
             style="font-size:23.73831177px;font-style:normal;font-weight:normal;text-align:start;text-anchor:start;fill:#3475cd;font-family:Arial"
             id="path3072" />
        </g>
        <g
           transform="matrix(0.7313537,0.68199836,-0.68199836,0.7313537,0,0)"
           style="font-size:23.73831177px;font-style:normal;font-weight:normal;text-align:start;text-anchor:start;fill:#3475cd;font-family:Arial"
           id="text3103">
          <path
             d="m 468.88714,-154.46176 2.15592,0.26659 c -0.34001,1.25955 -0.96979,2.23706 -1.88933,2.93252 -0.91956,0.69545 -2.09411,1.04318 -3.52365,1.04318 -1.80047,0 -3.22809,-0.55443 -4.28287,-1.6633 -1.05478,-1.10887 -1.58217,-2.66399 -1.58217,-4.66537 0,-2.07091 0.53319,-3.67819 1.59956,-4.82184 1.06636,-1.14363 2.44955,-1.71545 4.14957,-1.71547 1.64591,2e-5 2.99046,0.56025 4.03366,1.68069 1.04317,1.12048 1.56476,2.69685 1.56478,4.72912 -2e-5,0.12364 -0.004,0.3091 -0.0116,0.55637 l -9.18005,0 c 0.0773,1.35228 0.45977,2.38774 1.1475,3.10638 0.68773,0.71864 1.54546,1.07796 2.5732,1.07796 0.76499,0 1.41795,-0.20091 1.95887,-0.60273 0.5409,-0.40182 0.96977,-1.04319 1.2866,-1.9241 z m -6.85027,-3.37298 6.87345,0 c -0.0927,-1.03545 -0.35546,-1.81204 -0.78818,-2.32978 -0.66456,-0.80363 -1.52616,-1.20545 -2.58479,-1.20546 -0.95819,1e-5 -1.76377,0.32069 -2.41672,0.96205 -0.65296,0.64137 -1.01421,1.49911 -1.08376,2.57319 z"
             style="font-size:23.73831177px;font-style:normal;font-weight:normal;text-align:start;text-anchor:start;fill:#3475cd;font-family:Arial"
             id="path3068" />
        </g>
        <g
           transform="matrix(0.7313537,0.68199836,-0.68199836,0.7313537,0,0)"
           style="font-size:23.73831177px;font-style:normal;font-weight:normal;text-align:start;text-anchor:start;fill:#3475cd;font-family:Arial"
           id="text3105">
          <path
             d="m 472.79807,-150.06601 0,-12.30961 1.87774,0 0,1.86614 c 0.47909,-0.87317 0.92147,-1.44886 1.32716,-1.72705 0.40568,-0.27817 0.85193,-0.41726 1.33876,-0.41728 0.70318,2e-5 1.41796,0.22411 2.14433,0.67228 l -0.71864,1.93569 c -0.51001,-0.30135 -1.02001,-0.45203 -1.53001,-0.45204 -0.45592,1e-5 -0.86546,0.13717 -1.22864,0.41147 -0.36319,0.27433 -0.62205,0.6549 -0.7766,1.14172 -0.23182,0.74183 -0.34773,1.55319 -0.34773,2.4341 l 0,6.44458 z"
             style="font-size:23.73831177px;font-style:normal;font-weight:normal;text-align:start;text-anchor:start;fill:#3475cd;font-family:Arial"
             id="path3064" />
        </g>
      </g>
    </g>
  </g>
</svg>
