<?xml version="1.0" encoding="UTF-8" standalone="no"?>
<!-- Created with Inkscape (http://www.inkscape.org/) -->

<svg
   xmlns:dc="http://purl.org/dc/elements/1.1/"
   xmlns:cc="http://creativecommons.org/ns#"
   xmlns:rdf="http://www.w3.org/1999/02/22-rdf-syntax-ns#"
   xmlns:svg="http://www.w3.org/2000/svg"
   xmlns="http://www.w3.org/2000/svg"
   xmlns:sodipodi="http://sodipodi.sourceforge.net/DTD/sodipodi-0.dtd"
   xmlns:inkscape="http://www.inkscape.org/namespaces/inkscape"
   width="522.53125"
   height="378.8125"
   id="svg2"
   version="1.1"
   inkscape:version="0.48.4 r9939"
   sodipodi:docname="rpc_register.svg">
  <defs
     id="defs4" />
  <sodipodi:namedview
     id="base"
     pagecolor="#ffffff"
     bordercolor="#666666"
     borderopacity="1.0"
     inkscape:pageopacity="0.0"
     inkscape:pageshadow="2"
     inkscape:zoom="0.98994949"
     inkscape:cx="405.42694"
     inkscape:cy="-11.629153"
     inkscape:document-units="px"
     inkscape:current-layer="g3057"
     showgrid="false"
     fit-margin-top="4"
     fit-margin-left="4"
     fit-margin-right="4"
     fit-margin-bottom="4"
     inkscape:window-width="1024"
     inkscape:window-height="1258"
     inkscape:window-x="-8"
     inkscape:window-y="-8"
     inkscape:window-maximized="1" />
  <metadata
     id="metadata7">
    <rdf:RDF>
      <cc:Work
         rdf:about="">
        <dc:format>image/svg+xml</dc:format>
        <dc:type
           rdf:resource="http://purl.org/dc/dcmitype/StillImage" />
        <dc:title />
      </cc:Work>
    </rdf:RDF>
  </metadata>
  <g
     inkscape:label="Ebene 1"
     inkscape:groupmode="layer"
     id="layer1"
     transform="translate(-1.5863271,-8.67259)">
    <g
       id="g2989"
       transform="translate(3.6488271,10.76634)">
      <g
         id="g3057"
         transform="translate(-0.590546,1.4796385)">
        <flowRoot
           xml:space="preserve"
           id="flowRoot3178"
           style="fill:black;stroke:none;stroke-opacity:1;stroke-width:1px;stroke-linejoin:miter;stroke-linecap:butt;fill-opacity:1;font-family:MS UI Gothic;font-style:normal;font-weight:normal;font-size:24px;line-height:125%;letter-spacing:0px;word-spacing:0px;-inkscape-font-specification:MS UI Gothic;font-stretch:normal;font-variant:normal"><flowRegion
             id="flowRegion3180"><rect
               id="rect3182"
               width="687.91388"
               height="583.86816"
               x="-6.0609155"
               y="-110.10133" /></flowRegion><flowPara
             id="flowPara3184"></flowPara></flowRoot>        <g
           id="g3190"
           transform="translate(-0.223353,-2.0203076)">
          <path
             id="path3192"
             d="m 118.06687,370.67688 c 13.04046,0 23.58214,-10.54169 23.58214,-23.58214 l 0,0 0,-63.09394 c 0,-13.04045 -10.54168,-23.66023 -23.58214,-23.66023 l 0,0 -90.736576,0 c -13.040454,0 -23.5821394,10.61978 -23.5821394,23.66023 l 0,0 0,63.09394 c 0,13.04045 10.5416854,23.58214 23.5821394,23.58214 l 0,0 90.736576,0 z"
             style="fill:#595959;fill-opacity:1;fill-rule:evenodd;stroke:none"
             inkscape:connector-curvature="0" />
          <path
             id="path3194"
             d="m 118.06687,370.67688 c 13.04046,0 23.58214,-10.54169 23.58214,-23.58214 l 0,0 0,-63.09394 c 0,-13.04045 -10.54168,-23.66023 -23.58214,-23.66023 l 0,0 -90.736576,0 c -13.040454,0 -23.5821394,10.61978 -23.5821394,23.66023 l 0,0 0,63.09394 c 0,13.04045 10.5416854,23.58214 23.5821394,23.58214 l 0,0 90.736576,0 z"
             style="fill:none;stroke:#000000;stroke-width:3.59198141px;stroke-linecap:round;stroke-linejoin:round;stroke-opacity:1;stroke-dasharray:none"
             inkscape:connector-curvature="0" />
          <text
             id="text3196"
             style="font-size:23.73831177px;font-style:normal;font-weight:normal;text-align:start;text-anchor:start;fill:#ffffff;font-family:Arial"
             y="308.59808"
             x="52.474167"
             xml:space="preserve">App </text>
          <text
             id="text3198"
             style="font-size:23.73831177px;font-style:normal;font-weight:normal;text-align:start;text-anchor:start;fill:#ffffff;font-family:Arial"
             y="336.08453"
             x="12.493849"
             xml:space="preserve">Component</text>
          <path
             id="path3200"
             d="m 491.08634,370.91114 c 13.04046,0 23.58214,-10.54169 23.58214,-23.58214 l 0,0 0,-62.31307 c 0,-13.04046 -10.54168,-23.66023 -23.58214,-23.66023 l -89.72145,0 c -13.04045,0 -23.58214,10.61977 -23.58214,23.66023 l 0,0 0,62.31307 c 0,13.04045 10.54169,23.58214 23.58214,23.58214 l 89.72145,0 z"
             style="fill:#595959;fill-opacity:1;fill-rule:evenodd;stroke:none"
             inkscape:connector-curvature="0" />
          <path
             id="path3202"
             d="m 491.08634,370.91114 c 13.04046,0 23.58214,-10.54169 23.58214,-23.58214 l 0,0 0,-62.31307 c 0,-13.04046 -10.54168,-23.66023 -23.58214,-23.66023 l -89.72145,0 c -13.04045,0 -23.58214,10.61977 -23.58214,23.66023 l 0,0 0,62.31307 c 0,13.04045 10.54169,23.58214 23.58214,23.58214 l 89.72145,0 z"
             style="fill:none;stroke:#000000;stroke-width:3.59198141px;stroke-linecap:round;stroke-linejoin:round;stroke-opacity:1;stroke-dasharray:none"
             inkscape:connector-curvature="0" />
          <text
             id="text3204"
             style="font-size:23.73831177px;font-style:normal;font-weight:normal;text-align:start;text-anchor:start;fill:#ffffff;font-family:Arial"
             y="308.59808"
             x="426.04025"
             xml:space="preserve">App </text>
          <text
             id="text3206"
             style="font-size:23.73831177px;font-style:normal;font-weight:normal;text-align:start;text-anchor:start;fill:#ffffff;font-family:Arial"
             y="337.33392"
             x="386.05994"
             xml:space="preserve">Component</text>
          <path
             id="path3208"
             d="m 334.05428,147.42742 c 13.04046,0 23.66023,-10.61978 23.66023,-23.66023 l 0,0 0,-95.65603 c 0,-13.040455 -10.61977,-23.5821398 -23.66023,-23.5821398 l 0,0 -139.30641,0 c -13.04046,0 -23.58214,10.5416848 -23.58214,23.5821398 l 0,0 0,95.65603 c 0,13.04045 10.54168,23.66023 23.58214,23.66023 l 0,0 139.30641,0 z"
             style="fill:#ffe100;fill-opacity:1;fill-rule:evenodd;stroke:none"
             inkscape:connector-curvature="0" />
          <path
             id="path3210"
             d="m 334.05428,147.42742 c 13.04046,0 23.66023,-10.61978 23.66023,-23.66023 l 0,0 0,-95.65603 c 0,-13.040455 -10.61977,-23.5821398 -23.66023,-23.5821398 l 0,0 -139.30641,0 c -13.04046,0 -23.58214,10.5416848 -23.58214,23.5821398 l 0,0 0,95.65603 c 0,13.04045 10.54168,23.66023 23.58214,23.66023 l 0,0 139.30641,0 z"
             style="fill:none;stroke:#ffc000;stroke-width:5.23179913px;stroke-linecap:round;stroke-linejoin:round;stroke-opacity:1;stroke-dasharray:none"
             inkscape:connector-curvature="0" />
          <path
             id="path3212"
             d="m 207.71024,125.17275 c -2.18643,0.39043 -4.21668,0.62469 -6.24693,0.62469 -0.78086,0 -1.56173,0 -2.26451,-0.0781 -0.70278,-0.0781 -1.48364,-0.23426 -2.34259,-0.46852 -0.85896,-0.23426 -1.56174,-0.5466 -2.18643,-0.93703 -0.5466,-0.39044 -1.09321,-0.93704 -1.48364,-1.63982 -0.46852,-0.70278 -0.6247,-1.48365 -0.6247,-2.42069 l 0,-8.51143 c 0,-3.90433 2.96729,-5.85649 8.90187,-5.85649 1.48365,0 3.5139,0.23426 6.16884,0.70278 l 0,3.43581 c -2.42068,-0.54661 -4.45093,-0.78087 -6.09075,-0.78087 -0.70278,0 -1.24939,0 -1.63982,0 -0.46852,0.0781 -0.85895,0.15617 -1.32747,0.31235 -0.46852,0.15617 -0.85895,0.46852 -1.09321,0.78086 -0.23426,0.31235 -0.31235,0.78087 -0.31235,1.32747 l 0,8.19909 c 0,1.79599 1.56173,2.65494 4.76328,2.65494 1.40556,0 3.35772,-0.31234 5.77841,-0.85895 l 0,3.5139 z"
             style="fill:#000000;fill-opacity:1;fill-rule:evenodd;stroke:none"
             inkscape:connector-curvature="0" />
          <path
             id="path3214"
             d="m 219.96983,114.3968 -1.48365,0 c -1.24938,0 -2.10834,0.23426 -2.73303,0.54661 -0.62469,0.39043 -0.93704,1.01512 -0.93704,1.95216 l 0,8.58952 -4.29476,0 0,-14.36792 4.13859,0 0,2.49877 c 0,-0.70278 0.39043,-1.32747 1.24938,-1.95217 0.78087,-0.5466 1.63982,-0.85895 2.49877,-0.85895 l 1.56174,0 0,3.59198 z"
             style="fill:#000000;fill-opacity:1;fill-rule:evenodd;stroke:none"
             inkscape:connector-curvature="0" />
          <path
             id="path3216"
             d="m 236.52418,116.34897 0,4.21667 c 0,0.93704 -0.15618,1.71791 -0.46852,2.42068 -0.31235,0.6247 -0.70278,1.1713 -1.09322,1.56174 -0.46852,0.31234 -1.01512,0.62469 -1.7179,0.85895 -0.70278,0.15617 -1.32747,0.31234 -1.95216,0.31234 -0.54661,0.0781 -1.24939,0.0781 -2.10834,0.0781 -0.85895,0 -1.56173,0 -2.10834,-0.0781 -0.62469,0 -1.24938,-0.15617 -1.95216,-0.31234 -0.70278,-0.23426 -1.24939,-0.54661 -1.71791,-0.85895 -0.39043,-0.39044 -0.78086,-0.93704 -1.09321,-1.56174 -0.31234,-0.70277 -0.46852,-1.48364 -0.46852,-2.42068 l 0,-4.21667 c 0,-1.01513 0.15618,-1.87408 0.46852,-2.57686 0.31235,-0.70278 0.70278,-1.24938 1.1713,-1.63982 0.46852,-0.31234 1.01513,-0.62469 1.7179,-0.85895 0.70278,-0.23426 1.32748,-0.31235 1.95217,-0.39043 0.5466,0 1.24938,-0.0781 2.03025,-0.0781 0.78086,0 1.48364,0.0781 2.03025,0.0781 0.62469,0.0781 1.24938,0.15617 1.95216,0.39043 0.70278,0.23426 1.24939,0.54661 1.71791,0.85895 0.46852,0.39044 0.85895,0.93704 1.1713,1.63982 0.31234,0.70278 0.46852,1.56173 0.46852,2.57686 z m -4.37285,4.76328 0,-5.46606 c 0,-0.78087 -0.15618,-1.32747 -0.54661,-1.63982 -0.46852,-0.31235 -1.24938,-0.46852 -2.42068,-0.46852 -1.1713,0 -1.95216,0.15617 -2.3426,0.46852 -0.46852,0.31235 -0.62469,0.85895 -0.62469,1.63982 l 0,5.46606 c 0,0.70278 0.15617,1.24938 0.54661,1.56173 0.39043,0.31234 1.24938,0.46852 2.42068,0.46852 1.1713,0 2.03025,-0.15618 2.42068,-0.46852 0.39043,-0.31235 0.54661,-0.85895 0.54661,-1.56173 z"
             style="fill:#000000;fill-opacity:1;fill-rule:evenodd;stroke:none"
             inkscape:connector-curvature="0" />
          <path
             id="path3218"
             d="m 252.29766,119.86286 0,1.87408 c 0,0.70278 -0.15617,1.32747 -0.46852,1.79599 -0.23426,0.54661 -0.54661,0.93704 -1.01513,1.24938 -0.39043,0.23426 -0.93703,0.46852 -1.56173,0.6247 -0.62469,0.15617 -1.24938,0.31234 -1.87407,0.31234 -0.6247,0.0781 -1.32748,0.0781 -2.10834,0.0781 -1.56173,0 -3.43581,-0.15617 -5.70032,-0.39043 l 0,-2.88921 c 2.73303,0.39044 4.68519,0.6247 5.77841,0.6247 0.78086,0 1.48364,-0.15618 1.95216,-0.31235 0.46852,-0.15617 0.70278,-0.46852 0.70278,-0.93704 l 0,-0.93704 c 0,-0.46852 -0.15617,-0.78086 -0.39043,-1.01512 -0.31235,-0.23426 -0.85896,-0.31235 -1.63982,-0.31235 l -1.95217,0 c -1.48364,0 -2.65494,-0.31234 -3.51389,-0.93704 -0.78087,-0.62469 -1.24939,-1.48364 -1.24939,-2.65494 l 0,-1.7179 c 0,-1.32747 0.6247,-2.26451 1.87408,-2.73303 1.24939,-0.54661 3.04538,-0.78087 5.30989,-0.78087 0.93704,0 2.65494,0.0781 5.07562,0.31235 l 0,2.73303 c -3.04537,-0.23426 -4.84136,-0.31235 -5.2318,-0.31235 -1.17129,0 -1.95216,0.0781 -2.26451,0.23426 -0.31234,0.15617 -0.46851,0.46852 -0.46851,0.93704 l 0,0.78086 c 0,0.23426 0.15617,0.46852 0.39043,0.6247 0.23426,0.23426 0.62469,0.31234 1.09321,0.31234 l 1.95216,0 c 3.5139,0 5.30989,1.1713 5.30989,3.43581 z"
             style="fill:#000000;fill-opacity:1;fill-rule:evenodd;stroke:none"
             inkscape:connector-curvature="0" />
          <path
             id="path3220"
             d="m 267.83688,119.86286 0,1.87408 c 0,0.70278 -0.0781,1.32747 -0.39043,1.79599 -0.23426,0.54661 -0.62469,0.93704 -1.01512,1.24938 -0.39044,0.23426 -0.93704,0.46852 -1.56174,0.6247 -0.62469,0.15617 -1.32747,0.31234 -1.87407,0.31234 -0.6247,0.0781 -1.32747,0.0781 -2.18643,0.0781 -1.48364,0 -3.4358,-0.15617 -5.62223,-0.39043 l 0,-2.88921 c 2.73303,0.39044 4.6852,0.6247 5.70032,0.6247 0.85895,0 1.56173,-0.15618 2.03025,-0.31235 0.46852,-0.15617 0.70278,-0.46852 0.70278,-0.93704 l 0,-0.93704 c 0,-0.46852 -0.15617,-0.78086 -0.39043,-1.01512 -0.31235,-0.23426 -0.85896,-0.31235 -1.71791,-0.31235 l -1.87407,0 c -1.48365,0 -2.65495,-0.31234 -3.5139,-0.93704 -0.78087,-0.62469 -1.24938,-1.48364 -1.24938,-2.65494 l 0,-1.7179 c 0,-1.32747 0.62469,-2.26451 1.87407,-2.73303 1.24939,-0.54661 3.04538,-0.78087 5.30989,-0.78087 0.93704,0 2.65494,0.0781 5.07562,0.31235 l 0,2.73303 c -3.04537,-0.23426 -4.84136,-0.31235 -5.23179,-0.31235 -1.1713,0 -1.95217,0.0781 -2.26451,0.23426 -0.31235,0.15617 -0.46852,0.46852 -0.46852,0.93704 l 0,0.78086 c 0,0.23426 0.15617,0.46852 0.39043,0.6247 0.23426,0.23426 0.62469,0.31234 1.09321,0.31234 l 1.95216,0 c 3.5139,0 5.2318,1.1713 5.2318,3.43581 z"
             style="fill:#000000;fill-opacity:1;fill-rule:evenodd;stroke:none"
             inkscape:connector-curvature="0" />
          <path
             id="path3222"
             d="m 285.79679,115.64619 0,4.76328 c 0,1.95216 -0.5466,3.35772 -1.7179,4.13859 -1.24939,0.85895 -3.12347,1.24938 -5.70032,1.24938 -2.73303,0 -4.68519,-0.39043 -5.70032,-1.24938 -1.09321,-0.93704 -1.63982,-2.26451 -1.63982,-4.13859 l 0,-15.6954 4.37285,0 0,7.80866 c 0.23426,-0.6247 0.70278,-1.09322 1.48364,-1.32748 0.70278,-0.23426 1.71791,-0.39043 3.20155,-0.39043 1.24939,0 2.18643,0.15617 2.96729,0.31235 0.78087,0.23426 1.40556,0.5466 1.79599,1.01512 0.39044,0.39044 0.6247,0.85896 0.78087,1.40556 0.0781,0.54661 0.15617,1.24939 0.15617,2.10834 z m -4.29476,5.30988 0,-5.30988 c 0,-0.93704 -0.15617,-1.56173 -0.54661,-1.79599 -0.31234,-0.23426 -1.17129,-0.31235 -2.57685,-0.31235 -1.24939,0 -2.03025,0.0781 -2.42068,0.46852 -0.31235,0.31235 -0.54661,0.85895 -0.54661,1.63982 l 0,5.30988 c 0,0.85896 0.15617,1.40556 0.54661,1.71791 0.39043,0.31234 1.17129,0.46852 2.49877,0.46852 1.24938,0 2.03025,-0.15618 2.42068,-0.46852 0.39043,-0.31235 0.62469,-0.85895 0.62469,-1.71791 z"
             style="fill:#000000;fill-opacity:1;fill-rule:evenodd;stroke:none"
             inkscape:connector-curvature="0" />
          <path
             id="path3224"
             d="m 302.11688,125.48509 -4.21667,0 0,-1.24938 c -0.31235,0.5466 -0.78087,0.93704 -1.40556,1.1713 -0.54661,0.31234 -1.63982,0.39043 -3.27964,0.39043 -1.87407,0 -3.20154,-0.31235 -3.82624,-0.85895 -0.62469,-0.62469 -0.93704,-1.87408 -0.93704,-3.74816 0,-1.7179 0.31235,-2.8892 0.93704,-3.51389 0.70278,-0.70278 1.87408,-1.01513 3.5139,-1.01513 l 4.91945,0 0,-1.01512 c 0,-0.85895 -0.23426,-1.40556 -0.62469,-1.71791 -0.39043,-0.31234 -1.24939,-0.39043 -2.57686,-0.39043 -1.24938,0 -2.8892,0.0781 -5.07562,0.31235 l 0,-2.73303 c 1.63981,-0.15618 3.51389,-0.31235 5.54414,-0.31235 2.65494,0 4.45093,0.31235 5.46606,1.01513 1.01513,0.62469 1.56173,1.87407 1.56173,3.82624 l 0,9.8389 z m -4.29476,-3.67006 0,-2.81112 -2.96729,0 c -1.01512,0 -1.56173,0.15617 -1.79599,0.39043 -0.23426,0.15618 -0.39043,0.78087 -0.39043,1.71791 0,0.93704 0.15617,1.48364 0.39043,1.7179 0.23426,0.15617 0.85895,0.31235 1.87408,0.31235 0.46852,0 0.85895,-0.0781 1.09321,-0.0781 0.23426,0 0.54661,0 0.78087,-0.0781 0.31234,0 0.46851,-0.0781 0.5466,-0.15617 0.15617,-0.0781 0.23426,-0.23426 0.31235,-0.39043 0.0781,-0.15617 0.15617,-0.39043 0.15617,-0.62469 z"
             style="fill:#000000;fill-opacity:1;fill-rule:evenodd;stroke:none"
             inkscape:connector-curvature="0" />
          <path
             id="path3226"
             d="m 315.31351,114.3968 -1.48365,0 c -1.17129,0 -2.03025,0.23426 -2.65494,0.54661 -0.62469,0.39043 -0.85895,1.01512 -0.85895,1.95216 l 0,8.58952 -4.37285,0 0,-14.36792 4.13859,0 0,2.49877 c 0,-0.70278 0.39043,-1.32747 1.24938,-1.95217 0.78087,-0.5466 1.63982,-0.85895 2.49877,-0.85895 l 1.48365,0 0,3.59198 z"
             style="fill:#000000;fill-opacity:1;fill-rule:evenodd;stroke:none"
             inkscape:connector-curvature="0" />
          <path
             id="path3228"
             d="m 317.89037,122.28355 0,3.20154 3.4358,0 0,-3.20154 -3.4358,0 z"
             style="fill:#000000;fill-opacity:1;fill-rule:evenodd;stroke:none"
             inkscape:connector-curvature="0" />
          <path
             id="path3230"
             d="m 328.43205,108.69648 -2.73303,0 0,-2.81111 2.73303,0 0,2.81111 z m 0,16.78861 -2.73303,0 0,-14.36792 2.73303,0 0,14.36792 z"
             style="fill:#000000;fill-opacity:1;fill-rule:evenodd;stroke:none"
             inkscape:connector-curvature="0" />
          <path
             id="path3232"
             d="m 345.76727,115.95853 0,4.99754 c 0,0.93704 -0.0781,1.63982 -0.31235,2.26451 -0.23426,0.6247 -0.54661,1.09322 -0.85895,1.40556 -0.31235,0.39043 -0.85895,0.62469 -1.40556,0.78087 -0.62469,0.23426 -1.24939,0.31234 -1.79599,0.31234 -0.54661,0.0781 -1.32747,0.0781 -2.26451,0.0781 -1.1713,0 -2.10834,0 -2.81112,-0.0781 -0.62469,-0.0781 -1.32747,-0.31234 -1.95216,-0.62469 -0.70278,-0.31235 -1.1713,-0.78086 -1.40556,-1.48364 -0.31235,-0.6247 -0.46852,-1.56173 -0.46852,-2.65495 l 0,-4.99754 c 0,-0.93703 0.15617,-1.7179 0.39043,-2.42068 0.15618,-0.62469 0.46852,-1.1713 0.78087,-1.48364 0.31235,-0.39044 0.85895,-0.6247 1.48364,-0.85896 0.6247,-0.15617 1.1713,-0.23426 1.71791,-0.31234 0.5466,-0.0781 1.32747,-0.0781 2.26451,-0.0781 0.93704,0 1.7179,0 2.26451,0.0781 0.5466,0.0781 1.09321,0.15617 1.7179,0.31234 0.6247,0.23426 1.1713,0.46852 1.48365,0.85896 0.31234,0.31234 0.62469,0.85895 0.85895,1.48364 0.15617,0.70278 0.31235,1.48365 0.31235,2.42068 z m -2.73303,5.38798 0,-5.8565 c 0,-1.32747 -0.31235,-2.10833 -0.85896,-2.42068 -0.46852,-0.31234 -1.56173,-0.46852 -3.04537,-0.46852 -1.56173,0 -2.57686,0.15618 -3.04538,0.46852 -0.5466,0.31235 -0.85895,1.09321 -0.85895,2.42068 l 0,5.8565 c 0,0.62469 0.0781,1.17129 0.23426,1.48364 0.15617,0.39043 0.39043,0.70278 0.78087,0.85895 0.39043,0.15618 0.70277,0.23426 1.09321,0.31235 0.46852,0.0781 1.01512,0.0781 1.79599,0.0781 0.78086,0 1.32747,0 1.7179,-0.0781 0.46852,-0.0781 0.78087,-0.15617 1.1713,-0.31235 0.39043,-0.15617 0.62469,-0.46852 0.78087,-0.85895 0.15617,-0.31235 0.23426,-0.85895 0.23426,-1.48364 z"
             style="fill:#000000;fill-opacity:1;fill-rule:evenodd;stroke:none"
             inkscape:connector-curvature="0" />
          <path
             id="path3234"
             d="m 233.63497,23.58214 0,64.889927 64.81184,0 0,-64.889927 -64.81184,0 z"
             style="fill:#000000;fill-opacity:1;fill-rule:evenodd;stroke:none"
             inkscape:connector-curvature="0" />
          <path
             id="path3236"
             d="m 233.63497,37.40346 0,6.403097 15.30497,0 10.15125,10.151253 4.68519,-4.685194 -12.02533,-12.025329 -18.11608,0.156173 z"
             style="fill:#ffe100;fill-opacity:1;fill-rule:evenodd;stroke:none"
             inkscape:connector-curvature="0" />
          <path
             id="path3238"
             d="m 272.91251,58.48683 -4.60711,4.685193 11.55681,11.634897 18.5846,0 0,-6.481184 -15.69539,0 -9.83891,-9.838906 z"
             style="fill:#ffe100;fill-opacity:1;fill-rule:evenodd;stroke:none"
             inkscape:connector-curvature="0" />
          <path
             id="path3240"
             d="m 280.33073,37.247287 -30.84419,31.078449 -15.85157,0 0,6.55927 18.50652,0 31.07844,-31.078449 15.22688,0 0,-6.55927 -18.11608,0 z"
             style="fill:#ffe100;fill-opacity:1;fill-rule:evenodd;stroke:none"
             inkscape:connector-curvature="0" />
          <path
             id="path3242"
             d="M 200.68245,150.86322 72.698583,260.34057"
             style="fill:none;stroke:#000000;stroke-width:3.59198141px;stroke-linecap:round;stroke-linejoin:round;stroke-opacity:1;stroke-dasharray:none"
             inkscape:connector-curvature="0" />
          <path
             id="path3244"
             d="M 325.77711,150.86322 446.18658,261.3557"
             style="fill:none;stroke:#000000;stroke-width:3.59198141px;stroke-linecap:round;stroke-linejoin:round;stroke-opacity:1;stroke-dasharray:none"
             inkscape:connector-curvature="0" />
          <path
             id="path3246"
             d="M 466.25482,247.92481 371.37966,161.24874"
             style="fill:none;stroke:#3475cd;stroke-width:5.23179913px;stroke-linecap:round;stroke-linejoin:round;stroke-opacity:1;stroke-dasharray:none"
             inkscape:connector-curvature="0" />
          <path
             id="path3248"
             d="m 366.14786,170.85338 -8.43335,-22.09849 22.72319,6.48118 -14.28984,15.61731 z"
             style="fill:#3475cd;fill-opacity:1;fill-rule:evenodd;stroke:none"
             inkscape:connector-curvature="0" />
          <path
             id="path3250"
             d="m 383.24881,165.46541 64.10906,58.56492 18.89695,-20.69294 -64.18715,-58.56492 -18.81886,20.69294 z"
             style="fill:#ffffff;fill-opacity:1;fill-rule:evenodd;stroke:none"
             inkscape:connector-curvature="0" />
          <text
             id="text3252"
             style="font-size:23.73831177px;font-style:normal;font-weight:normal;text-align:start;text-anchor:start;fill:#3475cd;font-family:Arial"
             transform="matrix(0.7313537,0.68199836,-0.68199836,0.7313537,213.11525,-221.18206)"
             y="159.92126"
             x="387.3093"
             xml:space="preserve">R</text>
          <text
             id="text3254"
             style="font-size:23.73831177px;font-style:normal;font-weight:normal;text-align:start;text-anchor:start;fill:#3475cd;font-family:Arial"
             transform="matrix(0.7313537,0.68199836,-0.68199836,0.7313537,224.14039,-226.68206)"
             y="171.16573"
             x="399.80316"
             xml:space="preserve">e</text>
          <text
             id="text3256"
             style="font-size:23.73831177px;font-style:normal;font-weight:normal;text-align:start;text-anchor:start;fill:#3475cd;font-family:Arial"
             transform="matrix(0.7313537,0.68199836,-0.68199836,0.7313537,232.79007,-231.14919)"
             y="179.91142"
             x="409.79825"
             xml:space="preserve">g</text>
          <text
             id="text3258"
             style="font-size:23.73831177px;font-style:normal;font-weight:normal;text-align:start;text-anchor:start;fill:#3475cd;font-family:Arial"
             transform="matrix(0.7313537,0.68199836,-0.68199836,0.7313537,241.43977,-235.61632)"
             y="188.65712"
             x="419.79333"
             xml:space="preserve">i</text>
          <text
             id="text3260"
             style="font-size:23.73831177px;font-style:normal;font-weight:normal;text-align:start;text-anchor:start;fill:#3475cd;font-family:Arial"
             transform="matrix(0.7313537,0.68199836,-0.68199836,0.7313537,245.00293,-237.16562)"
             y="192.40527"
             x="423.54147"
             xml:space="preserve">s</text>
          <text
             id="text3262"
             style="font-size:23.73831177px;font-style:normal;font-weight:normal;text-align:start;text-anchor:start;fill:#3475cd;font-family:Arial"
             transform="matrix(0.7313537,0.68199836,-0.68199836,0.7313537,252.4649,-241.11632)"
             y="199.90158"
             x="432.28717"
             xml:space="preserve">t</text>
          <text
             id="text3264"
             style="font-size:23.73831177px;font-style:normal;font-weight:normal;text-align:start;text-anchor:start;fill:#3475cd;font-family:Arial"
             transform="matrix(0.7313537,0.68199836,-0.68199836,0.7313537,257.21578,-243.18206)"
             y="204.89912"
             x="437.2847"
             xml:space="preserve">e</text>
          <text
             id="text3266"
             style="font-size:23.73831177px;font-style:normal;font-weight:normal;text-align:start;text-anchor:start;fill:#3475cd;font-family:Arial"
             transform="matrix(0.7313537,0.68199836,-0.68199836,0.7313537,265.52983,-246.79711)"
             y="213.64481"
             x="446.0304"
             xml:space="preserve">r</text>
        </g>
      </g>
    </g>
  </g>
</svg>
