<?xml version="1.0" encoding="UTF-8" standalone="no"?>
<!-- Created with Inkscape (http://www.inkscape.org/) -->

<svg
   xmlns:dc="http://purl.org/dc/elements/1.1/"
   xmlns:cc="http://creativecommons.org/ns#"
   xmlns:rdf="http://www.w3.org/1999/02/22-rdf-syntax-ns#"
   xmlns:svg="http://www.w3.org/2000/svg"
   xmlns="http://www.w3.org/2000/svg"
   xmlns:sodipodi="http://sodipodi.sourceforge.net/DTD/sodipodi-0.dtd"
   xmlns:inkscape="http://www.inkscape.org/namespaces/inkscape"
   width="522.53125"
   height="378.8125"
   id="svg3186"
   version="1.1"
   inkscape:version="0.48.4 r9939"
   sodipodi:docname="rpc_call.svg">
  <defs
     id="defs3188" />
  <sodipodi:namedview
     id="base"
     pagecolor="#ffffff"
     bordercolor="#666666"
     borderopacity="1.0"
     inkscape:pageopacity="0.0"
     inkscape:pageshadow="2"
     inkscape:zoom="1.4"
     inkscape:cx="265.71416"
     inkscape:cy="179.39946"
     inkscape:document-units="px"
     inkscape:current-layer="layer1"
     showgrid="false"
     fit-margin-top="4"
     fit-margin-left="4"
     fit-margin-right="4"
     fit-margin-bottom="4"
     inkscape:window-width="1440"
     inkscape:window-height="838"
     inkscape:window-x="-8"
     inkscape:window-y="-8"
     inkscape:window-maximized="1" />
  <metadata
     id="metadata3191">
    <rdf:RDF>
      <cc:Work
         rdf:about="">
        <dc:format>image/svg+xml</dc:format>
        <dc:type
           rdf:resource="http://purl.org/dc/dcmitype/StillImage" />
        <dc:title />
      </cc:Work>
    </rdf:RDF>
  </metadata>
  <g
     inkscape:label="Ebene 1"
     inkscape:groupmode="layer"
     id="layer1"
     transform="translate(-24.443514,-82.958304)">
    <path
       inkscape:connector-curvature="0"
       style="fill:#595959;fill-opacity:1;fill-rule:evenodd;stroke:none"
       d="m 145.44492,456.42327 c 13.04046,0 23.58214,-10.54169 23.58214,-23.58214 l 0,0 0,-63.09394 c 0,-13.04045 -10.54168,-23.66023 -23.58214,-23.66023 l 0,0 -90.736572,0 c -13.040454,0 -23.582139,10.61978 -23.582139,23.66023 l 0,0 0,63.09394 c 0,13.04045 10.541685,23.58214 23.582139,23.58214 l 0,0 90.736572,0 z"
       id="path3048" />
    <path
       inkscape:connector-curvature="0"
       style="fill:none;stroke:#000000;stroke-width:3.59198141px;stroke-linecap:round;stroke-linejoin:round;stroke-opacity:1;stroke-dasharray:none"
       d="m 145.44492,456.42327 c 13.04046,0 23.58214,-10.54169 23.58214,-23.58214 l 0,0 0,-63.09394 c 0,-13.04045 -10.54168,-23.66023 -23.58214,-23.66023 l 0,0 -90.736572,0 c -13.040454,0 -23.582139,10.61978 -23.582139,23.66023 l 0,0 0,63.09394 c 0,13.04045 10.541685,23.58214 23.582139,23.58214 l 0,0 90.736572,0 z"
       id="path3050" />
    <g
       style="font-size:23.73831177px;font-style:normal;font-weight:normal;text-align:start;text-anchor:start;fill:#ffffff;font-family:Arial"
       id="text3052">
      <path
         d="m 79.817446,394.34448 6.525717,-16.99236 2.422514,0 6.954583,16.99236 -2.561605,0 -1.982056,-5.14639 -7.105266,0 -1.866147,5.14639 z m 4.902981,-6.97776 5.760713,0 -1.773418,-4.70594 c -0.540921,-1.42954 -0.942741,-2.60409 -1.205461,-3.52365 -0.216373,1.08956 -0.521601,2.17139 -0.915687,3.24547 z"
         style="font-size:23.73831177px;font-style:normal;font-weight:normal;text-align:start;text-anchor:start;fill:#ffffff;font-family:Arial"
         id="path3143" />
      <path
         d="m 97.27345,399.06201 0,-17.02714 1.900919,0 0,1.59955 c 0.448181,-0.6259 0.954321,-1.09533 1.518421,-1.4083 0.56409,-0.31294 1.24795,-0.46942 2.0516,-0.46943 1.05091,1e-5 1.97818,0.27046 2.78183,0.81136 0.80363,0.54093 1.41023,1.304 1.81979,2.28922 0.40953,0.98524 0.6143,2.06513 0.61432,3.23968 -2e-5,1.25956 -0.22604,2.39354 -0.67808,3.40195 -0.45205,1.00842 -1.10888,1.78115 -1.97046,2.31819 -0.8616,0.53705 -1.76763,0.80558 -2.71808,0.80558 -0.69547,0 -1.31945,-0.14682 -1.87195,-0.44046 -0.5525,-0.29364 -1.006482,-0.66455 -1.361935,-1.11273 l 0,5.99253 z m 1.889329,-10.80279 c -4e-6,1.58411 0.320679,2.75479 0.962051,3.51207 0.64136,0.75728 1.41796,1.13591 2.32978,1.13591 0.92727,0 1.72126,-0.39216 2.38195,-1.17648 0.66068,-0.78432 0.99102,-1.99944 0.99103,-3.64536 -1e-5,-1.56864 -0.32263,-2.74319 -0.96785,-3.52366 -0.64524,-0.78045 -1.41604,-1.17068 -2.3124,-1.17069 -0.88864,1e-5 -1.6749,0.41536 -2.35876,1.24603 -0.683872,0.8307 -1.025805,2.03809 -1.025801,3.62218 z"
         style="font-size:23.73831177px;font-style:normal;font-weight:normal;text-align:start;text-anchor:start;fill:#ffffff;font-family:Arial"
         id="path3145" />
      <path
         d="m 110.48716,399.06201 0,-17.02714 1.90092,0 0,1.59955 c 0.44818,-0.6259 0.95432,-1.09533 1.51842,-1.4083 0.56409,-0.31294 1.24795,-0.46942 2.0516,-0.46943 1.05091,1e-5 1.97818,0.27046 2.78183,0.81136 0.80363,0.54093 1.41023,1.304 1.81978,2.28922 0.40954,0.98524 0.61431,2.06513 0.61433,3.23968 -2e-5,1.25956 -0.22604,2.39354 -0.67808,3.40195 -0.45205,1.00842 -1.10888,1.78115 -1.97046,2.31819 -0.86161,0.53705 -1.76763,0.80558 -2.71808,0.80558 -0.69547,0 -1.31945,-0.14682 -1.87195,-0.44046 -0.5525,-0.29364 -1.00648,-0.66455 -1.36194,-1.11273 l 0,5.99253 z m 1.88933,-10.80279 c -1e-5,1.58411 0.32068,2.75479 0.96205,3.51207 0.64136,0.75728 1.41796,1.13591 2.32978,1.13591 0.92727,0 1.72126,-0.39216 2.38195,-1.17648 0.66068,-0.78432 0.99102,-1.99944 0.99103,-3.64536 -1e-5,-1.56864 -0.32263,-2.74319 -0.96785,-3.52366 -0.64524,-0.78045 -1.41604,-1.17068 -2.3124,-1.17069 -0.88864,1e-5 -1.6749,0.41536 -2.35876,1.24603 -0.68387,0.8307 -1.02581,2.03809 -1.0258,3.62218 z"
         style="font-size:23.73831177px;font-style:normal;font-weight:normal;text-align:start;text-anchor:start;fill:#ffffff;font-family:Arial"
         id="path3147" />
    </g>
    <g
       style="font-size:23.73831177px;font-style:normal;font-weight:normal;text-align:start;text-anchor:start;fill:#ffffff;font-family:Arial"
       id="text3054">
      <path
         d="m 53.827433,415.87317 2.248649,0.56796 c -0.471382,1.84683 -1.319454,3.25513 -2.544218,4.22491 -1.224792,0.96978 -2.721958,1.45467 -4.491502,1.45467 -1.831381,0 -3.32082,-0.37285 -4.46832,-1.11853 -1.14751,-0.74569 -2.020696,-1.82558 -2.61956,-3.23968 -0.598868,-1.41409 -0.898302,-2.93251 -0.8983,-4.55525 -2e-6,-1.76955 0.338068,-3.31308 1.01421,-4.63059 0.676137,-1.3175 1.638187,-2.31818 2.886152,-3.00207 1.247955,-0.68385 2.621484,-1.02578 4.120591,-1.0258 1.699998,2e-5 3.12955,0.43275 4.28866,1.29819 1.159082,0.86548 1.966586,2.08253 2.422513,3.65116 l -2.213876,0.52159 c -0.394106,-1.23636 -0.965927,-2.13659 -1.715464,-2.7007 -0.749561,-0.56407 -1.692292,-0.84612 -2.828197,-0.84614 -1.305924,2e-5 -2.397406,0.31298 -3.27445,0.93887 -0.877055,0.62593 -1.493308,1.46627 -1.84876,2.52104 -0.35546,1.05479 -0.533188,2.14241 -0.533185,3.26286 -3e-6,1.44501 0.210566,2.7065 0.631708,3.78445 0.421134,1.07796 1.076024,1.88354 1.96467,2.41672 0.888634,0.53319 1.850684,0.79978 2.886152,0.79978 1.259542,0 2.325911,-0.36319 3.199109,-1.08956 0.873173,-0.72636 1.464312,-1.80432 1.773418,-3.23388 z"
         style="font-size:23.73831177px;font-style:normal;font-weight:normal;text-align:start;text-anchor:start;fill:#ffffff;font-family:Arial"
         id="path3122" />
      <path
         d="m 57.814729,415.67613 c -10e-7,-2.27955 0.633638,-3.96797 1.900919,-5.06526 1.058639,-0.91181 2.349099,-1.36772 3.871385,-1.36773 1.692274,1e-5 3.075462,0.55444 4.149568,1.6633 1.074085,1.10888 1.611133,2.64082 1.611145,4.59582 -1.2e-5,1.58411 -0.237627,2.83013 -0.712844,3.73809 -0.475241,0.90796 -1.166835,1.61308 -2.074784,2.11535 -0.907969,0.50228 -1.898996,0.75342 -2.973085,0.75342 -1.723196,0 -3.116043,-0.55251 -4.178545,-1.65751 -1.062508,-1.10501 -1.59376,-2.69683 -1.593759,-4.77548 z m 2.14433,0 c -3e-6,1.57637 0.343862,2.75672 1.031596,3.54104 0.687727,0.78432 1.553185,1.17648 2.596378,1.17648 1.035453,0 1.897048,-0.39409 2.584787,-1.18228 0.687721,-0.78818 1.031586,-1.98978 1.031597,-3.60479 -1.1e-5,-1.52227 -0.345808,-2.67557 -1.037392,-3.4599 -0.691604,-0.78432 -1.551267,-1.17648 -2.578992,-1.17649 -1.043193,10e-6 -1.908651,0.39024 -2.596378,1.17069 -0.687734,0.78047 -1.031599,1.95888 -1.031596,3.53525 z"
         style="font-size:23.73831177px;font-style:normal;font-weight:normal;text-align:start;text-anchor:start;fill:#ffffff;font-family:Arial"
         id="path3124" />
      <path
         d="m 71.805033,421.83093 0,-12.30961 1.866146,0 0,1.72705 c 0.386362,-0.60271 0.900228,-1.0876 1.5416,-1.45466 0.641361,-0.36704 1.371592,-0.55056 2.190694,-0.55057 0.911815,1e-5 1.659432,0.18933 2.242853,0.56795 0.583402,0.37865 0.994881,0.90797 1.234438,1.58797 0.97363,-1.43727 2.240909,-2.15591 3.801839,-2.15592 1.2209,1e-5 2.159768,0.33808 2.816607,1.01421 0.656804,0.67615 0.985214,1.7174 0.985232,3.12376 l 0,8.44982 -2.074784,0 0,-7.75436 c -1.6e-5,-0.83454 -0.06763,-1.43534 -0.202842,-1.80239 -0.135244,-0.36704 -0.380586,-0.66261 -0.736027,-0.88671 -0.355471,-0.22409 -0.772745,-0.33613 -1.251825,-0.33614 -0.865472,10e-6 -1.584112,0.28785 -2.15592,0.86353 -0.571833,0.57569 -0.857743,1.49717 -0.857732,2.76444 l 0,7.15163 -2.086375,0 0,-7.99777 c -9e-6,-0.92727 -0.17001,-1.62272 -0.510003,-2.08637 -0.34001,-0.46363 -0.896376,-0.69545 -1.6691,-0.69546 -0.587282,10e-6 -1.130126,0.15456 -1.628532,0.46364 -0.498416,0.3091 -0.859668,0.76115 -1.083756,1.35614 -0.224096,0.59501 -0.336142,1.45274 -0.336138,2.5732 l 0,6.38662 z"
         style="font-size:23.73831177px;font-style:normal;font-weight:normal;text-align:start;text-anchor:start;fill:#ffffff;font-family:Arial"
         id="path3127" />
      <path
         d="m 91.602413,426.54846 0,-17.02714 1.90092,0 0,1.59955 c 0.44818,-0.6259 0.954319,-1.09533 1.518417,-1.4083 0.564089,-0.31294 1.247955,-0.46942 2.051602,-0.46943 1.050907,1e-5 1.978184,0.27046 2.781834,0.81136 0.803634,0.54093 1.410224,1.304 1.819784,2.28922 0.40953,0.98524 0.61431,2.06513 0.61432,3.23968 -10e-6,1.25956 -0.22604,2.39354 -0.67807,3.40195 -0.45206,1.00842 -1.10888,1.78115 -1.970467,2.31819 -0.861605,0.53705 -1.767631,0.80558 -2.718083,0.80558 -0.695465,0 -1.319445,-0.14682 -1.871942,-0.44046 -0.552508,-0.29364 -1.006487,-0.66455 -1.36194,-1.11273 l 0,5.99253 z m 1.889329,-10.80279 c -4e-6,1.58411 0.32068,2.75479 0.962051,3.51207 0.641362,0.75728 1.417956,1.13591 2.329785,1.13591 0.92727,0 1.721251,-0.39216 2.381945,-1.17648 0.660676,-0.78432 0.991017,-1.99944 0.991027,-3.64536 -10e-6,-1.56864 -0.322624,-2.74319 -0.967845,-3.52366 -0.645239,-0.78045 -1.416038,-1.17068 -2.312399,-1.17069 -0.888647,1e-5 -1.674901,0.41536 -2.358763,1.24603 -0.683871,0.8307 -1.025805,2.03809 -1.025801,3.62218 z"
         style="font-size:23.73831177px;font-style:normal;font-weight:normal;text-align:start;text-anchor:start;fill:#ffffff;font-family:Arial"
         id="path3129" />
      <path
         d="m 104.03953,415.67613 c 0,-2.27955 0.63364,-3.96797 1.90092,-5.06526 1.05864,-0.91181 2.3491,-1.36772 3.87138,-1.36773 1.69228,1e-5 3.07546,0.55444 4.14957,1.6633 1.07409,1.10888 1.61113,2.64082 1.61115,4.59582 -2e-5,1.58411 -0.23763,2.83013 -0.71285,3.73809 -0.47524,0.90796 -1.16683,1.61308 -2.07478,2.11535 -0.90797,0.50228 -1.899,0.75342 -2.97309,0.75342 -1.72319,0 -3.11604,-0.55251 -4.17854,-1.65751 -1.06251,-1.10501 -1.59376,-2.69683 -1.59376,-4.77548 z m 2.14433,0 c 0,1.57637 0.34386,2.75672 1.0316,3.54104 0.68772,0.78432 1.55318,1.17648 2.59637,1.17648 1.03546,0 1.89705,-0.39409 2.58479,-1.18228 0.68772,-0.78818 1.03159,-1.98978 1.0316,-3.60479 -10e-6,-1.52227 -0.34581,-2.67557 -1.0374,-3.4599 -0.6916,-0.78432 -1.55126,-1.17648 -2.57899,-1.17649 -1.04319,10e-6 -1.90865,0.39024 -2.59637,1.17069 -0.68774,0.78047 -1.0316,1.95888 -1.0316,3.53525 z"
         style="font-size:23.73831177px;font-style:normal;font-weight:normal;text-align:start;text-anchor:start;fill:#ffffff;font-family:Arial"
         id="path3131" />
      <path
         d="m 118.02983,421.83093 0,-12.30961 1.87774,0 0,1.75024 c 0.90409,-1.35227 2.21001,-2.02841 3.91775,-2.02842 0.74181,1e-5 1.42375,0.13331 2.0458,0.39988 0.62204,0.26661 1.08761,0.61627 1.39672,1.04899 0.30908,0.43274 0.52544,0.9466 0.64909,1.5416 0.0773,0.38637 0.1159,1.06251 0.11591,2.02842 l 0,7.5689 -2.08637,0 0,-7.48777 c -1e-5,-0.84999 -0.0812,-1.48556 -0.24342,-1.90671 -0.16228,-0.42113 -0.45012,-0.75727 -0.86352,-1.00842 -0.41342,-0.25112 -0.89831,-0.37669 -1.45467,-0.3767 -0.88865,10e-6 -1.65558,0.28206 -2.30081,0.84614 -0.64523,0.5641 -0.96785,1.63433 -0.96784,3.2107 l 0,6.72276 z"
         style="font-size:23.73831177px;font-style:normal;font-weight:normal;text-align:start;text-anchor:start;fill:#ffffff;font-family:Arial"
         id="path3133" />
      <path
         d="m 139.67018,417.86682 2.15592,0.26659 c -0.34002,1.25956 -0.96979,2.23706 -1.88933,2.93252 -0.91956,0.69546 -2.09411,1.04319 -3.52366,1.04319 -1.80047,0 -3.22809,-0.55444 -4.28286,-1.66331 -1.05478,-1.10887 -1.58217,-2.66399 -1.58217,-4.66537 0,-2.07091 0.53318,-3.67819 1.59955,-4.82184 1.06637,-1.14363 2.44956,-1.71545 4.14957,-1.71546 1.64591,1e-5 2.99046,0.56024 4.03366,1.68069 1.04318,1.12047 1.56477,2.69684 1.56478,4.72911 -10e-6,0.12365 -0.004,0.3091 -0.0116,0.55637 l -9.18005,0 c 0.0773,1.35229 0.45977,2.38774 1.14751,3.10638 0.68772,0.71864 1.54545,1.07796 2.57319,1.07796 0.765,0 1.41796,-0.20091 1.95888,-0.60273 0.5409,-0.40182 0.96977,-1.04318 1.2866,-1.9241 z m -6.85027,-3.37297 6.87345,0 c -0.0927,-1.03545 -0.35547,-1.81205 -0.78819,-2.32979 -0.66456,-0.80363 -1.52615,-1.20545 -2.58479,-1.20546 -0.95819,1e-5 -1.76376,0.32069 -2.41671,0.96205 -0.65297,0.64138 -1.01422,1.49911 -1.08376,2.5732 z"
         style="font-size:23.73831177px;font-style:normal;font-weight:normal;text-align:start;text-anchor:start;fill:#ffffff;font-family:Arial"
         id="path3135" />
      <path
         d="m 144.45725,421.83093 0,-12.30961 1.87774,0 0,1.75024 c 0.90409,-1.35227 2.21001,-2.02841 3.91775,-2.02842 0.74181,1e-5 1.42375,0.13331 2.04581,0.39988 0.62203,0.26661 1.0876,0.61627 1.39671,1.04899 0.30908,0.43274 0.52544,0.9466 0.64909,1.5416 0.0773,0.38637 0.1159,1.06251 0.11591,2.02842 l 0,7.5689 -2.08637,0 0,-7.48777 c -10e-6,-0.84999 -0.0811,-1.48556 -0.24341,-1.90671 -0.16229,-0.42113 -0.45013,-0.75727 -0.86353,-1.00842 -0.41342,-0.25112 -0.89831,-0.37669 -1.45467,-0.3767 -0.88865,10e-6 -1.65558,0.28206 -2.30081,0.84614 -0.64523,0.5641 -0.96785,1.63433 -0.96784,3.2107 l 0,6.72276 z"
         style="font-size:23.73831177px;font-style:normal;font-weight:normal;text-align:start;text-anchor:start;fill:#ffffff;font-family:Arial"
         id="path3137" />
      <path
         d="m 162.22621,419.96479 0.30137,1.84296 c -0.58728,0.12364 -1.11274,0.18546 -1.57638,0.18546 -0.75728,0 -1.34455,-0.11978 -1.76182,-0.35932 -0.41728,-0.23955 -0.71092,-0.55444 -0.88092,-0.94467 -0.17,-0.39023 -0.255,-1.21125 -0.255,-2.46308 l 0,-7.08208 -1.53001,0 0,-1.62274 1.53001,0 0,-3.04843 2.07479,-1.25182 0,4.30025 2.09796,0 0,1.62274 -2.09796,0 0,7.19799 c -1e-5,0.59501 0.0367,0.97751 0.11011,1.14751 0.0734,0.17 0.19318,0.30523 0.35932,0.40568 0.16613,0.10046 0.40375,0.15068 0.71284,0.15068 0.23182,0 0.53705,-0.027 0.91569,-0.0811 z"
         style="font-size:23.73831177px;font-style:normal;font-weight:normal;text-align:start;text-anchor:start;fill:#ffffff;font-family:Arial"
         id="path3139" />
    </g>
    <path
       inkscape:connector-curvature="0"
       style="fill:#595959;fill-opacity:1;fill-rule:evenodd;stroke:none"
       d="m 518.46439,456.65753 c 13.04046,0 23.58214,-10.54169 23.58214,-23.58214 l 0,0 0,-62.31307 c 0,-13.04046 -10.54168,-23.66023 -23.58214,-23.66023 l -89.72145,0 c -13.04045,0 -23.58214,10.61977 -23.58214,23.66023 l 0,0 0,62.31307 c 0,13.04045 10.54169,23.58214 23.58214,23.58214 l 89.72145,0 z"
       id="path3056" />
    <path
       inkscape:connector-curvature="0"
       style="fill:none;stroke:#000000;stroke-width:3.59198141px;stroke-linecap:round;stroke-linejoin:round;stroke-opacity:1;stroke-dasharray:none"
       d="m 518.46439,456.65753 c 13.04046,0 23.58214,-10.54169 23.58214,-23.58214 l 0,0 0,-62.31307 c 0,-13.04046 -10.54168,-23.66023 -23.58214,-23.66023 l -89.72145,0 c -13.04045,0 -23.58214,10.61977 -23.58214,23.66023 l 0,0 0,62.31307 c 0,13.04045 10.54169,23.58214 23.58214,23.58214 l 89.72145,0 z"
       id="path3058" />
    <g
       style="font-size:23.73831177px;font-style:normal;font-weight:normal;text-align:start;text-anchor:start;fill:#ffffff;font-family:Arial"
       id="text3060">
      <path
         d="m 453.38353,394.34448 6.52572,-16.99236 2.42251,0 6.95459,16.99236 -2.56161,0 -1.98206,-5.14639 -7.10526,0 -1.86615,5.14639 z m 4.90298,-6.97776 5.76072,0 -1.77342,-4.70594 c -0.54092,-1.42954 -0.94274,-2.60409 -1.20546,-3.52365 -0.21638,1.08956 -0.5216,2.17139 -0.91569,3.24547 z"
         style="font-size:23.73831177px;font-style:normal;font-weight:normal;text-align:start;text-anchor:start;fill:#ffffff;font-family:Arial"
         id="path3115" />
      <path
         d="m 470.83954,399.06201 0,-17.02714 1.90092,0 0,1.59955 c 0.44818,-0.6259 0.95431,-1.09533 1.51841,-1.4083 0.56409,-0.31294 1.24796,-0.46942 2.0516,-0.46943 1.05091,1e-5 1.97819,0.27046 2.78184,0.81136 0.80363,0.54093 1.41022,1.304 1.81978,2.28922 0.40954,0.98524 0.61431,2.06513 0.61432,3.23968 -10e-6,1.25956 -0.22603,2.39354 -0.67807,3.40195 -0.45206,1.00842 -1.10888,1.78115 -1.97046,2.31819 -0.86161,0.53705 -1.76764,0.80558 -2.71809,0.80558 -0.69546,0 -1.31944,-0.14682 -1.87194,-0.44046 -0.55251,-0.29364 -1.00649,-0.66455 -1.36194,-1.11273 l 0,5.99253 z m 1.88932,-10.80279 c 0,1.58411 0.32068,2.75479 0.96206,3.51207 0.64136,0.75728 1.41795,1.13591 2.32978,1.13591 0.92727,0 1.72125,-0.39216 2.38195,-1.17648 0.66067,-0.78432 0.99101,-1.99944 0.99102,-3.64536 -10e-6,-1.56864 -0.32262,-2.74319 -0.96784,-3.52366 -0.64524,-0.78045 -1.41604,-1.17068 -2.3124,-1.17069 -0.88865,1e-5 -1.6749,0.41536 -2.35876,1.24603 -0.68388,0.8307 -1.02581,2.03809 -1.02581,3.62218 z"
         style="font-size:23.73831177px;font-style:normal;font-weight:normal;text-align:start;text-anchor:start;fill:#ffffff;font-family:Arial"
         id="path3117" />
      <path
         d="m 484.05325,399.06201 0,-17.02714 1.90092,0 0,1.59955 c 0.44818,-0.6259 0.95431,-1.09533 1.51841,-1.4083 0.56409,-0.31294 1.24796,-0.46942 2.0516,-0.46943 1.05091,1e-5 1.97819,0.27046 2.78184,0.81136 0.80363,0.54093 1.41022,1.304 1.81978,2.28922 0.40954,0.98524 0.61431,2.06513 0.61432,3.23968 -10e-6,1.25956 -0.22603,2.39354 -0.67807,3.40195 -0.45206,1.00842 -1.10888,1.78115 -1.97046,2.31819 -0.86161,0.53705 -1.76764,0.80558 -2.71809,0.80558 -0.69546,0 -1.31944,-0.14682 -1.87194,-0.44046 -0.55251,-0.29364 -1.00649,-0.66455 -1.36194,-1.11273 l 0,5.99253 z m 1.88932,-10.80279 c 0,1.58411 0.32068,2.75479 0.96205,3.51207 0.64137,0.75728 1.41796,1.13591 2.32979,1.13591 0.92727,0 1.72125,-0.39216 2.38195,-1.17648 0.66067,-0.78432 0.99101,-1.99944 0.99102,-3.64536 -10e-6,-1.56864 -0.32262,-2.74319 -0.96784,-3.52366 -0.64524,-0.78045 -1.41604,-1.17068 -2.3124,-1.17069 -0.88865,1e-5 -1.6749,0.41536 -2.35876,1.24603 -0.68388,0.8307 -1.02581,2.03809 -1.02581,3.62218 z"
         style="font-size:23.73831177px;font-style:normal;font-weight:normal;text-align:start;text-anchor:start;fill:#ffffff;font-family:Arial"
         id="path3119" />
    </g>
    <g
       style="font-size:23.73831177px;font-style:normal;font-weight:normal;text-align:start;text-anchor:start;fill:#ffffff;font-family:Arial"
       id="text3062">
      <path
         d="m 427.39352,417.12256 2.24865,0.56796 c -0.47138,1.84683 -1.31946,3.25513 -2.54422,4.22491 -1.22479,0.96978 -2.72196,1.45467 -4.4915,1.45467 -1.83138,0 -3.32082,-0.37285 -4.46832,-1.11853 -1.14751,-0.74569 -2.0207,-1.82558 -2.61956,-3.23968 -0.59887,-1.41409 -0.8983,-2.93251 -0.8983,-4.55525 0,-1.76955 0.33807,-3.31308 1.01421,-4.63059 0.67613,-1.3175 1.63818,-2.31818 2.88615,-3.00207 1.24795,-0.68385 2.62148,-1.02578 4.12059,-1.0258 1.7,2e-5 3.12955,0.43275 4.28866,1.29819 1.15908,0.86548 1.96659,2.08253 2.42251,3.65116 l -2.21387,0.52159 c -0.39411,-1.23636 -0.96593,-2.13659 -1.71547,-2.7007 -0.74956,-0.56407 -1.69229,-0.84612 -2.82819,-0.84614 -1.30593,2e-5 -2.39741,0.31297 -3.27445,0.93887 -0.87706,0.62593 -1.49331,1.46627 -1.84876,2.52104 -0.35546,1.05479 -0.53319,2.14241 -0.53319,3.26286 0,1.44501 0.21057,2.7065 0.63171,3.78445 0.42113,1.07796 1.07602,1.88354 1.96467,2.41672 0.88863,0.53318 1.85068,0.79978 2.88615,0.79978 1.25954,0 2.32591,-0.36319 3.19911,-1.08956 0.87317,-0.72636 1.46431,-1.80432 1.77342,-3.23388 z"
         style="font-size:23.73831177px;font-style:normal;font-weight:normal;text-align:start;text-anchor:start;fill:#ffffff;font-family:Arial"
         id="path3095" />
      <path
         d="m 431.38081,416.92552 c 0,-2.27955 0.63364,-3.96797 1.90092,-5.06526 1.05864,-0.91181 2.3491,-1.36772 3.87139,-1.36773 1.69227,1e-5 3.07546,0.55444 4.14957,1.6633 1.07408,1.10888 1.61113,2.64082 1.61114,4.59582 -1e-5,1.58411 -0.23762,2.83013 -0.71284,3.73809 -0.47524,0.90796 -1.16684,1.61308 -2.07479,2.11535 -0.90796,0.50228 -1.89899,0.75342 -2.97308,0.75342 -1.7232,0 -3.11604,-0.55251 -4.17855,-1.65751 -1.0625,-1.10501 -1.59376,-2.69683 -1.59376,-4.77548 z m 2.14433,0 c 0,1.57637 0.34387,2.75672 1.0316,3.54104 0.68773,0.78432 1.55319,1.17648 2.59638,1.17648 1.03545,0 1.89705,-0.39409 2.58479,-1.18228 0.68772,-0.78818 1.03158,-1.98978 1.03159,-3.60479 -10e-6,-1.52227 -0.3458,-2.67557 -1.03739,-3.45991 -0.6916,-0.78431 -1.55127,-1.17647 -2.57899,-1.17648 -1.04319,10e-6 -1.90865,0.39024 -2.59638,1.17069 -0.68773,0.78047 -1.0316,1.95888 -1.0316,3.53525 z"
         style="font-size:23.73831177px;font-style:normal;font-weight:normal;text-align:start;text-anchor:start;fill:#ffffff;font-family:Arial"
         id="path3097" />
      <path
         d="m 445.37112,423.08032 0,-12.30961 1.86615,0 0,1.72705 c 0.38636,-0.60272 0.90022,-1.0876 1.54159,-1.45466 0.64137,-0.36704 1.3716,-0.55056 2.1907,-0.55057 0.91181,1e-5 1.65943,0.18933 2.24285,0.56795 0.5834,0.37865 0.99488,0.90797 1.23444,1.58797 0.97363,-1.43727 2.24091,-2.15591 3.80184,-2.15592 1.2209,1e-5 2.15977,0.33808 2.81661,1.01421 0.6568,0.67615 0.98521,1.7174 0.98523,3.12376 l 0,8.44982 -2.07479,0 0,-7.75436 c -10e-6,-0.83454 -0.0676,-1.43534 -0.20284,-1.80239 -0.13524,-0.36704 -0.38058,-0.66261 -0.73602,-0.88671 -0.35548,-0.22409 -0.77275,-0.33613 -1.25183,-0.33614 -0.86547,10e-6 -1.58411,0.28785 -2.15592,0.86353 -0.57183,0.57569 -0.85774,1.49717 -0.85773,2.76444 l 0,7.15163 -2.08638,0 0,-7.99777 c -1e-5,-0.92727 -0.17001,-1.62273 -0.51,-2.08637 -0.34001,-0.46363 -0.89638,-0.69545 -1.6691,-0.69546 -0.58728,10e-6 -1.13013,0.15455 -1.62853,0.46364 -0.49842,0.3091 -0.85967,0.76115 -1.08376,1.35614 -0.22409,0.59501 -0.33614,1.45274 -0.33614,2.5732 l 0,6.38662 z"
         style="font-size:23.73831177px;font-style:normal;font-weight:normal;text-align:start;text-anchor:start;fill:#ffffff;font-family:Arial"
         id="path3099" />
      <path
         d="m 465.1685,427.79785 0,-17.02714 1.90092,0 0,1.59955 c 0.44818,-0.6259 0.95432,-1.09533 1.51842,-1.4083 0.56408,-0.31294 1.24795,-0.46942 2.0516,-0.46943 1.0509,1e-5 1.97818,0.27046 2.78183,0.81136 0.80363,0.54093 1.41023,1.304 1.81978,2.28922 0.40954,0.98524 0.61431,2.06513 0.61433,3.23968 -2e-5,1.25956 -0.22604,2.39354 -0.67808,3.40195 -0.45206,1.00841 -1.10888,1.78115 -1.97046,2.31819 -0.86161,0.53705 -1.76763,0.80558 -2.71808,0.80558 -0.69547,0 -1.31945,-0.14682 -1.87195,-0.44046 -0.5525,-0.29364 -1.00648,-0.66455 -1.36194,-1.11273 l 0,5.99253 z m 1.88933,-10.80279 c -1e-5,1.58411 0.32068,2.75479 0.96205,3.51207 0.64136,0.75728 1.41795,1.13591 2.32978,1.13591 0.92727,0 1.72125,-0.39216 2.38195,-1.17648 0.66067,-0.78432 0.99102,-1.99944 0.99103,-3.64536 -1e-5,-1.56864 -0.32263,-2.74319 -0.96785,-3.52366 -0.64524,-0.78045 -1.41604,-1.17068 -2.3124,-1.17069 -0.88865,1e-5 -1.6749,0.41536 -2.35876,1.24603 -0.68387,0.8307 -1.02581,2.03809 -1.0258,3.62218 z"
         style="font-size:23.73831177px;font-style:normal;font-weight:normal;text-align:start;text-anchor:start;fill:#ffffff;font-family:Arial"
         id="path3101" />
      <path
         d="m 477.60561,416.92552 c 0,-2.27955 0.63364,-3.96797 1.90092,-5.06526 1.05864,-0.91181 2.3491,-1.36772 3.87139,-1.36773 1.69227,1e-5 3.07546,0.55444 4.14957,1.6633 1.07408,1.10888 1.61113,2.64082 1.61114,4.59582 -10e-6,1.58411 -0.23762,2.83013 -0.71284,3.73809 -0.47524,0.90796 -1.16684,1.61308 -2.07479,2.11535 -0.90796,0.50228 -1.89899,0.75342 -2.97308,0.75342 -1.7232,0 -3.11604,-0.55251 -4.17855,-1.65751 -1.0625,-1.10501 -1.59376,-2.69683 -1.59376,-4.77548 z m 2.14433,0 c 0,1.57637 0.34387,2.75672 1.0316,3.54104 0.68773,0.78432 1.55319,1.17648 2.59638,1.17648 1.03545,0 1.89705,-0.39409 2.58479,-1.18228 0.68772,-0.78818 1.03158,-1.98978 1.03159,-3.60479 -1e-5,-1.52227 -0.3458,-2.67557 -1.03739,-3.45991 -0.6916,-0.78431 -1.55127,-1.17647 -2.57899,-1.17648 -1.04319,10e-6 -1.90865,0.39024 -2.59638,1.17069 -0.68773,0.78047 -1.0316,1.95888 -1.0316,3.53525 z"
         style="font-size:23.73831177px;font-style:normal;font-weight:normal;text-align:start;text-anchor:start;fill:#ffffff;font-family:Arial"
         id="path3103" />
      <path
         d="m 491.59592,423.08032 0,-12.30961 1.87773,0 0,1.75024 c 0.9041,-1.35227 2.21001,-2.02841 3.91775,-2.02842 0.74182,1e-5 1.42375,0.1333 2.04581,0.39988 0.62204,0.26661 1.08761,0.61627 1.39671,1.04899 0.30908,0.43274 0.52545,0.9466 0.6491,1.5416 0.0773,0.38637 0.11589,1.06251 0.11591,2.02842 l 0,7.5689 -2.08638,0 0,-7.48777 c -10e-6,-0.84999 -0.0811,-1.48556 -0.24341,-1.90671 -0.16228,-0.42113 -0.45012,-0.75727 -0.86353,-1.00842 -0.41342,-0.25112 -0.8983,-0.37669 -1.45466,-0.3767 -0.88865,10e-6 -1.65559,0.28206 -2.30081,0.84614 -0.64524,0.5641 -0.96785,1.63433 -0.96785,3.2107 l 0,6.72276 z"
         style="font-size:23.73831177px;font-style:normal;font-weight:normal;text-align:start;text-anchor:start;fill:#ffffff;font-family:Arial"
         id="path3105" />
      <path
         d="m 513.23626,419.11621 2.15592,0.26659 c -0.34001,1.25956 -0.96979,2.23706 -1.88933,2.93252 -0.91956,0.69546 -2.09411,1.04319 -3.52365,1.04319 -1.80047,0 -3.22809,-0.55444 -4.28287,-1.66331 -1.05478,-1.10887 -1.58217,-2.66399 -1.58216,-4.66537 -10e-6,-2.07091 0.53318,-3.67819 1.59955,-4.82184 1.06637,-1.14363 2.44955,-1.71545 4.14957,-1.71546 1.64591,1e-5 2.99046,0.56024 4.03366,1.68069 1.04317,1.12047 1.56477,2.69684 1.56478,4.72911 -10e-6,0.12365 -0.004,0.3091 -0.0116,0.55637 l -9.18005,0 c 0.0773,1.35228 0.45977,2.38774 1.1475,3.10638 0.68773,0.71864 1.54546,1.07796 2.5732,1.07796 0.765,0 1.41795,-0.20091 1.95887,-0.60273 0.54091,-0.40182 0.96977,-1.04318 1.2866,-1.9241 z m -6.85026,-3.37297 6.87344,0 c -0.0927,-1.03546 -0.35546,-1.81205 -0.78818,-2.32979 -0.66456,-0.80363 -1.52616,-1.20545 -2.58479,-1.20546 -0.95819,1e-5 -1.76376,0.32069 -2.41672,0.96205 -0.65296,0.64138 -1.01421,1.49911 -1.08375,2.5732 z"
         style="font-size:23.73831177px;font-style:normal;font-weight:normal;text-align:start;text-anchor:start;fill:#ffffff;font-family:Arial"
         id="path3107" />
      <path
         d="m 518.02334,423.08032 0,-12.30961 1.87774,0 0,1.75024 c 0.90409,-1.35227 2.21,-2.02841 3.91774,-2.02842 0.74182,1e-5 1.42375,0.1333 2.04581,0.39988 0.62204,0.26661 1.08761,0.61627 1.39671,1.04899 0.30909,0.43274 0.52545,0.9466 0.6491,1.5416 0.0773,0.38637 0.1159,1.06251 0.11591,2.02842 l 0,7.5689 -2.08638,0 0,-7.48777 c -10e-6,-0.84999 -0.0811,-1.48556 -0.24341,-1.90671 -0.16228,-0.42113 -0.45012,-0.75727 -0.86353,-1.00842 -0.41341,-0.25112 -0.8983,-0.37669 -1.45466,-0.3767 -0.88865,10e-6 -1.65558,0.28206 -2.30081,0.84614 -0.64524,0.5641 -0.96785,1.63433 -0.96785,3.2107 l 0,6.72276 z"
         style="font-size:23.73831177px;font-style:normal;font-weight:normal;text-align:start;text-anchor:start;fill:#ffffff;font-family:Arial"
         id="path3109" />
      <path
         d="m 535.7923,421.21418 0.30136,1.84296 c -0.58728,0.12364 -1.11274,0.18546 -1.57637,0.18546 -0.75728,0 -1.34456,-0.11978 -1.76183,-0.35932 -0.41727,-0.23955 -0.71091,-0.55444 -0.88091,-0.94467 -0.17,-0.39023 -0.255,-1.21125 -0.255,-2.46308 l 0,-7.08208 -1.53001,0 0,-1.62274 1.53001,0 0,-3.04843 2.07478,-1.25182 0,4.30025 2.09797,0 0,1.62274 -2.09797,0 0,7.19799 c 0,0.59501 0.0367,0.97751 0.11012,1.14751 0.0734,0.17 0.19317,0.30523 0.35932,0.40568 0.16613,0.10046 0.40374,0.15068 0.71284,0.15068 0.23181,0 0.53704,-0.027 0.91569,-0.0811 z"
         style="font-size:23.73831177px;font-style:normal;font-weight:normal;text-align:start;text-anchor:start;fill:#ffffff;font-family:Arial"
         id="path3111" />
    </g>
    <path
       inkscape:connector-curvature="0"
       style="fill:#ffe100;fill-opacity:1;fill-rule:evenodd;stroke:none"
       d="m 361.43233,233.17381 c 13.04046,0 23.66023,-10.61978 23.66023,-23.66023 l 0,0 0,-95.65603 c 0,-13.04045 -10.61977,-23.582137 -23.66023,-23.582137 l 0,0 -139.30641,0 c -13.04046,0 -23.58214,10.541687 -23.58214,23.582137 l 0,0 0,95.65603 c 0,13.04045 10.54168,23.66023 23.58214,23.66023 l 0,0 139.30641,0 z"
       id="path3064" />
    <path
       inkscape:connector-curvature="0"
       style="fill:none;stroke:#ffc000;stroke-width:5.23179913px;stroke-linecap:round;stroke-linejoin:round;stroke-opacity:1;stroke-dasharray:none"
       d="m 361.43233,233.17381 c 13.04046,0 23.66023,-10.61978 23.66023,-23.66023 l 0,0 0,-95.65603 c 0,-13.04045 -10.61977,-23.582137 -23.66023,-23.582137 l 0,0 -139.30641,0 c -13.04046,0 -23.58214,10.541687 -23.58214,23.582137 l 0,0 0,95.65603 c 0,13.04045 10.54168,23.66023 23.58214,23.66023 l 0,0 139.30641,0 z"
       id="path3066" />
    <path
       inkscape:connector-curvature="0"
       style="fill:#000000;fill-opacity:1;fill-rule:evenodd;stroke:none"
       d="m 235.08829,210.91914 c -2.18643,0.39043 -4.21668,0.62469 -6.24693,0.62469 -0.78086,0 -1.56173,0 -2.26451,-0.0781 -0.70278,-0.0781 -1.48364,-0.23426 -2.34259,-0.46852 -0.85896,-0.23426 -1.56174,-0.5466 -2.18643,-0.93703 -0.5466,-0.39044 -1.09321,-0.93704 -1.48364,-1.63982 -0.46852,-0.70278 -0.6247,-1.48365 -0.6247,-2.42069 l 0,-8.51143 c 0,-3.90433 2.96729,-5.85649 8.90187,-5.85649 1.48365,0 3.5139,0.23426 6.16884,0.70278 l 0,3.43581 c -2.42068,-0.54661 -4.45093,-0.78087 -6.09075,-0.78087 -0.70278,0 -1.24939,0 -1.63982,0 -0.46852,0.0781 -0.85895,0.15617 -1.32747,0.31235 -0.46852,0.15617 -0.85895,0.46852 -1.09321,0.78086 -0.23426,0.31235 -0.31235,0.78087 -0.31235,1.32747 l 0,8.19909 c 0,1.79599 1.56173,2.65494 4.76328,2.65494 1.40556,0 3.35772,-0.31234 5.77841,-0.85895 l 0,3.5139 z"
       id="path3068" />
    <path
       inkscape:connector-curvature="0"
       style="fill:#000000;fill-opacity:1;fill-rule:evenodd;stroke:none"
       d="m 247.34788,200.14319 -1.48365,0 c -1.24938,0 -2.10834,0.23426 -2.73303,0.54661 -0.62469,0.39043 -0.93704,1.01512 -0.93704,1.95216 l 0,8.58952 -4.29476,0 0,-14.36792 4.13859,0 0,2.49877 c 0,-0.70278 0.39043,-1.32747 1.24938,-1.95217 0.78087,-0.5466 1.63982,-0.85895 2.49877,-0.85895 l 1.56174,0 0,3.59198 z"
       id="path3070" />
    <path
       inkscape:connector-curvature="0"
       style="fill:#000000;fill-opacity:1;fill-rule:evenodd;stroke:none"
       d="m 263.90223,202.09536 0,4.21667 c 0,0.93704 -0.15618,1.71791 -0.46852,2.42068 -0.31235,0.6247 -0.70278,1.1713 -1.09322,1.56174 -0.46852,0.31234 -1.01512,0.62469 -1.7179,0.85895 -0.70278,0.15617 -1.32747,0.31234 -1.95216,0.31234 -0.54661,0.0781 -1.24939,0.0781 -2.10834,0.0781 -0.85895,0 -1.56173,0 -2.10834,-0.0781 -0.62469,0 -1.24938,-0.15617 -1.95216,-0.31234 -0.70278,-0.23426 -1.24939,-0.54661 -1.71791,-0.85895 -0.39043,-0.39044 -0.78086,-0.93704 -1.09321,-1.56174 -0.31234,-0.70277 -0.46852,-1.48364 -0.46852,-2.42068 l 0,-4.21667 c 0,-1.01513 0.15618,-1.87408 0.46852,-2.57686 0.31235,-0.70278 0.70278,-1.24938 1.1713,-1.63982 0.46852,-0.31234 1.01513,-0.62469 1.7179,-0.85895 0.70278,-0.23426 1.32748,-0.31235 1.95217,-0.39043 0.5466,0 1.24938,-0.0781 2.03025,-0.0781 0.78086,0 1.48364,0.0781 2.03025,0.0781 0.62469,0.0781 1.24938,0.15617 1.95216,0.39043 0.70278,0.23426 1.24939,0.54661 1.71791,0.85895 0.46852,0.39044 0.85895,0.93704 1.1713,1.63982 0.31234,0.70278 0.46852,1.56173 0.46852,2.57686 z m -4.37285,4.76328 0,-5.46606 c 0,-0.78087 -0.15618,-1.32747 -0.54661,-1.63982 -0.46852,-0.31235 -1.24938,-0.46852 -2.42068,-0.46852 -1.1713,0 -1.95216,0.15617 -2.3426,0.46852 -0.46852,0.31235 -0.62469,0.85895 -0.62469,1.63982 l 0,5.46606 c 0,0.70278 0.15617,1.24938 0.54661,1.56173 0.39043,0.31234 1.24938,0.46852 2.42068,0.46852 1.1713,0 2.03025,-0.15618 2.42068,-0.46852 0.39043,-0.31235 0.54661,-0.85895 0.54661,-1.56173 z"
       id="path3072" />
    <path
       inkscape:connector-curvature="0"
       style="fill:#000000;fill-opacity:1;fill-rule:evenodd;stroke:none"
       d="m 279.67571,205.60925 0,1.87408 c 0,0.70278 -0.15617,1.32747 -0.46852,1.79599 -0.23426,0.54661 -0.54661,0.93704 -1.01513,1.24938 -0.39043,0.23426 -0.93703,0.46852 -1.56173,0.6247 -0.62469,0.15617 -1.24938,0.31234 -1.87407,0.31234 -0.6247,0.0781 -1.32748,0.0781 -2.10834,0.0781 -1.56173,0 -3.43581,-0.15617 -5.70032,-0.39043 l 0,-2.88921 c 2.73303,0.39044 4.68519,0.6247 5.77841,0.6247 0.78086,0 1.48364,-0.15618 1.95216,-0.31235 0.46852,-0.15617 0.70278,-0.46852 0.70278,-0.93704 l 0,-0.93704 c 0,-0.46852 -0.15617,-0.78086 -0.39043,-1.01512 -0.31235,-0.23426 -0.85896,-0.31235 -1.63982,-0.31235 l -1.95217,0 c -1.48364,0 -2.65494,-0.31234 -3.51389,-0.93704 -0.78087,-0.62469 -1.24939,-1.48364 -1.24939,-2.65494 l 0,-1.7179 c 0,-1.32747 0.6247,-2.26451 1.87408,-2.73303 1.24939,-0.54661 3.04538,-0.78087 5.30989,-0.78087 0.93704,0 2.65494,0.0781 5.07562,0.31235 l 0,2.73303 c -3.04537,-0.23426 -4.84136,-0.31235 -5.2318,-0.31235 -1.17129,0 -1.95216,0.0781 -2.26451,0.23426 -0.31234,0.15617 -0.46851,0.46852 -0.46851,0.93704 l 0,0.78086 c 0,0.23426 0.15617,0.46852 0.39043,0.6247 0.23426,0.23426 0.62469,0.31234 1.09321,0.31234 l 1.95216,0 c 3.5139,0 5.30989,1.1713 5.30989,3.43581 z"
       id="path3074" />
    <path
       inkscape:connector-curvature="0"
       style="fill:#000000;fill-opacity:1;fill-rule:evenodd;stroke:none"
       d="m 295.21493,205.60925 0,1.87408 c 0,0.70278 -0.0781,1.32747 -0.39043,1.79599 -0.23426,0.54661 -0.62469,0.93704 -1.01512,1.24938 -0.39044,0.23426 -0.93704,0.46852 -1.56174,0.6247 -0.62469,0.15617 -1.32747,0.31234 -1.87407,0.31234 -0.6247,0.0781 -1.32747,0.0781 -2.18643,0.0781 -1.48364,0 -3.4358,-0.15617 -5.62223,-0.39043 l 0,-2.88921 c 2.73303,0.39044 4.6852,0.6247 5.70032,0.6247 0.85895,0 1.56173,-0.15618 2.03025,-0.31235 0.46852,-0.15617 0.70278,-0.46852 0.70278,-0.93704 l 0,-0.93704 c 0,-0.46852 -0.15617,-0.78086 -0.39043,-1.01512 -0.31235,-0.23426 -0.85896,-0.31235 -1.71791,-0.31235 l -1.87407,0 c -1.48365,0 -2.65495,-0.31234 -3.5139,-0.93704 -0.78087,-0.62469 -1.24938,-1.48364 -1.24938,-2.65494 l 0,-1.7179 c 0,-1.32747 0.62469,-2.26451 1.87407,-2.73303 1.24939,-0.54661 3.04538,-0.78087 5.30989,-0.78087 0.93704,0 2.65494,0.0781 5.07562,0.31235 l 0,2.73303 c -3.04537,-0.23426 -4.84136,-0.31235 -5.23179,-0.31235 -1.1713,0 -1.95217,0.0781 -2.26451,0.23426 -0.31235,0.15617 -0.46852,0.46852 -0.46852,0.93704 l 0,0.78086 c 0,0.23426 0.15617,0.46852 0.39043,0.6247 0.23426,0.23426 0.62469,0.31234 1.09321,0.31234 l 1.95216,0 c 3.5139,0 5.2318,1.1713 5.2318,3.43581 z"
       id="path3076" />
    <path
       inkscape:connector-curvature="0"
       style="fill:#000000;fill-opacity:1;fill-rule:evenodd;stroke:none"
       d="m 313.17484,201.39258 0,4.76328 c 0,1.95216 -0.5466,3.35772 -1.7179,4.13859 -1.24939,0.85895 -3.12347,1.24938 -5.70032,1.24938 -2.73303,0 -4.68519,-0.39043 -5.70032,-1.24938 -1.09321,-0.93704 -1.63982,-2.26451 -1.63982,-4.13859 l 0,-15.6954 4.37285,0 0,7.80866 c 0.23426,-0.6247 0.70278,-1.09322 1.48364,-1.32748 0.70278,-0.23426 1.71791,-0.39043 3.20155,-0.39043 1.24939,0 2.18643,0.15617 2.96729,0.31235 0.78087,0.23426 1.40556,0.5466 1.79599,1.01512 0.39044,0.39044 0.6247,0.85896 0.78087,1.40556 0.0781,0.54661 0.15617,1.24939 0.15617,2.10834 z m -4.29476,5.30988 0,-5.30988 c 0,-0.93704 -0.15617,-1.56173 -0.54661,-1.79599 -0.31234,-0.23426 -1.17129,-0.31235 -2.57685,-0.31235 -1.24939,0 -2.03025,0.0781 -2.42068,0.46852 -0.31235,0.31235 -0.54661,0.85895 -0.54661,1.63982 l 0,5.30988 c 0,0.85896 0.15617,1.40556 0.54661,1.71791 0.39043,0.31234 1.17129,0.46852 2.49877,0.46852 1.24938,0 2.03025,-0.15618 2.42068,-0.46852 0.39043,-0.31235 0.62469,-0.85895 0.62469,-1.71791 z"
       id="path3078" />
    <path
       inkscape:connector-curvature="0"
       style="fill:#000000;fill-opacity:1;fill-rule:evenodd;stroke:none"
       d="m 329.49493,211.23148 -4.21667,0 0,-1.24938 c -0.31235,0.5466 -0.78087,0.93704 -1.40556,1.1713 -0.54661,0.31234 -1.63982,0.39043 -3.27964,0.39043 -1.87407,0 -3.20154,-0.31235 -3.82624,-0.85895 -0.62469,-0.62469 -0.93704,-1.87408 -0.93704,-3.74816 0,-1.7179 0.31235,-2.8892 0.93704,-3.51389 0.70278,-0.70278 1.87408,-1.01513 3.5139,-1.01513 l 4.91945,0 0,-1.01512 c 0,-0.85895 -0.23426,-1.40556 -0.62469,-1.71791 -0.39043,-0.31234 -1.24939,-0.39043 -2.57686,-0.39043 -1.24938,0 -2.8892,0.0781 -5.07562,0.31235 l 0,-2.73303 c 1.63981,-0.15618 3.51389,-0.31235 5.54414,-0.31235 2.65494,0 4.45093,0.31235 5.46606,1.01513 1.01513,0.62469 1.56173,1.87407 1.56173,3.82624 l 0,9.8389 z m -4.29476,-3.67006 0,-2.81112 -2.96729,0 c -1.01512,0 -1.56173,0.15617 -1.79599,0.39043 -0.23426,0.15618 -0.39043,0.78087 -0.39043,1.71791 0,0.93704 0.15617,1.48364 0.39043,1.7179 0.23426,0.15617 0.85895,0.31235 1.87408,0.31235 0.46852,0 0.85895,-0.0781 1.09321,-0.0781 0.23426,0 0.54661,0 0.78087,-0.0781 0.31234,0 0.46851,-0.0781 0.5466,-0.15617 0.15617,-0.0781 0.23426,-0.23426 0.31235,-0.39043 0.0781,-0.15617 0.15617,-0.39043 0.15617,-0.62469 z"
       id="path3080" />
    <path
       inkscape:connector-curvature="0"
       style="fill:#000000;fill-opacity:1;fill-rule:evenodd;stroke:none"
       d="m 342.69156,200.14319 -1.48365,0 c -1.17129,0 -2.03025,0.23426 -2.65494,0.54661 -0.62469,0.39043 -0.85895,1.01512 -0.85895,1.95216 l 0,8.58952 -4.37285,0 0,-14.36792 4.13859,0 0,2.49877 c 0,-0.70278 0.39043,-1.32747 1.24938,-1.95217 0.78087,-0.5466 1.63982,-0.85895 2.49877,-0.85895 l 1.48365,0 0,3.59198 z"
       id="path3082" />
    <path
       inkscape:connector-curvature="0"
       style="fill:#000000;fill-opacity:1;fill-rule:evenodd;stroke:none"
       d="m 345.26842,208.02994 0,3.20154 3.4358,0 0,-3.20154 -3.4358,0 z"
       id="path3084" />
    <path
       inkscape:connector-curvature="0"
       style="fill:#000000;fill-opacity:1;fill-rule:evenodd;stroke:none"
       d="m 355.8101,194.44287 -2.73303,0 0,-2.81111 2.73303,0 0,2.81111 z m 0,16.78861 -2.73303,0 0,-14.36792 2.73303,0 0,14.36792 z"
       id="path3086" />
    <path
       inkscape:connector-curvature="0"
       style="fill:#000000;fill-opacity:1;fill-rule:evenodd;stroke:none"
       d="m 373.14532,201.70492 0,4.99754 c 0,0.93704 -0.0781,1.63982 -0.31235,2.26451 -0.23426,0.6247 -0.54661,1.09322 -0.85895,1.40556 -0.31235,0.39043 -0.85895,0.62469 -1.40556,0.78087 -0.62469,0.23426 -1.24939,0.31234 -1.79599,0.31234 -0.54661,0.0781 -1.32747,0.0781 -2.26451,0.0781 -1.1713,0 -2.10834,0 -2.81112,-0.0781 -0.62469,-0.0781 -1.32747,-0.31234 -1.95216,-0.62469 -0.70278,-0.31235 -1.1713,-0.78086 -1.40556,-1.48364 -0.31235,-0.6247 -0.46852,-1.56173 -0.46852,-2.65495 l 0,-4.99754 c 0,-0.93703 0.15617,-1.7179 0.39043,-2.42068 0.15618,-0.62469 0.46852,-1.1713 0.78087,-1.48364 0.31235,-0.39044 0.85895,-0.6247 1.48364,-0.85896 0.6247,-0.15617 1.1713,-0.23426 1.71791,-0.31234 0.5466,-0.0781 1.32747,-0.0781 2.26451,-0.0781 0.93704,0 1.7179,0 2.26451,0.0781 0.5466,0.0781 1.09321,0.15617 1.7179,0.31234 0.6247,0.23426 1.1713,0.46852 1.48365,0.85896 0.31234,0.31234 0.62469,0.85895 0.85895,1.48364 0.15617,0.70278 0.31235,1.48365 0.31235,2.42068 z m -2.73303,5.38798 0,-5.8565 c 0,-1.32747 -0.31235,-2.10833 -0.85896,-2.42068 -0.46852,-0.31234 -1.56173,-0.46852 -3.04537,-0.46852 -1.56173,0 -2.57686,0.15618 -3.04538,0.46852 -0.5466,0.31235 -0.85895,1.09321 -0.85895,2.42068 l 0,5.8565 c 0,0.62469 0.0781,1.17129 0.23426,1.48364 0.15617,0.39043 0.39043,0.70278 0.78087,0.85895 0.39043,0.15618 0.70277,0.23426 1.09321,0.31235 0.46852,0.0781 1.01512,0.0781 1.79599,0.0781 0.78086,0 1.32747,0 1.7179,-0.0781 0.46852,-0.0781 0.78087,-0.15617 1.1713,-0.31235 0.39043,-0.15617 0.62469,-0.46852 0.78087,-0.85895 0.15617,-0.31235 0.23426,-0.85895 0.23426,-1.48364 z"
       id="path3088" />
    <path
       inkscape:connector-curvature="0"
       style="fill:#000000;fill-opacity:1;fill-rule:evenodd;stroke:none"
       d="m 261.01302,109.32853 0,64.88993 64.81184,0 0,-64.88993 -64.81184,0 z"
       id="path3090" />
    <path
       inkscape:connector-curvature="0"
       style="fill:#ffe100;fill-opacity:1;fill-rule:evenodd;stroke:none"
       d="m 261.01302,123.14985 0,6.4031 15.30497,0 10.15125,10.15125 4.68519,-4.68519 -12.02533,-12.02533 -18.11608,0.15617 z"
       id="path3092" />
    <path
       inkscape:connector-curvature="0"
       style="fill:#ffe100;fill-opacity:1;fill-rule:evenodd;stroke:none"
       d="m 300.29056,144.23322 -4.60711,4.6852 11.55681,11.63489 18.5846,0 0,-6.48118 -15.69539,0 -9.83891,-9.83891 z"
       id="path3094" />
    <path
       inkscape:connector-curvature="0"
       style="fill:#ffe100;fill-opacity:1;fill-rule:evenodd;stroke:none"
       d="m 307.70878,122.99368 -30.84419,31.07845 -15.85157,0 0,6.55927 18.50652,0 31.07844,-31.07845 15.22688,0 0,-6.55927 -18.11608,0 z"
       id="path3096" />
    <path
       inkscape:connector-curvature="0"
       style="fill:none;stroke:#000000;stroke-width:3.59198141px;stroke-linecap:round;stroke-linejoin:round;stroke-opacity:1;stroke-dasharray:none"
       d="M 228.0605,236.60961 100.07664,346.08696"
       id="path3098" />
    <path
       inkscape:connector-curvature="0"
       style="fill:none;stroke:#000000;stroke-width:3.59198141px;stroke-linecap:round;stroke-linejoin:round;stroke-opacity:1;stroke-dasharray:none"
       d="M 353.15516,236.60961 473.56463,347.10209"
       id="path3100" />
    <path
       inkscape:connector-curvature="0"
       style="fill:none;stroke:#285ea6;stroke-width:5.23179913px;stroke-linecap:round;stroke-linejoin:round;stroke-opacity:1;stroke-dasharray:none"
       d="m 391.18331,237.31239 90.11188,81.99089"
       id="path3102" />
    <path
       inkscape:connector-curvature="0"
       style="fill:#285ea6;fill-opacity:1;fill-rule:evenodd;stroke:none"
       d="m 486.44891,309.62054 8.58952,22.0985 -22.80128,-6.4031 14.21176,-15.6954 z"
       id="path3104" />
    <g
       transform="matrix(0.7313537,0.68199836,-0.68199836,0.7313537,0,0)"
       style="font-size:23.73831177px;font-style:normal;font-weight:normal;text-align:start;text-anchor:start;fill:#3475cd;font-family:Arial"
       id="text3106">
      <path
         d="m 511.39425,-111.7106 2.24865,0.56796 c -0.47138,1.84683 -1.31945,3.25513 -2.54422,4.22491 -1.22479,0.96978 -2.72196,1.45467 -4.4915,1.45467 -1.83138,0 -3.32082,-0.37285 -4.46832,-1.11853 -1.14751,-0.74569 -2.0207,-1.82558 -2.61956,-3.23968 -0.59887,-1.41409 -0.8983,-2.93251 -0.8983,-4.55525 0,-1.76955 0.33807,-3.31308 1.01421,-4.6306 0.67614,-1.31749 1.63819,-2.31817 2.88615,-3.00206 1.24796,-0.68385 2.62149,-1.02578 4.12059,-1.0258 1.7,2e-5 3.12955,0.43275 4.28866,1.29819 1.15909,0.86548 1.96659,2.08253 2.42252,3.65116 l -2.21388,0.52159 c -0.39411,-1.23636 -0.96593,-2.13659 -1.71546,-2.7007 -0.74956,-0.56407 -1.6923,-0.84612 -2.8282,-0.84614 -1.30593,2e-5 -2.39741,0.31297 -3.27445,0.93887 -0.87706,0.62593 -1.49331,1.46627 -1.84876,2.52104 -0.35546,1.05479 -0.53319,2.14241 -0.53319,3.26286 0,1.44501 0.21057,2.7065 0.63171,3.78445 0.42114,1.07796 1.07603,1.88354 1.96467,2.41672 0.88864,0.53318 1.85069,0.79978 2.88615,0.79977 1.25955,1e-5 2.32591,-0.36318 3.19911,-1.08955 0.87318,-0.72636 1.46432,-1.80432 1.77342,-3.23388 z"
         style="font-size:23.73831177px;font-style:normal;font-weight:normal;text-align:start;text-anchor:start;fill:#3475cd;font-family:Arial"
         id="path3207" />
    </g>
    <g
       transform="matrix(0.7313537,0.68199836,-0.68199836,0.7313537,0,0)"
       style="font-size:23.73831177px;font-style:normal;font-weight:normal;text-align:start;text-anchor:start;fill:#3475cd;font-family:Arial"
       id="text3108">
      <path
         d="m 523.84214,-107.56836 c -0.77274,0.65682 -1.5165,1.12046 -2.23126,1.39092 -0.71479,0.27045 -1.48172,0.40568 -2.30081,0.40568 -1.35229,0 -2.39161,-0.33034 -3.11797,-0.99103 -0.72637,-0.66068 -1.08956,-1.50489 -1.08956,-2.53262 0,-0.60273 0.13716,-1.1533 0.41148,-1.65172 0.27432,-0.4984 0.63364,-0.89829 1.07796,-1.19966 0.44432,-0.30136 0.94466,-0.52932 1.50103,-0.68387 0.40955,-0.10818 1.02773,-0.2125 1.85456,-0.31296 1.68455,-0.2009 2.92478,-0.44045 3.7207,-0.71864 0.008,-0.2859 0.0116,-0.46749 0.0116,-0.54477 -10e-6,-0.85 -0.19705,-1.44886 -0.59114,-1.7966 -0.53319,-0.47136 -1.32524,-0.70704 -2.37615,-0.70705 -0.98137,1e-5 -1.7058,0.17194 -2.1733,0.51579 -0.46751,0.34388 -0.81331,0.95241 -1.03739,1.82558 l -2.04002,-0.27818 c 0.18546,-0.87318 0.49069,-1.57829 0.91569,-2.11535 0.425,-0.53704 1.03932,-0.95045 1.84297,-1.24024 0.80363,-0.28976 1.73477,-0.43465 2.79342,-0.43466 1.05091,10e-6 1.90477,0.12365 2.5616,0.37091 0.65682,0.24729 1.13977,0.55831 1.44888,0.93308 0.30908,0.37478 0.52544,0.84808 0.64909,1.41989 0.0695,0.35547 0.10431,0.99683 0.10432,1.9241 l 0,2.78184 c -10e-6,1.93955 0.0444,3.16626 0.1333,3.68013 0.0889,0.51387 0.26464,1.00648 0.52739,1.47785 l -2.17911,0 c -0.21637,-0.43273 -0.35546,-0.93887 -0.41727,-1.51842 z m -0.17387,-4.65957 c -0.75728,0.3091 -1.8932,0.57183 -3.40774,0.78819 -0.85774,0.12364 -1.46433,0.26273 -1.81979,0.41727 -0.35546,0.15455 -0.62978,0.38058 -0.82295,0.67807 -0.19319,0.29751 -0.28978,0.62785 -0.28978,0.99103 0,0.55637 0.21057,1.02001 0.63171,1.39092 0.42113,0.37091 1.03739,0.55637 1.84876,0.55636 0.80363,1e-5 1.51841,-0.17579 2.14433,-0.52739 0.6259,-0.35159 1.08568,-0.83261 1.37932,-1.44307 0.22409,-0.47136 0.33613,-1.16682 0.33614,-2.08638 z"
         style="font-size:23.73831177px;font-style:normal;font-weight:normal;text-align:start;text-anchor:start;fill:#3475cd;font-family:Arial"
         id="path3204" />
    </g>
    <g
       transform="matrix(0.7313537,0.68199836,-0.68199836,0.7313537,0,0)"
       style="font-size:23.73831177px;font-style:normal;font-weight:normal;text-align:start;text-anchor:start;fill:#3475cd;font-family:Arial"
       id="text3110">
      <path
         d="m 529.03777,-106.47038 0,-16.99237 2.08637,0 0,16.99237 z"
         style="font-size:23.73831177px;font-style:normal;font-weight:normal;text-align:start;text-anchor:start;fill:#3475cd;font-family:Arial"
         id="path3201" />
    </g>
    <g
       transform="matrix(0.7313537,0.68199836,-0.68199836,0.7313537,0,0)"
       style="font-size:23.73831177px;font-style:normal;font-weight:normal;text-align:start;text-anchor:start;fill:#3475cd;font-family:Arial"
       id="text3112">
      <path
         d="m 534.33519,-106.28539 0,-16.99237 2.08637,0 0,16.99237 z"
         style="font-size:23.73831177px;font-style:normal;font-weight:normal;text-align:start;text-anchor:start;fill:#3475cd;font-family:Arial"
         id="path3198" />
    </g>
    <path
       inkscape:connector-curvature="0"
       style="fill:none;stroke:#285ea6;stroke-width:5.23179913px;stroke-linecap:round;stroke-linejoin:round;stroke-opacity:1;stroke-dasharray:none"
       d="M 79.461786,327.03384 174.10269,244.73062"
       id="path3114" />
    <path
       inkscape:connector-curvature="0"
       style="fill:#285ea6;fill-opacity:1;fill-rule:evenodd;stroke:none"
       d="m 165.12273,238.48369 22.95745,-5.93458 -9.05804,21.94233 -13.89941,-16.00775 z"
       id="path3116" />
    <g
       transform="matrix(0.75470958,-0.65605903,0.65605903,0.75470958,0,0)"
       style="font-size:23.73831177px;font-style:normal;font-weight:normal;text-align:start;text-anchor:start;fill:#3475cd;font-family:Arial"
       id="text3118">
      <path
         d="m -88.788442,281.56012 2.248649,0.56796 c -0.471382,1.84683 -1.319454,3.25513 -2.544219,4.22491 -1.224792,0.96978 -2.721957,1.45467 -4.491501,1.45467 -1.831381,0 -3.32082,-0.37285 -4.46832,-1.11853 -1.14751,-0.74569 -2.020697,-1.82558 -2.619557,-3.23968 -0.59887,-1.41409 -0.8983,-2.93251 -0.8983,-4.55525 0,-1.76955 0.33806,-3.31307 1.01421,-4.63059 0.676134,-1.3175 1.638183,-2.31818 2.886149,-3.00207 1.247955,-0.68385 2.621484,-1.02578 4.12059,-1.0258 1.699999,2e-5 3.129551,0.43275 4.28866,1.29819 1.159083,0.86548 1.966586,2.08253 2.422514,3.65116 l -2.213876,0.52159 c -0.394107,-1.23636 -0.965927,-2.13659 -1.715464,-2.70069 -0.749561,-0.56408 -1.692292,-0.84613 -2.828197,-0.84615 -1.305925,2e-5 -2.397407,0.31298 -3.27445,0.93887 -0.877055,0.62593 -1.493308,1.46627 -1.84876,2.52104 -0.355461,1.05479 -0.533189,2.14241 -0.533185,3.26286 -4e-6,1.44501 0.210566,2.7065 0.631708,3.78445 0.421134,1.07797 1.076023,1.88354 1.96467,2.41672 0.888634,0.53319 1.850684,0.79978 2.886152,0.79978 1.259542,0 2.32591,-0.36319 3.199108,-1.08956 0.873174,-0.72636 1.464313,-1.80432 1.773419,-3.23388 z"
         style="font-size:23.73831177px;font-style:normal;font-weight:normal;text-align:start;text-anchor:start;fill:#3475cd;font-family:Arial"
         id="path3159" />
    </g>
    <g
       transform="matrix(0.75470958,-0.65605903,0.65605903,0.75470958,0,0)"
       style="font-size:23.73831177px;font-style:normal;font-weight:normal;text-align:start;text-anchor:start;fill:#3475cd;font-family:Arial"
       id="text3120">
      <path
         d="m -76.340373,285.70985 c -0.77274,0.65683 -1.516494,1.12047 -2.231262,1.39092 -0.714784,0.27046 -1.481719,0.40568 -2.300808,0.40568 -1.352284,0 -2.391607,-0.33034 -3.117972,-0.99102 -0.726369,-0.66069 -1.089552,-1.5049 -1.089551,-2.53263 -10e-7,-0.60273 0.137158,-1.1533 0.411479,-1.65171 0.274318,-0.49841 0.633638,-0.8983 1.077961,-1.19967 0.444317,-0.30136 0.944661,-0.52931 1.501031,-0.68387 0.409543,-0.10817 1.027728,-0.21249 1.854555,-0.31295 1.684547,-0.20091 2.92478,-0.44045 3.720702,-0.71864 0.0077,-0.28591 0.01158,-0.4675 0.01159,-0.54478 -9e-6,-0.85 -0.197055,-1.44886 -0.591139,-1.7966 -0.533193,-0.47136 -1.325242,-0.70704 -2.37615,-0.70705 -0.981374,1e-5 -1.705809,0.17194 -2.173307,0.5158 -0.467506,0.34387 -0.813303,0.9524 -1.037392,1.82558 l -2.040011,-0.27819 c 0.185454,-0.87317 0.490683,-1.57829 0.915687,-2.11535 0.424999,-0.53704 1.03932,-0.95045 1.842964,-1.24023 0.803636,-0.28977 1.734777,-0.43465 2.793425,-0.43466 1.050907,10e-6 1.904774,0.12364 2.561605,0.37091 0.656811,0.24728 1.139768,0.55831 1.448871,0.93307 0.309082,0.37479 0.525446,0.84808 0.649095,1.41989 0.06953,0.35547 0.104307,0.99684 0.104318,1.92411 l 0,2.78183 c -1.1e-5,1.93956 0.04442,3.16627 0.133297,3.68013 0.08885,0.51387 0.264648,1.00649 0.527389,1.47785 l -2.179103,0 c -0.216375,-0.43273 -0.355466,-0.93887 -0.417275,-1.51842 z m -0.173865,-4.65957 c -0.757285,0.3091 -1.893199,0.57183 -3.407746,0.78819 -0.857737,0.12364 -1.46433,0.26273 -1.819782,0.41727 -0.355461,0.15456 -0.62978,0.38058 -0.822959,0.67808 -0.193186,0.2975 -0.289778,0.62784 -0.289775,0.99102 -3e-6,0.55637 0.210566,1.02001 0.631708,1.39092 0.421135,0.37091 1.037388,0.55637 1.84876,0.55637 0.803635,0 1.518411,-0.1758 2.14433,-0.52739 0.625905,-0.35159 1.085679,-0.83262 1.379326,-1.44308 0.224083,-0.47136 0.336129,-1.16682 0.336138,-2.08637 z"
         style="font-size:23.73831177px;font-style:normal;font-weight:normal;text-align:start;text-anchor:start;fill:#3475cd;font-family:Arial"
         id="path3156" />
    </g>
    <g
       transform="matrix(0.75470958,-0.65605903,0.65605903,0.75470958,0,0)"
       style="font-size:23.73831177px;font-style:normal;font-weight:normal;text-align:start;text-anchor:start;fill:#3475cd;font-family:Arial"
       id="text3122">
      <path
         d="m -71.138214,287.18515 0,-16.99237 2.086375,0 0,16.99237 z"
         style="font-size:23.73831177px;font-style:normal;font-weight:normal;text-align:start;text-anchor:start;fill:#3475cd;font-family:Arial"
         id="path3153" />
    </g>
    <g
       transform="matrix(0.75470958,-0.65605903,0.65605903,0.75470958,0,0)"
       style="font-size:23.73831177px;font-style:normal;font-weight:normal;text-align:start;text-anchor:start;fill:#3475cd;font-family:Arial"
       id="text3124">
      <path
         d="m -65.850426,286.8154 0,-16.99237 2.086375,0 0,16.99237 z"
         style="font-size:23.73831177px;font-style:normal;font-weight:normal;text-align:start;text-anchor:start;fill:#3475cd;font-family:Arial"
         id="path3150" />
    </g>
    <path
       inkscape:connector-curvature="0"
       style="fill:none;stroke:#285ea6;stroke-width:5.23179913px;stroke-linecap:round;stroke-linejoin:round;stroke-opacity:1;stroke-dasharray:none"
       d="m 258.90469,241.99759 -94.719,84.48965"
       id="path3126" />
    <path
       inkscape:connector-curvature="0"
       style="fill:#285ea6;fill-opacity:1;fill-rule:evenodd;stroke:none"
       d="m 173.16565,332.65608 -22.87936,6.16883 8.82378,-22.0204 14.05558,15.85157 z"
       id="path3128" />
    <g
       transform="matrix(0.75470958,-0.65605903,0.65605903,0.75470958,0,0)"
       style="font-size:23.73831177px;font-style:normal;font-weight:normal;text-align:start;text-anchor:start;fill:#3475cd;font-family:Arial"
       id="text3130">
      <path
         d="m -66.717105,383.43137 0,-16.99237 7.534132,0 c 1.514543,2e-5 2.665911,0.15263 3.45411,0.45784 0.788172,0.30525 1.417948,0.84423 1.889328,1.61694 0.471351,0.77275 0.707034,1.62662 0.707049,2.56161 -1.5e-5,1.20547 -0.390244,2.22161 -1.170688,3.04843 -0.780472,0.82683 -1.985932,1.35228 -3.616383,1.57637 0.594992,0.28592 1.047039,0.56796 1.356144,0.84614 0.656809,0.60274 1.278857,1.35615 1.866146,2.26024 l 2.955698,4.6248 -2.828197,0 -2.248649,-3.53525 c -0.656833,-1.02 -1.197744,-1.80046 -1.622736,-2.34138 -0.425012,-0.5409 -0.805582,-0.91954 -1.141711,-1.13591 -0.336147,-0.21636 -0.67808,-0.36704 -1.025801,-0.45205 -0.255009,-0.0541 -0.672284,-0.0811 -1.251825,-0.0811 l -2.607969,0 0,7.54573 z m 2.248648,-9.49301 4.833436,0 c 1.027723,1e-5 1.831363,-0.10624 2.410922,-0.31875 0.579537,-0.21249 1.019993,-0.55249 1.321371,-1.02001 0.301352,-0.46749 0.452035,-0.97556 0.452048,-1.52421 -1.3e-5,-0.80363 -0.291719,-1.46431 -0.875118,-1.98206 -0.583424,-0.51771 -1.504906,-0.77658 -2.764447,-0.77659 l -5.378212,0 z"
         style="font-size:23.73831177px;font-style:normal;font-weight:normal;text-align:start;text-anchor:start;fill:#3475cd;font-family:Arial"
         id="path3195" />
    </g>
    <g
       transform="matrix(0.75470958,-0.65605903,0.65605903,0.75470958,0,0)"
       style="font-size:23.73831177px;font-style:normal;font-weight:normal;text-align:start;text-anchor:start;fill:#3475cd;font-family:Arial"
       id="text3132">
      <path
         d="m -41.785571,379.17764 2.155921,0.26659 c -0.340013,1.25956 -0.969789,2.23706 -1.889328,2.93252 -0.91956,0.69546 -2.094111,1.04319 -3.523656,1.04319 -1.800469,0 -3.228089,-0.55444 -4.282864,-1.66331 -1.05478,-1.10886 -1.582169,-2.66398 -1.582168,-4.66536 -10e-7,-2.07092 0.533183,-3.6782 1.599554,-4.82185 1.066366,-1.14363 2.449554,-1.71545 4.149568,-1.71546 1.64591,10e-6 2.990462,0.56024 4.033659,1.68069 1.043176,1.12047 1.564769,2.69684 1.564781,4.72912 -1.2e-5,0.12364 -0.0039,0.30909 -0.01159,0.55636 l -9.18005,0 c 0.07727,1.35229 0.459772,2.38775 1.147506,3.10638 0.687726,0.71865 1.545457,1.07796 2.573196,1.07796 0.764997,0 1.417954,-0.2009 1.958874,-0.60273 0.540903,-0.40181 0.969769,-1.04318 1.286598,-1.9241 z m -6.850264,-3.37297 6.873446,0 c -0.09274,-1.03545 -0.355466,-1.81205 -0.788186,-2.32979 -0.664557,-0.80363 -1.526152,-1.20545 -2.584787,-1.20546 -0.958192,10e-6 -1.763764,0.3207 -2.416717,0.96205 -0.652962,0.64138 -1.014214,1.49911 -1.083756,2.5732 z"
         style="font-size:23.73831177px;font-style:normal;font-weight:normal;text-align:start;text-anchor:start;fill:#3475cd;font-family:Arial"
         id="path3192" />
    </g>
    <g
       transform="matrix(0.75470958,-0.65605903,0.65605903,0.75470958,0,0)"
       style="font-size:23.73831177px;font-style:normal;font-weight:normal;text-align:start;text-anchor:start;fill:#3475cd;font-family:Arial"
       id="text3134">
      <path
         d="m -37.765695,379.42433 2.063193,-0.32455 c 0.115907,0.82682 0.438522,1.46046 0.967847,1.90092 0.529316,0.44046 1.269206,0.66068 2.219671,0.66068 0.95818,0 1.669092,-0.19511 2.132739,-0.58534 0.46363,-0.39023 0.695449,-0.84807 0.695458,-1.37353 -9e-6,-0.47136 -0.204782,-0.84227 -0.614321,-1.11273 -0.285919,-0.18546 -0.996831,-0.42114 -2.132739,-0.70705 -1.530013,-0.38636 -2.590586,-0.72057 -3.181722,-1.00262 -0.591142,-0.28204 -1.039326,-0.67227 -1.344553,-1.17069 -0.30523,-0.49841 -0.457845,-1.04898 -0.457843,-1.65172 -2e-6,-0.54863 0.125567,-1.0567 0.376706,-1.52421 0.251136,-0.46749 0.59307,-0.85579 1.025801,-1.16489 0.324545,-0.23954 0.766933,-0.44238 1.327167,-0.60853 0.560226,-0.16612 1.161024,-0.24919 1.802396,-0.2492 0.965908,10e-6 1.81398,0.1391 2.544218,0.41727 0.730223,0.2782 1.269202,0.6549 1.616941,1.13012 0.347719,0.47524 0.587266,1.11081 0.71864,1.90672 l -2.040011,0.27818 c -0.09274,-0.63363 -0.36126,-1.12818 -0.805573,-1.48364 -0.444327,-0.35545 -1.072171,-0.53318 -1.883533,-0.53319 -0.958191,10e-6 -1.642058,0.15842 -2.051602,0.47523 -0.409551,0.31683 -0.614324,0.68774 -0.614321,1.11273 -3e-6,0.27047 0.085,0.51388 0.255001,0.73024 0.169998,0.2241 0.43659,0.40955 0.799777,0.55636 0.208633,0.0773 0.822954,0.25501 1.842965,0.53319 1.47591,0.3941 2.505573,0.71671 3.088994,0.96784 0.583403,0.25115 1.041246,0.61626 1.37353,1.09535 0.332264,0.4791 0.498401,1.0741 0.498412,1.78501 -1.1e-5,0.69546 -0.202853,1.35035 -0.608526,1.96467 -0.405694,0.61432 -0.991037,1.08955 -1.756032,1.42569 -0.765012,0.33614 -1.630471,0.50421 -2.596378,0.50421 -1.599559,0 -2.818541,-0.33228 -3.656952,-0.99683 -0.838415,-0.66454 -1.373531,-1.64978 -1.60535,-2.95569 z"
         style="font-size:23.73831177px;font-style:normal;font-weight:normal;text-align:start;text-anchor:start;fill:#3475cd;font-family:Arial"
         id="path3189" />
    </g>
    <g
       transform="matrix(0.75470958,-0.65605903,0.65605903,0.75470958,0,0)"
       style="font-size:23.73831177px;font-style:normal;font-weight:normal;text-align:start;text-anchor:start;fill:#3475cd;font-family:Arial"
       id="text3136">
      <path
         d="m -17.34534,383.1788 0,-1.80819 c -0.958196,1.39092 -2.260247,2.08638 -3.906158,2.08638 -0.726372,0 -1.404443,-0.1391 -2.034215,-0.41728 -0.629779,-0.27818 -1.097282,-0.62784 -1.402508,-1.04898 -0.305231,-0.42114 -0.519664,-0.93694 -0.643299,-1.5474 -0.085,-0.40954 -0.127502,-1.05864 -0.127501,-1.94728 l 0,-7.62686 2.086375,0 0,6.82708 c -3e-6,1.08956 0.0425,1.82365 0.127501,2.20229 0.131361,0.54864 0.409544,0.97944 0.83455,1.29239 0.424998,0.31296 0.950454,0.46944 1.576372,0.46944 0.625906,0 1.213182,-0.16035 1.761828,-0.48103 0.548631,-0.32068 0.936928,-0.75727 1.164893,-1.30978 0.227947,-0.5525 0.341924,-1.35421 0.341934,-2.40513 l 0,-6.59526 2.086375,0 0,12.30961 z"
         style="font-size:23.73831177px;font-style:normal;font-weight:normal;text-align:start;text-anchor:start;fill:#3475cd;font-family:Arial"
         id="path3186" />
    </g>
    <g
       transform="matrix(0.75470958,-0.65605903,0.65605903,0.75470958,0,0)"
       style="font-size:23.73831177px;font-style:normal;font-weight:normal;text-align:start;text-anchor:start;fill:#3475cd;font-family:Arial"
       id="text3138">
      <path
         d="m -13.120866,382.31604 0,-16.99237 2.086375,0 0,16.99237 z"
         style="font-size:23.73831177px;font-style:normal;font-weight:normal;text-align:start;text-anchor:start;fill:#3475cd;font-family:Arial"
         id="path3183" />
    </g>
    <g
       transform="matrix(0.75470958,-0.65605903,0.65605903,0.75470958,0,0)"
       style="font-size:23.73831177px;font-style:normal;font-weight:normal;text-align:start;text-anchor:start;fill:#3475cd;font-family:Arial"
       id="text3140">
      <path
         d="m -2.2885454,380.89981 0.3013653,1.84297 c -0.5872818,0.12364 -1.1127387,0.18545 -1.5763722,0.18545 -0.757281,0 -1.3445564,-0.11977 -1.7618279,-0.35932 -0.4172777,-0.23954 -0.7109153,-0.55443 -0.8809139,-0.94466 -0.170003,-0.39023 -0.2550033,-1.21125 -0.2550014,-2.46308 l 0,-7.08209 -1.5300084,0 0,-1.62273 1.5300084,0 0,-3.04843 2.0747841,-1.25182 0,4.30025 2.097966,0 0,1.62273 -2.097966,0 0,7.198 c -4e-6,0.595 0.036701,0.97751 0.1101142,1.1475 0.073405,0.17001 0.1931786,0.30524 0.3593202,0.40569 0.1661326,0.10046 0.4037473,0.15068 0.7128448,0.15068 0.231814,0 0.5370427,-0.027 0.9156868,-0.0811 z"
         style="font-size:23.73831177px;font-style:normal;font-weight:normal;text-align:start;text-anchor:start;fill:#3475cd;font-family:Arial"
         id="path3180" />
    </g>
    <path
       inkscape:connector-curvature="0"
       style="fill:none;stroke:#285ea6;stroke-width:5.23179913px;stroke-linecap:round;stroke-linejoin:round;stroke-opacity:1;stroke-dasharray:none"
       d="M 424.21392,336.48232 336.28846,254.64761"
       id="path3142" />
    <path
       inkscape:connector-curvature="0"
       style="fill:#285ea6;fill-opacity:1;fill-rule:evenodd;stroke:none"
       d="m 330.97858,264.17417 -8.27718,-22.17658 22.72319,6.71544 -14.44601,15.46114 z"
       id="path3144" />
    <g
       transform="matrix(0.7313537,0.68199836,-0.68199836,0.7313537,0,0)"
       style="font-size:23.73831177px;font-style:normal;font-weight:normal;text-align:start;text-anchor:start;fill:#3475cd;font-family:Arial"
       id="text3146">
      <path
         d="m 438.61667,-13.285509 0,-16.992366 7.53413,0 c 1.51454,1.7e-5 2.66591,0.152631 3.45411,0.457844 0.78817,0.305245 1.41795,0.844224 1.88933,1.61694 0.47135,0.772746 0.70703,1.626613 0.70705,2.561605 -2e-5,1.205472 -0.39025,2.221613 -1.17069,3.048426 -0.78048,0.826831 -1.98594,1.352288 -3.61639,1.576372 0.595,0.285918 1.04704,0.567965 1.35615,0.846141 0.65681,0.602737 1.27885,1.35615 1.86614,2.26024 l 2.9557,4.624798 -2.8282,0 -2.24864,-3.535247 c -0.65684,-1.020001 -1.19775,-1.800459 -1.62274,-2.341376 -0.42501,-0.540906 -0.80558,-0.919544 -1.14171,-1.135915 -0.33615,-0.216358 -0.67808,-0.367041 -1.0258,-0.452048 -0.25501,-0.05408 -0.67229,-0.08113 -1.25183,-0.08114 l -2.60797,0 0,7.545723 z m 2.24864,-9.493007 4.83344,0 c 1.02772,10e-6 1.83136,-0.106241 2.41092,-0.318751 0.57954,-0.212492 1.02,-0.552493 1.32137,-1.020006 0.30136,-0.467491 0.45204,-0.975562 0.45205,-1.524213 -10e-6,-0.803627 -0.29172,-1.464312 -0.87512,-1.982056 -0.58342,-0.517715 -1.5049,-0.77658 -2.76444,-0.776595 l -5.37822,0 z"
         style="font-size:23.73831177px;font-style:normal;font-weight:normal;text-align:start;text-anchor:start;fill:#3475cd;font-family:Arial"
         id="path3177" />
    </g>
    <g
       transform="matrix(0.7313537,0.68199836,-0.68199836,0.7313537,0,0)"
       style="font-size:23.73831177px;font-style:normal;font-weight:normal;text-align:start;text-anchor:start;fill:#3475cd;font-family:Arial"
       id="text3148">
      <path
         d="m 463.54809,-17.546727 2.15592,0.266593 c -0.34001,1.259555 -0.96979,2.237059 -1.88933,2.932516 -0.91956,0.695458 -2.09411,1.043187 -3.52365,1.043187 -1.80047,0 -3.22809,-0.554434 -4.28287,-1.663304 -1.05478,-1.108867 -1.58217,-2.663988 -1.58217,-4.665367 0,-2.070912 0.53319,-3.678192 1.59956,-4.821844 1.06636,-1.143631 2.44955,-1.715452 4.14957,-1.715464 1.64591,1.2e-5 2.99046,0.560242 4.03365,1.680691 1.04318,1.12047 1.56477,2.696841 1.56479,4.729117 -2e-5,0.123643 -0.004,0.309098 -0.0116,0.556366 l -9.18006,0 c 0.0773,1.352285 0.45978,2.387744 1.14751,3.106381 0.68773,0.718642 1.54546,1.077962 2.5732,1.07796 0.76499,2e-6 1.41795,-0.200908 1.95887,-0.60273 0.5409,-0.401818 0.96977,-1.043185 1.2866,-1.924102 z m -6.85027,-3.372973 6.87345,0 c -0.0927,-1.035451 -0.35546,-1.812046 -0.78818,-2.329785 -0.66456,-0.80363 -1.52616,-1.20545 -2.58479,-1.205461 -0.95819,1.1e-5 -1.76377,0.320694 -2.41672,0.962051 -0.65296,0.641376 -1.01421,1.499107 -1.08376,2.573195 z"
         style="font-size:23.73831177px;font-style:normal;font-weight:normal;text-align:start;text-anchor:start;fill:#3475cd;font-family:Arial"
         id="path3174" />
    </g>
    <g
       transform="matrix(0.7313537,0.68199836,-0.68199836,0.7313537,0,0)"
       style="font-size:23.73831177px;font-style:normal;font-weight:normal;text-align:start;text-anchor:start;fill:#3475cd;font-family:Arial"
       id="text3150">
      <path
         d="m 468.41343,-16.76363 2.06319,-0.324547 c 0.11591,0.826826 0.43852,1.460465 0.96785,1.900919 0.52931,0.440459 1.2692,0.660687 2.21967,0.660686 0.95818,10e-7 1.66909,-0.195113 2.13274,-0.585344 0.46363,-0.390227 0.69545,-0.84807 0.69546,-1.373531 -1e-5,-0.471362 -0.20479,-0.842273 -0.61433,-1.112733 -0.28591,-0.185451 -0.99683,-0.421134 -2.13273,-0.707049 -1.53002,-0.38636 -2.59059,-0.720566 -3.18173,-1.002619 -0.59114,-0.282041 -1.03932,-0.67227 -1.34455,-1.170689 -0.30523,-0.498404 -0.45784,-1.048974 -0.45784,-1.651713 0,-0.54863 0.12557,-1.0567 0.3767,-1.524213 0.25114,-0.467492 0.59307,-0.855789 1.02581,-1.164893 0.32454,-0.239535 0.76693,-0.442376 1.32716,-0.608526 0.56023,-0.166125 1.16103,-0.249193 1.8024,-0.249206 0.96591,1.3e-5 1.81398,0.139104 2.54422,0.417275 0.73022,0.278195 1.2692,0.654902 1.61694,1.13012 0.34772,0.475241 0.58726,1.110812 0.71864,1.906715 l -2.04001,0.278183 c -0.0927,-0.63363 -0.36126,-1.128178 -0.80558,-1.483644 -0.44432,-0.355446 -1.07217,-0.533174 -1.88353,-0.533185 -0.95819,1.1e-5 -1.64206,0.158421 -2.0516,0.47523 -0.40955,0.31683 -0.61433,0.687741 -0.61432,1.112733 -10e-6,0.270465 0.085,0.513876 0.255,0.730232 0.17,0.2241 0.43659,0.409556 0.79978,0.556366 0.20863,0.07728 0.82295,0.25501 1.84296,0.533185 1.47591,0.3941 2.50557,0.716715 3.08899,0.967846 0.58341,0.251144 1.04125,0.61626 1.37353,1.095347 0.33227,0.479099 0.49841,1.074101 0.49842,1.78501 -10e-6,0.695461 -0.20286,1.350351 -0.60853,1.96467 -0.40569,0.614322 -0.99104,1.089552 -1.75603,1.425689 -0.76501,0.336139 -1.63047,0.504207 -2.59638,0.504208 -1.59956,-10e-7 -2.81854,-0.332275 -3.65695,-0.996824 -0.83842,-0.664548 -1.37353,-1.649779 -1.60535,-2.955698 z"
         style="font-size:23.73831177px;font-style:normal;font-weight:normal;text-align:start;text-anchor:start;fill:#3475cd;font-family:Arial"
         id="path3171" />
    </g>
    <g
       transform="matrix(0.7313537,0.68199836,-0.68199836,0.7313537,0,0)"
       style="font-size:23.73831177px;font-style:normal;font-weight:normal;text-align:start;text-anchor:start;fill:#3475cd;font-family:Arial"
       id="text3152">
      <path
         d="m 488.82396,-13.571395 0,-1.808192 c -0.95819,1.390917 -2.26024,2.086375 -3.90616,2.086375 -0.72637,0 -1.40444,-0.139091 -2.03421,-0.417275 -0.62978,-0.278183 -1.09728,-0.627843 -1.40251,-1.048983 -0.30523,-0.421137 -0.51966,-0.936934 -0.6433,-1.547394 -0.085,-0.409545 -0.1275,-1.058639 -0.1275,-1.947284 l 0,-7.62686 2.08638,0 0,6.827083 c -10e-6,1.089556 0.0425,1.82365 0.1275,2.202285 0.13136,0.548642 0.40954,0.979439 0.83455,1.292393 0.42499,0.312958 0.95045,0.469436 1.57637,0.469435 0.62591,1e-6 1.21318,-0.16034 1.76183,-0.481026 0.54863,-0.320681 0.93693,-0.757274 1.16489,-1.30978 0.22795,-0.552499 0.34192,-1.354207 0.34193,-2.405126 l 0,-6.595264 2.08638,0 0,12.309613 z"
         style="font-size:23.73831177px;font-style:normal;font-weight:normal;text-align:start;text-anchor:start;fill:#3475cd;font-family:Arial"
         id="path3168" />
    </g>
    <g
       transform="matrix(0.7313537,0.68199836,-0.68199836,0.7313537,0,0)"
       style="font-size:23.73831177px;font-style:normal;font-weight:normal;text-align:start;text-anchor:start;fill:#3475cd;font-family:Arial"
       id="text3154">
      <path
         d="m 493.07103,-13.139747 0,-16.992365 2.08637,0 0,16.992365 z"
         style="font-size:23.73831177px;font-style:normal;font-weight:normal;text-align:start;text-anchor:start;fill:#3475cd;font-family:Arial"
         id="path3165" />
    </g>
    <g
       transform="matrix(0.7313537,0.68199836,-0.68199836,0.7313537,0,0)"
       style="font-size:23.73831177px;font-style:normal;font-weight:normal;text-align:start;text-anchor:start;fill:#3475cd;font-family:Arial"
       id="text3156">
      <path
         d="m 502.97013,-14.820902 0.30137,1.842964 c -0.58729,0.123637 -1.11274,0.185456 -1.57638,0.185456 -0.75728,0 -1.34455,-0.119774 -1.76182,-0.35932 -0.41728,-0.239547 -0.71092,-0.554434 -0.88092,-0.944665 -0.17,-0.390227 -0.255,-1.211254 -0.255,-2.463081 l 0,-7.082084 -1.53001,0 0,-1.622737 1.53001,0 0,-3.048425 2.07479,-1.251825 0,4.30025 2.09796,0 0,1.622737 -2.09796,0 0,7.197993 c -10e-6,0.595007 0.0367,0.977508 0.11011,1.147507 0.0734,0.170003 0.19318,0.305231 0.35932,0.405684 0.16613,0.100457 0.40375,0.150684 0.71284,0.150682 0.23182,2e-6 0.53705,-0.02704 0.91569,-0.08114 z"
         style="font-size:23.73831177px;font-style:normal;font-weight:normal;text-align:start;text-anchor:start;fill:#3475cd;font-family:Arial"
         id="path3162" />
    </g>
  </g>
</svg>
