<?xml version="1.0" encoding="UTF-8" standalone="no"?>
<!-- Created with Inkscape (http://www.inkscape.org/) -->

<svg
   xmlns:dc="http://purl.org/dc/elements/1.1/"
   xmlns:cc="http://creativecommons.org/ns#"
   xmlns:rdf="http://www.w3.org/1999/02/22-rdf-syntax-ns#"
   xmlns:svg="http://www.w3.org/2000/svg"
   xmlns="http://www.w3.org/2000/svg"
   xmlns:xlink="http://www.w3.org/1999/xlink"
   xmlns:sodipodi="http://sodipodi.sourceforge.net/DTD/sodipodi-0.dtd"
   xmlns:inkscape="http://www.inkscape.org/namespaces/inkscape"
   id="svg3071"
   version="1.1"
   inkscape:version="0.48.4 r9939"
   width="152.63287"
   height="34.354534"
   sodipodi:docname="wamp_grey.svg"
   inkscape:export-filename="F:\svnwork\tavendo\mymepad\research\Tavendo\Products\Autobahn\Design\elements\autobahnws_design.png"
   inkscape:export-xdpi="90"
   inkscape:export-ydpi="90">
  <metadata
     id="metadata3077">
    <rdf:RDF>
      <cc:Work
         rdf:about="">
        <dc:format>image/svg+xml</dc:format>
        <dc:type
           rdf:resource="http://purl.org/dc/dcmitype/StillImage" />
        <dc:title></dc:title>
      </cc:Work>
    </rdf:RDF>
  </metadata>
  <defs
     id="defs3075">
    <linearGradient
       y2="1209.3622"
       x2="77"
       y1="1297.3622"
       x1="78"
       gradientTransform="matrix(1.1821711,0,0,0.41307235,5667.0431,-6392.092)"
       gradientUnits="userSpaceOnUse"
       id="linearGradient4258-6-8-9"
       xlink:href="#linearGradient4231-5-0-9-4"
       inkscape:collect="always" />
    <linearGradient
       id="linearGradient4231-5-0-9-4">
      <stop
         style="stop-color:#848484;stop-opacity:1;"
         offset="0"
         id="stop4233-0-2-27-7" />
      <stop
         style="stop-color:#f4f4f4;stop-opacity:1;"
         offset="1"
         id="stop4235-2-4-9-8" />
    </linearGradient>
    <linearGradient
       y2="1209.3622"
       x2="77"
       y1="1297.3622"
       x1="78"
       gradientTransform="matrix(1.1821711,0,0,0.41307235,5667.0431,-6392.092)"
       gradientUnits="userSpaceOnUse"
       id="linearGradient4258-6-8-9-8"
       xlink:href="#linearGradient4231-5-0-9-4-2"
       inkscape:collect="always" />
    <linearGradient
       id="linearGradient4231-5-0-9-4-2">
      <stop
         style="stop-color:#808080;stop-opacity:1;"
         offset="0"
         id="stop4233-0-2-27-7-5" />
      <stop
         style="stop-color:#bbbbbb;stop-opacity:1;"
         offset="1"
         id="stop4235-2-4-9-8-3" />
    </linearGradient>
    <linearGradient
       y2="1209.3622"
       x2="77"
       y1="1297.3622"
       x1="78"
       gradientTransform="matrix(0.97669856,0,0,0.41307235,576.22959,-396.09025)"
       gradientUnits="userSpaceOnUse"
       id="linearGradient4330-3"
       xlink:href="#linearGradient4231-5-0-9-4-2-4"
       inkscape:collect="always" />
    <linearGradient
       id="linearGradient4231-5-0-9-4-2-4">
      <stop
         style="stop-color:#9ed106;stop-opacity:1;"
         offset="0"
         id="stop4233-0-2-27-7-5-0" />
      <stop
         style="stop-color:#f4fed5;stop-opacity:1;"
         offset="1"
         id="stop4235-2-4-9-8-3-0" />
    </linearGradient>
    <linearGradient
       y2="1209.3622"
       x2="77"
       y1="1297.3622"
       x1="78"
       gradientTransform="matrix(1.1821711,0,0,1.3427183,-42.137102,1651.952)"
       gradientUnits="userSpaceOnUse"
       id="linearGradient4305-5"
       xlink:href="#linearGradient4231-5-0-9-4-3"
       inkscape:collect="always" />
    <linearGradient
       id="linearGradient4231-5-0-9-4-3">
      <stop
         style="stop-color:#848484;stop-opacity:1;"
         offset="0"
         id="stop4233-0-2-27-7-1" />
      <stop
         style="stop-color:#f4f4f4;stop-opacity:1;"
         offset="1"
         id="stop4235-2-4-9-8-0" />
    </linearGradient>
    <linearGradient
       y2="1209.3622"
       x2="77"
       y1="1297.3622"
       x1="78"
       gradientTransform="matrix(1.1821711,0,0,0.41307235,-78.197027,4088.8658)"
       gradientUnits="userSpaceOnUse"
       id="linearGradient4330-3-5"
       xlink:href="#linearGradient4231-5-0-9-4-2-4-4"
       inkscape:collect="always" />
    <linearGradient
       id="linearGradient4231-5-0-9-4-2-4-4">
      <stop
         style="stop-color:#a1d700;stop-opacity:1;"
         offset="0"
         id="stop4233-0-2-27-7-5-0-2" />
      <stop
         style="stop-color:#f4fed5;stop-opacity:1;"
         offset="1"
         id="stop4235-2-4-9-8-3-0-5" />
    </linearGradient>
    <linearGradient
       y2="1209.3622"
       x2="77"
       y1="1297.3622"
       x1="78"
       gradientTransform="matrix(0.97669847,0,0,1.3991107,576.22957,-817.29345)"
       gradientUnits="userSpaceOnUse"
       id="linearGradient8253"
       xlink:href="#linearGradient4231-5-0-9-4-2-4-4"
       inkscape:collect="always" />
    <linearGradient
       y2="1209.3622"
       x2="77"
       y1="1297.3622"
       x1="78"
       gradientTransform="matrix(0.97669856,0,0,0.41307235,116.22959,4088.8658)"
       gradientUnits="userSpaceOnUse"
       id="linearGradient4330-3-3"
       xlink:href="#linearGradient4231-5-0-9-4-2-4-9"
       inkscape:collect="always" />
    <linearGradient
       id="linearGradient4231-5-0-9-4-2-4-9">
      <stop
         style="stop-color:#9ed106;stop-opacity:1;"
         offset="0"
         id="stop4233-0-2-27-7-5-0-4" />
      <stop
         style="stop-color:#f4fed5;stop-opacity:1;"
         offset="1"
         id="stop4235-2-4-9-8-3-0-56" />
    </linearGradient>
    <linearGradient
       inkscape:collect="always"
       xlink:href="#linearGradient4231-5-0-9-4-2-4-9-6"
       id="linearGradient8412-5"
       gradientUnits="userSpaceOnUse"
       gradientTransform="matrix(0.04359867,0,0,0.2722703,31.222194,4718.9664)"
       x1="78"
       y1="1297.3622"
       x2="77"
       y2="1209.3622" />
    <linearGradient
       id="linearGradient4231-5-0-9-4-2-4-9-6">
      <stop
         style="stop-color:#9ed106;stop-opacity:1;"
         offset="0"
         id="stop4233-0-2-27-7-5-0-4-6" />
      <stop
         style="stop-color:#f4fed5;stop-opacity:1;"
         offset="1"
         id="stop4235-2-4-9-8-3-0-56-1" />
    </linearGradient>
    <linearGradient
       inkscape:collect="always"
       xlink:href="#linearGradient4231-5-0-9-4-2-4-9-8"
       id="linearGradient8412-6"
       gradientUnits="userSpaceOnUse"
       gradientTransform="matrix(0.04359867,0,0,0.2722703,31.222194,4718.9664)"
       x1="78"
       y1="1297.3622"
       x2="77"
       y2="1209.3622" />
    <linearGradient
       id="linearGradient4231-5-0-9-4-2-4-9-8">
      <stop
         style="stop-color:#9ed106;stop-opacity:1;"
         offset="0"
         id="stop4233-0-2-27-7-5-0-4-2" />
      <stop
         style="stop-color:#f4fed5;stop-opacity:1;"
         offset="1"
         id="stop4235-2-4-9-8-3-0-56-5" />
    </linearGradient>
    <linearGradient
       inkscape:collect="always"
       xlink:href="#linearGradient4231-5-0-9-4-2-4-9-7"
       id="linearGradient8412-51"
       gradientUnits="userSpaceOnUse"
       gradientTransform="matrix(0.04359867,0,0,0.2722703,31.222194,4718.9664)"
       x1="78"
       y1="1297.3622"
       x2="77"
       y2="1209.3622" />
    <linearGradient
       id="linearGradient4231-5-0-9-4-2-4-9-7">
      <stop
         style="stop-color:#9ed106;stop-opacity:1;"
         offset="0"
         id="stop4233-0-2-27-7-5-0-4-60" />
      <stop
         style="stop-color:#f4fed5;stop-opacity:1;"
         offset="1"
         id="stop4235-2-4-9-8-3-0-56-0" />
    </linearGradient>
    <linearGradient
       id="linearGradient4231-5-0-9-4-2-4-9-1">
      <stop
         style="stop-color:#9ed106;stop-opacity:1;"
         offset="0"
         id="stop4233-0-2-27-7-5-0-4-3" />
      <stop
         style="stop-color:#f4fed5;stop-opacity:1;"
         offset="1"
         id="stop4235-2-4-9-8-3-0-56-8" />
    </linearGradient>
    <linearGradient
       inkscape:collect="always"
       xlink:href="#linearGradient4231-5-0-9-4-2-4-9-1"
       id="linearGradient4221"
       gradientUnits="userSpaceOnUse"
       gradientTransform="matrix(0.04359867,0,0,0.2722703,876.0762,-592.8922)"
       x1="78"
       y1="1297.3622"
       x2="77"
       y2="1209.3622" />
    <linearGradient
       inkscape:collect="always"
       xlink:href="#linearGradient4231-5-0-9-4-2-4-9-1-3"
       id="linearGradient4221-9"
       gradientUnits="userSpaceOnUse"
       gradientTransform="matrix(0.04359867,0,0,0.2722703,876.0762,-592.8922)"
       x1="78"
       y1="1297.3622"
       x2="77"
       y2="1209.3622" />
    <linearGradient
       id="linearGradient4231-5-0-9-4-2-4-9-1-3">
      <stop
         style="stop-color:#9ed106;stop-opacity:1;"
         offset="0"
         id="stop4233-0-2-27-7-5-0-4-3-1" />
      <stop
         style="stop-color:#f4fed5;stop-opacity:1;"
         offset="1"
         id="stop4235-2-4-9-8-3-0-56-8-9" />
    </linearGradient>
    <linearGradient
       y2="1209.3622"
       x2="77"
       y1="1297.3622"
       x1="78"
       gradientTransform="matrix(0.04359867,0,0,0.2722703,876.07619,-134.87346)"
       gradientUnits="userSpaceOnUse"
       id="linearGradient4238"
       xlink:href="#linearGradient4231-5-0-9-4-2-4-9-1-3"
       inkscape:collect="always" />
    <linearGradient
       inkscape:collect="always"
       xlink:href="#linearGradient4231-5-0-9-4-2-4-9"
       id="linearGradient4260"
       gradientUnits="userSpaceOnUse"
       gradientTransform="matrix(0.04359867,0,0,0.2722703,559.22219,237.0103)"
       x1="78"
       y1="1297.3622"
       x2="77"
       y2="1209.3622" />
    <linearGradient
       id="linearGradient4231-5-0-9-4-2-4-9-7-3">
      <stop
         style="stop-color:#9ed106;stop-opacity:1;"
         offset="0"
         id="stop4233-0-2-27-7-5-0-4-60-4" />
      <stop
         style="stop-color:#f4fed5;stop-opacity:1;"
         offset="1"
         id="stop4235-2-4-9-8-3-0-56-0-4" />
    </linearGradient>
    <linearGradient
       id="linearGradient4231-5-0-9-4-2-4-9-8-0">
      <stop
         style="stop-color:#9ed106;stop-opacity:1;"
         offset="0"
         id="stop4233-0-2-27-7-5-0-4-2-6" />
      <stop
         style="stop-color:#f4fed5;stop-opacity:1;"
         offset="1"
         id="stop4235-2-4-9-8-3-0-56-5-6" />
    </linearGradient>
    <linearGradient
       id="linearGradient4231-5-0-9-4-2-4-9-6-8">
      <stop
         style="stop-color:#9ed106;stop-opacity:1;"
         offset="0"
         id="stop4233-0-2-27-7-5-0-4-6-4" />
      <stop
         style="stop-color:#f4fed5;stop-opacity:1;"
         offset="1"
         id="stop4235-2-4-9-8-3-0-56-1-9" />
    </linearGradient>
    <linearGradient
       id="linearGradient4231-5-0-9-4-2-4-9-3">
      <stop
         style="stop-color:#9ed106;stop-opacity:1;"
         offset="0"
         id="stop4233-0-2-27-7-5-0-4-7" />
      <stop
         style="stop-color:#f4fed5;stop-opacity:1;"
         offset="1"
         id="stop4235-2-4-9-8-3-0-56-88" />
    </linearGradient>
    <linearGradient
       inkscape:collect="always"
       xlink:href="#linearGradient4639-1"
       id="linearGradient4645-0"
       x1="2113.3333"
       y1="648.65735"
       x2="2114.6667"
       y2="427.32401"
       gradientUnits="userSpaceOnUse"
       gradientTransform="matrix(1.4320388,0,0,0.86486487,-1013.7088,84.196936)" />
    <linearGradient
       inkscape:collect="always"
       id="linearGradient4639-1">
      <stop
         style="stop-color:#9ed106;stop-opacity:1;"
         offset="0"
         id="stop4641-6" />
      <stop
         style="stop-color:#9ed106;stop-opacity:0;"
         offset="1"
         id="stop4643-4" />
    </linearGradient>
    <linearGradient
       inkscape:collect="always"
       xlink:href="#linearGradient4639-18"
       id="linearGradient4645-6"
       x1="2113.3333"
       y1="648.65735"
       x2="2114.6667"
       y2="427.32401"
       gradientUnits="userSpaceOnUse"
       gradientTransform="matrix(1.4320388,0,0,0.86486487,-1013.7088,84.196936)" />
    <linearGradient
       inkscape:collect="always"
       id="linearGradient4639-18">
      <stop
         style="stop-color:#9ed106;stop-opacity:1;"
         offset="0"
         id="stop4641-9" />
      <stop
         style="stop-color:#9ed106;stop-opacity:0;"
         offset="1"
         id="stop4643-8" />
    </linearGradient>
    <linearGradient
       inkscape:collect="always"
       xlink:href="#linearGradient4639-3"
       id="linearGradient4645-4"
       x1="2113.3333"
       y1="648.65735"
       x2="2114.6667"
       y2="427.32401"
       gradientUnits="userSpaceOnUse"
       gradientTransform="matrix(1.4320388,0,0,0.86486487,-1013.7088,84.196936)" />
    <linearGradient
       inkscape:collect="always"
       id="linearGradient4639-3">
      <stop
         style="stop-color:#9ed106;stop-opacity:1;"
         offset="0"
         id="stop4641-98" />
      <stop
         style="stop-color:#9ed106;stop-opacity:0;"
         offset="1"
         id="stop4643-80" />
    </linearGradient>
    <linearGradient
       inkscape:collect="always"
       xlink:href="#linearGradient4231-5-0-9-4-2-4-9-7-31"
       id="linearGradient8412-51-3"
       gradientUnits="userSpaceOnUse"
       gradientTransform="matrix(0.04359867,0,0,0.2722703,31.222194,4718.9664)"
       x1="78"
       y1="1297.3622"
       x2="77"
       y2="1209.3622" />
    <linearGradient
       id="linearGradient4231-5-0-9-4-2-4-9-7-31">
      <stop
         style="stop-color:#9ed106;stop-opacity:1;"
         offset="0"
         id="stop4233-0-2-27-7-5-0-4-60-0" />
      <stop
         style="stop-color:#f4fed5;stop-opacity:1;"
         offset="1"
         id="stop4235-2-4-9-8-3-0-56-0-8" />
    </linearGradient>
    <linearGradient
       inkscape:collect="always"
       xlink:href="#linearGradient4231-5-0-9-4-2-4-9-8-09"
       id="linearGradient8412-6-1"
       gradientUnits="userSpaceOnUse"
       gradientTransform="matrix(0.04359867,0,0,0.2722703,31.222194,4718.9664)"
       x1="78"
       y1="1297.3622"
       x2="77"
       y2="1209.3622" />
    <linearGradient
       id="linearGradient4231-5-0-9-4-2-4-9-8-09">
      <stop
         style="stop-color:#9ed106;stop-opacity:1;"
         offset="0"
         id="stop4233-0-2-27-7-5-0-4-2-2" />
      <stop
         style="stop-color:#f4fed5;stop-opacity:1;"
         offset="1"
         id="stop4235-2-4-9-8-3-0-56-5-4" />
    </linearGradient>
    <linearGradient
       inkscape:collect="always"
       xlink:href="#linearGradient4231-5-0-9-4-2-4-9-6-1"
       id="linearGradient8412-5-9"
       gradientUnits="userSpaceOnUse"
       gradientTransform="matrix(0.04359867,0,0,0.2722703,31.222194,4718.9664)"
       x1="78"
       y1="1297.3622"
       x2="77"
       y2="1209.3622" />
    <linearGradient
       id="linearGradient4231-5-0-9-4-2-4-9-6-1">
      <stop
         style="stop-color:#9ed106;stop-opacity:1;"
         offset="0"
         id="stop4233-0-2-27-7-5-0-4-6-5" />
      <stop
         style="stop-color:#f4fed5;stop-opacity:1;"
         offset="1"
         id="stop4235-2-4-9-8-3-0-56-1-7" />
    </linearGradient>
    <linearGradient
       inkscape:collect="always"
       xlink:href="#linearGradient4231-5-0-9-4-2-4-9-34"
       id="linearGradient4260-3"
       gradientUnits="userSpaceOnUse"
       gradientTransform="matrix(0.04359867,0,0,0.2722703,2245.2222,237.40614)"
       x1="78"
       y1="1297.3622"
       x2="77"
       y2="1209.3622" />
    <linearGradient
       id="linearGradient4231-5-0-9-4-2-4-9-34">
      <stop
         style="stop-color:#9ed106;stop-opacity:1;"
         offset="0"
         id="stop4233-0-2-27-7-5-0-4-22" />
      <stop
         style="stop-color:#f4fed5;stop-opacity:1;"
         offset="1"
         id="stop4235-2-4-9-8-3-0-56-01" />
    </linearGradient>
    <linearGradient
       y2="1209.3622"
       x2="77"
       y1="1297.3622"
       x1="78"
       gradientTransform="matrix(0.97669847,0,0,1.3991107,2262.2296,-816.89761)"
       gradientUnits="userSpaceOnUse"
       id="linearGradient8253-2"
       xlink:href="#linearGradient4231-5-0-9-4-2-4-4-7"
       inkscape:collect="always" />
    <linearGradient
       id="linearGradient4231-5-0-9-4-2-4-4-7">
      <stop
         style="stop-color:#a1d700;stop-opacity:1;"
         offset="0"
         id="stop4233-0-2-27-7-5-0-2-7" />
      <stop
         style="stop-color:#f4fed5;stop-opacity:1;"
         offset="1"
         id="stop4235-2-4-9-8-3-0-5-0" />
    </linearGradient>
    <linearGradient
       y2="1209.3622"
       x2="77"
       y1="1297.3622"
       x1="78"
       gradientTransform="matrix(0.97669856,0,0,0.41307235,2262.2296,-395.69441)"
       gradientUnits="userSpaceOnUse"
       id="linearGradient4330-3-2"
       xlink:href="#linearGradient4231-5-0-9-4-2-4-41"
       inkscape:collect="always" />
    <linearGradient
       id="linearGradient4231-5-0-9-4-2-4-41">
      <stop
         style="stop-color:#9ed106;stop-opacity:1;"
         offset="0"
         id="stop4233-0-2-27-7-5-0-0" />
      <stop
         style="stop-color:#f4fed5;stop-opacity:1;"
         offset="1"
         id="stop4235-2-4-9-8-3-0-3" />
    </linearGradient>
  </defs>
  <sodipodi:namedview
     pagecolor="#ffffff"
     bordercolor="#666666"
     borderopacity="1"
     objecttolerance="10"
     gridtolerance="10"
     guidetolerance="10"
     inkscape:pageopacity="0"
     inkscape:pageshadow="2"
     inkscape:window-width="1858"
     inkscape:window-height="1178"
     id="namedview3073"
     showgrid="false"
     inkscape:zoom="2"
     inkscape:cx="146.61271"
     inkscape:cy="-18.022048"
     inkscape:window-x="1016"
     inkscape:window-y="-8"
     inkscape:window-maximized="1"
     inkscape:current-layer="svg3071"
     fit-margin-top="4"
     fit-margin-left="4"
     fit-margin-right="4"
     fit-margin-bottom="4"
     showguides="true"
     inkscape:guide-bbox="true" />
  <g
     id="g4837-3-7-1-9-9"
     transform="matrix(0.3707094,0,0,0.3707094,-47.749904,-688.66172)"
     style="fill:#666666"
     inkscape:export-filename="C:\Users\AG\research\Tavendo\Products\Autobahn\Design\elements\wamp_grey.png"
     inkscape:export-xdpi="90"
     inkscape:export-ydpi="90">
    <path
       d="m 201.06234,1936.707 c -8.04143,-22.5816 -16.39465,-44.9826 -25.05966,-67.2032 3.15092,0.066 5.71103,0.099 7.68036,0.099 2.16624,1e-4 4.72638,-0.033 7.68038,-0.099 l 13.78529,40.765 5.76026,16.05 c 1.24721,-2.4288 3.12627,-6.3264 5.6372,-11.6928 2.51086,-5.3664 4.30787,-9.3297 5.39103,-11.8899 -1.50985,-4.595 -3.42175,-10.1584 -5.73566,-16.69 -2.31399,-6.5316 -4.34076,-12.0456 -6.0803,-16.5423 2.78985,0.066 5.23509,0.099 7.33575,0.099 2.33032,1e-4 4.77556,-0.033 7.33575,-0.099 1.54259,5.9408 3.24933,11.816 5.12025,17.6254 2.75698,-5.9407 5.2843,-11.8159 7.5819,-17.6254 2.85547,0.066 5.15299,0.099 6.89263,0.099 2.0021,1e-4 4.29962,-0.033 6.89265,-0.099 -2.10068,4.2013 -4.70183,9.5676 -7.80344,16.0992 -3.10177,6.5316 -5.60446,11.9801 -7.50807,16.3454 0.72201,2.3632 2.06773,6.3675 4.03711,12.0129 1.96928,5.6454 3.41343,9.6333 4.33252,11.9637 l 13.24373,-28.1614 9.60045,-21.0718 3.15093,-7.188 c 3.15082,0.066 5.67814,0.099 7.5819,0.099 2.10053,1e-4 4.64423,-0.033 7.63115,-0.099 l -9.25584,18.3639 -19.34863,39.6819 -4.33252,9.1574 c -3.51204,-0.066 -6.51525,-0.099 -9.00967,-0.099 -2.62583,0 -5.64545,0.033 -9.0589,0.099 -1.93656,-6.63 -4.06999,-13.1452 -6.40031,-19.5455 -3.11815,6.4003 -6.07213,12.9155 -8.86195,19.5455 -3.51202,-0.066 -6.54805,-0.099 -9.10816,-0.099 -2.69144,0 -5.72747,0.033 -9.10813,0.099 z"
       style="font-size:40px;font-style:normal;font-variant:normal;font-weight:normal;font-stretch:normal;text-align:start;line-height:125%;letter-spacing:0px;word-spacing:0px;writing-mode:lr-tb;text-anchor:start;fill:#666666;fill-opacity:1;stroke:none;font-family:Eras Demi ITC;-inkscape-font-specification:Eras Demi ITC"
       id="path3176-4-1-9-3-1-8-1-7-7-4"
       inkscape:connector-curvature="0" />
    <path
       d="m 266.62008,1936.707 c 3.4135,-6.0393 7.4178,-13.5063 12.0129,-22.4011 l 12.94832,-24.8627 c 4.03709,-7.6803 7.38493,-14.3268 10.04356,-19.9394 4.26685,0.066 7.28647,0.099 9.0589,0.099 3.11807,1e-4 6.17051,-0.033 9.15738,-0.099 l 7.04032,20.1363 15.31152,41.6513 2.11704,5.4156 -7.38498,-0.099 c -1.70682,0 -4.57874,0.033 -8.61581,0.099 -0.78778,-2.9211 -2.02682,-6.8598 -3.7171,-11.816 -1.69038,-4.9561 -3.12635,-8.9768 -4.30789,-12.0621 l -25.89665,0 c -3.84022,7.8117 -7.58192,15.7711 -11.22517,23.8781 l -8.025,-0.099 c -1.50982,0 -4.34893,0.033 -8.51734,0.099 z m 32.14926,-34.1186 18.8563,0 -7.72961,-22.7457 -3.98789,8.2712 z"
       style="font-size:40px;font-style:normal;font-variant:normal;font-weight:normal;font-stretch:normal;text-align:start;line-height:125%;letter-spacing:0px;word-spacing:0px;writing-mode:lr-tb;text-anchor:start;fill:#666666;fill-opacity:1;stroke:none;font-family:Eras Demi ITC;-inkscape-font-specification:Eras Demi ITC"
       id="path3178-2-6-3-8-3-01-1-7-6-8"
       inkscape:connector-curvature="0" />
    <path
       d="m 350.31646,1936.707 1.28005,-11.1267 3.24939,-39.0911 1.13236,-16.9854 c 4.69357,0.066 8.12346,0.099 10.28973,0.099 1.73956,1e-4 4.90689,-0.033 9.50202,-0.099 0.52512,2.6586 0.91899,4.5459 1.1816,5.6618 0.26253,1.116 0.77127,2.9048 1.5262,5.3664 0.75489,2.4617 1.72313,5.4485 2.90477,8.9604 1.73954,5.3172 3.29859,10.5688 4.67716,15.7546 l 3.7417,14.0807 6.59725,-18.0686 9.60046,-23.4842 c 0.32818,-0.7876 0.66459,-1.6985 1.00928,-2.7324 0.34458,-1.0339 0.92718,-2.8801 1.74778,-5.5387 3.90578,0.066 7.3849,0.099 10.43744,0.099 2.03489,1e-4 5.28427,-0.033 9.74817,-0.099 -0.4596,9.4528 -0.80424,19.8984 -1.0339,31.3369 -0.2299,11.4385 -0.34472,19.9804 -0.34464,25.6258 -8e-5,2.7242 0.0328,6.1378 0.0986,10.2405 -3.24946,-0.066 -5.46496,-0.099 -6.64648,-0.099 -1.70681,0 -3.97152,0.033 -6.79417,0.099 0.19687,-3.3478 0.32815,-6.1049 0.39387,-8.2712 l 0.83696,-29.2937 c 0.0983,-4.1355 0.14771,-8.2055 0.14771,-12.2098 l -0.0491,-3.9879 -18.16706,47.9039 -2.11701,5.8587 c -3.1838,-0.066 -5.36645,-0.099 -6.54802,-0.099 -1.47703,0 -3.79099,0.033 -6.94186,0.099 l -8.46812,-30.3276 c -0.2954,-1.0831 -0.98468,-3.3478 -2.06779,-6.7942 l -3.05246,-10.0435 c -0.2954,-0.9518 -0.51695,-1.7314 -0.66464,-2.3386 -0.14772,-0.6072 -0.46772,-1.9611 -0.96005,-4.0618 l -0.64001,6.3019 c -0.1641,2.0022 -0.41031,5.35 -0.73851,10.0436 l -1.92009,30.5245 c -0.0655,1.5098 -0.11495,3.7417 -0.14772,6.6957 l -6.35107,-0.099 c -1.08314,0 -3.23297,0.033 -6.44954,0.099 z"
       style="font-size:40px;font-style:normal;font-variant:normal;font-weight:normal;font-stretch:normal;text-align:start;line-height:125%;letter-spacing:0px;word-spacing:0px;writing-mode:lr-tb;text-anchor:start;fill:#666666;fill-opacity:1;stroke:none;font-family:Eras Demi ITC;-inkscape-font-specification:Eras Demi ITC"
       id="path3180-3-8-1-9-5-2-5-7-2-5"
       inkscape:connector-curvature="0" />
    <path
       d="m 441.05316,1936.707 0.88622,-11.6682 1.23082,-25.8475 0.59079,-18.7578 c 0.0328,-1.7067 0.0491,-3.4298 0.0491,-5.1695 0,-1.28 -0.0176,-3.2001 -0.0491,-5.7602 4.20121,0.066 7.61472,0.099 10.24049,0.099 2.10061,1e-4 5.02177,-0.049 8.7635,-0.1477 3.74171,-0.098 6.71209,-0.1477 8.91121,-0.1477 4.52941,10e-5 7.86085,0.3283 9.99432,0.9847 2.26468,0.7221 4.25042,1.8545 5.95724,3.397 1.70669,1.5428 3.00315,3.3972 3.88939,5.5634 0.98463,2.4289 1.47695,5.0382 1.477,7.8281 -5e-5,4.2341 -1.05855,8.0825 -3.17552,11.5451 -2.11709,3.4628 -5.04647,6.0475 -8.78812,7.7543 -3.74176,1.7067 -7.89377,2.5601 -12.456,2.5601 -2.23194,0 -4.61154,-0.2296 -7.13881,-0.6893 -0.72211,-3.4134 -1.54266,-6.6136 -2.46165,-9.6004 2.03494,0.4267 4.0535,0.64 6.05567,0.64 2.72421,0 5.0874,-0.4102 7.08958,-1.2308 2.00212,-0.8205 3.59399,-2.158 4.77561,-4.0126 1.18157,-1.8543 1.77235,-3.9467 1.7724,-6.2772 -5e-5,-1.3784 -0.24627,-2.6421 -0.7385,-3.7909 -0.49237,-1.1487 -1.20624,-2.0678 -2.14164,-2.7571 -0.93547,-0.6892 -1.96935,-1.1569 -3.10169,-1.4031 -1.13239,-0.2461 -2.74889,-0.3692 -4.84947,-0.3693 -1.83807,10e-5 -3.69251,0.033 -5.56335,0.099 -1.87089,0.066 -3.5284,0.099 -4.97253,0.099 -0.39389,6.4332 -0.6893,12.5873 -0.88622,18.4624 l -0.59078,18.8071 c -0.19687,6.6629 -0.29543,11.5534 -0.29541,14.6714 -2e-5,1.1816 0.0151,2.8884 0.0492,5.1203 l -7.13881,-0.099 c -0.91903,0 -3.38068,0.033 -7.38498,0.099 z"
       style="font-size:40px;font-style:normal;font-variant:normal;font-weight:normal;font-stretch:normal;text-align:start;line-height:125%;letter-spacing:0px;word-spacing:0px;writing-mode:lr-tb;text-anchor:start;fill:#666666;fill-opacity:1;stroke:none;font-family:Eras Demi ITC;-inkscape-font-specification:Eras Demi ITC"
       id="path3182-2-5-9-3-9-5-2-7-9-1"
       inkscape:connector-curvature="0" />
    <path
       sodipodi:end="7.3673838"
       sodipodi:start="5.1488609"
       transform="matrix(-1.0182655,0,0,1.0182655,685.0243,1429.1465)"
       d="m 515.64189,431.44914 c 17.33521,9.10555 24.83278,32.31097 16.74629,51.83075 -3.18923,7.69843 -8.52352,14.01382 -15.19198,17.98618 L 501,466.79285 z"
       sodipodi:ry="39"
       sodipodi:rx="34.635284"
       sodipodi:cy="466.79285"
       sodipodi:cx="501"
       id="path4649-1-0-7-3-5-3"
       style="fill:#666666;fill-opacity:1;stroke:none"
       sodipodi:type="arc" />
    <text
       inkscape:export-ydpi="90"
       inkscape:export-xdpi="90"
       inkscape:export-filename="F:\svnwork\tavendo\oberstet\projects\tavendo_visuals\autobahn\wamp\logo.png"
       sodipodi:linespacing="125%"
       id="text3224-7-8-4-8-0-9-6-3-2-2"
       y="1884.146"
       x="501.92734"
       style="font-size:20.32747841000000100px;font-style:normal;font-variant:normal;font-weight:normal;font-stretch:normal;text-align:start;line-height:125%;letter-spacing:0px;word-spacing:0px;writing-mode:lr-tb;text-anchor:start;fill:#666666;fill-opacity:1;stroke:none;font-family:Sans;-inkscape-font-specification:Sans"
       xml:space="preserve"><tspan
         y="1884.146"
         x="501.92734"
         id="tspan3226-6-6-4-4-1-4-1-5-0-8"
         sodipodi:role="line">TM</tspan></text>
  </g>
</svg>
