<?xml version="1.0" encoding="UTF-8" standalone="no"?>
<!-- Created with Inkscape (http://www.inkscape.org/) -->

<svg
   xmlns:dc="http://purl.org/dc/elements/1.1/"
   xmlns:cc="http://creativecommons.org/ns#"
   xmlns:rdf="http://www.w3.org/1999/02/22-rdf-syntax-ns#"
   xmlns:svg="http://www.w3.org/2000/svg"
   xmlns="http://www.w3.org/2000/svg"
   xmlns:sodipodi="http://sodipodi.sourceforge.net/DTD/sodipodi-0.dtd"
   xmlns:inkscape="http://www.inkscape.org/namespaces/inkscape"
   width="1034.3125"
   height="822.6875"
   id="svg4034"
   version="1.1"
   inkscape:version="0.48.5 r10040"
   sodipodi:docname="New document 6">
  <defs
     id="defs4036" />
  <sodipodi:namedview
     id="base"
     pagecolor="#ffffff"
     bordercolor="#666666"
     borderopacity="1.0"
     inkscape:pageopacity="0.0"
     inkscape:pageshadow="2"
     inkscape:zoom="0.35"
     inkscape:cx="517.14555"
     inkscape:cy="411.34359"
     inkscape:document-units="px"
     inkscape:current-layer="layer1"
     showgrid="false"
     fit-margin-top="10"
     fit-margin-left="10"
     fit-margin-right="10"
     fit-margin-bottom="10"
     inkscape:window-width="463"
     inkscape:window-height="423"
     inkscape:window-x="1275"
     inkscape:window-y="225"
     inkscape:window-maximized="0" />
  <metadata
     id="metadata4039">
    <rdf:RDF>
      <cc:Work
         rdf:about="">
        <dc:format>image/svg+xml</dc:format>
        <dc:type
           rdf:resource="http://purl.org/dc/dcmitype/StillImage" />
        <dc:title></dc:title>
      </cc:Work>
    </rdf:RDF>
  </metadata>
  <g
     inkscape:label="Layer 1"
     inkscape:groupmode="layer"
     id="layer1"
     transform="translate(142.14555,-121.01827)">
    <g
       id="g4046"
       transform="translate(-134.1143,129.04952)">
      <path
         id="path4048"
         d="m 626.13324,536.47346 c 13.05421,0 23.60702,-10.63098 23.60702,-23.68519 l 0,0 0,-183.30617 c 0,-13.05422 -10.55281,-23.60702 -23.60702,-23.60702 l -253.73639,0 c -13.05422,0 -23.68519,10.5528 -23.68519,23.60702 l 0,0 0,183.30617 c 0,13.05421 10.63097,23.68519 23.68519,23.68519 l 0,0 253.73639,0 z"
         style="fill:#ffe100;fill-opacity:1;fill-rule:evenodd;stroke:none"
         inkscape:connector-curvature="0" />
      <path
         id="path4050"
         d="m 626.13324,536.47346 c 13.05421,0 23.60702,-10.63098 23.60702,-23.68519 l 0,0 0,-183.30617 c 0,-13.05422 -10.55281,-23.60702 -23.60702,-23.60702 l -253.73639,0 c -13.05422,0 -23.68519,10.5528 -23.68519,23.60702 l 0,0 0,183.30617 c 0,13.05421 10.63097,23.68519 23.68519,23.68519 l 0,0 253.73639,0 z"
         style="fill:none;stroke:#ffc000;stroke-width:5.23731899px;stroke-linecap:round;stroke-linejoin:round;stroke-opacity:1;stroke-dasharray:none"
         inkscape:connector-curvature="0" />
      <path
         id="path4052"
         d="m 407.72921,500.51575 c -3.5176,0.70352 -6.87887,1.09436 -10.08379,1.09436 -1.25071,0 -2.50141,-0.0782 -3.59578,-0.15634 -1.17253,-0.15634 -2.42323,-0.39084 -3.83027,-0.70352 -1.32888,-0.39084 -2.50141,-0.93803 -3.51761,-1.56338 -0.93802,-0.62535 -1.79788,-1.48521 -2.5014,-2.57957 -0.62535,-1.17254 -1.0162,-2.50141 -1.0162,-4.06479 l 0,-13.67956 c 0,-6.25352 4.84648,-9.38028 14.46126,-9.38028 2.34506,0 5.62816,0.39085 9.92745,1.09437 l 0,5.55 c -3.83028,-0.85986 -7.11337,-1.32888 -9.84929,-1.32888 -1.01619,0 -1.95422,0.0782 -2.65774,0.0782 -0.62535,0.0782 -1.40704,0.23451 -2.11056,0.46902 -0.78169,0.31267 -1.32887,0.70352 -1.71972,1.2507 -0.31267,0.54718 -0.54718,1.32887 -0.54718,2.18873 l 0,13.28872 c 0,2.81408 2.57957,4.22112 7.73873,4.22112 2.26689,0 5.39365,-0.46901 9.3021,-1.40704 l 0,5.62817 z"
         style="fill:#000000;fill-opacity:1;fill-rule:evenodd;stroke:none"
         inkscape:connector-curvature="0" />
      <path
         id="path4054"
         d="m 427.42778,483.24041 -2.34507,0 c -1.95422,0 -3.36126,0.23451 -4.37746,0.85986 -0.93802,0.62535 -1.48521,1.64155 -1.48521,3.04859 l 0,13.99224 -6.95703,0 0,-23.29435 6.64436,0 0,4.14296 c 0,-1.17254 0.70352,-2.18873 2.03239,-3.20493 1.2507,-0.93803 2.57958,-1.40704 4.06479,-1.40704 l 2.42323,0 0,5.86267 z"
         style="fill:#000000;fill-opacity:1;fill-rule:evenodd;stroke:none"
         inkscape:connector-curvature="0" />
      <path
         id="path4056"
         d="m 454.16156,486.289 0,6.87886 c 0,1.48521 -0.2345,2.73592 -0.70352,3.83028 -0.46901,1.09437 -1.09436,1.87606 -1.79788,2.50141 -0.70352,0.62535 -1.56338,1.0162 -2.73592,1.40704 -1.17253,0.31268 -2.18873,0.46901 -3.12676,0.54718 -0.93802,0.0782 -2.03239,0.15634 -3.43943,0.15634 -1.32887,0 -2.42324,-0.0782 -3.36126,-0.15634 -1.0162,-0.0782 -2.0324,-0.2345 -3.12676,-0.54718 -1.17254,-0.39084 -2.11056,-0.78169 -2.81408,-1.40704 -0.70352,-0.62535 -1.25071,-1.40704 -1.71972,-2.50141 -0.54718,-1.09436 -0.78169,-2.34507 -0.78169,-3.83028 l 0,-6.87886 c 0,-1.64155 0.31268,-2.97042 0.78169,-4.06479 0.46901,-1.17253 1.09437,-2.03239 1.79789,-2.65774 0.78169,-0.62535 1.71971,-1.09437 2.81408,-1.40704 1.17253,-0.31268 2.18873,-0.54719 3.12676,-0.62535 0.85985,-0.0782 2.03239,-0.15634 3.28309,-0.15634 1.32887,0 2.42324,0.0782 3.36127,0.15634 0.93802,0.0782 1.95422,0.31267 3.12675,0.62535 1.09437,0.31267 2.0324,0.78169 2.73592,1.40704 0.70352,0.62535 1.32887,1.48521 1.87605,2.65774 0.46902,1.09437 0.70352,2.42324 0.70352,4.06479 z m -6.95703,7.66055 0,-8.75492 c 0,-1.2507 -0.31268,-2.11056 -1.0162,-2.65774 -0.62535,-0.54718 -1.87606,-0.78169 -3.83028,-0.78169 -1.87605,0 -3.12676,0.23451 -3.83028,0.78169 -0.62535,0.54718 -0.93802,1.40704 -0.93802,2.65774 l 0,8.75492 c 0,1.25071 0.31267,2.11057 0.93802,2.57958 0.62535,0.46901 1.87606,0.70352 3.83028,0.70352 1.95422,0 3.2831,-0.23451 3.90845,-0.70352 0.62535,-0.46901 0.93803,-1.32887 0.93803,-2.57958 z"
         style="fill:#000000;fill-opacity:1;fill-rule:evenodd;stroke:none"
         inkscape:connector-curvature="0" />
      <path
         id="path4058"
         d="m 479.64464,492.0735 0,2.89225 c 0,1.17253 -0.23451,2.18873 -0.70352,2.97042 -0.39085,0.85986 -0.93803,1.48521 -1.56338,1.95422 -0.70352,0.46902 -1.56338,0.85986 -2.57958,1.09437 -1.09436,0.23451 -2.11056,0.39084 -3.04859,0.46901 -1.01619,0.0782 -2.11056,0.15634 -3.43943,0.15634 -2.50141,0 -5.54999,-0.23451 -9.14577,-0.70352 l 0,-4.69014 c 4.45563,0.70352 7.50422,1.0162 9.22394,1.0162 1.40704,0 2.42324,-0.15634 3.20493,-0.39084 0.70352,-0.31268 1.09436,-0.85986 1.09436,-1.64155 l 0,-1.40704 c 0,-0.78169 -0.15634,-1.32888 -0.62535,-1.64155 -0.39084,-0.39085 -1.2507,-0.62535 -2.65774,-0.62535 l -3.04859,0 c -2.42324,0 -4.29929,-0.46902 -5.62817,-1.40704 -1.40704,-1.0162 -2.03239,-2.42324 -2.03239,-4.2993 l 0,-2.81408 c 0,-2.11056 1.0162,-3.59577 2.97042,-4.37746 2.03239,-0.78169 4.84647,-1.2507 8.52042,-1.2507 1.56337,0 4.29929,0.15634 8.2859,0.46901 l 0,4.45563 c -5.00281,-0.39084 -7.81689,-0.54718 -8.44224,-0.54718 -1.95423,0 -3.20493,0.0782 -3.67394,0.39084 -0.54719,0.23451 -0.78169,0.78169 -0.78169,1.56338 l 0,1.25071 c 0,0.39084 0.2345,0.70352 0.62535,1.01619 0.39084,0.31268 1.0162,0.46902 1.79788,0.46902 l 3.12676,0 c 5.62817,0 8.52042,1.87605 8.52042,5.62816 z"
         style="fill:#000000;fill-opacity:1;fill-rule:evenodd;stroke:none"
         inkscape:connector-curvature="0" />
      <path
         id="path4060"
         d="m 504.81504,492.0735 0,2.89225 c 0,1.17253 -0.23451,2.18873 -0.62535,2.97042 -0.46902,0.85986 -1.0162,1.48521 -1.71972,1.95422 -0.62535,0.46902 -1.48521,0.85986 -2.50141,1.09437 -1.09436,0.23451 -2.11056,0.39084 -3.04859,0.46901 -0.93802,0.0782 -2.11056,0.15634 -3.43943,0.15634 -2.50141,0 -5.54999,-0.23451 -9.14577,-0.70352 l 0,-4.69014 c 4.45563,0.70352 7.50422,1.0162 9.22394,1.0162 1.40704,0 2.42324,-0.15634 3.20493,-0.39084 0.78169,-0.31268 1.17253,-0.85986 1.17253,-1.64155 l 0,-1.40704 c 0,-0.78169 -0.23451,-1.32888 -0.70352,-1.64155 -0.39084,-0.39085 -1.2507,-0.62535 -2.65774,-0.62535 l -2.97042,0 c -2.42324,0 -4.37747,-0.46902 -5.70634,-1.40704 -1.32887,-1.0162 -2.03239,-2.42324 -2.03239,-4.2993 l 0,-2.81408 c 0,-2.11056 1.0162,-3.59577 2.97042,-4.37746 2.03239,-0.78169 4.92464,-1.2507 8.59858,-1.2507 1.48521,0 4.22113,0.15634 8.20774,0.46901 l 0,4.45563 c -5.00281,-0.39084 -7.81689,-0.54718 -8.44224,-0.54718 -1.95423,0 -3.12676,0.0782 -3.67394,0.39084 -0.54719,0.23451 -0.78169,0.78169 -0.78169,1.56338 l 0,1.25071 c 0,0.39084 0.2345,0.70352 0.62535,1.01619 0.39084,0.31268 1.0162,0.46902 1.79788,0.46902 l 3.12676,0 c 5.62817,0 8.52042,1.87605 8.52042,5.62816 z"
         style="fill:#000000;fill-opacity:1;fill-rule:evenodd;stroke:none"
         inkscape:connector-curvature="0" />
      <path
         id="path4062"
         d="m 533.73755,485.19463 0,7.66056 c 0,3.20493 -0.93803,5.39366 -2.81409,6.72253 -1.87605,1.32887 -5.00281,2.03239 -9.22393,2.03239 -4.37746,0 -7.50422,-0.70352 -9.14577,-2.11056 -1.71971,-1.40704 -2.57957,-3.59577 -2.57957,-6.64436 l 0,-25.32674 7.0352,0 0,12.66337 c 0.39085,-1.09437 1.17254,-1.79789 2.34507,-2.18873 1.09437,-0.39085 2.81408,-0.62535 5.15915,-0.62535 1.95422,0 3.59577,0.2345 4.84648,0.46901 1.2507,0.39085 2.18873,0.85986 2.81408,1.64155 0.62535,0.70352 1.09436,1.48521 1.2507,2.34507 0.23451,0.85986 0.31268,2.03239 0.31268,3.36126 z m -6.95704,8.59859 0,-8.59859 c 0,-1.48521 -0.31268,-2.5014 -0.85986,-2.89225 -0.54718,-0.39084 -1.95422,-0.54718 -4.14295,-0.54718 -1.95423,0 -3.2831,0.23451 -3.90845,0.70352 -0.54718,0.54718 -0.85986,1.48521 -0.85986,2.73591 l 0,8.59859 c 0,1.32887 0.23451,2.2669 0.85986,2.73591 0.62535,0.46901 1.95422,0.70352 3.98662,0.70352 2.03239,0 3.36126,-0.23451 3.98661,-0.70352 0.62535,-0.46901 0.93803,-1.40704 0.93803,-2.73591 z"
         style="fill:#000000;fill-opacity:1;fill-rule:evenodd;stroke:none"
         inkscape:connector-curvature="0" />
      <path
         id="path4064"
         d="m 560.08048,501.1411 -6.87887,0 0,-2.11056 c -0.46901,0.93802 -1.17253,1.56337 -2.18873,1.95422 -0.93802,0.39084 -2.65774,0.62535 -5.23732,0.62535 -3.12675,0 -5.23732,-0.46901 -6.25351,-1.48521 -1.0162,-0.93803 -1.48521,-2.97042 -1.48521,-5.94084 0,-2.73591 0.46901,-4.69014 1.56338,-5.7845 1.01619,-1.0162 2.89225,-1.56338 5.62816,-1.56338 l 7.89506,0 0,-1.64155 c 0,-1.32887 -0.39084,-2.2669 -1.01619,-2.73591 -0.62535,-0.46901 -2.03239,-0.70352 -4.14296,-0.70352 -1.95422,0 -4.69013,0.15634 -8.12957,0.54718 l 0,-4.45563 c 2.65775,-0.23451 5.62817,-0.46901 8.83309,-0.46901 4.2993,0 7.26972,0.54718 8.91126,1.56338 1.64155,1.09436 2.50141,3.12675 2.50141,6.17534 l 0,16.02464 z m -6.95704,-5.94084 0,-4.5338 -4.84647,0 c -1.48521,0 -2.50141,0.15634 -2.81408,0.54718 -0.39085,0.31268 -0.62535,1.2507 -0.62535,2.81408 0,1.48521 0.2345,2.42324 0.62535,2.73592 0.39084,0.31267 1.40704,0.46901 3.04859,0.46901 0.78169,0 1.32887,0 1.79788,0 0.31268,-0.0782 0.78169,-0.0782 1.25071,-0.15634 0.39084,-0.0782 0.70352,-0.15634 0.85985,-0.31267 0.23451,-0.15634 0.31268,-0.31268 0.46902,-0.62536 0.15634,-0.2345 0.2345,-0.54718 0.2345,-0.93802 z"
         style="fill:#000000;fill-opacity:1;fill-rule:evenodd;stroke:none"
         inkscape:connector-curvature="0" />
      <path
         id="path4066"
         d="m 581.4206,483.24041 -2.34507,0 c -1.95422,0 -3.36126,0.23451 -4.37746,0.85986 -0.93802,0.62535 -1.40704,1.64155 -1.40704,3.04859 l 0,13.99224 -7.0352,0 0,-23.29435 6.64436,0 0,4.14296 c 0.0782,-1.17254 0.70352,-2.18873 2.03239,-3.20493 1.2507,-0.93803 2.65774,-1.40704 3.98662,-1.40704 l 2.5014,0 0,5.86267 z"
         style="fill:#000000;fill-opacity:1;fill-rule:evenodd;stroke:none"
         inkscape:connector-curvature="0" />
      <path
         id="path4068"
         d="m 585.56356,495.90378 0,5.23732 5.54999,0 0,-5.23732 -5.54999,0 z"
         style="fill:#000000;fill-opacity:1;fill-rule:evenodd;stroke:none"
         inkscape:connector-curvature="0" />
      <path
         id="path4070"
         d="m 602.52622,474.01647 -4.37746,0 0,-4.5338 4.37746,0 0,4.5338 z m 0,27.12463 -4.37746,0 0,-23.29435 4.37746,0 0,23.29435 z"
         style="fill:#000000;fill-opacity:1;fill-rule:evenodd;stroke:none"
         inkscape:connector-curvature="0" />
      <path
         id="path4072"
         d="m 630.5107,485.74182 0,8.0514 c 0,1.40704 -0.15634,2.65774 -0.54718,3.59577 -0.31268,1.01619 -0.78169,1.79788 -1.32888,2.34507 -0.54718,0.54718 -1.32887,0.93802 -2.34506,1.2507 -1.0162,0.31267 -1.95423,0.46901 -2.89226,0.54718 -0.85985,0 -2.11056,0.0782 -3.59577,0.0782 -1.87605,0 -3.43943,-0.0782 -4.45563,-0.23451 -1.09436,-0.0782 -2.18873,-0.39084 -3.20492,-0.93802 -1.09437,-0.46902 -1.87606,-1.25071 -2.34507,-2.34507 -0.46902,-1.09437 -0.70352,-2.50141 -0.70352,-4.29929 l 0,-8.0514 c 0,-1.56338 0.2345,-2.89226 0.62535,-3.90845 0.31268,-1.09437 0.78169,-1.87606 1.32887,-2.42324 0.46902,-0.62535 1.2507,-1.0162 2.2669,-1.32887 1.0162,-0.31268 1.95422,-0.46902 2.89225,-0.54718 0.85986,-0.0782 2.03239,-0.15634 3.59577,-0.15634 1.56338,0 2.73592,0.0782 3.59577,0.15634 0.93803,0.0782 1.87606,0.2345 2.89226,0.54718 1.01619,0.31267 1.79788,0.70352 2.26689,1.32887 0.54719,0.54718 1.0162,1.32887 1.40705,2.42324 0.31267,1.01619 0.54718,2.34507 0.54718,3.90845 z m -4.45563,8.67675 0,-9.45844 c 0,-2.11057 -0.39085,-3.43944 -1.2507,-3.98662 -0.85986,-0.46901 -2.50141,-0.70352 -5.00282,-0.70352 -2.42323,0 -4.14295,0.23451 -5.00281,0.70352 -0.85986,0.54718 -1.2507,1.87605 -1.2507,3.98662 l 0,9.45844 c 0,1.01619 0.0782,1.79788 0.31267,2.42324 0.23451,0.62535 0.62536,1.01619 1.25071,1.32887 0.62535,0.2345 1.2507,0.39084 1.87605,0.46901 0.62535,0.0782 1.56338,0.15634 2.81408,0.15634 1.25071,0 2.18873,-0.0782 2.81409,-0.15634 0.62535,-0.0782 1.2507,-0.23451 1.87605,-0.46901 0.62535,-0.31268 1.0162,-0.70352 1.2507,-1.32887 0.23451,-0.62536 0.31268,-1.40705 0.31268,-2.42324 z"
         style="fill:#000000;fill-opacity:1;fill-rule:evenodd;stroke:none"
         inkscape:connector-curvature="0" />
      <path
         id="path4074"
         d="m 449.62776,336.67364 0,104.66822 104.51188,0 0,-104.66822 -104.51188,0 z"
         style="fill:#000000;fill-opacity:1;fill-rule:evenodd;stroke:none"
         inkscape:connector-curvature="0" />
      <path
         id="path4076"
         d="m 449.62776,358.87362 0,10.39647 24.62322,0 16.41548,16.41548 7.58239,-7.58239 -19.3859,-19.3859 -29.23519,0.15634 z"
         style="fill:#ffe100;fill-opacity:1;fill-rule:evenodd;stroke:none"
         inkscape:connector-curvature="0" />
      <path
         id="path4078"
         d="m 513.02278,392.95528 -7.58239,7.50422 18.76055,18.76054 29.9387,0 0,-10.47463 -25.32674,0 -15.79012,-15.79013 z"
         style="fill:#ffe100;fill-opacity:1;fill-rule:evenodd;stroke:none"
         inkscape:connector-curvature="0" />
      <path
         id="path4080"
         d="m 524.98262,358.71728 -49.87178,50.18446 -25.48308,0 0,10.47464 29.86054,0 50.02812,-50.10629 24.62322,0 0,-10.55281 -29.15702,0 z"
         style="fill:#ffe100;fill-opacity:1;fill-rule:evenodd;stroke:none"
         inkscape:connector-curvature="0" />
      <path
         id="path4082"
         d="m 494.96575,550.77838 19.54224,81.76471"
         style="fill:none;stroke:#000000;stroke-width:3.59577131px;stroke-linecap:round;stroke-linejoin:round;stroke-opacity:1;stroke-dasharray:none"
         inkscape:connector-curvature="0" />
      <path
         id="path4084"
         d="M 416.32779,291.02298 310.0962,174.08224"
         style="fill:none;stroke:#000000;stroke-width:3.59577131px;stroke-linecap:round;stroke-linejoin:round;stroke-opacity:1;stroke-dasharray:none"
         inkscape:connector-curvature="0" />
      <path
         id="path4086"
         d="m 990.79136,504.97138 c 13.05424,0 23.68514,-10.55281 23.68514,-23.60703 l 0,0 0,-123.11608 c 0,-13.05422 -10.6309,-23.60702 -23.68514,-23.60702 l 0,0 -165.71816,0 c -13.05421,0 -23.60702,10.5528 -23.60702,23.60702 l 0,123.11608 c 0,13.05422 10.55281,23.60703 23.60702,23.60703 l 0,0 165.71816,0 z"
         style="fill:#facca7;fill-opacity:1;fill-rule:evenodd;stroke:none"
         inkscape:connector-curvature="0" />
      <path
         id="path4088"
         d="m 990.79136,504.97138 c 13.05424,0 23.68514,-10.55281 23.68514,-23.60703 l 0,0 0,-123.11608 c 0,-13.05422 -10.6309,-23.60702 -23.68514,-23.60702 l 0,0 -165.71816,0 c -13.05421,0 -23.60702,10.5528 -23.60702,23.60702 l 0,123.11608 c 0,13.05422 10.55281,23.60703 23.60702,23.60703 l 0,0 165.71816,0 z"
         style="fill:none;stroke:#000000;stroke-width:3.59577131px;stroke-linecap:round;stroke-linejoin:round;stroke-opacity:1;stroke-dasharray:none"
         inkscape:connector-curvature="0" />
      <text
         id="text4090"
         style="font-size:40.02249908px;font-style:normal;font-weight:normal;text-align:start;text-anchor:start;fill:#000000;font-family:Arial"
         y="431.49258"
         x="815.45844"
         xml:space="preserve">IoT device</text>
      <path
         id="path4092"
         d="m 193.07729,518.72911 c 13.05421,0 23.60702,-10.55281 23.60702,-23.60702 l 0,0 0,-123.11609 c 0,-13.05421 -10.55281,-23.60702 -23.60702,-23.60702 l -165.71816,0 c -13.054213,0 -23.6070207,10.55281 -23.6070207,23.60702 l 0,0 0,123.11609 c 0,13.05421 10.5528077,23.60702 23.6070207,23.60702 l 0,0 165.71816,0 z"
         style="fill:#facca7;fill-opacity:1;fill-rule:evenodd;stroke:none"
         inkscape:connector-curvature="0" />
      <path
         id="path4094"
         d="m 193.07729,518.72911 c 13.05421,0 23.60702,-10.55281 23.60702,-23.60702 l 0,0 0,-123.11609 c 0,-13.05421 -10.55281,-23.60702 -23.60702,-23.60702 l -165.71816,0 c -13.054213,0 -23.6070207,10.55281 -23.6070207,23.60702 l 0,0 0,123.11609 c 0,13.05421 10.5528077,23.60702 23.6070207,23.60702 l 0,0 165.71816,0 z"
         style="fill:none;stroke:#000000;stroke-width:3.59577131px;stroke-linecap:round;stroke-linejoin:round;stroke-opacity:1;stroke-dasharray:none"
         inkscape:connector-curvature="0" />
      <text
         id="text4096"
         style="font-size:40.02249908px;font-style:normal;font-weight:normal;text-align:start;text-anchor:start;fill:#000000;font-family:Arial"
         y="445.25031"
         x="51.278828"
         xml:space="preserve">mobile</text>
      <path
         id="path4098"
         d="m 299.54339,802.87322 c 13.05422,0 23.60702,-10.55281 23.60702,-23.60702 l 0,-123.11609 c 0,-13.05421 -10.5528,-23.60702 -23.60702,-23.60702 l 0,0 -165.71816,0 c -13.05421,0 -23.60702,10.55281 -23.60702,23.60702 l 0,0 0,123.11609 c 0,13.05421 10.55281,23.60702 23.60702,23.60702 l 0,0 165.71816,0 z"
         style="fill:#d2c9de;fill-opacity:1;fill-rule:evenodd;stroke:none"
         inkscape:connector-curvature="0" />
      <path
         id="path4100"
         d="m 299.54339,802.87322 c 13.05422,0 23.60702,-10.55281 23.60702,-23.60702 l 0,-123.11609 c 0,-13.05421 -10.5528,-23.60702 -23.60702,-23.60702 l 0,0 -165.71816,0 c -13.05421,0 -23.60702,10.55281 -23.60702,23.60702 l 0,0 0,123.11609 c 0,13.05421 10.55281,23.60702 23.60702,23.60702 l 0,0 165.71816,0 z"
         style="fill:none;stroke:#000000;stroke-width:3.59577131px;stroke-linecap:round;stroke-linejoin:round;stroke-opacity:1;stroke-dasharray:none"
         inkscape:connector-curvature="0" />
      <text
         id="text4102"
         style="font-size:40.02249908px;font-style:normal;font-weight:normal;text-align:start;text-anchor:start;fill:#000000;font-family:Arial"
         y="729.15991"
         x="148.83366"
         xml:space="preserve">Node</text>
      <text
         id="text4104"
         style="font-size:40.02249908px;font-style:normal;font-weight:normal;text-align:start;text-anchor:start;fill:#000000;font-family:Arial"
         y="729.15991"
         x="243.8871"
         xml:space="preserve">.</text>
      <text
         id="text4106"
         style="font-size:40.02249908px;font-style:normal;font-weight:normal;text-align:start;text-anchor:start;fill:#000000;font-family:Arial"
         y="729.15991"
         x="255.14343"
         xml:space="preserve">js</text>
      <path
         id="path4108"
         d="m 830.07601,202.45756 c 13.05421,0 23.68519,-10.5528 23.68519,-23.60702 l 0,0 0,-123.116083 c 0,-13.054214 -10.63098,-23.68519 -23.68519,-23.68519 l 0,0 -165.71816,0 c -13.05421,0 -23.60702,10.630976 -23.60702,23.68519 l 0,0 0,123.116083 c 0,13.05422 10.55281,23.60702 23.60702,23.60702 l 165.71816,0 z"
         style="fill:#cadaa9;fill-opacity:1;fill-rule:evenodd;stroke:none"
         inkscape:connector-curvature="0" />
      <path
         id="path4110"
         d="m 830.07601,202.45756 c 13.05421,0 23.68519,-10.5528 23.68519,-23.60702 l 0,0 0,-123.116083 c 0,-13.054214 -10.63098,-23.68519 -23.68519,-23.68519 l 0,0 -165.71816,0 c -13.05421,0 -23.60702,10.630976 -23.60702,23.68519 l 0,0 0,123.116083 c 0,13.05422 10.55281,23.60702 23.60702,23.60702 l 165.71816,0 z"
         style="fill:none;stroke:#000000;stroke-width:3.59577131px;stroke-linecap:round;stroke-linejoin:round;stroke-opacity:1;stroke-dasharray:none"
         inkscape:connector-curvature="0" />
      <text
         id="text4112"
         style="font-size:40.02249908px;font-style:normal;font-weight:normal;text-align:start;text-anchor:start;fill:#000000;font-family:Arial"
         y="128.82242"
         x="674.12897"
         xml:space="preserve">Browser</text>
      <path
         id="path4114"
         d="m 801.46618,419.76723 -136.95199,1.17253"
         style="fill:none;stroke:#000000;stroke-width:3.59577131px;stroke-linecap:round;stroke-linejoin:round;stroke-opacity:1;stroke-dasharray:none"
         inkscape:connector-curvature="0" />
      <path
         id="path4116"
         d="M 216.68431,632.54309 416.32779,550.77838"
         style="fill:none;stroke:#000000;stroke-width:3.59577131px;stroke-linecap:round;stroke-linejoin:round;stroke-opacity:1;stroke-dasharray:none"
         inkscape:connector-curvature="0" />
      <path
         id="path4118"
         d="m 216.68431,433.52496 108.81117,-12.5852"
         style="fill:none;stroke:#000000;stroke-width:3.59577131px;stroke-linecap:round;stroke-linejoin:round;stroke-opacity:1;stroke-dasharray:none"
         inkscape:connector-curvature="0" />
      <path
         id="path4120"
         d="m 690.54445,202.45756 -108.733,88.56542"
         style="fill:none;stroke:#000000;stroke-width:3.59577131px;stroke-linecap:round;stroke-linejoin:round;stroke-opacity:1;stroke-dasharray:none"
         inkscape:connector-curvature="0" />
      <path
         id="path4122"
         d="m 597.36707,802.87322 c 13.05421,0 23.60702,-10.55281 23.60702,-23.60702 l 0,0 0,-123.11609 c 0,-13.05421 -10.55281,-23.60702 -23.60702,-23.60702 l 0,0 -165.71816,0 c -13.05422,0 -23.60702,10.55281 -23.60702,23.60702 l 0,0 0,123.11609 c 0,13.05421 10.5528,23.60702 23.60702,23.60702 l 0,0 165.71816,0 z"
         style="fill:#d2c9de;fill-opacity:1;fill-rule:evenodd;stroke:none"
         inkscape:connector-curvature="0" />
      <path
         id="path4124"
         d="m 597.36707,802.87322 c 13.05421,0 23.60702,-10.55281 23.60702,-23.60702 l 0,0 0,-123.11609 c 0,-13.05421 -10.55281,-23.60702 -23.60702,-23.60702 l 0,0 -165.71816,0 c -13.05422,0 -23.60702,10.55281 -23.60702,23.60702 l 0,0 0,123.11609 c 0,13.05421 10.5528,23.60702 23.60702,23.60702 l 0,0 165.71816,0 z"
         style="fill:none;stroke:#000000;stroke-width:3.59577131px;stroke-linecap:round;stroke-linejoin:round;stroke-opacity:1;stroke-dasharray:none"
         inkscape:connector-curvature="0" />
      <text
         id="text4126"
         style="font-size:40.02249908px;font-style:normal;font-weight:normal;text-align:start;text-anchor:start;fill:#000000;font-family:Arial"
         y="729.15991"
         x="472.76578"
         xml:space="preserve">PHP</text>
      <path
         id="path4128"
         d="m 392.95528,174.08224 c 13.05421,0 23.68519,-10.55281 23.68519,-23.60702 l 0,0 0,-123.11609 c 0,-13.054213 -10.63098,-23.6070207 -23.68519,-23.6070207 l 0,0 -165.71816,0 c -13.05421,0 -23.60702,10.5528077 -23.60702,23.6070207 l 0,0 0,123.11609 c 0,13.05421 10.55281,23.60702 23.60702,23.60702 l 0,0 165.71816,0 z"
         style="fill:#cadaa9;fill-opacity:1;fill-rule:evenodd;stroke:none"
         inkscape:connector-curvature="0" />
      <path
         id="path4130"
         d="m 392.95528,174.08224 c 13.05421,0 23.68519,-10.55281 23.68519,-23.60702 l 0,0 0,-123.11609 c 0,-13.054213 -10.63098,-23.6070207 -23.68519,-23.6070207 l 0,0 -165.71816,0 c -13.05421,0 -23.60702,10.5528077 -23.60702,23.6070207 l 0,0 0,123.11609 c 0,13.05421 10.55281,23.60702 23.60702,23.60702 l 0,0 165.71816,0 z"
         style="fill:none;stroke:#000000;stroke-width:3.59577131px;stroke-linecap:round;stroke-linejoin:round;stroke-opacity:1;stroke-dasharray:none"
         inkscape:connector-curvature="0" />
      <text
         id="text4132"
         style="font-size:40.02249908px;font-style:normal;font-weight:normal;text-align:start;text-anchor:start;fill:#000000;font-family:Arial"
         y="101.30695"
         x="236.38289"
         xml:space="preserve">Browser</text>
      <path
         id="path4134"
         d="m 635.0445,543.97768 c 13.05421,0 23.60702,-10.63098 23.60702,-23.68519 l 0,0 0,-198.00194 c 0,-13.05421 -10.55281,-23.60702 -23.60702,-23.60702 l 0,0 -274.13849,0 c -13.05421,0 -23.68519,10.55281 -23.68519,23.60702 l 0,0 0,198.00194 c 0,13.05421 10.63098,23.68519 23.68519,23.68519 l 0,0 274.13849,0 z"
         style="fill:#d9d9d9;fill-opacity:1;fill-rule:evenodd;stroke:none"
         inkscape:connector-curvature="0" />
      <path
         id="path4136"
         d="m 635.0445,543.97768 c 13.05421,0 23.60702,-10.63098 23.60702,-23.68519 l 0,0 0,-198.00194 c 0,-13.05421 -10.55281,-23.60702 -23.60702,-23.60702 l 0,0 -274.13849,0 c -13.05421,0 -23.68519,10.55281 -23.68519,23.60702 l 0,0 0,198.00194 c 0,13.05421 10.63098,23.68519 23.68519,23.68519 l 0,0 274.13849,0 z"
         style="fill:none;stroke:#000000;stroke-width:3.59577131px;stroke-linecap:round;stroke-linejoin:round;stroke-opacity:1;stroke-dasharray:none"
         inkscape:connector-curvature="0" />
      <text
         id="text4138"
         style="font-size:30.01687431px;font-style:normal;font-weight:normal;text-align:start;text-anchor:start;fill:#000000;font-family:Arial"
         y="412.73203"
         x="451.50381"
         xml:space="preserve">WAMP </text>
      <text
         id="text4140"
         style="font-size:30.01687431px;font-style:normal;font-weight:normal;text-align:start;text-anchor:start;fill:#000000;font-family:Arial"
         y="447.75171"
         x="452.75452"
         xml:space="preserve">Router</text>
      <path
         id="path4142"
         d="m 640.90717,550.77838 c 13.05421,0 23.60702,-10.55281 23.60702,-23.60702 l 0,0 0,-212.46319 c 0,-13.05422 -10.55281,-23.68519 -23.60702,-23.68519 l 0,0 -291.80467,0 c -13.05421,0 -23.60702,10.63097 -23.60702,23.68519 l 0,0 0,212.46319 c 0,13.05421 10.55281,23.60702 23.60702,23.60702 l 291.80467,0 z"
         style="fill:#ffe100;fill-opacity:1;fill-rule:evenodd;stroke:none"
         inkscape:connector-curvature="0" />
      <path
         id="path4144"
         d="m 640.90717,550.77838 c 13.05421,0 23.60702,-10.55281 23.60702,-23.60702 l 0,0 0,-212.46319 c 0,-13.05422 -10.55281,-23.68519 -23.60702,-23.68519 l 0,0 -291.80467,0 c -13.05421,0 -23.60702,10.63097 -23.60702,23.68519 l 0,0 0,212.46319 c 0,13.05421 10.55281,23.60702 23.60702,23.60702 l 291.80467,0 z"
         style="fill:none;stroke:#ffc000;stroke-width:5.23731899px;stroke-linecap:round;stroke-linejoin:round;stroke-opacity:1;stroke-dasharray:none"
         inkscape:connector-curvature="0" />
      <path
         id="path4146"
         d="m 391.93908,510.36503 c -3.98661,0.78169 -7.73872,1.17254 -11.33449,1.17254 -1.48521,0 -2.81409,-0.0782 -4.06479,-0.15634 -1.32887,-0.15634 -2.73591,-0.39085 -4.29929,-0.85986 -1.56338,-0.39084 -2.89225,-0.93803 -3.98662,-1.64155 -1.09436,-0.70352 -2.03239,-1.71971 -2.81408,-2.97042 -0.70352,-1.32887 -1.09436,-2.81408 -1.09436,-4.5338 l 0,-15.39928 c 0,-7.0352 5.39365,-10.55281 16.25914,-10.55281 2.65774,0 6.33168,0.39085 11.09999,1.17254 l 0,6.33168 c -4.2993,-1.01619 -7.97324,-1.56338 -11.02183,-1.56338 -1.17253,0 -2.18873,0.0782 -2.97041,0.15634 -0.78169,0.0782 -1.64155,0.23451 -2.42324,0.46902 -0.85986,0.31267 -1.48521,0.78169 -1.87606,1.40704 -0.46901,0.62535 -0.70352,1.48521 -0.70352,2.5014 l 0,14.93027 c 0,3.12676 2.97042,4.69014 8.75492,4.69014 2.50141,0 6.01901,-0.46902 10.47464,-1.56338 l 0,6.40985 z"
         style="fill:#000000;fill-opacity:1;fill-rule:evenodd;stroke:none"
         inkscape:connector-curvature="0" />
      <path
         id="path4148"
         d="m 414.13906,490.8228 -2.65774,0 c -2.18873,0 -3.83028,0.31267 -4.92464,1.01619 -1.09437,0.70352 -1.64155,1.79789 -1.64155,3.43944 l 0,15.71195 -7.89507,0 0,-26.18659 7.50422,0 0,4.61197 c 0,-1.25071 0.78169,-2.50141 2.2669,-3.51761 1.48521,-1.09436 2.97042,-1.56338 4.5338,-1.56338 l 2.81408,0 0,6.48803 z"
         style="fill:#000000;fill-opacity:1;fill-rule:evenodd;stroke:none"
         inkscape:connector-curvature="0" />
      <path
         id="path4150"
         d="m 444.23411,494.26223 0,7.81689 c 0,1.64155 -0.23451,3.12676 -0.78169,4.2993 -0.54719,1.17253 -1.25071,2.11056 -2.0324,2.81408 -0.78169,0.70352 -1.79788,1.17253 -3.04858,1.56338 -1.32888,0.31267 -2.50141,0.54718 -3.59578,0.62535 -1.01619,0.15634 -2.2669,0.15634 -3.83027,0.15634 -1.48521,0 -2.81409,0 -3.83028,-0.15634 -1.09437,-0.0782 -2.2669,-0.31268 -3.51761,-0.62535 -1.32887,-0.39085 -2.34506,-0.85986 -3.12675,-1.56338 -0.78169,-0.70352 -1.48521,-1.64155 -1.95423,-2.81408 -0.54718,-1.17254 -0.85985,-2.65775 -0.85985,-4.2993 l 0,-7.81689 c 0,-1.79789 0.31267,-3.2831 0.85985,-4.61197 0.54719,-1.2507 1.25071,-2.18873 2.0324,-2.89225 0.85985,-0.70352 1.87605,-1.2507 3.12675,-1.64155 1.32888,-0.39084 2.50141,-0.54718 3.51761,-0.70352 1.01619,-0.0782 2.2669,-0.0782 3.75211,-0.0782 1.48521,0 2.73591,0 3.7521,0.0782 1.0162,0.15634 2.18874,0.31268 3.51761,0.70352 1.2507,0.39085 2.34507,0.93803 3.12676,1.64155 0.78168,0.70352 1.48521,1.64155 2.03239,2.89225 0.54718,1.32887 0.85986,2.81408 0.85986,4.61197 z m -7.89507,8.67675 0,-9.92745 c 0,-1.32888 -0.31267,-2.34507 -1.01619,-2.97042 -0.78169,-0.54719 -2.18873,-0.85986 -4.37746,-0.85986 -2.11057,0 -3.59578,0.31267 -4.2993,0.85986 -0.70352,0.62535 -1.09436,1.64154 -1.09436,2.97042 l 0,9.92745 c 0,1.40704 0.39084,2.34507 1.01619,2.89225 0.78169,0.54719 2.18874,0.78169 4.37747,0.78169 2.18873,0 3.67394,-0.2345 4.37746,-0.78169 0.70352,-0.54718 1.01619,-1.48521 1.01619,-2.89225 z"
         style="fill:#000000;fill-opacity:1;fill-rule:evenodd;stroke:none"
         inkscape:connector-curvature="0" />
      <path
         id="path4152"
         d="m 472.92211,500.82842 0,3.2831 c 0,1.2507 -0.31268,2.42323 -0.78169,3.28309 -0.46901,1.0162 -1.09437,1.71972 -1.79789,2.2669 -0.78169,0.46902 -1.71971,0.85986 -2.89225,1.17254 -1.17253,0.31267 -2.34507,0.46901 -3.43943,0.54718 -1.09437,0.15634 -2.42324,0.15634 -3.83028,0.15634 -2.89225,0 -6.33168,-0.23451 -10.3183,-0.78169 l 0,-5.23732 c 5.00281,0.70352 8.44225,1.09436 10.39647,1.09436 1.56338,0 2.73591,-0.15633 3.59577,-0.46901 0.85986,-0.31268 1.2507,-0.85986 1.2507,-1.79789 l 0,-1.64154 c 0,-0.78169 -0.2345,-1.40705 -0.70352,-1.79789 -0.46901,-0.46901 -1.48521,-0.70352 -2.97042,-0.70352 l -3.43943,0 c -2.73591,0 -4.84647,-0.46901 -6.40985,-1.64155 -1.48521,-1.09436 -2.2669,-2.65774 -2.2669,-4.7683 l 0,-3.20493 c 0,-2.42324 1.09436,-4.06479 3.36126,-4.92464 2.2669,-0.93803 5.47183,-1.32888 9.61478,-1.32888 1.71972,0 4.84648,0.15634 9.30211,0.46902 l 0,5.00281 c -5.62817,-0.39084 -8.75493,-0.62535 -9.53661,-0.62535 -2.18874,0 -3.51761,0.15634 -4.14296,0.46901 -0.54718,0.23451 -0.85986,0.85986 -0.85986,1.71972 l 0,1.40704 c 0,0.46901 0.23451,0.85986 0.70352,1.17253 0.46902,0.39085 1.09437,0.54719 2.0324,0.54719 l 3.5176,0 c 6.40985,0 9.61478,2.11056 9.61478,6.33168 z"
         style="fill:#000000;fill-opacity:1;fill-rule:evenodd;stroke:none"
         inkscape:connector-curvature="0" />
      <path
         id="path4154"
         d="m 501.21927,500.82842 0,3.2831 c 0,1.2507 -0.23451,2.42323 -0.70352,3.28309 -0.46902,1.0162 -1.09437,1.71972 -1.79789,2.2669 -0.78169,0.46902 -1.71972,0.85986 -2.89225,1.17254 -1.17254,0.31267 -2.34507,0.46901 -3.43943,0.54718 -1.09437,0.15634 -2.42324,0.15634 -3.90845,0.15634 -2.81408,0 -6.25352,-0.23451 -10.24013,-0.78169 l 0,-5.23732 c 5.00281,0.70352 8.44224,1.09436 10.39647,1.09436 1.56337,0 2.73591,-0.15633 3.59577,-0.46901 0.85986,-0.31268 1.2507,-0.85986 1.2507,-1.79789 l 0,-1.64154 c 0,-0.78169 -0.23451,-1.40705 -0.70352,-1.79789 -0.46901,-0.46901 -1.48521,-0.70352 -3.04859,-0.70352 l -3.36126,0 c -2.73592,0 -4.84648,-0.46901 -6.40986,-1.64155 -1.48521,-1.09436 -2.2669,-2.65774 -2.2669,-4.7683 l 0,-3.20493 c 0,-2.42324 1.09437,-4.06479 3.36127,-4.92464 2.2669,-0.93803 5.47182,-1.32888 9.61478,-1.32888 1.71972,0 4.84647,0.15634 9.3021,0.46902 l 0,5.00281 c -5.62816,-0.39084 -8.75492,-0.62535 -9.53661,-0.62535 -2.18873,0 -3.5176,0.15634 -4.14295,0.46901 -0.54718,0.23451 -0.85986,0.85986 -0.85986,1.71972 l 0,1.40704 c 0,0.46901 0.23451,0.85986 0.70352,1.17253 0.46901,0.39085 1.09436,0.54719 2.03239,0.54719 l 3.5176,0 c 6.33169,0 9.53662,2.11056 9.53662,6.33168 z"
         style="fill:#000000;fill-opacity:1;fill-rule:evenodd;stroke:none"
         inkscape:connector-curvature="0" />
      <path
         id="path4156"
         d="m 533.89388,493.0897 0,8.59858 c 0,3.59577 -1.09436,6.09718 -3.20492,7.58239 -2.18873,1.48521 -5.62817,2.2669 -10.39647,2.2669 -4.92465,0 -8.44225,-0.78169 -10.3183,-2.34507 -1.95423,-1.56338 -2.89225,-4.06479 -2.89225,-7.50422 l 0,-28.53166 7.89506,0 0,14.30491 c 0.46901,-1.2507 1.32887,-2.03239 2.65774,-2.5014 1.25071,-0.39085 3.20493,-0.62536 5.86267,-0.62536 2.18874,0 3.98662,0.15634 5.39366,0.46902 1.40704,0.39084 2.50141,1.01619 3.20493,1.79788 0.70352,0.78169 1.17253,1.71972 1.40704,2.65775 0.31268,1.01619 0.39084,2.2669 0.39084,3.83028 z m -7.89506,9.61478 0,-9.69295 c 0,-1.64155 -0.31267,-2.73592 -0.93803,-3.20493 -0.62535,-0.39084 -2.18873,-0.62535 -4.69013,-0.62535 -2.18873,0 -3.67394,0.23451 -4.37746,0.85986 -0.62536,0.54718 -1.0162,1.56338 -1.0162,2.97042 l 0,9.69295 c 0,1.56337 0.31268,2.65774 1.0162,3.12675 0.70352,0.54719 2.18873,0.78169 4.45563,0.78169 2.2669,0 3.83027,-0.2345 4.53379,-0.78169 0.62536,-0.46901 1.0162,-1.56338 1.0162,-3.12675 z"
         style="fill:#000000;fill-opacity:1;fill-rule:evenodd;stroke:none"
         inkscape:connector-curvature="0" />
      <path
         id="path4158"
         d="m 563.51991,510.99038 -7.73872,0 0,-2.34506 c -0.54718,1.01619 -1.32887,1.79788 -2.42324,2.18873 -1.09436,0.46901 -3.04859,0.70352 -5.94084,0.70352 -3.5176,0 -5.86267,-0.54719 -7.0352,-1.64155 -1.17254,-1.09437 -1.71972,-3.2831 -1.71972,-6.72253 0,-3.12676 0.54718,-5.23732 1.79789,-6.48802 1.17253,-1.17254 3.28309,-1.79789 6.33168,-1.79789 l 8.83309,0 0,-1.79788 c 0,-1.56338 -0.31268,-2.57958 -1.09436,-3.12676 -0.70353,-0.54718 -2.2669,-0.78169 -4.61197,-0.78169 -2.2669,0 -5.31549,0.23451 -9.22394,0.62535 l 0,-5.00281 c 2.97042,-0.31268 6.33169,-0.46902 10.00563,-0.46902 4.84647,0 8.12957,0.54719 10.08379,1.71972 1.79789,1.17253 2.73591,3.5176 2.73591,6.95704 l 0,17.97885 z m -7.89506,-6.72253 0,-5.00281 -5.39366,0 c -1.71971,0 -2.81408,0.15634 -3.20492,0.54718 -0.39085,0.39085 -0.62535,1.48521 -0.62535,3.20493 0,1.64155 0.2345,2.73591 0.62535,3.04859 0.46901,0.39085 1.64154,0.54718 3.43943,0.54718 0.93803,0 1.56338,0 2.03239,0 0.39085,0 0.85986,-0.0782 1.40704,-0.15633 0.46902,-0.0782 0.85986,-0.15634 1.0162,-0.39085 0.23451,-0.15634 0.39084,-0.31268 0.54718,-0.62535 0.0782,-0.31268 0.15634,-0.70352 0.15634,-1.17254 z"
         style="fill:#000000;fill-opacity:1;fill-rule:evenodd;stroke:none"
         inkscape:connector-curvature="0" />
      <path
         id="path4160"
         d="m 587.59595,490.8228 -2.73591,0 c -2.11057,0 -3.75211,0.31267 -4.84648,1.01619 -1.09436,0.70352 -1.64155,1.79789 -1.64155,3.43944 l 0,15.71195 -7.89506,0 0,-26.18659 7.50422,0 0,4.61197 c 0,-1.25071 0.78169,-2.50141 2.2669,-3.51761 1.40704,-1.09436 2.97042,-1.56338 4.5338,-1.56338 l 2.81408,0 0,6.48803 z"
         style="fill:#000000;fill-opacity:1;fill-rule:evenodd;stroke:none"
         inkscape:connector-curvature="0" />
      <path
         id="path4162"
         d="m 592.20792,505.20588 0,5.7845 6.25351,0 0,-5.7845 -6.25351,0 z"
         style="fill:#000000;fill-opacity:1;fill-rule:evenodd;stroke:none"
         inkscape:connector-curvature="0" />
      <path
         id="path4164"
         d="m 611.28114,480.42633 -4.84648,0 0,-5.00282 4.84648,0 0,5.00282 z m 0,30.56405 -4.84648,0 0,-26.18659 4.84648,0 0,26.18659 z"
         style="fill:#000000;fill-opacity:1;fill-rule:evenodd;stroke:none"
         inkscape:connector-curvature="0" />
      <path
         id="path4166"
         d="m 642.86139,493.63688 0,9.0676 c 0,1.64154 -0.23451,3.04858 -0.62535,4.14295 -0.39084,1.09437 -0.85986,1.95422 -1.48521,2.57957 -0.62535,0.62536 -1.48521,1.09437 -2.65774,1.40705 -1.09437,0.31267 -2.18873,0.54718 -3.20493,0.62535 -1.0162,0.0782 -2.42324,0.0782 -4.06479,0.0782 -2.18873,0 -3.90844,-0.0782 -5.08098,-0.23451 -1.17253,-0.0782 -2.42323,-0.46901 -3.59577,-1.0162 -1.2507,-0.54718 -2.11056,-1.48521 -2.57957,-2.73591 -0.54719,-1.17253 -0.78169,-2.81408 -0.78169,-4.84647 l 0,-9.0676 c 0,-1.71972 0.15633,-3.20493 0.62535,-4.37746 0.39084,-1.17254 0.85986,-2.11056 1.48521,-2.73592 0.62535,-0.62535 1.48521,-1.17253 2.57957,-1.48521 1.17254,-0.31267 2.2669,-0.54718 3.2831,-0.62535 0.93803,-0.0782 2.34507,-0.0782 4.06478,-0.0782 1.71972,0 3.04859,0 4.06479,0.0782 1.0162,0.0782 2.03239,0.31268 3.20493,0.62535 1.17253,0.31268 2.03239,0.85986 2.57957,1.48521 0.62535,0.62536 1.17254,1.56338 1.56338,2.73592 0.39084,1.17253 0.62535,2.65774 0.62535,4.37746 z m -5.00281,9.77112 0,-10.55281 c 0,-2.42324 -0.46901,-3.90845 -1.48521,-4.5338 -0.93803,-0.54718 -2.81408,-0.85986 -5.55,-0.85986 -2.81408,0 -4.69013,0.31268 -5.62816,0.85986 -1.0162,0.62535 -1.48521,2.11056 -1.48521,4.5338 l 0,10.55281 c 0,1.17253 0.15634,2.11056 0.39085,2.73591 0.2345,0.70352 0.70352,1.2507 1.40704,1.48521 0.70352,0.39084 1.40704,0.54718 2.11056,0.62535 0.70352,0.0782 1.79788,0.0782 3.20492,0.0782 1.40705,0 2.42324,0 3.20493,-0.0782 0.70352,-0.0782 1.40704,-0.23451 2.03239,-0.62535 0.70352,-0.23451 1.17254,-0.78169 1.40704,-1.48521 0.31268,-0.62535 0.39085,-1.56338 0.39085,-2.73591 z"
         style="fill:#000000;fill-opacity:1;fill-rule:evenodd;stroke:none"
         inkscape:connector-curvature="0" />
      <path
         id="path4168"
         d="m 439.07496,325.80816 0,117.87876 117.80059,0 0,-117.87876 -117.80059,0 z"
         style="fill:#000000;fill-opacity:1;fill-rule:evenodd;stroke:none"
         inkscape:connector-curvature="0" />
      <path
         id="path4170"
         d="m 439.07496,350.74405 0,11.80351 27.74997,-0.0782 18.44787,18.44787 8.59859,-8.44224 -21.88731,-21.88731 -32.90912,0.15634 z"
         style="fill:#ffe100;fill-opacity:1;fill-rule:evenodd;stroke:none"
         inkscape:connector-curvature="0" />
      <path
         id="path4172"
         d="m 510.52137,389.125 -8.52041,8.52042 21.10561,21.18378 33.76898,0 0,-11.80351 -28.53166,0 -17.82252,-17.90069 z"
         style="fill:#ffe100;fill-opacity:1;fill-rule:evenodd;stroke:none"
         inkscape:connector-curvature="0" />
      <path
         id="path4174"
         d="m 523.96643,350.58771 -56.20347,56.51615 -28.688,0 0,11.80351 33.69081,0 56.35981,-56.35981 27.74997,0 0,-11.95985 -32.90912,0 z"
         style="fill:#ffe100;fill-opacity:1;fill-rule:evenodd;stroke:none"
         inkscape:connector-curvature="0" />
      <path
         id="path4176"
         d="m 487.22702,104.27737 10.16197,186.74561"
         style="fill:none;stroke:#000000;stroke-width:3.59577131px;stroke-linecap:round;stroke-linejoin:round;stroke-opacity:1;stroke-dasharray:none"
         inkscape:connector-curvature="0" />
      <path
         id="path4178"
         d="m 465.96507,104.27737 42.52391,0 c 7.89506,0 14.22675,-6.331684 14.22675,-14.226747 0,0 0,0 0,0 l 0,-24.779555 c 0,-7.816895 -6.33169,-14.148579 -14.22675,-14.148579 l 0,0 -42.52391,0 c -7.81689,0 -14.14858,6.331684 -14.14858,14.148579 l 0,0 0,24.779555 c 0,7.895063 6.33169,14.226747 14.14858,14.226747 z"
         style="fill:#cadaa9;fill-opacity:1;fill-rule:evenodd;stroke:none"
         inkscape:connector-curvature="0" />
      <path
         id="path4180"
         d="m 465.96507,104.27737 42.52391,0 c 7.89506,0 14.22675,-6.331684 14.22675,-14.226747 0,0 0,0 0,0 l 0,-24.779555 c 0,-7.816895 -6.33169,-14.148579 -14.22675,-14.148579 l 0,0 -42.52391,0 c -7.81689,0 -14.14858,6.331684 -14.14858,14.148579 l 0,0 0,24.779555 c 0,7.895063 6.33169,14.226747 14.14858,14.226747 z"
         style="fill:none;stroke:#000000;stroke-width:2.0323925px;stroke-linecap:round;stroke-linejoin:round;stroke-opacity:1;stroke-dasharray:none"
         inkscape:connector-curvature="0" />
      <path
         id="path4182"
         d="M 870.17668,249.59344 664.51419,314.70817"
         style="fill:none;stroke:#000000;stroke-width:3.59577131px;stroke-linecap:round;stroke-linejoin:round;stroke-opacity:1;stroke-dasharray:none"
         inkscape:connector-curvature="0" />
      <path
         id="path4184"
         d="M 132.73087,133.19988 349.1025,291.02298"
         style="fill:none;stroke:#000000;stroke-width:3.59577131px;stroke-linecap:round;stroke-linejoin:round;stroke-opacity:1;stroke-dasharray:none"
         inkscape:connector-curvature="0" />
      <path
         id="path4186"
         d="m 146.87944,301.65395 42.60208,0 c 7.81689,0 14.14858,-6.40985 14.14858,-14.22674 0,0 0,0 0,0 l 0,-24.77956 c 0,-7.81689 -6.33169,-14.22675 -14.14858,-14.22675 l 0,0 -42.60208,0 c -7.81689,0 -14.14857,6.40986 -14.14857,14.22675 l 0,24.77956 c 0,7.81689 6.33168,14.22674 14.14857,14.22674 z"
         style="fill:#cadaa9;fill-opacity:1;fill-rule:evenodd;stroke:none"
         inkscape:connector-curvature="0" />
      <path
         id="path4188"
         d="m 146.87944,301.65395 42.60208,0 c 7.81689,0 14.14858,-6.40985 14.14858,-14.22674 0,0 0,0 0,0 l 0,-24.77956 c 0,-7.81689 -6.33169,-14.22675 -14.14858,-14.22675 l 0,0 -42.60208,0 c -7.81689,0 -14.14857,6.40986 -14.14857,14.22675 l 0,24.77956 c 0,7.81689 6.33168,14.22674 14.14857,14.22674 z"
         style="fill:none;stroke:#000000;stroke-width:2.0323925px;stroke-linecap:round;stroke-linejoin:round;stroke-opacity:1;stroke-dasharray:none"
         inkscape:connector-curvature="0" />
      <path
         id="path4190"
         d="m 203.6301,274.99834 121.86538,39.70983"
         style="fill:none;stroke:#000000;stroke-width:3.59577131px;stroke-linecap:round;stroke-linejoin:round;stroke-opacity:1;stroke-dasharray:none"
         inkscape:connector-curvature="0" />
      <path
         id="path4192"
         d="m 884.32526,276.24905 42.5239,0 c 7.8169,0 14.22675,-6.40986 14.22675,-14.22675 0,0 0,0 0,0 l 0,-24.77956 c 0,-7.89506 -6.40985,-14.22674 -14.22675,-14.22674 l 0,0 -42.5239,0 c -7.8169,0 -14.14858,6.33168 -14.14858,14.22674 l 0,24.77956 c 0,7.81689 6.33168,14.22675 14.14858,14.22675 z"
         style="fill:#cadaa9;fill-opacity:1;fill-rule:evenodd;stroke:none"
         inkscape:connector-curvature="0" />
      <path
         id="path4194"
         d="m 884.32526,276.24905 42.5239,0 c 7.8169,0 14.22675,-6.40986 14.22675,-14.22675 0,0 0,0 0,0 l 0,-24.77956 c 0,-7.89506 -6.40985,-14.22674 -14.22675,-14.22674 l 0,0 -42.5239,0 c -7.8169,0 -14.14858,6.33168 -14.14858,14.22674 l 0,24.77956 c 0,7.81689 6.33168,14.22675 14.14858,14.22675 z"
         style="fill:none;stroke:#000000;stroke-width:2.0323925px;stroke-linecap:round;stroke-linejoin:round;stroke-opacity:1;stroke-dasharray:none"
         inkscape:connector-curvature="0" />
      <path
         id="path4196"
         d="m 75.980213,159.77732 42.523907,0 c 7.89506,0 14.22675,-6.33168 14.22675,-14.14858 0,0 0,0 0,0 l 0,0 0,-24.77955 c 0,-7.89507 -6.33169,-14.22675 -14.22675,-14.22675 l -42.523907,0 c -7.816894,0 -14.148579,6.33168 -14.148579,14.22675 l 0,0 0,24.77955 c 0,7.8169 6.331685,14.14858 14.148579,14.14858 z"
         style="fill:#cadaa9;fill-opacity:1;fill-rule:evenodd;stroke:none"
         inkscape:connector-curvature="0" />
      <path
         id="path4198"
         d="m 75.980213,159.77732 42.523907,0 c 7.89506,0 14.22675,-6.33168 14.22675,-14.14858 0,0 0,0 0,0 l 0,0 0,-24.77955 c 0,-7.89507 -6.33169,-14.22675 -14.22675,-14.22675 l -42.523907,0 c -7.816894,0 -14.148579,6.33168 -14.148579,14.22675 l 0,0 0,24.77955 c 0,7.8169 6.331685,14.14858 14.148579,14.14858 z"
         style="fill:none;stroke:#000000;stroke-width:2.0323925px;stroke-linecap:round;stroke-linejoin:round;stroke-opacity:1;stroke-dasharray:none"
         inkscape:connector-curvature="0" />
      <path
         id="path4200"
         d="m 570.00794,202.37939 -21.34013,88.64359"
         style="fill:none;stroke:#000000;stroke-width:3.59577131px;stroke-linecap:round;stroke-linejoin:round;stroke-opacity:1;stroke-dasharray:none"
         inkscape:connector-curvature="0" />
      <path
         id="path4202"
         d="m 548.66781,202.37939 42.60208,0 c 7.81689,0 14.14858,-6.40985 14.14858,-14.22674 0,0 0,0 0,0 l 0,0 0,-24.77956 c 0,-7.81689 -6.33169,-14.22675 -14.14858,-14.22675 l 0,0 -42.60208,0 c -7.81689,0 -14.14857,6.40986 -14.14857,14.22675 l 0,24.77956 c 0,7.81689 6.33168,14.22674 14.14857,14.22674 z"
         style="fill:#cadaa9;fill-opacity:1;fill-rule:evenodd;stroke:none"
         inkscape:connector-curvature="0" />
      <path
         id="path4204"
         d="m 548.66781,202.37939 42.60208,0 c 7.81689,0 14.14858,-6.40985 14.14858,-14.22674 0,0 0,0 0,0 l 0,0 0,-24.77956 c 0,-7.81689 -6.33169,-14.22675 -14.14858,-14.22675 l 0,0 -42.60208,0 c -7.81689,0 -14.14857,6.40986 -14.14857,14.22675 l 0,24.77956 c 0,7.81689 6.33168,14.22674 14.14857,14.22674 z"
         style="fill:none;stroke:#000000;stroke-width:2.0323925px;stroke-linecap:round;stroke-linejoin:round;stroke-opacity:1;stroke-dasharray:none"
         inkscape:connector-curvature="0" />
      <path
         id="path4206"
         d="m 904.64918,802.48237 c 13.05422,0 23.60702,-10.5528 23.60702,-23.60702 l 0,0 0,-123.11608 c 0,-13.05422 -10.5528,-23.68519 -23.60702,-23.68519 l 0,0 -165.71816,0 c -13.05421,0 -23.68519,10.63097 -23.68519,23.68519 l 0,123.11608 c 0,13.05422 10.63098,23.60702 23.68519,23.60702 l 0,0 165.71816,0 z"
         style="fill:#d2c9de;fill-opacity:1;fill-rule:evenodd;stroke:none"
         inkscape:connector-curvature="0" />
      <path
         id="path4208"
         d="m 904.64918,802.48237 c 13.05422,0 23.60702,-10.5528 23.60702,-23.60702 l 0,0 0,-123.11608 c 0,-13.05422 -10.5528,-23.68519 -23.60702,-23.68519 l 0,0 -165.71816,0 c -13.05421,0 -23.68519,10.63097 -23.68519,23.68519 l 0,123.11608 c 0,13.05422 10.63098,23.60702 23.68519,23.60702 l 0,0 165.71816,0 z"
         style="fill:none;stroke:#000000;stroke-width:3.59577131px;stroke-linecap:round;stroke-linejoin:round;stroke-opacity:1;stroke-dasharray:none"
         inkscape:connector-curvature="0" />
      <text
         id="text4210"
         style="font-size:40.02249908px;font-style:normal;font-weight:normal;text-align:start;text-anchor:start;fill:#000000;font-family:Arial"
         y="729.15991"
         x="759.17676"
         xml:space="preserve">Python</text>
      <path
         id="path4212"
         d="m 640.90717,550.77838 140.54776,81.2957"
         style="fill:none;stroke:#000000;stroke-width:3.59577131px;stroke-linecap:round;stroke-linejoin:round;stroke-opacity:1;stroke-dasharray:none"
         inkscape:connector-curvature="0" />
    </g>
  </g>
</svg>
