<?xml version="1.0" encoding="UTF-8" standalone="no"?>
<svg xmlns:rdf="http://www.w3.org/1999/02/22-rdf-syntax-ns#" xmlns="http://www.w3.org/2000/svg" version="1.1" xmlns:cc="http://creativecommons.org/ns#" xmlns:dc="http://purl.org/dc/elements/1.1/" viewBox="0 0 564 146.7">
<metadata>
<rdf:RDF>
<cc:Work rdf:about="">
<dc:format>image/svg+xml</dc:format>
<dc:type rdf:resource="http://purl.org/dc/dcmitype/StillImage"/>
<dc:title/>
</cc:Work>
</rdf:RDF>
</metadata>
<g transform="translate(137.63 -394.66)">
<text style="word-spacing:0px;letter-spacing:0px" font-size="12.577px" xml:space="preserve" line-height="125%" y="472.42239" x="-21.05592" font-family="Sans" fill="#1a1a1a"><tspan y="472.42239" x="-21.05592" font-family="Open Sans" fill="#1a1a1a">WebSocket / WAMP</tspan></text>
<text style="word-spacing:0px;letter-spacing:0px" font-size="12.577px" xml:space="preserve" line-height="125%" y="470.7153" x="230.37149" font-family="Sans" fill="#1a1a1a"><tspan y="470.7153" x="230.37149" font-family="Open Sans">OCI / Net8</tspan><tspan y="486.43619" x="230.37149"/></text>
<path stroke-linejoin="bevel" d="m87.903 451.37-3.0564-0.0129c-0.79726 0-1.5255-0.70203-1.5221-1.6066 0.0026-0.83504 0.73684-1.5974 1.5341-1.5939l3.0564 0.0137c0.86373 0 1.5917 0.77179 1.5886 1.6068-0.0043 0.90454-0.73686 1.5972-1.6006 1.5937zm-9.169-0.0376-3.0563-0.0129c-0.86373 0-1.5255-0.7023-1.5222-1.6066 0.0026-0.83496 0.67045-1.5977 1.5342-1.5941l3.0563 0.0129c0.86374 0 1.5253 0.77145 1.5222 1.6066-0.0043 0.90436-0.67045 1.5975-1.5342 1.5939zm-9.169-0.0376-3.0564-0.0129c-0.86374 0-1.5255-0.7022-1.5222-1.6066 0.0026-0.83495 0.67044-1.5977 1.5342-1.594l3.0564 0.0129c0.86374 0 1.5253 0.7717 1.5221 1.6068-0.0043 0.90445-0.67037 1.5974-1.5341 1.5939zm-9.169-0.0376-3.0564-0.0128c-0.86374 0-1.5256-0.70213-1.5221-1.6067 0.0026-0.83486 0.67037-1.5976 1.5341-1.5941l3.0564 0.0129c0.79733 0 1.5252 0.77179 1.5222 1.6066-0.0043 0.90462-0.73694 1.5974-1.5342 1.5941zm-9.169-0.0376-3.1228-0.0129c-0.79727 0-1.5256-0.70203-1.5222-1.6066 0.0026-0.83504 0.73694-1.5974 1.5342-1.594l3.1228 0.0129c0.79733 0 1.5253 0.7716 1.5222 1.6066-0.0043 0.90453-0.73685 1.5972-1.5342 1.5941zm-9.2354-0.0384-3.0564-0.0129c-0.86373 0-1.5256-0.70203-1.5221-1.6067 0.0026-0.83495 0.67037-1.5975 1.5342-1.594l3.0563 0.0128c0.86374 0 1.5253 0.77153 1.5222 1.6066-0.0043 0.90454-0.67045 1.5975-1.5342 1.5938zm-9.169-0.0376-3.0563-0.0128c-0.86374 0-1.5255-0.70221-1.5222-1.6066 0.0026-0.83496 0.67044-1.5978 1.5342-1.5941l3.0563 0.0128c0.86382 0 1.5253 0.7717 1.5222 1.6067-0.0043 0.90436-0.67045 1.5975-1.5342 1.5939zm-9.169-0.0376-3.0564-0.0128c-0.86373 0-1.5255-0.70203-1.5222-1.6065 0.0026-0.83495 0.67044-1.5978 1.5342-1.5942l3.0564 0.0137c0.86374 0 1.5253 0.77171 1.5222 1.6065-0.0043 0.90462-0.67045 1.5977-1.5342 1.5942zm-9.169-0.0376-3.1228-0.0129c-0.79733 0-1.5255-0.70204-1.5222-1.6066 0.00259-0.83504 0.73686-1.5974 1.5342-1.594l3.1228 0.0137c0.79733 0 1.5253 0.77153 1.5222 1.6065-0.0043 0.90461-0.73687 1.5973-1.5342 1.5942zm-9.2354-0.0376-3.0564-0.0128c-0.79726 0-1.5255-0.70211-1.5221-1.6066 0.002564-0.83495 0.73685-1.5972 1.5341-1.5939l3.0564 0.0129c0.86374 0 1.5253 0.77152 1.5222 1.6066-0.00427 0.90454-0.67044 1.5976-1.5342 1.594zm-9.169-0.0376-3.0563-0.0128c-0.86374 0-1.5256-0.70221-1.5222-1.6067 0.00256-0.83495 0.67044-1.5978 1.5342-1.5941l3.0563 0.0129c0.86375 0 1.5253 0.77171 1.5222 1.6067-0.00427 0.90437-0.67044 1.5974-1.5342 1.5939zm-9.1689-0.0376-3.0564-0.0129c-0.86374 0-1.5255-0.70203-1.5222-1.6065 0.0026-0.83495 0.67045-1.5978 1.5342-1.5942l3.0564 0.0128c0.86374 0 1.5252 0.77178 1.5221 1.6068-0.0043 0.90427-0.67037 1.5973-1.5341 1.5939z" stroke="#2a2a2a" stroke-width="1.1985px" fill="#2a2a2a"/>
<path d="m-29.126 450.02 9.3931-5.1245c-1.5132 3.2723-1.5268 7.0903-0.03685 10.376l-9.3563-5.2512z" fill-rule="evenodd" stroke="#2a2a2a" stroke-width=".94075" fill="#2a2a2a"/>
<path d="m101.14 449.26-9.6975-4.3754c1.7189 3.1454 1.9768 6.9528 0.70081 10.347l8.9967-5.9714z" fill-rule="evenodd" stroke="#2a2a2a" stroke-width=".94075" fill="#2a2a2a"/>
<path stroke-linejoin="round" d="m205.92 449.14h103.01" stroke="#2a2a2a" stroke-linecap="round" stroke-width="4.8317px" fill="#2a2a2a"/>
<path d="m314.19 449.21-6.9866 4.0726c1.1149-2.5598 1.1149-5.6144 0-8.1744l6.9866 4.1018z" fill-rule="evenodd" stroke="#2a2a2a" stroke-width="1.2916" fill="#2a2a2a"/>
<path d="m200.2 448.92 6.9867 4.0726c-1.1149-2.5598-1.1149-5.6144 0-8.1744l-6.9867 4.1018z" fill-rule="evenodd" stroke="#2a2a2a" stroke-width="1.2916" fill="#2a2a2a"/>
<path d="m118.04 430.5-3.4822-13.123h1.7814l1.9963 8.6027c0.21483 0.90113 0.39986 1.7963 0.55499 2.6856 0.33418-1.4024 0.53112-2.2111 0.59077-2.4259l2.4976-8.8623h2.0947l1.8799 6.6422c0.47138 1.6471 0.81154 3.1958 1.0204 4.646 0.16705-0.82957 0.38492-1.7814 0.65351-2.8556l2.0588-8.4326h1.7456l-3.5986 13.123h-1.674l-2.7661-9.9992c-0.23273-0.8355-0.37001-1.3487-0.41177-1.5397-0.13729 0.60273-0.26561 1.116-0.38492 1.5397l-2.784 9.9992z" fill="#fff"/>
<path d="m137.34 427.44 1.665 0.20591c-0.26257 0.97274-0.74898 1.7278-1.4592 2.2648-0.71017 0.5371-1.6172 0.80565-2.7213 0.80565-1.3905 0-2.4931-0.42819-3.3077-1.2846-0.81462-0.85638-1.2219-2.0574-1.2219-3.6031 0-1.5993 0.41177-2.8407 1.2353-3.7239 0.82359-0.88324 1.8918-1.3249 3.2048-1.3249 1.2712 0 2.3096 0.43265 3.1152 1.298 0.80561 0.86535 1.2085 2.0828 1.2085 3.6524 0 0.0955 0 0.2387-0.009 0.42966h-7.0897c0.0594 1.0444 0.35506 1.8441 0.88618 2.3991 0.53117 0.55504 1.1936 0.83251 1.9872 0.83251 0.59087 0 1.0952-0.15513 1.5129-0.46549 0.41779-0.31031 0.74903-0.80565 0.99366-1.486zm-5.2906-2.605h5.3084c-0.0716-0.79962-0.27444-1.3994-0.60867-1.7993-0.51327-0.62062-1.1786-0.93098-1.9962-0.93098-0.74002 0-1.3622 0.24767-1.8664 0.74296-0.50431 0.49539-0.7833 1.1578-0.83707 1.9873z" fill="#fff"/>
<path d="m141.59 430.5h-1.4949v-13.123h1.6113v4.6818c0.68037-0.85334 1.5487-1.2801 2.6049-1.2801 0.58488 0 1.1384 0.11788 1.6606 0.35359 0.52215 0.23571 0.95191 0.56695 1.2891 0.99367 0.33712 0.42672 0.60117 0.94137 0.79222 1.5442 0.19087 0.60273 0.28639 1.2473 0.28639 1.9336 0 1.6292-0.40275 2.8884-1.2084 3.7776-0.80579 0.88926-1.7725 1.3338-2.9004 1.3338-1.1219 0-2.0021-0.46848-2.6408-1.4054zm-0.018-4.8251c0 1.1399 0.15513 1.9635 0.46549 2.4707 0.50725 0.82952 1.1935 1.2443 2.0589 1.2443 0.70419 0 1.3129-0.30585 1.8262-0.91755 0.51318-0.6117 0.76982-1.5233 0.76982-2.7348 0-1.2413-0.24615-2.1574-0.7385-2.7482-0.49235-0.59082-1.0877-0.88623-1.7859-0.88623-0.70419 0-1.313 0.3059-1.8262 0.91755-0.51323 0.6117-0.76982 1.4965-0.76982 2.6542z" fill="#fff"/>
<path d="m150.33 430.5v-13.123h3.9656l2.3811 8.9518 2.3544-8.9518h3.9746v13.123h-2.4618v-10.33l-2.605 10.33h-2.5512l-2.596-10.33v10.33z" fill="#fff"/>
<path d="m174.98 428.84c0.65047 0.46549 1.3576 0.8355 2.1215 1.11l-0.97573 1.8709c-0.39981-0.11935-0.7907-0.28345-1.1726-0.49235-0.0836-0.0413-0.6714-0.42966-1.7635-1.1638-0.85946 0.37599-1.8113 0.56401-2.8557 0.56401-2.0171 0-3.5971-0.59381-4.7399-1.7814s-1.7143-2.8556-1.7143-5.004c0-2.1425 0.57293-3.809 1.7187-4.9995 1.1458-1.1906 2.7004-1.7859 4.6639-1.7859 1.9455 0 3.4882 0.59533 4.628 1.7859 1.1399 1.1906 1.7097 2.857 1.7098 4.9995-0.00009 1.1339-0.15822 2.1306-0.47451 2.9899-0.23879 0.6565-0.62062 1.2921-1.1458 1.9068zm-2.1306-1.4949c0.34012-0.39986 0.59528-0.88324 0.76536-1.4502 0.17008-0.56695 0.25512-1.2175 0.25512-1.9515 0-1.5158-0.33418-2.6482-1.0025-3.3972-0.66845-0.74894-1.5427-1.1234-2.6229-1.1234s-1.956 0.37594-2.6273 1.1279c-0.6714 0.75193-1.0071 1.8828-1.0071 3.3927 0 1.5338 0.3357 2.681 1.0071 3.442 0.67135 0.7609 1.5203 1.1414 2.5467 1.1414 0.38196 0 0.74296-0.0627 1.0832-0.18802-0.5371-0.35212-1.0832-0.6266-1.6382-0.82354l0.74305-1.5129c0.87129 0.2984 1.7038 0.746 2.4975 1.3428z" fill="#fff"/>
<path d="m-132.63 399.66h99.313v99.313h-99.313z" fill="#999"/>
<text style="word-spacing:0px;letter-spacing:0px" xml:space="preserve" font-size="19.789px" line-height="125%" y="419.18417" x="-124.91141" font-family="Open Sans" fill="#ffffff"><tspan font-size="15.518px" y="419.18417" x="-124.91141">Browser <tspan font-size="12.414px" font-family="Open Sans">or</tspan></tspan><tspan font-size="15.518px" y="438.58121" x="-124.91141">Mobile</tspan><tspan font-size="12.414px" y="457.97827" x="-124.91141"/><tspan y="477.37531" x="-124.91141"/></text>
<rect ry="0" height="38.794" width="99.313" y="460.18" x="-132.63" fill="#3cc33c"/>
<text style="word-spacing:0px;letter-spacing:0px;text-anchor:middle;text-align:center" xml:space="preserve" font-size="11.829px" y="475.5719" x="-83.756859" font-family="Open Sans" line-height="125%" fill="#ffffff"><tspan style="text-anchor:middle;text-align:center" line-height="125%" y="475.5719" x="-83.756859">Your application</tspan><tspan style="text-anchor:middle;text-align:center" font-weight="bold" line-height="125%" y="490.3576" x="-83.756859">user interface</tspan></text>
<flowRoot style="word-spacing:0px;letter-spacing:0px" xml:space="preserve" transform="translate(-132.63 399.34)" line-height="125%" font-size="40px" font-family="Open Sans" fill="#000000"><flowRegion><rect y="-23.964" x="-121.43" width="982.86" height="272.86"/></flowRegion><flowPara/></flowRoot>
<path d="m322.06 401.21h99.313v99.313h-99.313z" fill="#999"/>
<text style="word-spacing:0px;letter-spacing:0px" font-weight="bold" xml:space="preserve" font-size="19.789px" line-height="125%" y="420.81787" x="329.71536" font-family="Sans" fill="#ffffff"><tspan font-weight="normal" font-size="15.518px" y="420.81787" x="329.71536" font-family="Open Sans">Database</tspan><tspan x="329.71536" y="440.2149"/></text>
<rect ry="0" height="38.794" width="99.313" y="461.73" x="322.06" fill="#3cc33c"/>
<text style="word-spacing:0px;letter-spacing:0px;text-anchor:middle;text-align:center" xml:space="preserve" font-size="11.829px" y="477.50006" x="370.90985" font-family="Open Sans" line-height="125%" fill="#ffffff"><tspan style="text-anchor:middle;text-align:center" line-height="125%" y="477.50006" x="370.90985">Your application</tspan><tspan style="text-anchor:middle;text-align:center" font-weight="bold" line-height="125%" y="492.28577" x="370.90985">business logic</tspan></text>
<text style="word-spacing:0px;letter-spacing:0px" font-weight="bold" xml:space="preserve" font-size="13px" line-height="125%" y="533.23633" x="66.749718" font-family="Play" fill="#3cc33c"><tspan font-weight="normal" font-size="13px" y="533.23633" x="66.749718" font-family="Open Sans" fill="#3cc33c">logically <tspan font-weight="bold">2-tier architecture</tspan></tspan></text>
<path stroke-linejoin="bevel" d="m-25.599 499.55 4.2606 1.1941c0.37048 0.10383 0.61491 0.53862 0.51108 0.90911-0.11249 0.40135-0.54728 0.64578-0.91776 0.54195l-4.2606-1.1941c-0.40136-0.11249-0.64578-0.54729-0.5333-0.94864 0.10384-0.37049 0.53863-0.61491 0.93998-0.50242zm8.5211 2.3882 4.2606 1.1941c0.40136 0.11249 0.61491 0.53863 0.51108 0.90911-0.11249 0.40136-0.51641 0.65444-0.91776 0.54195l-4.2606-1.1941c-0.40136-0.11249-0.61491-0.53863-0.50242-0.93999 0.10384-0.37048 0.50776-0.62356 0.90911-0.51107zm8.5211 2.3882 4.2914 1.2028c0.37048 0.10384 0.61491 0.53863 0.51108 0.90911-0.11249 0.40136-0.54728 0.64579-0.91776 0.54195l-4.2914-1.2028c-0.37048-0.10384-0.61491-0.53863-0.50242-0.93999 0.10384-0.37048 0.53863-0.61491 0.90911-0.51107zm8.552 2.3969 4.2606 1.1941c0.40136 0.11249 0.61491 0.53863 0.51108 0.90911-0.11249 0.40136-0.51641 0.65444-0.91776 0.54195l-4.2606-1.1941c-0.40136-0.11249-0.61491-0.53863-0.50242-0.93998 0.10384-0.37049 0.50775-0.62357 0.90911-0.51108zm8.5211 2.3882 4.2914 1.2028c0.37048 0.10383 0.61491 0.53862 0.51107 0.90911-0.11249 0.40135-0.54728 0.64578-0.91776 0.54195l-4.2914-1.2028c-0.37048-0.10383-0.61491-0.53863-0.50242-0.93998 0.10384-0.37049 0.53863-0.61491 0.90911-0.51108zm8.552 2.3969 4.2606 1.1941c0.40136 0.11248 0.61491 0.53862 0.51107 0.90911-0.11249 0.40136-0.51641 0.65443-0.91776 0.54195l-4.2606-1.1941c-0.40136-0.11249-0.61491-0.53863-0.50242-0.93999 0.10384-0.37048 0.50776-0.62356 0.90911-0.51107zm8.5211 2.3882 4.2914 1.2028c0.37048 0.10384 0.61491 0.53863 0.51108 0.90911-0.11249 0.40136-0.54728 0.64579-0.91776 0.54195l-4.2914-1.2028c-0.37048-0.10384-0.61491-0.53863-0.50242-0.93999 0.10384-0.37048 0.53863-0.61491 0.90911-0.51107zm8.552 2.3969 4.2606 1.1941c0.40136 0.11249 0.61491 0.53863 0.51108 0.90911-0.11249 0.40136-0.51641 0.65444-0.91776 0.54195l-4.2606-1.1941c-0.40136-0.11249-0.61491-0.53863-0.50242-0.93998 0.10384-0.37049 0.50775-0.62357 0.90911-0.51108zm8.5211 2.3882 4.2914 1.2028c0.37048 0.10383 0.61491 0.53862 0.51108 0.90911-0.11249 0.40135-0.54728 0.64578-0.91776 0.54195l-4.2914-1.2028c-0.37048-0.10383-0.61491-0.53863-0.50242-0.93998 0.10384-0.37049 0.53863-0.61491 0.90911-0.51108zm8.552 2.3969 4.2606 1.1941c0.40136 0.11248 0.61491 0.53862 0.51108 0.90911-0.11249 0.40135-0.51641 0.65443-0.91776 0.54195l-4.2606-1.1941c-0.40136-0.11249-0.61491-0.53863-0.50242-0.93999 0.10384-0.37048 0.50776-0.62356 0.90911-0.51108zm8.5211 2.3882 4.2914 1.2028c0.37048 0.10384 0.61491 0.53863 0.51108 0.90911-0.11249 0.40136-0.54728 0.64579-0.91776 0.54195l-4.2914-1.2028c-0.37048-0.10384-0.61491-0.53863-0.50242-0.93999 0.10384-0.37048 0.53863-0.61491 0.90911-0.51107z" stroke="#3cc33c" stroke-width=".51301px" fill="#3cc33c"/>
<path stroke-linejoin="bevel" d="m319.85 501.66-3.8657 1.1922c-0.33614 0.10366-0.54925 0.50683-0.44558 0.84298 0.11231 0.36415 0.51547 0.57726 0.85162 0.47359l3.8657-1.1922c0.36415-0.1123 0.57726-0.51547 0.46495-0.87963-0.10367-0.33614-0.50683-0.54925-0.87099-0.43694zm-7.7314 2.3844-3.8657 1.1922c-0.36416 0.11231-0.54925 0.50683-0.44558 0.84298 0.11231 0.36416 0.48746 0.5859 0.85162 0.47359l3.8657-1.1922c0.36415-0.11231 0.54925-0.50684 0.43694-0.871-0.10367-0.33614-0.47882-0.55789-0.84298-0.44558zm-7.7314 2.3844-3.8937 1.2008c-0.33615 0.10367-0.54925 0.50683-0.44558 0.84298 0.11231 0.36416 0.51547 0.57726 0.85162 0.47359l3.8937-1.2008c0.33614-0.10367 0.54925-0.50684 0.43694-0.871-0.10367-0.33614-0.50684-0.54925-0.84298-0.44558zm-7.7594 2.393-3.8657 1.1922c-0.36416 0.11231-0.54925 0.50683-0.44558 0.84298 0.11231 0.36416 0.48746 0.5859 0.85162 0.47359l3.8657-1.1922c0.36416-0.11231 0.54925-0.50684 0.43695-0.871-0.10367-0.33614-0.47883-0.55789-0.84298-0.44558zm-7.7314 2.3844-3.8937 1.2008c-0.33615 0.10367-0.54925 0.50683-0.44558 0.84298 0.11231 0.36416 0.51547 0.57726 0.85162 0.47359l3.8937-1.2008c0.33615-0.10367 0.54925-0.50684 0.43695-0.87099-0.10367-0.33615-0.50684-0.54926-0.84298-0.44559zm-7.7594 2.393-3.8657 1.1922c-0.36416 0.11231-0.54925 0.50683-0.44558 0.84298 0.1123 0.36416 0.48746 0.5859 0.85162 0.47359l3.8657-1.1922c0.36416-0.11231 0.54925-0.50684 0.43694-0.87099-0.10366-0.33615-0.47882-0.55789-0.84298-0.44559zm-7.7314 2.3844-3.8937 1.2008c-0.33615 0.10367-0.54925 0.50683-0.44558 0.84298 0.1123 0.36416 0.51547 0.57726 0.85162 0.47359l3.8937-1.2008c0.33615-0.10367 0.54925-0.50683 0.43694-0.87099-0.10366-0.33615-0.50683-0.54925-0.84298-0.44558zm-7.7594 2.393-3.8657 1.1922c-0.36416 0.11231-0.54925 0.50684-0.44558 0.84298 0.1123 0.36416 0.48745 0.5859 0.85162 0.4736l3.8657-1.1922c0.36416-0.11231 0.54925-0.50683 0.43694-0.87099-0.10367-0.33615-0.47882-0.55789-0.84298-0.44558zm-7.7314 2.3844-3.8937 1.2008c-0.33614 0.10367-0.54925 0.50684-0.44558 0.84298 0.11231 0.36416 0.51547 0.57727 0.85162 0.4736l3.8937-1.2008c0.33615-0.10367 0.54925-0.50683 0.43694-0.87099-0.10367-0.33615-0.50683-0.54925-0.84298-0.44558zm-7.7594 2.393-3.8657 1.1922c-0.36415 0.11231-0.54925 0.50684-0.44558 0.84298 0.11231 0.36416 0.48746 0.58591 0.85162 0.4736l3.8657-1.1922c0.36415-0.11231 0.54925-0.50683 0.43694-0.87099-0.10367-0.33615-0.47882-0.55789-0.84298-0.44558zm-7.7314 2.3844-3.8937 1.2008c-0.33614 0.10367-0.54925 0.50684-0.44558 0.84298 0.11231 0.36416 0.51547 0.57727 0.85162 0.4736l3.8937-1.2008c0.33614-0.10367 0.54925-0.50683 0.43694-0.87099-0.10367-0.33615-0.50683-0.54925-0.84298-0.44558z" stroke="#3cc33c" stroke-width=".46903px" fill="#3cc33c"/>
<path fill="#1a1a1a" d="m110.24 405.66h78.582v78.583h-78.582z"/>
<path style="block-progression:tb;text-indent:0;color:#000000;text-transform:none" fill="#ffde00" d="m110.24 427.44v7.8583l18.52-0.0564 12.329 12.33 5.6785-5.6786-14.581-14.581z"/>
<path style="block-progression:tb;text-indent:0;color:#000000;text-transform:none" fill="#ffde00" d="m157.89 453.03-5.6785 5.6785 14.095 14.095h22.51v-7.8789h-19.032z"/>
<path style="block-progression:tb;text-indent:0;color:#000000;text-transform:none" fill="#ffde00" d="m166.87 427.34-37.494 37.668h-19.14v7.8583h22.439l37.622-37.596h18.52v-7.9299z"/>
<g fill="#fff">
<path d="m120.42 419.44c-1.0468 0.20942-2.0461 0.31412-2.9979 0.31412-0.38078 0-0.74007-0.0167-1.0779-0.0501-0.33779-0.0334-0.71371-0.10478-1.1277-0.21413-0.41404-0.10936-0.7662-0.25683-1.0565-0.44243-0.2903-0.18559-0.53537-0.44736-0.7352-0.7853s-0.29974-0.73534-0.29974-1.1922v-4.0688c0-1.8652 1.4324-2.7979 4.297-2.7979 0.70433 0.00001 1.6846 0.10471 2.9408 0.31412v1.6704c-1.1325-0.26663-2.1032-0.39994-2.912-0.39995-0.32357 0.00001-0.58766 0.01-0.79228 0.0285-0.20462 0.019-0.41883 0.0666-0.64262 0.14268-0.22379 0.0761-0.39036 0.19744-0.49971 0.36401-0.10936 0.16658-0.16404 0.38318-0.16403 0.6498v3.9402c-0.00001 0.83736 0.76605 1.256 2.2982 1.256 0.67587 0.00001 1.5991-0.13796 2.7696-0.41389z"/>
<path d="m126.3 414.29h-0.71407c-0.57103 0-1.0017 0.088-1.292 0.26402-0.29031 0.17601-0.43546 0.47823-0.43546 0.90663v4.1542h-2.0843v-6.9098h1.9845v1.2138c0.01-0.34273 0.20709-0.65445 0.59252-0.93518 0.38542-0.28071 0.78755-0.42107 1.2064-0.42108h0.74239z"/>
<path d="m134.26 415.2v2.0416c-0.00001 0.4473-0.0714 0.83033-0.21413 1.1491-0.14277 0.31877-0.31885 0.56616-0.52826 0.74217-0.20942 0.17602-0.48302 0.31166-0.82081 0.40692-0.33779 0.0953-0.64705 0.15481-0.92776 0.17863-0.28073 0.0238-0.62099 0.0357-1.0208 0.0357-0.3998 0-0.74007-0.0119-1.0208-0.0357-0.28072-0.0238-0.59005-0.0834-0.92799-0.17863-0.33794-0.0953-0.61161-0.2309-0.82102-0.40692-0.20942-0.17601-0.3855-0.4234-0.52826-0.74217-0.14275-0.31876-0.21413-0.70179-0.21413-1.1491v-2.0416c0-0.47604 0.0738-0.88296 0.22132-1.2208 0.14755-0.33779 0.32843-0.59708 0.54263-0.7779 0.21421-0.18079 0.4926-0.32123 0.83519-0.42129 0.34258-0.10005 0.64951-0.16192 0.9208-0.1856 0.27127-0.0237 0.60202-0.0355 0.99224-0.0355 0.39022 0.00001 0.72097 0.0119 0.99225 0.0355 0.27127 0.0237 0.57821 0.0856 0.9208 0.1856 0.34257 0.10006 0.6209 0.2405 0.83496 0.42129 0.21406 0.18082 0.39486 0.44011 0.54242 0.7779 0.14754 0.3378 0.22131 0.74472 0.22132 1.2208zm-2.0843 2.2842v-2.6127c-0.00001-0.37119-0.0952-0.63528-0.28559-0.79227s-0.5711-0.23548-1.1421-0.23548c-0.57102 0-0.95165 0.0785-1.1419 0.23548-0.19024 0.15699-0.28536 0.42108-0.28536 0.79227v2.6127c0 0.36162 0.0927 0.6138 0.27818 0.75655 0.18544 0.14276 0.56847 0.21414 1.1491 0.21414 0.58061 0 0.96371-0.0714 1.1493-0.21414 0.18559-0.14275 0.27839-0.39493 0.2784-0.75655z"/>
<path d="m141.84 416.91v0.87091c0 0.34244-0.0642 0.63739-0.19256 0.88485-0.12839 0.24746-0.29017 0.44025-0.48534 0.57836-0.19519 0.13811-0.44984 0.24521-0.76396 0.32131s-0.61626 0.12605-0.90642 0.14987c-0.29016 0.0238-0.63042 0.0357-1.0208 0.0357-0.75198 0-1.6609-0.0714-2.7269-0.21435v-1.3846c1.323 0.19983 2.2415 0.29975 2.7556 0.29975 0.40924 0 0.72569-0.0405 0.94934-0.12134 0.22364-0.0809 0.33546-0.24027 0.33546-0.47815v-0.4287c0-0.21871-0.0619-0.38281-0.18559-0.49232-0.12374-0.10949-0.39022-0.16424-0.79946-0.16424h-0.89967c-0.72322 0-1.287-0.14515-1.6915-0.43546-0.40445-0.2903-0.60668-0.71617-0.60668-1.2776v-0.84216c0-0.62824 0.29982-1.0613 0.89945-1.2992 0.59963-0.23787 1.4466-0.35681 2.5411-0.35682 0.45687 0.00001 1.2754 0.0429 2.4554 0.12853v1.3275c-1.4848-0.11414-2.3223-0.17121-2.5125-0.17121-0.58061 0-0.94708 0.0405-1.0994 0.12133-0.15234 0.0809-0.22851 0.23549-0.22851 0.46377v0.3712c0 0.11415 0.0595 0.21886 0.17863 0.31412 0.11908 0.0953 0.30235 0.1429 0.54982 0.1429h0.9136c1.6939 0 2.5408 0.552 2.5408 1.656z"/>
<path d="m149.34 416.91v0.87091c0 0.34244-0.0642 0.63739-0.19257 0.88485-0.12838 0.24746-0.29016 0.44025-0.48534 0.57836s-0.44983 0.24521-0.76395 0.32131c-0.31413 0.0761-0.61627 0.12605-0.90642 0.14987-0.29016 0.0238-0.63042 0.0357-1.0208 0.0357-0.75198 0-1.6609-0.0714-2.7269-0.21435v-1.3846c1.323 0.19983 2.2415 0.29975 2.7556 0.29975 0.40924 0 0.72568-0.0405 0.94933-0.12134 0.22365-0.0809 0.33547-0.24027 0.33547-0.47815v-0.4287c0-0.21871-0.0619-0.38281-0.18559-0.49232-0.12374-0.10949-0.39023-0.16424-0.79946-0.16424h-0.89967c-0.72322 0-1.287-0.14515-1.6915-0.43546-0.40445-0.2903-0.60668-0.71617-0.60668-1.2776v-0.84216c0-0.62824 0.29982-1.0613 0.89945-1.2992 0.59963-0.23787 1.4466-0.35681 2.5411-0.35682 0.45687 0.00001 1.2754 0.0429 2.4554 0.12853v1.3275c-1.4848-0.11414-2.3223-0.17121-2.5125-0.17121-0.58061 0-0.94708 0.0405-1.0994 0.12133-0.15234 0.0809-0.22851 0.23549-0.22851 0.46377v0.3712c0 0.11415 0.0595 0.21886 0.17863 0.31412 0.11908 0.0953 0.30235 0.1429 0.54982 0.1429h0.9136c1.6939 0 2.5408 0.552 2.5408 1.656z"/>
<path d="m157.97 414.89v2.2699c-0.00001 0.94222-0.28312 1.6108-0.84935 2.0058-0.56623 0.39501-1.4776 0.59251-2.7341 0.59251-1.3227 0-2.2363-0.20701-2.7408-0.62105-0.50451-0.41403-0.75677-1.0731-0.75676-1.9773v-7.538h2.0843v3.769c0.12373-0.31397 0.35456-0.53042 0.6925-0.64937 0.33794-0.11893 0.85428-0.1784 1.549-0.17841 0.5899 0.00001 1.0704 0.0476 1.4416 0.14269 0.37119 0.0951 0.65198 0.24979 0.84238 0.46399 0.19038 0.21421 0.31651 0.44977 0.37838 0.70666 0.0619 0.25691 0.0928 0.59477 0.0928 1.0136zm-2.0843 2.5408v-2.5552c-0.00001-0.44729-0.0833-0.7304-0.24986-0.84935-0.16658-0.11893-0.57822-0.1784-1.2349-0.1784-0.5902 0-0.97569 0.0761-1.1565 0.22829-0.18081 0.1522-0.27121 0.41869-0.27121 0.79946v2.5552c0 0.40953 0.0881 0.68328 0.26423 0.82124 0.17616 0.13797 0.56877 0.20695 1.1778 0.20695 0.60907 0 1.0064-0.069 1.192-0.20695 0.18559-0.13796 0.27839-0.41171 0.2784-0.82124z"/>
<path d="m165.81 419.61h-2.0416v-0.62824c-0.1522 0.27593-0.37105 0.47343-0.65656 0.59252-0.28552 0.11908-0.80905 0.17862-1.5706 0.17862-0.93264 0-1.5512-0.14275-1.8558-0.42826-0.30453-0.28551-0.4568-0.88035-0.4568-1.7845 0-0.81848 0.15706-1.3872 0.47118-1.7061 0.31412-0.31891 0.87563-0.47837 1.6845-0.47837h2.3413v-0.47096c0-0.41883-0.0976-0.69722-0.29277-0.83519-0.19518-0.13796-0.60675-0.20694-1.2347-0.20694-0.59019 0-1.3992 0.0571-2.4271 0.17121v-1.3136c0.79002-0.095 1.6704-0.14246 2.6411-0.14247 1.2754 0.00001 2.1605 0.15467 2.6554 0.464 0.49492 0.30933 0.74238 0.92073 0.74239 1.8342zm-2.0843-1.7701v-1.3419h-1.4277c-0.45688 0-0.74239 0.0523-0.85653 0.15684-0.11415 0.10456-0.17123 0.38528-0.17122 0.84216-0.00001 0.44729 0.0595 0.71857 0.17841 0.81383 0.11893 0.0953 0.42107 0.14291 0.90641 0.14291 0.23788 0 0.41396-0.002 0.52826-0.007 0.11429-0.005 0.23802-0.0167 0.37119-0.0357s0.22597-0.05 0.2784-0.0928c0.0524-0.0428 0.0977-0.10231 0.13571-0.17841 0.038-0.0761 0.0571-0.17601 0.0571-0.29974z"/>
<path d="m172.17 414.29h-0.71407c-0.57103 0-1.0017 0.088-1.292 0.26402-0.29031 0.17601-0.43546 0.47823-0.43546 0.90663v4.1542h-2.0843v-6.9098h1.9845v1.2138c0.01-0.34273 0.20709-0.65445 0.59252-0.93518 0.38542-0.28071 0.78755-0.42107 1.2064-0.42108h0.74239z"/>
<path d="m175.04 419.61h-1.656v-1.5418h1.656z"/>
<path d="m178.44 411.55h-1.2848v-1.3419h1.2848zm0 8.0661h-1.2848v-6.9098h1.2848z"/>
<path d="m186.78 415.03v2.3984c-0.00001 0.42841-0.0524 0.79016-0.15706 1.0853-0.10471 0.2951-0.23796 0.52353-0.39973 0.68531-0.16179 0.16178-0.39262 0.28552-0.6925 0.3712-0.2999 0.0857-0.58548 0.13803-0.85675 0.15706-0.27129 0.019-0.63057 0.0285-1.0779 0.0285-0.57103 0-1.0159-0.019-1.3347-0.0571-0.31877-0.038-0.63761-0.13085-0.95652-0.27839-0.31891-0.14755-0.54735-0.38311-0.68531-0.70667-0.13797-0.32356-0.20695-0.75197-0.20695-1.2852v-2.3984c0-0.45658 0.0548-0.84193 0.16425-1.1561 0.1095-0.31411 0.24274-0.55686 0.39973-0.72823 0.15699-0.17136 0.38775-0.3022 0.69229-0.39254 0.30453-0.0903 0.58764-0.145 0.84934-0.16403 0.26169-0.019 0.62098-0.0285 1.0779-0.0285 0.45687 0.00001 0.81616 0.01 1.0779 0.0285 0.26168 0.019 0.54487 0.0737 0.84956 0.16403 0.30467 0.0903 0.53551 0.22118 0.6925 0.39254 0.15698 0.17137 0.29023 0.41412 0.39973 0.72823 0.10949 0.31413 0.16424 0.69948 0.16425 1.1561zm-1.3136 2.584v-2.7979c-0.00001-0.63782-0.12853-1.0328-0.38558-1.185-0.25705-0.15219-0.75197-0.22828-1.4848-0.22829-0.73281 0.00001-1.2277 0.0761-1.4846 0.22829-0.2569 0.1522-0.38536 0.54722-0.38535 1.185v2.7979c-0.00001 0.30469 0.0332 0.54743 0.0998 0.72823 0.0665 0.18081 0.19024 0.31165 0.37119 0.39254 0.18095 0.0809 0.36654 0.13085 0.55679 0.14987 0.19024 0.019 0.47096 0.0285 0.84216 0.0285 0.37119 0 0.65198-0.01 0.84237-0.0285 0.19039-0.019 0.37598-0.069 0.55679-0.14987 0.1808-0.0809 0.30453-0.21173 0.3712-0.39254 0.0667-0.1808 0.1-0.42354 0.1-0.72823z"/>
</g>
</g>
</svg>
