<?xml version="1.0" encoding="UTF-8" standalone="no"?>
<svg xmlns:rdf="http://www.w3.org/1999/02/22-rdf-syntax-ns#" xmlns="http://www.w3.org/2000/svg" version="1.1" xmlns:cc="http://creativecommons.org/ns#" xmlns:xlink="http://www.w3.org/1999/xlink" viewBox="0 0 55.381 94.403" xmlns:dc="http://purl.org/dc/elements/1.1/">
<metadata>
<rdf:RDF>
<cc:Work rdf:about="">
<dc:format>image/svg+xml</dc:format>
<dc:type rdf:resource="http://purl.org/dc/dcmitype/StillImage"/>
<dc:title/>
</cc:Work>
</rdf:RDF>
</metadata>
<g transform="translate(-800.03 -568.88)">
<g fill="#808080" transform="matrix(.18163 0 0 .18163 805.75 574.24)">
<g fill="#808080">
<path d="m82.626 243.32s-11.939 7.2672 8.3052 9.3435c24.397 3.1144 37.374 2.5958 64.366-2.5953 0 0 7.2672 4.6716 17.13 8.3055-60.733 25.954-137.56-1.5577-89.801-15.054l0.00005-0.00003zm-7.7864-33.74s-12.977 9.8623 7.2672 11.939c26.474 2.5958 47.237 3.1144 83.053-4.1526 0 0 4.6719 5.1909 12.458 7.7864-73.191 21.802-155.21 2.0763-102.78-15.572l-0.0005 0.0001zm143.27 59.175s8.8245 7.2674-9.8625 12.977c-34.779 10.382-145.86 13.496-177.01 0-10.901-4.6714 9.8628-11.42 16.61-12.458 6.7482-1.5571 10.382-1.5571 10.382-1.5571-11.938-8.3055-79.42 17.13-34.26 24.397 124.06 20.244 226.32-8.8243 194.14-23.359l0.00094 0.00008zm-129.77-94.48s-56.58 13.496-20.244 18.168c15.572 2.0761 46.198 1.5575 74.748-0.51903 23.358-2.0763 46.718-6.2289 46.718-6.2289s-8.3055 3.6334-14.016 7.2674c-57.618 15.053-168.18 8.305-136.52-7.2674 26.992-12.977 49.312-11.42 49.312-11.42l0.0003-0.00003zm101.22 56.58c58.137-30.107 31.145-59.175 12.458-55.542-4.6719 1.038-6.7482 2.0763-6.7482 2.0763s1.5573-3.1146 5.1907-4.1526c36.855-12.977 65.924 38.931-11.938 59.175 0 0 0.51861-0.51903 1.038-1.5573l-0.00006 0.00001zm-95.512 82.015c56.061 3.6338 141.71-2.0763 143.79-28.549 0 0-4.1524 10.382-46.198 18.168-47.756 8.8247-106.93 7.7864-141.71 2.0763 0 0 7.267 6.2292 44.122 8.3055l0.0001 0.00003z"/>
<path d="m154.26 2.9854s32.183 32.702-30.626 82.015c-50.351 39.969-11.42 62.809 0 88.763-29.588-26.473-50.87-49.832-36.336-71.634 21.283-32.183 79.939-47.755 66.962-99.145v-0.0001zm-16.61 148.98c15.053 17.13-4.1528 32.703-4.1528 32.703s38.412-19.725 20.763-44.122c-16.092-23.358-28.55-34.778 38.931-73.71 0 0-106.41 26.474-55.542 85.13l0.00003-0.0001zm-38.412 278.75v-50.87c0-12.978-7.2672-21.802-25.435-21.802-10.382 0-19.206 2.5953-26.992 5.7097l2.5958 9.3435c5.7097-2.0763 12.977-4.1528 20.763-4.1528 9.8625 0 14.534 4.1528 14.534 12.458v6.7482h-5.1907c-24.916 0-36.336 9.3435-36.336 24.397 0 12.458 7.7862 19.725 21.802 19.725 8.8243 0 15.573-4.1528 21.802-9.3435l1.0383 7.7864h11.42l0.00006 0.00003zm-14.535-16.611c-5.1907 4.6716-10.901 7.2674-16.092 7.2674-6.7478 0-10.9-4.1526-10.9-11.42s4.1526-12.458 20.763-12.458h6.2287v16.61l0.00007-0.00001zm63.328 16.611h-18.168l-21.801-71.115h15.573l13.496 43.603 3.1144 12.977c6.7482-18.687 11.939-37.893 14.016-56.58h15.572c-4.1526 23.359-11.42 48.794-21.801 71.115h-0.00007zm84.091 0v-50.87c0-12.978-7.2672-21.802-25.435-21.802-10.382 0-19.206 2.5953-26.992 5.7097l2.0765 9.3435c6.2289-2.0763 13.496-4.1528 21.283-4.1528 9.8625 0 14.534 4.1528 14.534 12.458v6.7482h-5.1907c-24.916 0-36.336 9.3435-36.336 24.397 0 12.458 7.2672 19.725 21.282 19.725 9.3435 0 16.092-4.1528 22.321-9.3435l1.0383 7.7864h11.42v0.00003zm-14.534-16.611c-5.1907 4.6716-10.901 7.2674-16.092 7.2674-6.7478 0-10.9-4.1526-10.9-11.42s4.1526-12.458 20.763-12.458h6.2289v16.61l0.00006-0.00001zm-190.5 28.55c-4.1526 6.2289-10.382 10.901-18.168 13.496l-6.7484-8.3055c5.1907-3.1144 10.382-7.7858 12.458-11.939 2.0763-3.6336 2.5958-8.8247 2.5958-20.763v-80.977h15.572v79.939c0 16.092-1.5573 22.32-5.7101 28.55l-0.00006-0.00014z"/>
</g>
</g>
</g>
</svg>
