<?xml version="1.0" encoding="UTF-8" standalone="no"?>
<svg xmlns:rdf="http://www.w3.org/1999/02/22-rdf-syntax-ns#" xmlns="http://www.w3.org/2000/svg" version="1.1" xmlns:cc="http://creativecommons.org/ns#" xmlns:dc="http://purl.org/dc/elements/1.1/" viewBox="0 0 1169.4 853.5">
<defs>
<clipPath id="a" clipPathUnits="userSpaceOnUse">
<rect y="458.52" width="283.61" x="356.07" height="54.973"/>
</clipPath>
</defs>
<metadata>
<rdf:RDF>
<cc:Work rdf:about="">
<dc:format>image/svg+xml</dc:format>
<dc:type rdf:resource="http://purl.org/dc/dcmitype/StillImage"/>
<dc:title/>
</cc:Work>
</rdf:RDF>
</metadata>
<g transform="translate(210.18 -114.44)">
<g transform="translate(-205.18 119.44)">
<path d="m113.54 441.74v81.6h938.99v-81.6h-938.99z" fill-rule="evenodd" fill="#d9d9d9"/>
<path d="m113.54 332.88v69.966h660.77v-69.966h-660.77z" fill-rule="evenodd" fill="#595959"/>
<text xml:space="preserve" font-size="16.242px" y="362.32162" x="333.58575" font-family="Open Sans" fill="#ffffff">Linux based Virtual Appliance</text>
<text xml:space="preserve" font-size="16.242px" y="385.88318" x="280.18671" font-family="Open Sans" fill="#ffffff">(runs on VMware, VirtualBox and Amazon EC2)</text>
<path d="m113.54 2.4988v330.38h660.77v-330.38h-660.77z" fill-rule="evenodd" fill="#ffe000"/>
<path d="m130.48 255.19v58.253h272.05v-58.253h-272.05z" fill-rule="evenodd" fill="#fff"/>
<text xml:space="preserve" font-size="16.242px" y="289.8573" x="193.65466" font-family="Open Sans" fill="#404040"><tspan font-weight="bold">WebSocket Server</tspan></text>
<path d="m130.48 138.53v106.9h131.26v-106.9h-131.26z" fill-rule="evenodd" fill="#fff"/>
<text xml:space="preserve" font-size="16.242px" y="167.41757" x="161.17065" font-family="Open Sans" fill="#404040"><tspan font-weight="bold">Message </tspan></text>
<text xml:space="preserve" font-size="16.242px" y="187.40773" x="168.66696" font-family="Open Sans" fill="#404040"><tspan font-weight="bold">Broker</tspan></text>
<text xml:space="preserve" font-size="14.993px" y="226.13866" x="142.42989" font-family="Open Sans" fill="#fa72c6">WAMP </text>
<text xml:space="preserve" font-size="14.993px" y="226.13866" x="193.65466" font-family="Open Sans" fill="#000000"><tspan font-weight="bold">PubSub</tspan></text>
<path d="m270.34 138.53v106.9h132.2v-106.9h-132.2z" fill-rule="evenodd" fill="#fff"/>
<text xml:space="preserve" font-size="16.242px" y="167.41757" x="298.603" font-family="Open Sans" fill="#404040"><tspan font-weight="bold">Remoting </tspan></text>
<text xml:space="preserve" font-size="16.242px" y="187.40773" x="302.35114" font-family="Open Sans" fill="#404040"><tspan font-weight="bold">Gateway</tspan></text>
<text xml:space="preserve" font-size="14.993px" y="226.13866" x="294.85483" font-family="Open Sans" fill="#fa72c6">WAMP </text>
<text xml:space="preserve" font-size="14.993px" y="226.13866" x="346.07962" font-family="Open Sans" fill="#000000"><tspan font-weight="bold">RPC</tspan></text>
<path d="m130.48 70.512v58.331h272.05v-58.331h-272.05z" fill-rule="evenodd" fill="#fff"/>
<text font-weight="bold" xml:space="preserve" font-size="16.242px" y="94.953255" x="197.40282" font-family="Open Sans" fill="#404040">REST </text>
<text font-weight="bold" xml:space="preserve" font-size="16.242px" y="94.953255" x="246.12881" font-family="Open Sans" fill="#404040">&amp; </text>
<text font-weight="bold" xml:space="preserve" font-size="16.242px" y="94.953255" x="262.37082" font-family="Open Sans" fill="#404040">Database</text>
<text xml:space="preserve" font-size="16.242px" y="114.94341" x="192.40527" font-family="Open Sans" fill="#404040">Integration Services</text>
<path d="m621.33 70.512v242.93h136.03v-242.93h-136.03z" fill-rule="evenodd" fill="#fff"/>
<text xml:space="preserve" font-size="16.242px" y="177.41264" x="638.43567" font-family="Open Sans" fill="#404040"><tspan font-weight="bold">Management</tspan></text>
<text xml:space="preserve" font-size="16.242px" y="197.40282" x="683.41351" font-family="Open Sans" fill="#404040"><tspan font-weight="bold">&amp;</tspan></text>
<text xml:space="preserve" font-size="16.242px" y="217.39297" x="645.93201" font-family="Open Sans" fill="#404040"><tspan font-weight="bold">Monitoring</tspan></text>
<path d="m411.98 139.15v174.29h198.73v-174.29h-198.73z" fill-rule="evenodd" fill="#fff"/>
<text xml:space="preserve" font-size="16.242px" y="231.1362" x="466.02057" font-family="Open Sans" fill="#404040"><tspan font-weight="bold">Web Server</tspan></text>
<path d="m411.98 71.527v58.253h198.26v-58.253h-198.26z" fill-rule="evenodd" fill="#fff"/>
<text xml:space="preserve" font-size="16.242px" y="96.202637" x="463.52179" font-family="Open Sans" fill="#404040"><tspan font-weight="bold">Deployment</tspan></text>
<text xml:space="preserve" font-size="16.242px" y="116.19279" x="468.51932" font-family="Open Sans" fill="#404040">(</text>
<text xml:space="preserve" font-size="16.242px" y="116.19279" x="474.76624" font-family="Open Sans" fill="#404040">FTP </text>
<text xml:space="preserve" font-size="16.242px" y="116.19279" x="510.99841" font-family="Open Sans" fill="#404040">&amp; </text>
<text xml:space="preserve" font-size="16.242px" y="116.19279" x="525.99103" font-family="Open Sans" fill="#404040">Git</text>
<text xml:space="preserve" font-size="16.242px" y="116.19279" x="547.23059" font-family="Open Sans" fill="#404040">)</text>
<path d="m114.47 678.81v58.331h194.36v-58.331h-194.36z" fill-rule="evenodd" fill="#595959"/>
<text xml:space="preserve" font-size="16.242px" y="713.39874" x="184.90897" font-family="Open Sans" fill="#ffffff">HTML</text>
<text xml:space="preserve" font-size="16.242px" y="713.39874" x="229.88683" font-family="Open Sans" fill="#ffffff">5</text>
<path d="m114.47 620.48v58.331h194.36v-58.331h-194.36z" fill-rule="evenodd" fill="#027eae"/>
<text xml:space="preserve" font-size="16.242px" y="654.67767" x="166.16818" font-family="Open Sans" fill="#ffffff">AutobahnJS</text>
<path d="m346.88 678.34v58.331h194.36v-58.331h-194.36z" fill-rule="evenodd" fill="#595959"/>
<text xml:space="preserve" font-size="16.242px" y="713.39874" x="414.79578" font-family="Open Sans" fill="#ffffff">Android</text>
<path d="m346.86 620.48v58.331h194.36v-58.331h-194.36z" fill-rule="evenodd" fill="#027eae"/>
<text xml:space="preserve" font-size="16.242px" y="654.67767" x="379.81299" font-family="Open Sans" fill="#ffffff">AutobahnAndroid</text>
<path d="m619.15 678.81v58.331h194.36v-58.331h-194.36z" fill-rule="evenodd" fill="#595959"/>
<text xml:space="preserve" font-size="16.242px" y="701.2608" x="666.81317" font-family="Open Sans" fill="#ffffff">Linux, *BSD,</text>
<text xml:space="preserve" font-size="16.242px" y="722.38373" x="652.47131" font-family="Open Sans" fill="#ffffff">Windows, OSX, ...</text>
<path d="m619.15 620.48v58.331h194.36v-58.331h-194.36z" fill-rule="evenodd" fill="#027eae"/>
<text xml:space="preserve" font-size="16.242px" y="654.67767" x="654.67767" font-family="Open Sans" fill="#ffffff">AutobahnPython</text>
<path stroke-linejoin="round" d="m74.651 332.88c-6.4031 0-11.635-5.2318-11.635-11.635v0-139.54c0-6.4031-5.2318-11.635-11.713-11.635v0c6.4812 0 11.713-5.2318 11.713-11.635v0 0-144.3c0-6.4031 5.2318-11.635 11.635-11.635v0" stroke="#595959" stroke-linecap="round" stroke-width="1.1713px" fill="none"/>
<path stroke-linejoin="round" d="m74.651 527.24c-6.4031 0-11.635-5.2318-11.635-11.713v0-17.023c0-6.4812-5.2318-11.635-11.713-11.635v0c6.4812 0 11.713-5.2318 11.713-11.713v0 0-21.786c0-6.4031 5.2318-11.635 11.635-11.635v0" stroke="#595959" stroke-linecap="round" stroke-width="1.1713px" fill="none"/>
<path stroke-linejoin="round" d="m75.666 678.81c-6.4812 0-11.713-5.2318-11.713-11.635v0 0-4.529c0-6.4031-5.2318-11.635-11.635-11.635v0c6.4031 0 11.635-5.2318 11.635-11.635v0-7.184c0-6.4812 5.2318-11.713 11.713-11.713v0" stroke="#595959" stroke-linecap="round" stroke-width="1.1713px" fill="none"/>
<path d="m0 0" clip-path="url(#a)" stroke="#000" stroke-width="1px" fill="none"/>
<path d="m375.51 509.29v-7.7442h-2.9428v-1.0456h7.0826v1.0456h-2.9594v7.7442z" fill="#7e8696"/>
<path d="m380.73 509.29v-8.7898h1.0973v3.1532c0.5154-0.58817 1.1638-0.86591 1.9452-0.86591 0.48216 0 0.8978 0.0817 1.247 0.27774 0.34914 0.17972 0.59853 0.44113 0.76479 0.76789 0.14963 0.32676 0.21614 0.80056 0.21614 1.4214v4.0355h-1.0973v-4.0355c0-0.53916-0.11639-0.93127-0.34915-1.1763-0.23276-0.24507-0.58191-0.37577-1.0142-0.37577-0.31589 0-0.63179 0.098-0.91443 0.2614-0.28264 0.16338-0.48215 0.39212-0.61516 0.66986-0.11638 0.27775-0.18288 0.66986-0.18288 1.1763v3.48z" fill="#7e8696"/>
<path d="m392.12 507.24 1.1306 0.1307c-0.18288 0.65352-0.5154 1.16-0.99755 1.5194-0.48215 0.35943-1.0973 0.53915-1.8455 0.53915-0.94768 0-1.6958-0.29408-2.2611-0.86591-0.54865-0.57183-0.83129-1.3724-0.83129-2.418 0-1.062 0.28264-1.8952 0.84792-2.4834 0.56528-0.58817 1.2802-0.88225 2.178-0.88225 0.86454 0 1.5795 0.27774 2.1281 0.86591 0.54865 0.57183 0.81467 1.3887 0.81467 2.4344v0.29409h-4.8382c0.0499 0.70253 0.24939 1.2417 0.61516 1.6011 0.36577 0.37577 0.81467 0.55549 1.3467 0.55549 0.39902 0 0.74817-0.098 1.0308-0.31042 0.28264-0.19606 0.5154-0.53915 0.68166-0.98028zm-3.6078-1.7482h3.6245c-0.0499-0.53916-0.19951-0.94761-0.41565-1.209-0.34915-0.40845-0.81467-0.62084-1.3633-0.62084-0.49878 0-0.93105 0.16338-1.2802 0.49014-0.33252 0.3431-0.53203 0.78422-0.56529 1.3397z" fill="#7e8696"/>
<path d="m399.8 509.29-2.3775-8.7898h1.2137l1.3633 5.7673c0.14964 0.60451 0.26602 1.1927 0.3824 1.7972 0.23276-0.9476 0.36577-1.4868 0.39902-1.6338l1.6958-5.9307h1.4298l1.2802 4.4439c0.33252 1.111 0.54866 2.1403 0.69829 3.1206 0.11638-0.55549 0.26602-1.1927 0.4489-1.9116l1.3966-5.6529h1.1971l-2.4606 8.7898h-1.1306l-1.8954-6.6986c-0.14963-0.55549-0.24939-0.89859-0.28264-1.0293-0.0831 0.40845-0.16626 0.75155-0.24939 1.0293l-1.8954 6.6986z" fill="#7e8696"/>
<path d="m414.32 507.24 1.1306 0.1307c-0.18288 0.65352-0.5154 1.16-0.99755 1.5194-0.48215 0.35943-1.0973 0.53915-1.8455 0.53915-0.94768 0-1.6958-0.29408-2.2611-0.86591-0.54865-0.57183-0.83129-1.3724-0.83129-2.418 0-1.062 0.28264-1.8952 0.84792-2.4834 0.56528-0.58817 1.2802-0.88225 2.178-0.88225 0.86454 0 1.5795 0.27774 2.1281 0.86591 0.54866 0.57183 0.81468 1.3887 0.81468 2.4344v0.29409h-4.8382c0.0499 0.70253 0.24939 1.2417 0.61516 1.6011 0.36577 0.37577 0.81467 0.55549 1.3467 0.55549 0.39902 0 0.74817-0.098 1.0308-0.31042 0.28264-0.19606 0.5154-0.53915 0.68166-0.98028zm-3.6078-1.7482h3.6245c-0.0499-0.53916-0.19952-0.94761-0.41565-1.209-0.34915-0.40845-0.81467-0.62084-1.3633-0.62084-0.49878 0-0.93105 0.16338-1.2802 0.49014-0.33251 0.3431-0.53203 0.78422-0.56528 1.3397z" fill="#7e8696"/>
<path d="m417.84 509.29h-1.0142v-8.7898h1.0973v3.1369c0.46552-0.57183 1.0474-0.84957 1.779-0.84957 0.39902 0 0.76479 0.0654 1.1306 0.22873 0.34914 0.16338 0.64841 0.37577 0.88117 0.66986 0.21614 0.27774 0.39902 0.62084 0.53203 1.0293 0.13301 0.40845 0.19951 0.83324 0.19951 1.2907 0 1.0946-0.28264 1.9442-0.8313 2.5324-0.54865 0.60451-1.1971 0.89859-1.9785 0.89859-0.76479 0-1.3633-0.31042-1.7956-0.9476zm-0.0166-3.2349c0 0.76788 0.11638 1.3234 0.33252 1.6501 0.33252 0.55549 0.79804 0.83324 1.3966 0.83324 0.48215 0 0.8978-0.19606 1.2469-0.6045 0.34915-0.40845 0.51541-1.0293 0.51541-1.8299 0-0.83324-0.16626-1.4541-0.49878-1.8462-0.33252-0.39211-0.74817-0.58817-1.2137-0.58817-0.48216 0-0.8978 0.19606-1.247 0.62084-0.34914 0.40845-0.53203 0.99662-0.53203 1.7645z" fill="#7e8696"/>
<path d="m423.53 506.46 1.1139-0.098c0.0499 0.44112 0.16626 0.80056 0.36577 1.0946 0.19952 0.27775 0.49878 0.50648 0.8978 0.66986 0.41565 0.17972 0.86455 0.26141 1.38 0.26141 0.4489 0 0.84792-0.0654 1.1804-0.19606 0.34914-0.1307 0.61516-0.31042 0.78142-0.53915s0.24939-0.4738 0.24939-0.75155c0-0.27774-0.0831-0.52281-0.24939-0.71887-0.14964-0.21239-0.43228-0.37577-0.79805-0.52282-0.23276-0.098-0.76479-0.22873-1.5961-0.42478-0.81467-0.19606-1.3966-0.37578-1.7291-0.55549-0.41565-0.2124-0.73155-0.49014-0.94768-0.8169-0.21614-0.32676-0.3159-0.6862-0.3159-1.0946 0-0.44112 0.13301-0.84957 0.3824-1.2417 0.26602-0.37577 0.63179-0.66985 1.1306-0.88225 0.48216-0.19605 1.0308-0.29408 1.6294-0.29408 0.66503 0 1.2469 0.11436 1.7623 0.31042 0.49878 0.21239 0.8978 0.52282 1.1638 0.93127 0.26601 0.40845 0.41565 0.86591 0.4489 1.3887l-1.1472 0.0817c-0.0499-0.55549-0.26601-0.98027-0.61516-1.258-0.34914-0.27775-0.86455-0.42479-1.5628-0.42479-0.71491 0-1.2303 0.13071-1.5628 0.37578-0.3159 0.2614-0.48216 0.57183-0.48216 0.9476 0 0.31042 0.11639 0.57183 0.34915 0.76788 0.21614 0.2124 0.81467 0.40845 1.779 0.63719 0.96431 0.21239 1.6127 0.39211 1.9785 0.55549 0.5154 0.22873 0.8978 0.53915 1.1472 0.89859 0.24939 0.35943 0.38239 0.76788 0.38239 1.2417 0 0.47381-0.14963 0.91493-0.41564 1.3234-0.26602 0.40845-0.66504 0.73521-1.1804 0.96394-0.49878 0.22873-1.0807 0.3431-1.7125 0.3431-0.81467 0-1.4963-0.11437-2.0284-0.3431-0.54866-0.22873-0.98093-0.58817-1.2968-1.0456-0.31589-0.4738-0.46553-0.99662-0.48215-1.5848z" fill="#7e8696"/>
<path d="m431.72 506.1c0-1.1763 0.33252-2.0422 0.99756-2.6141 0.54865-0.4738 1.2303-0.70253 2.0284-0.70253 0.8978 0 1.6293 0.27774 2.1946 0.84957 0.54866 0.57183 0.8313 1.3724 0.8313 2.3854 0 0.8169-0.11638 1.4541-0.36577 1.9279s-0.61516 0.83324-1.0973 1.0946c-0.46553 0.26141-0.99756 0.39211-1.5628 0.39211-0.8978 0-1.6293-0.29408-2.1946-0.86591-0.56528-0.57183-0.8313-1.3887-0.8313-2.467zm1.1139 0c0 0.8169 0.18288 1.4214 0.54865 1.8299 0.36577 0.40844 0.81467 0.6045 1.3633 0.6045 0.54866 0 0.99756-0.19606 1.3633-0.6045 0.36577-0.40845 0.54865-1.0293 0.54865-1.8625 0-0.78422-0.18288-1.3887-0.54865-1.7808-0.36577-0.40845-0.81467-0.62084-1.3633-0.62084-0.54866 0-0.99756 0.21239-1.3633 0.60451-0.36577 0.40845-0.54865 1.013-0.54865 1.8298z" fill="#7e8696"/>
<path d="m443.29 506.95 1.0807 0.14704c-0.11638 0.71887-0.41564 1.2907-0.8978 1.7155-0.48215 0.40845-1.0807 0.62084-1.7956 0.62084-0.88117 0-1.5961-0.29408-2.1281-0.86591-0.54865-0.55549-0.81467-1.3724-0.81467-2.4344 0-0.6862 0.11639-1.2907 0.34915-1.8135 0.23276-0.50648 0.58191-0.89859 1.0641-1.16 0.46552-0.24507 0.98093-0.37577 1.5462-0.37577 0.69829 0 1.2636 0.16338 1.7125 0.52281 0.4489 0.3431 0.73154 0.84958 0.86455 1.4868l-1.0641 0.16338c-0.0998-0.42479-0.28264-0.75155-0.54866-0.96394-0.24939-0.21239-0.56528-0.32676-0.93105-0.32676-0.54865 0-0.99755 0.19606-1.3467 0.58817-0.34914 0.39211-0.5154 0.99662-0.5154 1.8462s0.16626 1.4704 0.49877 1.8625c0.33252 0.39211 0.7648 0.57183 1.2968 0.57183 0.43227 0 0.79804-0.11437 1.0807-0.37577 0.29927-0.26141 0.48216-0.66986 0.54866-1.209z" fill="#7e8696"/>
<path d="m445.32 509.29v-8.7898h1.0973v5.0158l2.5936-2.5977h1.4298l-2.4773 2.369 2.7266 4.0028h-1.3633l-2.1281-3.2513-0.78142 0.73521v2.516z" fill="#7e8696"/>
<path d="m456 507.24 1.1306 0.1307c-0.18288 0.65352-0.5154 1.16-0.99755 1.5194-0.48215 0.35943-1.0973 0.53915-1.8455 0.53915-0.94768 0-1.6958-0.29408-2.2611-0.86591-0.54865-0.57183-0.83129-1.3724-0.83129-2.418 0-1.062 0.28264-1.8952 0.84792-2.4834 0.56528-0.58817 1.2802-0.88225 2.178-0.88225 0.86454 0 1.5795 0.27774 2.1281 0.86591 0.54865 0.57183 0.81467 1.3887 0.81467 2.4344v0.29409h-4.8215c0.0333 0.70253 0.23276 1.2417 0.59853 1.6011 0.36577 0.37577 0.81467 0.55549 1.3467 0.55549 0.39902 0 0.74817-0.098 1.0308-0.31042 0.28264-0.19606 0.5154-0.53915 0.68166-0.98028zm-3.6078-1.7482h3.6245c-0.0499-0.53916-0.19951-0.94761-0.41565-1.209-0.34915-0.40845-0.81467-0.62084-1.3633-0.62084-0.49878 0-0.93105 0.16338-1.2636 0.49014-0.34914 0.3431-0.54865 0.78422-0.58191 1.3397z" fill="#7e8696"/>
<path d="m460.92 508.32 0.14963 0.9476c-0.29927 0.0654-0.58191 0.098-0.8313 0.098-0.39902 0-0.69829-0.0653-0.93105-0.17972-0.21614-0.1307-0.36577-0.29408-0.4489-0.49014-0.0998-0.21239-0.13301-0.63718-0.13301-1.2744v-3.6597h-0.81467v-0.84958h0.81467v-1.5684l1.0807-0.65352v2.222h1.1139v0.84958h-1.1139v3.7251c0 0.29408 0.0166 0.49014 0.0665 0.58817 0.0333 0.0817 0.0998 0.16338 0.18289 0.21239 0.0831 0.049 0.21614 0.0654 0.38239 0.0654 0.11639 0 0.28265 0 0.48216-0.0327z" fill="#7e8696"/>
<path d="m464.59 509.29 3.4416-8.7898h1.2802l3.6577 8.7898h-1.3467l-1.0474-2.6631h-3.7408l-0.98093 2.6631zm2.5936-3.6107h3.0259l-0.93105-2.4344c-0.28264-0.73521-0.49878-1.3397-0.63179-1.8135-0.11638 0.55549-0.28264 1.111-0.48215 1.6665z" fill="#7e8696"/>
<path d="m473.79 511.72v-8.8062h0.99755v0.83324c0.23277-0.32676 0.49878-0.57183 0.79805-0.73521 0.29927-0.14704 0.64841-0.22873 1.0807-0.22873 0.54866 0 1.0308 0.1307 1.4631 0.40845 0.41564 0.27774 0.74816 0.68619 0.94767 1.1927 0.21614 0.50648 0.33252 1.062 0.33252 1.6665 0 0.65352-0.11638 1.2417-0.36577 1.7645-0.23276 0.52281-0.58191 0.91493-1.0308 1.1927-0.4489 0.27775-0.93105 0.42479-1.4298 0.42479-0.36577 0-0.69828-0.0817-0.98093-0.22873-0.29926-0.14704-0.53203-0.3431-0.71491-0.57183v3.0879zm0.99755-5.5876c0 0.83323 0.16626 1.4377 0.49878 1.8298 0.33252 0.37577 0.74817 0.57183 1.2303 0.57183 0.48215 0 0.8978-0.19606 1.247-0.6045 0.34914-0.40845 0.5154-1.0293 0.5154-1.8789 0-0.8169-0.16626-1.4214-0.49878-1.8299-0.34914-0.39211-0.74817-0.6045-1.2137-0.6045s-0.88118 0.21239-1.247 0.65352c-0.36577 0.42478-0.53203 1.0456-0.53203 1.8625z" fill="#7e8696"/>
<path d="m480.74 511.72v-8.8062h0.99755v0.83324c0.23277-0.32676 0.49878-0.57183 0.79805-0.73521 0.29926-0.14704 0.66504-0.22873 1.0807-0.22873 0.54866 0 1.0474 0.1307 1.4631 0.40845 0.41564 0.27774 0.74816 0.68619 0.9643 1.1927 0.21614 0.50648 0.31589 1.062 0.31589 1.6665 0 0.65352-0.11638 1.2417-0.34914 1.7645-0.24939 0.52281-0.59854 0.91493-1.0474 1.1927-0.4489 0.27775-0.93105 0.42479-1.4298 0.42479-0.36577 0-0.69829-0.0817-0.98093-0.22873-0.28264-0.14704-0.53203-0.3431-0.71491-0.57183v3.0879zm0.99755-5.5876c0 0.83323 0.16626 1.4377 0.49878 1.8298 0.33252 0.37577 0.74817 0.57183 1.2303 0.57183 0.48215 0 0.8978-0.19606 1.2469-0.6045 0.34915-0.40845 0.53203-1.0293 0.53203-1.8789 0-0.8169-0.18288-1.4214-0.5154-1.8299-0.34914-0.39211-0.74817-0.6045-1.2137-0.6045s-0.88118 0.21239-1.247 0.65352c-0.36577 0.42478-0.53203 1.0456-0.53203 1.8625z" fill="#7e8696"/>
<path d="m487.67 509.29v-8.7898h1.0973v8.7898z" fill="#7e8696"/>
<path d="m490.48 501.74v-1.2417h1.0973v1.2417zm0 7.5482v-6.3718h1.0973v6.3718z" fill="#7e8696"/>
<path d="m497.48 506.95 1.0807 0.14704c-0.13301 0.71887-0.43228 1.2907-0.91443 1.7155-0.48215 0.40845-1.0807 0.62084-1.7956 0.62084-0.88118 0-1.5961-0.29408-2.1281-0.86591-0.54866-0.55549-0.81467-1.3724-0.81467-2.4344 0-0.6862 0.11638-1.2907 0.34914-1.8135 0.23277-0.50648 0.58191-0.89859 1.0641-1.16 0.46553-0.24507 0.98093-0.37577 1.5462-0.37577 0.69828 0 1.2802 0.16338 1.7291 0.52281 0.43228 0.3431 0.73154 0.84958 0.84792 1.4868l-1.0641 0.16338c-0.0998-0.42479-0.28264-0.75155-0.53202-0.96394-0.26602-0.21239-0.58191-0.32676-0.94768-0.32676-0.54866 0-0.99756 0.19606-1.3467 0.58817-0.33252 0.39211-0.51541 0.99662-0.51541 1.8462s0.16626 1.4704 0.49878 1.8625c0.33252 0.39211 0.76479 0.57183 1.3134 0.57183 0.43227 0 0.78142-0.11437 1.0807-0.37577 0.28265-0.26141 0.46553-0.66986 0.54866-1.209z" fill="#7e8696"/>
<path d="m503.71 508.5c-0.39902 0.3431-0.79804 0.57183-1.1638 0.71888-0.3824 0.1307-0.78142 0.21239-1.2137 0.21239-0.71492 0-1.2636-0.17972-1.646-0.52282-0.3824-0.34309-0.56528-0.76788-0.56528-1.307 0-0.31043 0.0665-0.58817 0.21613-0.84958 0.13301-0.26141 0.33252-0.45746 0.56529-0.62084 0.23276-0.16338 0.49877-0.27775 0.78142-0.35944 0.21613-0.049 0.54865-0.098 0.98093-0.16338 0.88117-0.098 1.5296-0.21239 1.9619-0.35943v-0.27775c0-0.44113-0.0998-0.75155-0.3159-0.93127-0.28264-0.24507-0.69829-0.37577-1.2469-0.37577-0.51541 0-0.8978 0.098-1.1472 0.27775-0.23276 0.16338-0.41565 0.49014-0.53203 0.93126l-1.0807-0.1307c0.0998-0.45747 0.26602-0.8169 0.48215-1.0946 0.21614-0.27774 0.54866-0.49014 0.96431-0.65352 0.43227-0.14704 0.91443-0.21239 1.4797-0.21239 0.54865 0 0.99755 0.0654 1.3467 0.17972 0.34914 0.1307 0.59853 0.29408 0.76479 0.49014 0.14963 0.19605 0.26602 0.44112 0.33252 0.73521 0.0332 0.17971 0.0499 0.50647 0.0499 0.99661v1.4378c0 0.99661 0.0333 1.6338 0.0831 1.8952 0.0333 0.26141 0.133 0.52282 0.26601 0.76789h-1.1472c-0.0998-0.22873-0.18288-0.49014-0.21614-0.78423zm-0.0831-2.418c-0.39903 0.16338-0.99756 0.31042-1.7956 0.40845-0.4489 0.0654-0.78141 0.14704-0.9643 0.22873-0.18288 0.0654-0.33252 0.19606-0.43227 0.3431-0.0998 0.14704-0.14964 0.32676-0.14964 0.50648 0 0.29408 0.11638 0.53915 0.33252 0.71887 0.21614 0.19606 0.54866 0.29408 0.98093 0.29408 0.41565 0 0.79805-0.098 1.1139-0.27774 0.33252-0.17972 0.58191-0.42479 0.73154-0.73521 0.11638-0.24507 0.18289-0.60451 0.18289-1.0783z" fill="#7e8696"/>
<path d="m508.83 508.32 0.16626 0.9476c-0.31589 0.0654-0.58191 0.098-0.8313 0.098-0.39902 0-0.71491-0.0653-0.93105-0.17972-0.21613-0.1307-0.36577-0.29408-0.46552-0.49014-0.0831-0.21239-0.13301-0.63718-0.13301-1.2744v-3.6597h-0.79805v-0.84958h0.79805v-1.5684l1.0973-0.65352v2.222h1.0973v0.84958h-1.0973v3.7251c0 0.29408 0.0166 0.49014 0.0499 0.58817 0.0499 0.0817 0.0998 0.16338 0.19951 0.21239 0.0831 0.049 0.19951 0.0654 0.36577 0.0654 0.13301 0 0.28264 0 0.48215-0.0327z" fill="#7e8696"/>
<path d="m509.91 501.74v-1.2417h1.0973v1.2417zm0 7.5482v-6.3718h1.0973v6.3718z" fill="#7e8696"/>
<path d="m512.28 506.1c0-1.1763 0.33252-2.0422 0.99756-2.6141 0.56528-0.4738 1.2469-0.70253 2.045-0.70253 0.88117 0 1.6127 0.27774 2.178 0.84957 0.56528 0.57183 0.84792 1.3724 0.84792 2.3854 0 0.8169-0.133 1.4541-0.38239 1.9279s-0.59854 0.83324-1.0807 1.0946c-0.48215 0.26141-0.99755 0.39211-1.5628 0.39211-0.91443 0-1.646-0.29408-2.1946-0.86591-0.56528-0.57183-0.84792-1.3887-0.84792-2.467zm1.1306 0c0 0.8169 0.18289 1.4214 0.54866 1.8299 0.34914 0.40844 0.81467 0.6045 1.3633 0.6045 0.53203 0 0.99755-0.19606 1.3633-0.6045 0.34915-0.40845 0.53203-1.0293 0.53203-1.8625 0-0.78422-0.18288-1.3887-0.54865-1.7808-0.36577-0.40845-0.81467-0.62084-1.3467-0.62084-0.54866 0-1.0142 0.21239-1.3633 0.60451-0.36577 0.40845-0.54866 1.013-0.54866 1.8298z" fill="#7e8696"/>
<path d="m519.64 509.29v-6.3718h0.98093v0.91493c0.48215-0.70253 1.1638-1.0456 2.0616-1.0456 0.39903 0 0.74817 0.0654 1.0807 0.19606 0.33252 0.14704 0.56528 0.32675 0.73154 0.53915 0.16626 0.22873 0.28264 0.49014 0.34914 0.80056 0.0333 0.19606 0.0499 0.55549 0.0499 1.0456v3.9211h-1.0973v-3.8721c0-0.44113-0.0333-0.76789-0.11638-0.98028-0.0998-0.22874-0.24939-0.39212-0.46553-0.52282-0.21613-0.1307-0.46552-0.19606-0.76479-0.19606-0.46553 0-0.86455 0.14705-1.2137 0.44113-0.33252 0.27775-0.49878 0.83324-0.49878 1.6501v3.48z" fill="#7e8696"/>
<path d="m530.15 509.29v-8.7898h1.779l2.1281 6.2248c0.18289 0.57183 0.33252 1.013 0.41565 1.307 0.11638-0.32676 0.26601-0.80056 0.48215-1.4214l2.1448-6.1104h1.5795v8.7898h-1.1306v-7.3521l-2.5936 7.3521h-1.0807l-2.577-7.4828v7.4828z" fill="#7e8696"/>
<path d="m544.9 507.24 1.1306 0.1307c-0.16626 0.65352-0.49878 1.16-0.98093 1.5194-0.48215 0.35943-1.1139 0.53915-1.8621 0.53915-0.94768 0-1.6958-0.29408-2.2445-0.86591-0.56529-0.57183-0.8313-1.3724-0.8313-2.418 0-1.062 0.26601-1.8952 0.8313-2.4834 0.56528-0.58817 1.2968-0.88225 2.178-0.88225 0.88118 0 1.5795 0.27774 2.1281 0.86591 0.54866 0.57183 0.8313 1.3887 0.8313 2.4344 0 0.0653-0.0166 0.16338-0.0166 0.29409h-4.8215c0.0332 0.70253 0.23277 1.2417 0.59854 1.6011 0.36577 0.37577 0.81467 0.55549 1.3633 0.55549 0.39903 0 0.73154-0.098 1.0142-0.31042 0.29927-0.19606 0.51541-0.53915 0.68167-0.98028zm-3.6078-1.7482h3.6244c-0.0499-0.53916-0.18288-0.94761-0.41564-1.209-0.34915-0.40845-0.79805-0.62084-1.3633-0.62084-0.49878 0-0.93105 0.16338-1.2636 0.49014-0.34915 0.3431-0.53203 0.78422-0.58191 1.3397z" fill="#7e8696"/>
<path d="m546.97 507.39 1.0973-0.17972c0.0499 0.44113 0.21614 0.76789 0.49878 0.99662 0.28264 0.21239 0.66504 0.32676 1.1638 0.32676 0.51541 0 0.88118-0.098 1.1306-0.29408 0.24939-0.19606 0.36577-0.44113 0.36577-0.71887 0-0.22874-0.11638-0.42479-0.33252-0.57183-0.14963-0.098-0.5154-0.2124-1.1139-0.35944-0.79804-0.19606-1.3633-0.37577-1.6792-0.52282-0.29926-0.14704-0.54865-0.34309-0.69829-0.6045-0.16626-0.26141-0.24939-0.53915-0.24939-0.84958 0-0.27774 0.0665-0.55549 0.19952-0.78422 0.133-0.24507 0.31589-0.44113 0.54865-0.60451 0.16626-0.1307 0.39902-0.22873 0.69829-0.31042 0.28264-0.098 0.59853-0.1307 0.94768-0.1307 0.49878 0 0.94768 0.0654 1.3301 0.21239 0.3824 0.14704 0.66504 0.3431 0.84793 0.58817 0.18288 0.24507 0.31589 0.57183 0.38239 0.98028l-1.0641 0.14704c-0.0499-0.32676-0.19951-0.58817-0.43227-0.76788-0.23276-0.17972-0.56528-0.27775-0.99756-0.27775-0.49878 0-0.86455 0.0817-1.0641 0.24507-0.21613 0.16338-0.33252 0.35944-0.33252 0.57183 0 0.14704 0.0499 0.26141 0.13301 0.37577 0.0998 0.11437 0.23276 0.2124 0.41565 0.29409 0.11638 0.0327 0.43227 0.1307 0.98093 0.27774 0.76479 0.19606 1.3134 0.35944 1.6127 0.49014 0.31589 0.13071 0.54865 0.32676 0.73154 0.57183 0.16626 0.24507 0.26601 0.55549 0.26601 0.93127 0 0.35943-0.11638 0.68619-0.33252 1.013-0.19951 0.31042-0.5154 0.55549-0.91442 0.73521-0.39903 0.16338-0.86455 0.26141-1.3633 0.26141-0.84792 0-1.4797-0.17972-1.9286-0.52282-0.43227-0.34309-0.71491-0.84957-0.84792-1.5194z" fill="#7e8696"/>
<path d="m553.22 507.39 1.0807-0.17972c0.0665 0.44113 0.23276 0.76789 0.5154 0.99662 0.26601 0.21239 0.66504 0.32676 1.1638 0.32676 0.49878 0 0.88118-0.098 1.1139-0.29408 0.24939-0.19606 0.36577-0.44113 0.36577-0.71887 0-0.22874-0.0997-0.42479-0.31589-0.57183-0.14963-0.098-0.53203-0.2124-1.1139-0.35944-0.81467-0.19606-1.3633-0.37577-1.6792-0.52282-0.31589-0.14704-0.54865-0.34309-0.71491-0.6045-0.14964-0.26141-0.23277-0.53915-0.23277-0.84958 0-0.27774 0.0665-0.55549 0.19952-0.78422 0.133-0.24507 0.29926-0.44113 0.53203-0.60451 0.16626-0.1307 0.39902-0.22873 0.69829-0.31042 0.29926-0.098 0.61515-0.1307 0.94767-0.1307 0.51541 0 0.96431 0.0654 1.3467 0.21239 0.3824 0.14704 0.66504 0.3431 0.84793 0.58817 0.18288 0.24507 0.29926 0.57183 0.38239 0.98028l-1.0807 0.14704c-0.0499-0.32676-0.18289-0.58817-0.41565-0.76788-0.23276-0.17972-0.56528-0.27775-0.99756-0.27775-0.49878 0-0.86455 0.0817-1.0807 0.24507-0.21614 0.16338-0.3159 0.35944-0.3159 0.57183 0 0.14704 0.0333 0.26141 0.13301 0.37577 0.0831 0.11437 0.23277 0.2124 0.41565 0.29409 0.11638 0.0327 0.43227 0.1307 0.9643 0.27774 0.78142 0.19606 1.3301 0.35944 1.6294 0.49014 0.31589 0.13071 0.54865 0.32676 0.73154 0.57183 0.16626 0.24507 0.24939 0.55549 0.24939 0.93127 0 0.35943-0.0998 0.68619-0.3159 1.013-0.21613 0.31042-0.5154 0.55549-0.93105 0.73521-0.39902 0.16338-0.84792 0.26141-1.3633 0.26141-0.83129 0-1.4797-0.17972-1.912-0.52282-0.4489-0.34309-0.73154-0.84957-0.84792-1.5194z" fill="#7e8696"/>
<path d="m564.13 508.5c-0.41565 0.3431-0.79804 0.57183-1.1804 0.71888-0.36577 0.1307-0.78142 0.21239-1.1971 0.21239-0.71491 0-1.2636-0.17972-1.646-0.52282-0.3824-0.34309-0.58191-0.76788-0.58191-1.307 0-0.31043 0.0831-0.58817 0.21613-0.84958 0.14964-0.26141 0.33252-0.45746 0.58191-0.62084 0.23277-0.16338 0.48215-0.27775 0.78142-0.35944 0.21614-0.049 0.54866-0.098 0.98093-0.16338 0.88118-0.098 1.5296-0.21239 1.9452-0.35943 0.0166-0.14705 0.0166-0.24507 0.0166-0.27775 0-0.44113-0.0997-0.75155-0.31589-0.93127-0.28264-0.24507-0.69829-0.37577-1.247-0.37577-0.5154 0-0.8978 0.098-1.1472 0.27775-0.24938 0.16338-0.43227 0.49014-0.54865 0.93126l-1.0641-0.1307c0.0997-0.45747 0.24939-0.8169 0.48215-1.0946 0.21614-0.27774 0.54866-0.49014 0.96431-0.65352 0.41564-0.14704 0.91442-0.21239 1.4631-0.21239 0.56528 0 1.0142 0.0654 1.3467 0.17972 0.34914 0.1307 0.61516 0.29408 0.76479 0.49014 0.16626 0.19605 0.28264 0.44112 0.34914 0.73521 0.0333 0.17971 0.0499 0.50647 0.0499 0.99661v1.4378c0 0.99661 0.0333 1.6338 0.0665 1.8952 0.0499 0.26141 0.14963 0.52282 0.28264 0.76789h-1.1472c-0.11638-0.22873-0.18289-0.49014-0.21614-0.78423zm-0.0998-2.418c-0.39903 0.16338-0.98093 0.31042-1.779 0.40845-0.46553 0.0654-0.78142 0.14704-0.9643 0.22873-0.18289 0.0654-0.33252 0.19606-0.43228 0.3431-0.0997 0.14704-0.14963 0.32676-0.14963 0.50648 0 0.29408 0.0997 0.53915 0.33252 0.71887 0.21613 0.19606 0.54865 0.29408 0.9643 0.29408 0.43228 0 0.79805-0.098 1.1306-0.27774 0.33251-0.17972 0.56528-0.42479 0.73154-0.73521 0.11638-0.24507 0.16626-0.60451 0.16626-1.0783z" fill="#7e8696"/>
<path d="m566.66 509.81 1.0641 0.16338c0.0499 0.32676 0.16626 0.5555 0.36577 0.70254 0.28264 0.19605 0.64841 0.29408 1.1139 0.29408 0.5154 0 0.91443-0.098 1.1804-0.29408 0.28264-0.19606 0.46553-0.4738 0.56528-0.83324 0.0499-0.22873 0.0831-0.6862 0.0831-1.3887-0.48215 0.55549-1.0807 0.83324-1.7956 0.83324-0.8978 0-1.5795-0.31042-2.0616-0.94761-0.49878-0.63718-0.73154-1.3887-0.73154-2.271 0-0.6045 0.0998-1.16 0.33251-1.6828 0.21614-0.50648 0.54866-0.91493 0.96431-1.1927 0.43227-0.27775 0.93105-0.40845 1.4963-0.40845 0.76479 0 1.3966 0.29408 1.8954 0.89859v-0.76789h1.0142v5.5059c0 0.99662-0.0998 1.6992-0.31589 2.1076-0.19951 0.40844-0.53203 0.7352-0.96431 0.98027-0.4489 0.24507-0.99755 0.35944-1.646 0.35944-0.78142 0-1.3966-0.16338-1.8787-0.50648-0.46553-0.3431-0.69829-0.86591-0.68167-1.5521zm0.8978-3.8231c0 0.83324 0.18289 1.4541 0.51541 1.8299 0.33252 0.39211 0.76479 0.57183 1.2636 0.57183 0.49878 0 0.93105-0.17972 1.2636-0.57183 0.34914-0.37577 0.5154-0.98028 0.5154-1.7972 0-0.76788-0.16626-1.356-0.53203-1.7482-0.34914-0.40845-0.76479-0.60451-1.2636-0.60451-0.48215 0-0.8978 0.19606-1.2469 0.58817-0.33252 0.39211-0.51541 0.96394-0.51541 1.7318z" fill="#7e8696"/>
<path d="m573.81 501.74v-1.2417h1.0973v1.2417zm0 7.5482v-6.3718h1.0973v6.3718z" fill="#7e8696"/>
<path d="m576.58 509.29v-6.3718h0.99756v0.91493c0.46553-0.70253 1.1638-1.0456 2.0616-1.0456 0.38239 0 0.74816 0.0654 1.064 0.19606 0.33252 0.14704 0.58191 0.32675 0.73155 0.53915 0.16626 0.22873 0.28264 0.49014 0.34914 0.80056 0.0333 0.19606 0.0665 0.55549 0.0665 1.0456v3.9211h-1.0973v-3.8721c0-0.44113-0.0499-0.76789-0.133-0.98028-0.0831-0.22874-0.23277-0.39212-0.4489-0.52282-0.21614-0.1307-0.48216-0.19606-0.7648-0.19606-0.46552 0-0.88117 0.14705-1.2137 0.44113-0.34915 0.27775-0.5154 0.83324-0.5154 1.6501v3.48z" fill="#7e8696"/>
<path d="m583.33 509.81 1.0641 0.16338c0.0499 0.32676 0.18289 0.5555 0.3824 0.70254 0.26601 0.19605 0.63178 0.29408 1.1139 0.29408 0.49877 0 0.8978-0.098 1.1804-0.29408 0.26601-0.19606 0.46552-0.4738 0.54865-0.83324 0.0665-0.22873 0.0831-0.6862 0.0831-1.3887-0.48215 0.55549-1.0807 0.83324-1.7956 0.83324-0.88117 0-1.5795-0.31042-2.0616-0.94761-0.48216-0.63718-0.73155-1.3887-0.73155-2.271 0-0.6045 0.11639-1.16 0.33252-1.6828 0.23277-0.50648 0.54866-0.91493 0.98093-1.1927 0.41565-0.27775 0.91443-0.40845 1.4963-0.40845 0.76479 0 1.3966 0.29408 1.8787 0.89859v-0.76789h1.0142v5.5059c0 0.99662-0.0998 1.6992-0.29927 2.1076-0.21613 0.40844-0.53203 0.7352-0.98093 0.98027s-0.99755 0.35944-1.646 0.35944c-0.7648 0-1.3966-0.16338-1.8621-0.50648-0.48215-0.3431-0.71491-0.86591-0.69829-1.5521zm0.91443-3.8231c0 0.83324 0.16626 1.4541 0.49878 1.8299 0.34914 0.39211 0.76479 0.57183 1.2802 0.57183 0.49878 0 0.91443-0.17972 1.2636-0.57183 0.33252-0.37577 0.51541-0.98028 0.51541-1.7972 0-0.76788-0.18289-1.356-0.53203-1.7482-0.34915-0.40845-0.78142-0.60451-1.2802-0.60451-0.48215 0-0.8978 0.19606-1.2303 0.58817-0.34914 0.39211-0.5154 0.96394-0.5154 1.7318z" fill="#7e8696"/>
<path d="m594.09 509.29v-8.7898h3.3751c0.59854 0 1.0474 0.0327 1.3633 0.0817 0.43227 0.0817 0.79805 0.21239 1.0973 0.42479 0.29927 0.19605 0.53203 0.4738 0.71492 0.83324 0.18288 0.37577 0.28264 0.76788 0.28264 1.209 0 0.73521-0.24939 1.3724-0.73154 1.8952-0.48216 0.52282-1.3633 0.76789-2.6269 0.76789h-2.2944v3.578zm1.1804-4.6073h2.311c0.76479 0 1.3134-0.14705 1.6293-0.42479 0.33252-0.27775 0.48215-0.66986 0.48215-1.1763 0-0.37577-0.0998-0.68619-0.28264-0.9476-0.18289-0.26141-0.43228-0.42479-0.74817-0.52282-0.19951-0.049-0.56528-0.0654-1.0973-0.0654h-2.2944z" fill="#7e8696"/>
<path d="m602.29 509.29v-6.3718h0.98093v0.96394c0.24939-0.44112 0.48216-0.73521 0.69829-0.88225 0.21614-0.14704 0.4489-0.21239 0.69829-0.21239 0.3824 0 0.74817 0.11437 1.1306 0.3431l-0.36577 0.99661c-0.28265-0.14704-0.54866-0.22873-0.81468-0.22873-0.23276 0-0.4489 0.0654-0.64841 0.2124-0.18288 0.14704-0.31589 0.34309-0.39902 0.58816-0.13301 0.37578-0.18288 0.80057-0.18288 1.258v3.333z" fill="#7e8696"/>
<path d="m606.06 506.1c0-1.1763 0.33252-2.0422 0.99756-2.6141 0.54865-0.4738 1.2303-0.70253 2.0284-0.70253 0.8978 0 1.6293 0.27774 2.1946 0.84957 0.56529 0.57183 0.84793 1.3724 0.84793 2.3854 0 0.8169-0.13301 1.4541-0.3824 1.9279s-0.61516 0.83324-1.0973 1.0946c-0.46553 0.26141-0.99756 0.39211-1.5628 0.39211-0.8978 0-1.6293-0.29408-2.1946-0.86591-0.54866-0.57183-0.8313-1.3887-0.8313-2.467zm1.1306 0c0 0.8169 0.16626 1.4214 0.53203 1.8299 0.36577 0.40844 0.81467 0.6045 1.3633 0.6045 0.54866 0 0.99756-0.19606 1.3633-0.6045 0.36577-0.40845 0.54865-1.0293 0.54865-1.8625 0-0.78422-0.18288-1.3887-0.54865-1.7808-0.36577-0.40845-0.81467-0.62084-1.3633-0.62084-0.54866 0-0.99756 0.21239-1.3633 0.60451-0.36577 0.40845-0.53203 1.013-0.53203 1.8298z" fill="#7e8696"/>
<path d="m615.82 508.32 0.14964 0.9476c-0.3159 0.0654-0.58191 0.098-0.8313 0.098-0.39902 0-0.69829-0.0653-0.93105-0.17972-0.21614-0.1307-0.36577-0.29408-0.4489-0.49014-0.0998-0.21239-0.14964-0.63718-0.14964-1.2744v-3.6597h-0.79804v-0.84958h0.79804v-1.5684l1.0973-0.65352v2.222h1.1139v0.84958h-1.1139v3.7251c0 0.29408 0.0166 0.49014 0.0665 0.58817 0.0333 0.0817 0.0997 0.16338 0.18288 0.21239 0.0831 0.049 0.21614 0.0654 0.3824 0.0654 0.11638 0 0.28264 0 0.48215-0.0327z" fill="#7e8696"/>
<path d="m616.47 506.1c0-1.1763 0.33252-2.0422 0.99756-2.6141 0.56528-0.4738 1.2469-0.70253 2.045-0.70253 0.88117 0 1.6127 0.27774 2.178 0.84957 0.56528 0.57183 0.84792 1.3724 0.84792 2.3854 0 0.8169-0.11638 1.4541-0.3824 1.9279-0.24939 0.4738-0.59853 0.83324-1.0807 1.0946-0.48215 0.26141-0.99756 0.39211-1.5628 0.39211-0.91443 0-1.646-0.29408-2.1946-0.86591-0.56529-0.57183-0.84793-1.3887-0.84793-2.467zm1.1306 0c0 0.8169 0.18288 1.4214 0.54865 1.8299 0.34915 0.40844 0.81467 0.6045 1.3633 0.6045 0.54866 0 0.99756-0.19606 1.3633-0.6045 0.34914-0.40845 0.53203-1.0293 0.53203-1.8625 0-0.78422-0.18289-1.3887-0.54866-1.7808-0.36577-0.40845-0.81467-0.62084-1.3467-0.62084-0.54866 0-1.0142 0.21239-1.3633 0.60451-0.36577 0.40845-0.54865 1.013-0.54865 1.8298z" fill="#7e8696"/>
<path d="m628.06 506.95 1.0807 0.14704c-0.11638 0.71887-0.41564 1.2907-0.91442 1.7155-0.48215 0.40845-1.0807 0.62084-1.779 0.62084-0.8978 0-1.5961-0.29408-2.1447-0.86591-0.53203-0.55549-0.79805-1.3724-0.79805-2.4344 0-0.6862 0.11638-1.2907 0.34915-1.8135 0.21613-0.50648 0.58191-0.89859 1.0474-1.16 0.48215-0.24507 0.99756-0.37577 1.5462-0.37577 0.69829 0 1.2802 0.16338 1.7291 0.52281 0.4489 0.3431 0.73154 0.84958 0.86455 1.4868l-1.0807 0.16338c-0.0997-0.42479-0.26601-0.75155-0.53203-0.96394-0.26601-0.21239-0.56528-0.32676-0.93105-0.32676-0.56528 0-1.0142 0.19606-1.3467 0.58817-0.34914 0.39211-0.53203 0.99662-0.53203 1.8462s0.16626 1.4704 0.5154 1.8625c0.33252 0.39211 0.7648 0.57183 1.2968 0.57183 0.43227 0 0.79804-0.11437 1.0807-0.37577 0.28264-0.26141 0.46553-0.66986 0.54866-1.209z" fill="#7e8696"/>
<path d="m629.67 506.1c0-1.1763 0.33252-2.0422 0.99756-2.6141 0.54866-0.4738 1.2303-0.70253 2.0284-0.70253 0.8978 0 1.6293 0.27774 2.1946 0.84957 0.56528 0.57183 0.84792 1.3724 0.84792 2.3854 0 0.8169-0.13301 1.4541-0.3824 1.9279s-0.61516 0.83324-1.0973 1.0946c-0.46552 0.26141-0.99755 0.39211-1.5628 0.39211-0.8978 0-1.6293-0.29408-2.1946-0.86591-0.54866-0.57183-0.8313-1.3887-0.8313-2.467zm1.1306 0c0 0.8169 0.16626 1.4214 0.53203 1.8299 0.36577 0.40844 0.81467 0.6045 1.3633 0.6045 0.54866 0 0.99756-0.19606 1.3633-0.6045 0.36577-0.40845 0.54866-1.0293 0.54866-1.8625 0-0.78422-0.18289-1.3887-0.54866-1.7808-0.36577-0.40845-0.81467-0.62084-1.3633-0.62084-0.54865 0-0.99755 0.21239-1.3633 0.60451-0.36577 0.40845-0.53203 1.013-0.53203 1.8298z" fill="#7e8696"/>
<path d="m637 509.29v-8.7898h1.0973v8.7898z" fill="#7e8696"/>
<path d="m384.92 489.99c-3.7741-10.407-7.6978-20.749-11.771-30.993 1.4797 0.0327 2.6934 0.049 3.6078 0.049 1.0142 0 2.2279-0.0163 3.6078-0.049l6.4675 18.805 2.71 7.4011c0.58191-1.1273 1.4631-2.9245 2.6435-5.3915 1.1804-2.4834 2.0117-4.3132 2.5272-5.4896-0.71492-2.1239-1.6127-4.689-2.6934-7.6952s-2.045-5.5549-2.8597-7.6298c1.3134 0.0327 2.4606 0.049 3.4416 0.049 1.0973 0 2.2445-0.0163 3.4416-0.049 0.73154 2.7448 1.5296 5.4569 2.4108 8.1363 1.2968-2.7448 2.4773-5.4569 3.558-8.1363 1.3301 0.0327 2.4108 0.049 3.2254 0.049 0.94768 0 2.0284-0.0163 3.2421-0.049-0.98093 1.9442-2.2112 4.4113-3.6577 7.4338-1.4631 3.0062-2.6269 5.5222-3.5247 7.5318 0.33251 1.0946 0.9643 2.9408 1.8954 5.5386 0.91443 2.5977 1.5961 4.4439 2.0284 5.5222l6.2181-12.989 4.5056-9.7211 1.4797-3.3166c1.4797 0.0327 2.6602 0.049 3.558 0.049 0.98093 0 2.178-0.0163 3.5746-0.049l-4.3394 8.4794-9.0778 18.282-2.045 4.2315c-1.646-0.0327-3.0426-0.049-4.223-0.049-1.2303 0-2.6435 0.0163-4.2396 0.049-0.91443-3.0552-1.912-6.0614-3.0093-9.0186-1.4631 2.9572-2.843 5.9634-4.1565 9.0186-1.646-0.0327-3.0758-0.049-4.2729-0.049-1.2636 0-2.6934 0.0163-4.2729 0.049z" fill="#7e8696"/>
<path d="m415.68 489.99c1.5961-2.7938 3.4748-6.2248 5.6362-10.326l6.0685-11.469c1.8954-3.5453 3.4748-6.6006 4.7218-9.1983 1.9951 0.0327 3.4083 0.049 4.2396 0.049 1.4631 0 2.9095-0.0163 4.3061-0.049l3.3086 9.2963 7.1824 19.197 0.98093 2.4997-3.4582-0.049c-0.79804 0-2.1447 0.0163-4.0401 0.049-0.36577-1.356-0.94767-3.1696-1.7457-5.4569-0.79804-2.271-1.4631-4.1335-2.0284-5.5549h-12.137c-1.8122 3.5944-3.558 7.2704-5.2704 11.012l-3.7741-0.049c-0.69829 0-2.0284 0.0163-3.9902 0.049zm15.08-15.733h8.845l-3.6244-10.489-1.8621 3.8231z" fill="#7e8696"/>
<path d="m454.95 489.99 0.59853-5.1301 1.5296-18.021 0.53203-7.8422c2.1946 0.0327 3.8073 0.049 4.8215 0.049 0.81467 0 2.311-0.0163 4.4558-0.049 0.24939 1.2254 0.43227 2.1076 0.56528 2.6141 0.11638 0.52282 0.34914 1.3397 0.71491 2.4834 0.34915 1.1273 0.79805 2.4997 1.3633 4.1172 0.81467 2.4507 1.5462 4.8851 2.1946 7.2704l1.7457 6.4862 3.109-8.3324 4.489-10.816c0.16626-0.37577 0.31589-0.78422 0.48215-1.258 0.16626-0.49014 0.43227-1.3397 0.81467-2.5651 1.8455 0.0327 3.4748 0.049 4.9046 0.049 0.94768 0 2.4773-0.0163 4.5721-0.049-0.21614 4.3622-0.3824 9.182-0.48215 14.459-0.11638 5.2772-0.16626 9.2146-0.16626 11.812 0 1.258 0.0166 2.8265 0.0499 4.7217-1.5296-0.0327-2.5604-0.049-3.1257-0.049-0.79804 0-1.8621 0.0163-3.1756 0.049 0.0831-1.5521 0.14963-2.8101 0.18288-3.8231l0.3824-13.495c0.0499-1.9116 0.0665-3.7904 0.0665-5.6366l-0.0166-1.8298-8.5291 22.089-0.98093 2.6958c-1.4963-0.0327-2.5271-0.049-3.0758-0.049-0.69829 0-1.779 0.0163-3.2587 0.049l-3.9736-13.985c-0.13301-0.50648-0.46553-1.5358-0.96431-3.1369l-1.4464-4.6236c-0.13301-0.44112-0.23277-0.80056-0.29927-1.0783-0.0831-0.27775-0.23276-0.91493-0.4489-1.8789l-0.31589 2.9082c-0.0665 0.93126-0.18289 2.467-0.33252 4.6236l-0.91443 14.083c-0.0166 0.70253-0.0499 1.7318-0.0665 3.0879l-2.976-0.049c-0.51541 0-1.513 0.0163-3.0259 0.049z" fill="#7e8696"/>
<path d="m497.53 489.99 0.41565-5.3752 0.5819-11.927 0.26602-8.6428c0.0166-0.78422 0.0333-1.5848 0.0333-2.3854 0-0.58816-0.0166-1.4704-0.0333-2.6631 1.9785 0.0327 3.5746 0.049 4.8049 0.049 0.98093 0 2.3609-0.0163 4.1232-0.0654 1.7457-0.049 3.1423-0.0654 4.1731-0.0654 2.1281 0 3.691 0.14704 4.6885 0.45747 1.0641 0.32676 1.9951 0.84957 2.7932 1.5521 0.79805 0.71887 1.4132 1.5684 1.8289 2.5651 0.46552 1.1273 0.69828 2.3363 0.69828 3.6107 0 1.9606-0.49877 3.7251-1.4963 5.3262-0.99756 1.6011-2.3609 2.7938-4.1232 3.578-1.7624 0.78422-3.7076 1.1763-5.8523 1.1763-1.0474 0-2.1614-0.098-3.3418-0.31042-0.33252-1.5848-0.73154-3.0552-1.1472-4.4276 0.94768 0.19605 1.8954 0.29408 2.8264 0.29408 1.2802 0 2.3941-0.19606 3.3418-0.57183 0.93105-0.37577 1.6792-0.99662 2.2279-1.8462 0.56528-0.84958 0.83129-1.8135 0.83129-2.8918 0-0.63718-0.11638-1.2253-0.34914-1.7482-0.21614-0.53915-0.56528-0.96394-0.99756-1.2744-0.43227-0.31043-0.93105-0.53916-1.4631-0.65352-0.5154-0.11437-1.2802-0.16338-2.2611-0.16338-0.86455 0-1.7457 0.0163-2.6103 0.049-0.88117 0.0327-1.6626 0.049-2.3442 0.049-0.18289 2.9572-0.3159 5.8-0.41565 8.5121l-0.26602 8.6591c-0.0998 3.0715-0.14963 5.3262-0.14963 6.7639 0 0.55549 0.0166 1.3397 0.0332 2.369l-3.3584-0.049c-0.43227 0-1.5795 0.0163-3.4582 0.049z" fill="#7e8696"/>
<path d="m365.63 458.52c-8.2797 4.2806-11.871 15.178-7.9971 24.344 1.513 3.6107 4.0567 6.5842 7.2489 8.4467l7.7477-16.191z" fill="#fa72c6"/>
<path d="m527.95 465.76v-4.3296h-1.646v-0.58816h3.957v0.58816h-1.646v4.3296z" fill="#7e8696"/>
<path d="m530.93 465.76v-4.9177h0.99755l1.1804 3.48c0.11638 0.32676 0.18289 0.55549 0.23277 0.71887 0.0665-0.17972 0.14963-0.44113 0.26601-0.78423l1.1971-3.4146h0.8978v4.9177h-0.64841v-4.1172l-1.4465 4.1172h-0.59853l-1.4465-4.1825v4.1825z" fill="#7e8696"/>
<path d="m443.84 414.48-33.109 12.103 21.786 0.0781-0.0781 14.993 22.489 0.15617 0.0781-14.993 21.864 0.15617-33.031-12.494z" fill-rule="evenodd" fill="#d9d9d9"/>
<path d="m1013.8 127.59c13.04 0 23.582-10.542 23.582-23.582v-72.62c0-13.04-10.542-23.582-23.582-23.582h-72.62c-13.04 0-23.582 10.542-23.582 23.582v72.62c0 13.04 10.542 23.582 23.582 23.582h72.62z" fill-rule="evenodd" fill="#595959"/>
<text xml:space="preserve" font-size="16.242px" y="36.232162" x="953.28064" font-family="Open Sans" fill="#ffffff">Oracle</text>
<text xml:space="preserve" font-size="16.242px" y="56.222321" x="932.04114" font-family="Open Sans" fill="#ffffff">PostgreSQL</text>
<path d="m1013.8 262.84c13.04 0 23.582-10.62 23.582-23.66v-72.542c0-13.04-10.542-23.66-23.582-23.66h-72.62c-13.04 0-23.582 10.62-23.582 23.66v72.542c0 13.04 10.542 23.66 23.582 23.66h72.62z" fill-rule="evenodd" fill="#595959"/>
<text xml:space="preserve" font-size="16.242px" y="171.16573" x="947.03375" font-family="Open Sans" fill="#ffffff">External </text>
<text xml:space="preserve" font-size="16.242px" y="191.15588" x="937.03864" font-family="Open Sans" fill="#ffffff">Application</text>
<path d="m785.39 67.311 19.131-32.953-0.0781 21.786 84.646 0.31235 0.0781-21.864 18.975 33.109-19.209 33.031 0.0781-21.864-84.646-0.23426v21.786l-18.975-33.109z" fill-rule="evenodd" fill="#d9d9d9"/>
<text xml:space="preserve" transform="matrix(.99985 .017452 -.017452 .99985 1.3635 -13.813)" font-size="13.743px" y="71.214935" x="792.10999" font-family="Open Sans" fill="#595959">n</text>
<text xml:space="preserve" transform="matrix(.99985 .017452 -.017452 .99985 1.3647 -13.944)" font-size="13.743px" y="71.214935" x="799.60632" font-family="Open Sans" fill="#595959">a</text>
<text xml:space="preserve" transform="matrix(.99985 .017452 -.017452 .99985 1.3658 -14.075)" font-size="13.743px" y="71.214935" x="807.1026" font-family="Open Sans" fill="#595959">t</text>
<text xml:space="preserve" transform="matrix(.99985 .017452 -.017452 .99985 1.3664 -14.14)" font-size="13.743px" y="71.214935" x="810.85077" font-family="Open Sans" fill="#595959">i</text>
<text xml:space="preserve" transform="matrix(.99985 .017452 -.017452 .99985 1.3667 -14.184)" font-size="13.743px" y="71.214935" x="813.34955" font-family="Open Sans" fill="#595959">v</text>
<text xml:space="preserve" transform="matrix(.99985 .017452 -.017452 .99985 1.3679 -14.315)" font-size="13.743px" y="71.214935" x="820.84589" font-family="Open Sans" fill="#595959">e</text>
<text xml:space="preserve" transform="matrix(.99985 .017452 -.017452 .99985 1.369 -14.446)" font-size="13.743px" y="71.214935" x="828.34216" font-family="Open Sans" fill="#595959"> </text>
<text xml:space="preserve" transform="matrix(.99985 .017452 -.017452 .99985 1.3696 -14.511)" font-size="13.743px" y="71.214935" x="832.09033" font-family="Open Sans" fill="#595959">D</text>
<text xml:space="preserve" transform="matrix(.99985 .017452 -.017452 .99985 1.3709 -14.664)" font-size="13.743px" y="71.214935" x="840.836" font-family="Open Sans" fill="#595959">B</text>
<text xml:space="preserve" transform="matrix(.99985 .017452 -.017452 .99985 1.3723 -14.816)" font-size="13.743px" y="71.214935" x="849.58173" font-family="Open Sans" fill="#595959"> </text>
<text xml:space="preserve" transform="matrix(.99985 .017452 -.017452 .99985 1.3728 -14.882)" font-size="13.743px" y="71.214935" x="853.3299" font-family="Open Sans" fill="#595959">p</text>
<text xml:space="preserve" transform="matrix(.99985 .017452 -.017452 .99985 1.374 -15.013)" font-size="13.743px" y="71.214935" x="860.82617" font-family="Open Sans" fill="#595959">r</text>
<text xml:space="preserve" transform="matrix(.99985 .017452 -.017452 .99985 1.3747 -15.1)" font-size="13.743px" y="71.214935" x="865.82373" font-family="Open Sans" fill="#595959">o</text>
<text xml:space="preserve" transform="matrix(.99985 .017452 -.017452 .99985 1.3759 -15.231)" font-size="13.743px" y="71.214935" x="873.32001" font-family="Open Sans" fill="#595959">t</text>
<text xml:space="preserve" transform="matrix(.99985 .017452 -.017452 .99985 1.3765 -15.296)" font-size="13.743px" y="71.214935" x="877.06818" font-family="Open Sans" fill="#595959">o</text>
<text xml:space="preserve" transform="matrix(.99985 .017452 -.017452 .99985 1.3776 -15.427)" font-size="13.743px" y="71.214935" x="884.56451" font-family="Open Sans" fill="#595959">c</text>
<text xml:space="preserve" transform="matrix(.99985 .017452 -.017452 .99985 1.3785 -15.536)" font-size="13.743px" y="71.214935" x="890.8114" font-family="Open Sans" fill="#595959">o</text>
<text xml:space="preserve" transform="matrix(.99985 .017452 -.017452 .99985 1.3797 -15.667)" font-size="13.743px" y="71.214935" x="898.30774" font-family="Open Sans" fill="#595959">l</text>
<path d="m785.39 203.34 19.053-33.109v21.864h82.694v-21.864l19.131 33.109-19.131 33.031v-21.786h-82.694v21.786l-19.053-33.031z" fill-rule="evenodd" fill="#d9d9d9"/>
<text xml:space="preserve" font-size="13.743px" y="207.39789" x="808.35199" font-family="Open Sans" fill="#595959">HTTP</text>
<text xml:space="preserve" font-size="13.743px" y="207.39789" x="843.33478" font-family="Open Sans" fill="#595959">/</text>
<text xml:space="preserve" font-size="13.743px" y="207.39789" x="847.08295" font-family="Open Sans" fill="#595959">REST</text>
<path d="m2.8892 169.6c0-9.6046 7.8867-17.491 17.491-17.491 9.6827 0 17.491 7.8867 17.491 17.491 0 9.6827-7.8087 17.491-17.491 17.491-9.6046 0-17.491-7.8087-17.491-17.491" fill-rule="evenodd" fill="#fff"/>
<path stroke-linejoin="round" d="m2.8892 169.6c0-9.6046 7.8867-17.491 17.491-17.491 9.6827 0 17.491 7.8867 17.491 17.491v0c0 9.6827-7.8087 17.491-17.491 17.491-9.6046 0-17.491-7.8087-17.491-17.491" stroke="#595959" stroke-linecap="round" stroke-width="2.0303px" fill="none"/>
<text xml:space="preserve" font-size="23.738px" y="176.16327" x="13.743234" font-family="Open Sans" fill="#595959">1</text>
<path d="m2.8892 486.4c0-9.6827 7.8867-17.491 17.491-17.491 9.6827 0 17.491 7.8087 17.491 17.491 0 9.6827-7.8087 17.491-17.491 17.491-9.6046 0-17.491-7.8087-17.491-17.491" fill-rule="evenodd" fill="#fff"/>
<path stroke-linejoin="round" d="m2.8892 486.4c0-9.6827 7.8867-17.491 17.491-17.491 9.6827 0 17.491 7.8087 17.491 17.491v0c0 9.6827-7.8087 17.491-17.491 17.491-9.6046 0-17.491-7.8087-17.491-17.491" stroke="#595959" stroke-linecap="round" stroke-width="2.0303px" fill="none"/>
<text xml:space="preserve" font-size="23.738px" y="493.50702" x="13.743234" font-family="Open Sans" fill="#595959">2</text>
<path d="m3.9043 649.68c0-9.6827 7.8087-17.491 17.491-17.491 9.6046 0 17.491 7.8086 17.491 17.491 0 9.6046-7.8867 17.491-17.491 17.491-9.6827 0-17.491-7.8868-17.491-17.491" fill-rule="evenodd" fill="#fff"/>
<path stroke-linejoin="round" d="m3.9043 649.68c0-9.6827 7.8087-17.491 17.491-17.491 9.6046 0 17.491 7.8086 17.491 17.491v0c0 9.6046-7.8867 17.491-17.491 17.491-9.6827 0-17.491-7.8868-17.491-17.491" stroke="#595959" stroke-linecap="round" stroke-width="2.0303px" fill="none"/>
<text xml:space="preserve" font-size="23.738px" y="657.17645" x="14.992619" font-family="Open Sans" fill="#595959">3</text>
<path d="m114.47 562.22v58.253h194.36v-58.253h-194.36z" fill-rule="evenodd" fill="#3cc33c"/>
<text xml:space="preserve" font-size="16.242px" y="595.9566" x="151.17557" font-family="Open Sans" fill="#ffffff"><tspan font-weight="bold">Your App Code</tspan></text>
<path d="m346.86 562.22v58.253h194.36v-58.253h-194.36z" fill-rule="evenodd" fill="#3cc33c"/>
<text xml:space="preserve" font-size="16.242px" y="595.9566" x="383.56116" font-family="Open Sans" fill="#ffffff"><tspan font-weight="bold">Your App Code</tspan></text>
<path d="m619.15 562.22v58.253h194.36v-58.253h-194.36z" fill-rule="evenodd" fill="#3cc33c"/>
<text xml:space="preserve" font-size="16.242px" y="595.9566" x="655.92706" font-family="Open Sans" fill="#ffffff"><tspan font-weight="bold">Your App Code</tspan></text>
<path d="m929.15 71.215v46.383h98.936v-46.383h-98.936z" fill-rule="evenodd" fill="#3cc33c"/>
<text xml:space="preserve" font-size="16.242px" y="89.955711" x="940.7868" font-family="Open Sans" fill="#ffffff"><tspan font-weight="bold">Your App </tspan></text>
<text xml:space="preserve" font-size="16.242px" y="109.94587" x="958.2782" font-family="Open Sans" fill="#ffffff"><tspan font-weight="bold">Code</tspan></text>
<path d="m929.15 204.04v46.383h98.936v-46.383h-98.936z" fill-rule="evenodd" fill="#3cc33c"/>
<text xml:space="preserve" font-size="16.242px" y="222.3905" x="940.7868" font-family="Open Sans" fill="#ffffff"><tspan font-weight="bold">Your App </tspan></text>
<text xml:space="preserve" font-size="16.242px" y="242.38068" x="958.2782" font-family="Open Sans" fill="#ffffff"><tspan font-weight="bold">Code</tspan></text>
<path d="m213.72 550.51-33.031-12.26h21.786l0.0781-14.915h22.489l-0.0781 14.993h21.864l-33.109 12.182z" fill-rule="evenodd" fill="#d9d9d9"/>
<path d="m443.84 550.51-32.874-12.65 21.864 0.31235 0.15618-14.993 22.489 0.31234-0.23426 14.993 21.864 0.31235-33.265 11.713z" fill-rule="evenodd" fill="#d9d9d9"/>
<path d="m717.07 550.51-33.031-12.26h21.786l0.0781-14.915h22.411v14.993h21.864l-33.109 12.182z" fill-rule="evenodd" fill="#d9d9d9"/>
<path d="m856.22 678.81v58.331h194.36v-58.331h-194.36z" fill-rule="evenodd" fill="#595959"/>
<text xml:space="preserve" font-size="16.242px" y="713.14618" x="897.09827" font-family="Open Sans" fill="#ffffff">Posix, RTOS, ...</text>
<path d="m856.22 620.48v58.331h194.36v-58.331h-194.36z" fill-rule="evenodd" fill="#027eae"/>
<text xml:space="preserve" font-size="16.242px" y="654.67767" x="912.05096" font-family="Open Sans" fill="#ffffff">AutobahnC</text>
<path d="m856.22 562.22v58.253h194.36v-58.253h-194.36z" fill-rule="evenodd" fill="#3cc33c"/>
<text xml:space="preserve" font-size="16.242px" y="595.9566" x="893.31018" font-family="Open Sans" fill="#ffffff"><tspan font-weight="bold">Your App Code</tspan></text>
<path d="m954.14 550.51-33.031-12.26h21.864v-14.915h22.489l-0.0781 14.993h21.864l-33.109 12.182z" fill-rule="evenodd" fill="#d9d9d9"/>
<path stroke-linejoin="round" d="m539.5 774.07c0 6.4031-5.2318 11.635-11.713 11.635v0h-184.21c-6.4031 0-11.635 5.2318-11.635 11.635v0c0-6.4031-5.2318-11.635-11.635-11.635v0h-188.97c-6.4031 0-11.635-5.2318-11.635-11.635v0" stroke="#595959" stroke-linecap="round" stroke-width="1.1713px" fill="none"/>
<path d="m314.06 824.98c0-9.6827 7.8087-17.491 17.491-17.491 9.6046 0 17.491 7.8086 17.491 17.491 0 9.6046-7.8867 17.491-17.491 17.491-9.6827 0-17.491-7.8867-17.491-17.491" fill-rule="evenodd" fill="#fff"/>
<path stroke-linejoin="round" d="m314.06 824.98c0-9.6827 7.8087-17.491 17.491-17.491 9.6046 0 17.491 7.8086 17.491 17.491v0c0 9.6046-7.8867 17.491-17.491 17.491-9.6827 0-17.491-7.8867-17.491-17.491" stroke="#595959" stroke-linecap="round" stroke-width="2.0303px" fill="none"/>
<text xml:space="preserve" font-size="23.738px" y="832.09033" x="324.84006" font-family="Open Sans" fill="#595959">4</text>
<path stroke-linejoin="round" d="m1038.9 774.07c0 6.4031-5.2318 11.635-11.635 11.635v0 0h-184.21c-6.4812 0-11.713 5.2318-11.713 11.635v0c0-6.4031-5.2318-11.635-11.635-11.635v0 0h-188.97c-6.4031 0-11.635-5.2318-11.635-11.635v0" stroke="#595959" stroke-linecap="round" stroke-width="1.1713px" fill="none"/>
<path d="m813.51 824.98c0-9.6827 7.8087-17.491 17.491-17.491 9.6827 0 17.491 7.8086 17.491 17.491 0 9.6046-7.8087 17.491-17.491 17.491-9.6827 0-17.491-7.8867-17.491-17.491" fill-rule="evenodd" fill="#fff"/>
<path stroke-linejoin="round" d="m813.51 824.98c0-9.6827 7.8087-17.491 17.491-17.491 9.6827 0 17.491 7.8086 17.491 17.491v0c0 9.6046-7.8087 17.491-17.491 17.491-9.6827 0-17.491-7.8867-17.491-17.491" stroke="#595959" stroke-linecap="round" stroke-width="2.0303px" fill="none"/>
<text xml:space="preserve" font-size="23.738px" y="832.09033" x="824.59399" font-family="Open Sans" fill="#595959">5</text>
<path stroke-linejoin="round" d="m1082.1 391.92c6.4812 0 11.635-5.2318 11.635-11.635v0-163.2c0-6.4812 5.2318-11.635 11.713-11.635v0c-6.4812 0-11.713-5.2318-11.713-11.713v0 0-167.89c0-6.4812-5.1537-11.713-11.635-11.713v0" stroke="#595959" stroke-linecap="round" stroke-width="1.1713px" fill="none"/>
<path d="m1158.4 204.43c0-9.6827-7.8086-17.491-17.491-17.491-9.6828 0-17.491 7.8087-17.491 17.491 0 9.6827 7.8086 17.491 17.491 17.491 9.6827 0 17.491-7.8087 17.491-17.491" fill-rule="evenodd" fill="#fff"/>
<path stroke-linejoin="round" d="m1158.4 204.43c0-9.6827-7.8086-17.491-17.491-17.491-9.6828 0-17.491 7.8087-17.491 17.491v0c0 9.6827 7.8086 17.491 17.491 17.491 9.6827 0 17.491-7.8087 17.491-17.491" stroke="#595959" stroke-linecap="round" stroke-width="2.0303px" fill="none"/>
<text xml:space="preserve" font-size="23.738px" y="211.14604" x="1134.4415" font-family="Open Sans" fill="#595959">6</text>
<path d="m1013.8 398.24c13.04 0 23.582-10.542 23.582-23.582v-72.62c0-13.04-10.542-23.582-23.582-23.582h-72.62c-13.04 0-23.582 10.542-23.582 23.582v72.62c0 13.04 10.542 23.582 23.582 23.582h72.62z" fill-rule="evenodd" fill="#595959"/>
<text xml:space="preserve" font-size="16.242px" y="307.34869" x="952.03125" font-family="Open Sans" fill="#ffffff">WAMP</text>
<text xml:space="preserve" font-size="16.242px" y="327.33884" x="937.03864" font-family="Open Sans" fill="#ffffff">Application</text>
<path d="m929.15 339.52v46.383h98.936v-46.383h-98.936z" fill-rule="evenodd" fill="#3cc33c"/>
<text xml:space="preserve" font-size="16.242px" y="357.32407" x="940.7868" font-family="Open Sans" fill="#ffffff"><tspan font-weight="bold">Your App </tspan></text>
<text xml:space="preserve" font-size="16.242px" y="377.31424" x="958.2782" font-family="Open Sans" fill="#ffffff"><tspan font-weight="bold">Code</tspan></text>
<path d="m785.39 338.74 19.053-33.031v21.864h84.568v-21.864l19.131 33.031-19.131 33.109v-21.864h-84.568v21.864l-19.053-33.109z" fill-rule="evenodd" fill="#d9d9d9"/>
<text xml:space="preserve" font-size="13.743px" y="342.33145" x="825.84338" font-family="Open Sans" fill="#595959">WAMP</text>
<path stroke-linejoin="round" d="m0 0" stroke="#000" stroke-linecap="round" stroke-width="1px" fill="none"/>
<path d="m297.35 14.993h48.699v48.683h-48.699z" fill="#1a1a1a"/>
<path d="m297.35 25.32v4.851l11.474-0.02156 7.6349 7.6323 3.5371-3.5143-9.0368-9.0337z" fill="#ffde00"/>
<path d="m326.88 41.167-3.5155 3.5143 8.7348 8.7319h13.954v-4.8726h-11.797z" fill="#ffde00"/>
<path d="m332.44 25.255-23.228 23.328h-11.862v4.8726h13.911l23.314-23.285h11.474v-4.9157z" fill="#ffde00"/>
<path d="m381.08 51.796c-3.2351 0.6468-6.2977 0.97021-9.2309 0.97021-1.1646 0-2.2862-0.04312-3.3214-0.15092s-2.1999-0.3234-3.4724-0.6468c-1.2725-0.34496-2.3509-0.79773-3.2567-1.3798-0.88427-0.56056-1.6391-1.3799-2.2646-2.4147-0.60389-1.0349-0.9274-2.2638-0.9274-3.6652v-12.526c0-5.735 4.4213-8.6025 13.242-8.6025 2.1568 0 5.1762 0.3234 9.0584 0.97021v5.1313c-3.4939-0.81929-6.4918-1.2289-8.9721-1.2289-0.9921 0-1.8117 0.02156-2.4371 0.08624-0.62545 0.06468-1.294 0.2156-1.9842 0.4312-0.69016 0.23716-1.2078 0.62524-1.5313 1.1211-0.34508 0.51744-0.51762 1.1858-0.51762 2.0051v12.138c0 2.5657 2.3724 3.8593 7.0741 3.8593 2.092 0 4.939-0.4312 8.5407-1.272z" fill="#1a1a1a"/>
<path d="m399.17 35.949h-2.1999c-1.7685 0-3.0842 0.25872-3.99 0.79773-0.88427 0.56056-1.3372 1.4877-1.3372 2.8028v12.785h-6.4056v-21.28h6.1036v3.7515c0.0216-1.0564 0.64703-2.0267 1.8332-2.8891 1.1862-0.86241 2.4156-1.2936 3.7096-1.2936h2.2862z" fill="#1a1a1a"/>
<path d="m423.67 38.752v6.2956c0 1.3583-0.21567 2.5441-0.66859 3.5359-0.43135 0.97021-0.97054 1.7248-1.6176 2.2854-0.64703 0.539-1.4882 0.94865-2.5234 1.2505-1.0568 0.28028-2.0058 0.47432-2.8685 0.539-0.8627 0.08624-1.8979 0.1078-3.1273 0.1078-1.2509 0-2.2862-0.02156-3.1488-0.1078-0.8627-0.06468-1.8117-0.25872-2.8685-0.539-1.0352-0.30184-1.8764-0.71148-2.5234-1.2505-0.64702-0.56056-1.1862-1.3152-1.6176-2.2854-0.45292-0.99177-0.66859-2.1776-0.66859-3.5359v-6.2956c0-1.4661 0.23724-2.7166 0.69016-3.7515s1.0137-1.8326 1.6607-2.3932c0.66859-0.56056 1.5313-0.99177 2.5665-1.2936 1.0568-0.3234 2.0058-0.49588 2.8469-0.58212 0.84113-0.06468 1.8548-0.1078 3.0626-0.1078 1.1862 0 2.1999 0.04312 3.041 0.1078 0.84113 0.08624 1.7901 0.25872 2.8469 0.58212 1.0568 0.30184 1.8979 0.73304 2.5665 1.2936 0.64702 0.56056 1.2078 1.3583 1.6607 2.3932 0.45292 1.0349 0.69016 2.2854 0.69016 3.7515zm-6.4271 7.0286v-8.0419c0-1.1427-0.28038-1.9404-0.8627-2.4363-0.60389-0.47432-1.7685-0.71148-3.5155-0.71148-1.7685 0-2.9332 0.23716-3.5155 0.71148-0.60389 0.49588-0.88427 1.2936-0.88427 2.4363v8.0419c0 1.1211 0.28038 1.8973 0.84113 2.3285 0.58233 0.45276 1.7685 0.66836 3.5586 0.66836 1.7685 0 2.9548-0.2156 3.5371-0.66836 0.56075-0.4312 0.84113-1.2074 0.84113-2.3285z" fill="#1a1a1a"/>
<path d="m447.01 44.034v2.6735c0 1.0564-0.21567 1.962-0.60389 2.7166-0.38821 0.77617-0.88427 1.3583-1.4882 1.7895-0.60389 0.4312-1.3803 0.75461-2.3508 0.99177-0.97054 0.23716-1.8979 0.38808-2.8038 0.45276-0.88426 0.08624-1.9411 0.1078-3.1273 0.1078-2.3293 0-5.1115-0.2156-8.4113-0.6468v-4.2689c4.0763 0.62524 6.9016 0.92709 8.4976 0.92709 1.2509 0 2.2214-0.12936 2.9116-0.38808 0.69016-0.23716 1.0352-0.73304 1.0352-1.4661v-1.3152c0-0.66836-0.19411-1.1858-0.56076-1.5092-0.38821-0.34496-1.2078-0.51744-2.4587-0.51744h-2.7822c-2.2214 0-3.9684-0.4312-5.1978-1.3367-1.2509-0.88397-1.8764-2.1991-1.8764-3.9239v-2.5872c0-1.9404 0.92741-3.2771 2.7606-4.0102 1.8548-0.73304 4.4645-1.0996 7.829-1.0996 1.4019 0 3.9253 0.12936 7.5702 0.38808v4.0964c-4.5723-0.34496-7.1604-0.51744-7.7427-0.51744-1.7901 0-2.9116 0.1078-3.3861 0.36652-0.47449 0.23716-0.71173 0.71149-0.71173 1.423v1.1427c0 0.34496 0.19411 0.66836 0.56075 0.97021 0.36665 0.28028 0.92741 0.4312 1.6823 0.4312h2.8253c5.2193 0 7.829 1.7033 7.829 5.1098z" fill="#1a1a1a"/>
<path d="m470.09 44.034v2.6735c0 1.0564-0.19411 1.962-0.58233 2.7166-0.40978 0.77617-0.90583 1.3583-1.5097 1.7895-0.58232 0.4312-1.3803 0.75461-2.3509 0.99177-0.94897 0.23716-1.8979 0.38808-2.7822 0.45276-0.88427 0.08624-1.9411 0.1078-3.1489 0.1078-2.3077 0-5.1115-0.2156-8.3898-0.6468v-4.2689c4.0762 0.62524 6.9016 0.92709 8.476 0.92709 1.2725 0 2.243-0.12936 2.9332-0.38808 0.69016-0.23716 1.0352-0.73304 1.0352-1.4661v-1.3152c0-0.66836-0.19411-1.1858-0.58232-1.5092-0.36665-0.34496-1.1862-0.51744-2.4587-0.51744h-2.7606c-2.2215 0-3.9684-0.4312-5.2193-1.3367-1.2293-0.88397-1.8548-2.1991-1.8548-3.9239v-2.5872c0-1.9404 0.9274-3.2771 2.7606-4.0102 1.8548-0.73304 4.4645-1.0996 7.829-1.0996 1.4019 0 3.9253 0.12936 7.5486 0.38808v4.0964c-4.5723-0.34496-7.1388-0.51744-7.7212-0.51744-1.7901 0-2.9116 0.1078-3.3861 0.36652-0.47448 0.23716-0.71173 0.71149-0.71173 1.423v1.1427c0 0.34496 0.19411 0.66836 0.56076 0.97021 0.36665 0.28028 0.9274 0.4312 1.6823 0.4312h2.8253c5.1978 0 7.8074 1.7033 7.8074 5.1098z" fill="#1a1a1a"/>
<path d="m496.66 37.782v6.9855c0 2.9106-0.8627 4.9588-2.6097 6.1878-1.747 1.2074-4.5507 1.8111-8.4329 1.8111-4.0547 0-6.88-0.62524-8.4329-1.8973-1.5529-1.2936-2.3293-3.3203-2.3293-6.1015v-23.199h6.4271v11.599c0.36664-0.97021 1.0784-1.617 2.1352-1.9835 1.0352-0.36652 2.6097-0.56056 4.7664-0.56056 1.8117 0 3.2783 0.15092 4.4213 0.4312 1.1431 0.30184 2.0273 0.77617 2.6097 1.4445 0.58232 0.6468 0.97053 1.3798 1.1646 2.1776 0.19411 0.77617 0.28038 1.8326 0.28038 3.1047zm-6.4271 7.8263v-7.8695c0-1.3798-0.23724-2.2423-0.75486-2.6088-0.51762-0.36652-1.7901-0.539-3.8174-0.539-1.8117 0-2.9979 0.2156-3.5586 0.68992-0.53919 0.47432-0.81956 1.2936-0.81956 2.4579v7.8695c0 1.2505 0.25881 2.1129 0.79799 2.5225 0.56076 0.4312 1.7685 0.6468 3.6449 0.6468 1.8548 0 3.0842-0.2156 3.6665-0.6468 0.56076-0.40964 0.84113-1.272 0.84113-2.5225z" fill="#1a1a1a"/>
<path d="m520.81 52.335h-6.2977v-1.9404c-0.47448 0.86241-1.1431 1.4661-2.0273 1.8326-0.8627 0.36652-2.4803 0.539-4.8311 0.539-2.8685 0-4.7664-0.4312-5.7154-1.3152-0.9274-0.88397-1.4019-2.7166-1.4019-5.4978 0-2.501 0.47448-4.2689 1.445-5.2391 0.97054-0.99177 2.6959-1.4661 5.1978-1.4661h7.2036v-1.4661c0-1.272-0.30195-2.1345-0.90584-2.5657s-1.8548-0.62524-3.7959-0.62524c-1.8117 0-4.3135 0.17248-7.4839 0.51744v-4.0533c2.4371-0.28028 5.1546-0.4312 8.131-0.4312 3.9468 0 6.6644 0.47432 8.1956 1.423 1.5097 0.97021 2.2862 2.8459 2.2862 5.6488zm-6.4271-5.4547v-4.118h-4.3998c-1.4019 0-2.2862 0.15092-2.6312 0.47432-0.34508 0.3234-0.53918 1.1858-0.53918 2.5872 0 1.3798 0.1941 2.2207 0.56075 2.501 0.36665 0.30184 1.294 0.45276 2.7822 0.45276 0.73329 0 1.2725-0.02156 1.6391-0.02156 0.34508-0.02156 0.73329-0.06468 1.1431-0.1078 0.40979-0.06468 0.69016-0.15092 0.84114-0.30184 0.17254-0.12936 0.30194-0.30184 0.43135-0.539 0.10783-0.23716 0.17254-0.539 0.17254-0.92709z" fill="#1a1a1a"/>
<path d="m540.38 35.949h-2.1999c-1.747 0-3.0842 0.25872-3.9684 0.79773-0.88427 0.56056-1.3372 1.4877-1.3372 2.8028v12.785h-6.4271v-21.28h6.1252v3.7515c0.0216-1.0564 0.62546-2.0267 1.8117-2.8891 1.1862-0.86241 2.4371-1.2936 3.7096-1.2936h2.2862z" fill="#1a1a1a"/>
<path d="m549.24 52.335h-5.0899v-4.7432h5.0899z" fill="#808080"/>
<path d="m559.7 27.498h-3.9684v-4.118h3.9684zm0 24.837h-3.9684v-21.28h3.9684z" fill="#808080"/>
<path d="m585.37 38.234v7.3736c0 1.3152-0.15097 2.4363-0.47448 3.3418-0.32351 0.90553-0.7333 1.617-1.2294 2.1129-0.51762 0.49588-1.2294 0.86241-2.1352 1.1427-0.9274 0.25872-1.8117 0.40964-2.6528 0.47432-0.81957 0.06468-1.9411 0.08624-3.2998 0.08624-1.7685 0-3.1488-0.04312-4.1194-0.17248-0.9921-0.1078-1.9626-0.40964-2.9548-0.86241-0.97053-0.45276-1.6823-1.1642-2.092-2.1776-0.43135-0.99177-0.64703-2.3069-0.64703-3.9455v-7.3736c0-1.423 0.17254-2.6088 0.51762-3.5574 0.32351-0.97021 0.7333-1.7248 1.2294-2.2423 0.47448-0.539 1.1862-0.92709 2.1136-1.2074 0.94897-0.28028 1.8117-0.45276 2.6312-0.51744 0.79799-0.06468 1.8979-0.08624 3.3214-0.08624 1.4019 0 2.5018 0.02156 3.2998 0.08624 0.81956 0.06468 1.6823 0.23716 2.6312 0.51744 0.9274 0.28028 1.6391 0.66836 2.1136 1.2074 0.49605 0.51744 0.90583 1.272 1.2509 2.2423 0.32351 0.94865 0.49605 2.1345 0.49605 3.5574zm-4.0547 7.9341v-8.6025c0-1.962-0.38821-3.1693-1.1862-3.6437-0.77643-0.47432-2.3077-0.71149-4.5507-0.71149-2.2646 0-3.7959 0.23716-4.5723 0.71149-0.79799 0.47432-1.1862 1.6817-1.1862 3.6437v8.6025c0 0.94865 0.0863 1.7033 0.30195 2.2423 0.1941 0.56056 0.58232 0.97021 1.1431 1.2074 0.56076 0.25872 1.1215 0.40964 1.7038 0.47432 0.58233 0.06468 1.4666 0.08624 2.6097 0.08624 1.1215 0 2.0058-0.02156 2.5881-0.08624 0.58232-0.06468 1.1431-0.2156 1.7038-0.47432 0.56076-0.23716 0.94897-0.6468 1.1431-1.2074 0.21567-0.539 0.30194-1.2936 0.30194-2.2423z" fill="#808080"/>
<flowRoot style="word-spacing:0px;letter-spacing:0px" xml:space="preserve" font-size="40px" line-height="125%" font-family="Open Sans" fill="#000000"><flowRegion><rect y="-15.15" width="1429.4" x="-112.13" height="906.11"/></flowRegion><flowPara/></flowRoot>
</g>
</g>
</svg>
