<?xml version="1.0" encoding="UTF-8" standalone="no"?>
<svg xmlns:rdf="http://www.w3.org/1999/02/22-rdf-syntax-ns#" xmlns="http://www.w3.org/2000/svg" version="1.1" xmlns:cc="http://creativecommons.org/ns#" xmlns:dc="http://purl.org/dc/elements/1.1/" viewBox="0 0 284.73 140.5">
<defs>
<filter id="a" color-interpolation-filters="sRGB">
<feFlood result="flood" flood-color="rgb(0,0,0)" flood-opacity=".5"/>
<feComposite operator="in" result="composite1" in2="SourceGraphic" in="flood"/>
<feGaussianBlur stdDeviation="4" result="blur"/>
<feOffset result="offset" dx="3" dy="3"/>
<feComposite operator="over" result="composite2" in2="offset" in="SourceGraphic"/>
</filter>
</defs>
<metadata>
<rdf:RDF>
<cc:Work rdf:about="">
<dc:format>image/svg+xml</dc:format>
<dc:type rdf:resource="http://purl.org/dc/dcmitype/StillImage"/>
<dc:title/>
</cc:Work>
</rdf:RDF>
</metadata>
<g transform="translate(126.2 -415.41)">
<path filter="url(#a)" fill="#1a1a1a" d="m-23.434 445.82h79.77v79.77h-79.77z"/>
<path style="block-progression:tb;color:#000000;text-transform:none;text-indent:0" fill="#ffde00" d="m-23.434 462.72v7.977l18.8-0.0571 12.516 12.516 5.7644-5.7644-14.801-14.801z"/>
<path style="block-progression:tb;color:#000000;text-transform:none;text-indent:0" fill="#ffde00" d="m24.941 488.7-5.7644 5.7644 14.308 14.308h22.85v-8h-19.319z"/>
<path style="block-progression:tb;color:#000000;text-transform:none;text-indent:0" fill="#ffde00" d="m34.055 462.62-38.062 38.24h-19.428v7.977h22.778l38.191-38.164h18.8v-8.0498z"/>
<path d="m-116.2 429.52h21.665l36.045 36.963h23.734" stroke="#a5a5a5" stroke-width="8.1956" fill="none"/>
<path d="m67.077 504.85h21.665l36.045 36.963h23.734" stroke="#a5a5a5" stroke-width="8.1956" fill="none"/>
<path d="m66.898 466.63h21.665l36.045-36.963h23.734" stroke="#a5a5a5" stroke-width="8.1956" fill="none"/>
<path d="m-116.01 541.73h21.665l36.045-36.963h23.734" stroke="#a5a5a5" stroke-width="8.1956" fill="none"/>
</g>
</svg>
