<?xml version="1.0" encoding="UTF-8" standalone="no"?>
<svg xmlns:rdf="http://www.w3.org/1999/02/22-rdf-syntax-ns#" xmlns="http://www.w3.org/2000/svg" version="1.1" xmlns:cc="http://creativecommons.org/ns#" xmlns:dc="http://purl.org/dc/elements/1.1/" viewBox="0 0 284.73 140.5">
<metadata>
<rdf:RDF>
<cc:Work rdf:about="">
<dc:format>image/svg+xml</dc:format>
<dc:type rdf:resource="http://purl.org/dc/dcmitype/StillImage"/>
<dc:title/>
</cc:Work>
</rdf:RDF>
</metadata>
<g transform="translate(126.2 -415.41)">
<g transform="matrix(.49856 0 0 .49856 117.13 1317.3)">
<path fill="#1a1a1a" d="m-281.94-1747.9h160v160h-160z"/>
<path style="block-progression:tb;color:#000000;text-transform:none;text-indent:0" fill="#ffde00" d="m-281.94-1714v16l37.708-0.1145 25.104 25.104 11.562-11.562-29.688-29.688z"/>
<path style="block-progression:tb;color:#000000;text-transform:none;text-indent:0" fill="#ffde00" d="m-184.91-1661.9-11.562 11.562 28.698 28.698h45.833v-16.042h-38.75z"/>
<path style="block-progression:tb;color:#000000;text-transform:none;text-indent:0" fill="#ffde00" d="m-166.63-1714.2-76.342 76.695h-38.97v16h45.689l76.602-76.549h37.708v-16.146z"/>
</g>
<path d="m-116.2 429.52h21.665l36.045 36.963h23.734" stroke="#a5a5a5" stroke-width="8.1956" fill="none"/>
<path d="m67.077 504.85h21.665l36.045 36.963h23.734" stroke="#a5a5a5" stroke-width="8.1956" fill="none"/>
<path d="m66.898 466.63h21.665l36.045-36.963h23.734" stroke="#a5a5a5" stroke-width="8.1956" fill="none"/>
<path d="m-116.01 541.73h21.665l36.045-36.963h23.734" stroke="#a5a5a5" stroke-width="8.1956" fill="none"/>
</g>
</svg>
