<?xml version="1.0" encoding="UTF-8" standalone="no"?>
<svg xmlns:rdf="http://www.w3.org/1999/02/22-rdf-syntax-ns#" xmlns="http://www.w3.org/2000/svg" version="1.1" xmlns:cc="http://creativecommons.org/ns#" xmlns:dc="http://purl.org/dc/elements/1.1/" viewBox="0 0 530.51 280.5">
<metadata>
<rdf:RDF>
<cc:Work rdf:about="">
<dc:format>image/svg+xml</dc:format>
<dc:type rdf:resource="http://purl.org/dc/dcmitype/StillImage"/>
<dc:title/>
</cc:Work>
</rdf:RDF>
</metadata>
<g transform="translate(830.97 707.89)">
<path stroke-linejoin="round" d="m-626.34-563.79-101.83-0.3639" stroke="#2a2a2a" stroke-linecap="round" stroke-width="2.4" fill="#2a2a2a"/>
<path d="m-736.37-564.28 9.5487 5.6486c-1.5069-3.5216-1.48-7.7119 0.072-11.214l-9.6207 5.5654z" fill-rule="evenodd" stroke="#2a2a2a" stroke-width="1.6084" fill="#2a2a2a"/>
<text style="word-spacing:0px;letter-spacing:0px" font-size="16px" xml:space="preserve" line-height="125%" y="-576.54401" x="-715.86987" font-family="Open Sans" fill="#1a1a1a"><tspan y="-576.54401" x="-715.86987">Dispatch</tspan></text>
<path stroke-linejoin="round" d="m-626.18-530.53-96.569 52.317" stroke="#2a2a2a" stroke-linecap="round" stroke-width="2.4" fill="#2a2a2a"/>
<path d="m-730.01-474.4 11.088 0.3813c-3.0103-2.3686-4.995-6.0592-5.3112-9.8767l-5.7766 9.4954z" fill-rule="evenodd" stroke="#2a2a2a" stroke-width="1.6084" fill="#2a2a2a"/>
<text style="word-spacing:0px;letter-spacing:0px" transform="rotate(-28.637)" xml:space="preserve" line-height="125%" font-size="16px" y="-776.57397" x="-385.34235" font-family="Open Sans" fill="#1a1a1a"><tspan y="-776.57397" x="-385.34235">Dispatch</tspan></text>
<g transform="matrix(.70909 0 0 .70909 -1594.2 -2126.7)">
<path d="m1083.3 2008h110v110h-110z" fill="#999"/>
<text style="word-spacing:0px;letter-spacing:0px" font-size="25.505px" line-height="125%" y="2034.1614" x="1092.5861" font-family="Open Sans" xml:space="preserve" fill="#ffffff"><tspan font-size="20px" y="2034.1614" x="1092.5861" font-family="Open Sans">Client</tspan></text>
</g>
<g transform="matrix(.70909 0 0 .70909 -1594.1 -2030.2)">
<path d="m1083.3 2008h110v110h-110z" fill="#999"/>
<text style="word-spacing:0px;letter-spacing:0px" font-size="25.505px" line-height="125%" y="2034.1614" x="1092.5861" font-family="Open Sans" xml:space="preserve" fill="#ffffff"><tspan font-size="20px" y="2034.1614" x="1092.5861" font-family="Open Sans">Client</tspan></text>
</g>
<rect height="46" width="78" y="-574.39" x="-825.96" fill="#3cc33c"/>
<text style="word-spacing:0px;letter-spacing:0px" font-size="12px" xml:space="preserve" line-height="125%" y="-556.62042" x="-818.84131" font-family="Open Sans" fill="#ffffff"><tspan y="-556.62042" x="-818.84131" font-weight="bold">Subscribed</tspan><tspan y="-541.62042" x="-818.84131" font-family="Open Sans">on Topic A</tspan></text>
<g transform="matrix(.70909 0 0 .70909 -1594.1 -1934.2)">
<path d="m1083.3 2008h110v110h-110z" fill="#999"/>
<text style="word-spacing:0px;letter-spacing:0px" font-size="25.505px" line-height="125%" y="2034.1614" x="1092.5861" font-family="Open Sans" xml:space="preserve" fill="#ffffff"><tspan font-size="20px" y="2034.1614" x="1092.5861" font-family="Open Sans">Client</tspan></text>
</g>
<rect height="46" width="78" y="-478.39" x="-825.96" fill="#3cc33c"/>
<text style="word-spacing:0px;letter-spacing:0px" font-size="12px" xml:space="preserve" line-height="125%" y="-460.62045" x="-818.84131" font-family="Open Sans" fill="#ffffff"><tspan y="-460.62045" x="-818.84131" font-weight="bold">Subscribed</tspan><tspan y="-445.62045" x="-818.84131" font-family="Open Sans">on Topic A</tspan></text>
<path d="m-383.46-607.64h78v78h-78z" fill="#999"/>
<text style="word-spacing:0px;letter-spacing:0px" xml:space="preserve" font-size="18.086px" line-height="125%" y="-589.08698" x="-376.89932" font-family="Open Sans" fill="#ffffff"><tspan font-size="14.182px" y="-589.08698" x="-376.89932" font-family="Open Sans">Database</tspan></text>
<rect height="46" width="78" y="-575.64" x="-383.46" fill="#3cc33c"/>
<text style="word-spacing:0px;letter-spacing:0px" font-size="12px" xml:space="preserve" line-height="125%" y="-557.87042" x="-376.34238" font-family="Open Sans" fill="#ffffff"><tspan y="-557.87042" x="-376.34238" font-weight="bold">Publish</tspan><tspan y="-542.87042" x="-376.34238" font-family="Open Sans">to Topic A</tspan></text>
<path stroke-linejoin="round" d="m-393.67-565.51-101.83-0.3639" stroke="#2a2a2a" stroke-linecap="round" stroke-width="2.4" fill="#2a2a2a"/>
<path d="m-503.71-566.01 9.5487 5.6486c-1.5069-3.5216-1.48-7.7119 0.072-11.214l-9.6207 5.5654z" fill-rule="evenodd" stroke="#2a2a2a" stroke-width="1.6084" fill="#2a2a2a"/>
<text style="word-spacing:0px;letter-spacing:0px" font-size="16px" xml:space="preserve" line-height="125%" y="-578.26837" x="-475.2081" font-family="Open Sans" fill="#1a1a1a"><tspan y="-578.26837" x="-475.2081" font-family="Open Sans" fill="#1a1a1a">Publish</tspan></text>
<path fill="#1a1a1a" d="m-611.06-615.83h91.931v91.933h-91.931z"/>
<path style="block-progression:tb;text-indent:0;color:#000000;text-transform:none" fill="#ffde00" d="m-611.06-590.35v9.1933l21.666-0.0659 14.424 14.424 6.6432-6.6433-17.058-17.058z"/>
<path style="block-progression:tb;text-indent:0;color:#000000;text-transform:none" fill="#ffde00" d="m-555.31-560.42-6.6432 6.6432 16.489 16.489h26.334v-9.2174h-22.265z"/>
<path style="block-progression:tb;text-indent:0;color:#000000;text-transform:none" fill="#ffde00" d="m-544.8-590.47-43.864 44.067h-22.391v9.1933h26.252l44.013-43.984h21.666v-9.2771z"/>
<g fill="#fff">
<path d="m-599.14-599.71c-1.2246 0.24499-2.3937 0.36749-3.5072 0.36749-0.44548 0-0.8658-0.0195-1.261-0.0586-0.39518-0.0391-0.83496-0.12258-1.3193-0.25051-0.48438-0.12793-0.89637-0.30046-1.236-0.51759-0.33963-0.21712-0.62633-0.52336-0.8601-0.91871-0.23378-0.39534-0.35067-0.86026-0.35067-1.3948v-4.76c0-2.1821 1.6757-3.2732 5.0271-3.2732 0.82399 0.00001 1.9708 0.1225 3.4404 0.36748v1.9542c-1.3249-0.31192-2.4604-0.46789-3.4068-0.4679-0.37854 0.00001-0.68749 0.0111-0.92687 0.0334-0.23939 0.0223-0.48999 0.0779-0.75179 0.16692-0.26181 0.089-0.45669 0.23098-0.58461 0.42584-0.12794 0.19488-0.1919 0.44828-0.1919 0.7602v4.6096c0 0.97962 0.8962 1.4694 2.6886 1.4694 0.79069 0 1.8707-0.1614 3.2401-0.4842z"/>
<path d="m-592.27-605.74h-0.83538c-0.66803 0.00001-1.1719 0.10297-1.5115 0.30887-0.33962 0.20592-0.50943 0.55948-0.50943 1.0607v4.8599h-2.4384v-8.0836h2.3216v1.42c0.0112-0.40095 0.24227-0.76563 0.69318-1.094 0.4509-0.3284 0.92134-0.4926 1.4113-0.49261h0.86851z"/>
<path d="m-582.96-604.67v2.3884c-0.00001 0.52328-0.0835 0.97138-0.25051 1.3443-0.16702 0.37292-0.37302 0.66234-0.618 0.86825-0.245 0.20592-0.56508 0.3646-0.96025 0.47605-0.39518 0.11145-0.75698 0.18111-1.0854 0.20897-0.32841 0.0279-0.72648 0.0418-1.1942 0.0418-0.46773 0-0.86579-0.0139-1.1942-0.0418s-0.69029-0.0975-1.0856-0.20897c-0.39535-0.11145-0.71552-0.27013-0.96051-0.47605-0.24499-0.20591-0.45099-0.49533-0.618-0.86825s-0.25051-0.82102-0.25051-1.3443v-2.3884c0-0.55691 0.0863-1.033 0.25892-1.4282 0.17262-0.39517 0.38422-0.69852 0.63482-0.91004 0.25059-0.21152 0.57628-0.37581 0.97707-0.49287 0.40078-0.11705 0.75986-0.18943 1.0772-0.21713 0.31736-0.0277 0.7043-0.0415 1.1608-0.0415 0.45651 0.00001 0.84344 0.0139 1.1608 0.0415 0.31735 0.0277 0.67643 0.10008 1.0772 0.21713 0.40078 0.11706 0.72638 0.28135 0.97682 0.49287 0.25042 0.21152 0.46194 0.51487 0.63456 0.91004 0.17261 0.39519 0.25891 0.87124 0.25892 1.4282zm-2.4384 2.6723v-3.0566c0-0.43424-0.11137-0.7432-0.3341-0.92686-0.22274-0.18365-0.66812-0.27548-1.3361-0.27549-0.66804 0.00001-1.1133 0.0918-1.3359 0.27549-0.22256 0.18366-0.33384 0.49262-0.33384 0.92686v3.0566c0 0.42305 0.10847 0.71807 0.32543 0.88508s0.66506 0.25051 1.3443 0.25051c0.67923 0 1.1274-0.0835 1.3446-0.25051 0.21712-0.16701 0.32569-0.46203 0.32569-0.88508z"/>
<path d="m-574.09-602.66v1.0189c0 0.40061-0.0751 0.74567-0.22528 1.0352-0.15019 0.28951-0.33946 0.51505-0.56779 0.67662-0.22835 0.16157-0.52626 0.28687-0.89374 0.37589-0.36749 0.089-0.72096 0.14747-1.0604 0.17533-0.33946 0.0279-0.73753 0.0418-1.1942 0.0418-0.87973 0-1.9431-0.0836-3.1901-0.25077v-1.6198c1.5478 0.23378 2.6223 0.35067 3.2238 0.35067 0.47876 0 0.84896-0.0473 1.1106-0.14195 0.26163-0.0946 0.39245-0.28109 0.39246-0.55938v-0.50154c-0.00001-0.25586-0.0724-0.44784-0.21713-0.57594-0.14476-0.1281-0.45652-0.19215-0.93528-0.19216h-1.0525c-0.84609 0.00001-1.5057-0.1698-1.9789-0.50943-0.47316-0.33962-0.70974-0.83784-0.70974-1.4947v-0.98523c0-0.73496 0.35075-1.2416 1.0522-1.5199 0.7015-0.27828 1.6924-0.41742 2.9728-0.41743 0.53449 0.00001 1.492 0.0501 2.8726 0.15036v1.553c-1.737-0.13353-2.7168-0.2003-2.9394-0.20031-0.67925 0.00001-1.108 0.0473-1.2862 0.14195-0.17822 0.0946-0.26733 0.27549-0.26733 0.54256v0.43426c0 0.13354 0.0697 0.25603 0.20897 0.36748 0.13931 0.11146 0.35372 0.16718 0.64323 0.16718h1.0688c1.9817 0 2.9725 0.64578 2.9725 1.9373z"/>
<path d="m-565.32-602.66v1.0189c-0.00001 0.40061-0.0751 0.74567-0.22528 1.0352-0.1502 0.28951-0.33946 0.51505-0.56779 0.67662-0.22835 0.16157-0.52626 0.28687-0.89374 0.37589-0.36749 0.089-0.72096 0.14747-1.0604 0.17533-0.33945 0.0279-0.73752 0.0418-1.1942 0.0418-0.87972 0-1.9431-0.0836-3.1901-0.25077v-1.6198c1.5478 0.23378 2.6223 0.35067 3.2238 0.35067 0.47877 0 0.84897-0.0473 1.1106-0.14195 0.26164-0.0946 0.39246-0.28109 0.39246-0.55938v-0.50154c0-0.25586-0.0724-0.44784-0.21712-0.57594-0.14476-0.1281-0.45652-0.19215-0.93528-0.19216h-1.0525c-0.84608 0.00001-1.5057-0.1698-1.9789-0.50943-0.47316-0.33962-0.70974-0.83784-0.70974-1.4947v-0.98523c0-0.73496 0.35075-1.2416 1.0522-1.5199 0.7015-0.27828 1.6924-0.41742 2.9728-0.41743 0.53448 0.00001 1.492 0.0501 2.8726 0.15036v1.553c-1.737-0.13353-2.7168-0.2003-2.9394-0.20031-0.67925 0.00001-1.108 0.0473-1.2862 0.14195-0.17823 0.0946-0.26734 0.27549-0.26733 0.54256v0.43426c-0.00001 0.13354 0.0697 0.25603 0.20897 0.36748 0.13931 0.11146 0.35372 0.16718 0.64323 0.16718h1.0688c1.9817 0 2.9725 0.64578 2.9725 1.9373z"/>
<path d="m-555.22-605.04v2.6555c-0.00001 1.1023-0.33122 1.8845-0.99363 2.3466-0.66244 0.46212-1.7286 0.69318-3.1986 0.69318-1.5474 0-2.6162-0.24219-3.2064-0.72656-0.59022-0.48438-0.88533-1.2554-0.88533-2.3132v-8.8186h2.4384v4.4093c0.14475-0.36731 0.4148-0.62054 0.81015-0.75969 0.39534-0.13914 0.99941-0.20871 1.8122-0.20872 0.69011 0.00001 1.2523 0.0557 1.6866 0.16692 0.43425 0.11129 0.76274 0.29223 0.98548 0.54282 0.22273 0.2506 0.37028 0.52618 0.44267 0.82671 0.0724 0.30056 0.10855 0.69582 0.10856 1.1858zm-2.4384 2.9725v-2.9893c0-0.52327-0.0974-0.85448-0.2923-0.99363-0.19488-0.13914-0.67645-0.20871-1.4447-0.20872-0.69046 0.00001-1.1414 0.089-1.353 0.26708-0.21152 0.17805-0.31728 0.48981-0.31728 0.93527v2.9893c0 0.47911 0.10304 0.79937 0.30913 0.96077 0.20608 0.1614 0.66539 0.2421 1.3779 0.2421 0.71254 0 1.1774-0.0807 1.3945-0.2421 0.21712-0.1614 0.32569-0.48166 0.32569-0.96077z"/>
<path d="m-546.05-599.51h-2.3884v-0.73497c-0.17806 0.3228-0.43409 0.55386-0.7681 0.69318-0.33402 0.13931-0.9465 0.20897-1.8374 0.20897-1.0911 0-1.8147-0.16701-2.171-0.50103-0.35627-0.33401-0.53441-1.0299-0.53441-2.0877 0-0.95753 0.18374-1.6228 0.55123-1.9959 0.36748-0.37308 1.0244-0.55963 1.9707-0.55963h2.7391v-0.55098c-0.00001-0.48997-0.11418-0.81566-0.34251-0.97707-0.22835-0.16139-0.70983-0.24209-1.4445-0.2421-0.69046 0.00001-1.637 0.0668-2.8395 0.20031v-1.5367c0.92423-0.11111 1.9541-0.16666 3.0897-0.16667 1.492 0.00001 2.5275 0.18095 3.1066 0.54282 0.579 0.36188 0.8685 1.0772 0.86851 2.1458zm-2.4384-2.0709v-1.5698h-1.6702c-0.53449 0-0.86851 0.0612-1.002 0.18349-0.13355 0.12232-0.20031 0.45073-0.20031 0.98522 0 0.52328 0.0696 0.84065 0.20872 0.9521 0.13914 0.11145 0.49261 0.16718 1.0604 0.16718 0.27829 0 0.48429-0.003 0.618-0.008 0.1337-0.006 0.27845-0.0195 0.43425-0.0418 0.15579-0.0222 0.26436-0.0584 0.32569-0.10856 0.0613-0.0501 0.11425-0.11969 0.15877-0.20872 0.0445-0.089 0.0668-0.20591 0.0668-0.35066z"/>
<path d="m-538.61-605.74h-0.83538c-0.66803 0.00001-1.1719 0.10297-1.5115 0.30887-0.33962 0.20592-0.50943 0.55948-0.50943 1.0607v4.8599h-2.4384v-8.0836h2.3216v1.42c0.0112-0.40095 0.24227-0.76563 0.69318-1.094 0.4509-0.3284 0.92134-0.4926 1.4113-0.49261h0.86851z"/>
<path d="m-535.24-599.51h-1.9373v-1.8038h1.9373z"/>
<path d="m-531.27-608.94h-1.5031v-1.5698h1.5031zm0 9.4364h-1.5031v-8.0836h1.5031z"/>
<path d="m-521.51-604.87v2.8058c-0.00001 0.5012-0.0613 0.92441-0.18374 1.2696-0.12251 0.34523-0.27839 0.61247-0.46764 0.80174-0.18927 0.18926-0.45932 0.33401-0.81015 0.43425-0.35084 0.10024-0.68494 0.16149-1.0023 0.18374-0.31737 0.0223-0.7377 0.0334-1.261 0.0334-0.66804 0-1.1885-0.0223-1.5614-0.0668-0.37292-0.0445-0.74593-0.15308-1.119-0.32569-0.37309-0.17262-0.64034-0.44819-0.80174-0.82672-0.1614-0.37852-0.2421-0.87972-0.2421-1.5036v-2.8058c0-0.53415 0.064-0.98496 0.19215-1.3525 0.1281-0.36747 0.28398-0.65145 0.46764-0.85194 0.18366-0.20047 0.45362-0.35354 0.80989-0.45923 0.35627-0.10566 0.68749-0.16963 0.99364-0.1919 0.30615-0.0222 0.72647-0.0334 1.261-0.0334 0.53449 0.00001 0.95481 0.0111 1.261 0.0334 0.30614 0.0223 0.63744 0.0862 0.99389 0.1919 0.35643 0.10569 0.62648 0.25876 0.81015 0.45923 0.18365 0.20049 0.33953 0.48447 0.46764 0.85194 0.12809 0.3675 0.19214 0.81831 0.19215 1.3525zm-1.5367 3.023v-3.2732c-0.00001-0.74618-0.15036-1.2083-0.45107-1.3864-0.30073-0.17804-0.87973-0.26707-1.737-0.26707-0.8573 0-1.4362 0.089-1.7368 0.26707-0.30055 0.17806-0.45082 0.64018-0.45082 1.3864v3.2732c0 0.35645 0.0389 0.64043 0.11672 0.85194 0.0778 0.21153 0.22256 0.3646 0.43425 0.45923 0.21169 0.0946 0.42882 0.15308 0.65138 0.17534 0.22256 0.0222 0.55097 0.0334 0.98523 0.0334 0.43425 0 0.76274-0.0111 0.98548-0.0334 0.22273-0.0223 0.43986-0.0807 0.65138-0.17534 0.21152-0.0946 0.35627-0.2477 0.43426-0.45923 0.078-0.21151 0.11696-0.49549 0.11697-0.85194z"/>
</g>
</g>
</svg>
