<?xml version="1.0" encoding="UTF-8" standalone="no"?>
<svg xmlns:rdf="http://www.w3.org/1999/02/22-rdf-syntax-ns#" xmlns="http://www.w3.org/2000/svg" version="1.1" xmlns:cc="http://creativecommons.org/ns#" xmlns:xlink="http://www.w3.org/1999/xlink" viewBox="0 0 113.19 37.77" xmlns:dc="http://purl.org/dc/elements/1.1/">
<metadata>
<rdf:RDF>
<cc:Work rdf:about="">
<dc:format>image/svg+xml</dc:format>
<dc:type rdf:resource="http://purl.org/dc/dcmitype/StillImage"/>
<dc:title/>
</cc:Work>
</rdf:RDF>
</metadata>
<g fill-rule="evenodd" transform="translate(-763.21 -608.26)">
<path d="m820.71 613.23c-0.0727 0.00088-0.14617 0.0182-0.21102 0.0563-0.12949 0.076-0.21103 0.21564-0.21103 0.36577v10.762c0 0.10574-0.0492 0.20024-0.14068 0.25327-0.0917 0.0532-0.20354 0.0532-0.29543 0l-1.7585-1.0129c-0.262-0.15108-0.58203-0.15099-0.84409 0l-7.0201 4.0517c-0.26245 0.15139-0.42205 0.44266-0.42205 0.74559v8.1033c0 0.30271 0.15982 0.57989 0.42205 0.73155l7.0201 4.0517c0.26246 0.15145 0.58164 0.15145 0.84409 0l7.0201-4.0517c0.26223-0.15166 0.42205-0.42884 0.42205-0.73155v-20.202c0-0.30731-0.1677-0.5957-0.43612-0.74562l-4.1783-2.3353c-0.0656-0.0366-0.13836-0.043-0.21103-0.0422zm-45.159 10.115c-0.13387 0.005-0.25964 0.0288-0.37984 0.0985l-7.0201 4.0517c-0.26157 0.15122-0.42204 0.42664-0.42204 0.73155l0.014 10.875c0 0.15126 0.078 0.29172 0.21102 0.36582 0.13035 0.078 0.29214 0.078 0.42205 0l4.1642-2.3916c0.26378-0.15671 0.43611-0.4293 0.43611-0.73155v-5.0786c0-0.30293 0.15936-0.58097 0.42205-0.73156l1.7726-1.027c0.1323-0.0765 0.27434-0.11255 0.42205-0.11255 0.14468 0 0.29341 0.036 0.42205 0.11255l1.7726 1.027c0.26268 0.15059 0.42205 0.42863 0.42205 0.73156v5.0786c0 0.30225 0.17405 0.57659 0.43611 0.73155l4.1642 2.3916c0.13078 0.078 0.29234 0.078 0.42205 0 0.12926-0.0741 0.21102-0.21456 0.21102-0.36582l0.014-10.875c0-0.30491-0.15869-0.58033-0.42205-0.73155l-7.02-4.0517c-0.11873-0.0697-0.24506-0.093-0.37984-0.0985h-0.0844zm63.082 0.0985c-0.14667-0.00018-0.29038 0.0369-0.42205 0.11254l-7.0201 4.0517c-0.26223 0.15144-0.42205 0.42862-0.42205 0.73155v8.1033c0 0.30468 0.17164 0.58096 0.43612 0.73155l6.9638 3.9672c0.25717 0.14685 0.57117 0.15783 0.83003 0.0139l4.2205-2.3494c0.13393-0.0743 0.22453-0.21302 0.22509-0.36577 0.00089-0.15279-0.0788-0.28974-0.21102-0.36578l-7.0623-4.0517c-0.13224-0.0754-0.22509-0.22819-0.22509-0.37986v-2.5323c0-0.1514 0.094-0.29014 0.22509-0.36573l2.1946-1.2662c0.13055-0.0755 0.29093-0.0755 0.42204 0l2.1947 1.2662c0.13111 0.0756 0.21102 0.21433 0.21102 0.36573v1.9977c0 0.15162 0.0799 0.29014 0.21102 0.36573 0.13168 0.0758 0.29094 0.0761 0.42205 0l4.2064-2.4478c0.26111-0.15166 0.42205-0.42956 0.42205-0.73154v-1.9555c0-0.30203-0.16038-0.57988-0.42205-0.73155l-6.9779-4.0517c-0.1314-0.0762-0.27538-0.11236-0.42204-0.11254zm-20.99 6.0494c0.0366 0 0.0797 0.009 0.11255 0.0279l2.4057 1.3928c0.0653 0.0378 0.11255 0.10746 0.11255 0.18286v2.7855c0 0.0756-0.0468 0.14532-0.11255 0.18291l-2.4057 1.3927c-0.0655 0.0374-0.14553 0.0374-0.21103 0l-2.4057-1.3927c-0.0655-0.0378-0.11255-0.10728-0.11255-0.18291v-2.7855c0-0.0754 0.0473-0.14487 0.11255-0.18286l2.4057-1.3926c0.0329-0.0189 0.0619-0.0279 0.0985-0.0279z" fill="#4d4d4d"/>
<path d="m859.66 623.25c-0.24338 0-0.48 0.0503-0.68934 0.16882l-6.6262 3.8266c-0.4288 0.24688-0.68934 0.71354-0.68934 1.2099v7.6391c0 0.49606 0.26054 0.96218 0.68934 1.2098l1.7304 0.99887c0.84072 0.41435 1.1508 0.40796 1.5334 0.40796 1.2448 0 1.9555-0.75528 1.9555-2.068v-7.5406c0-0.1066-0.0923-0.18291-0.19695-0.18291h-0.83003c-0.10636 0-0.19696 0.0763-0.19696 0.18291v7.5406c0 0.58187-0.60606 1.167-1.5897 0.67528l-1.8007-1.0551c-0.0636-0.0347-0.11255-0.0958-0.11255-0.16882v-7.6391c0-0.0725 0.0484-0.14617 0.11255-0.18286l6.6121-3.8125c0.0619-0.0356 0.13561-0.0356 0.19695 0l6.6121 3.8125c0.063 0.0378 0.11254 0.10813 0.11254 0.18286v7.6391c0 0.073-0.0366 0.14771-0.0985 0.18287l-6.6262 3.8125c-0.0568 0.0338-0.13505 0.0338-0.19695 0l-1.68-1.01c-0.0507-0.0297-0.11987-0.0275-0.16882 0-0.46988 0.26637-0.55823 0.29734-0.99885 0.45018-0.10861 0.0378-0.27349 0.0967 0.0563 0.28137l2.2228 1.3083c0.21159 0.12245 0.44737 0.18287 0.68934 0.18287 0.24535 0 0.47776-0.0604 0.68935-0.18287l6.6262-3.8125c0.4288-0.2494 0.68935-0.71377 0.68935-1.2098v-7.6391c0-0.49633-0.26055-0.96195-0.68935-1.2099l-6.6262-3.8266c-0.20765-0.11849-0.44596-0.16882-0.68935-0.16882zm-63.026 0.15473c-0.14629 0-0.29105 0.0369-0.42205 0.11255l-7.0201 4.0376c-0.26245 0.15126-0.42205 0.44294-0.42205 0.7456v8.1033c0 0.30302 0.15977 0.57997 0.42205 0.73155l7.0201 4.0517c0.26246 0.15158 0.58164 0.15158 0.8441 0l7.0201-4.0517c0.26201-0.15158 0.42205-0.42853 0.42205-0.73155v-8.1033c0-0.30311-0.15959-0.59434-0.42205-0.7456l-7.0201-4.0376c-0.13101-0.0756-0.27577-0.11255-0.42205-0.11255zm72.86 0.0423v0.19695h0.54867v1.449h0.22509v-1.449h0.56273v-0.19695h-1.3365zm1.5334 0v1.646h0.21103v-0.97068c0-0.0396 0.002-0.10089 0-0.18287-0.003-0.0835 0-0.1563 0-0.197v-0.0423l0.46425 1.3927h0.22509l0.47832-1.3927c0 0.0886-0.0118 0.17413-0.014 0.25323-0.00089 0.077 0 0.13479 0 0.16882v0.97069h0.21102v-1.646h-0.3095l-0.47832 1.3928-0.46426-1.3928h-0.32357zm-9.5946 5.2615c-1.8868 0-3.0106 0.80299-3.0106 2.1384 0 1.4486 1.1153 1.8466 2.9262 2.0258 2.1665 0.21208 2.3353 0.53018 2.3353 0.95664 0 0.7397-0.58974 1.0551-1.9836 1.0551-1.7512 0-2.1361-0.43718-2.265-1.3083-0.0152-0.0934-0.0872-0.16882-0.18288-0.16882h-0.85817c-0.10579 0-0.19696 0.091-0.19696 0.19696 0 1.1151 0.60663 2.4338 3.503 2.4338 2.0967 0 3.306-0.82303 3.306-2.265 0-1.4295-0.9769-1.8132-3.0106-2.0821-2.0551-0.27191-2.2509-0.40498-2.2509-0.88627 0-0.39729 0.16601-0.92856 1.6882-0.92856 1.3596 0 1.8621 0.29321 2.068 1.2099 0.018 0.0862 0.094 0.15473 0.18289 0.15473h0.85816c0.0529 0 0.10411-0.0324 0.14069-0.0704 0.036-0.0405 0.0613-0.0862 0.0563-0.14063-0.13281-1.5788-1.1857-2.3213-3.306-2.3213zm-22.819 1.9274c-0.0281 0-0.0591 0-0.0844 0.014l-1.3506 0.78782c-0.0506 0.0288-0.0844 0.0824-0.0844 0.14068v1.5475c0 0.0583 0.0338 0.11165 0.0844 0.14068l1.3506 0.77373c0.0506 0.0293 0.10467 0.0293 0.15475 0l1.3506-0.77373c0.0501-0.0288 0.0844-0.0824 0.0844-0.14068v-1.5475c0-0.0582-0.0343-0.11169-0.0844-0.14068l-1.3506-0.78782c-0.025-0.0149-0.0423-0.014-0.0703-0.014z" fill="#b3b3b3"/>
</g>
</svg>
