<?xml version="1.0" encoding="UTF-8" standalone="no"?>
<svg xmlns:rdf="http://www.w3.org/1999/02/22-rdf-syntax-ns#" xmlns="http://www.w3.org/2000/svg" version="1.1" xmlns:cc="http://creativecommons.org/ns#" xmlns:dc="http://purl.org/dc/elements/1.1/" viewBox="0 0 50.908 67.742">
<metadata>
<rdf:RDF>
<cc:Work rdf:about="">
<dc:format>image/svg+xml</dc:format>
<dc:type rdf:resource="http://purl.org/dc/dcmitype/StillImage"/>
<dc:title/>
</cc:Work>
</rdf:RDF>
</metadata>
<g transform="translate(-427.68 -503.71)">
<g transform="translate(65.407 -2.0203)">
<path d="m405.73 564.68-17.371 4.8141-17.317-4.8099-3.8612-43.289h42.411z" fill="#666"/>
<path d="m388.38 524.94v40.882l14.032-3.8943 3.3019-36.988z" fill="#808080"/>
<path d="m388.38 535.56v-5.3112h-0.0207-13.295l0.12843 1.4252 1.305 14.629h11.882v-5.3071h-7.0264l-0.48472-5.4355z" fill="#ebebeb"/>
<path d="m382.07 548.96h-2.871-2.4567l0.74158 8.3397 10.879 3.016 0.0249-0.004v-5.5266l-0.0249 0.008-5.9119-1.5992z" fill="#ebebeb"/>
<path d="m371.12 509.63h2.7012v2.668h2.4692v-2.668h2.697v8.0745h-2.697v-2.7053h-2.4692v2.7053h-2.697v-8.0745z"/>
<path d="m382.53 512.31h-2.3739v-2.6763h7.449v2.6763h-2.3739v5.3982h-2.7012v-5.3982z"/>
<path d="m388.79 509.63h2.813l1.7317 2.8379 1.7276-2.8379h2.813v8.0745h-2.6846v-4.002l-1.856 2.871h-0.0497l-1.856-2.871v4.002h-2.639v-8.0745z"/>
<path d="m399.22 509.63h2.7012v5.4065h3.7949v2.668h-6.4961v-8.0745z"/>
<path d="m394.29 553.19-5.9244 1.595v5.5266l10.883-3.016 0.0829-0.89901 1.247-13.978 0.12843-1.4252h-1.4293-10.912v5.3071h6.5375z" fill="#fff"/>
<path d="m388.36 535.56h12.81 0.0166l0.10357-1.1973 0.24443-2.6887 0.12843-1.4252h-13.303v3.2978 1.9969z" fill="#fff"/>
</g>
</g>
</svg>
